<svg width="379" height="419" viewBox="0 0 379 419" fill="none" xmlns="http://www.w3.org/2000/svg">
<path d="M126.274 167.625C128.107 168.413 130.08 168.819 132.074 168.819C134.069 168.819 136.042 168.413 137.875 167.625C144.752 165.039 161.572 149.873 161.572 149.873L166.312 154.53C166.312 154.53 148.447 179.228 137.875 182.858C127.302 186.488 116.696 179.095 116.696 179.095C116.696 179.095 125.263 169.713 126.274 167.625Z" fill="#FAB085"/>
<path d="M105.891 210.39L112.155 411.466L106.587 410.471C106.587 410.471 86.949 366.646 86.4684 351.712C85.9878 336.777 87.7444 326.931 86.4684 319.274C85.1924 311.616 72.9126 248.165 72.9126 248.165L80.4859 205.832L105.891 210.39Z" fill="#2A4C90"/>
<path d="M84.2812 248.165L61.3126 410.604L56.5399 411.631C56.5399 411.631 44.5916 362.518 44.9396 344.766C45.2876 327.014 52.2975 313.704 51.8832 303.328C51.4689 292.951 42.951 238.269 51.9826 207.406C61.0143 176.542 83.4692 208.417 83.4692 208.417L84.2812 248.165Z" fill="#355BA9"/>
<path d="M73.2609 39.4142C73.2609 39.4142 57.3684 35.3698 48.0551 49.1108C38.7417 62.8518 33.8198 72.0511 19.2034 70.6588C4.58706 69.2665 -6.28408 84.2506 4.12305 95.5219C14.5302 106.793 28.2848 99.7321 34.4827 102.948C40.6806 106.163 38.1119 114.998 70.3939 110.125C102.676 105.252 105.626 71.2224 99.5273 52.1109C93.4288 32.9995 75.0341 37.7566 73.2609 39.4142Z" fill="#4C266E"/>
<path d="M83.7508 113.904C83.7508 113.904 92.5504 114.119 100.637 122.556C108.725 130.993 118.253 152.243 126.672 161.111C122.001 165.399 117.699 170.073 113.812 175.084L105.062 165.006C105.062 165.006 104.068 167.26 101.416 172.15C98.7649 177.04 98.8809 179.244 99.262 184.15C99.6432 189.057 107.018 212.329 107.018 212.329C107.018 212.329 97.2071 215.644 80.3535 216.058C69.5712 216.157 58.874 214.141 48.867 210.124C48.867 210.124 60.9976 188.344 61.445 178.366C61.8925 168.387 59.7879 166.763 59.7879 166.763C59.7879 166.763 49.8447 151.48 47.4087 139.281C44.4589 123.634 57.4181 113.672 71.4876 113.904H83.7508Z" fill="#F05553"/>
<path d="M95.4172 65.5702C97.7372 80.8692 92.1028 96.8479 82.4745 98.3066C72.8463 99.7652 62.7374 86.1734 60.4174 70.808C58.0973 55.4426 64.4278 44.2873 74.0892 42.8453C83.7506 41.4032 93.0971 50.2876 95.4172 65.5702Z" fill="#FCCAA6"/>
<path d="M83.7505 93.947V113.887H71.4873V91.9414L83.7505 93.947Z" fill="#FCCAA6"/>
<path d="M80.5852 161.093C80.5852 161.093 72.9125 149.905 69.3827 144.369C67.106 140.501 65.2504 136.4 63.8477 132.136C63.8477 132.136 70.1615 142.893 73.4925 147.551C76.8234 152.209 85.2751 159.767 96.8091 159.85C104.283 159.85 107.233 157.513 108.409 152.971C109.288 156.85 103.885 169.049 102.212 170.657C100.538 172.265 97.5217 171.983 96.0634 172.597C92.749 173.972 92.749 176.26 92.749 176.26L80.5852 161.093Z" fill="#C2394E"/>
<path d="M106.72 157.481C107.66 156.168 108.224 154.623 108.349 153.014C108.475 151.404 108.158 149.79 107.432 148.348C104.897 143.375 98.2515 130.115 98.2515 130.115C98.2515 130.115 104.482 140.922 108.393 147.734C112.304 154.547 109.653 170.327 109.653 170.327L104.284 164.442L106.72 157.481Z" fill="#C2394E"/>
<path d="M79.0773 191.278C79.0773 191.278 72.9291 187.416 68.057 187.366C63.1848 187.316 57.8818 191.51 57.8818 191.51C57.8818 191.51 61.5939 180.586 61.5774 174.619C63.566 174.338 76.8069 187.233 79.359 191.51L79.0773 191.278Z" fill="#C2394E"/>
<path d="M86.8828 49.4422C86.8828 49.4422 92.1029 52.8733 94.9202 62.8848C98.2345 52.2766 89.2029 43.6242 84.2313 44.6519C79.2598 45.6795 86.8828 49.4422 86.8828 49.4422Z" fill="#4C266E"/>
<path d="M83.751 98.0242C81.3021 97.9902 78.8849 97.4661 76.6417 96.4827C73.8245 94.9909 71.6702 90.1675 71.6702 90.1675L71.2559 94.8252L71.5044 103.312L83.7676 99.9967L83.751 98.0242Z" fill="#FAB085"/>
<path d="M86.883 49.442C86.883 49.442 87.7779 57.0833 78.9782 61.4095C70.1785 65.7356 65.7207 67.7247 65.5053 73.5427C65.2898 79.3606 71.6534 80.7032 73.1615 88.3445C74.6695 95.9857 70.3277 99.4832 70.3277 99.4832C70.3277 99.4832 54.369 86.0239 56.5399 64.4096C58.7108 42.7953 80.3371 31.4908 86.883 49.442Z" fill="#4C266E"/>
<path d="M56.0096 409.211L53.209 396.995L63.3012 396.73L62.0749 405.316L61.6441 408.548L58.1805 409.576L56.0096 409.211Z" fill="#FCCAA6"/>
<path d="M54.6839 406.244C54.6839 406.244 52.1318 410.073 53.0267 413.156C53.9216 416.239 54.8496 418.991 54.8496 418.991H56.5068V413.687C57.3035 414.599 58.0397 415.562 58.7109 416.571C59.0584 417.292 59.6015 417.901 60.2783 418.329C60.955 418.757 61.7383 418.986 62.539 418.991H71.2558C71.2558 418.991 72.5318 416.272 71.2558 415.576C69.9797 414.88 65.2567 412.344 64.2459 410.604C63.235 408.863 65.1242 404.172 63.7818 403.973C62.4395 403.775 58.8103 403.31 58.4623 403.973C58.1447 404.748 57.8681 405.54 57.6337 406.344L54.6839 406.244Z" fill="#322875"/>
<path d="M101.565 398.768L111.707 397.028L111.973 405.697L109.868 409.426L105.493 408.067L101.565 398.768Z" fill="#FAB085"/>
<path d="M104.615 406.509C103.707 408.595 103.475 410.914 103.952 413.139C104.88 416.222 105.758 418.974 105.758 418.974H107.416V413.67C108.214 414.584 108.956 415.548 109.636 416.554C109.979 417.275 110.519 417.885 111.193 418.313C111.868 418.741 112.649 418.97 113.448 418.974H122.032C122.032 418.974 123.308 416.255 122.032 415.559C120.756 414.863 116.033 412.327 115.022 410.587C114.011 408.846 113.365 403.277 112.006 403.045C110.647 402.813 107.681 403.244 107.382 403.857C107.177 404.471 107.076 405.116 107.084 405.763L104.615 406.509Z" fill="#322875"/>
<path d="M71.4873 113.903C71.4873 113.903 78.9944 127.876 84.7448 130.644C90.4952 133.412 93.7102 131.755 91.3735 125.672C89.4527 121.38 86.8815 117.411 83.7505 113.903C79.8013 112.398 75.4365 112.398 71.4873 113.903Z" fill="#FCCAA6"/>
<path d="M59.937 166.945C59.937 166.945 72.4156 182.476 81.4804 188.825C81.9698 188.457 82.4849 188.124 83.0216 187.83C86.5013 190.041 90.3899 191.529 94.4562 192.206C87.5955 193.864 82.4582 193.084 79.0609 191.278C75.6637 189.471 61.5611 174.619 61.5611 174.619C61.6269 171.97 61.0706 169.341 59.937 166.945Z" fill="#C2394E"/>
<path d="M306.443 375.795C306.277 370.474 306.311 365.386 306.443 360.612L299.814 204.554L315.359 202.781V203.295L342.52 202.035L343.034 246.258C343.564 242.562 333.505 295.205 329.495 329.55C328.964 334.141 330.588 350.683 329.627 366.496C328.666 382.309 320.181 412.725 320.181 412.725L308.183 413.438C308.183 413.438 307.04 395.072 306.443 375.795Z" fill="#2A4C90"/>
<path d="M368.936 202.532C368.936 202.532 372.101 216.754 373.908 252.258C375.565 286.221 372.134 320.317 372.632 328.903H349.663L330.224 246.026L325.916 202.25L368.936 202.532Z" fill="#335AA9"/>
<path d="M320.099 411.167C320.099 411.167 322.452 418.808 320.099 418.941C317.746 419.073 299.533 418.941 299.533 418.941C299.533 418.941 295.075 417.283 296.749 415.079C298.423 412.874 308.101 412.841 307.885 410.985C308.896 409.277 320.099 411.167 320.099 411.167Z" fill="#322875"/>
<path d="M373.278 410.272C373.278 410.272 375.648 418.809 373.278 418.941C370.908 419.074 352.712 418.941 352.712 418.941C352.712 418.941 348.254 417.284 349.928 415.079C351.602 412.875 361.528 412.129 361.346 410.272C362.374 408.565 373.278 410.272 373.278 410.272Z" fill="#322875"/>
<path d="M349.663 328.954L361.081 410.272H374.339C374.339 410.272 378.763 379.392 376.51 362.204C374.256 345.015 372.599 335.07 372.599 329.053C372.599 323.036 349.663 328.954 349.663 328.954Z" fill="#335AA9"/>
<path d="M324.01 91.4604C324.01 91.4604 341.592 88.6094 348.171 95.2562C354.75 101.903 370.577 161.276 378.979 217.467C350.11 240.075 295.672 233.246 295.672 233.246C295.672 233.246 285.198 126.584 288.132 113.903C291.065 101.223 298.953 97.5601 298.953 97.5601L324.01 91.4604Z" fill="#F6E4E7"/>
<path d="M293.318 102.467C293.318 102.467 288.579 107.042 284.933 120.932C281.287 134.822 280.309 167.873 268.891 170.658C253.977 174.305 236.212 152.806 236.212 152.806L230.859 163.779C230.859 163.779 249.585 206.643 284.204 192.604C310.056 182.161 293.318 102.467 293.318 102.467Z" fill="#F6E4E7"/>
<path d="M291.48 186.587L287.618 120.02C287.618 120.02 285.961 158.144 283.376 176.377C280.791 194.61 257.209 192.571 250.133 188.311C256.579 193.051 276.449 203.411 291.48 186.587Z" fill="#D4C1DA"/>
<path d="M356.391 111.583L350.359 127.628L370.245 223.053L378.929 217.467C378.929 217.467 363.351 132.8 356.391 111.583Z" fill="#D4C1DA"/>
<path d="M318.607 51.0166C318.789 68.1887 310.155 84.8636 299.317 84.9796C288.479 85.0957 279.431 68.5866 279.315 51.4144C279.199 34.2423 287.816 22.9213 298.671 22.739C309.526 22.5567 318.441 33.8445 318.607 51.0166Z" fill="#AA633F"/>
<path d="M306.062 34.1759C306.14 37.7262 306.829 41.2364 308.101 44.5521C310.039 48.7457 313.072 51.5138 313.072 55.0112C313.072 58.5086 310.106 66.8957 314.829 68.3544C319.552 69.813 324.474 63.7464 324.606 57.3483C324.739 50.9502 327.324 38.2369 325.153 31.4244C321.209 18.9762 309.526 14.5672 298.638 15.6114C287.75 16.6557 281.536 12.7107 275.189 17.269C268.842 21.8272 268.776 25.076 269.322 29.4519C270.35 37.5904 275.52 39.7121 273.979 45.53C272.438 51.348 269.886 65.5366 282.033 67.3599C278.636 52.6077 277.84 41.668 284.005 38.386C290.17 35.1041 294.23 42.6293 306.062 34.1759Z" fill="#B3B4B4"/>
<path d="M299.434 83.4709C300.545 86.7265 301.453 90.048 302.152 93.4162C302.334 95.6373 299.218 97.5434 299.218 97.5434C299.218 97.5434 296.003 118.578 308.134 112.13C320.265 105.682 324.01 91.4603 324.01 91.4603C324.01 91.4603 319.337 88.1452 318.293 85.2279C316.635 80.5702 314.365 70.7742 314.365 70.7742L299.434 83.4709Z" fill="#AA633F"/>
<path d="M299.948 84.9626C302.754 84.7126 305.346 83.3594 307.157 81.2C310.322 77.5037 313.785 67.9397 313.785 67.9397L315.674 68.5861C315.674 68.5861 314.249 72.6968 317.812 84.1504C314.813 90.5983 300.495 86.9848 300.495 86.9848L299.948 84.9626Z" fill="#934624"/>
<path d="M198.229 203.445C233.85 203.445 262.727 174.562 262.727 138.933C262.727 103.305 233.85 74.4219 198.229 74.4219C162.608 74.4219 133.731 103.305 133.731 138.933C133.731 174.562 162.608 203.445 198.229 203.445Z" fill="#D0EDF6"/>
<path d="M190.656 147.254C191.915 147.204 190.656 147.254 190.656 147.254V147.254Z" fill="#43C4D9"/>
<path d="M230.528 189.023C230.412 188.244 230.412 188.559 230.528 188.178C230.654 187.822 230.704 187.444 230.677 187.068C230.677 186.537 230.229 186.968 229.865 187.068C229.5 187.167 229.699 187.499 229.649 188.095C229.6 188.692 229.185 188.559 229.185 188.559C228.887 188.559 228.274 189.289 228.125 189.421C227.976 189.554 227.015 190.084 227.015 190.084L225.556 190.78C225.082 190.985 224.662 191.297 224.33 191.692C223.783 192.222 223.982 192.123 223.302 193.234C222.623 194.344 222.756 194.891 222.756 194.891C222.529 195.27 222.28 195.636 222.01 195.985C221.529 196.615 220.568 196.532 219.574 197.129C219.297 197.243 219.061 197.439 218.898 197.691C218.735 197.943 218.653 198.238 218.662 198.538C218.662 198.836 218.662 198.538 220.32 197.825C220.977 197.493 221.681 197.264 222.408 197.145C223.783 196.748 223.269 197.145 224.446 196.847C225.623 196.549 224.661 195.836 226.236 195.024C227.81 194.212 227.097 194.394 227.097 194.394C227.287 194.255 227.465 194.1 227.628 193.93C227.714 193.823 227.814 193.728 227.926 193.648C228.236 193.32 228.493 192.945 228.688 192.537C229.111 191.643 229.708 190.843 230.445 190.184C231.373 189.305 230.66 189.802 230.528 189.023Z" fill="#43C4D9"/>
<path d="M188.269 105.766C191.004 102.815 191.418 102.616 193.025 101.008C194.633 99.4006 195.909 99.0856 197.334 97.6933C198.759 96.301 199.555 94.2456 198.594 94.1959C197.52 93.8723 196.389 93.7875 195.279 93.9472C193.765 94.1181 192.232 93.9828 190.772 93.5494C190.806 93.4303 190.806 93.3039 190.772 93.1848C191.103 93.019 191.335 92.8035 191.169 92.472C190.587 91.6527 189.927 90.8921 189.197 90.2012C189.197 90.2012 188.07 90.3338 188.717 88.8917C189.363 87.4497 189.96 87.1348 189.628 85.9579C189.297 84.781 190.324 84.6319 188.949 84.1346C187.573 83.6373 187.076 83.7534 186.894 84.9634C186.711 86.1734 186.894 86.0242 186.148 86.8861C185.402 87.748 185.817 88.6928 185.154 89.1735C185.154 89.1735 185.684 88.3116 184.574 88.7923C183.463 89.273 184.574 88.9912 182.917 89.82C181.259 90.6487 181.044 89.9691 181.259 90.6653C181.475 91.3615 181.856 91.4775 182.767 91.7427C183.679 92.0079 184.209 90.914 185.054 91.9251C185.535 92.5019 186.092 93.0095 186.711 93.4334C186.711 93.4334 185.866 93.7152 186.711 93.7152C186.7 93.8087 186.7 93.9034 186.711 93.997C186.463 94.1959 185.502 93.3505 185.054 93.5992C184.607 93.8478 184.59 93.5992 184.391 94.3119C184.193 95.0246 184.739 95.1075 183.878 95.3727C183.016 95.6379 183.629 94.7097 183.016 95.6214C182.403 96.533 183.48 96.7816 181.657 97.5938C179.834 98.406 179.221 98.6049 178.873 99.3674C178.673 99.9518 178.4 100.509 178.061 101.025C177.806 101.242 177.514 101.41 177.199 101.522C177.199 101.522 176.901 100.925 175.641 101.423C174.584 101.82 173.594 102.379 172.708 103.08C171.051 104.141 171.383 103.627 171.051 104.589L170.388 106.362C169.955 107.007 169.661 107.735 169.526 108.5C169.526 109.296 169.278 110.324 169.278 110.722C169.278 111.119 169.129 112.495 170.935 110.158C172.741 107.821 172.294 108.036 172.957 107.688C174.118 107.181 175.392 106.987 176.652 107.125C177.614 107.373 179.436 107.688 179.436 107.688H182.867C183.857 107.867 184.876 107.783 185.824 107.446C186.772 107.109 187.615 106.529 188.269 105.766Z" fill="#43C4D9"/>
<path d="M185.137 111.832C184.591 111.709 184.038 111.626 183.48 111.583C183.48 111.583 183.364 111.583 183.248 111.583C182.748 111.45 182.223 111.45 181.723 111.583C181.11 111.882 181.21 111.583 180.298 112.13C179.387 112.677 179.735 111.069 179.387 112.744C179.039 114.418 179.138 114.815 179.685 115.064C179.9 115.219 180.158 115.303 180.422 115.303C180.687 115.303 180.945 115.219 181.16 115.064C181.673 114.779 182.235 114.593 182.817 114.517C182.817 114.517 184.375 114.517 184.69 114.202C185.004 113.887 185.137 113.705 185.137 113.705C185.213 113.322 185.213 112.928 185.137 112.545C185.137 111.832 185.601 111.981 185.137 111.832Z" fill="#43C4D9"/>
<path d="M186.861 120.384C187.474 119.821 185.601 120.235 185.369 120.384C185.137 120.534 184.789 120.733 184.474 120.948C184.062 121.235 183.744 121.639 183.563 122.108C183.364 122.672 183.563 122.506 183.563 123.567C183.563 124.628 183.563 124.843 183.563 125.224C183.563 125.606 182.817 126.236 182.32 127.048C181.993 127.581 181.699 128.135 181.442 128.705C181.176 129.249 180.777 129.717 180.282 130.064L180.63 130.379C180.994 130.678 181.094 130.578 181.806 130.379C182.519 130.181 181.955 130.379 182.966 130.628L183.977 130.877C183.977 130.877 185.436 131.341 185.634 129.915C185.765 129.075 185.848 128.229 185.883 127.379C186.011 126.483 185.926 125.568 185.634 124.711C185.304 123.863 185.304 122.923 185.634 122.075C185.8 121.047 186.463 120.749 186.861 120.384Z" fill="#43C4D9"/>
<path d="M178.426 126.916C178.061 127.33 178.426 127.33 178.426 127.579C178.426 127.827 178.641 127.695 179.337 127.678C179.64 127.644 179.946 127.644 180.249 127.678C180.829 127.678 180.597 127.794 181.243 127.678C181.889 127.562 181.558 127.479 181.773 127.015C181.989 126.551 181.773 126.634 182.088 126.087C182.403 125.54 182.254 125.921 182.42 125.689C182.585 125.457 182.502 125.341 182.42 125.059C182.337 124.778 182.237 124.96 182.105 124.811C181.918 124.611 181.718 124.422 181.508 124.247C181.326 124.098 181.226 124.463 181.094 124.595C180.929 124.755 180.799 124.947 180.713 125.159C180.672 125.042 180.616 124.93 180.547 124.827C180.464 124.711 179.818 124.827 179.569 124.827C179.321 124.827 179.205 125.092 179.006 125.424C178.807 125.756 179.006 126.004 178.89 126.286C178.774 126.568 178.774 126.501 178.426 126.916Z" fill="#43C4D9"/>
<path d="M200.798 102.052C200.367 101.771 200.234 101.903 199.903 101.903C199.591 101.924 199.278 101.896 198.975 101.82C198.395 101.704 198.295 101.903 198.229 101.936C198.163 101.97 197.401 102.334 197.052 102.467C196.704 102.599 196.936 102.699 196.837 103.163C196.738 103.627 197.168 103.395 197.268 103.627C197.351 103.969 197.491 104.294 197.682 104.588C198.097 105.301 197.865 104.705 198.345 104.39C198.826 104.075 198.594 104.108 198.909 103.942C199.223 103.776 199.19 104.323 199.19 104.323C199.19 104.323 200.251 104.588 200.549 104.323C200.847 104.058 200.549 104.108 200.549 103.511C200.549 102.914 200.649 103.329 200.963 103.146C201.278 102.964 200.963 103.146 201.096 102.765C201.229 102.384 201.212 102.301 200.798 102.052Z" fill="#43C4D9"/>
<path d="M190.009 141.651C189.612 141.651 189.446 141.436 189.346 142.115C189.247 142.795 189.744 142.348 189.131 142.961C188.518 143.574 187.722 144.519 188.186 145.049C188.65 145.58 188.568 145.331 189.114 145.364C189.291 145.362 189.465 145.318 189.621 145.234C189.777 145.15 189.91 145.03 190.009 144.884C190.109 144.476 190.17 144.06 190.192 143.64C190.18 143.127 190.119 142.617 190.009 142.115C190.009 142.082 190.424 141.684 190.009 141.651Z" fill="#43C4D9"/>
<path d="M262.263 139.297C262.114 137.275 262.263 137.341 262.064 135.766C261.865 134.192 262.064 135.766 262.313 135.319C262.561 134.871 262.661 135.17 262.611 134.159C262.561 133.148 262.412 132.634 262.164 130.844C261.915 129.053 262.263 129.832 262.164 129.186C262.121 128.958 262.032 128.741 261.9 128.55C261.769 128.358 261.599 128.197 261.401 128.075C261.202 127.877 259.744 128.54 259.628 127.678C259.519 126.786 259.519 125.884 259.628 124.992C259.628 123.467 259.23 123.119 259.23 123.119V120.534C259.23 120.534 258.203 114.716 257.855 114.102C257.507 113.489 256.645 111.931 256.032 110.671C255.317 109.336 254.375 108.136 253.248 107.124C252.337 106.312 252.801 105.599 251.591 105.351C250.381 105.102 250.331 105.45 249.668 105.102C249.206 104.893 248.795 104.587 248.463 104.203C248.131 103.819 247.886 103.368 247.746 102.881C247.547 101.704 246.884 100.892 248.111 101.058C248.699 101.139 249.291 101.189 249.884 101.207C249.884 101.207 250.132 99.5492 249.072 99.2839C248.011 99.0187 247.498 99.0353 247.498 99.0353C247.101 98.9973 246.717 98.8776 246.369 98.6836C246.021 98.4896 245.717 98.2256 245.476 97.9082C244.713 96.8474 243.951 95.3887 243.355 94.7754C242.758 94.1621 244.1 94.676 242.178 93.2505C241.172 92.4826 240.089 91.8216 238.946 91.278C238.284 90.9299 235.052 88.4436 235.052 88.4436C234.965 88.207 234.831 87.9907 234.657 87.8082C234.483 87.6257 234.273 87.4809 234.041 87.3828C233.229 87.0347 233.08 86.6701 232.069 86.9353C231.058 87.2005 230.495 85.9739 231.058 87.1839C231.622 88.3939 231.705 88.3442 231.705 88.6591C231.705 88.974 232.715 90.068 230.893 88.5431C229.07 87.0182 230.743 87.8966 228.175 86.5209C225.606 85.1451 225.639 85.3606 225.076 84.5981C224.512 83.8357 223.717 82.4102 222.59 82.4102C221.463 82.4102 219.441 82.261 219.441 82.261C219.441 82.261 216.608 80.8853 217.221 80.8853C218.603 80.7145 220.005 80.8735 221.314 81.3494C222.678 81.9039 224.086 82.342 225.523 82.6588C225.983 82.7976 226.473 82.7976 226.932 82.6588C226.932 82.6588 228.755 82.5594 226.286 81.5483C223.816 80.5372 222.888 80.6863 221.115 80.0233C219.342 79.3603 219.557 78.6641 217.801 78.7139C216.76 78.7397 215.723 78.8561 214.702 79.062C214.702 79.062 215.166 79.5758 212.829 79.1614C210.493 78.747 211.073 78.3492 209.25 78.4321C207.427 78.515 207.012 78.6641 206.664 78.6641C206.316 78.6641 205.289 78.1503 204.842 78.1006C204.341 78.1329 203.849 78.2448 203.383 78.4321C205.919 80.8521 205.687 79.3437 205.819 80.2554C205.935 80.847 206.166 81.4102 206.499 81.9129C206.499 81.9129 208.918 81.9129 209.432 82.5262C209.946 83.1395 210.41 83.1395 211.586 84.018C212.312 84.5617 213.009 85.1426 213.674 85.7584C214.416 86.5925 215.256 87.3328 216.177 87.9629C217.618 88.9409 217.668 89.1398 217.668 89.1398C217.62 89.6874 217.456 90.2185 217.188 90.6979C216.79 91.2615 216.475 90.9631 216.044 91.8084C215.613 92.6538 216.574 93.3665 216.79 93.9301C217.005 94.4937 217.022 94.5434 216.409 94.4439C215.796 94.3445 215.53 93.1179 214.254 93.8638C212.978 94.6097 212.978 94.129 212.895 94.908C212.813 95.6871 211.951 95.3556 212.895 96.665C213.84 97.9745 214.205 97.7093 214.304 98.6209C214.404 99.5326 214.304 98.853 214.304 99.6983C214.486 100.612 214.486 101.553 214.304 102.466C214.006 103.312 213.807 103.212 213.459 103.792C213.111 104.373 213.326 104.837 213.873 105.881C214.42 106.925 214.536 107.091 213.873 107.539C213.21 107.986 214.039 108.715 212.216 107.804C210.393 106.892 210.128 107.804 209.946 106.312C209.763 104.82 209.415 103.975 209.681 103.328C209.946 102.682 210.41 101.671 210.41 101.671C210.287 101.603 210.149 101.568 210.009 101.568C209.869 101.569 209.732 101.604 209.609 101.672C209.487 101.74 209.383 101.838 209.309 101.956C209.234 102.075 209.191 102.211 209.183 102.35C208.902 103.494 208.868 102.964 208.835 104.008C208.732 104.688 208.842 105.383 209.15 105.997C209.548 107.273 209.25 106.842 210.227 107.522C210.735 107.831 211.298 108.039 211.885 108.135C212.261 108.393 212.654 108.626 213.061 108.831C213.061 108.831 213.459 108.699 213.061 109.262C212.73 109.91 212.21 110.442 211.57 110.787C210.625 111.334 210.062 110.787 209.813 111.666C209.565 112.544 209.714 112.876 209.415 112.909C209.117 112.942 208.537 111.666 208.537 111.666C208.537 111.666 208.537 111.798 208.338 112.577C208.139 113.356 208.073 113.075 207.659 113.754C207.244 114.434 207.195 114.533 206.515 113.754C205.836 112.975 206.515 112.743 204.726 111.931C202.936 111.119 202.77 110.273 201.411 110.555C200.052 110.837 199.953 110.456 199.34 111.268C198.727 112.08 196.572 113.622 196.025 114.252C195.543 114.68 195.231 115.269 195.147 115.909C194.782 117.185 195.445 116.672 194.103 117.451C193.261 117.807 192.504 118.338 191.882 119.009C190.656 120.152 190.325 120.119 190.225 121.163C190.126 122.208 189.214 122.175 190.225 122.821C190.889 123.228 191.682 123.37 192.446 123.219C192.446 123.219 192.761 122.075 192.993 123.086C193.225 124.097 193.888 125.506 193.888 125.506C193.828 125.6 193.762 125.689 193.689 125.771C193.324 126.236 193.009 126.302 193.009 126.02C193.009 125.738 193.158 125.026 193.158 124.926C193.158 124.827 193.258 124.313 192.545 124.926C191.833 125.539 191.468 124.926 191.402 126.086C191.335 127.247 191.766 126.948 191.667 127.86C191.667 128.075 191.667 128.225 191.667 128.341C191.667 128.656 191.667 128.622 191.833 128.44C191.932 128.54 191.949 128.656 191.369 128.722C190.391 128.838 191.369 128.274 189.711 128.722C188.054 129.169 188.154 128.506 188.054 129.269C187.955 130.031 188.518 130.164 187.623 130.926C186.728 131.689 187.375 131.424 185.966 131.954C184.558 132.484 186.066 133.181 183.464 133.031C180.862 132.882 180.597 131.954 180.381 132.435C180.166 132.915 180.033 132.899 180.978 134.457C181.923 136.015 181.889 135.833 181.641 137.059C181.392 138.286 181.641 138.17 181.044 138.717C180.448 139.264 180.564 138.153 178.807 137.772C177.051 137.391 177.664 136.114 176.52 137.142C175.377 138.17 175.095 138.186 175.095 139.695C175.095 141.203 174.598 140.706 174.432 142.032C174.266 143.358 173.587 142.529 174.432 143.689C175.277 144.85 175.973 145.347 175.973 145.496C175.973 145.645 175.576 145.496 175.509 146.524C175.501 146.584 175.501 146.646 175.509 146.706C175.248 146.657 174.978 146.662 174.719 146.722C174.459 146.782 174.215 146.895 174.001 147.054C173.471 147.668 173.869 147.469 172.792 148.065C172.144 148.368 171.513 148.706 170.902 149.076C170.505 149.425 170.571 149.076 170.505 149.955C170.504 150.255 170.422 150.549 170.267 150.806C170.112 151.063 169.891 151.273 169.626 151.414L166.577 152.939C166.577 152.939 167.058 151.845 165.914 152.657C164.771 153.469 165.102 153.005 164.257 154.215C163.412 155.425 163.445 155.027 163.114 156.237C162.782 157.447 163.379 155.972 162.766 157.447C162.47 158.164 162.269 158.916 162.169 159.685C161.887 160.696 161.224 160.961 160.876 162.038C160.528 163.116 159.998 162.917 160.346 163.994C160.477 164.68 160.654 165.355 160.876 166.017C161.123 167.125 161.609 168.166 162.302 169.066C163.578 171.022 162.633 169.945 164.257 171.288C165.178 171.959 165.863 172.904 166.213 173.989C166.759 175 165.202 174.669 167.555 175.332C169.908 175.995 170.455 175.813 171.201 176.476C171.689 176.962 172.294 177.315 172.957 177.503C173.805 177.671 174.678 177.671 175.526 177.503C175.99 177.503 175.791 176.691 177.067 177.155C178.343 177.619 178.625 177.354 180.05 177.768C181.475 178.183 183.215 178.1 183.364 178.448C183.514 178.796 182.354 178.78 183.364 179.923C184.375 181.067 184.856 180.934 184.856 180.934C184.969 180.804 185.109 180.7 185.267 180.628C185.424 180.557 185.595 180.52 185.767 180.52C185.94 180.52 186.111 180.557 186.268 180.628C186.425 180.7 186.565 180.804 186.679 180.934C187.623 181.879 188.087 181.481 188.154 182.758C188.22 184.034 187.01 183.702 187.209 184.515C187.408 185.327 187.209 185.592 188.021 186.603C188.833 187.614 190.855 189.371 190.855 189.371C190.855 189.371 191.799 190.929 192.131 191.393C192.462 191.858 193.076 192.338 192.611 193.051C192.147 193.764 191.932 193.929 191.335 194.709C190.739 195.488 189.844 194.709 190.175 196.117C190.641 197.477 191.544 198.643 192.744 199.433C193.689 200.029 194.02 199.631 195.445 201.09C196.87 202.549 196.655 202.101 196.854 202.565C197.053 203.029 198.743 202.764 199.555 202.565C200.132 202.388 200.663 202.089 201.113 201.687C201.312 201.554 200.848 200.676 202.256 200.875C203.451 200.929 204.644 200.749 205.77 200.344C206.585 199.278 207.538 198.325 208.603 197.51C209.614 196.963 209.747 197.162 210.89 196.565C212.131 196.158 213.348 195.682 214.536 195.14C215.05 194.735 215.527 194.286 215.961 193.797C216.707 192.985 217.502 192.139 217.983 191.626C218.464 191.112 218.861 191.493 219.126 189.736C219.392 187.979 218.116 189.537 219.458 186.984C220.8 184.432 220.684 184.548 221.43 183.868C221.848 183.409 222.321 183.003 222.839 182.658C223.715 182.003 224.64 181.415 225.606 180.901C227.263 179.89 227.363 180.371 228.44 178.614C229.517 176.857 229.65 176.592 230.196 175.779C230.743 174.967 231.34 174.768 231.075 173.608C230.919 173.258 230.839 172.88 230.839 172.498C230.839 172.115 230.919 171.737 231.075 171.387C231.406 170.243 232.086 169.564 231.738 169.298C231.39 169.033 229.716 170.044 229.517 170.044C229.318 170.044 229.716 169.696 228.44 170.575C227.164 171.453 227.694 171.188 226.617 171.586C225.54 171.984 225.739 172.067 224.96 171.934C224.181 171.801 224.214 172.199 223.816 171.52C223.497 170.912 223.226 170.28 223.004 169.63C223.004 169.63 223.485 169.431 222.325 169.298C221.721 169.228 221.147 168.993 220.668 168.619C220.548 168.17 220.328 167.755 220.023 167.405C219.719 167.054 219.338 166.778 218.911 166.597C217.353 165.851 216.409 165.32 216.276 164.027C216.144 162.735 217.088 163.364 216.144 162.005C215.527 161.215 214.851 160.473 214.122 159.784C213.621 159.266 213.291 158.606 213.177 157.895C213.045 156.95 212.829 155.657 213.31 155.392C213.472 155.342 213.645 155.342 213.807 155.392L216.376 158.707C216.376 158.707 220.966 159.403 220.734 160.215C220.572 160.789 220.467 161.378 220.419 161.972C220.419 161.972 222.656 162.652 223.187 163.829C223.442 164.465 223.794 165.057 224.231 165.586C225.109 166.895 225.424 166.298 225.722 167.508L226.02 168.718C227.408 168.33 228.66 167.56 229.633 166.497C230.843 164.84 230.627 165.32 231.953 163.696C233.279 162.072 233.743 162.817 235.035 160.663C236.328 158.508 237.488 156.602 237.488 156.602C237.488 156.602 239.145 155.359 237.389 154.613C235.632 153.867 235.317 152.027 233.809 152.988C233.089 153.461 232.427 154.018 231.837 154.646C231.565 154.852 231.32 155.091 231.108 155.359C231.108 155.359 231.108 155.458 229.964 155.458C228.821 155.458 229.219 155.557 228.506 154.546C228.159 153.876 227.645 153.305 227.015 152.889C225.838 151.894 225.092 152.209 225.507 151.364C225.668 151.019 225.88 150.7 226.136 150.419C226.484 150.419 226.882 150.419 227.296 150.419C228.506 150.419 227.794 150.767 228.954 151.132C230.114 151.496 230.611 151.994 232.268 151.132C233.925 150.27 233.478 150.568 233.743 150.817C234.008 151.066 234.041 151.48 235.914 151.629C237.786 151.778 237.074 150.767 238.897 149.507C240.72 148.248 240.007 148.596 241.333 148.248C242.659 147.9 241.83 148.447 242.642 149.027C243.454 149.607 243.553 149.408 244.167 149.027C244.78 148.646 244.515 148.297 245.625 146.623C246.735 144.949 246.039 146.524 246.139 146.822C246.405 147.476 246.84 148.048 247.398 148.48C248.158 149.081 248.78 149.838 249.221 150.701C250.132 152.176 251.193 154.149 251.193 154.149C251.193 154.149 252.005 156.22 252.569 157.232C253.132 158.243 253.215 157.43 253.579 156.27C253.703 155.741 253.904 155.232 254.176 154.762C254.176 154.762 254.59 156.585 255.137 156.22C255.684 155.856 255.8 155.408 255.137 154.563C254.474 153.718 254.391 154.563 254.077 153.552C253.762 152.541 253.927 151.679 253.53 149.706C253.132 147.734 253.53 148.646 253.629 148.148C253.729 147.651 254.59 142.314 254.839 141.004C255.135 139.862 255.291 138.687 255.303 137.507C255.402 135.137 255.8 135.75 256.662 134.938C257.523 134.125 257.059 135.584 257.474 136.396C257.741 136.941 258.063 137.458 258.435 137.938C258.783 138.468 258.783 137.159 259.098 135.584C259.413 134.009 260.009 136.711 260.009 136.711C260.183 137.73 260.266 138.761 260.258 139.794C260.258 141.618 261.617 142.38 262.329 141.966C263.042 141.551 262.412 141.336 262.263 139.297ZM194.318 127.031C195.064 126.667 195.727 126.7 196.141 125.97C196.556 125.241 196.638 124.876 197.152 124.031C197.666 123.186 198.097 123.119 198.097 122.141C198.097 121.163 196.638 121.246 198.097 120.103C199.21 119.329 200.199 118.39 201.03 117.318C201.577 116.506 201.428 115.992 201.709 115.826C201.991 115.66 202.405 115.395 202.555 115.826C202.704 116.257 203.466 115.694 202.339 116.705C201.212 117.716 201.577 117.998 200.864 119.44C200.152 120.882 199.82 120.998 199.721 121.594C199.621 122.191 200.699 122.307 201.196 122.075C201.693 121.843 202.853 120.65 203.284 121.13C203.715 121.611 204.941 121.561 203.532 122.506C202.124 123.451 201.875 123.119 201.395 123.633C200.914 124.147 200.085 123.633 200.052 124.164C200.019 124.694 201.063 124.677 201.03 125.241C200.997 125.805 201.262 126.219 200.251 125.937C199.24 125.655 199.307 124.777 199.24 125.655C199.28 126.176 199.177 126.698 198.942 127.164C198.594 127.943 199.24 127.943 198.064 127.877C196.887 127.81 197.765 127.197 196.241 127.877C194.716 128.556 195.528 128.341 193.987 128.424C193.725 128.412 193.463 128.463 193.225 128.573V127.678C193.589 127.611 193.738 127.346 194.368 127.031H194.318ZM209.482 153.684C208.123 153.684 207.659 152.889 207.046 153.287C206.432 153.684 206.582 154.845 204.759 154.629C203.581 154.474 202.451 154.067 201.444 153.436C200.967 153.282 200.471 153.193 199.969 153.171C199.157 153.171 198.544 152.872 198.544 153.916C198.544 154.961 199.423 154.629 198.544 155.309C197.666 155.988 198.892 156.801 197.202 155.508C195.512 154.215 195.445 153.85 195.246 153.85C195.048 153.85 194.368 154.066 194.103 153.85C193.838 153.635 194.567 153.933 193.424 153.088C192.28 152.242 193.689 152.375 191.932 152.043C190.175 151.712 189.844 151.496 189.645 151.231C189.446 150.966 189.165 150.966 189.91 149.938C190.656 148.911 191.054 148.463 191.054 148.463L190.656 147.27H189.711C187.01 147.402 188.353 146.922 186.264 147.27C184.176 147.618 185.187 146.855 183.63 147.104C182.072 147.353 185.055 146.723 181.343 147.104C179.887 147.317 178.407 147.317 176.951 147.104C177.239 146.441 177.444 145.745 177.564 145.032C178.108 144.856 178.661 144.712 179.221 144.601C180.033 144.502 181.077 143.955 181.144 143.656C181.21 143.358 181.144 142.513 181.508 142.165C181.873 141.816 181.309 141.535 182.486 141.667C183.663 141.8 183.679 141.932 184.276 141.22C184.872 140.507 185.055 139.943 185.535 139.745C186.016 139.546 186.911 138.833 187.855 139.181C188.8 139.529 188.999 139.181 189.198 139.811C189.324 140.269 189.532 140.702 189.811 141.087C190.291 141.932 190.523 141.087 191.087 141.568C191.617 141.943 192.077 142.409 192.446 142.944C193.158 143.888 193.324 143.557 193.622 144.054C193.921 144.551 193.921 144.336 194.269 144.966C194.617 145.596 194.766 145.446 194.269 145.877C193.967 146.186 193.557 146.364 193.125 146.375C192.512 146.491 191.302 145.546 191.799 146.375C192.284 147.061 192.919 147.628 193.656 148.032C194.136 148.347 194.103 147.502 194.733 147.137C195.221 146.781 195.633 146.33 195.942 145.811C195.942 145.811 196.125 144.899 196.125 144.767C196.01 144.421 195.872 144.083 195.71 143.756L197.003 144.667C197.003 144.667 197.732 143.922 197.566 143.789C196.66 143.203 195.7 142.704 194.7 142.297C194.368 142.297 194.302 142.131 194.169 141.7C193.839 140.987 193.404 140.328 192.877 139.745C192.446 139.231 191.833 138.866 192.031 138.584C192.483 138.317 192.976 138.126 193.49 138.021C193.49 138.021 193.722 137.855 194.269 138.965C194.816 140.076 193.821 139.711 195.545 140.822C197.268 141.932 197.566 141.286 198.246 142.479C198.619 143.138 198.824 143.878 198.843 144.634C199.025 145.314 199.224 145.098 199.555 146.043C200.01 146.866 200.519 147.658 201.08 148.413C201.08 148.646 201.179 149.491 201.726 148.778C202.141 148.172 202.625 147.616 203.168 147.121C203.363 147.187 203.548 147.282 203.715 147.402C203.484 146.623 203.144 145.881 202.704 145.198C202.323 144.966 202.223 144.187 202.223 144.187C202.223 144.187 204.759 143.822 205.024 144.187C205.289 144.551 204.626 144.667 204.891 145.745C205.156 146.822 205.935 146.988 206.979 147.402C207.695 147.765 208.481 147.969 209.283 147.999C209.745 148.128 210.232 148.144 210.702 148.046C211.172 147.948 211.612 147.739 211.984 147.436C212.376 147.203 212.801 147.03 213.243 146.922H213.326L213.691 149.723C213.691 149.723 213.906 149.723 213.691 150.8C213.475 151.878 213.094 151.712 212.995 152.325C212.974 152.644 212.901 152.958 212.779 153.253L212.448 153.171C211.47 153.4 210.48 153.572 209.482 153.684ZM219.027 140.772C218.299 141.037 217.633 141.449 217.072 141.982C215.863 141.807 214.635 141.807 213.426 141.982C213.227 141.982 212.249 141.236 211.139 141.435C210.029 141.634 211.039 141.236 209.067 141.618L206.482 142.082C206.482 142.082 204.56 141.816 205.123 140.64C205.687 139.463 206.035 139.546 206.167 139.081C206.395 138.509 206.666 137.955 206.979 137.424L207.493 137.026C207.626 136.894 207.824 136.313 208.206 136.579C208.534 136.762 208.907 136.848 209.283 136.827C209.283 136.827 209.283 136.645 209.382 137.391C209.482 138.137 208.636 138.137 209.581 138.302C210.526 138.468 210.923 138.302 211.238 138.004C211.553 137.706 210.99 137.358 211.802 137.391C212.614 137.424 212.713 136.579 213.459 137.656C214.205 138.733 213.26 138.651 215.116 138.883C216.972 139.115 217.37 138.435 217.983 138.883C218.632 139.216 219.233 139.634 219.773 140.126C219.74 140.325 220.403 140.159 219.027 140.739V140.772ZM227.313 142.015C226.932 142.413 227.147 142.281 227.114 142.695C227.081 143.109 224.811 142.861 224.811 142.861L223.435 142.181C223.735 141.684 223.83 141.09 223.7 140.524C223.505 139.543 223.04 138.636 222.358 137.905C221.581 137.166 220.845 136.386 220.154 135.568C219.889 135.037 219.491 135.17 220.286 133.91C220.753 132.967 221.5 132.191 222.424 131.689C223.021 131.49 223.866 131.142 223.8 132.269C223.733 133.396 223.8 132.601 223.468 133.811C223.137 135.021 222.209 135.468 223.12 135.982C224.032 136.496 224.777 136.347 225.49 137.49C226.203 138.634 226.103 139.479 226.634 140.026C226.738 140.144 226.87 140.234 227.017 140.289C227.164 140.344 227.323 140.362 227.479 140.341C227.639 140.502 227.823 140.637 228.026 140.739C228.821 141.087 227.727 141.584 227.363 141.982L227.313 142.015Z" fill="#43C4D9"/>
<path d="M164.34 101.787C164.705 100.505 165.43 99.3551 166.428 98.4722C168.317 96.5163 167.721 97.3285 167.571 95.9693C167.422 94.6101 166.295 95.8367 165.55 95.9693C164.24 96.4399 162.975 97.0279 161.771 97.7263C161.771 97.7263 160.562 97.8589 161.44 96.3008C162.318 94.7427 161.987 95.7041 161.771 93.4664C161.556 91.2288 161.771 93.4664 163.594 91.4442C165.417 89.422 165.251 90.0353 167.721 88.4772C170.19 86.9192 169.461 87.7313 171.151 88.6098C172.841 89.4883 170.405 89.6209 169.328 90.9967C168.251 92.3725 170.14 91.5768 173.173 92.1901C176.205 92.8034 173.173 94.5604 173.173 94.5604C173.173 94.5604 172.377 95.1571 168.881 97.9915C165.384 100.826 170.753 99.5496 170.753 99.5496C170.753 99.5496 172.096 98.5385 174.333 96.45C176.57 94.3615 176.686 95.4223 180.812 94.0134C184.939 92.6045 181.542 93.0023 181.343 92.6874C181.144 92.3725 176.686 91.5105 177.432 90.0353C178.177 88.5601 180.348 89.1568 180.348 89.1568C181.914 88.8659 183.416 88.305 184.79 87.4993C186.447 86.3556 184.442 85.1456 184.442 85.1456C185.565 83.4237 187.262 82.1553 189.231 81.5653C193.009 80.0735 191.336 81.5653 196.755 81.7642C202.174 81.9631 198.213 80.0072 199.555 79.4105C200.56 79.1057 201.537 78.7119 202.472 78.2336C203.201 77.6701 202.256 77.3717 201.792 76.8413C201.328 76.3109 201.792 76.8413 198.843 75.9628C197.484 75.3852 195.959 75.3379 194.567 75.8302C194.567 75.8302 192.91 76.7087 192.612 76.775C192.313 76.8413 186.546 77.7695 186.546 77.7695C184.814 77.8842 183.075 77.8842 181.343 77.7695C179.122 77.5706 168.284 79.8415 157.761 88.6264C151.705 93.5285 146.58 99.4799 142.631 106.196C141.958 108.274 141.404 110.388 140.974 112.528C141.915 111.62 142.795 110.651 143.609 109.627C144.951 107.97 144.155 108.749 146.774 107.522C147.809 107.017 148.871 106.569 149.956 106.18C152.11 105.301 151.033 108.003 153.055 109.014C155.076 110.025 153.867 108.815 154.132 108.268C154.397 107.721 154.132 108.003 154.264 105.699C154.397 103.395 154.397 103.809 156.087 103.461C157.778 103.113 156.087 104.688 156.7 105.848C157.313 107.009 158.358 107.506 158.921 108.268C159.484 109.031 157.91 109.08 156.7 109.08C155.491 109.08 155.822 110.158 154.944 111.567C154.065 112.976 155.689 115.147 157.098 112.86C157.946 111.551 158.894 110.31 159.932 109.147C160.882 108.109 161.644 106.915 162.186 105.616C163.197 103.71 164.34 101.787 164.34 101.787Z" fill="#43C4D9"/>
<path d="M146.657 173.575C146.657 172.78 146.26 171.42 146.657 170.608C147.055 169.796 147.735 170.078 147.602 167.774C147.433 166.068 147.026 164.394 146.392 162.801C145.108 161.979 143.985 160.928 143.078 159.702C142.067 158.044 141.669 158.492 141.255 155.79C140.841 153.088 140.658 152.276 140.244 150.187C139.83 148.099 140.244 147.751 139.515 146.06C138.786 144.369 138.289 144.585 137.41 142.629C136.682 141.325 136.29 139.862 136.267 138.369C136.068 136.148 136.532 136.711 136.814 134.523C137.047 132.259 137.047 129.976 136.814 127.711C136.394 126.575 136.325 125.34 136.615 124.164C136.88 121.976 137.211 120.484 137.211 120.484C137.211 120.484 135.554 121.678 134.825 126.998C132.858 136.513 133.222 146.363 135.886 155.707C140.31 172.282 149.458 181.2 149.458 181.2C149.182 179.825 148.754 178.485 148.182 177.205C147.462 176.095 146.946 174.866 146.657 173.575Z" fill="#43C4D9"/>
<path d="M92.6494 176.294C94.4823 177.079 96.4555 177.484 98.4495 177.484C100.443 177.484 102.417 177.079 104.25 176.294C111.127 173.692 127.931 158.525 127.931 158.525L132.67 163.183C132.67 163.183 114.839 187.897 104.283 191.51C93.7265 195.124 83.0874 187.748 83.0874 187.748C83.0874 187.748 91.6385 178.366 92.6494 176.294Z" fill="#FCCAA6"/>
<path d="M127.965 158.525C130.938 156.775 134.237 155.647 137.659 155.21C142.846 154.68 153.27 157.663 151.994 159.603C150.718 161.542 131.726 164.575 129.655 163.995C127.583 163.415 127.965 158.525 127.965 158.525Z" fill="#FCCAA6"/>
<path d="M354.237 138.767C354.237 138.767 346.763 162.967 335.295 180.205C323.828 197.444 312.493 200.593 311.415 211.516C310.884 219.105 311.324 226.73 312.725 234.208C307.023 234.425 301.313 234.103 295.672 233.246C294.181 217.334 289.541 153.055 289.541 153.055C289.541 153.055 304.803 158.127 309.907 157.911C315.011 157.696 328.932 119.788 332.561 104.87C339.82 112.633 346.469 120.945 352.447 129.733L354.237 138.767Z" fill="#D4C1DA"/>
<path d="M332.561 104.92C332.561 104.92 321.64 161.674 307.802 161.624C293.965 161.575 259.744 146.143 259.744 146.143L253.546 156.37C253.546 156.37 288.562 184.714 313.089 183.852C337.615 182.99 351.618 133.546 355.082 120.103C358.545 106.66 354.568 96.5494 346.398 93.8807C338.228 91.2121 332.561 104.92 332.561 104.92Z" fill="#F6E4E7"/>
<path d="M259.114 147.204C259.114 147.204 256.314 135.601 253.314 132.518C250.315 129.435 242.89 124.23 241.366 126.551C239.841 128.871 247.365 138.153 248.243 140.607C249.122 143.06 250.414 147.402 251.392 149.972C252.177 151.626 253.529 152.944 255.203 153.685L259.114 147.204Z" fill="#AA633F"/>
<path opacity="0.3" d="M212.838 0.678689C200.924 -3.45336 195.921 12.6326 195.921 12.6326C195.921 12.6326 190.931 -3.45336 179.081 0.678689C160.131 7.22425 195.921 48.6079 195.921 48.6079C195.921 48.6079 231.712 7.22425 212.838 0.678689Z" fill="#43C4D9"/>
</svg>
