<svg width="294" height="275" viewBox="0 0 294 275" fill="none" xmlns="http://www.w3.org/2000/svg">
<mask id="mask0" mask-type="alpha" maskUnits="userSpaceOnUse" x="0" y="0" width="294" height="275">
<path fill-rule="evenodd" clip-rule="evenodd" d="M149.553 0.0274391C193.102 -0.612871 238.056 9.91219 266.906 35.9314C294.506 60.8225 295.608 96.3403 293.119 129.505C290.815 160.212 277.53 188.35 253.655 212.514C225.743 240.763 194.547 272.326 149.553 274.808C102.885 277.383 59.6299 253.7 29.9754 224.853C2.9049 198.519 -1.0022 163.542 0.185381 129.505C1.33001 96.6999 8.58484 63.4736 36.4489 39.3199C65.3914 14.2312 106.809 0.655916 149.553 0.0274391Z" fill="white"/>
</mask>
<g mask="url(#mask0)">
<path fill-rule="evenodd" clip-rule="evenodd" d="M149.553 0.0274391C193.102 -0.612871 238.056 9.91219 266.906 35.9314C294.506 60.8225 295.608 96.3403 293.119 129.505C290.815 160.212 277.53 188.35 253.655 212.514C225.743 240.763 194.547 272.326 149.553 274.808C102.885 277.383 59.6299 253.7 29.9754 224.853C2.9049 198.519 -1.0022 163.542 0.185381 129.505C1.33001 96.6999 8.58484 63.4736 36.4489 39.3199C65.3914 14.2312 106.809 0.655916 149.553 0.0274391Z" fill="white" stroke="url(#paint0_linear)" stroke-opacity="0.4"/>
<path d="M119.03 276H193.814L189.271 255.191L173.908 239.532H112.78L119.03 276Z" fill="#51495B"/>
<path d="M112.019 232.803C112.019 232.803 123.093 238.7 145.242 240.59C167.391 242.481 176.278 236.697 176.278 236.697L160.379 98.3584L124.475 99.5858L112.019 232.803Z" fill="#DFF2F7"/>
<g style="mix-blend-mode:multiply" opacity="0.2">
<path d="M147.246 110.448L149.616 111.69L153.735 107.091C153.735 107.091 153.044 131.581 154.44 160.516C155.837 189.45 155.696 210.823 168.209 237.247C169.86 242.424 176.942 245.838 176.942 245.838L185.533 263.162V276H191.176L193.772 270.879L191.43 259.494L182.458 239.448L180.61 141.457C180.61 141.457 164.231 100.192 164.076 100.065C163.921 99.9382 154.553 96.7217 153.735 96.9333C152.917 97.145 145.271 102.097 145.271 102.097L147.246 110.448Z" fill="#6DB8BC"/>
</g>
<g style="mix-blend-mode:multiply" opacity="0.2">
<path d="M137.426 109.221L135.889 111.309L130.486 107.345L124.476 233.579L123.065 276H117.986C117.986 276 114.29 210.682 113.754 167.513C113.218 124.344 127.424 99.5854 127.424 99.5854L140.77 106.639L137.426 109.221Z" fill="#6DB8BC"/>
</g>
<path d="M173.909 244.512L175.743 250.55L181.993 257.858L187.678 265.151L191.036 267.649L193.815 261.963L179.975 242.989L175.616 242.678L173.909 244.512Z" fill="#36313F"/>
<path d="M121.218 231.872C129.545 234.812 138.278 236.444 147.105 236.71C156.121 236.921 165.142 236.6 174.121 235.751L178.198 244.582C178.198 244.582 165.219 248.025 144.735 246.727C124.251 245.429 117.931 243.341 117.931 243.341L121.218 231.872Z" fill="#36313F"/>
<path d="M128.341 102.802L136.002 109.545L142.449 96.933L149.277 109.545L157.643 99.684L156.839 93.7024L154.737 91.1489L130.175 92.5738L126.804 97.582L128.341 102.802Z" fill="#DFF2F7"/>
<path d="M180.892 100.065C180.892 100.065 188.637 101.673 195.549 111.45C202.462 121.226 214.228 156.199 220.054 174.665C225.881 193.132 228.011 209.511 223.722 220.473C219.433 231.434 208.204 247.799 199.5 255.191C188.058 248.744 189.709 233.325 189.709 233.325C189.709 233.325 200.261 214.265 200.642 209.85C201.023 205.434 186.676 166.116 186.676 166.116L175.291 140.398L180.892 100.065Z" fill="#FCF0E8"/>
<path d="M181.611 144.179L180.891 100.051L170.142 96.2139L165.782 112.776L162.171 144.179L160.464 170.504C159.516 176.431 159.233 182.445 159.617 188.435C160.097 200.003 163.031 222.885 176.307 242.156L179.467 246.713L175.742 250.536C177.699 256.755 181.972 261.983 187.677 265.137C192.897 262.584 199.499 255.177 199.499 255.177L189.709 233.311L186.887 227.019L183.755 171.365L181.611 144.179Z" fill="#FCF0E8"/>
<path d="M122.063 190.339L119.03 276H88.8825L93.1147 229.346L90.6882 192.991L71.6149 173.241L70.9941 171.35C70.9941 171.35 78.8238 147.508 84.7066 133.796C90.5895 120.083 94.3139 116.472 99.5054 111.351C104.697 106.23 116.434 101.476 116.434 101.476L122.063 190.339Z" fill="#FCF0E8"/>
<path d="M98.1232 185.994V141.457L83.2539 174.793L98.1232 185.994Z" fill="#EAD9D0"/>
<path d="M88.8825 225.552C88.8825 225.552 86.5265 229.22 80.2487 229.347C76.897 229.513 73.5445 229.034 70.3734 227.936L67.0017 221.771L65.464 223.295C65.464 223.295 61.4434 217.652 61.4434 206.972C61.4434 196.293 66.381 183.271 66.381 183.271L81.9839 204.941L88.8825 225.552Z" fill="#EAD9D0"/>
<path d="M82.3376 220.473C82.3376 220.473 80.7294 226.37 75.6083 228.119C70.4873 229.868 64.0825 225.608 64.4211 217.736C64.7597 209.864 69.8666 204.418 73.5628 204.94C77.2589 205.462 82.3376 220.473 82.3376 220.473Z" fill="#FCF0E8"/>
<path d="M78.3306 219.782C78.5422 219.867 82.7745 221.291 85.6665 219.782C88.5585 218.272 88.883 212.023 88.883 212.023L75.9182 201.781C75.9182 201.781 70.5291 204.109 71.8129 209.498C73.0967 214.887 78.3306 219.782 78.3306 219.782Z" fill="#DBC3B9"/>
<path d="M58.2835 174.553L94.6809 237.459C94.8651 237.778 95.1306 238.042 95.4502 238.226C95.7698 238.409 96.1323 238.505 96.5008 238.503H122.318C122.681 238.504 123.038 238.411 123.355 238.232C123.672 238.054 123.937 237.797 124.124 237.486C124.312 237.174 124.416 236.82 124.425 236.457C124.435 236.093 124.35 235.734 124.18 235.413L90.9988 172.508C90.82 172.165 90.5502 171.879 90.2192 171.68C89.8883 171.481 89.5088 171.377 89.1225 171.379H60.1175C59.7459 171.379 59.3808 171.476 59.0589 171.662C58.7371 171.848 58.4697 172.115 58.2838 172.436C58.098 172.758 58.0001 173.123 58 173.495C57.9999 173.866 58.0977 174.231 58.2835 174.553V174.553Z" fill="#322875"/>
<path d="M130.176 92.5739C130.176 92.5739 132.645 93.9846 141.843 93.6743C151.041 93.3639 154.737 91.149 154.737 91.149C153.586 88.4536 152.849 85.6 152.55 82.6845C152.409 78.9037 130.416 82.1202 130.416 82.1202C130.593 85.6059 130.513 89.1 130.176 92.5739V92.5739Z" fill="#FFB184"/>
<path d="M151.901 30.5997C153.887 30.7939 155.776 31.5518 157.346 32.784C158.915 34.0163 160.1 35.6715 160.76 37.5547C162.487 42.6315 163.046 48.0323 162.397 53.3551C162.199 55.9509 164.541 63.8511 156.754 71.1165C148.966 78.3819 128.059 79.9055 128.059 79.9055C128.059 79.9055 125.082 80.4698 120.088 76.6184C115.094 72.7671 114.431 68.0834 113.147 65.1772C111.602 61.3706 110.997 57.2477 111.384 53.1576C111.948 49.2498 110.058 42.8027 114.671 34.3241C119.284 25.8455 128.891 22.502 137.624 22.8547C140.439 22.9626 143.191 23.7174 145.666 25.0605C148.142 26.4037 150.276 28.2991 151.901 30.5997V30.5997Z" fill="#4C266E"/>
<path d="M119.976 49.6588C120.115 56.4646 120.976 63.2365 122.543 69.8608C125.294 82.8115 135.593 91.0644 144.057 89.442C152.522 87.8197 158.56 76.7452 157.516 57.686C151.732 53.6936 150.462 44.7917 149.742 41.4623C149.288 39.3751 148.318 37.435 146.921 35.8193C146.921 35.8193 138.287 50.858 119.976 49.6588Z" fill="#FFCAA5"/>
<path d="M122.064 190.339C122.064 190.339 125.76 108.092 130.175 92.5737C125.858 93.8716 115.235 100.954 115.235 100.954C115.235 100.954 113.472 114.483 115.743 143.431C116.843 159.186 118.954 174.855 122.064 190.339V190.339Z" fill="white"/>
<path d="M159.577 188.449C159.577 188.449 157.841 160.121 156.84 134.304C155.838 108.487 156.84 93.6743 156.84 93.6743C156.84 93.6743 161.763 92.3341 171.751 95.7481C165.304 118.278 159.577 188.449 159.577 188.449Z" fill="white"/>
<path d="M71.812 209.497C71.812 209.497 73.2228 202.091 74.4078 201.273C75.5928 200.454 82.0541 198.677 82.8723 199.946C83.6905 201.216 80.2201 202.542 80.2201 202.542C80.2201 202.542 84.1984 201.47 84.4524 203.107C84.7063 204.743 82.2375 206.013 82.2375 206.013C82.2375 206.013 85.5245 205.251 85.7079 206.464C85.8913 207.677 83.1827 209.286 83.1827 209.286C83.1827 209.286 85.8631 208.834 85.722 209.977C85.581 211.12 84.3818 212.248 84.0009 213.334C83.62 214.421 83.6906 219.965 80.333 220.219C76.9754 220.473 71.1208 214.717 71.812 209.497Z" fill="#FFCAA5"/>
<path d="M186.676 166.06L181.612 144.18C181.612 144.18 177.817 171.125 179.326 196.787C180.836 222.448 179.453 233.706 176.293 242.171L179.453 246.727L189.695 233.325C189.695 233.325 188.679 218.089 187.551 200.328C186.422 182.566 186.676 166.06 186.676 166.06Z" fill="#EAD9D0"/>
<path d="M189.271 264.093L190.344 275.986H202.222C201.726 269.002 200.817 262.054 199.499 255.177C192.996 260.439 189.271 264.093 189.271 264.093Z" fill="#EAD9D0"/>
<path d="M136.622 108.36C136.538 108.501 141.094 122.566 141.094 122.566H144.381L148.614 108.36L142.435 96.9331L136.622 108.36Z" fill="#F05553"/>
<path d="M141.095 122.566L130.176 202.852L142.365 227.23L153.735 203.134L144.382 122.566C144.382 122.566 142.492 120.62 141.095 122.566Z" fill="#F05553"/>
<path d="M144.692 276C144.692 276 143.691 266.449 143.747 258.097C143.803 249.746 144.227 245.203 144.227 245.203H142.985C142.596 249.956 142.483 254.728 142.647 259.494C142.901 268.086 143.62 276 143.62 276H144.692Z" fill="#36313F"/>
</g>
<defs>
<linearGradient id="paint0_linear" x1="147" y1="0" x2="-38.1422" y2="121.624" gradientUnits="userSpaceOnUse">
<stop offset="0.390625" stop-color="#43C4D9"/>
<stop offset="1" stop-color="white" stop-opacity="0.32"/>
</linearGradient>
</defs>
</svg>
