<svg width="330" height="277" viewBox="0 0 330 277" fill="none" xmlns="http://www.w3.org/2000/svg">
<path fill-rule="evenodd" clip-rule="evenodd" d="M177.792 1.52629C222.039 2.0807 272.325 -2.06706 302.327 25.3079C331.839 52.2348 316.809 93.5204 318.725 130.117C320.801 169.771 343.563 213.792 313.807 244.587C282.973 276.497 226.663 276.161 177.792 275.967C129.229 275.775 77.7246 272.133 43.0542 243.513C8.14435 214.695 -0.0868057 171.259 1.10985 130.117C2.27262 90.1404 13.5533 48.2971 49.4931 22.1399C83.7286 -2.7769 132.536 0.959213 177.792 1.52629Z" fill="white" stroke="url(#paint0_linear)" stroke-opacity="0.4"/>
<path d="M285 67.4004V207.307C285 208.412 284.782 209.506 284.358 210.526C283.934 211.547 283.313 212.474 282.531 213.254C281.748 214.034 280.819 214.653 279.797 215.074C278.774 215.495 277.679 215.71 276.573 215.708H55.4083C53.1783 215.708 51.0396 214.823 49.4627 213.247C47.8859 211.672 47 209.535 47 207.307V67.4004C47 65.1725 47.8859 63.0358 49.4627 61.4604C51.0396 59.8851 53.1783 59 55.4083 59H276.573C277.679 58.9976 278.774 59.2131 279.797 59.6341C280.819 60.0552 281.748 60.6736 282.531 61.4539C283.313 62.2341 283.934 63.161 284.358 64.1814C284.782 65.2018 285 66.2957 285 67.4004ZM269.467 197.866V78.1053C269.467 76.1978 268.708 74.3684 267.358 73.0195C266.008 71.6707 264.177 70.9129 262.268 70.9129H72.9318C71.0208 70.9129 69.1877 71.6701 67.8347 73.0184C66.4816 74.3667 65.719 76.1961 65.7141 78.1053V197.866C65.719 199.776 66.4816 201.605 67.8347 202.953C69.1877 204.302 71.0208 205.059 72.9318 205.059H262.268C264.177 205.059 266.008 204.301 267.358 202.952C268.708 201.603 269.467 199.774 269.467 197.866Z" fill="#322875"/>
<path d="M274.286 76.8042V197.792C274.264 198.77 274.049 199.734 273.654 200.629C273.259 201.524 272.69 202.332 271.982 203.007C271.273 203.682 270.438 204.211 269.525 204.563C268.611 204.915 267.637 205.083 266.659 205.059H66.5332C65.556 205.081 64.584 204.91 63.6726 204.557C62.7613 204.204 61.9286 203.675 61.2221 203C60.5155 202.325 59.949 201.518 59.5548 200.624C59.1606 199.731 58.9465 198.768 58.9248 197.792V76.8042C58.9465 75.8279 59.1606 74.8654 59.5548 73.9718C59.949 73.0782 60.5155 72.2709 61.2221 71.596C61.9286 70.9212 62.7613 70.3921 63.6726 70.0389C64.584 69.6857 65.556 69.5153 66.5332 69.5375H266.659C267.637 69.5128 268.611 69.6814 269.525 70.0334C270.438 70.3855 271.273 70.9143 271.982 71.5893C272.69 72.2644 273.259 73.0725 273.654 73.9674C274.049 74.8623 274.264 75.8263 274.286 76.8042Z" fill="white"/>
<path d="M220.877 163.763L209.064 174.356L197.271 163.763V133.302H220.877V163.763Z" fill="#FFB184"/>
<path d="M158.503 171.699C165.497 160.065 185.328 156.162 197.27 147.297C197.27 147.297 201.94 164.023 209.529 164.023C219.054 164.023 220.877 147.297 220.877 147.297C233.75 158.076 252.501 160.585 257.821 165.975C270.155 178.296 270.304 205.003 270.304 205.003H149.016C149.245 193.269 152.514 181.795 158.503 171.699V171.699Z" fill="#C1E2ED"/>
<path d="M185.7 87.7322C186.853 86.1896 191.281 86.487 194.834 83.0116C199.745 78.1052 214.385 74.2024 226.663 83.7179C233.378 88.9216 237.824 96.5972 235.331 106.912C234.327 111.279 237.731 112.655 227.89 127.355L190.685 127.597C190.685 127.597 185.086 124.437 184.658 119.81C183.226 107.767 178.017 98.0282 185.7 87.7322Z" fill="#A3CFDC"/>
<path d="M188.62 113.992C187.932 129.622 196.954 143.951 207.818 144.174C218.682 144.397 228.801 133.562 229.49 117.988C230.178 102.414 221.565 88.9214 210.273 87.8063C198.982 86.6912 189.29 98.4183 188.62 113.992Z" fill="#FCC8A0"/>
<path d="M229.471 114.457C232.708 111.167 234.066 98.6412 227.871 92.4525C221.677 86.2637 218.719 78.4394 207.409 83.8291C199.186 87.7319 191.95 85.8362 189.253 91.4489C185.886 98.4554 184.491 108.603 188.36 115.962C193.959 96.1694 218.142 93.8092 229.471 114.457Z" fill="#C1E2ED"/>
<path d="M193.569 160.566C193.999 162.161 194.948 163.566 196.266 164.562C203.93 170.658 197.959 168.446 193.643 164.562C186.983 158.485 194.145 150.233 195.503 148.523C196.489 147.353 196.619 147.353 197.178 147.353C197.178 147.353 192.062 154.879 193.457 160.622L193.569 160.566Z" fill="white"/>
<path d="M189.96 161.105C190.42 162.65 191.382 163.997 192.694 164.934C200.396 170.918 194.666 168.428 190.09 164.934C185.514 161.44 191.336 150.698 193.401 149.88C193.401 149.88 194.276 149.285 195.894 148.282C195.894 148.282 188.453 155.548 189.96 161.124V161.105Z" fill="white"/>
<path d="M228.931 163.447C228.931 163.447 224.392 150.438 220.877 147.297C220.858 146.981 220.858 146.665 220.877 146.349C221.546 147.297 222.997 148.208 225.453 150.698C228.708 153.95 231.424 164.73 232.392 168.354C228.671 172.071 229.992 164.934 229.992 164.934L228.931 163.447Z" fill="white"/>
<path d="M193.494 169.208C193.237 167.803 193.501 166.352 194.237 165.127C194.974 163.903 196.131 162.988 197.494 162.555C202.61 160.325 203.949 161.663 207.949 163.893C211.948 166.123 211.502 168.075 216.376 165.305C221.249 162.536 222.161 160.325 225.491 160.325C228.821 160.325 231.499 160.771 231.499 164.766C231.499 168.762 236.615 169.97 232.876 173.706C229.137 177.441 228.095 180.861 221.714 181.976C215.334 183.091 207.167 187.236 202.163 182.311C197.159 177.386 192.881 173.018 193.494 169.208Z" fill="white"/>
<path d="M202.163 172.015C203.397 174.559 205.541 176.548 208.172 177.59C212.599 179.449 216.375 181.14 219.054 178.482C221.733 175.825 224.021 175.564 225.937 173.65C227.853 171.736 229.658 168.26 225.937 170.045C222.217 171.829 219.538 176.884 216.878 176.884C214.217 176.884 211.055 177.795 207.948 174.691C207.243 173.844 206.358 173.165 205.357 172.702C204.357 172.24 203.266 172.005 202.163 172.015Z" fill="#EFE6E8"/>
<path d="M191.764 99.6079C191.764 99.6079 186.035 106.54 186.035 109.272C185.179 111.948 186.035 113.212 187.746 109.272C188.993 106.373 191.764 99.6079 191.764 99.6079Z" fill="#A3CFDC"/>
<path d="M232.019 101.745C230.169 99.8199 228.074 98.1454 225.788 96.7642C223.537 95.7978 224.746 97.1731 225.788 98.2138C226.829 99.2546 226.867 99.5519 229.508 102.841C231.053 104.658 231.932 106.945 232.001 109.328C232.774 106.86 232.781 104.216 232.019 101.745V101.745Z" fill="#A3CFDC"/>
<path d="M73.6204 105.574C72.4676 104.964 71.503 104.051 70.8301 102.935C70.1714 101.773 69.8252 100.46 69.8252 99.1249C69.8252 97.7895 70.1714 96.4769 70.8301 95.315C71.503 94.1984 72.4676 93.286 73.6204 92.6759C74.8471 92.0321 76.2159 91.7062 77.6014 91.7281C78.7563 91.7136 79.9021 91.935 80.9684 92.3786C81.9438 92.795 82.8096 93.4311 83.4983 94.237L81.3591 96.1699C80.9252 95.6391 80.377 95.2131 79.7553 94.9235C79.1337 94.6339 78.4546 94.4882 77.7688 94.4972C76.9386 94.4802 76.1181 94.6788 75.3877 95.0734C74.7095 95.4532 74.1495 96.0127 73.7693 96.6903C73.3784 97.4224 73.174 98.2394 73.174 99.0691C73.174 99.8989 73.3784 100.716 73.7693 101.448C74.1495 102.126 74.7095 102.685 75.3877 103.065C76.1181 103.459 76.9386 103.658 77.7688 103.641C78.4566 103.651 79.1375 103.503 79.7597 103.21C80.3818 102.917 80.9289 102.486 81.3591 101.95L83.4983 103.92C82.8101 104.734 81.9361 105.372 80.9498 105.778C79.7775 106.254 78.517 106.473 77.2529 106.422C75.9888 106.37 74.7503 106.05 73.6204 105.481V105.574Z" fill="#322875"/>
<path d="M85.7305 91.9697H89.0417V106.28H85.7305V91.9697Z" fill="#322875"/>
<path d="M95.3662 94.6645H90.8271V91.9697H103.309V94.6645H98.7146V106.28H95.3662V94.6645Z" fill="#322875"/>
<path d="M111.7 101.207V106.28H108.388V101.169L102.808 91.877H106.342L110.249 98.3259L113.969 91.9699H117.225L111.7 101.207Z" fill="#322875"/>
<path d="M83.7591 132.299V123.713L79.5363 130.794H78.0481L73.8626 123.899V132.299H70.7188V117.989H73.4719L78.8294 126.891L84.2055 117.989H86.9215V132.299H83.7591Z" fill="#322875"/>
<path d="M101.357 129.623V132.281H90.1953V117.97H101.022V120.628H93.5066V123.732H100.203V126.315H93.5066V129.623H101.357Z" fill="#322875"/>
<path d="M103.998 117.989H110.509C111.93 117.961 113.338 118.266 114.62 118.881C115.772 119.432 116.74 120.303 117.41 121.39C118.044 122.526 118.377 123.806 118.377 125.107C118.377 126.408 118.044 127.687 117.41 128.824C116.763 129.965 115.792 130.89 114.62 131.481C113.338 132.095 111.93 132.401 110.509 132.373H103.998V117.989ZM110.341 129.623C111.597 129.683 112.826 129.25 113.764 128.415C114.588 127.539 115.047 126.383 115.047 125.181C115.047 123.979 114.588 122.823 113.764 121.947C112.826 121.112 111.597 120.679 110.341 120.739H107.309V129.623H110.341Z" fill="#322875"/>
<path d="M120.907 117.989H124.218V132.299H120.907V117.989Z" fill="#322875"/>
<path d="M130.507 131.593C129.354 130.982 128.39 130.07 127.717 128.953C127.058 127.791 126.712 126.479 126.712 125.144C126.712 123.808 127.058 122.496 127.717 121.334C128.39 120.217 129.354 119.305 130.507 118.695C131.717 118.06 133.066 117.734 134.432 117.747C135.587 117.732 136.733 117.954 137.799 118.397C138.775 118.814 139.641 119.45 140.329 120.256L138.246 122.189C137.812 121.658 137.264 121.232 136.642 120.942C136.02 120.653 135.341 120.507 134.656 120.516C133.825 120.499 133.005 120.697 132.274 121.092C131.596 121.472 131.036 122.031 130.656 122.709C130.265 123.441 130.061 124.258 130.061 125.088C130.061 125.918 130.265 126.735 130.656 127.467C131.036 128.144 131.596 128.704 132.274 129.084C133.005 129.478 133.825 129.677 134.656 129.66C135.343 129.669 136.024 129.522 136.646 129.229C137.269 128.936 137.816 128.505 138.246 127.968L140.385 129.994C139.697 130.809 138.823 131.446 137.837 131.853C136.664 132.328 135.404 132.547 134.14 132.496C132.876 132.445 131.637 132.124 130.507 131.555V131.593Z" fill="#322875"/>
<path d="M151.751 129.233H145.11L143.845 132.299H140.44L146.821 117.989H150.095L156.513 132.299H153.034L151.751 129.233ZM150.709 126.724L148.439 121.241L146.17 126.724H150.709Z" fill="#322875"/>
<path d="M158.001 117.989H161.312V129.623H168.493V132.318H158.001V117.989Z" fill="#322875"/>
<path d="M73.6204 157.611C72.4676 157.001 71.503 156.089 70.8301 154.972C70.1714 153.81 69.8252 152.498 69.8252 151.162C69.8252 149.827 70.1714 148.515 70.8301 147.353C71.503 146.236 72.4676 145.324 73.6204 144.714C74.8471 144.07 76.2159 143.744 77.6014 143.766C78.7563 143.751 79.9021 143.973 80.9684 144.416C81.9438 144.833 82.8096 145.469 83.4983 146.275L81.3591 148.207C80.9252 147.677 80.377 147.251 79.7553 146.961C79.1337 146.671 78.4546 146.526 77.7688 146.535C76.9386 146.518 76.1181 146.716 75.3877 147.111C74.7095 147.491 74.1495 148.05 73.7693 148.728C73.3784 149.46 73.174 150.277 73.174 151.107C73.174 151.936 73.3784 152.753 73.7693 153.486C74.1495 154.163 74.7095 154.723 75.3877 155.102C76.1181 155.497 76.9386 155.696 77.7688 155.679C78.4566 155.688 79.1375 155.541 79.7597 155.248C80.3818 154.955 80.9289 154.524 81.3591 153.987L83.4983 155.957C82.8101 156.772 81.9361 157.409 80.9498 157.816C79.7775 158.291 78.517 158.511 77.2529 158.459C75.9888 158.408 74.7503 158.087 73.6204 157.519V157.611Z" fill="#322875"/>
<path d="M96.8177 155.642V158.299H85.6562V143.989H96.4829V146.646H89.0233V149.75H95.6644V152.333H89.0233V155.642H96.8177Z" fill="#322875"/>
<path d="M112.592 144.007V158.318H109.876L102.807 149.639V158.318H99.459V144.007H102.194L109.318 152.705V144.007H112.592Z" fill="#322875"/>
<path d="M118.955 146.702H114.379V144.007H126.861V146.702H122.266V158.318H118.955V146.702Z" fill="#322875"/>
<path d="M139.734 155.642V158.299H128.572V143.989H139.455V146.646H131.921V149.75H138.58V152.333H131.921V155.642H139.734Z" fill="#322875"/>
<path d="M151.49 158.318L148.737 154.341H145.686V158.318H142.356V144.008H148.57C149.7 143.978 150.823 144.193 151.862 144.64C152.754 145.013 153.511 145.648 154.033 146.461C154.555 147.275 154.816 148.227 154.783 149.193C154.834 150.169 154.577 151.136 154.05 151.959C153.523 152.782 152.752 153.42 151.844 153.783L155.043 158.374L151.49 158.318ZM150.653 147.353C149.994 146.881 149.193 146.651 148.384 146.702H145.686V151.702H148.384C149.196 151.757 150.001 151.52 150.653 151.033C150.905 150.793 151.106 150.505 151.243 150.185C151.38 149.866 151.451 149.522 151.451 149.174C151.451 148.827 151.38 148.483 151.243 148.163C151.106 147.844 150.905 147.555 150.653 147.316V147.353Z" fill="#322875"/>
<defs>
<linearGradient id="paint0_linear" x1="165" y1="1" x2="-27.3651" y2="141.983" gradientUnits="userSpaceOnUse">
<stop offset="0.390625" stop-color="#43C4D9"/>
<stop offset="1" stop-color="white" stop-opacity="0.32"/>
</linearGradient>
</defs>
</svg>
