<svg width="230" height="294" viewBox="0 0 230 294" fill="none" xmlns="http://www.w3.org/2000/svg">
<path d="M99.7501 278.903C99.7501 278.903 72.5194 284.525 76.6818 291.215C80.8442 297.906 95.86 291.215 102.24 285.05C108.619 278.884 99.7501 278.903 99.7501 278.903Z" fill="#322875"/>
<path d="M125.017 273.806C125.017 273.806 131.494 280.77 138.632 280.77C145.77 280.77 148.357 275.149 145.673 272.601C142.989 270.053 127.526 273.806 125.017 273.806Z" fill="#322875"/>
<path d="M94.1881 231.736L77.1106 234.206C77.1106 234.206 57.3879 235.606 46.9625 238.699C38.7155 241.15 43.6364 252.645 50.3079 254.512C56.9794 256.379 101.404 270.598 132.797 259.063C164.19 247.529 173.643 239.613 173.643 237.512C173.643 235.412 178.778 232.397 139.819 231.405C102.435 230.432 94.1881 231.736 94.1881 231.736Z" fill="#294D90"/>
<path d="M125.017 265.773C125.017 265.773 59.1969 233.758 44.8813 239.69C28.5041 246.459 36.4204 263.614 57.388 265.773C78.3555 267.932 111.13 271.92 111.13 271.92L125.017 265.773Z" fill="#335AA9"/>
<path d="M95.2969 278.63C95.2969 278.63 154.037 232.105 168.722 233.447C183.407 234.789 186.792 242.044 177.494 250.952C168.197 259.861 126.106 282.832 101.638 287.908C98.9132 285.281 96.7553 282.123 95.2969 278.63V278.63Z" fill="#335AA9"/>
<path d="M83.5877 167.996L77.3052 147.223C77.3052 147.223 39.2991 186.124 53.9647 190.248C64.3318 190.656 83.5877 167.996 83.5877 167.996Z" fill="#F2B186"/>
<path d="M135.52 167.491L151.877 161.014C151.877 161.014 153.667 173.968 155.631 185.191C157.576 195.674 159.521 197.522 153.686 202.424C151.391 204.719 146.645 205.75 142.891 194.41C139.876 186.144 135.52 167.491 135.52 167.491Z" fill="#FCC8A0"/>
<path d="M78.18 143.722C75.3597 146.523 63.6895 160.955 63.6895 160.955L90.9201 174.765L89.578 139.19C89.578 139.19 81.6228 140.319 78.18 143.722Z" fill="#F5E5E6"/>
<path d="M147.074 145.064C150.497 147.865 153.804 169.105 153.804 169.105L131.767 174.765L135.054 140.085C135.054 140.085 142.912 141.641 147.074 145.064Z" fill="#F5E5E6"/>
<path d="M101.267 123.377C102.385 128.265 102.17 133.363 100.645 138.14C95.3931 164.125 123.752 160.099 120.737 137.673C119.414 132.616 116.536 124.058 116.536 119.428C109.942 119.351 101.267 123.377 101.267 123.377Z" fill="#FCC8A0"/>
<path d="M102.279 126.47C102.279 126.47 106.442 137.187 120.213 135.689C117.82 125.711 117.373 122.93 117.373 122.93L102.279 126.47Z" fill="#F2B186"/>
<path d="M100.645 138.14C96.8948 137.971 93.1401 138.351 89.4998 139.268C88.2356 139.599 87.5548 139.851 87.5548 139.851L83.6647 171.42L78.4131 235.392L141.491 233.058C141.491 233.058 137.601 194.468 137.601 174.298C137.601 158.524 137.912 140.61 137.912 140.61C132.291 139.3 126.603 138.294 120.873 137.595C119.278 142.555 119.22 148.468 110.487 148.468C99.3029 148.468 101.248 139.754 100.645 138.14Z" fill="#F5E5E6"/>
<path d="M100.004 188.711V195.246C100.004 195.246 45.912 200.07 50.1716 184.062C53.556 171.322 97.7279 188.711 100.004 188.711Z" fill="#FFCAA6"/>
<path d="M143.942 193.613C143.942 193.613 166.465 180.134 175.257 174.376C178.739 172.081 181.326 170.72 181.326 170.72L183.99 175.096C183.99 175.096 159.736 211.021 148.979 203.63C147.325 202.559 145.986 201.066 145.101 199.305C144.216 197.544 143.815 195.58 143.942 193.613V193.613Z" fill="#FCC8A0"/>
<path d="M178.739 172.081L183.33 169.669C186.044 168.784 188.829 168.133 191.654 167.724C197.762 167.568 198.676 169.436 200.913 168.911C203.15 168.385 206.923 169.922 207.156 170.856C207.39 171.789 195.369 177.235 184.652 175.115C179.362 174.162 178.739 172.081 178.739 172.081Z" fill="#FCC8A0"/>
<path d="M116.731 86.0714C116.187 85.9352 110.079 78.0383 99.9844 81.9479C91.4262 85.235 92.068 89.5141 90.9205 92.7429C89.7729 95.9716 86.0773 99.2393 86.0968 105.891C86.0968 110.715 87.8473 119.662 101.56 123.124C115.272 126.587 123.228 124.233 127.837 118.009C129.452 115.831 131.241 107.992 127.954 104.005C127.159 103.073 126.73 101.884 126.748 100.659C126.884 97.1776 129.004 93.2291 125.445 89.6697C121.886 86.1103 119.979 86.8688 116.731 86.0714Z" fill="#4C266E"/>
<path d="M123.987 107.019C124.823 118.515 119.144 130.01 111.111 130.496C103.078 130.982 95.7256 120.285 94.8115 108.789C93.8973 97.2941 99.9269 89.3389 107.941 88.9109C115.954 88.483 123.112 95.563 123.987 107.019Z" fill="#FFC39F"/>
<path d="M101.249 94.3183C101.249 94.3183 102.338 99.1615 109.029 100.153C115.72 101.145 119.396 100.679 122.061 103.907C124.725 107.136 123.87 112.543 123.87 112.543C123.87 112.543 128.927 92.879 114.144 88.4638C99.362 84.0485 91.893 97.4888 91.5234 104.608C91.5508 109.259 93.3769 113.72 96.6195 117.056C96.6195 117.056 94.8495 111.376 96.1137 108.128C97.378 104.88 101.113 99.6867 101.249 94.3183Z" fill="#4C266E"/>
<path d="M97.436 188.03C99.7103 188.107 101.986 187.937 104.224 187.524C107.118 186.536 110.178 186.127 113.23 186.318C116.283 186.766 119.337 186.318 118.579 188.828C117.82 191.337 117.198 190.889 116.886 193.34C116.671 194.045 116.311 194.698 115.829 195.255C115.347 195.813 114.753 196.264 114.087 196.579C113.42 196.894 112.695 197.066 111.958 197.085C111.221 197.103 110.488 196.967 109.806 196.686C107.044 195.168 106.383 195.888 102.804 196.277C99.2254 196.666 99.4977 195.168 98.0584 194.332C96.6191 193.496 97.436 188.03 97.436 188.03Z" fill="#FCC8A0"/>
<path d="M114.436 228.39C109.168 228.389 103.907 227.986 98.7004 227.184L99.4201 222.555C104.387 223.335 109.408 223.725 114.436 223.722H114.533L114.436 228.39ZM130.23 227.165L129.51 222.536C134.49 221.752 139.401 220.574 144.195 219.015L145.634 223.469C140.606 225.11 135.455 226.346 130.23 227.165V227.165ZM83.2568 223.508C78.2251 221.867 73.3284 219.838 68.6106 217.44L70.7307 213.277C75.2249 215.587 79.8946 217.538 84.6961 219.112L83.2568 223.508ZM160.261 217.401L158.141 213.238C162.628 210.942 166.927 208.295 170.998 205.322L173.76 209.115C169.482 212.222 164.968 214.993 160.261 217.401V217.401ZM55.0925 209.154C50.821 206.045 46.7958 202.612 43.0527 198.884L46.3593 195.577C49.9377 199.107 53.7806 202.358 57.8545 205.302L55.0925 209.154ZM185.799 198.806L182.493 195.499C186.027 191.932 189.279 188.095 192.218 184.024L196.089 186.766C192.973 191.037 189.533 195.063 185.799 198.806V198.806ZM32.7634 186.766C29.6429 182.5 26.8658 177.993 24.4581 173.287L28.6788 171.206C30.9308 175.701 33.5322 180.013 36.459 184.101L32.7634 186.766ZM204.375 173.151L200.212 171.206C202.514 166.708 204.465 162.039 206.047 157.24L210.502 158.68C208.839 163.693 206.79 168.57 204.375 173.268V173.151ZM18.3701 158.738C16.7479 153.705 15.5125 148.555 14.6745 143.333L19.3037 142.614C20.0918 147.589 21.2756 152.493 22.8437 157.279L18.3701 158.738ZM214.119 143.178L209.568 142.497C210.347 137.517 210.737 132.483 210.735 127.442V127.228H215.403V127.423C215.387 132.713 214.958 137.994 214.119 143.217V143.178ZM18.1172 127.54H13.4297C13.431 122.291 13.8341 117.05 14.6356 111.863L19.2648 112.582C18.5013 117.531 18.1177 122.532 18.1172 127.54V127.54ZM209.568 112.174C208.768 107.195 207.585 102.285 206.028 97.4887L210.463 96.0299C212.107 101.058 213.349 106.209 214.178 111.435L209.568 112.174ZM22.8437 97.7999L18.3895 96.3605C19.9922 91.3355 21.9889 86.4448 24.3608 81.7338L28.5232 83.8733C26.265 88.3581 24.3658 93.0149 22.8437 97.7999V97.7999ZM200.193 83.5427C197.885 79.0641 195.232 74.772 192.257 70.7054L195.953 67.9434C199.072 72.2141 201.856 76.7207 204.277 81.4226L200.193 83.5427ZM36.459 70.9388L32.5689 68.1185C35.6841 63.8406 39.124 59.8089 42.8582 56.0592L46.1648 59.3658C42.6331 62.9649 39.388 66.8343 36.459 70.9388V70.9388ZM182.337 59.2685C178.753 55.7372 174.904 52.486 170.823 49.5433L173.565 45.7505C177.847 48.8537 181.879 52.2875 185.624 56.0203L182.337 59.2685ZM57.6989 49.6211L54.9369 45.8283C59.2037 42.7141 63.7109 39.9434 68.4161 37.5424L70.5556 41.6853C66.0682 43.9888 61.7694 46.6422 57.6989 49.6211V49.6211ZM157.966 41.5492C153.465 39.2391 148.789 37.288 143.981 35.7141L145.381 31.3377C150.421 32.967 155.324 34.9896 160.047 37.3868L157.966 41.5492ZM84.5016 35.8891L83.1401 31.435C88.1683 29.7944 93.3196 28.5586 98.5448 27.7394L99.2645 32.3491C94.2586 33.1418 89.3226 34.3254 84.5016 35.8891V35.8891ZM129.238 32.3102C124.327 31.5512 119.366 31.1675 114.397 31.1627H114.261V26.4751H114.436C119.646 26.4794 124.848 26.8825 129.996 27.681L129.238 32.3102Z" fill="#43C4D9"/>
<path d="M98.3316 196.025C98.2154 196.503 97.9219 196.92 97.5104 197.191C97.0988 197.462 96.5998 197.566 96.1142 197.483C95.6292 197.393 95.1967 197.122 94.9042 196.725C94.6117 196.327 94.4811 195.834 94.5387 195.344L95.9392 187.35C96.0553 186.871 96.3488 186.454 96.7604 186.183C97.1719 185.913 97.6709 185.808 98.1565 185.891C98.6413 185.977 99.0755 186.243 99.3715 186.637C99.6675 187.03 99.8033 187.521 99.7515 188.011L98.3316 196.025Z" fill="#322875"/>
<path d="M100.004 188.42C99.8939 188.91 99.6475 189.359 99.293 189.716C98.9385 190.072 98.4906 190.321 98.0008 190.433C97.511 190.546 96.9993 190.517 96.5249 190.352C96.0505 190.186 95.6326 189.889 95.3195 189.496C95.0064 189.103 94.8109 188.629 94.7555 188.13C94.7001 187.63 94.7871 187.125 95.0064 186.673C95.2257 186.221 95.5684 185.84 95.995 185.574C96.4215 185.309 96.9145 185.169 97.4171 185.171C98.1865 185.269 98.8875 185.663 99.3707 186.27C99.8539 186.876 100.081 187.648 100.004 188.42Z" fill="#D0EEF8"/>
<path d="M85.0851 243.561C80.6699 243.561 78.6276 241.111 77.091 234.886L71.2559 209.153C71.2559 204.369 80.6115 204.505 85.0268 204.505H136.609C141.025 204.505 148.552 204.505 148.552 209.29L142.911 234.886C140.752 241.111 140.966 243.561 136.609 243.561H85.0851Z" fill="#322875"/>
<path d="M140.753 246.012C140.753 246.726 140.471 247.411 139.968 247.917C139.465 248.424 138.782 248.711 138.069 248.716H82.5183C82.1658 248.713 81.8173 248.641 81.4926 248.504C81.1679 248.367 80.8734 248.167 80.626 247.916C80.3785 247.665 80.183 247.368 80.0504 247.041C79.9179 246.714 79.851 246.365 79.8536 246.012V246.012C79.851 245.66 79.9179 245.31 80.0504 244.984C80.183 244.657 80.3785 244.36 80.626 244.109C80.8734 243.857 81.1679 243.658 81.4926 243.52C81.8173 243.383 82.1658 243.311 82.5183 243.309H138.069C138.423 243.309 138.774 243.379 139.1 243.515C139.427 243.651 139.724 243.85 139.974 244.102C140.223 244.353 140.42 244.651 140.554 244.979C140.688 245.307 140.755 245.658 140.753 246.012Z" fill="#200F66"/>
<path d="M114.261 224.033C114.28 224.885 114.046 225.724 113.587 226.443C113.128 227.162 112.466 227.728 111.685 228.069C110.903 228.41 110.038 228.512 109.199 228.36C108.36 228.209 107.585 227.811 106.973 227.218C106.36 226.625 105.938 225.863 105.76 225.029C105.582 224.195 105.655 223.327 105.972 222.535C106.288 221.744 106.833 221.064 107.536 220.582C108.24 220.101 109.071 219.84 109.924 219.832C110.485 219.821 111.042 219.922 111.564 220.128C112.086 220.334 112.562 220.641 112.965 221.031C113.368 221.421 113.69 221.888 113.913 222.403C114.135 222.918 114.253 223.472 114.261 224.033V224.033Z" fill="white"/>
<path d="M24.1274 90.642L48.6155 132.305C48.7573 132.504 48.8575 132.729 48.9099 132.967C48.9623 133.206 48.9659 133.452 48.9205 133.692C48.8751 133.932 48.7815 134.16 48.6455 134.363C48.5096 134.566 48.3339 134.739 48.1292 134.872L27.609 146.873C27.204 147.088 26.7321 147.139 26.2906 147.016C25.8491 146.893 25.4716 146.605 25.2361 146.212V146.212L0.689599 104.374C0.433479 103.971 0.347001 103.483 0.449018 103.017C0.551036 102.551 0.833275 102.143 1.23421 101.884L21.6961 89.8834C22.1195 89.6637 22.6125 89.6202 23.0679 89.7623C23.5232 89.9043 23.904 90.2205 24.1274 90.642V90.642Z" fill="#322875"/>
<path d="M24.1268 90.6415L25.5467 93.0339L2.20616 106.785L0.786278 104.374C0.530158 103.971 0.443681 103.483 0.545698 103.017C0.647716 102.55 0.929955 102.143 1.33089 101.884L21.7928 89.883C22.2059 89.6928 22.6756 89.6653 23.1081 89.8059C23.5407 89.9464 23.9044 90.2448 24.1268 90.6415Z" fill="#A680B7"/>
<path d="M47.1966 129.971L48.6165 132.305C48.7583 132.504 48.8585 132.729 48.9109 132.968C48.9633 133.206 48.9669 133.453 48.9215 133.693C48.876 133.933 48.7825 134.161 48.6465 134.364C48.5105 134.566 48.3349 134.74 48.1302 134.873L27.61 146.874C27.1889 147.095 26.6977 147.141 26.2427 147.003C25.7876 146.865 25.4054 146.553 25.1787 146.135L23.7588 143.723L47.1966 129.971Z" fill="#A680B7"/>
<path d="M37.183 139.766C38.1189 139.218 38.6397 138.367 38.3463 137.867C38.0528 137.366 37.0562 137.406 36.1204 137.954C35.1845 138.503 34.6637 139.354 34.9571 139.854C35.2506 140.355 36.2472 140.315 37.183 139.766Z" fill="#322875"/>
<path d="M13.1196 97.4881C13.2089 97.6335 13.2385 97.8079 13.2023 97.9746C13.166 98.1413 13.0667 98.2876 12.9251 98.3829C12.7715 98.4546 12.5967 98.4664 12.4348 98.4161C12.2729 98.3657 12.1357 98.2568 12.0499 98.1105C11.9606 97.9651 11.931 97.7908 11.9672 97.6241C12.0035 97.4573 12.1028 97.3111 12.2444 97.2158C12.398 97.1441 12.5728 97.1322 12.7347 97.1826C12.8966 97.233 13.0339 97.3419 13.1196 97.4881V97.4881Z" fill="#322875"/>
<path d="M24.9834 120.265C24.8922 120.308 24.7925 120.33 24.6916 120.33C24.5907 120.33 24.491 120.308 24.3999 120.265L18.7203 117.697C18.59 117.61 18.4951 117.479 18.4525 117.328C18.4099 117.176 18.4225 117.015 18.488 116.872C18.5535 116.73 18.6676 116.615 18.81 116.549C18.9523 116.483 19.1136 116.469 19.2649 116.511L24.1275 118.689L25.4502 109.217C25.4789 109.048 25.572 108.897 25.7098 108.795C25.8477 108.694 26.0196 108.65 26.1893 108.672C26.3565 108.696 26.5075 108.786 26.6094 108.92C26.7114 109.055 26.7561 109.224 26.7339 109.392L25.2946 119.72C25.2872 119.829 25.2553 119.934 25.2014 120.028C25.1475 120.122 25.073 120.203 24.9834 120.265V120.265Z" fill="white"/>
<path d="M28.0368 123.844C26.5668 124.704 24.8747 125.11 23.1744 125.009C21.474 124.908 19.8417 124.306 18.4835 123.278C17.1254 122.25 16.1024 120.842 15.5439 119.233C14.9853 117.624 14.9162 115.885 15.3452 114.237C15.7743 112.589 16.6823 111.104 17.9546 109.972C19.2268 108.839 20.8062 108.109 22.4932 107.874C24.1802 107.638 25.8991 107.908 27.4328 108.649C28.9664 109.39 30.2461 110.569 31.11 112.037C32.2603 114.012 32.5828 116.362 32.0071 118.574C31.4313 120.786 30.0041 122.68 28.0368 123.844V123.844ZM19.9649 110.073C18.7144 110.808 17.7099 111.897 17.0784 113.202C16.447 114.508 16.2168 115.972 16.4172 117.408C16.6175 118.844 17.2393 120.189 18.204 121.272C19.1686 122.355 20.4328 123.128 21.8366 123.492C23.2404 123.857 24.7207 123.797 26.0904 123.32C27.4602 122.843 28.6577 121.971 29.5317 120.814C30.4056 119.656 30.9167 118.266 31.0003 116.818C31.0839 115.37 30.7363 113.93 30.0013 112.679C29.0159 111.003 27.405 109.786 25.5228 109.298C23.6407 108.809 21.6415 109.088 19.9649 110.073V110.073Z" fill="white"/>
<path d="M229.019 103.129L204.803 156.637C204.583 157.171 204.162 157.597 203.631 157.822C203.099 158.048 202.5 158.055 201.964 157.843L175.783 145.92C175.291 145.669 174.912 145.24 174.724 144.719C174.536 144.199 174.553 143.627 174.772 143.119V143.003L198.929 89.5722C199.149 89.0385 199.571 88.6129 200.102 88.3873C200.633 88.1616 201.232 88.1541 201.769 88.3663L227.949 100.212C228.213 100.331 228.45 100.502 228.647 100.714C228.844 100.925 228.996 101.175 229.096 101.446C229.196 101.718 229.24 102.006 229.227 102.295C229.214 102.584 229.143 102.868 229.019 103.129V103.129Z" fill="#322875"/>
<path d="M229.019 103.129L227.638 106.222L197.646 92.6067L199.046 89.5141C199.266 88.9804 199.687 88.5548 200.219 88.3292C200.75 88.1035 201.349 88.096 201.886 88.3082L228.066 100.153C228.327 100.283 228.559 100.464 228.749 100.685C228.939 100.906 229.083 101.163 229.171 101.44C229.26 101.718 229.293 102.01 229.266 102.3C229.24 102.59 229.156 102.872 229.019 103.129V103.129Z" fill="#A680B7"/>
<path d="M206.203 153.545L204.803 156.637C204.583 157.171 204.162 157.597 203.63 157.822C203.099 158.048 202.5 158.055 201.963 157.843L175.783 145.92C175.271 145.658 174.884 145.204 174.705 144.658C174.527 144.111 174.572 143.516 174.83 143.003L176.211 140.085L206.203 153.545Z" fill="#A680B7"/>
<path d="M192.193 150.333C192.485 149.687 191.754 148.725 190.56 148.186C189.366 147.646 188.161 147.732 187.869 148.378C187.577 149.024 188.308 149.985 189.502 150.525C190.696 151.065 191.901 150.979 192.193 150.333Z" fill="#322875"/>
<path d="M214.469 97.1193C214.433 97.213 214.378 97.2985 214.308 97.3708C214.239 97.4432 214.155 97.5009 214.063 97.5408C213.971 97.5806 213.871 97.6016 213.771 97.6028C213.67 97.6039 213.571 97.585 213.477 97.5472C213.385 97.5017 213.303 97.4384 213.235 97.3608C213.167 97.2832 213.115 97.1929 213.083 97.0952C213.05 96.9975 213.037 96.8943 213.045 96.7916C213.053 96.6889 213.081 96.5887 213.127 96.4969C213.209 96.3096 213.359 96.1607 213.548 96.0811C213.736 96.0015 213.947 95.9971 214.139 96.069C214.229 96.1162 214.31 96.1808 214.376 96.2591C214.441 96.3375 214.491 96.428 214.522 96.5256C214.553 96.6231 214.564 96.7258 214.555 96.8277C214.546 96.9295 214.517 97.0286 214.469 97.1193V97.1193Z" fill="#322875"/>
<path d="M200.252 124.797C200.145 124.743 200.051 124.666 199.978 124.572C199.904 124.478 199.851 124.369 199.824 124.252L198.385 116.744C198.366 116.643 198.367 116.54 198.387 116.439C198.408 116.339 198.449 116.243 198.507 116.158C198.564 116.073 198.638 116.001 198.724 115.944C198.81 115.888 198.906 115.849 199.007 115.83C199.108 115.811 199.212 115.812 199.312 115.833C199.413 115.854 199.508 115.894 199.593 115.952C199.678 116.01 199.751 116.084 199.807 116.17C199.863 116.256 199.902 116.352 199.921 116.453L201.147 122.852L211.514 117.581C211.606 117.533 211.706 117.505 211.809 117.496C211.912 117.488 212.016 117.5 212.114 117.531C212.213 117.563 212.304 117.614 212.383 117.68C212.462 117.747 212.527 117.829 212.574 117.921C212.621 118.013 212.65 118.113 212.658 118.216C212.667 118.319 212.655 118.423 212.623 118.522C212.592 118.62 212.541 118.711 212.474 118.79C212.407 118.869 212.325 118.934 212.234 118.981L201.011 124.816C200.892 124.873 200.761 124.901 200.629 124.897C200.497 124.894 200.368 124.86 200.252 124.797V124.797Z" fill="white"/>
<path d="M198.871 130.36C196.99 129.508 195.404 128.116 194.313 126.363C193.222 124.609 192.676 122.571 192.743 120.507C192.81 118.443 193.488 116.445 194.69 114.765C195.892 113.086 197.566 111.801 199.498 111.073C201.431 110.344 203.536 110.205 205.548 110.673C207.559 111.14 209.387 112.194 210.8 113.7C212.213 115.207 213.148 117.098 213.486 119.136C213.824 121.173 213.551 123.265 212.7 125.147C212.135 126.398 211.329 127.525 210.328 128.464C209.327 129.403 208.151 130.136 206.866 130.62C205.582 131.104 204.215 131.33 202.843 131.286C201.471 131.241 200.121 130.926 198.871 130.36ZM206.826 112.855C205.223 112.121 203.438 111.881 201.697 112.165C199.957 112.448 198.341 113.243 197.054 114.448C195.766 115.653 194.867 117.214 194.469 118.932C194.071 120.65 194.193 122.447 194.819 124.095C195.445 125.743 196.548 127.168 197.986 128.188C199.424 129.208 201.133 129.777 202.896 129.823C204.659 129.869 206.395 129.39 207.885 128.447C209.374 127.503 210.55 126.138 211.261 124.525C211.755 123.458 212.032 122.305 212.076 121.13C212.12 119.956 211.93 118.785 211.517 117.684C211.104 116.584 210.477 115.577 209.672 114.721C208.867 113.865 207.9 113.178 206.826 112.699V112.855Z" fill="white"/>
<path d="M85.3181 1.79237L99.8087 58.6071C99.972 59.1591 99.9103 59.7532 99.637 60.2598C99.3636 60.7664 98.9009 61.1442 98.3499 61.3107L70.4969 68.4101C69.9539 68.524 69.3879 68.4264 68.9144 68.1372C68.4409 67.8481 68.0956 67.3891 67.9488 66.8541C67.9573 66.8156 67.9573 66.7758 67.9488 66.7374L53.4388 9.92265C53.2749 9.36812 53.3361 8.77133 53.6091 8.26161C53.8822 7.75189 54.3451 7.37032 54.8976 7.19959L82.7312 0.0418265C83.0161 -0.0145674 83.3094 -0.0139291 83.5941 0.0437046C83.8787 0.101338 84.1492 0.214824 84.3897 0.377603C84.6303 0.540381 84.8362 0.749224 84.9955 0.992058C85.1549 1.23489 85.2645 1.5069 85.3181 1.79237V1.79237Z" fill="#322875"/>
<path d="M85.3181 1.79237L86.1545 5.06004L54.2752 13.1903L53.4388 9.92265C53.2749 9.36813 53.3361 8.77133 53.6091 8.26161C53.8822 7.75189 54.3451 7.37032 54.8976 7.19959L82.7312 0.0418265C83.0161 -0.0145674 83.3094 -0.0139291 83.5941 0.0437046C83.8787 0.101338 84.1492 0.214824 84.3897 0.377603C84.6303 0.540381 84.8362 0.749224 84.9955 0.992058C85.1549 1.23489 85.2645 1.5069 85.3181 1.79237V1.79237Z" fill="#A680B7"/>
<path d="M98.973 55.3198L99.8094 58.6069C99.9728 59.1589 99.911 59.7531 99.6377 60.2597C99.3644 60.7663 98.9016 61.1441 98.3506 61.3106L70.4976 68.41C70.2191 68.4698 69.9315 68.4739 69.6514 68.4221C69.3714 68.3703 69.1043 68.2635 68.8656 68.1081C68.627 67.9526 68.4215 67.7514 68.2609 67.5161C68.1003 67.2809 67.9879 67.0161 67.9301 66.7372L67.0938 63.4501L98.973 55.3198Z" fill="#A680B7"/>
<path d="M84.0322 63.3847C85.3022 63.061 86.1897 62.2416 86.0146 61.5546C85.8395 60.8676 84.668 60.5731 83.3981 60.8968C82.1281 61.2205 81.2406 62.0398 81.4157 62.7269C81.5908 63.4139 82.7623 63.7084 84.0322 63.3847Z" fill="#322875"/>
<path d="M70.205 6.0716C70.2601 6.27015 70.2362 6.4823 70.1383 6.66359C70.0404 6.84489 69.8761 6.98126 69.6799 7.04412C69.4788 7.08439 69.2699 7.04363 69.0987 6.93072C68.9275 6.8178 68.8079 6.64186 68.7657 6.44116C68.7046 6.24513 68.7235 6.03289 68.8182 5.85071C68.9129 5.66854 69.0758 5.5312 69.2714 5.46864C69.4749 5.42791 69.6862 5.46811 69.8606 5.58069C70.0349 5.69327 70.1585 5.86938 70.205 6.0716V6.0716Z" fill="#322875"/>
<path d="M76.371 36.5704C76.252 36.6 76.1274 36.5995 76.0085 36.5689C75.8897 36.5384 75.7803 36.4787 75.6903 36.3953L69.8551 31.5133C69.7816 31.4409 69.7233 31.3546 69.6834 31.2594C69.6436 31.1642 69.623 31.0621 69.623 30.9589C69.623 30.8557 69.6436 30.7536 69.6834 30.6584C69.7233 30.5633 69.7816 30.477 69.8551 30.4046C69.9259 30.3316 70.0105 30.2737 70.1041 30.2341C70.1976 30.1944 70.2982 30.174 70.3998 30.174C70.5014 30.174 70.6019 30.1944 70.6955 30.2341C70.789 30.2737 70.8737 30.3316 70.9444 30.4046L75.9042 34.6253L80.6112 23.9665C80.6964 23.7782 80.8528 23.6314 81.0461 23.5585C81.2394 23.4855 81.4538 23.4924 81.6421 23.5775C81.8304 23.6626 81.9772 23.819 82.0501 24.0123C82.1231 24.2057 82.1162 24.4201 82.0311 24.6083L76.8962 36.123C76.8477 36.2321 76.7754 36.329 76.6845 36.4064C76.5936 36.4838 76.4865 36.5399 76.371 36.5704V36.5704Z" fill="white"/>
<path d="M78.7248 41.7437C76.7229 42.2529 74.615 42.1571 72.6675 41.4684C70.7201 40.7797 69.0206 39.529 67.7839 37.8745C66.5472 36.22 65.8288 34.2359 65.7197 32.1732C65.6105 30.1104 66.1154 28.0616 67.1706 26.2858C68.2257 24.51 69.7837 23.0869 71.6476 22.1965C73.5115 21.3061 75.5975 20.9883 77.642 21.2834C79.6864 21.5785 81.5975 22.4731 83.1335 23.8542C84.6696 25.2353 85.7616 27.0409 86.2716 29.0426C86.9502 31.7274 86.537 34.5717 85.1224 36.9524C83.7079 39.3331 81.4073 41.0561 78.7248 41.7437V41.7437ZM73.9594 23.0129C72.2545 23.4447 70.716 24.3726 69.5386 25.679C68.3612 26.9855 67.5978 28.6119 67.3451 30.3524C67.0923 32.0929 67.3616 33.8693 68.1188 35.4567C68.876 37.0441 70.0871 38.3712 71.5988 39.27C73.1105 40.1689 74.8549 40.5991 76.6112 40.5062C78.3675 40.4133 80.0567 39.8015 81.4652 38.7482C82.8736 37.6949 83.938 36.2474 84.5235 34.589C85.109 32.9306 85.1894 31.1357 84.7544 29.4316C84.1676 27.1529 82.703 25.1989 80.6804 23.9963C78.6579 22.7938 76.2417 22.4402 73.9594 23.0129V23.0129Z" fill="white"/>
<path d="M180.392 22.6033L161.719 67.3393C161.553 67.7871 161.216 68.151 160.783 68.3514C160.349 68.5518 159.854 68.5726 159.405 68.4091L137.426 59.1701C137.011 58.975 136.687 58.6281 136.521 58.201C136.354 57.774 136.358 57.2994 136.531 56.875V56.875L155.184 12.139C155.355 11.6944 155.692 11.3338 156.124 11.134C156.556 10.9342 157.05 10.911 157.499 11.0692L179.4 20.2304C179.623 20.3178 179.827 20.4493 179.998 20.617C180.17 20.7847 180.306 20.9852 180.399 21.2066C180.491 21.428 180.538 21.6657 180.537 21.9057C180.536 22.1456 180.487 22.3829 180.392 22.6033V22.6033Z" fill="#322875"/>
<path d="M180.391 22.6039L179.321 25.1713L154.152 14.707L155.242 12.1201C155.408 11.6769 155.742 11.3166 156.171 11.1166C156.6 10.9166 157.09 10.8928 157.537 11.0503L179.438 20.2115C179.66 20.3025 179.862 20.4374 180.031 20.6082C180.2 20.7789 180.333 20.982 180.422 21.2053C180.511 21.4286 180.554 21.6675 180.549 21.9078C180.544 22.1481 180.49 22.3848 180.391 22.6039V22.6039Z" fill="#A680B7"/>
<path d="M162.711 64.6753L161.622 67.2622C161.455 67.71 161.119 68.0738 160.685 68.2742C160.251 68.4747 159.756 68.4954 159.307 68.332L137.425 59.1708C137.211 59.0707 137.019 58.9291 136.86 58.7544C136.701 58.5797 136.579 58.3753 136.499 58.1529C136.42 57.9305 136.385 57.6945 136.397 57.4586C136.409 57.2227 136.468 56.9915 136.57 56.7784L137.6 54.2109L162.711 64.6753Z" fill="#A680B7"/>
<path d="M151.09 62.36C151.313 61.8248 150.683 61.0517 149.682 60.6332C148.681 60.2147 147.688 60.3093 147.465 60.8444C147.241 61.3796 147.871 62.1528 148.872 62.5713C149.873 62.9898 150.866 62.8952 151.09 62.36Z" fill="#322875"/>
<path d="M168.197 17.916C168.142 18.024 168.057 18.1136 167.951 18.1737C167.846 18.2338 167.726 18.2618 167.605 18.2544C167.484 18.2469 167.367 18.2043 167.27 18.1317C167.173 18.0592 167.099 17.9598 167.058 17.8459C167.017 17.7319 167.009 17.6084 167.037 17.4904C167.065 17.3724 167.127 17.265 167.215 17.1816C167.303 17.0982 167.413 17.0422 167.532 17.0207C167.652 16.9991 167.775 17.0129 167.886 17.0602C168.038 17.1358 168.155 17.2668 168.213 17.426C168.27 17.5853 168.265 17.7607 168.197 17.916V17.916Z" fill="#322875"/>
<path d="M157.051 41.0815C156.957 41.0425 156.875 40.9814 156.81 40.9035C156.746 40.8256 156.702 40.7331 156.681 40.6341L155.319 34.5461C155.3 34.4643 155.296 34.3792 155.31 34.2961C155.324 34.2131 155.355 34.1336 155.4 34.0627C155.446 33.9918 155.505 33.9308 155.575 33.8835C155.644 33.8362 155.723 33.8036 155.806 33.7876C155.889 33.7675 155.975 33.7641 156.059 33.7778C156.144 33.7914 156.225 33.8218 156.297 33.8671C156.369 33.9124 156.432 33.9717 156.481 34.0415C156.531 34.1114 156.565 34.1904 156.584 34.2738L157.751 39.506L166.114 34.8768C166.264 34.7943 166.44 34.7745 166.604 34.8219C166.769 34.8694 166.907 34.98 166.99 35.1296C167.072 35.2792 167.092 35.4555 167.045 35.6196C166.997 35.7838 166.887 35.9224 166.737 36.0049L157.615 41.062C157.528 41.108 157.433 41.1337 157.335 41.1371C157.237 41.1405 157.14 41.1214 157.051 41.0815V41.0815Z" fill="white"/>
<path d="M156.098 45.6718C154.526 45.0136 153.185 43.9043 152.244 42.4841C151.303 41.0639 150.804 39.3966 150.811 37.693C150.817 35.9893 151.328 34.3257 152.279 32.9125C153.231 31.4992 154.58 30.3997 156.156 29.7529C157.732 29.1062 159.465 28.9412 161.135 29.2788C162.804 29.6164 164.337 30.4415 165.538 31.6497C166.739 32.8579 167.555 34.3951 167.883 36.067C168.21 37.7389 168.035 39.4704 167.379 41.0426C166.494 43.1501 164.81 44.8208 162.695 45.6885C160.58 46.5563 158.208 46.5503 156.098 45.6718ZM162.264 30.9479C160.928 30.3815 159.455 30.224 158.03 30.4951C156.605 30.7663 155.292 31.454 154.258 32.4712C153.224 33.4885 152.515 34.7895 152.221 36.2099C151.926 37.6302 152.059 39.1059 152.604 40.4505C153.148 41.795 154.079 42.9479 155.279 43.7633C156.478 44.5787 157.893 45.0199 159.343 45.0313C160.794 45.0426 162.215 44.6235 163.427 43.827C164.64 43.0304 165.588 41.8922 166.154 40.5564C166.906 38.7657 166.919 36.7502 166.19 34.9499C165.461 33.1496 164.05 31.7109 162.264 30.9479V30.9479Z" fill="white"/>
</svg>
