<svg width="284" height="294" viewBox="0 0 284 294" fill="none" xmlns="http://www.w3.org/2000/svg">
<path d="M284 294C284 294 278.222 282.827 246.367 279.609C232.162 277.232 225.585 265.71 204.524 263.102C163.386 258.006 123.095 262.637 96.1586 272.032C70.6412 280.93 63.3682 278.756 29.4652 283.717C10.7974 285.453 1.01328e-06 292.119 1.01328e-06 294H284Z" fill="#F5E5E6"/>
<path d="M108.971 82.3572C108.971 89.3895 113.782 96.2373 118.25 96.2373C122.718 96.2373 125.167 89.3632 125.167 82.3572C125.167 72.5822 121.554 66.7629 117.087 66.7629C112.619 66.7629 108.971 75.3512 108.971 82.3572Z" fill="#FAC8A5"/>
<path d="M93.5857 130.494L92.1493 127.118C92.1493 127.118 92.1493 113.265 92.6516 107.779C91.4443 105.142 89.5145 105.793 88.7743 107.779C88.034 109.766 82.3238 138.361 86.5272 140.234C91.462 138.01 93.5857 130.494 93.5857 130.494Z" fill="#F9AF84"/>
<path d="M88.5624 108.561L92.6513 107.77C93.2455 105.759 93.6642 103.7 93.9026 101.617C93.9026 99.859 93.6646 98.6371 91.7965 98.6019C89.9283 98.5668 89.0824 98.4789 88.5713 99.8326C88.0602 101.186 88.5624 104.957 88.5624 108.561Z" fill="#F9AF84"/>
<path d="M92.1484 99.6393L92.6507 92.6685C93.8492 92.1235 94.2898 99.4635 93.858 100.58C93.4262 101.696 92.1484 99.6393 92.1484 99.6393Z" fill="#F9AF84"/>
<path d="M129.503 108.562L130.604 105.046L124.947 103.569C119.104 102.048 103.287 101.916 103.287 101.916C103.287 101.916 100.361 118.935 103.895 130.74C107.428 142.546 108.133 147.125 108.133 147.125C108.133 147.125 109.543 156.109 118.708 156.109C127.872 156.109 128.947 148.892 128.947 148.892C128.947 148.892 131.591 139.021 130.71 130.74C134.807 126.679 140.148 116.385 129.503 108.562Z" fill="#A3CFDC"/>
<path d="M124.948 109.309C125.133 118.925 134.342 118.222 163.722 115.664C166.11 109.581 164.523 106.408 161.607 106.408C159.686 106.408 141.965 105.529 131.804 104.518C126.711 104.026 124.896 106.698 124.948 109.309Z" fill="#FBC8A0"/>
<path d="M158.108 108.562L159.871 106.408C159.871 106.408 170.595 88.3084 172.454 81.4958C175.098 78.8586 176.429 78.7883 176.429 81.4958C176.429 84.2032 169.591 115.286 163.704 115.664C158.787 110.759 158.108 108.562 158.108 108.562Z" fill="#FBC8A0"/>
<path d="M173.891 84.5897L172.437 81.4955C172.809 79.6826 173.295 77.8946 173.891 76.1421C174.684 74.0324 174.155 72.1776 176.411 72.9776C178.667 73.7775 179.724 74.0324 179.724 75.8784C179.724 77.7244 178.922 82.8492 173.891 84.5897Z" fill="#FBC8A0"/>
<path d="M175.926 74.4278C175.926 74.4278 177.115 67.9493 175.926 66.7626C174.736 65.5759 175.115 70.7622 174.463 74.4278C174.19 75.9925 175.926 74.4278 175.926 74.4278Z" fill="#FBC8A0"/>
<path d="M109.544 106.838C105.65 102.593 98.1857 107.999 86.3158 135.618C85.6461 137.728 84.1745 141.543 90.246 140.383C95.3218 139.407 114.012 111.7 109.544 106.838Z" fill="#FBC8A0"/>
<path d="M119.705 74.1647C119.705 74.1647 126.331 72.8461 125.133 68.3454C123.934 63.8447 117.052 59.6253 108.971 62.0075C100.891 64.3897 93.4445 69.4442 95.0571 78.1292C96.6697 86.8141 99.0402 91.8774 97.7007 98.2153C96.3613 104.553 91.6204 113.81 93.4445 120.429C95.2686 127.048 98.7318 130.74 106.425 130.74C114.118 130.74 121 124.921 121 118.319C121 111.717 117.026 96.6418 117.026 90.8226C117.026 85.0033 122.886 77.3556 119.705 74.1647Z" fill="#4C266E"/>
<path d="M131.451 246.326C131.451 246.326 123.855 280.863 125.089 284.037C127.61 285.052 130.034 286.29 132.333 287.737H120.146L116.779 247.75L131.451 246.326Z" fill="#FBC8A0"/>
<path d="M128.446 286.876L130.209 286.48C130.209 286.48 134.209 286.48 134.544 287.737V288.66H119.634C119.598 287.553 119.701 286.445 119.942 285.364C122.524 285.891 126.525 287.447 128.446 286.876Z" fill="#322875"/>
<path d="M109.192 246.326C109.192 246.326 100.715 280.863 101.949 284.037C104.469 285.052 106.893 286.29 109.192 287.737H96.9698C96.9698 287.737 96.441 276.987 96.441 272.934C96.441 268.882 95.833 247.89 95.833 247.89L109.192 246.326Z" fill="#FBC8A0"/>
<path d="M105.024 286.858L107.069 286.48C107.069 286.48 111.069 286.48 111.404 287.737V288.66H96.4941C96.4961 287.503 96.6291 286.35 96.8907 285.223C99.4374 285.759 103.138 287.386 105.024 286.858Z" fill="#322875"/>
<path d="M131.451 246.326L129.848 253.868C129.848 253.868 118.753 255.802 117.819 260.197C116.7 249.648 116.436 249.35 116.436 249.35L131.451 246.326Z" fill="#F9AF84"/>
<path d="M108.486 250.202L106.01 259.871C106.01 259.871 98.7843 255.098 95.9644 252.285C95.9644 246.299 95.7617 245.587 95.7617 245.587L108.486 250.202Z" fill="#F9AF84"/>
<path d="M122.621 149.235L128.975 148.883C134.073 157.361 137.241 166.853 138.254 176.687C139.576 192.282 145.145 213.959 146.995 221.624C148.846 229.289 151.234 243.029 137.99 248.321C124.745 253.613 108.425 254.922 98.1853 250.466C87.9457 246.009 86.5798 244.119 77.8382 240.154C69.0966 236.19 53.1644 235.135 44.7136 231.962C36.2628 228.788 21.3968 218.222 25.3711 202.092C29.3453 185.961 41.5324 183.333 51.869 180.423C62.2056 177.514 67.8982 177.118 71.7403 173.286C75.5823 169.453 87.135 156.637 93.0831 153.727C99.0313 150.817 105.922 149.332 108.134 147.116C112.197 151.195 122.621 149.235 122.621 149.235Z" fill="#C1E2ED"/>
<path fill-rule="evenodd" clip-rule="evenodd" d="M128.974 148.883C130.56 158.298 134.076 184.546 135.451 192.704C137.478 204.711 148.132 225.07 146.66 234.599C145.25 243.776 128.772 252.452 117.14 253.059C124.515 252.698 141.399 248.567 143.03 246.026C146.22 241.007 155.137 243.389 155.102 236.647C155.067 229.905 149.965 220.411 147.762 213.941C141.302 195.033 141.241 197.24 141.02 194.268C140.756 190.822 137.02 168.591 137.02 168.591L134.376 160.074L128.974 148.883Z" fill="#A3CFDC"/>
<path opacity="0.3" fill-rule="evenodd" clip-rule="evenodd" d="M108.575 146.871C100.644 152.936 79.9884 171.15 73.1502 176.406C63.0956 184.124 40.757 192.317 35.0291 200.536C29.5039 208.448 35.9103 229.545 46.0883 232.595C39.1884 230.52 28.8871 221.036 27.1687 218.53C25.3182 215.796 23.829 203.059 27.3538 196.906C30.7553 190.955 32.8613 187.518 39.6907 184.749C58.9275 176.916 65.7216 175.861 68.0216 173.752C70.6652 171.308 89.2851 156.997 89.2851 156.997L91.3648 155.336C91.7505 155.026 92.1703 154.76 92.6161 154.545L108.575 146.871Z" fill="#A3CFDC"/>
<path d="M251.594 3.97328V70.1477C251.594 71.1939 251.181 72.1979 250.443 72.9418C249.706 73.6857 248.704 74.1094 247.655 74.121H142.836C142.313 74.121 141.795 74.0182 141.311 73.8185C140.828 73.6188 140.389 73.3262 140.019 72.9572C139.649 72.5883 139.356 72.1503 139.156 71.6682C138.956 71.1861 138.853 70.6695 138.853 70.1477V3.97328C138.853 3.4515 138.956 2.93483 139.156 2.45277C139.356 1.97071 139.649 1.5327 140.019 1.16375C140.389 0.794793 140.828 0.502124 141.311 0.302448C141.795 0.102772 142.313 0 142.836 0L247.655 0C248.704 0.0115731 249.706 0.435289 250.443 1.17917C251.181 1.92306 251.594 2.92707 251.594 3.97328ZM244.236 65.6821V9.03657C244.236 8.13433 243.877 7.26904 243.237 6.63106C242.598 5.99308 241.73 5.63467 240.826 5.63467H151.137C150.232 5.63467 149.365 5.99308 148.725 6.63106C148.086 7.26904 147.726 8.13433 147.726 9.03657V65.6821C147.726 66.5844 148.086 67.4497 148.725 68.0877C149.365 68.7256 150.232 69.084 151.137 69.084H240.826C241.274 69.084 241.717 68.996 242.131 68.8251C242.545 68.6541 242.921 68.4035 243.237 68.0877C243.554 67.7718 243.805 67.3967 243.977 66.984C244.148 66.5713 244.236 66.1289 244.236 65.6821V65.6821Z" fill="#A3CFDC"/>
<path d="M240.826 5.63477H151.137C149.253 5.63477 147.727 7.15785 147.727 9.03666V65.6822C147.727 67.5611 149.253 69.0841 151.137 69.0841H240.826C242.71 69.0841 244.236 67.5611 244.236 65.6822V9.03666C244.236 7.15785 242.71 5.63477 240.826 5.63477Z" fill="white"/>
<path d="M202.714 49.5523L197.127 54.5628L191.531 49.5523V35.1448H202.714V49.5523Z" fill="#FFB184"/>
<path d="M173.176 53.3055C176.48 47.8027 185.874 45.9567 191.531 41.7637C191.531 41.7637 193.743 49.6751 197.339 49.6751C201.859 49.6751 202.714 41.7637 202.714 41.7637C208.821 46.8621 217.65 48.0488 220.215 50.5981C226.057 56.4261 226.128 69.058 226.128 69.058H168.673C168.782 63.5069 170.334 58.0792 173.176 53.3055V53.3055Z" fill="#C1E2ED"/>
<path d="M186.059 13.5903C186.606 12.8607 188.703 13.0013 190.386 11.3575C192.712 9.03684 199.648 7.19085 205.455 11.6916C208.636 14.1529 210.742 17.7833 209.57 22.662C209.085 24.7278 210.698 25.3783 205.992 32.3315L188.368 32.4458C188.368 32.4458 185.786 30.9162 185.539 28.7274C184.879 23.0664 182.446 18.4602 186.059 13.5903Z" fill="#A3CFDC"/>
<path d="M187.434 26.011C187.116 33.4038 191.39 40.1812 196.545 40.2867C201.7 40.3922 206.477 35.2673 206.803 27.9009C207.129 20.5346 203.04 14.1527 197.7 13.6253C192.36 13.0979 187.733 18.6446 187.434 26.011Z" fill="#FCC8A0"/>
<path d="M206.793 26.2309C208.318 24.675 208.97 18.7502 206.036 15.823C203.101 12.8958 201.691 9.19502 196.342 11.7442C192.447 13.5902 189.011 12.6936 187.733 15.3483C186.138 18.6623 185.486 23.4619 187.319 26.9429C189.971 17.5811 201.383 16.4647 206.793 26.2309Z" fill="#C1E2ED"/>
<path d="M172.664 69.0667L171.642 53.4548H166.346L164.513 69.0667H172.664Z" fill="#80CFD4"/>
<path d="M189.787 48.0398C189.986 48.7958 190.437 49.4621 191.065 49.9297C194.687 52.813 191.867 51.7669 189.822 49.9297C186.668 47.0553 190.06 43.1523 190.704 42.3436C191.179 41.7898 191.232 41.7898 191.497 41.7898C191.497 41.7898 189.073 45.3499 189.734 48.0662L189.787 48.0398Z" fill="white"/>
<path d="M188.077 48.2946C188.295 49.0251 188.751 49.6623 189.372 50.1055C193.012 52.936 190.306 51.7581 188.13 50.1055C185.953 48.4529 188.72 43.372 189.698 42.9852C189.698 42.9852 190.113 42.7039 190.888 42.2292C190.888 42.2292 187.363 45.6663 188.077 48.3034V48.2946Z" fill="white"/>
<path d="M206.538 49.4024C206.538 49.4024 204.388 43.2491 202.714 41.7635C202.714 41.5437 202.714 41.4383 202.714 41.3152C203.04 41.7635 203.727 42.1942 204.882 43.3721C206.433 44.9105 207.719 50.0089 208.169 51.7231C206.406 53.4811 207.032 50.1056 207.032 50.1056L206.538 49.4024Z" fill="white"/>
<path d="M189.752 52.1274C189.63 51.4627 189.755 50.7765 190.103 50.1972C190.452 49.6179 191.001 49.1853 191.646 48.9804C194.061 47.9255 194.695 48.5584 196.59 49.6133C198.484 50.6682 198.273 51.5912 200.59 50.2814C202.908 48.9716 203.322 47.9255 204.908 47.9255C206.495 47.9255 207.746 48.1365 207.746 50.0265C207.746 51.9164 210.178 52.4878 208.398 54.2547C206.618 56.0215 206.133 57.639 203.111 58.1664C200.088 58.6938 196.22 60.6541 193.902 58.3246C191.584 55.9952 189.496 53.9294 189.752 52.1274Z" fill="white"/>
<path d="M193.901 53.4547C194.478 54.6605 195.492 55.603 196.739 56.0918C198.845 56.9708 200.634 57.7708 201.894 56.5137C203.154 55.2567 204.247 55.1336 205.163 54.2282C206.08 53.3228 206.926 51.679 205.163 52.5229C203.401 53.3668 202.123 55.7578 200.863 55.7578C199.603 55.7578 198.105 56.1885 196.633 54.7205C196.3 54.3213 195.882 54.0007 195.41 53.7818C194.937 53.563 194.422 53.4512 193.901 53.4547Z" fill="#EFE6E8"/>
<path d="M188.932 19.207C188.932 19.207 186.209 22.4859 186.209 23.7781C185.812 25.0439 186.209 25.6416 187.02 23.7781C187.619 22.4067 188.932 19.207 188.932 19.207Z" fill="#A3CFDC"/>
<path d="M208.002 20.2178C207.127 19.3091 206.137 18.5172 205.059 17.862C203.992 17.4049 204.565 18.0554 205.059 18.5477C205.552 19.0399 205.57 19.1806 206.821 20.7365C207.551 21.5859 207.968 22.6593 208.002 23.778C208.36 22.6181 208.36 21.3777 208.002 20.2178V20.2178Z" fill="#A3CFDC"/>
<path d="M168.673 55.3799L171.643 53.4196C171.643 53.4196 175.564 49.9035 173.731 44.8138C173.463 43.6596 173.309 42.4819 173.273 41.2976C170.541 38.5726 164.76 42.3349 164.417 44.8138C163.8 49.209 166.347 52.7252 166.347 53.4109C166.347 54.0965 168.673 55.3799 168.673 55.3799Z" fill="#80CFD4"/>
<path d="M170.832 41.3153C170.832 41.3153 170.832 34.5819 171.519 32.5249C171.678 32.0414 173.282 29.7647 173.282 31.4437V41.3153C173.273 42.1944 170.832 41.3153 170.832 41.3153Z" fill="#80CFD4"/>
<path d="M172.664 69.0667L172.047 59.6961L165.623 59.6433L164.513 69.0667H172.664Z" fill="#FFB184"/>
<path d="M172.665 59.8892C172.665 60.1881 172.497 60.4343 172.295 60.4343H165.245C165.042 60.4343 164.875 60.1881 164.875 59.8892C164.875 59.5904 165.042 59.353 165.245 59.353H172.295C172.497 59.353 172.665 59.5904 172.665 59.8892Z" fill="#6DC4C6"/>
<path fill-rule="evenodd" clip-rule="evenodd" d="M240.209 60.1947C243.762 59.2544 247.534 58.406 249.792 58.406C252.048 58.406 255.823 59.2544 259.376 60.1947C262.546 61.0457 265.695 61.9715 268.821 62.9714C270.62 63.5438 271.976 65.094 272.238 67.0053C274.19 81.3046 269.662 91.9004 264.173 98.912C261.834 101.921 259.058 104.563 255.935 106.748C254.85 107.509 253.702 108.176 252.504 108.745C251.585 109.167 250.603 109.511 249.792 109.511C248.982 109.511 248 109.167 247.08 108.745C245.883 108.177 244.735 107.509 243.65 106.748C240.529 104.562 237.753 101.921 235.415 98.912C229.919 91.9004 225.395 81.3046 227.347 67.0053C227.478 66.0788 227.868 65.2083 228.473 64.4944C229.077 63.7805 229.872 63.2525 230.764 62.9714C233.89 61.9715 237.039 61.0457 240.209 60.1947V60.1947ZM251.547 83.6486C252.67 83.2375 253.614 82.4455 254.213 81.4103C254.813 80.3752 255.03 79.1626 254.828 77.9836C254.625 76.8047 254.015 75.7343 253.105 74.9586C252.194 74.183 251.04 73.7514 249.844 73.739C248.648 73.7266 247.485 74.1342 246.559 74.8907C245.632 75.6473 245 76.7049 244.773 77.8793C244.546 79.0538 244.738 80.2706 245.316 81.318C245.894 82.3654 246.821 83.1768 247.936 83.6111C247.864 83.7576 247.813 83.9136 247.786 84.0745L246.651 90.8885C246.611 91.1324 246.624 91.3823 246.689 91.6207C246.755 91.859 246.872 92.0803 247.032 92.2689C247.192 92.4576 247.391 92.6093 247.615 92.7133C247.839 92.8173 248.084 92.8713 248.331 92.8714H251.176C251.424 92.8715 251.669 92.8174 251.895 92.7127C252.12 92.6081 252.319 92.4555 252.479 92.2656C252.639 92.0758 252.756 91.8532 252.821 91.6136C252.886 91.3739 252.898 91.123 252.855 90.8783L251.673 84.0642C251.649 83.9209 251.607 83.7812 251.547 83.6486V83.6486Z" fill="#4B0A70"/>
</svg>
