<svg width="323" height="275" viewBox="0 0 323 275" fill="none" xmlns="http://www.w3.org/2000/svg">
<mask id="mask0" mask-type="alpha" maskUnits="userSpaceOnUse" x="0" y="0" width="323" height="275">
<path fill-rule="evenodd" clip-rule="evenodd" d="M158.695 0.0274391C110.851 -0.612871 61.4625 9.91219 29.7663 35.9314C-0.555495 60.8225 -1.7666 96.3403 0.967656 129.505C3.49922 160.212 18.0947 188.35 44.3244 212.514C74.9893 240.763 109.262 272.326 158.695 274.808C209.966 277.383 257.488 253.7 290.068 224.853C319.809 198.519 324.101 163.542 322.796 129.505C321.539 96.6999 313.568 63.4736 282.956 39.3199C251.158 14.2312 205.656 0.655916 158.695 0.0274391Z" fill="white"/>
</mask>
<g mask="url(#mask0)">
<path fill-rule="evenodd" clip-rule="evenodd" d="M158.695 0.0274391C110.851 -0.612871 61.4625 9.91219 29.7663 35.9314C-0.555496 60.8225 -1.7666 96.3403 0.967651 129.505C3.49921 160.212 18.0947 188.35 44.3244 212.514C74.9893 240.763 109.262 272.326 158.695 274.808C209.966 277.383 257.488 253.7 290.068 224.853C319.809 198.519 324.101 163.542 322.796 129.505C321.539 96.6999 313.568 63.4736 282.956 39.3199C251.158 14.2312 205.656 0.655916 158.695 0.0274391Z" fill="white"/>
<path fill-rule="evenodd" clip-rule="evenodd" d="M158.695 0.0274391C110.851 -0.612871 61.4625 9.91219 29.7663 35.9314C-0.555496 60.8225 -1.7666 96.3403 0.967651 129.505C3.49921 160.212 18.0947 188.35 44.3244 212.514C74.9893 240.763 109.262 272.326 158.695 274.808C209.966 277.383 257.488 253.7 290.068 224.853C319.809 198.519 324.101 163.542 322.796 129.505C321.539 96.6999 313.568 63.4736 282.956 39.3199C251.158 14.2312 205.656 0.655916 158.695 0.0274391Z" stroke="white"/>
<path fill-rule="evenodd" clip-rule="evenodd" d="M158.695 0.0274391C110.851 -0.612871 61.4625 9.91219 29.7663 35.9314C-0.555496 60.8225 -1.7666 96.3403 0.967651 129.505C3.49921 160.212 18.0947 188.35 44.3244 212.514C74.9893 240.763 109.262 272.326 158.695 274.808C209.966 277.383 257.488 253.7 290.068 224.853C319.809 198.519 324.101 163.542 322.796 129.505C321.539 96.6999 313.568 63.4736 282.956 39.3199C251.158 14.2312 205.656 0.655916 158.695 0.0274391Z" stroke="url(#paint0_linear)"/>
<path d="M83.3206 79.7234C96.0082 79.3512 105.992 68.7642 105.62 56.0766C105.248 43.3889 94.6606 33.4052 81.973 33.7774C69.2854 34.1495 59.3017 44.7365 59.6738 57.4242C60.0459 70.1118 70.633 80.0955 83.3206 79.7234Z" fill="#C3E7EF"/>
<path d="M215.847 140.045C221.995 140.045 226.424 144.297 224.661 148.572C222.023 154.982 219.98 161.62 218.558 168.404C215.847 182.374 214.657 194.846 214.657 194.846H178.916C180.493 183.465 182.7 172.181 185.527 161.044C187.441 154.108 191.15 147.8 196.28 142.755C198.315 140.932 200.974 139.961 203.706 140.045H215.847Z" fill="#294D90"/>
<path d="M211.197 140.045C217.345 140.045 221.774 143.857 220.012 148.132C217.387 154.544 215.351 161.182 213.93 167.964C211.219 181.934 210.03 194.406 210.03 194.406H174.244C175.82 183.032 178.027 171.755 180.855 160.626C182.761 153.702 186.445 147.396 191.542 142.337C193.598 140.465 196.299 139.462 199.078 139.538L211.197 140.045Z" fill="#335AA9"/>
<path d="M163.338 181.647C159.922 181.405 132.378 180.458 132.378 180.458L132.224 185.438L161.883 194.626C164.611 194.367 167.161 193.158 169.089 191.211C173.253 187.685 163.338 181.647 163.338 181.647Z" fill="#EBAA80"/>
<path d="M168.78 140.772C169.366 143.198 169.366 145.728 168.78 148.154C167.744 151.503 166.114 149.939 164.373 151.767C162.14 154.924 160.828 158.64 160.583 162.499C160.583 165.473 155.867 170.52 161.266 170.52C166.665 170.52 170.08 171.181 173.209 165.231C176.338 159.282 182.839 146.854 182.839 146.854C182.839 146.854 178.96 141.543 179.864 131.208C176.496 134.757 172.783 137.96 168.78 140.772V140.772Z" fill="#FFC39F"/>
<path d="M167.635 150.049C167.635 150.049 166.07 149.079 161.641 153.64C160.054 155.271 159.305 158.819 156.441 161.683C148.838 169.285 150.05 176.689 154.832 181.515C159.614 186.341 158.49 199.937 158.49 199.937H188.348C188.348 199.937 194.804 165.76 194.804 159.568C194.804 153.376 192.843 146.192 187.202 146.038C185.469 146.048 183.737 145.923 182.024 145.664C182.024 145.664 166.819 158.62 162.192 166.377C163.271 160.716 165.101 155.225 167.635 150.049V150.049Z" fill="#F05452"/>
<path d="M150.005 114.682C149.174 117.941 148.972 121.329 149.41 124.664C150.247 129.578 151.041 132.817 149.41 136.386C147.78 139.956 144.761 148.33 152.693 151.811C158.312 154.213 162.72 148.726 163.953 148.638C167.082 148.767 170.169 147.894 172.768 146.148C175.919 143.526 167.898 137.136 167.898 137.136L150.005 114.682Z" fill="#4C266E"/>
<path d="M168.251 141.301C168.755 142.633 169.031 144.041 169.066 145.466C168.971 146.804 168.697 148.123 168.251 149.388C171.909 148.22 177.969 146.479 180.282 140.001C180.394 135.887 180.21 131.771 179.731 127.683L168.251 141.301Z" fill="#EBAA80"/>
<path d="M163.338 181.647C163.338 181.647 188.899 174.904 195.024 158.246C193.538 172.232 191.332 186.133 188.414 199.892H177.396C177.396 199.892 181.957 188.875 177.396 184.159C172.835 179.444 159.768 187.685 157.741 185.569C152.606 178.959 152.452 178.011 152.452 178.011C153.85 179.434 155.566 180.505 157.458 181.137C159.35 181.769 161.365 181.944 163.338 181.647V181.647Z" fill="#C2394E"/>
<path d="M91.7668 189.073C92.1194 189.955 91.9651 190.858 91.4143 191.079C90.8854 191.277 90.1582 190.726 89.8057 189.845L77.7303 158.995C77.3998 158.114 77.554 157.21 78.0829 157.012C78.6338 156.792 79.3609 157.342 79.6914 158.224L91.7668 189.073Z" fill="#322875"/>
<path d="M91.6341 193.569C91.3997 193.56 91.1692 193.505 90.9559 193.408C90.7426 193.31 90.5506 193.171 90.391 192.999C90.2314 192.828 90.1072 192.626 90.0256 192.406C89.944 192.186 89.9065 191.952 89.9154 191.718V191.718C89.8974 191.242 90.0678 190.779 90.3897 190.428C90.7115 190.077 91.1587 189.868 91.6341 189.845L124.797 189.69C125.034 189.696 125.266 189.749 125.482 189.845C125.698 189.941 125.893 190.08 126.055 190.252C126.217 190.424 126.343 190.627 126.426 190.848C126.509 191.07 126.547 191.305 126.538 191.541V191.541C126.55 192.019 126.375 192.483 126.049 192.833C125.724 193.183 125.275 193.392 124.797 193.414L91.6341 193.569Z" fill="#322875"/>
<path d="M132.379 180.391C128.483 178.847 124.512 177.501 120.48 176.359C118.673 176.359 114.75 178.871 114.64 180.347C113.913 189.161 122.529 182.375 123.653 182.749C126.733 184.044 129.948 184.99 133.238 185.57C135.75 185.57 132.379 180.391 132.379 180.391Z" fill="#EBAA80"/>
<path d="M181.649 151.878L165.431 182.838C162.06 183.521 133.722 187.773 133.722 187.773L133.237 193.679C133.237 193.679 171.909 195.332 174.928 190.792C177.947 186.253 192.931 169.198 194.628 160.428C196.964 148.33 194.143 146.457 189.978 145.884C185.814 145.311 183.985 148.352 181.649 151.878Z" fill="#FFC39F"/>
<path d="M133.745 187.773C132.392 186.729 130.911 185.863 129.338 185.195C128.632 185.195 121.647 184.115 120.523 184.16C118.717 184.16 113.626 189.536 114.662 189.712C115.698 189.889 124.446 189.294 125.68 189.712C126.914 190.131 130.99 193.679 133.48 193.679C135.97 193.679 133.745 187.773 133.745 187.773Z" fill="#FFC39F"/>
<path d="M153.268 129.446C156.088 139.053 163.712 146.92 169.794 145.135C175.876 143.35 178.079 132.641 175.281 123.1C172.482 113.559 165.718 108.623 159.636 110.407C153.554 112.192 150.469 119.817 153.268 129.446Z" fill="#FFC39F"/>
<path d="M163.227 116.335C163.882 118.319 165.147 120.046 166.841 121.271C169.242 122.571 174.046 126.956 173.275 131.275C172.504 135.594 171.688 140.552 175.478 144.188C179.268 147.823 182.353 141.367 186.496 139.78C190.639 138.194 194.561 140.838 198.263 136.123C201.965 131.407 200.048 124.113 194.076 120.588C188.105 117.062 184.138 117.326 181.957 115.211C179.775 113.096 177.153 104.722 169.837 104.061C162.522 103.4 159.04 105.934 159.04 105.934L163.227 116.335Z" fill="#4C266E"/>
<path d="M163.227 116.335C162.275 119.375 160.404 122.046 157.873 123.981C152.298 127.683 151.02 127.683 151.02 127.683C150.187 123.692 149.847 119.615 150.006 115.541C150.314 109.746 159.018 105.934 159.018 105.934L163.227 116.335Z" fill="#4C266E"/>
<path d="M87.8227 63.8687C86.6535 62.6835 85.9429 61.1218 85.8175 59.4617C86.8627 58.7732 87.7187 57.8338 88.3075 56.7293C88.5994 56.9896 88.9742 57.138 89.3652 57.148C90.8415 57.148 92.0314 54.9444 92.0314 52.2781C92.0314 49.6119 90.8415 47.4083 89.3652 47.4083C89.1977 47.3767 89.0258 47.3767 88.8584 47.4083C88.5698 45.9173 87.8104 44.5581 86.6918 43.5308C85.5732 42.5035 84.1546 41.8622 82.6444 41.7012C81.1219 41.8671 79.694 42.5213 78.574 43.5658C77.454 44.6104 76.702 45.9892 76.4304 47.4965C76.263 47.4649 76.0911 47.4649 75.9236 47.4965C74.4472 47.4965 73.2573 49.7 73.2573 52.3663C73.2392 53.5595 73.5114 54.7392 74.0506 55.8038C73.6163 55.9923 73.2316 56.2789 72.9268 56.6411C72.7299 56.8938 72.5904 57.1863 72.5181 57.4984C72.4458 57.8105 72.4424 58.1345 72.5081 58.448C72.5442 58.9625 72.7217 59.4571 73.0211 59.877C73.3205 60.297 73.7302 60.6261 74.2048 60.8279C74.5409 60.9828 74.8869 61.1153 75.2405 61.2245V61.2245C75.2032 61.4852 75.2519 61.751 75.3791 61.9816C75.5063 62.2122 75.7052 62.3951 75.9456 62.5025C76.096 62.5728 76.2588 62.6126 76.4246 62.6196C76.5904 62.6265 76.7559 62.6006 76.9116 62.5432C77.0673 62.4859 77.2102 62.3982 77.3318 62.2853C77.4534 62.1724 77.5515 62.0366 77.6203 61.8856C77.7898 61.5933 77.8363 61.2458 77.7495 60.9193C77.6627 60.5929 77.4498 60.3142 77.1576 60.1448C76.8654 59.9753 76.5178 59.9288 76.1913 60.0156C75.8649 60.1024 75.5863 60.3153 75.4168 60.6075C74.2489 60.1888 73.2133 59.8803 73.2133 58.404C73.1654 58.1794 73.1663 57.9471 73.2157 57.7229C73.2651 57.4987 73.3619 57.2876 73.4997 57.1039C73.7633 56.7966 74.1063 56.5679 74.4913 56.4428C74.6612 56.6869 74.8844 56.8891 75.144 57.0341C75.4036 57.1792 75.6928 57.2633 75.9897 57.2802C76.3799 57.2665 76.7535 57.1186 77.0474 56.8615C77.6326 57.9367 78.4724 58.8522 79.4933 59.5278C79.3679 61.1879 78.6573 62.7496 77.4881 63.9348C75.9456 65.4773 70.6351 65.6095 69.9961 71.4269H95.3367C94.6757 65.5434 89.3652 65.4112 87.8227 63.8687ZM82.6444 42.7809C84.0046 42.9014 85.2971 43.4281 86.3542 44.2926C87.4112 45.1571 88.1839 46.3194 88.5719 47.6287L88.3075 47.805C87.7936 46.7227 86.9952 45.8004 85.9978 45.1367C85.0003 44.473 83.8412 44.0928 82.6444 44.0369C81.4476 44.0928 80.2885 44.473 79.291 45.1367C78.2935 45.8004 77.4952 46.7227 76.9813 47.805L76.7169 47.6287C77.1049 46.3194 77.8775 45.1571 78.9346 44.2926C79.9916 43.4281 81.2842 42.9014 82.6444 42.7809V42.7809Z" fill="#322875"/>
<path d="M83.3265 98.5737H80.8145V110.737H83.3265V98.5737Z" fill="#C1E2ED"/>
<path d="M83.3265 82.2236H80.8145V94.3871H83.3265V82.2236Z" fill="#C1E2ED"/>
<path d="M83.3265 115.673H80.8145V127.836H83.3265V115.673Z" fill="#C1E2ED"/>
<path d="M83.3265 132.772H80.8145V144.936H83.3265V132.772Z" fill="#C1E2ED"/>
<path d="M235.944 109.857H204.125C201.921 109.857 200.07 104.48 200.07 97.8474V67.5708C200.07 60.9602 201.899 55.5615 204.125 55.5615H235.944C238.147 55.5615 239.998 60.9381 239.998 67.5708V97.8474C240.064 104.48 238.147 109.857 235.944 109.857Z" fill="#C3E7EF"/>
<path d="M230.17 63.7148L230.809 100.822C230.827 101.189 230.702 101.549 230.459 101.825C230.216 102.1 229.875 102.27 229.509 102.299L211.308 102.607C210.956 102.591 210.624 102.444 210.375 102.196C210.126 101.947 209.98 101.614 209.963 101.263V101.263L209.347 64.1334C209.328 63.7723 209.451 63.4183 209.69 63.1467C209.929 62.8751 210.264 62.7073 210.625 62.6791L228.826 62.3706C229.179 62.3816 229.514 62.5268 229.764 62.7765C230.014 63.0263 230.159 63.3618 230.17 63.7148V63.7148Z" fill="#322875"/>
<path d="M230.17 63.715V65.9185L209.325 66.2711V64.0675C209.307 63.7064 209.43 63.3524 209.669 63.0808C209.907 62.8092 210.243 62.6414 210.603 62.6132L228.804 62.3047C228.987 62.3076 229.167 62.3463 229.334 62.4187C229.501 62.4912 229.653 62.5959 229.78 62.7268C229.906 62.8578 230.006 63.0124 230.073 63.182C230.14 63.3515 230.173 63.5326 230.17 63.715V63.715Z" fill="#A680B7"/>
<path d="M230.766 98.6851V100.889C230.784 101.256 230.658 101.615 230.415 101.891C230.173 102.167 229.832 102.337 229.465 102.365L211.264 102.673C210.898 102.656 210.553 102.497 210.302 102.23C210.051 101.962 209.914 101.608 209.92 101.241V99.0376L230.766 98.6851Z" fill="#A680B7"/>
<path d="M220.639 100.957C221.466 100.94 222.13 100.562 222.121 100.112C222.112 99.6615 221.434 99.3099 220.607 99.3265C219.779 99.343 219.116 99.7214 219.125 100.172C219.134 100.622 219.812 100.973 220.639 100.957Z" fill="#322875"/>
<path d="M220.232 64.1336C220.239 64.2645 220.194 64.3926 220.108 64.4912C220.021 64.5898 219.9 64.6512 219.77 64.6624C219.663 64.6758 219.555 64.6566 219.46 64.6072C219.365 64.5578 219.287 64.4807 219.237 64.386C219.186 64.2913 219.166 64.1835 219.178 64.077C219.191 63.9705 219.235 63.8702 219.306 63.7895C219.376 63.7088 219.47 63.6514 219.574 63.6251C219.678 63.5987 219.787 63.6046 219.888 63.642C219.988 63.6793 220.075 63.7463 220.137 63.8341C220.198 63.9219 220.232 64.0263 220.232 64.1336V64.1336Z" fill="#322875"/>
<path d="M219.572 83.8335C219.495 83.8311 219.42 83.8122 219.351 83.7779C219.283 83.7437 219.223 83.695 219.175 83.6352L216.332 79.779C216.268 79.6705 216.246 79.5418 216.271 79.418C216.296 79.2943 216.367 79.1844 216.469 79.1099C216.571 79.0354 216.697 79.0018 216.823 79.0155C216.948 79.0292 217.064 79.0893 217.148 79.1841L219.572 82.5114L223.979 76.672C224.078 76.5896 224.202 76.5444 224.331 76.5444C224.46 76.5444 224.585 76.5896 224.684 76.672C224.775 76.7666 224.826 76.893 224.826 77.0246C224.826 77.1562 224.775 77.2826 224.684 77.3772L219.836 83.7233C219.76 83.7837 219.668 83.8218 219.572 83.8335V83.8335Z" fill="white"/>
<path d="M220.277 87.3594C218.974 87.3592 217.7 86.9741 216.616 86.2525C215.531 85.5309 214.684 84.5049 214.181 83.3034C213.677 82.1018 213.54 80.7783 213.786 79.4991C214.032 78.2199 214.651 77.0419 215.565 76.1132C216.478 75.1844 217.646 74.5463 218.921 74.2789C220.196 74.0115 221.521 74.1268 222.731 74.6103C223.941 75.0938 224.981 75.9239 225.72 76.9965C226.459 78.069 226.866 79.3361 226.887 80.6386C226.902 81.516 226.742 82.3874 226.416 83.2022C226.09 84.017 225.606 84.7588 224.99 85.3844C224.375 86.01 223.641 86.5068 222.832 86.8459C222.023 87.1849 221.154 87.3595 220.277 87.3594V87.3594ZM220.078 75.1298C218.961 75.1431 217.873 75.488 216.952 76.1207C216.03 76.7535 215.318 77.6455 214.905 78.6838C214.491 79.722 214.396 80.8597 214.63 81.9524C214.864 83.0451 215.417 84.0436 216.22 84.8213C217.022 85.599 218.038 86.1209 219.137 86.3206C220.237 86.5204 221.371 86.3891 222.396 85.9433C223.42 85.4976 224.29 84.7576 224.893 83.817C225.497 82.8765 225.807 81.7779 225.786 80.6606C225.774 79.9227 225.617 79.1943 225.324 78.5169C225.031 77.8396 224.608 77.2266 224.078 76.713C223.548 76.1994 222.922 75.7952 222.235 75.5236C221.549 75.2519 220.816 75.1181 220.078 75.1298V75.1298Z" fill="white"/>
<path d="M205.446 100.007L187.554 109.856L205.446 93.418V100.007Z" fill="#C3E7EF"/>
<path d="M80.7617 196.267L80.376 301.507L229.576 302.054L229.962 196.814L80.7617 196.267Z" fill="#C3E7EF"/>
<path d="M69.709 196.566C69.709 198.439 71.7803 199.959 74.3805 199.981L235.239 200.554C237.839 200.554 239.932 199.056 239.954 197.183C239.954 195.31 237.751 193.789 235.261 193.767L74.4025 193.194C71.8244 193.194 69.709 194.693 69.709 196.566V196.566Z" fill="#C3E7EF"/>
<path d="M183.962 61.1142C183.826 61.1143 183.694 61.0676 183.588 60.9819C183.487 60.9067 183.409 60.8052 183.363 60.6886C183.316 60.572 183.302 60.4447 183.323 60.3209L184.271 55.8036L180.855 52.5644C180.744 52.4891 180.659 52.3806 180.613 52.2543C180.567 52.128 180.562 51.9904 180.598 51.861C180.635 51.7316 180.711 51.6171 180.817 51.5337C180.922 51.4503 181.052 51.4023 181.186 51.3966L185.835 50.8677L187.774 46.5929C187.828 46.4808 187.913 46.3862 188.018 46.3199C188.123 46.2536 188.245 46.2184 188.369 46.2183C188.493 46.2209 188.614 46.2572 188.719 46.3231C188.824 46.3891 188.909 46.4824 188.964 46.5929L190.904 50.8677L195.553 51.3966C195.68 51.4046 195.802 51.4503 195.903 51.528C196.003 51.6056 196.079 51.7115 196.119 51.8322C196.159 51.953 196.162 52.0829 196.128 52.2055C196.094 52.3281 196.024 52.4378 195.928 52.5204L192.468 55.8036L193.416 60.387C193.437 60.5108 193.423 60.6381 193.376 60.7547C193.33 60.8713 193.252 60.9728 193.151 61.0481C193.045 61.1122 192.923 61.1461 192.799 61.1461C192.674 61.1461 192.552 61.1122 192.446 61.0481L188.369 58.8445L184.293 61.0481C184.188 61.0901 184.076 61.1125 183.962 61.1142V61.1142ZM188.369 57.3241C188.471 57.3013 188.576 57.3013 188.678 57.3241L191.851 59.131L191.124 55.5612C191.101 55.4534 191.107 55.3413 191.142 55.2367C191.177 55.1321 191.239 55.0387 191.322 54.9663L194.077 52.5644L190.463 52.1678C190.351 52.154 190.243 52.1126 190.151 52.0472C190.059 51.9818 189.984 51.8946 189.934 51.7932L188.436 48.4879L186.937 51.7932C186.887 51.8946 186.812 51.9818 186.72 52.0472C186.628 52.1126 186.521 52.154 186.408 52.1678L182.795 52.5644L185.483 55.0324C185.566 55.1048 185.628 55.1982 185.663 55.3028C185.698 55.4074 185.704 55.5195 185.681 55.6274L184.954 59.1971L188.105 57.3902L188.369 57.3241Z" fill="#F05452"/>
<path d="M175.5 61.114C175.399 61.1361 175.293 61.1361 175.192 61.114L171.093 58.9105L167.017 61.114C166.908 61.1789 166.783 61.2102 166.656 61.2038C166.53 61.1975 166.409 61.1538 166.307 61.0783C166.206 61.0028 166.129 60.8989 166.087 60.7797C166.044 60.6605 166.038 60.5315 166.069 60.4089L166.995 55.8035L163.535 52.5643C163.448 52.476 163.386 52.3663 163.355 52.2464C163.324 52.1265 163.326 52.0005 163.359 51.8812C163.397 51.7618 163.47 51.6563 163.568 51.578C163.666 51.4996 163.785 51.4518 163.91 51.4405L168.559 50.9117L170.52 46.6368C170.57 46.5265 170.651 46.4327 170.752 46.3663C170.854 46.3 170.972 46.2639 171.093 46.2622C171.218 46.2624 171.339 46.2976 171.445 46.3639C171.55 46.4301 171.634 46.5247 171.688 46.6368L173.627 50.9117L178.299 51.3964C178.421 51.409 178.536 51.4577 178.63 51.5362C178.725 51.6147 178.793 51.7195 178.828 51.8371C178.872 51.9554 178.878 52.0842 178.847 52.2064C178.815 52.3285 178.747 52.4381 178.651 52.5202L175.192 55.8035L176.139 60.3869C176.166 60.5109 176.155 60.6399 176.108 60.7576C176.061 60.8753 175.98 60.9764 175.875 61.0479C175.761 61.1104 175.629 61.1336 175.5 61.114ZM165.43 52.5643L168.096 55.0323C168.18 55.1047 168.242 55.198 168.277 55.3027C168.312 55.4073 168.318 55.5194 168.295 55.6272L167.634 59.197L170.807 57.3901C170.905 57.336 171.015 57.3077 171.126 57.3077C171.238 57.3077 171.348 57.336 171.446 57.3901L174.597 59.197L173.87 55.6272C173.851 55.5194 173.859 55.4086 173.894 55.3047C173.928 55.2009 173.988 55.1073 174.068 55.0323L176.756 52.5643L173.142 52.1677C173.033 52.1544 172.929 52.1129 172.84 52.0472C172.751 51.9816 172.681 51.894 172.636 51.7931L171.115 48.4878L169.617 51.7931C169.572 51.894 169.502 51.9816 169.413 52.0472C169.324 52.1129 169.22 52.1544 169.11 52.1677L165.43 52.5643Z" fill="#F05452"/>
<path d="M158.224 61.1142C158.123 61.1362 158.018 61.1362 157.916 61.1142L153.839 58.9106L149.741 61.1142C149.641 61.1843 149.522 61.222 149.399 61.222C149.277 61.222 149.158 61.1843 149.058 61.1142C148.953 61.0426 148.872 60.9416 148.825 60.8239C148.778 60.7061 148.767 60.5771 148.793 60.4531L149.741 55.8036L146.281 52.5644C146.169 52.488 146.083 52.3775 146.038 52.2492C145.992 52.1208 145.989 51.9813 146.028 51.8509C146.068 51.7205 146.148 51.6061 146.257 51.5244C146.365 51.4426 146.498 51.3979 146.634 51.3966L151.305 50.8677L153.245 46.5929C153.298 46.4808 153.383 46.3862 153.488 46.3199C153.593 46.2536 153.715 46.2184 153.839 46.2183V46.2183C153.961 46.2199 154.079 46.2561 154.18 46.3224C154.282 46.3887 154.362 46.4825 154.412 46.5929L156.351 50.8677L161.023 51.3966C161.148 51.4078 161.267 51.4556 161.365 51.534C161.463 51.6124 161.535 51.7179 161.574 51.8373C161.607 51.9566 161.608 52.0825 161.577 52.2025C161.546 52.3224 161.484 52.432 161.398 52.5204L157.916 55.8036L158.819 60.3209C158.845 60.4427 158.836 60.5694 158.794 60.6864C158.751 60.8033 158.676 60.9058 158.577 60.9819C158.475 61.0593 158.352 61.1052 158.224 61.1142V61.1142ZM148.198 52.5644L150.887 55.0324C150.966 55.1074 151.026 55.201 151.061 55.3049C151.096 55.4087 151.104 55.5195 151.085 55.6274L150.358 59.1971L153.509 57.3902C153.607 57.3362 153.717 57.3078 153.828 57.3078C153.94 57.3078 154.05 57.3362 154.148 57.3902L157.321 59.1971L156.616 55.6274C156.588 55.5216 156.589 55.41 156.62 55.3051C156.651 55.2001 156.711 55.1057 156.792 55.0324L159.481 52.5644L155.867 52.1678C155.757 52.1545 155.653 52.113 155.564 52.0473C155.475 51.9817 155.405 51.8941 155.36 51.7932L153.861 48.4879L152.341 51.7932C152.296 51.8941 152.226 51.9817 152.137 52.0473C152.048 52.113 151.944 52.1545 151.834 52.1678L148.198 52.5644Z" fill="#F05452"/>
<path d="M140.971 61.114C140.862 61.1339 140.75 61.1339 140.641 61.114L136.564 58.9105L132.488 61.114C132.383 61.1832 132.26 61.2201 132.135 61.2201C132.01 61.2201 131.887 61.1832 131.782 61.114C131.682 61.0388 131.604 60.9373 131.557 60.8207C131.511 60.7041 131.497 60.5768 131.518 60.453L132.377 55.8035L129.006 52.5643C128.91 52.4821 128.842 52.3726 128.811 52.2504C128.779 52.1283 128.786 51.9994 128.83 51.8812C128.864 51.7635 128.933 51.6587 129.027 51.5803C129.121 51.5018 129.237 51.4531 129.359 51.4405L134.03 50.9117L135.969 46.6368C136.023 46.5247 136.107 46.4301 136.213 46.3639C136.318 46.2976 136.44 46.2624 136.564 46.2622C136.688 46.2649 136.809 46.3011 136.913 46.3671C137.018 46.4331 137.103 46.5263 137.159 46.6368L139.098 50.9117L143.748 51.3964C143.874 51.4048 143.994 51.4515 144.092 51.5303C144.191 51.6091 144.263 51.7162 144.299 51.8371C144.337 51.956 144.34 52.0833 144.309 52.2042C144.278 52.3251 144.213 52.4347 144.122 52.5202L140.663 55.8035L141.588 60.3869C141.617 60.5087 141.609 60.6363 141.566 60.7538C141.523 60.8713 141.446 60.9736 141.346 61.0479C141.232 61.1104 141.1 61.1336 140.971 61.114ZM130.923 52.5643L133.611 55.0323C133.695 55.1047 133.757 55.198 133.792 55.3027C133.827 55.4073 133.833 55.5194 133.81 55.6272L133.083 59.197L136.234 57.3901C136.331 57.336 136.441 57.3077 136.553 57.3077C136.665 57.3077 136.775 57.336 136.873 57.3901L140.046 59.197L139.319 55.6272C139.295 55.5194 139.302 55.4073 139.336 55.3027C139.371 55.198 139.434 55.1047 139.517 55.0323L142.183 52.5643L138.591 52.1677C138.478 52.1581 138.369 52.1183 138.276 52.0524C138.183 51.9865 138.109 51.897 138.063 51.7931L136.564 48.4878L135.066 51.7931C135.014 51.8933 134.939 51.9796 134.847 52.0447C134.755 52.1099 134.649 52.1521 134.537 52.1677L130.923 52.5643Z" fill="#F05452"/>
<path d="M114.881 61.1142C114.745 61.1143 114.613 61.0676 114.507 60.9819C114.406 60.9076 114.329 60.8053 114.286 60.6878C114.243 60.5703 114.236 60.4427 114.264 60.3209L115.19 55.8036L111.73 52.5644C111.639 52.4788 111.575 52.3693 111.543 52.2484C111.512 52.1275 111.516 52.0002 111.554 51.8813C111.585 51.7537 111.654 51.6387 111.753 51.552C111.852 51.4653 111.974 51.411 112.105 51.3966L116.754 50.8677L118.693 46.5929C118.749 46.4824 118.834 46.3891 118.939 46.3231C119.044 46.2572 119.165 46.2209 119.288 46.2183V46.2183C119.413 46.2184 119.535 46.2536 119.64 46.3199C119.745 46.3862 119.83 46.4808 119.883 46.5929L121.822 50.8677L126.494 51.3966C126.616 51.4092 126.731 51.4578 126.826 51.5363C126.92 51.6148 126.988 51.7196 127.023 51.8373C127.067 51.9555 127.073 52.0844 127.042 52.2065C127.01 52.3286 126.942 52.4382 126.847 52.5204L123.387 55.8036L124.335 60.387C124.361 60.511 124.35 60.64 124.303 60.7578C124.256 60.8755 124.175 60.9765 124.07 61.0481C123.964 61.1122 123.842 61.1461 123.718 61.1461C123.593 61.1461 123.471 61.1122 123.365 61.0481L119.288 58.8445L115.212 61.0481C115.107 61.0901 114.995 61.1125 114.881 61.1142ZM113.669 52.5644L116.336 55.0324C116.419 55.1048 116.481 55.1982 116.516 55.3028C116.551 55.4074 116.557 55.5195 116.534 55.6274L115.807 59.1971L118.98 57.3902C119.078 57.3362 119.188 57.3078 119.299 57.3078C119.411 57.3078 119.521 57.3362 119.619 57.3902L122.77 59.1971L122.043 55.6274C122.02 55.5195 122.026 55.4074 122.061 55.3028C122.096 55.1982 122.158 55.1048 122.241 55.0324L124.929 52.5644L121.36 52.1678C121.248 52.1522 121.142 52.11 121.05 52.0449C120.958 51.9797 120.883 51.8934 120.831 51.7932L119.333 48.4879L117.834 51.7932C117.787 51.8971 117.714 51.9867 117.621 52.0525C117.528 52.1184 117.419 52.1582 117.305 52.1678L113.669 52.5644Z" fill="#F05452"/>
</g>
<defs>
<linearGradient id="paint0_linear" x1="161.5" y1="0" x2="161.5" y2="275" gradientUnits="userSpaceOnUse">
<stop offset="0.0625" stop-color="#43C4D9"/>
<stop offset="0.609375" stop-color="white" stop-opacity="0"/>
</linearGradient>
</defs>
</svg>
