<svg width="284" height="422" viewBox="0 0 284 422" fill="none" xmlns="http://www.w3.org/2000/svg">
<path fill-rule="evenodd" clip-rule="evenodd" d="M11.4023 421.821H280.85C280.85 421.821 246.108 368.927 183.331 362.745C120.553 356.564 97.2161 387.811 73.071 397.714C48.9259 407.616 35.1529 401.34 11.4023 421.821Z" fill="#C3E7EF"/>
<path d="M119.768 43.2715L161.538 44.0043L162.064 82.1103L108.663 82.6553L119.768 43.2715Z" fill="#322875"/>
<path d="M122.961 75.3829C125.025 75.181 127.004 74.4567 128.711 73.2784C130.59 71.5873 131.059 60.0315 131.059 60.0315H146.561C146.561 60.0315 145.772 70.6666 146.561 72.4892C147.35 74.3119 155.167 74.7816 155.167 74.7816C155.167 74.7816 151.071 95.0184 139.834 96.4465C128.598 97.8745 122.961 75.3829 122.961 75.3829Z" fill="#FFCAA5"/>
<path d="M141.187 377.489C142.19 379.627 142.746 381.948 142.822 384.309C143.047 387.481 143.047 390.664 142.822 393.836C142.822 396.185 142.559 399.567 137.411 399.567H128.542C127.946 399.492 127.39 399.23 126.954 398.818C126.518 398.405 126.225 397.865 126.118 397.274C125.648 395.132 128.861 393.516 129.876 390.867C130.891 388.218 133.408 380.194 133.408 380.194L141.187 377.489Z" fill="#322875"/>
<path d="M137.993 204.545L141.187 377.413L134.103 377.319C134.103 377.319 120.95 347.368 119.184 330.344C117.418 313.321 121.401 303.005 119.522 294.643C117.643 286.282 100.526 228.878 100.732 204.076C100.939 179.273 137.692 188.067 137.993 204.545Z" fill="#FFCAA5"/>
<path d="M137.392 208.773L169.109 379.292L177.151 378.033C177.151 378.033 182.92 346.315 181.285 329.367C179.65 312.418 173.619 302.873 173.769 294.342C173.92 285.812 179.199 226.511 173.995 202.159C168.79 177.807 134.385 192.52 137.392 208.773Z" fill="#FFCAA5"/>
<path d="M158.944 32.5419C158.061 49.2086 148.666 64.8418 138.125 64.2781C127.584 63.7144 119.917 47.1605 120.819 30.4562C121.721 13.7519 130.815 3.39864 141.357 3.96234C151.898 4.52604 159.827 15.894 158.944 32.5419Z" fill="#FFCAA5"/>
<path d="M123.281 75.345C123.281 75.345 132.432 96.4838 139.478 93.6277C146.524 90.7716 151.955 74.4807 153.777 74.4807C155.6 74.4807 165.051 76.6416 165.859 78.7272C166.667 80.8129 168.978 104.845 168.715 114.24C168.452 123.635 161.932 136.976 161.199 148.983C160.755 156.274 162.185 163.558 165.352 170.14C156.459 173.983 146.854 175.904 137.167 175.777C120.444 175.777 112.872 172.658 112.872 172.658C112.872 172.658 119.861 154.827 118.809 143.083C117.757 131.339 109.997 131.132 108.7 114.672C107.404 98.2124 107.385 80.4747 108.7 78.6333C110.015 76.7919 123.281 75.345 123.281 75.345Z" fill="#F05452"/>
<path d="M161.255 155.522C161.255 155.522 197.557 194.981 209.319 244.812C147.613 285.192 67.9248 248.025 67.9248 248.025C67.9248 248.025 93.9489 184.365 117.981 154.602C132.398 153.391 146.902 153.7 161.255 155.522V155.522Z" fill="#F05452"/>
<path d="M134.104 377.394C134.104 377.394 130.609 392.294 129.482 393.384C128.355 394.474 127.208 395.714 132.545 395.714C137.881 395.714 140.85 395.094 141.188 392.896C141.677 387.771 141.677 382.612 141.188 377.488C140.549 375.045 134.104 377.394 134.104 377.394Z" fill="#FFCAA5"/>
<path d="M170.068 377.489C169.065 379.627 168.509 381.948 168.433 384.309C168.209 387.481 168.209 390.664 168.433 393.836C168.433 396.185 168.696 399.567 173.844 399.567H182.713C183.308 399.494 183.863 399.232 184.296 398.819C184.729 398.406 185.018 397.864 185.118 397.274C185.607 395.132 182.394 393.516 181.36 390.867C180.327 388.218 177.828 380.194 177.828 380.194L170.068 377.489Z" fill="#322875"/>
<path d="M108.661 114.766C108.661 114.766 111.461 124.462 137.26 124.161C163.058 123.861 168.338 118.374 168.338 118.374C167.99 121.184 167.443 123.965 166.704 126.698C165.595 130.456 162.946 138.442 162.946 138.442C162.946 138.442 143.536 143.271 136.32 149.716C129.105 156.161 116.816 172.865 104.49 206.236C92.1639 239.607 90.7922 256.086 90.7922 256.086C82.9905 253.937 75.3492 251.244 67.9248 248.025C73.4491 231.865 86.7148 203.887 97.8196 184.703C108.925 165.518 117.53 155.033 117.737 154C118.658 148.694 118.46 143.253 117.155 138.028C115.05 131.151 107.853 125.721 108.661 114.766Z" fill="#C2394E"/>
<path d="M177.152 377.395C177.152 377.395 180.647 392.295 181.775 393.385C182.902 394.475 184.048 395.715 178.712 395.715C173.376 395.715 170.388 395.959 170.031 393.836C169.674 391.712 168.546 380.194 169.11 377.676C169.674 375.158 177.152 377.395 177.152 377.395Z" fill="#FFCAA5"/>
<path d="M108.663 78.728C103.756 82.627 99.8846 87.6732 97.3888 93.4218C92.7289 103.606 70.5943 148.439 77.0392 153.925C83.4842 159.412 120.726 148.852 120.726 148.852V141.017C120.726 141.017 92.7101 143.948 93.4992 141.599C94.2884 139.251 108.381 110.859 108.381 110.859C108.381 110.859 112.252 92.0689 108.663 78.728Z" fill="#FFCAA5"/>
<path d="M165.858 78.728C165.858 78.728 172.604 78.728 176.757 90.002C180.909 101.276 196.505 137.785 194.983 145.357C193.461 152.93 185.344 146.748 180.27 141.073C175.197 135.399 166.76 106.161 166.76 106.161C166.76 106.161 163.566 86.5634 165.858 78.728Z" fill="#FFCAA5"/>
<path d="M130.984 61.2346C133.288 63.0683 136.105 64.1388 139.045 64.2974C141.847 64.3343 144.549 63.2601 146.561 61.3098L146.373 65.0678C146.373 65.0678 144.945 68.2057 139.139 69.8968C136.123 70.9333 132.911 71.2737 129.744 70.8927C129.744 70.8927 130.796 65.0678 130.984 61.2346Z" fill="#FFB184"/>
<path d="M129.782 20.103C129.761 26.6762 128.715 33.2059 126.682 39.4566C123.375 49.1335 118.057 54.7329 116.497 62.3052C115.576 66.9377 115.808 71.7259 117.174 76.2474C110.915 77.7827 105.37 81.417 101.466 86.5443C96.0916 71.9445 97.0123 62.0234 102.743 54.7141C108.474 47.4048 113.096 43.2146 116.047 22.3202C117.55 11.5347 123.938 7.28821 126.287 5.87896C128.636 4.46972 134.573 -2.53894 149.342 0.974783C164.111 4.48851 167.343 15.4806 166.761 28.7839C166.385 37.5401 168.64 53.9249 171.984 60.0692C174.017 63.7793 175.258 67.8705 175.63 72.0845C176.002 76.2985 175.496 80.5438 174.145 84.5526C170.876 80.7946 156.802 74.9133 156.802 74.9133C157.562 71.4092 157.753 67.8053 157.366 64.2406C156.84 57.4011 154.641 56.8749 154.303 48.6449C153.965 40.4149 156.069 33.613 154.303 29.0658C152.537 24.5186 137.693 29.6671 129.782 20.103Z" fill="#4C266E"/>
<path d="M113.961 121.268C113.961 121.381 113.961 121.7 114.205 121.869C114.45 122.038 114.637 121.869 114.863 121.869H117.212V121.437L114.957 120.084L116.366 119.652C117.08 119.445 117.606 119.239 117.7 118.262C117.794 117.285 119.448 116.965 120.594 117.923L119.523 119.521L122.266 118.374L122.492 118.863L118.565 120.911L118.696 121.381L127.114 122.621L125.705 120.028H129.237C129.237 119.671 129.237 119.521 129.237 119.502C127.376 118.606 125.695 117.377 124.277 115.875C123.53 115.257 122.622 114.865 121.66 114.746C120.698 114.626 119.722 114.783 118.846 115.199C118.076 115.443 117.343 115.781 116.46 116.138L116.723 115.011C116.103 114.372 114.675 115.312 114.168 116.721L115.915 117.51C114.694 119.088 114.694 119.088 112.364 116.176L110.485 119.145L110.203 119.013L110.372 117.698L110.109 117.454C109.639 117.999 109.264 118.788 108.662 119.013C107.848 119.155 107.015 119.155 106.201 119.013V118.619L108.399 117.548L108.23 114.955L106.84 115.913L104.528 114.804V114.372C103.119 115.086 101.353 115.143 100.263 116.42L100.526 116.965L102.405 116.214L101.86 118.093C99.643 118.262 97.4258 116.627 95.3777 118.393L94.6073 116.796C101.052 111.042 108.648 106.726 116.89 104.134C125.132 101.542 133.831 100.734 142.409 101.764C155.101 103.052 167.021 108.464 176.344 117.172L169.448 114.616C167.569 118.224 168.114 122.922 170.895 124.725C171.346 125.026 171.853 125.74 172.398 124.725C172.886 125.007 173.375 125.252 173.826 125.571C174.277 125.89 174.39 127.206 175.329 126.548C175.592 126.341 175.329 125.176 175.141 124.669C174.69 123.617 173.92 122.696 173.525 121.644C173.296 120.759 173.17 119.851 173.149 118.938C175.611 119.107 174.784 122.151 176.419 122.884L178.58 123.109V123.617L177.434 124.218L177.922 124.819V127.563C175.893 129.16 174.521 127.375 173.131 125.684L172.736 126.21L173.676 127.976C173.055 129.235 172.548 130.381 171.947 131.471C171.651 131.93 171.268 132.326 170.819 132.636C170.35 132.954 169.853 133.231 169.335 133.463L172.68 137.841H168.208C168.071 139.985 168.471 142.129 169.373 144.079C169.642 144.418 169.987 144.689 170.381 144.869C170.775 145.049 171.205 145.133 171.638 145.115C172.07 145.096 172.492 144.976 172.869 144.763C173.246 144.551 173.568 144.252 173.807 143.891C174.643 142.09 175.383 140.246 176.024 138.367L178.335 137.409L183.559 142.801C184.292 139.325 180.665 138.48 179.237 136.056C181.143 136.824 182.733 138.215 183.747 140.002C184.78 141.599 185.626 143.365 186.453 145.056L186.96 144.925L186.171 140.603L186.659 140.453C186.998 141.148 187.317 141.843 187.693 142.501C188.332 143.666 188.858 144.981 190.624 144.756C190.906 144.756 191.451 145.3 191.526 145.657C191.864 146.992 192.033 148.363 192.24 149.415L190.211 150.543C190.605 148.664 189.102 148.664 187.674 148.42L186.828 150.806C184.879 149.964 183.155 148.677 181.793 147.048C181.68 146.935 181.793 146.616 181.793 146.409C182.225 144.643 181.361 143.327 179.613 143.609C177.955 143.99 176.347 144.564 174.822 145.319C174.277 145.545 173.788 146.108 173.225 146.184C171.101 146.447 170.368 148.063 170.011 149.735C169.797 151.431 169.099 153.029 168.001 154.338C167.15 155.499 166.66 156.884 166.592 158.322C166.216 162.287 166.028 166.27 165.896 170.235C165.932 171.024 166.268 171.77 166.836 172.32C168.319 173.469 169.371 175.084 169.824 176.905C170.138 177.792 170.581 178.628 171.139 179.385L171.289 178.897C172.492 178.709 173.694 178.596 174.859 178.314C175.53 178.117 176.165 177.813 176.738 177.412C177.358 177.055 177.922 176.623 178.617 176.229C179.031 176.868 179.482 177.488 179.857 178.108C179.989 178.413 180.078 178.736 180.12 179.066L181.736 178.296C182.265 180.137 182.265 182.091 181.736 183.933C181.033 189.306 179.459 194.529 177.076 199.397C175.4 203.054 173.374 206.54 171.026 209.806C170.505 210.462 170.081 211.19 169.767 211.967C173.708 210.021 177.296 207.43 180.384 204.301C169.579 217.247 148.967 227.093 126.513 223.786C114.493 222.004 103.265 216.719 94.2316 208.591C85.1985 200.464 78.7609 189.854 75.7234 178.089C70.0864 156.631 78.0534 134.252 87.6926 124.838C90.1353 127.3 87.3544 129.554 87.392 132.354L88.3315 130.588H88.5382C88.3879 131.527 88.2751 132.467 88.0872 133.388C87.4859 136.394 86.9222 139.419 86.2082 142.388C85.5302 145.707 85.973 149.156 87.4671 152.196C88.3029 153.548 88.7634 155.098 88.8012 156.687C88.8012 158.153 90.342 159.712 91.3567 161.516C91.688 160.891 91.847 160.189 91.8173 159.483C91.7875 158.776 91.5702 158.09 91.1876 157.495C90.5863 156.368 89.9286 155.24 89.3086 154.075C89.2 153.82 89.1441 153.545 89.1441 153.267C89.1441 152.99 89.2 152.715 89.3086 152.459C89.5153 152.779 89.7595 153.079 89.9474 153.436C91.9014 156.52 93.3183 159.913 94.1376 163.47C94.2806 164.024 94.5965 164.518 95.0395 164.88C96.7682 166.439 98.572 167.961 100.432 169.558C101.409 167.905 102.18 168.638 103.138 169.558C105.675 171.907 108.286 174.237 110.861 176.623C111.838 177.488 112.928 178.39 113.792 176.341C114.537 176.965 115.079 177.798 115.347 178.732C115.615 179.667 115.597 180.66 115.295 181.584C114.938 182.88 114.412 184.121 113.942 185.342C113.511 186.336 113.391 187.438 113.599 188.501C113.807 189.565 114.333 190.54 115.107 191.298C116.162 192.596 117.046 194.023 117.738 195.545C118.511 197.25 119.835 198.646 121.496 199.509C122.481 199.963 123.329 200.67 123.953 201.558C124.577 202.446 124.954 203.483 125.047 204.564C125.592 208.735 126.268 212.907 126.926 217.078C127.026 218.133 127.34 219.156 127.847 220.086C128.354 221.016 129.044 221.834 129.876 222.49C130.758 223.059 131.74 223.454 132.77 223.655C131.981 222.771 130.44 222.283 131.361 221.249V217.022C132.362 216.549 133.323 215.996 134.235 215.368C134.63 215.068 134.63 214.26 134.855 213.489C135.908 213.64 136.622 212.832 137.129 211.61C137.636 210.389 138.05 209.506 138.519 208.472C138.806 207.678 139.289 206.968 139.923 206.41C140.557 205.851 141.321 205.462 142.146 205.278C142.919 205.126 143.638 204.774 144.232 204.256C144.826 203.738 145.273 203.073 145.528 202.328C147.013 198.946 148.628 195.62 150.301 192.332C150.661 191.757 150.797 191.069 150.682 190.4C150.568 189.731 150.211 189.128 149.681 188.705C147.26 186.724 144.354 185.427 141.263 184.947C140.906 184.947 140.323 185.436 139.948 185.812C139.572 186.187 139.384 186.544 138.82 186.751L140.06 184.327L139.816 184.139L137.167 185.417L136.904 184.91C137.448 184.534 138.012 184.139 138.576 183.782C138.755 183.715 138.914 183.604 139.04 183.46C139.165 183.315 139.252 183.142 139.293 182.955C139.334 182.768 139.328 182.574 139.275 182.391C139.222 182.207 139.124 182.039 138.989 181.903C137.749 179.63 136.283 177.807 133.352 178.145C132.937 178.108 132.543 177.944 132.225 177.676C131.807 177.281 131.361 176.917 130.891 176.586C129.557 175.928 128.561 175.158 129.463 173.316C128.185 174.5 126.438 172.133 125.705 174.181L121.74 172.302L120.124 175.289V171.531C119.387 171.959 118.683 172.443 118.02 172.978C117.666 173.425 117.376 173.918 117.155 174.444C116.291 175.984 116.253 175.966 114.694 175.139C114.467 175.022 114.216 174.961 113.961 174.961C113.706 174.961 113.455 175.022 113.228 175.139C112.157 176.041 111.518 175.458 111.105 174.556C110.848 173.891 110.714 173.184 110.71 172.471C110.71 171.813 110.804 171.137 110.71 170.46C110.71 168.807 109.94 168.281 108.286 168.468C106.407 168.694 106.069 168.468 106.652 166.458C106.96 165.605 107.187 164.724 107.328 163.827C107.328 163.264 107.084 162.174 106.821 162.136C106.092 162.044 105.354 162.21 104.735 162.606C104.055 163.285 103.427 164.013 102.856 164.786C101.691 166.007 100.733 165.857 100.226 164.26C99.326 161.81 99.1755 159.148 99.7934 156.612C100.028 155.717 100.605 154.951 101.399 154.476C102.193 154.002 103.141 153.858 104.04 154.075C104.528 154.075 105.055 153.662 105.581 153.587C106.608 153.443 107.644 153.374 108.681 153.38C109.187 153.454 109.681 153.6 110.147 153.812L111.556 158.19H112.176C112.337 157.453 112.45 156.706 112.514 155.954C112.479 155.382 112.358 154.819 112.157 154.282C111.899 153.551 111.886 152.756 112.12 152.017C112.354 151.278 112.822 150.635 113.454 150.186L114.356 149.453C115.746 148.307 117.512 147.311 116.235 145.507C116.798 144.643 117.174 144.079 117.531 143.497C117.851 142.865 118.364 142.352 118.997 142.034C119.629 141.716 120.347 141.61 121.045 141.73C121.928 138.405 121.928 138.405 123.976 137.822L124.746 139.344L129.463 137.164V136.657L126.156 135.642C125.93 133.632 125.93 133.632 122.247 134.872C122.529 133.82 123.112 133.519 126.438 132.711C127.02 134.214 127.02 134.12 128.185 133.143C129.158 132.485 130.205 131.942 131.304 131.527L131.68 131.922L130.421 135.285C131.849 135.285 133.07 135.436 134.292 135.436C135.119 135.436 135.382 134.816 134.837 134.308C133.928 133.609 132.967 132.981 131.962 132.429C131.962 132.711 131.962 132.58 131.962 132.542C133.164 130.964 132.507 129.893 131.154 128.784C129.854 127.623 128.642 126.366 127.527 125.026C126.945 124.368 126.531 124.237 125.648 124.819C124.92 125.21 124.143 125.501 123.337 125.684L123.037 125.233L123.525 124.162C123.072 123.62 122.492 123.198 121.836 122.936C121.18 122.674 120.469 122.578 119.767 122.659C117.343 123.711 117.362 125.984 117.4 128.296H115.99V131.527C114.111 131.903 114.337 130.175 114.111 129.648C113.811 128.314 113.172 128.108 112.026 128.164C109.17 128.277 108.268 127.732 108.268 125.947C108.397 124.986 108.832 124.093 109.509 123.399C110.186 122.705 111.068 122.248 112.026 122.095C112.706 121.91 113.357 121.632 113.961 121.268V121.268ZM109.47 113.959C109.47 112.944 108.737 113.188 108.099 113.32C107.779 113.32 107.253 113.527 107.103 113.32C105.769 111.929 104.867 113.132 103.871 113.602C104.453 113.827 105.186 113.884 105.412 114.241C105.956 115.124 106.595 115.03 107.291 114.804C107.986 114.579 108.643 114.335 109.301 114.09C110.278 113.621 111.725 114.804 112.495 113.188C111.972 112.999 111.404 112.972 110.864 113.109C110.325 113.246 109.839 113.542 109.47 113.959V113.959ZM165.446 127.112L168.039 128.634C167.325 129.911 167.099 131.039 168.79 131.396C169.593 131.518 170.411 131.518 171.214 131.396C171.407 131.04 171.46 130.624 171.364 130.231C170.801 129.46 170.03 128.878 169.485 128.145C168.816 127.492 168.263 126.73 167.851 125.89C167.588 125.12 167.287 124.669 166.517 124.744C165.837 124.856 165.165 125.013 164.506 125.214L165.427 126.83C165.427 126.83 165.427 126.999 165.427 127.093C165.094 127.25 164.807 127.491 164.594 127.792C164.381 128.093 164.25 128.443 164.212 128.81C164.174 129.176 164.231 129.546 164.378 129.884C164.525 130.222 164.757 130.516 165.051 130.738C165.727 131.302 166.253 131.246 166.517 130.325C166.698 129.733 166.693 129.1 166.501 128.511C166.309 127.923 165.941 127.408 165.446 127.037V127.112ZM149.737 113.959C149.578 113.359 149.338 112.784 149.023 112.249C148.084 111.178 147.37 110.126 148.29 108.698C147.914 108.51 147.294 108.078 147.219 108.153C146.186 109.205 145.34 108.622 144.664 107.833C142.785 105.541 140.06 105.729 137.561 105.954C136.34 106.105 135.212 107.232 134.029 107.833C133.61 108.044 133.159 108.184 132.695 108.247C131.905 108.359 130.947 108.134 130.346 108.51C128.467 109.693 126.588 111.084 124.709 112.399L125.968 113.32C126.344 113.076 126.701 112.643 127.02 112.662C128.146 112.773 129.259 112.987 130.346 113.301C130.853 113.433 131.661 113.94 131.642 114.222C131.492 116.101 133.766 117.379 133.277 119.427C133.277 119.558 133.39 119.784 133.484 119.934C134.72 121.999 136.717 123.497 139.046 124.105C139.203 124.126 139.363 124.11 139.514 124.058C139.664 124.006 139.799 123.919 139.91 123.805C140.446 123.032 140.794 122.144 140.925 121.212C140.925 120.084 141.488 120.122 142.202 119.953C142.916 119.784 143.912 119.633 144.081 119.145C144.317 118.676 144.685 118.286 145.138 118.023C145.592 117.759 146.113 117.633 146.637 117.66C147.294 117.66 147.952 117.397 148.892 117.191L146.712 115.312L146.994 114.992L149.098 116.871L149.474 116.533L147.896 114.034L149.737 113.959ZM151.917 119.107C152.079 119.507 152.32 119.87 152.624 120.176C152.927 120.483 153.289 120.726 153.687 120.892C154.085 121.058 154.513 121.143 154.944 121.143C155.375 121.143 155.803 121.058 156.201 120.892C156.558 120.742 156.765 120.253 157.046 119.934C156.708 119.652 156.389 119.164 156.032 119.145C154.66 119.013 153.307 119.07 151.917 119.07V119.107ZM117.418 165.594L122.379 166.157C122.379 164.673 121.684 163.978 120.688 163.733C119.354 163.47 118.471 164.166 117.418 165.594ZM116.385 163.921L116.629 163.527C116.516 163.282 116.46 162.944 116.272 162.831C115.06 161.912 113.741 161.143 112.345 160.539C111.481 160.257 110.353 160.783 109.357 160.934V161.573C109.877 161.675 110.407 161.713 110.936 161.685C111.487 161.555 112.062 161.573 112.604 161.738C113.145 161.903 113.633 162.209 114.017 162.625C114.738 163.171 115.536 163.608 116.385 163.921V163.921ZM113.961 111.929C114.224 114.466 117.719 115.406 120.256 113.564C117.719 113.827 115.577 113.808 113.961 111.929ZM109.301 115.218L110.203 116.871L111.575 115.406L111.387 114.992L109.301 115.218Z" fill="#C1E2ED"/>
<circle cx="135.5" cy="162.5" r="62.5" fill="#C1E2ED"/>
<path d="M135.288 225.89C122.829 225.872 110.654 222.161 100.302 215.228C89.95 208.295 81.8846 198.449 77.1243 186.935C72.364 175.421 71.1224 162.755 73.5563 150.535C75.9902 138.316 81.9905 127.092 90.7993 118.28C99.6081 109.469 110.83 103.465 123.049 101.028C135.268 98.5902 147.935 99.8281 159.45 104.585C170.966 109.342 180.814 117.404 187.75 127.754C194.686 138.104 198.4 150.278 198.422 162.737C198.43 171.031 196.802 179.245 193.632 186.909C190.462 194.573 185.812 201.537 179.948 207.403C174.085 213.269 167.122 217.92 159.459 221.093C151.795 224.265 143.582 225.895 135.288 225.89V225.89ZM113.962 121.268C113.413 121.55 112.833 121.764 112.233 121.907C111.276 122.059 110.393 122.517 109.716 123.211C109.039 123.904 108.604 124.798 108.475 125.758C108.475 127.544 109.452 128.088 112.233 127.976C113.379 127.976 114.112 128.126 114.319 129.46C114.469 130.08 114.319 131.809 116.198 131.339V128.258H117.607C117.607 125.946 117.607 123.673 119.974 122.621C120.676 122.54 121.387 122.636 122.043 122.898C122.699 123.16 123.279 123.582 123.732 124.124L123.244 125.195L123.544 125.646C124.35 125.463 125.128 125.172 125.856 124.781C126.645 124.199 127.058 124.33 127.735 124.988C128.849 126.328 130.061 127.585 131.361 128.746C132.714 129.855 133.372 130.926 132.169 132.504C132.169 132.504 132.169 132.673 132.169 132.391C133.174 132.943 134.135 133.571 135.044 134.27C135.589 134.778 135.326 135.398 134.499 135.398C133.278 135.398 132.056 135.398 130.628 135.247L131.887 132.016L131.511 131.621C130.44 132.029 129.418 132.559 128.467 133.199C127.302 134.176 127.302 134.27 126.72 132.767C123.394 133.575 122.812 133.876 122.53 134.928C126.288 133.688 126.288 133.688 126.438 135.698L129.745 136.713V137.22L125.123 139.381L124.014 137.803C121.966 138.385 121.966 138.385 121.083 141.711C120.385 141.591 119.667 141.697 119.035 142.015C118.402 142.333 117.889 142.846 117.569 143.477C117.212 144.06 116.836 144.624 116.273 145.488C117.456 147.367 115.69 148.288 114.394 149.434L113.492 150.167C112.86 150.616 112.392 151.259 112.158 151.998C111.924 152.737 111.937 153.532 112.195 154.263C112.396 154.8 112.517 155.363 112.552 155.935C112.487 156.681 112.374 157.421 112.214 158.152H111.594L110.185 153.774C109.719 153.562 109.226 153.416 108.719 153.342C107.682 153.336 106.646 153.405 105.619 153.549C105.093 153.549 104.567 154.094 104.078 154.037C103.608 153.919 103.119 153.898 102.641 153.977C102.163 154.055 101.706 154.232 101.299 154.494C100.892 154.757 100.544 155.1 100.275 155.503C100.006 155.906 99.8233 156.36 99.7375 156.837C99.1197 159.373 99.2701 162.035 100.17 164.485C100.677 166.082 101.635 166.232 102.8 165.011C103.371 164.238 103.999 163.51 104.679 162.831C105.298 162.435 106.036 162.269 106.765 162.361C107.028 162.361 107.329 163.489 107.272 164.052C107.131 164.949 106.905 165.83 106.596 166.683C106.013 168.562 106.258 168.919 108.231 168.694C109.884 168.506 110.561 169.032 110.654 170.685C110.654 171.362 110.654 172.038 110.654 172.696C110.602 173.385 110.672 174.079 110.861 174.744C111.275 175.646 111.913 176.228 112.984 175.326C113.211 175.209 113.462 175.148 113.717 175.148C113.972 175.148 114.223 175.209 114.45 175.326C116.01 176.153 116.047 176.172 116.912 174.631C117.132 174.106 117.423 173.613 117.776 173.166C118.439 172.63 119.143 172.146 119.88 171.719V175.477L121.496 172.489L125.461 174.368C126.269 172.32 128.016 174.688 129.219 173.504C128.317 175.383 129.313 176.116 130.647 176.773C131.117 177.104 131.563 177.469 131.981 177.863C132.3 178.132 132.693 178.296 133.108 178.333C136.077 177.995 137.543 179.817 138.745 182.091C138.88 182.227 138.978 182.394 139.031 182.578C139.084 182.762 139.091 182.956 139.05 183.143C139.008 183.329 138.921 183.503 138.796 183.647C138.671 183.792 138.511 183.903 138.332 183.97C137.768 184.327 137.205 184.721 136.66 185.097L136.923 185.605L139.817 184.139L140.155 184.44L138.915 186.863C139.478 186.657 139.704 186.225 140.042 185.924C140.38 185.623 141 184.984 141.357 185.06C144.448 185.539 147.355 186.836 149.775 188.818C150.306 189.24 150.663 189.844 150.777 190.513C150.891 191.181 150.755 191.869 150.395 192.444C148.723 195.732 147.107 199.058 145.623 202.44C145.367 203.185 144.92 203.85 144.326 204.368C143.733 204.886 143.013 205.238 142.24 205.39C141.416 205.574 140.651 205.964 140.017 206.522C139.383 207.08 138.901 207.79 138.614 208.585C138.144 209.618 137.674 210.67 137.223 211.723C136.773 212.775 136.002 213.602 134.95 213.602C134.724 214.334 134.724 215.142 134.33 215.481C133.418 216.109 132.456 216.662 131.455 217.134V221.324C130.534 222.358 132.075 222.846 132.864 223.729C131.834 223.529 130.852 223.134 129.971 222.564C129.139 221.909 128.448 221.091 127.941 220.161C127.434 219.231 127.121 218.207 127.021 217.153C126.363 212.982 125.686 208.81 125.142 204.639C125.049 203.558 124.671 202.521 124.047 201.633C123.423 200.745 122.576 200.038 121.59 199.584C119.929 198.721 118.606 197.325 117.832 195.62C117.14 194.098 116.256 192.671 115.202 191.373C114.428 190.615 113.902 189.639 113.694 188.576C113.486 187.512 113.605 186.411 114.037 185.417C114.506 184.158 115.033 182.918 115.39 181.659C115.691 180.735 115.709 179.741 115.441 178.807C115.173 177.873 114.632 177.04 113.886 176.416C113.022 178.464 112.007 177.562 110.955 176.698C108.325 174.387 105.713 172.057 103.176 169.652C102.218 168.75 101.447 168.017 100.47 169.652C98.5913 168.055 96.7123 166.533 95.0776 164.973C94.6034 164.593 94.2722 164.063 94.1381 163.47C93.3382 159.909 91.9405 156.51 90.0043 153.417C89.8164 153.06 89.5721 152.76 89.3654 152.44C89.2569 152.696 89.201 152.971 89.201 153.248C89.201 153.526 89.2569 153.801 89.3654 154.056C89.9103 155.221 90.568 156.349 91.2444 157.476C91.6271 158.071 91.8444 158.757 91.8741 159.464C91.9039 160.17 91.7449 160.872 91.4135 161.497C90.3989 159.618 88.7642 158.134 88.8581 156.668C88.8 155.08 88.3201 153.537 87.4676 152.196C85.9777 149.162 85.535 145.719 86.2087 142.406C86.9227 139.438 87.4864 136.412 88.0877 133.406C88.2756 132.485 88.3884 131.527 88.5387 130.606H88.3132L87.3737 132.373C87.3737 129.629 90.117 127.374 87.6743 124.857C78.0351 134.252 70.1433 156.649 75.7051 178.107C78.7523 189.882 85.2053 200.497 94.2562 208.622C103.307 216.747 114.554 222.022 126.588 223.786C149.042 227.093 169.655 217.247 180.459 204.301C177.31 207.477 173.644 210.095 169.617 212.042C169.931 211.265 170.355 210.537 170.876 209.881C173.224 206.614 175.25 203.128 176.927 199.472C179.31 194.604 180.884 189.381 181.587 184.007C182.115 182.166 182.115 180.212 181.587 178.37L179.971 179.141C179.928 178.811 179.84 178.488 179.708 178.182C179.332 177.525 178.881 176.905 178.467 176.303C177.866 176.698 177.302 177.13 176.588 177.487C176.015 177.887 175.38 178.192 174.709 178.389C173.544 178.671 172.342 178.784 171.139 178.972L170.989 179.46C170.431 178.703 169.988 177.867 169.674 176.98C169.222 175.159 168.169 173.544 166.686 172.395C166.119 171.845 165.783 171.099 165.747 170.309C165.878 166.345 166.066 162.361 166.442 158.397C166.51 156.959 167 155.574 167.851 154.413C168.949 153.103 169.647 151.505 169.862 149.81C170.219 148.1 170.951 146.521 173.075 146.258C173.638 146.258 174.127 145.619 174.672 145.394C176.197 144.639 177.805 144.065 179.463 143.684C181.211 143.402 182.075 144.718 181.643 146.484C181.643 146.69 181.643 147.01 181.643 147.123C183.005 148.752 184.729 150.039 186.679 150.881L187.675 148.438C189.103 148.757 190.606 148.757 190.211 150.561L192.241 149.434C192.034 148.288 191.865 146.916 191.526 145.676C191.526 145.319 190.906 144.755 190.625 144.774C188.858 144.999 188.332 143.684 187.693 142.519C187.318 141.861 186.998 141.166 186.66 140.471L186.171 140.621L186.961 144.943L186.453 145.075C185.551 143.383 184.781 141.617 183.747 140.02C182.733 138.233 181.144 136.842 179.238 136.074C180.666 138.498 184.292 139.344 183.56 142.82L178.336 137.352L176.025 138.31C175.384 140.189 174.643 142.033 173.808 143.834C173.568 144.195 173.247 144.494 172.87 144.707C172.493 144.919 172.071 145.04 171.638 145.058C171.206 145.076 170.775 144.992 170.381 144.812C169.988 144.632 169.642 144.361 169.373 144.022C168.472 142.072 168.071 139.928 168.208 137.784H172.699L169.354 133.406C169.872 133.174 170.369 132.898 170.839 132.579C171.287 132.269 171.671 131.873 171.966 131.414C172.567 130.324 173.075 129.178 173.695 127.919L172.755 126.153L173.15 125.627C174.54 127.318 175.912 129.103 177.941 127.506V124.706L177.453 124.105L178.599 123.504V122.996L176.438 122.771C174.803 122.038 175.63 119.013 173.169 118.825C173.19 119.738 173.316 120.646 173.544 121.531C173.939 122.583 174.709 123.41 175.16 124.556C175.405 125.157 175.611 126.322 175.348 126.435C174.409 127.093 174.371 125.796 173.845 125.458C173.319 125.12 172.906 124.894 172.417 124.612C171.872 125.552 171.365 124.838 170.914 124.612C168.133 122.733 167.513 118.111 169.467 114.503L176.288 117.096C166.965 108.388 155.045 102.976 142.353 101.689C133.775 100.659 125.076 101.467 116.834 104.058C108.592 106.65 100.996 110.966 94.5515 116.72L95.3219 118.318C97.37 116.551 99.5872 118.186 101.804 118.017L102.349 116.138L100.47 116.89L100.151 116.495C101.241 115.217 103.007 115.161 104.416 114.447V114.879L106.727 115.988L108.118 115.029L108.287 117.622L106.089 118.693V119.088C106.903 119.23 107.736 119.23 108.55 119.088C109.151 118.863 109.527 118.073 109.997 117.528L110.26 117.773L110.091 119.088L110.373 119.22L112.252 116.251C114.582 119.163 114.582 119.163 115.803 117.585L114.055 116.796C114.563 115.386 115.934 114.447 116.611 115.086L116.348 116.213C117.231 115.856 117.964 115.518 118.734 115.274C119.61 114.858 120.586 114.701 121.548 114.82C122.51 114.94 123.418 115.332 124.164 115.95C125.583 117.452 127.264 118.681 129.125 119.577C129.125 119.577 129.125 119.746 129.125 120.103H125.705L127.114 122.696L118.697 121.456L118.565 120.986L122.492 118.938L122.267 118.374L119.617 119.577L120.688 117.979C119.542 117.021 117.907 117.228 117.795 118.318C117.682 119.407 117.175 119.501 116.461 119.708L115.051 120.14L117.306 121.493V121.925H114.863C114.638 121.925 114.319 121.925 114.206 121.925C114.093 121.925 114.018 121.38 113.962 121.268ZM190.775 140.058L191.32 139.55L187.9 134.796V136.45L186.491 134.571L186.059 134.759L187.43 140.396L189.309 139.118L190.775 140.058ZM112.139 139.532L112.684 139.738L113.623 137.634L114.488 137.897C114.418 137.394 114.16 136.936 113.766 136.615C113.372 136.294 112.871 136.135 112.364 136.168C111.162 136.168 109.828 135.849 109.245 137.239C108.586 138.487 108.432 139.939 108.813 141.298C109.099 140.976 109.317 140.598 109.452 140.189C109.762 139.3 110.119 138.428 110.523 137.577C110.711 137.277 111.312 137.202 111.725 137.032C111.89 137.396 112.022 137.773 112.12 138.16C112.152 138.591 112.158 139.024 112.139 139.456V139.532ZM193.537 153.135H193.274L195.998 172.264C196.825 170.873 196.243 169.614 195.998 168.243C195.397 165.311 195.153 162.286 194.702 159.317C194.307 157.288 193.875 155.221 193.537 153.135ZM107.103 135.642C107.635 135.37 108.205 135.18 108.794 135.078C109.32 135.078 109.847 135.435 110.373 135.435C110.577 135.412 110.775 135.347 110.953 135.243C111.13 135.14 111.285 135 111.406 134.834C111.5 134.684 111.237 134.158 111.011 133.913C110.053 132.823 108.043 133.631 107.103 135.642ZM112.44 140.772L112.665 141.11L117.062 138.592L116.78 138.141C114.619 137.897 113.83 139.795 112.44 140.772Z" fill="#43C4D9"/>
<path d="M190.775 139.983L189.234 139.118L187.355 140.396L185.983 134.759L186.416 134.571L187.825 136.45V134.797L191.32 139.475L190.775 139.983Z" fill="#C1E2ED"/>
<path d="M112.139 139.456C112.167 138.999 112.167 138.541 112.139 138.085C112.041 137.698 111.909 137.32 111.744 136.957C111.331 137.126 110.729 137.201 110.541 137.502C110.138 138.353 109.78 139.225 109.47 140.114C109.335 140.523 109.118 140.9 108.832 141.222C108.445 139.867 108.593 138.414 109.245 137.164C109.827 135.773 111.124 136.018 112.364 136.093C112.871 136.059 113.372 136.219 113.765 136.54C114.159 136.861 114.417 137.318 114.487 137.822L113.623 137.558L112.74 139.663L112.139 139.456Z" fill="#C1E2ED"/>
<path d="M193.537 153.135C193.931 155.221 194.363 157.288 194.683 159.374C195.134 162.342 195.378 165.368 195.979 168.299C196.242 169.67 196.825 170.929 195.979 172.32L193.255 153.192L193.537 153.135Z" fill="#C1E2ED"/>
<path d="M107.103 135.642C108.042 133.631 110.053 132.823 111.011 133.913C111.236 134.158 111.499 134.684 111.405 134.834C111.284 135 111.13 135.14 110.952 135.243C110.774 135.347 110.577 135.412 110.372 135.435C109.846 135.435 109.32 135.06 108.794 135.078C108.205 135.18 107.635 135.37 107.103 135.642V135.642Z" fill="#C1E2ED"/>
<path d="M112.438 140.772C113.829 139.795 114.674 137.897 116.779 138.141L117.061 138.592L112.739 141.11L112.438 140.772Z" fill="#C1E2ED"/>
<path d="M149.737 113.921H147.97L149.549 116.495L149.173 116.833L147.069 114.954L146.787 115.274L148.966 117.153C148.027 117.359 147.369 117.547 146.712 117.622C146.188 117.595 145.667 117.721 145.213 117.985C144.76 118.249 144.392 118.638 144.156 119.107C143.912 119.595 142.897 119.746 142.277 119.915C141.657 120.084 140.981 120.046 140.999 121.174C140.841 122.114 140.461 123.003 139.891 123.767C139.78 123.881 139.645 123.968 139.494 124.02C139.344 124.072 139.184 124.089 139.026 124.067C136.756 123.442 134.812 121.969 133.596 119.952C133.596 119.802 133.352 119.577 133.389 119.445C133.878 117.397 131.51 116.213 131.755 114.24C131.755 113.958 130.966 113.451 130.458 113.32C129.345 113.02 128.207 112.825 127.057 112.737C126.738 112.737 126.381 113.15 126.005 113.395L124.746 112.474C126.625 111.159 128.504 109.768 130.383 108.585C130.984 108.209 131.943 108.434 132.732 108.321C133.196 108.259 133.647 108.119 134.066 107.908C135.25 107.269 136.377 106.142 137.598 106.029C140.098 105.747 142.747 105.559 144.701 107.908C145.359 108.697 146.223 109.28 147.256 108.227C147.256 108.227 147.952 108.585 148.328 108.772C147.407 110.2 148.121 111.253 149.06 112.324C149.353 112.825 149.581 113.362 149.737 113.921V113.921Z" fill="#43C4D9"/>
<path d="M165.482 127.055C165.491 126.974 165.491 126.892 165.482 126.811L164.562 125.195C165.221 124.994 165.892 124.837 166.572 124.725C167.342 124.725 167.643 125.101 167.906 125.872C168.303 126.7 168.837 127.456 169.484 128.108C170.086 128.84 170.856 129.423 171.363 130.193C171.459 130.587 171.406 131.002 171.213 131.358C170.41 131.48 169.593 131.48 168.789 131.358C167.098 131.001 167.324 129.874 168.038 128.596L165.445 127.074L165.482 127.055Z" fill="#43C4D9"/>
<path d="M151.917 119.069C153.307 119.069 154.66 119.069 156.032 119.069C156.389 119.069 156.708 119.576 157.047 119.858C156.765 120.178 156.558 120.666 156.201 120.817C155.805 120.983 155.38 121.071 154.95 121.073C154.521 121.075 154.095 120.993 153.697 120.831C153.299 120.669 152.937 120.429 152.632 120.127C152.326 119.825 152.083 119.465 151.917 119.069Z" fill="#43C4D9"/>
<path d="M117.418 165.593C118.47 164.165 119.297 163.394 120.687 163.714C121.683 163.958 122.285 164.653 122.379 166.138L117.418 165.593Z" fill="#43C4D9"/>
<path d="M116.385 163.921C115.556 163.602 114.778 163.166 114.074 162.624C113.69 162.209 113.202 161.903 112.66 161.737C112.119 161.572 111.543 161.554 110.992 161.685C110.464 161.712 109.934 161.674 109.414 161.572V160.933C110.41 160.783 111.537 160.257 112.402 160.538C113.798 161.142 115.117 161.912 116.329 162.831C116.517 162.944 116.573 163.282 116.686 163.526L116.385 163.921Z" fill="#43C4D9"/>
<path d="M109.339 114.127C108.681 114.371 108.004 114.635 107.328 114.841C106.652 115.048 105.956 115.161 105.449 114.278C105.224 113.921 104.491 113.864 103.908 113.639C104.904 113.169 105.787 111.966 107.14 113.357C107.29 113.526 107.817 113.357 108.136 113.357C108.775 113.225 109.432 112.981 109.508 113.996L109.339 114.127Z" fill="#43C4D9"/>
<path d="M165.446 127.037C165.951 127.397 166.332 127.904 166.537 128.49C166.742 129.075 166.761 129.709 166.592 130.306C166.329 131.227 165.803 131.283 165.126 130.719C164.832 130.499 164.599 130.206 164.45 129.869C164.302 129.532 164.243 129.163 164.279 128.796C164.315 128.43 164.444 128.079 164.655 127.777C164.866 127.476 165.151 127.234 165.483 127.074L165.446 127.037Z" fill="#43C4D9"/>
<path d="M113.961 111.929C115.577 113.808 117.719 113.808 120.256 113.564C117.719 115.406 114.224 114.466 113.961 111.929Z" fill="#43C4D9"/>
<path d="M109.339 114.127L109.47 113.958C109.847 113.541 110.341 113.247 110.888 113.117C111.435 112.986 112.008 113.024 112.533 113.226C111.763 114.841 110.316 113.658 109.339 114.127Z" fill="#43C4D9"/>
<path d="M109.301 115.217L111.386 114.992L111.574 115.405L110.203 116.871L109.301 115.217Z" fill="#43C4D9"/>
<path d="M192.372 193.797C192.666 193.87 192.94 194.004 193.178 194.192C193.415 194.379 193.609 194.615 193.748 194.884C193.887 195.152 193.967 195.447 193.982 195.749C193.998 196.051 193.948 196.353 193.838 196.634C193.293 199.077 189.817 203.925 187.806 204.733C185.796 205.541 183.936 203.155 183.936 201.67C183.936 200.186 184.931 200.336 184.931 200.336C184.931 200.336 184.161 198.908 184.931 198.213C185.188 197.997 185.497 197.853 185.827 197.797C186.158 197.741 186.497 197.774 186.81 197.893C186.81 197.893 186.435 196.014 187.13 195.3C187.825 194.586 189.441 195.451 189.441 195.451C189.441 195.451 188.821 193.572 189.836 193.327C190.709 193.223 191.594 193.387 192.372 193.797Z" fill="#FFCAA5"/>
<path d="M78.7294 193.798C78.4343 193.868 78.1577 194.001 77.9183 194.188C77.6789 194.374 77.4822 194.61 77.3415 194.879C77.2009 195.147 77.1195 195.443 77.1028 195.746C77.0862 196.049 77.1346 196.352 77.245 196.635C77.7899 199.078 81.2848 203.926 83.2954 204.734C85.3059 205.542 87.1661 203.155 87.1661 201.671C87.1661 200.186 86.1514 200.337 86.1514 200.337C86.1514 200.337 86.9218 198.909 86.1514 198.213C85.8952 197.997 85.5858 197.854 85.2554 197.798C84.9251 197.742 84.5857 197.775 84.2724 197.894C84.2724 197.894 84.667 196.015 83.9718 195.301C83.2766 194.587 81.6418 195.451 81.6418 195.451C81.6418 195.451 82.2619 193.572 81.266 193.328C80.3924 193.221 79.507 193.385 78.7294 193.798V193.798Z" fill="#FFCAA5"/>
<path fill-rule="evenodd" clip-rule="evenodd" d="M210.88 128.596H283.541C283.541 128.596 281.305 124.519 278.749 123.992C277.054 123.676 275.315 123.676 273.62 123.992C273.62 123.992 269.862 115.011 262.853 114.372C255.844 113.733 249.399 120.573 249.399 120.573C247.142 118.989 244.47 118.101 241.714 118.017C237.656 118.017 234.574 122.602 234.574 122.602C234.574 122.602 232.695 118.431 223.995 118.543C215.296 118.656 210.88 128.596 210.88 128.596Z" fill="#C3E7EF"/>
<path fill-rule="evenodd" clip-rule="evenodd" d="M11.2744 236.131H83.8976C83.8976 236.131 81.6616 232.053 79.1062 231.509C77.41 231.203 75.6727 231.203 73.9765 231.509C73.9765 231.509 70.2185 222.546 63.1911 221.907C56.1636 221.268 49.7563 228.108 49.7563 228.108C47.5042 226.503 44.8339 225.589 42.0712 225.477C38.0125 225.59 34.9122 230.081 34.9122 230.081C34.9122 230.081 33.0332 225.909 24.3522 226.022C15.6713 226.135 11.2744 236.131 11.2744 236.131Z" fill="#C3E7EF"/>
<path fill-rule="evenodd" clip-rule="evenodd" d="M190.869 227.112H257.217C257.217 227.112 254.567 219.596 250.283 218.506C245.999 217.416 237.412 219.558 237.412 219.558C237.412 219.558 236.604 203.624 220.67 202.647C204.736 201.67 203.759 220.404 203.759 220.404C203.759 220.404 194.947 216.495 190.869 227.112Z" fill="#C3E7EF"/>
<path fill-rule="evenodd" clip-rule="evenodd" d="M62.8709 100.75H105.224C104.921 99.309 104.212 97.9852 103.179 96.9359C102.147 95.8866 100.834 95.156 99.3986 94.831C96.4631 94.3535 93.452 94.7454 90.7364 95.9584C90.7364 95.9584 89.703 91.0542 86.039 90.7536C84.9706 90.6664 83.9005 90.9007 82.9663 91.4264C82.0321 91.9521 81.2765 92.7451 80.7965 93.7036C80.3224 91.639 79.1521 89.8004 77.4823 88.4968C75.8126 87.1931 73.745 86.5038 71.627 86.5446C63.754 86.3567 62.9273 97.2737 62.9273 97.2737C61.6633 97.0715 60.3681 97.3056 59.2548 97.9373C58.1415 98.5691 57.2764 99.561 56.8018 100.75H62.8709Z" fill="#C3E7EF"/>
<path fill-rule="evenodd" clip-rule="evenodd" d="M0 152.647H55.5244C53.7339 150.897 51.7181 149.393 49.5304 148.175C47.3662 147.535 45.1165 147.231 42.8599 147.274C42.8599 147.274 42.4653 140.152 37.6927 139.607C32.92 139.062 31.4356 142.088 31.4356 142.088C31.4356 142.088 30.8907 131.979 22.5855 131.02C14.2804 130.062 13.6039 142.426 13.6039 142.426C13.6039 142.426 11.1612 139.156 8.30517 140.547C5.44909 141.937 5.16724 148.063 5.16724 148.063C5.16724 148.063 0.26306 148.946 0 152.647Z" fill="#C3E7EF"/>
</svg>
