<svg width="284" height="294" viewBox="0 0 284 294" fill="none" xmlns="http://www.w3.org/2000/svg">
<path d="M210.262 232.602C250.987 232.602 284 199.589 284 158.864C284 118.14 250.987 85.1262 210.262 85.1262C169.538 85.1262 136.524 118.14 136.524 158.864C136.524 199.589 169.538 232.602 210.262 232.602Z" fill="#F05553"/>
<path d="M210.262 221.032C244.596 221.032 272.43 193.199 272.43 158.864C272.43 124.53 244.596 96.697 210.262 96.697C175.928 96.697 148.095 124.53 148.095 158.864C148.095 193.199 175.928 221.032 210.262 221.032Z" fill="white"/>
<path d="M210.58 203.597C234.925 203.597 254.661 183.861 254.661 159.516C254.661 135.171 234.925 115.435 210.58 115.435C186.235 115.435 166.499 135.171 166.499 159.516C166.499 183.861 186.235 203.597 210.58 203.597Z" fill="#F05553"/>
<path d="M216.048 193.193C234.654 190.173 247.289 172.641 244.268 154.035C241.248 135.429 223.717 122.794 205.11 125.814C186.504 128.835 173.869 146.366 176.889 164.972C179.91 183.579 197.441 196.214 216.048 193.193Z" fill="white"/>
<path d="M212.471 172.435C219.969 171.218 225.061 164.153 223.843 156.655C222.626 149.156 215.561 144.065 208.063 145.282C200.565 146.499 195.473 153.564 196.69 161.062C197.907 168.56 204.972 173.652 212.471 172.435Z" fill="#F05553"/>
<path d="M210.263 164.834C213.56 164.834 216.233 162.161 216.233 158.864C216.233 155.567 213.56 152.894 210.263 152.894C206.966 152.894 204.293 155.567 204.293 158.864C204.293 162.161 206.966 164.834 210.263 164.834Z" fill="white"/>
<path d="M208.078 162.281V157.367C208.09 157.189 208.165 157.02 208.289 156.892C208.841 156.341 209.588 156.032 210.368 156.032C211.147 156.032 211.894 156.341 212.446 156.892C212.52 156.955 212.58 157.033 212.623 157.121C212.665 157.209 212.689 157.305 212.692 157.403C212.692 159.516 212.692 162.316 212.692 162.316L208.078 162.281Z" fill="#322875"/>
<g style="mix-blend-mode:multiply" opacity="0.35">
<path d="M211.512 162.175C198.683 185.15 187.694 209.106 178.65 233.818C175.356 243.187 149.186 268.952 138.919 268.124C129.339 267.332 133.266 261.626 133.266 261.626C133.266 261.626 170.249 222.388 177.628 204.97C185.007 187.553 211.512 162.175 211.512 162.175Z" fill="#663E38"/>
</g>
<path d="M4 272.58H107.184C107.184 272.58 131.082 273.108 144.784 266.398C157.834 260.041 162.694 254.07 172.856 235.403C183.018 216.735 187.156 204.97 195.381 191.533C203.605 178.096 212.71 162.281 212.71 162.281H208.078C208.078 162.281 198.762 173.816 194.148 179.646C189.534 185.475 163.275 222.335 147.848 226.597C124.954 232.972 112.027 231.687 91.2105 232.127C70.3941 232.567 27.5461 232.127 27.5461 232.127L4 272.58Z" fill="#43C4D9"/>
<path d="M93.5887 132.765L118.509 250.759H115.127C115.127 250.759 98.9073 226.984 97.0581 218.214C95.2089 209.444 95.1913 203.473 93.5359 199.088C91.8804 194.703 78.0557 158.583 78.0557 158.583V132.765H93.5887Z" fill="#294D90"/>
<path d="M78.1079 158.547L44.1712 250.742H41.2478C41.2478 250.742 40.4552 220.451 42.8504 210.095C45.2455 199.74 51.0748 192.819 52.1491 186.708C53.2233 180.596 55.0725 147.452 64.3184 130.475C73.5642 113.498 82.634 135.036 82.634 135.036L78.1079 158.547Z" fill="#335AA9"/>
<path d="M74.4454 29.4046C74.4454 29.4046 64.9354 26.9743 59.3527 35.2163C53.7699 43.4583 50.8112 48.9706 42.0409 48.09C33.2705 47.2095 26.772 56.244 33.0063 63.0243C39.2407 69.8046 47.5003 65.5427 51.2163 67.4623C54.9323 69.382 53.312 74.7181 72.6843 71.7947C92.0566 68.8712 93.8177 48.4775 90.2955 36.9774C86.7732 25.4773 75.5197 28.3303 74.4454 29.4046Z" fill="#4C266E"/>
<path d="M80.7499 74.1196C84.642 74.5589 88.2413 76.3993 90.8763 79.2973C95.7546 84.3165 101.443 97.5425 104.965 103.847C99.1536 108.831 96.8465 109.536 96.8641 109.518L93.5884 104.745C93.5884 104.745 92.9897 106.102 91.387 109.025C90.0928 111.182 89.6354 113.739 90.1014 116.21C90.3304 119.151 93.6237 132.835 93.6237 132.835C93.6237 132.835 88.851 135.107 78.7598 135.371C73.18 135.677 67.622 134.459 62.6808 131.849C62.6808 131.849 67.1541 118.694 67.4006 112.706C67.6472 106.718 66.4672 105.82 66.4672 105.82C66.4672 105.82 60.497 96.6619 59.0529 89.3357C58.3615 86.3392 58.8335 83.1919 60.3738 80.5301C61.8053 78.4249 63.7589 76.7274 66.0433 75.6037C68.3277 74.48 70.8647 73.9687 73.406 74.1196H80.7499Z" fill="#F05452"/>
<path d="M87.741 45.0965C89.1323 54.2543 85.7862 63.8348 79.9921 64.7154C74.198 65.5959 68.1574 57.4419 66.7661 48.2665C65.3748 39.0911 69.1613 32.3812 74.9553 31.5007C80.7494 30.6201 86.3498 35.9211 87.741 45.0965Z" fill="#FFC39F"/>
<path d="M80.7501 62.0911V74.0491H73.4062V60.8936L80.7501 62.0911Z" fill="#FFC39F"/>
<path d="M104.913 103.777C104.913 103.777 113.718 121.388 119.002 129.789C124.285 138.189 130.237 147.4 130.237 147.4L128.001 149.02C128.001 149.02 106.867 126.425 96.8643 109.5C100.351 103.777 104.913 103.777 104.913 103.777Z" fill="#FFC39F"/>
<path d="M94.5212 100.184C95.0871 99.3975 95.4258 98.4706 95.5004 97.5046C95.5749 96.5386 95.3824 95.5708 94.9439 94.7068C93.4293 91.7129 89.4492 83.7527 89.4492 83.7527C89.4492 83.7527 93.1828 90.216 95.5251 94.3194C97.8674 98.4228 96.1239 108.408 96.1239 108.408L93.0595 104.27L94.5212 100.184Z" fill="#C2394E"/>
<path d="M82.635 35.375C82.635 35.375 85.7522 37.4355 87.4429 43.4409C89.4858 37.1361 84.0263 31.8528 81.0324 32.4868C78.0385 33.1208 82.635 35.375 82.635 35.375Z" fill="#51495B"/>
<path d="M80.7504 64.5387C79.2782 64.498 77.829 64.1626 76.4885 63.5525C75.1784 62.5677 74.1417 61.2643 73.477 59.7661L73.248 62.5487L73.4065 67.6383L80.7504 65.6306V64.5387Z" fill="#EBAA80"/>
<path d="M82.6339 35.3751C82.6898 36.9119 82.2721 38.4287 81.4373 39.7202C80.6026 41.0117 79.3911 42.0155 77.9669 42.5957C72.6836 45.1845 70.0067 46.3821 69.901 49.8691C69.7953 53.3561 73.5817 54.1486 74.4799 58.6747C74.811 59.843 74.8222 61.0788 74.5124 62.2529C74.2026 63.427 73.5831 64.4964 72.7188 65.3493C69.8448 62.7089 67.6069 59.4512 66.1732 55.8213C64.7396 52.1914 64.1475 48.2837 64.4416 44.392C65.7272 31.4302 78.7066 24.6499 82.6339 35.3751Z" fill="#4C266E"/>
<path d="M41.2131 249.298L41.125 241.778L47.06 242.887L45.2636 247.783L44.612 249.615L42.4458 249.791L41.2131 249.298Z" fill="#FFC39F"/>
<path d="M40.9845 249.28C40.1497 250.494 39.798 251.976 39.9983 253.436C40.5618 255.285 41.0901 256.958 41.0901 256.958H42.094V253.753C42.5713 254.312 43.0124 254.9 43.4148 255.514C43.6274 255.945 43.9558 256.309 44.3633 256.564C44.7707 256.819 45.2412 256.956 45.7219 256.958H50.8643C50.8643 256.958 51.6216 255.338 50.8643 254.916C49.2855 254.195 47.8435 253.205 46.6024 251.992C46.0037 250.971 47.1308 248.135 46.3383 247.994C45.5458 247.853 43.3268 247.607 43.1507 247.994C42.9522 248.459 42.7817 248.936 42.6399 249.421L40.9845 249.28Z" fill="#322875"/>
<path d="M110.918 244.366L116.712 242.288L117.786 247.378L116.941 249.791L114.229 249.456L110.918 244.366Z" fill="#EBAA80"/>
<path d="M114.229 249.457C113.68 250.708 113.538 252.1 113.824 253.437C114.387 255.286 114.898 256.959 114.898 256.959H115.919V253.754C116.391 254.317 116.831 254.905 117.24 255.515C117.45 255.945 117.775 256.307 118.18 256.562C118.584 256.818 119.052 256.955 119.53 256.959H124.672C124.672 256.959 125.447 255.339 124.672 254.916C123.12 254.185 121.703 253.197 120.481 251.993C119.864 250.971 119.477 247.607 118.72 247.466C117.962 247.326 116.131 247.59 115.937 247.96C115.816 248.329 115.756 248.716 115.761 249.104L114.229 249.457Z" fill="#322875"/>
<path d="M73.4062 74.1192C73.4062 74.1192 77.8971 82.4845 81.3489 84.14C84.8007 85.7954 86.7731 84.6859 85.3466 81.1637C84.1779 78.5975 82.6282 76.2225 80.7501 74.1192C78.3853 73.2171 75.7711 73.2171 73.4062 74.1192Z" fill="#FFC39F"/>
<path d="M48.891 152.278C48.8291 151.952 48.8291 151.617 48.891 151.292C49.4721 146.977 54.914 117.619 59.1407 107.475C59.6338 106.295 59.035 106.295 58.0135 105.89C55.3719 104.816 53.0824 103.829 51.5855 103.178C50.5816 102.738 49.5074 103.512 49.3136 104.816C48.1689 112.406 44.858 135.864 44.9461 152.278H48.891Z" fill="#FFC39F"/>
<path d="M62.4172 78.6458C62.4172 78.6458 54.9149 78.6458 49.2793 104.323C52.597 105.199 55.8655 106.251 59.0711 107.475L64.8828 95.4116L62.4172 78.6458Z" fill="#F05452"/>
<path d="M63.6497 101.417C63.5265 101.417 69.2325 112.864 62.7516 130.845C62.7516 130.968 62.4346 131.743 62.4346 131.743C64.4788 133.042 66.769 133.905 69.162 134.279C69.2408 134.13 69.3114 133.978 69.3734 133.821C70.43 131.338 78.8482 113.938 90.4363 109.342C90.5228 109.298 90.6004 109.238 90.6653 109.166C92.6906 106.753 95.3851 101.98 95.1913 98.1938C93.4302 100.043 86.5971 101.839 82.0182 102.068C77.4393 102.297 64.953 101.399 63.1919 100.43C63.6321 101.505 63.6497 101.417 63.6497 101.417Z" fill="#C2394E"/>
<path d="M127.279 143.243L124.408 145.181C124.408 145.181 127.384 152.454 128.388 152.753C129.392 153.053 130.149 152.331 130.149 151.662C130.344 151.71 130.548 151.707 130.741 151.654C130.934 151.6 131.111 151.497 131.252 151.356C131.394 151.214 131.497 151.038 131.551 150.844C131.604 150.651 131.607 150.447 131.558 150.253C132.122 150.253 133.091 149.724 132.844 148.773C131.716 146.319 129.74 144.356 127.279 143.243V143.243Z" fill="#FFC39F"/>
<path d="M45.1582 151.239L48.6805 151.045C48.6805 151.045 50.6705 158.671 50.0541 159.498C49.953 159.674 49.8112 159.823 49.6407 159.932C49.4701 160.042 49.2758 160.109 49.074 160.128C48.8722 160.147 48.6687 160.117 48.4808 160.041C48.2928 159.966 48.1258 159.846 47.9936 159.692C47.867 159.848 47.7023 159.968 47.5156 160.041C47.3288 160.114 47.1263 160.137 46.9277 160.109C46.7292 160.081 46.5413 160.001 46.3825 159.879C46.2236 159.756 46.0992 159.595 46.0212 159.41C45.8737 159.525 45.703 159.606 45.5211 159.648C45.3391 159.689 45.1502 159.691 44.9675 159.653C44.7848 159.614 44.6127 159.536 44.4632 159.424C44.3136 159.313 44.1902 159.169 44.1016 159.005C43.5101 156.373 43.8852 153.617 45.1582 151.239Z" fill="#FFC39F"/>
</svg>
