<svg xmlns="http://www.w3.org/2000/svg" viewBox="0 0 531.92 187.44"><title>Layer 1</title><g id="Layer_2" data-name="Layer 2"><g id="Layer_1-2" data-name="Layer 1"><path d="M401.23,159.86v27.89H283.07v-41l-.45-.16a21.64,21.64,0,0,0-1.35,3.15,54.49,54.49,0,0,1-9.62,20.71,48.27,48.27,0,0,1-22.16,15.73c-3.26,1.19-6.65,2-10,3a4.75,4.75,0,0,1-1.36.08c-13.71,0-27.42-.08-41.13.05a37.34,37.34,0,0,1-11.61-1.78c-8.42-2.66-16-6.76-22.06-13.26-2.56-2.75-4.64-5.95-7-8.92a8.83,8.83,0,0,0-1.21-1.06l-.35.29,4.67,23.17H108.57q-3-15.51-5.94-31.2H59.47c-2,10.39-4,20.87-6,31.35H4.32Q23.19,96.75,42,5.75h79.87Q134.15,65,146.39,124.19l.4,0a18.26,18.26,0,0,0,.68-3.3q.21-8.3.26-16.61c.05-10,0-19.91.1-29.87.09-6.86.27-13.73.71-20.57.69-10.93,3.71-21.11,10.39-30,6.38-8.49,14.86-14,24.83-17.33a81.18,81.18,0,0,1,18.1-3.77,134,134,0,0,1,14.42-.89c11.28.14,22.48,1.18,33.26,4.79,16.52,5.52,26.72,17,31.23,33.7.48,1.79,1.18,3.52,1.78,5.28l.44-.12V5.81h51.72V137.9h61.76V5.74h51.59V7.38q0,42.2,0,84.37c0,12.29.05,24.58.24,36.86a26.71,26.71,0,0,0,1.3,7.56c1.56,4.9,5.53,7.46,11.39,7.54a118.69,118.69,0,0,0,12.23-.27c5.76-.52,8.9-3.33,10.22-9.36a34,34,0,0,0,.77-7q.09-59.87.08-119.74V5.76h51.93v8.59q0,39.55,0,79.12c0,4.33,0,8.66,0,13,0,10.32.2,20.65-.69,31-1,11.19-3.93,21.68-10.66,30.87-7.18,9.78-16.87,15.91-28.33,19.48a33.06,33.06,0,0,1-10.14,1.53q-19.69-.15-39.38,0a37.85,37.85,0,0,1-11.74-1.77,53.18,53.18,0,0,1-23.06-13.75A56,56,0,0,1,403.63,162a16,16,0,0,0-2-2.38ZM236.3,79.24c0-.63,0-1.17,0-1.7-.18-5.69-.14-11.4-.62-17.07s-3.5-8.83-9-9.88a44.51,44.51,0,0,0-17.59-.05c-4.6,1-7.81,3.63-8.87,8.34a34.08,34.08,0,0,0-1,7.37q-.11,29.19,0,58.37a57.48,57.48,0,0,0,.76,8.68c.79,5,3.49,8.61,8.71,9.63a45,45,0,0,0,17.84,0c3.68-.76,6.72-2.7,8.07-6.34a24.6,24.6,0,0,0,1.51-7.24c.25-4.65.11-9.32.12-14,0-.44,0-.89,0-1.43h46.13V79.24ZM79.69,47.78q-6.28,33.84-12.56,67.57H94.94q-6.36-33.78-12.69-67.3Z" transform="translate(-4.32 -1.86)" style="fill:#0155a9"/></g></g></svg>