<?xml version="1.0" encoding="UTF-8" standalone="no"?>
<!-- Created with Inkscape (http://www.inkscape.org/) -->

<svg
   xmlns:dc="http://purl.org/dc/elements/1.1/"
   xmlns:cc="http://creativecommons.org/ns#"
   xmlns:rdf="http://www.w3.org/1999/02/22-rdf-syntax-ns#"
   xmlns:svg="http://www.w3.org/2000/svg"
   xmlns="http://www.w3.org/2000/svg"
   xmlns:sodipodi="http://sodipodi.sourceforge.net/DTD/sodipodi-0.dtd"
   xmlns:inkscape="http://www.inkscape.org/namespaces/inkscape"
   id="svg2"
   version="1.1"
   inkscape:version="0.47 r22583"
   width="240"
   height="50"
   xml:space="preserve"
   sodipodi:docname="Associated_Press.svg"><metadata
     id="metadata8"><rdf:RDF><cc:Work
         rdf:about=""><dc:format>image/svg+xml</dc:format><dc:type
           rdf:resource="http://purl.org/dc/dcmitype/StillImage" /><dc:title /></cc:Work></rdf:RDF></metadata><defs
     id="defs6"><inkscape:perspective
       sodipodi:type="inkscape:persp3d"
       inkscape:vp_x="0 : 0.5 : 1"
       inkscape:vp_y="0 : 1000 : 0"
       inkscape:vp_z="1 : 0.5 : 1"
       inkscape:persp3d-origin="0.5 : 0.33333333 : 1"
       id="perspective10" /><inkscape:perspective
       id="perspective2824"
       inkscape:persp3d-origin="0.5 : 0.33333333 : 1"
       inkscape:vp_z="1 : 0.5 : 1"
       inkscape:vp_y="0 : 1000 : 0"
       inkscape:vp_x="0 : 0.5 : 1"
       sodipodi:type="inkscape:persp3d" /></defs><sodipodi:namedview
     pagecolor="#ffffff"
     bordercolor="#666666"
     borderopacity="1"
     objecttolerance="10"
     gridtolerance="10"
     guidetolerance="10"
     inkscape:pageopacity="0"
     inkscape:pageshadow="2"
     inkscape:window-width="1152"
     inkscape:window-height="789"
     id="namedview4"
     showgrid="false"
     inkscape:zoom="1.9070707"
     inkscape:cx="252.02989"
     inkscape:cy="-25.090651"
     inkscape:window-x="0"
     inkscape:window-y="24"
     inkscape:window-maximized="1"
     inkscape:current-layer="g12" /><g
     id="g12"
     inkscape:groupmode="layer"
     inkscape:label="ink_ext_XXXXXX"
     transform="matrix(1.25,0,0,-1.25,-255.11875,555.315)"><path
       id="path18"
       style="fill:#cc3401;fill-opacity:1;fill-rule:evenodd;stroke:none"
       d="m 232.92001,441.1975 0,-28.343 -6.946,0 0,17.571 -4.375,-7.115 3.238,0 0,-6.448 -7.415,0 -2.271,-3.773 -7.916,0 18.956,28.108 6.729,0" /><path
       id="path20"
       style="fill:#cc3401;fill-opacity:1;fill-rule:evenodd;stroke:none"
       d="m 234.02301,435.5365 -0.033,-27.725 6.948,0 0,21.712 2.639,0 c 0,0 3.241,0.066 3.241,-3.309 0,-3.371 -2.907,-3.207 -2.907,-3.207 l -1.87,0 0,-6.145 4.376,0 c 0,0 7.782,-0.399 7.448,9.553 -0.32,9.482 -10.655,9.121 -10.655,9.121 l -9.187,0" /><path
       id="path24"
       style="fill:#231f20;fill-opacity:1;fill-rule:evenodd;stroke:none"
       d="m 385.19052,419.7095 2.475,0.377 c 0.106,-0.479 0.318,-0.845 0.642,-1.094 0.321,-0.249 0.771,-0.375 1.352,-0.375 0.639,0 1.118,0.117 1.44,0.354 0.218,0.162 0.326,0.384 0.326,0.656 0,0.189 -0.06,0.345 -0.177,0.468 -0.123,0.117 -0.399,0.225 -0.825,0.324 -1.99,0.438 -3.252,0.839 -3.786,1.202 -0.737,0.504 -1.106,1.205 -1.106,2.102 0,0.806 0.318,1.487 0.957,2.035 0.638,0.552 1.627,0.828 2.967,0.828 1.277,0 2.228,-0.21 2.849,-0.624 0.62,-0.417 1.046,-1.031 1.279,-1.847 l -2.326,-0.428 c -0.099,0.362 -0.288,0.641 -0.566,0.833 -0.279,0.195 -0.675,0.291 -1.191,0.291 -0.65,0 -1.115,-0.09 -1.397,-0.273 -0.186,-0.129 -0.279,-0.297 -0.279,-0.5 0,-0.178 0.082,-0.324 0.246,-0.448 0.222,-0.164 0.989,-0.395 2.305,-0.695 1.313,-0.297 2.231,-0.663 2.752,-1.097 0.516,-0.441 0.774,-1.053 0.774,-1.834 0,-0.855 -0.356,-1.592 -1.073,-2.207 -0.714,-0.615 -1.769,-0.92 -3.169,-0.92 -1.271,0 -2.275,0.258 -3.019,0.773 -0.74,0.512 -1.222,1.214 -1.45,2.099 m -113.982,-2.662 -2.83,0 -1.125,2.925 -5.147,0 -1.061,-2.925 -2.758,0 5.015,12.875 2.749,0 5.157,-12.875 z m -4.788,5.093 -1.775,4.778 -1.739,-4.778 3.514,0 z m 4.382,-2.431 2.475,0.377 c 0.106,-0.479 0.318,-0.845 0.642,-1.094 0.321,-0.249 0.771,-0.375 1.353,-0.375 0.638,0 1.118,0.117 1.439,0.354 0.218,0.162 0.326,0.384 0.326,0.656 0,0.189 -0.06,0.345 -0.177,0.468 -0.123,0.117 -0.399,0.225 -0.825,0.324 -1.99,0.438 -3.252,0.839 -3.786,1.202 -0.737,0.504 -1.106,1.205 -1.106,2.102 0,0.806 0.318,1.487 0.957,2.035 0.638,0.552 1.627,0.828 2.967,0.828 1.277,0 2.228,-0.21 2.849,-0.624 0.62,-0.417 1.046,-1.031 1.279,-1.847 l -2.326,-0.428 c -0.099,0.362 -0.288,0.641 -0.566,0.833 -0.279,0.195 -0.675,0.291 -1.191,0.291 -0.65,0 -1.115,-0.09 -1.397,-0.273 -0.186,-0.129 -0.278,-0.297 -0.278,-0.5 0,-0.178 0.081,-0.324 0.245,-0.448 0.222,-0.164 0.99,-0.395 2.306,-0.695 1.312,-0.297 2.23,-0.663 2.752,-1.097 0.516,-0.441 0.773,-1.053 0.773,-1.834 0,-0.855 -0.357,-1.592 -1.073,-2.207 -0.714,-0.615 -1.768,-0.92 -3.168,-0.92 -1.272,0 -2.276,0.258 -3.02,0.773 -0.74,0.512 -1.222,1.214 -1.45,2.099 z m 9.106,0 2.476,0.377 c 0.105,-0.479 0.317,-0.845 0.641,-1.094 0.322,-0.249 0.771,-0.375 1.353,-0.375 0.638,0 1.118,0.117 1.439,0.354 0.219,0.162 0.326,0.384 0.326,0.656 0,0.189 -0.06,0.345 -0.177,0.468 -0.123,0.117 -0.398,0.225 -0.824,0.324 -1.99,0.438 -3.252,0.839 -3.786,1.202 -0.738,0.504 -1.106,1.205 -1.106,2.102 0,0.806 0.317,1.487 0.956,2.035 0.638,0.552 1.628,0.828 2.968,0.828 1.276,0 2.227,-0.21 2.848,-0.624 0.62,-0.417 1.046,-1.031 1.28,-1.847 l -2.327,-0.428 c -0.099,0.362 -0.287,0.641 -0.566,0.833 -0.279,0.195 -0.675,0.291 -1.191,0.291 -0.65,0 -1.114,-0.09 -1.396,-0.273 -0.186,-0.129 -0.279,-0.297 -0.279,-0.5 0,-0.178 0.081,-0.324 0.245,-0.448 0.222,-0.164 0.99,-0.395 2.306,-0.695 1.313,-0.297 2.23,-0.663 2.752,-1.097 0.516,-0.441 0.774,-1.053 0.774,-1.834 0,-0.855 -0.357,-1.592 -1.074,-2.207 -0.714,-0.615 -1.768,-0.92 -3.168,-0.92 -1.271,0 -2.276,0.258 -3.019,0.773 -0.741,0.512 -1.223,1.214 -1.451,2.099 z m 9.403,2.134 c 0,0.818 0.204,1.612 0.605,2.38 0.406,0.765 0.977,1.352 1.718,1.754 0.741,0.405 1.568,0.609 2.482,0.609 1.409,0 2.566,-0.459 3.469,-1.376 0.902,-0.918 1.351,-2.075 1.351,-3.475 0,-1.409 -0.454,-2.578 -1.363,-3.507 -0.912,-0.93 -2.057,-1.391 -3.439,-1.391 -0.857,0 -1.67,0.192 -2.446,0.578 -0.777,0.387 -1.366,0.954 -1.772,1.7 -0.401,0.746 -0.605,1.655 -0.605,2.728 z m 2.53,-0.132 c 0,-0.927 0.219,-1.634 0.66,-2.125 0.437,-0.492 0.98,-0.738 1.624,-0.738 0.645,0 1.184,0.246 1.619,0.738 0.438,0.491 0.656,1.205 0.656,2.143 0,0.911 -0.218,1.616 -0.656,2.107 -0.435,0.492 -0.974,0.737 -1.619,0.737 -0.644,0 -1.187,-0.245 -1.624,-0.737 -0.441,-0.491 -0.66,-1.202 -0.66,-2.125 z m 16.265,1.904 -2.434,-0.438 c -0.081,0.486 -0.267,0.851 -0.558,1.097 -0.291,0.246 -0.665,0.369 -1.127,0.369 -0.617,0 -1.106,-0.213 -1.472,-0.636 -0.366,-0.425 -0.549,-1.136 -0.549,-2.131 0,-1.106 0.186,-1.889 0.558,-2.345 0.372,-0.455 0.869,-0.683 1.496,-0.683 0.471,0 0.852,0.132 1.151,0.399 0.3,0.267 0.51,0.725 0.633,1.373 l 2.425,-0.411 c -0.252,-1.112 -0.738,-1.954 -1.451,-2.521 -0.714,-0.57 -1.67,-0.851 -2.872,-0.851 -1.364,0 -2.452,0.428 -3.262,1.289 -0.812,0.86 -1.217,2.053 -1.217,3.576 0,1.538 0.408,2.737 1.22,3.595 0.816,0.86 1.916,1.289 3.304,1.289 1.137,0 2.039,-0.247 2.71,-0.735 0.668,-0.488 1.151,-1.235 1.445,-2.236 z m 0.973,4.023 0,2.284 2.468,0 0,-2.284 -2.468,0 z m 0,-10.591 0,9.326 2.468,0 0,-9.326 -2.468,0 z m 5.944,6.481 -2.24,0.404 c 0.252,0.902 0.684,1.568 1.298,2.002 0.618,0.433 1.53,0.652 2.74,0.652 1.104,0 1.922,-0.132 2.461,-0.393 0.538,-0.261 0.918,-0.591 1.136,-0.992 0.22,-0.402 0.331,-1.137 0.331,-2.21 l -0.027,-2.881 c 0,-0.819 0.039,-1.424 0.12,-1.813 0.077,-0.388 0.228,-0.807 0.444,-1.25 l -2.444,0 c -0.063,0.164 -0.144,0.407 -0.237,0.728 -0.039,0.146 -0.069,0.243 -0.087,0.291 -0.423,-0.411 -0.872,-0.716 -1.352,-0.924 -0.48,-0.204 -0.992,-0.305 -1.538,-0.305 -0.959,0 -1.717,0.261 -2.269,0.779 -0.555,0.522 -0.831,1.181 -0.831,1.979 0,0.524 0.126,0.995 0.378,1.409 0.252,0.413 0.606,0.728 1.059,0.946 0.452,0.22 1.109,0.411 1.963,0.577 1.151,0.215 1.952,0.419 2.396,0.605 l 0,0.246 c 0,0.476 -0.117,0.812 -0.351,1.016 -0.234,0.201 -0.675,0.303 -1.326,0.303 -0.44,0 -0.781,-0.087 -1.028,-0.261 -0.245,-0.17 -0.444,-0.473 -0.596,-0.908 z m 3.301,-2.003 c -0.316,-0.105 -0.816,-0.23 -1.503,-0.377 -0.683,-0.148 -1.13,-0.291 -1.342,-0.43 -0.321,-0.23 -0.483,-0.518 -0.483,-0.869 0,-0.348 0.129,-0.644 0.387,-0.896 0.258,-0.252 0.584,-0.378 0.983,-0.378 0.446,0 0.869,0.147 1.274,0.438 0.3,0.222 0.494,0.495 0.588,0.818 0.065,0.21 0.096,0.612 0.096,1.203 l 0,0.491 z m 8.237,4.848 0,-1.967 -1.686,0 0,-3.759 c 0,-0.761 0.016,-1.205 0.048,-1.331 0.033,-0.126 0.106,-0.228 0.22,-0.312 0.113,-0.081 0.254,-0.123 0.416,-0.123 0.231,0 0.56,0.081 0.995,0.237 l 0.21,-1.913 c -0.576,-0.246 -1.223,-0.368 -1.951,-0.368 -0.444,0 -0.846,0.075 -1.202,0.222 -0.357,0.149 -0.618,0.344 -0.786,0.58 -0.168,0.238 -0.282,0.559 -0.348,0.963 -0.051,0.285 -0.078,0.867 -0.078,1.739 l 0,4.065 -1.133,0 0,1.967 1.133,0 0,1.856 2.476,1.438 0,-3.294 1.686,0 z m 6.216,-6.359 2.461,-0.41 c -0.318,-0.903 -0.815,-1.589 -1.499,-2.06 -0.681,-0.473 -1.535,-0.707 -2.56,-0.707 -1.622,0 -2.821,0.527 -3.601,1.588 -0.614,0.849 -0.923,1.922 -0.923,3.214 0,1.547 0.404,2.758 1.214,3.633 0.806,0.875 1.828,1.314 3.063,1.314 1.389,0 2.483,-0.459 3.287,-1.376 0.8,-0.918 1.183,-2.321 1.15,-4.213 l -6.184,0 c 0.019,-0.731 0.216,-1.3 0.597,-1.706 0.381,-0.407 0.857,-0.611 1.424,-0.611 0.387,0 0.71,0.105 0.974,0.315 0.264,0.213 0.465,0.552 0.597,1.019 z m 0.141,2.495 c -0.019,0.716 -0.202,1.259 -0.552,1.63 -0.351,0.372 -0.78,0.558 -1.283,0.558 -0.54,0 -0.983,-0.198 -1.334,-0.591 -0.351,-0.39 -0.525,-0.923 -0.519,-1.597 l 3.688,0 z m 12.118,-5.462 -2.29,0 0,1.369 c -0.381,-0.533 -0.83,-0.929 -1.349,-1.19 -0.519,-0.261 -1.04,-0.389 -1.568,-0.389 -1.073,0 -1.99,0.431 -2.755,1.294 -0.761,0.864 -1.145,2.069 -1.145,3.613 0,1.583 0.372,2.785 1.115,3.606 0.744,0.822 1.685,1.236 2.821,1.236 1.041,0 1.943,-0.435 2.704,-1.302 l 0,4.638 2.467,0 0,-12.875 z m -6.586,4.865 c 0,-0.995 0.138,-1.715 0.414,-2.161 0.395,-0.642 0.953,-0.966 1.667,-0.966 0.569,0 1.052,0.243 1.451,0.726 0.395,0.482 0.596,1.205 0.596,2.164 0,1.07 -0.195,1.844 -0.578,2.314 -0.387,0.471 -0.882,0.708 -1.487,0.708 -0.585,0 -1.073,-0.234 -1.469,-0.699 -0.395,-0.465 -0.594,-1.16 -0.594,-2.086 z m 13.137,-4.865 0,12.875 4.17,0 c 1.58,0 2.611,-0.066 3.09,-0.195 0.738,-0.192 1.359,-0.611 1.856,-1.259 0.497,-0.647 0.747,-1.484 0.747,-2.506 0,-0.791 -0.144,-1.457 -0.432,-1.994 -0.288,-0.539 -0.65,-0.962 -1.094,-1.271 -0.441,-0.306 -0.891,-0.509 -1.347,-0.608 -0.619,-0.123 -1.519,-0.186 -2.697,-0.186 l -1.694,0 0,-4.856 -2.599,0 z m 2.599,10.696 0,-3.652 1.421,0 c 1.025,0 1.711,0.066 2.056,0.201 0.345,0.135 0.614,0.345 0.813,0.633 0.195,0.287 0.293,0.62 0.293,1.001 0,0.468 -0.137,0.854 -0.413,1.16 -0.273,0.303 -0.624,0.495 -1.044,0.57 -0.311,0.06 -0.935,0.087 -1.87,0.087 l -1.256,0 z m 10.845,-10.696 -2.468,0 0,9.326 2.291,0 0,-1.326 c 0.393,0.627 0.746,1.041 1.059,1.239 0.314,0.197 0.667,0.3 1.066,0.3 0.564,0 1.103,-0.157 1.625,-0.469 l -0.764,-2.149 c -0.414,0.268 -0.8,0.402 -1.158,0.402 -0.347,0 -0.638,-0.093 -0.878,-0.285 -0.243,-0.188 -0.429,-0.533 -0.566,-1.031 -0.138,-0.497 -0.207,-1.541 -0.207,-3.127 l 0,-2.88 z m 9.139,2.967 2.461,-0.41 c -0.318,-0.903 -0.815,-1.589 -1.499,-2.06 -0.68,-0.473 -1.535,-0.707 -2.56,-0.707 -1.622,0 -2.821,0.527 -3.601,1.588 -0.614,0.849 -0.923,1.922 -0.923,3.214 0,1.547 0.405,2.758 1.214,3.633 0.806,0.875 1.829,1.314 3.064,1.314 1.388,0 2.482,-0.459 3.286,-1.376 0.8,-0.918 1.184,-2.321 1.151,-4.213 l -6.184,0 c 0.017,-0.731 0.215,-1.3 0.596,-1.706 0.38,-0.407 0.857,-0.611 1.424,-0.611 0.387,0 0.71,0.105 0.974,0.315 0.264,0.213 0.465,0.552 0.597,1.019 z m 0.141,2.495 c -0.019,0.716 -0.202,1.259 -0.552,1.63 -0.351,0.372 -0.779,0.558 -1.283,0.558 -0.54,0 -0.983,-0.198 -1.334,-0.591 -0.351,-0.39 -0.524,-0.923 -0.519,-1.597 l 3.688,0 z m 2.697,-2.8 2.476,0.377 c 0.105,-0.479 0.317,-0.845 0.641,-1.094 0.321,-0.249 0.771,-0.375 1.352,-0.375 0.639,0 1.119,0.117 1.439,0.354 0.219,0.162 0.327,0.384 0.327,0.656 0,0.189 -0.06,0.345 -0.177,0.468 -0.123,0.117 -0.399,0.225 -0.825,0.324 -1.99,0.438 -3.252,0.839 -3.785,1.202 -0.738,0.504 -1.107,1.205 -1.107,2.102 0,0.806 0.318,1.487 0.957,2.035 0.638,0.552 1.628,0.828 2.968,0.828 1.276,0 2.227,-0.21 2.848,-0.624 0.62,-0.417 1.046,-1.031 1.279,-1.847 l -2.326,-0.428 c -0.099,0.362 -0.288,0.641 -0.566,0.833 -0.279,0.195 -0.675,0.291 -1.191,0.291 -0.65,0 -1.115,-0.09 -1.396,-0.273 -0.187,-0.129 -0.279,-0.297 -0.279,-0.5 0,-0.178 0.081,-0.324 0.245,-0.448 0.222,-0.164 0.99,-0.395 2.305,-0.695 1.314,-0.297 2.231,-0.663 2.753,-1.097 0.515,-0.441 0.773,-1.053 0.773,-1.834 0,-0.855 -0.356,-1.592 -1.073,-2.207 -0.714,-0.615 -1.769,-0.92 -3.169,-0.92 -1.27,0 -2.275,0.258 -3.018,0.773 -0.741,0.512 -1.223,1.214 -1.451,2.099" /></g></svg>