<svg width="9" height="16" viewBox="0 0 9 16" fill="none" xmlns="http://www.w3.org/2000/svg">
<path d="M0.306001 15.3202C0.697686 15.7136 1.32918 15.7136 1.72086 15.3202L8.36352 8.64943C8.43762 8.57516 8.49642 8.48695 8.53653 8.38984C8.57664 8.29273 8.59729 8.18863 8.59729 8.0835C8.59729 7.97836 8.57664 7.87426 8.53653 7.77715C8.49642 7.68004 8.43762 7.59183 8.36352 7.51756L1.72086 0.846766C1.32918 0.453422 0.697686 0.453422 0.306001 0.846766C-0.0856838 1.24011 -0.0856838 1.87428 0.306001 2.26762L6.09335 8.08751L0.298008 13.9074C-0.085684 14.2927 -0.0856838 14.9349 0.306001 15.3202Z" fill="#2C58B1"/>
</svg>
