<?xml version="1.0" encoding="UTF-8" standalone="no"?>
<!DOCTYPE svg PUBLIC "-//W3C//DTD SVG 1.0//EN" "http://www.w3.org/TR/2001/REC-SVG-20010904/DTD/svg10.dtd">
<!-- Created with Inkscape (http://www.inkscape.org/) -->
<svg
   xmlns:svg="http://www.w3.org/2000/svg"
   xmlns="http://www.w3.org/2000/svg"
   version="1.0"
   width="800"
   height="1100"
   id="svg2">
  <defs
     id="defs4" />
  <g
     id="layer1">
    <rect
       width="773.13971"
       height="773.13971"
       x="12.429657"
       y="12.004115"
       id="rect3308"
       style="opacity:1;fill:#fbd3a2;fill-opacity:1;fill-rule:nonzero;stroke:none;stroke-width:1;stroke-linecap:round;stroke-linejoin:miter;stroke-miterlimit:6;stroke-dasharray:none;stroke-opacity:1" />
    <text
       x="225.71429"
       y="652.7193"
       id="text2405"
       xml:space="preserve"
       style="font-size:18.01987267px;font-style:normal;font-variant:normal;font-weight:normal;font-stretch:normal;text-align:start;line-height:100%;writing-mode:lr-tb;text-anchor:start;fill:#000000;fill-opacity:1;stroke:none;stroke-width:1px;stroke-linecap:butt;stroke-linejoin:miter;stroke-opacity:1;font-family:Arial Black;-inkscape-font-specification:Arial Black"><tspan
         x="225.71429"
         y="652.7193"
         id="tspan2407" /></text>
    <text
       x="293.44931"
       y="642.24023"
       id="text3214"
       xml:space="preserve"
       style="font-size:18.01987267px;font-style:normal;font-variant:normal;font-weight:bold;font-stretch:normal;text-align:start;line-height:100%;writing-mode:lr-tb;text-anchor:start;fill:#000000;fill-opacity:1;stroke:none;stroke-width:1px;stroke-linecap:butt;stroke-linejoin:miter;stroke-opacity:1;font-family:DejaVu Sans;-inkscape-font-specification:DejaVu Sans Bold"><tspan
         x="293.44931"
         y="642.24023"
         id="tspan3216" /></text>
    <text
       x="197.48482"
       y="443.74527"
       id="text3222"
       xml:space="preserve"
       style="font-size:144px;font-style:normal;font-variant:normal;font-weight:bold;font-stretch:normal;text-align:start;line-height:100%;writing-mode:lr-tb;text-anchor:start;fill:#000000;fill-opacity:1;stroke:none;stroke-width:1px;stroke-linecap:butt;stroke-linejoin:miter;stroke-opacity:1;font-family:Frutiger Bold;-inkscape-font-specification:'Frutiger Bold, Bold'"><tspan
         x="197.48482"
         y="443.74527"
         id="tspan3224" /></text>
    <path
       d="M 229.14199,140.77358 L 229.14199,278.91814 L 238.81459,278.91814 C 253.69535,278.91832 265.84809,276.68618 275.27285,272.22172 C 284.69724,267.75764 292.67506,260.23451 299.20633,249.65233 C 305.73719,239.07056 309.99478,224.76835 311.97912,206.74567 L 320.65966,206.74567 L 320.65966,375.64413 L 311.97912,375.64413 C 308.83738,343.73293 300.28085,322.69299 286.30953,312.52422 C 272.33782,302.35575 256.50619,297.27144 238.81459,297.27128 L 229.14199,297.27128 L 229.14199,400.19765 C 229.14185,417.39342 230.09258,428.14074 231.99417,432.43965 C 233.89548,436.7386 237.6157,440.50016 243.15486,443.72435 C 248.69371,446.94856 256.1755,448.56065 265.60025,448.56064 L 276.76094,448.56064 L 276.76094,457.73721 L 100.91805,457.73721 L 100.91805,448.56064 L 112.07874,448.56064 C 121.83398,448.56065 129.68779,446.82455 135.6402,443.35232 C 139.93909,441.03753 143.24595,437.06929 145.56082,431.44759 C 147.37954,427.47937 148.28893,417.06273 148.28899,400.19765 L 148.28899,178.96795 C 148.28893,161.77251 147.37954,151.02519 145.56082,146.72595 C 143.74198,142.42734 140.06309,138.66577 134.52413,135.44125 C 128.98508,132.21738 121.5033,130.60528 112.07874,130.60495 L 100.91805,130.60495 L 100.91805,121.42839 L 384.64762,121.42839 L 384.64762,217.90636 L 374.47899,217.90636 C 372.1639,195.25455 366.25287,178.4722 356.7459,167.55924 C 347.23838,156.64687 333.47354,148.9584 315.45134,144.49381 C 305.53051,142.01398 287.17739,140.7739 260.39193,140.77358 L 229.14199,140.77358 z M 720.46042,121.42839 L 720.46042,212.45002 L 711.53187,212.45002 C 706.24056,191.45166 700.37087,176.36407 693.92277,167.18722 C 687.47409,158.01095 678.62822,150.69451 667.38513,145.23786 C 661.10181,142.26199 650.10648,140.7739 634.39909,140.77358 L 609.34954,140.77358 L 609.34954,400.19765 C 609.34933,417.39342 610.30005,428.14074 612.20171,432.43965 C 614.10295,436.7386 617.82318,440.50016 623.36241,443.72435 C 628.90119,446.94856 636.46565,448.56065 646.05581,448.56064 L 657.2165,448.56064 L 657.2165,457.73721 L 481.1256,457.73721 L 481.1256,448.56064 L 492.28629,448.56064 C 502.04146,448.56065 509.89527,446.82455 515.84775,443.35232 C 520.14656,441.03753 523.5361,437.06929 526.01638,431.44759 C 527.83503,427.47937 528.74442,417.06273 528.74455,400.19765 L 528.74455,140.77358 L 504.43904,140.77358 C 481.78689,140.7739 465.33522,145.56886 455.08398,155.15848 C 440.69905,168.55159 431.60517,187.64876 427.80229,212.45002 L 418.37771,212.45002 L 418.37771,121.42839 L 720.46042,121.42839 z"
       transform="scale(0.9715363,1.0292976)"
       id="text3298"
       style="font-size:507.93545532px;font-style:normal;font-variant:normal;font-weight:bold;font-stretch:normal;text-align:start;line-height:100%;writing-mode:lr-tb;text-anchor:start;fill:#394249;fill-opacity:1;stroke:none;stroke-width:1px;stroke-linecap:butt;stroke-linejoin:miter;stroke-opacity:1;font-family:Times New Roman;-inkscape-font-specification:Times New Roman Bold" />
    <path
       d="M 36.231586,875.75359 L 36.231586,912.30861 L 53.171717,912.30861 C 57.058067,912.30866 59.904281,911.45137 61.710366,909.73673 C 63.516343,908.0222 64.716553,904.62732 65.311001,899.55208 L 67.848592,899.55208 L 67.848592,931.03192 L 65.311001,931.03192 C 65.265221,927.41989 64.796567,924.76799 63.905039,923.07623 C 63.013398,921.38454 61.778895,920.11575 60.201529,919.26984 C 58.624056,918.42402 56.280788,918.00109 53.171717,918.00105 L 36.231586,918.00105 L 36.231586,947.21763 C 36.231558,951.92704 36.528753,955.03616 37.123172,956.54499 C 37.580366,957.68805 38.540534,958.67108 40.00368,959.49408 C 42.015429,960.59142 44.118655,961.14009 46.313365,961.14008 L 49.673957,961.14008 L 49.673957,963.67767 L 9.7583454,963.67767 L 9.7583454,961.14008 L 13.050355,961.14008 C 16.891023,961.14009 19.680083,960.01989 21.417545,957.77949 C 22.514866,956.31638 23.063534,952.79576 23.063549,947.21763 L 23.063549,887.13846 C 23.063534,882.42914 22.766339,879.32002 22.171964,877.8111 C 21.714726,876.66813 20.777419,875.6851 19.360039,874.86201 C 17.393968,873.76476 15.290742,873.21609 13.050355,873.216 L 9.7583454,873.216 L 9.7583454,870.67841 L 78.959123,870.67841 L 79.850709,891.1163 L 77.450285,891.1163 C 76.261435,886.77276 74.878336,883.58363 73.300982,881.5489 C 71.723497,879.51434 69.780299,878.0398 67.471382,877.12526 C 65.162346,876.2109 61.584576,875.75368 56.738061,875.75359 L 36.231586,875.75359 z M 129.0251,961.14008 L 129.0251,963.67767 L 89.178068,963.67767 L 89.178068,961.14008 L 92.470077,961.14008 C 96.310744,961.14009 99.099804,960.01989 100.83727,957.77949 C 101.93459,956.31638 102.48325,952.79576 102.48327,947.21763 L 102.48327,887.13846 C 102.48325,882.42914 102.18606,879.32002 101.59169,877.8111 C 101.13445,876.66813 100.19714,875.6851 98.779761,874.86201 C 96.767967,873.76476 94.664741,873.21609 92.470077,873.216 L 89.178068,873.216 L 89.178068,870.67841 L 129.0251,870.67841 L 129.0251,873.216 L 125.6645,873.216 C 121.86951,873.21609 119.10331,874.33629 117.3659,876.5766 C 116.22281,878.0398 115.65128,881.56041 115.65131,887.13846 L 115.65131,947.21763 C 115.65128,951.92704 115.94847,955.03616 116.54289,956.54499 C 117.00009,957.68805 117.96026,958.67108 119.4234,959.49408 C 121.38943,960.59142 123.46979,961.14009 125.6645,961.14008 L 129.0251,961.14008 z M 130.73969,870.67841 L 155.97842,870.67841 L 212.83417,940.42786 L 212.83417,886.79554 C 212.83409,881.08033 212.19397,877.51399 210.91383,876.09651 C 209.22202,874.17626 206.54727,873.21609 202.88955,873.216 L 199.66613,873.216 L 199.66613,870.67841 L 232.03755,870.67841 L 232.03755,873.216 L 228.74554,873.216 C 224.81333,873.21609 222.02427,874.40487 220.37835,876.78235 C 219.37238,878.24555 218.86943,881.58328 218.86952,886.79554 L 218.86952,965.18651 L 216.40051,965.18651 L 155.08684,890.2933 L 155.08684,947.56054 C 155.08681,953.27585 155.70407,956.84219 156.93859,958.25957 C 158.67602,960.17992 161.35077,961.14009 164.96286,961.14008 L 168.25487,961.14008 L 168.25487,963.67767 L 135.88345,963.67767 L 135.88345,961.14008 L 139.10688,961.14008 C 143.08471,961.14009 145.89663,959.95131 147.54265,957.57374 C 148.54853,956.11063 149.05147,952.7729 149.05149,947.56054 L 149.05149,882.88628 C 146.35385,879.73152 144.30778,877.65116 142.91326,876.64518 C 141.51872,875.63938 139.47265,874.70207 136.77504,873.83325 C 135.44908,873.42184 133.4373,873.21609 130.73969,873.216 L 130.73969,870.67841 z M 298.35783,932.54075 L 262.35148,932.54075 L 256.04179,947.21763 C 254.48721,950.82971 253.70993,953.52732 253.70995,955.31048 C 253.70993,956.72788 254.38434,957.97382 255.73317,959.04829 C 257.08195,960.12276 259.99675,960.82003 264.47757,961.14008 L 264.47757,963.67767 L 235.1924,963.67767 L 235.1924,961.14008 C 239.0788,960.45425 241.59352,959.56267 242.73659,958.46533 C 245.06842,956.27066 247.65173,951.81274 250.48653,945.09154 L 283.20087,868.55232 L 285.60129,868.55232 L 317.97272,945.91454 C 320.5788,952.13279 322.94493,956.16778 325.07111,958.01953 C 327.19711,959.87129 330.15763,960.91147 333.95268,961.14008 L 333.95268,963.67767 L 297.26049,963.67767 L 297.26049,961.14008 C 300.96394,960.9572 303.46723,960.33995 304.77039,959.28833 C 306.0734,958.23672 306.72495,956.95649 306.72502,955.44765 C 306.72495,953.43588 305.8105,950.25818 303.98168,945.91454 L 298.35783,932.54075 z M 296.43749,927.46557 L 280.66328,889.8818 L 264.47757,927.46557 L 296.43749,927.46557 z M 333.74691,870.67841 L 358.98565,870.67841 L 415.84139,940.42786 L 415.84139,886.79554 C 415.84131,881.08033 415.2012,877.51399 413.92105,876.09651 C 412.22925,874.17626 409.55449,873.21609 405.89678,873.216 L 402.67335,873.216 L 402.67335,870.67841 L 435.04478,870.67841 L 435.04478,873.216 L 431.75277,873.216 C 427.82055,873.21609 425.03149,874.40487 423.38558,876.78235 C 422.3796,878.24555 421.87665,881.58328 421.87674,886.79554 L 421.87674,965.18651 L 419.40773,965.18651 L 358.09406,890.2933 L 358.09406,947.56054 C 358.09404,953.27585 358.71129,956.84219 359.94582,958.25957 C 361.68324,960.17992 364.358,961.14009 367.97009,961.14008 L 371.2621,961.14008 L 371.2621,963.67767 L 338.89067,963.67767 L 338.89067,961.14008 L 342.1141,961.14008 C 346.09193,961.14009 348.90386,959.95131 350.54987,957.57374 C 351.55575,956.11063 352.0587,952.7729 352.05871,947.56054 L 352.05871,882.88628 C 349.36108,879.73152 347.31501,877.65116 345.92049,876.64518 C 344.52595,875.63938 342.47987,874.70207 339.78226,873.83325 C 338.45631,873.42184 336.44453,873.21609 333.74691,873.216 L 333.74691,870.67841 z M 521.66578,868.55232 L 523.79187,900.16933 L 521.66578,900.16933 C 518.83092,890.70487 514.78449,883.89225 509.5265,879.73144 C 504.26836,875.57079 497.95868,873.49043 490.59745,873.49034 C 484.42488,873.49043 478.84676,875.05642 473.86307,878.18831 C 468.8793,881.32037 464.95861,886.31553 462.10099,893.17381 C 459.24332,900.03223 457.8145,908.55943 457.81452,918.75546 C 457.8145,927.16841 459.16331,934.46112 461.86095,940.63361 C 464.55854,946.80614 468.6164,951.5384 474.03453,954.8304 C 479.45258,958.12241 485.63652,959.76842 492.58637,959.76841 C 498.62166,959.76842 503.94831,958.47676 508.56633,955.89344 C 513.18421,953.31014 518.25939,948.17781 523.79187,940.49644 L 525.91796,941.86811 C 521.2542,950.14387 515.81324,956.20208 509.59508,960.04275 C 503.37678,963.88342 495.99263,965.80376 487.44261,965.80376 C 472.03414,965.80376 460.10062,960.08847 451.642,948.65788 C 445.33231,940.15355 442.17747,930.14036 442.17748,918.6183 C 442.17747,909.33671 444.25784,900.8095 448.41858,893.03664 C 452.5793,885.26392 458.30602,879.24001 465.59875,874.96488 C 472.89143,870.68994 480.85854,868.55242 489.50011,868.55232 C 496.22124,868.55242 502.85097,870.19842 509.38933,873.49034 C 511.3096,874.49632 512.68127,874.99926 513.50434,874.99917 C 514.73877,874.99926 515.81324,874.5649 516.72777,873.69609 C 517.91647,872.46168 518.76233,870.74709 519.26536,868.55232 L 521.66578,868.55232 z M 574.26932,961.14008 L 574.26932,963.67767 L 534.42229,963.67767 L 534.42229,961.14008 L 537.7143,961.14008 C 541.55497,961.14009 544.34403,960.01989 546.08149,957.77949 C 547.17881,956.31638 547.72748,952.79576 547.7275,947.21763 L 547.7275,887.13846 C 547.72748,882.42914 547.43028,879.32002 546.83591,877.8111 C 546.37867,876.66813 545.44136,875.6851 544.02399,874.86201 C 542.01219,873.76476 539.90897,873.21609 537.7143,873.216 L 534.42229,873.216 L 534.42229,870.67841 L 574.26932,870.67841 L 574.26932,873.216 L 570.90873,873.216 C 567.11374,873.21609 564.34754,874.33629 562.61012,876.5766 C 561.46703,878.0398 560.8955,881.56041 560.89553,887.13846 L 560.89553,947.21763 C 560.8955,951.92704 561.1927,955.03616 561.78712,956.54499 C 562.24431,957.68805 563.20448,958.67108 564.66763,959.49408 C 566.63365,960.59142 568.71402,961.14009 570.90873,961.14008 L 574.26932,961.14008 z M 642.09843,932.54075 L 606.09208,932.54075 L 599.78239,947.21763 C 598.22781,950.82971 597.45053,953.52732 597.45055,955.31048 C 597.45053,956.72788 598.12494,957.97382 599.47377,959.04829 C 600.82255,960.12276 603.73735,960.82003 608.21817,961.14008 L 608.21817,963.67767 L 578.933,963.67767 L 578.933,961.14008 C 582.8194,960.45425 585.33412,959.56267 586.47719,958.46533 C 588.80902,956.27066 591.39233,951.81274 594.22713,945.09154 L 626.94147,868.55232 L 629.34189,868.55232 L 661.71332,945.91454 C 664.3194,952.13279 666.68553,956.16778 668.81171,958.01953 C 670.93771,959.87129 673.89823,960.91147 677.69328,961.14008 L 677.69328,963.67767 L 641.00109,963.67767 L 641.00109,961.14008 C 644.70454,960.9572 647.20783,960.33995 648.51099,959.28833 C 649.814,958.23672 650.46555,956.95649 650.46562,955.44765 C 650.46555,953.43588 649.5511,950.25818 647.72228,945.91454 L 642.09843,932.54075 z M 640.17809,927.46557 L 624.40388,889.8818 L 608.21817,927.46557 L 640.17809,927.46557 z M 759.85639,937.95885 L 762.11964,938.43894 L 754.16395,963.67767 L 682.15125,963.67767 L 682.15125,961.14008 L 685.64901,961.14008 C 689.58112,961.14009 692.39305,959.85986 694.08479,957.29941 C 695.04494,955.8363 695.52502,952.45285 695.52504,947.14904 L 695.52504,887.13846 C 695.52502,881.3318 694.88491,877.69688 693.6047,876.23368 C 691.82152,874.22198 689.16962,873.21609 685.64901,873.216 L 682.15125,873.216 L 682.15125,870.67841 L 724.26154,870.67841 L 724.26154,873.216 C 719.32348,873.17037 715.86002,873.62759 713.87113,874.58767 C 711.88218,875.54793 710.52194,876.75957 709.79041,878.2226 C 709.05883,879.6858 708.69305,883.18356 708.69308,888.71588 L 708.69308,947.14904 C 708.69305,950.94401 709.05883,953.55018 709.79041,954.96757 C 710.33905,955.92774 711.18491,956.63644 712.328,957.09365 C 713.47103,957.55088 717.03737,957.7795 723.02703,957.77949 L 729.8168,957.77949 C 736.94943,957.7795 741.95602,957.25369 744.83659,956.20207 C 747.71703,955.15046 750.34607,953.28728 752.7237,950.61251 C 755.10119,947.93777 757.47875,943.71989 759.85639,937.95885 L 759.85639,937.95885 z M 88.766567,1011.1375 L 89.79532,1032.947 L 87.189146,1032.947 C 86.686121,1029.1064 86.000286,1026.3631 85.13164,1024.717 C 83.714171,1022.0652 81.828126,1020.1106 79.473499,1018.8531 C 77.118729,1017.5958 74.021042,1016.9671 70.180432,1016.9671 L 57.080978,1016.9671 L 57.080978,1088.0196 C 57.080929,1093.7349 57.69818,1097.3012 58.932733,1098.7186 C 60.670129,1100.639 63.344884,1101.5991 66.957006,1101.5991 L 70.180432,1101.5991 L 70.180432,1104.1367 L 30.744904,1104.1367 L 30.744904,1101.5991 L 34.036914,1101.5991 C 37.969005,1101.5991 40.758066,1100.4104 42.404104,1098.0328 C 43.409959,1096.5697 43.912905,1093.2319 43.912941,1088.0196 L 43.912941,1016.9671 L 32.733827,1016.9671 C 28.390182,1016.9671 25.303927,1017.2872 23.475051,1017.9272 C 21.097475,1018.796 19.062832,1020.4649 17.371117,1022.9338 C 15.679382,1025.4029 14.673491,1028.7406 14.353442,1032.947 L 11.747268,1032.947 L 12.844604,1011.1375 L 88.766567,1011.1375 z M 136.70645,1101.5991 L 136.70645,1104.1367 L 96.859426,1104.1367 L 96.859426,1101.5991 L 100.15144,1101.5991 C 103.9921,1101.5991 106.78116,1100.4789 108.51863,1098.2385 C 109.61595,1096.7754 110.16461,1093.2548 110.16463,1087.6767 L 110.16463,1027.5975 C 110.16461,1022.8882 109.86742,1019.7791 109.27304,1018.2701 C 108.81581,1017.1272 107.8785,1016.1441 106.46112,1015.3211 C 104.44933,1014.2238 102.3461,1013.6751 100.15144,1013.675 L 96.859426,1013.675 L 96.859426,1011.1375 L 136.70645,1011.1375 L 136.70645,1013.675 L 133.34586,1013.675 C 129.55087,1013.6751 126.78467,1014.7953 125.04726,1017.0356 C 123.90417,1018.4988 123.33264,1022.0195 123.33267,1027.5975 L 123.33267,1087.6767 C 123.33264,1092.3861 123.62983,1095.4952 124.22425,1097.004 C 124.68144,1098.1471 125.64161,1099.1301 127.10476,1099.9531 C 129.07079,1101.0505 131.15115,1101.5991 133.34586,1101.5991 L 136.70645,1101.5991 z M 197.74579,1104.1367 L 161.80803,1025.8829 L 161.80803,1088.0196 C 161.808,1093.7349 162.42526,1097.3012 163.65978,1098.7186 C 165.35148,1100.639 168.02624,1101.5991 171.68405,1101.5991 L 174.97606,1101.5991 L 174.97606,1104.1367 L 142.60464,1104.1367 L 142.60464,1101.5991 L 145.89665,1101.5991 C 149.82876,1101.5991 152.61782,1100.4104 154.26384,1098.0328 C 155.26971,1096.5697 155.77266,1093.2319 155.77268,1088.0196 L 155.77268,1027.2546 C 155.77266,1023.1397 155.31544,1020.1677 154.40101,1018.3387 C 153.76088,1017.0129 152.58353,1015.9041 150.86895,1015.0124 C 149.15436,1014.1209 146.39959,1013.6751 142.60464,1013.675 L 142.60464,1011.1375 L 168.94071,1011.1375 L 202.68381,1083.9046 L 235.87823,1011.1375 L 262.21431,1011.1375 L 262.21431,1013.675 L 258.99088,1013.675 C 255.01292,1013.6751 252.201,1014.8639 250.55511,1017.2414 C 249.54911,1018.7046 249.04616,1022.0423 249.04627,1027.2546 L 249.04627,1088.0196 C 249.04616,1093.7349 249.68627,1097.3012 250.96661,1098.7186 C 252.65822,1100.639 255.33298,1101.5991 258.99088,1101.5991 L 262.21431,1101.5991 L 262.21431,1104.1367 L 222.7102,1104.1367 L 222.7102,1101.5991 L 226.00221,1101.5991 C 229.97996,1101.5991 232.76902,1100.4104 234.3694,1098.0328 C 235.37519,1096.5697 235.87814,1093.2319 235.87823,1088.0196 L 235.87823,1025.8829 L 200.00905,1104.1367 L 197.74579,1104.1367 z M 294.44857,1016.2126 L 294.44857,1052.9734 L 314.88646,1052.9734 C 320.1902,1052.9735 323.73368,1052.1733 325.51691,1050.573 C 327.89441,1048.4698 329.22035,1044.7663 329.49475,1039.4625 L 332.03234,1039.4625 L 332.03234,1071.8339 L 329.49475,1071.8339 C 328.85457,1067.3074 328.21446,1064.404 327.57441,1063.1238 C 326.75135,1061.5235 325.40254,1060.2662 323.52798,1059.3517 C 321.65331,1058.4373 318.77281,1057.9801 314.88646,1057.98 L 294.44857,1057.98 L 294.44857,1088.6368 C 294.44854,1092.7519 294.63143,1095.2552 294.99724,1096.1467 C 295.36299,1097.0383 296.0031,1097.747 296.91758,1098.2728 C 297.83199,1098.7986 299.56944,1099.0615 302.12992,1099.0615 L 317.90414,1099.0615 C 323.16215,1099.0615 326.97996,1098.6958 329.35758,1097.9642 C 331.73508,1097.2327 334.02119,1095.7924 336.21594,1093.6434 C 339.05065,1090.8087 341.95401,1086.5336 344.92604,1080.8183 L 347.66939,1080.8183 L 339.64511,1104.1367 L 267.97533,1104.1367 L 267.97533,1101.5991 L 271.26734,1101.5991 C 273.462,1101.5991 275.54237,1101.0733 277.50844,1100.0217 C 278.97154,1099.2902 279.966,1098.1928 280.49182,1096.7297 C 281.01761,1095.2666 281.28052,1092.2718 281.28053,1087.7453 L 281.28053,1027.3232 C 281.28052,1021.4251 280.68613,1017.7901 279.49736,1016.4184 C 277.85134,1014.5896 275.10801,1013.6751 271.26734,1013.675 L 267.97533,1013.675 L 267.97533,1011.1375 L 339.64511,1011.1375 L 340.67387,1031.5068 L 337.99911,1031.5068 C 337.03887,1026.6146 335.97582,1023.254 334.80997,1021.425 C 333.64399,1019.5962 331.91797,1018.2016 329.63192,1017.2414 C 327.80296,1016.5556 324.57954,1016.2127 319.96164,1016.2126 L 294.44857,1016.2126 z M 415.36133,1009.0114 L 415.36133,1041.177 L 412.82374,1041.177 C 412.00067,1035.0046 410.52613,1030.0894 408.4001,1026.4316 C 406.27396,1022.7739 403.24485,1019.8705 399.31278,1017.7215 C 395.38062,1015.5726 391.31133,1014.4981 387.10492,1014.4981 C 382.34976,1014.4981 378.41764,1015.9498 375.30855,1018.8531 C 372.19941,1021.7566 370.64485,1025.06 370.64487,1028.7634 C 370.64485,1031.5983 371.62788,1034.1816 373.59396,1036.5134 C 376.42872,1039.9426 383.17276,1044.5148 393.8261,1050.2301 C 402.5133,1054.8938 408.44577,1058.4716 411.62353,1060.9634 C 414.80117,1063.4553 417.24731,1066.393 418.96196,1069.7764 C 420.67648,1073.1599 421.53378,1076.7033 421.53385,1080.4068 C 421.53378,1087.4481 418.80187,1093.5177 413.33811,1098.6157 C 407.87424,1103.7138 400.84443,1106.2628 392.24868,1106.2628 C 389.55102,1106.2628 387.01343,1106.0571 384.63591,1105.6456 C 383.21848,1105.4169 380.28083,1104.5825 375.82293,1103.1423 C 371.36498,1101.702 368.54162,1100.9819 367.35286,1100.9819 C 366.20979,1100.9819 365.30677,1101.3248 364.64381,1102.0106 C 363.98082,1102.6965 363.48931,1104.1139 363.16927,1106.2628 L 360.63167,1106.2628 L 360.63167,1074.3715 L 363.16927,1074.3715 C 364.35803,1081.047 365.95831,1086.0421 367.97011,1089.357 C 369.98188,1092.6719 373.0567,1095.4266 377.1946,1097.6213 C 381.33244,1099.816 385.87038,1100.9133 390.80843,1100.9133 C 396.52367,1100.9133 401.03875,1099.4045 404.35367,1096.3868 C 407.66849,1093.3691 409.32592,1089.8028 409.32598,1085.6878 C 409.32592,1083.4017 408.69724,1081.0927 407.43993,1078.7608 C 406.18251,1076.429 404.22788,1074.2572 401.57604,1072.2454 C 399.79282,1070.8737 394.92339,1067.9589 386.96775,1063.501 C 379.01203,1059.0431 373.3539,1055.4882 369.99333,1052.8362 C 366.63272,1050.1844 364.0837,1047.2582 362.34626,1044.0576 C 360.6088,1040.857 359.74008,1037.3364 359.74009,1033.4957 C 359.74008,1026.8203 362.30053,1021.0707 367.42144,1016.2469 C 372.54233,1011.4233 379.05775,1009.0115 386.96775,1009.0114 C 391.90572,1009.0115 397.14093,1010.2231 402.67338,1012.6463 C 405.23377,1013.7894 407.0398,1014.361 408.09147,1014.3609 C 409.2802,1014.361 410.2518,1014.0066 411.00627,1013.2978 C 411.76063,1012.5892 412.36645,1011.1604 412.82374,1009.0114 L 415.36133,1009.0114 z"
       transform="scale(1.0338408,0.9672669)"
       id="text3302"
       style="font-size:140.45906067px;font-style:normal;font-variant:normal;font-weight:normal;font-stretch:normal;text-align:start;line-height:100%;writing-mode:lr-tb;text-anchor:start;fill:#394249;fill-opacity:1;stroke:none;stroke-width:1px;stroke-linecap:butt;stroke-linejoin:miter;stroke-opacity:1;font-family:Times New Roman;-inkscape-font-specification:Times New Roman" />
  </g>
</svg>
