<svg width="1440" height="636" viewBox="0 0 1440 636" fill="none" xmlns="http://www.w3.org/2000/svg">
<path d="M824.495 603.65L854.373 604.505C854.373 604.505 860.187 598.832 858.78 593.713C857.374 588.594 851.149 595.412 849.207 597.468C847.265 599.525 849.02 587.208 844.725 583.453C840.43 579.698 838.774 588.641 838.812 594.291C838.849 599.941 834.367 590.432 830.097 584.562C825.827 578.692 822.541 581.766 823.686 585.717C824.831 589.669 828.827 595.735 827.794 597.526C826.761 599.317 821.794 593.239 819.08 595.215C816.366 597.191 817.548 600.588 824.495 603.65Z" fill="#71CDDF"/>
<path d="M1408.5 437.355L1378.63 438.21C1378.63 438.21 1372.81 432.537 1374.22 427.418C1375.63 422.3 1381.85 429.117 1383.79 431.173C1385.74 433.23 1383.98 420.913 1388.27 417.158C1392.57 413.403 1394.23 422.346 1394.19 427.996C1394.15 433.646 1398.63 424.137 1402.9 418.267C1407.17 412.397 1410.46 415.471 1409.31 419.422C1408.17 423.374 1404.17 429.44 1405.21 431.231C1406.24 433.022 1411.21 426.944 1413.92 428.92C1416.63 430.896 1415.45 434.293 1408.5 437.355Z" fill="#71CDDF"/>
<path d="M433.763 540.213L463.641 541.068C463.641 541.068 469.455 535.383 468.048 530.276C466.641 525.169 460.417 531.974 458.475 534.019C456.532 536.064 458.288 523.771 453.993 520.004C449.698 516.237 448.042 525.203 448.079 530.853C448.117 536.504 443.635 526.994 439.365 521.125C435.095 515.255 431.808 518.317 432.954 522.28C434.099 526.243 438.095 532.286 437.062 534.077C436.028 535.868 431.061 529.79 428.347 531.766C425.633 533.742 426.816 537.139 433.763 540.213Z" fill="#71CDDF"/>
<path d="M445.901 498.57H445.166V538.999H445.901V498.57Z" fill="#71CDDF"/>
<path d="M445.54 519.126C445.54 519.126 443.162 510.737 439.975 512.944C436.788 515.151 445.54 519.126 445.54 519.126Z" fill="#71CDDF"/>
<path d="M445.54 519.126C445.54 519.126 447.905 510.737 451.092 512.944C454.279 515.151 445.54 519.126 445.54 519.126Z" fill="#71CDDF"/>
<path d="M446.199 499.183C447.744 499.562 449.333 499.767 450.93 499.795C452.474 499.795 455.263 498.513 455.312 496.04C455.362 493.567 455.038 491.418 456.259 490.413C457.178 489.46 457.736 488.254 457.846 486.979C457.957 485.703 457.613 484.43 456.869 483.353C454.864 480.615 452.474 480.927 451.316 480.21C450.158 479.494 448.428 474.918 444.257 474.918C440.087 474.918 439.203 478.893 438.755 480.083C438.307 481.273 433.252 481.678 432.207 485.86C431.161 490.043 435.257 492.042 435.257 492.793C435.257 493.544 433.427 497.842 437.647 499.726C441.867 501.609 444.12 498.986 446.199 499.183Z" fill="#F05553"/>
<path d="M444.955 492.019C446.887 492.019 448.453 490.565 448.453 488.772C448.453 486.979 446.887 485.525 444.955 485.525C443.023 485.525 441.456 486.979 441.456 488.772C441.456 490.565 443.023 492.019 444.955 492.019Z" fill="white"/>
<path opacity="0.3" fill-rule="evenodd" clip-rule="evenodd" d="M-8 564.113H61C130 564.113 268 564.113 406 540.15C544 516.188 682 468.263 820 444.3C958 420.337 1096 420.337 1234 426.328C1372 432.319 1510 444.3 1579 450.291L1648 456.281V636H1579C1510 636 1372 636 1234 636C1096 636 958 636 820 636C682 636 544 636 406 636C268 636 130 636 61 636H-8V564.113Z" fill="#43C4D9"/>
<path d="M1079.2 183.645C1081.19 184.505 1083.35 184.949 1085.53 184.949C1087.7 184.949 1089.86 184.505 1091.86 183.645C1099.36 180.823 1117.72 164.27 1117.72 164.27L1122.89 169.354C1122.89 169.354 1103.4 196.309 1091.86 200.271C1080.32 204.232 1068.74 196.164 1068.74 196.164C1068.74 196.164 1078.09 185.925 1079.2 183.645Z" fill="#FAB085"/>
<path d="M1056.95 230.319L1063.79 449.777L1057.71 448.691C1057.71 448.691 1036.28 400.86 1035.75 384.56C1035.23 368.26 1037.14 357.514 1035.75 349.157C1034.36 340.799 1020.96 271.548 1020.96 271.548L1029.22 225.344L1056.95 230.319Z" fill="#2A4C90"/>
<path d="M1033.36 271.548L1008.3 448.836L1003.09 449.957C1003.09 449.957 990.046 396.355 990.425 376.98C990.805 357.605 998.456 343.078 998.004 331.753C997.552 320.429 988.255 260.748 998.112 227.063C1007.97 193.378 1032.48 228.166 1032.48 228.166L1033.36 271.548Z" fill="#355BA9"/>
<path d="M1021.34 43.7144C1021.34 43.7144 1003.99 39.3003 993.826 54.2974C983.661 69.2945 978.289 79.3348 962.337 77.8152C946.384 76.2956 934.519 92.6495 945.878 104.951C957.236 117.253 972.248 109.546 979.013 113.056C985.777 116.565 982.974 126.208 1018.21 120.889C1053.44 115.57 1056.66 78.4303 1050 57.5718C1043.35 36.7133 1023.27 41.9053 1021.34 43.7144Z" fill="#4C266E"/>
<path d="M1032.78 125.014C1032.78 125.014 1042.39 125.249 1051.21 134.457C1060.04 143.666 1070.44 166.858 1079.63 176.536C1074.53 181.216 1069.84 186.318 1065.59 191.787L1056.04 180.787C1056.04 180.787 1054.96 183.248 1052.06 188.585C1049.17 193.921 1049.3 196.327 1049.71 201.682C1050.13 207.037 1058.18 232.436 1058.18 232.436C1058.18 232.436 1047.47 236.054 1029.08 236.507C1017.31 236.614 1005.63 234.414 994.712 230.03C994.712 230.03 1007.95 206.259 1008.44 195.369C1008.93 184.478 1006.63 182.705 1006.63 182.705C1006.63 182.705 995.779 166.026 993.12 152.711C989.901 135.633 1004.04 124.761 1019.4 125.014H1032.78Z" fill="#F05553"/>
<path d="M1045.52 72.2618C1048.05 88.9594 1041.9 106.399 1031.39 107.991C1020.88 109.583 1009.85 94.7484 1007.32 77.9784C1004.79 61.2084 1011.7 49.0334 1022.24 47.4595C1032.78 45.8857 1042.99 55.5822 1045.52 72.2618Z" fill="#FCCAA6"/>
<path d="M1032.78 103.233V124.996H1019.4V101.044L1032.78 103.233Z" fill="#FCCAA6"/>
<path d="M1029.33 176.518C1029.33 176.518 1020.96 164.306 1017.1 158.264C1014.62 154.043 1012.59 149.567 1011.06 144.913C1011.06 144.913 1017.95 156.654 1021.59 161.738C1025.22 166.821 1034.45 175.07 1047.04 175.161C1055.19 175.161 1058.41 172.61 1059.7 167.653C1060.66 171.886 1054.76 185.201 1052.93 186.956C1051.11 188.711 1047.81 188.403 1046.22 189.073C1042.61 190.574 1042.61 193.071 1042.61 193.071L1029.33 176.518Z" fill="#C2394E"/>
<path d="M1057.85 172.574C1058.88 171.141 1059.49 169.455 1059.63 167.698C1059.77 165.941 1059.42 164.18 1058.63 162.606C1055.86 157.179 1048.61 142.706 1048.61 142.706C1048.61 142.706 1055.41 154.501 1059.68 161.937C1063.95 169.372 1061.05 186.594 1061.05 186.594L1055.19 180.172L1057.85 172.574Z" fill="#C2394E"/>
<path d="M1027.68 209.461C1027.68 209.461 1020.97 205.246 1015.66 205.191C1010.34 205.137 1004.55 209.714 1004.55 209.714C1004.55 209.714 1008.6 197.792 1008.58 191.28C1010.75 190.972 1025.21 205.047 1027.99 209.714L1027.68 209.461Z" fill="#C2394E"/>
<path d="M1036.2 54.6596C1036.2 54.6596 1041.9 58.4044 1044.97 69.3311C1048.59 57.7531 1038.73 48.3098 1033.31 49.4314C1027.88 50.553 1036.2 54.6596 1036.2 54.6596Z" fill="#4C266E"/>
<path d="M1032.78 107.683C1030.11 107.646 1027.47 107.074 1025.03 106C1021.95 104.372 1019.6 99.1079 1019.6 99.1079L1019.15 104.191L1019.42 113.454L1032.8 109.836L1032.78 107.683Z" fill="#FAB085"/>
<path d="M1036.2 54.6594C1036.2 54.6594 1037.18 62.9992 1027.58 67.7209C1017.97 72.4425 1013.11 74.6134 1012.87 80.9632C1012.64 87.313 1019.58 88.7783 1021.23 97.1181C1022.87 105.458 1018.13 109.275 1018.13 109.275C1018.13 109.275 1000.72 94.5854 1003.09 70.9953C1005.46 47.4051 1029.06 35.0673 1036.2 54.6594Z" fill="#4C266E"/>
<path d="M1002.51 447.316L999.451 433.984L1010.47 433.694L1009.13 443.065L1008.66 446.593L1004.88 447.714L1002.51 447.316Z" fill="#FCCAA6"/>
<path d="M1001.06 444.078C1001.06 444.078 998.275 448.257 999.252 451.622C1000.23 454.986 1001.24 457.989 1001.24 457.989H1003.05V452.2C1003.92 453.196 1004.72 454.248 1005.46 455.348C1005.83 456.136 1006.43 456.801 1007.17 457.268C1007.9 457.735 1008.76 457.985 1009.63 457.989H1019.15C1019.15 457.989 1020.54 455.023 1019.15 454.263C1017.75 453.503 1012.6 450.735 1011.5 448.836C1010.39 446.936 1012.45 441.816 1010.99 441.599C1009.52 441.382 1005.56 440.876 1005.18 441.599C1004.84 442.445 1004.54 443.309 1004.28 444.186L1001.06 444.078Z" fill="#322875"/>
<path d="M1052.23 435.919L1063.3 434.02L1063.59 443.481L1061.29 447.551L1056.51 446.068L1052.23 435.919Z" fill="#FAB085"/>
<path d="M1055.56 444.367C1054.56 446.644 1054.31 449.175 1054.83 451.603C1055.85 454.968 1056.8 457.971 1056.8 457.971H1058.61V452.182C1059.48 453.181 1060.29 454.232 1061.04 455.33C1061.41 456.117 1062 456.783 1062.74 457.25C1063.47 457.717 1064.32 457.967 1065.2 457.971H1074.56C1074.56 457.971 1075.96 455.004 1074.56 454.245C1073.17 453.485 1068.02 450.717 1066.91 448.817C1065.81 446.918 1065.11 440.839 1063.62 440.586C1062.14 440.333 1058.9 440.803 1058.58 441.473C1058.35 442.143 1058.24 442.846 1058.25 443.553L1055.56 444.367Z" fill="#322875"/>
<path d="M1019.4 125.014C1019.4 125.014 1027.59 140.264 1033.87 143.285C1040.15 146.306 1043.65 144.497 1041.1 137.858C1039.01 133.174 1036.2 128.842 1032.78 125.014C1028.47 123.371 1023.71 123.371 1019.4 125.014Z" fill="#FCCAA6"/>
<path d="M1006.79 182.904C1006.79 182.904 1020.41 199.855 1030.31 206.784C1030.84 206.382 1031.4 206.019 1031.99 205.698C1035.79 208.111 1040.03 209.735 1044.47 210.474C1036.98 212.283 1031.37 211.433 1027.67 209.461C1023.96 207.489 1008.57 191.28 1008.57 191.28C1008.64 188.388 1008.03 185.519 1006.79 182.904Z" fill="#C2394E"/>
<path d="M1275.83 410.845C1275.65 405.038 1275.69 399.484 1275.83 394.274L1268.6 223.951L1285.56 222.016V222.576L1315.21 221.201L1315.77 269.467C1316.35 265.433 1305.37 322.889 1300.99 360.373C1300.41 365.384 1302.19 383.438 1301.14 400.697C1300.09 417.955 1290.83 451.151 1290.83 451.151L1277.73 451.929C1277.73 451.929 1276.49 431.885 1275.83 410.845Z" fill="#2A4C90"/>
<path d="M1344.04 221.744C1344.04 221.744 1347.49 237.266 1349.47 276.016C1351.27 313.084 1347.53 350.296 1348.07 359.667H1323L1301.79 269.214L1297.09 221.437L1344.04 221.744Z" fill="#335AA9"/>
<path d="M1290.74 449.451C1290.74 449.451 1293.31 457.791 1290.74 457.935C1288.17 458.08 1268.29 457.935 1268.29 457.935C1268.29 457.935 1263.43 456.126 1265.25 453.72C1267.08 451.314 1277.64 451.278 1277.41 449.252C1278.51 447.389 1290.74 449.451 1290.74 449.451Z" fill="#322875"/>
<path d="M1348.78 448.474C1348.78 448.474 1351.36 457.791 1348.78 457.936C1346.19 458.08 1326.33 457.936 1326.33 457.936C1326.33 457.936 1321.47 456.127 1323.29 453.72C1325.12 451.314 1335.95 450.5 1335.76 448.474C1336.88 446.611 1348.78 448.474 1348.78 448.474Z" fill="#322875"/>
<path d="M1323 359.722L1335.47 448.474H1349.94C1349.94 448.474 1354.76 414.772 1352.3 396.012C1349.85 377.252 1348.04 366.397 1348.04 359.83C1348.04 353.263 1323 359.722 1323 359.722Z" fill="#335AA9"/>
<path d="M1295.01 100.519C1295.01 100.519 1314.2 97.4073 1321.38 104.662C1328.56 111.916 1345.83 176.717 1355 238.044C1323.49 262.719 1264.08 255.266 1264.08 255.266C1264.08 255.266 1252.65 138.853 1255.85 125.014C1259.05 111.174 1267.66 107.176 1267.66 107.176L1295.01 100.519Z" fill="#F6E4E7"/>
<path d="M1261.51 112.531C1261.51 112.531 1256.34 117.524 1252.36 132.684C1248.38 147.844 1247.31 183.917 1234.85 186.956C1218.57 190.936 1199.18 167.472 1199.18 167.472L1193.34 179.448C1193.34 179.448 1213.78 226.231 1251.56 210.908C1279.78 199.511 1261.51 112.531 1261.51 112.531Z" fill="#F6E4E7"/>
<path d="M1259.5 204.341L1255.29 131.689C1255.29 131.689 1253.48 173.298 1250.66 193.198C1247.84 213.097 1222.1 210.872 1214.38 206.223C1221.41 211.397 1243.1 222.703 1259.5 204.341Z" fill="#D4C1DA"/>
<path d="M1330.35 122.481L1323.76 139.993L1345.47 244.14L1354.95 238.044C1354.95 238.044 1337.94 145.637 1330.35 122.481Z" fill="#D4C1DA"/>
<path d="M1289.11 56.3781C1289.31 75.12 1279.89 93.3192 1268.06 93.4458C1256.23 93.5724 1246.35 75.5542 1246.23 56.8123C1246.1 38.0704 1255.5 25.7146 1267.35 25.5156C1279.2 25.3166 1288.93 37.6363 1289.11 56.3781Z" fill="#AA633F"/>
<path d="M1275.42 37.9982C1275.5 41.873 1276.26 45.7042 1277.64 49.3229C1279.76 53.8999 1283.07 56.921 1283.07 60.7381C1283.07 64.5552 1279.83 73.7091 1284.99 75.3011C1290.14 76.893 1295.51 70.2719 1295.66 63.2889C1295.8 56.3059 1298.62 42.4304 1296.25 34.9952C1291.95 21.4091 1279.2 16.597 1267.32 17.7367C1255.43 18.8764 1248.65 14.5709 1241.72 19.5458C1234.8 24.5207 1234.72 28.0665 1235.32 32.8424C1236.44 41.7249 1242.08 44.0405 1240.4 50.3903C1238.72 56.7401 1235.93 72.2257 1249.19 74.2156C1245.48 58.115 1244.62 46.1752 1251.34 42.5932C1258.07 39.0113 1262.5 47.2244 1275.42 37.9982Z" fill="#B3B4B4"/>
<path d="M1268.18 91.7991C1269.4 95.3522 1270.39 98.9773 1271.15 102.653C1271.35 105.078 1267.95 107.158 1267.95 107.158C1267.95 107.158 1264.44 130.115 1277.68 123.078C1290.92 116.04 1295.01 100.519 1295.01 100.519C1295.01 100.519 1289.91 96.9006 1288.77 93.7167C1286.96 88.6332 1284.48 77.9417 1284.48 77.9417L1268.18 91.7991Z" fill="#AA633F"/>
<path d="M1268.74 93.4274C1271.81 93.1545 1274.64 91.6777 1276.61 89.3209C1280.07 85.2867 1283.85 74.8484 1283.85 74.8484L1285.91 75.5539C1285.91 75.5539 1284.35 80.0404 1288.24 92.541C1284.97 99.5783 1269.34 95.6345 1269.34 95.6345L1268.74 93.4274Z" fill="#934624"/>
<path d="M1157.73 222.739C1196.6 222.739 1228.12 191.216 1228.12 152.331C1228.12 113.445 1196.6 81.9221 1157.73 81.9221C1118.85 81.9221 1087.33 113.445 1087.33 152.331C1087.33 191.216 1118.85 222.739 1157.73 222.739Z" fill="#D0EDF6"/>
<path d="M1149.46 161.412C1150.84 161.358 1149.46 161.412 1149.46 161.412V161.412Z" fill="#43C4D9"/>
<path d="M1192.98 207C1192.85 206.15 1192.85 206.494 1192.98 206.078C1193.12 205.689 1193.17 205.277 1193.14 204.866C1193.14 204.287 1192.65 204.757 1192.26 204.866C1191.86 204.974 1192.07 205.336 1192.02 205.987C1191.97 206.639 1191.51 206.494 1191.51 206.494C1191.19 206.494 1190.52 207.29 1190.36 207.435C1190.19 207.579 1189.14 208.158 1189.14 208.158L1187.55 208.918C1187.04 209.141 1186.58 209.482 1186.21 209.913C1185.62 210.492 1185.83 210.383 1185.09 211.595C1184.35 212.807 1184.5 213.404 1184.5 213.404C1184.25 213.818 1183.98 214.217 1183.68 214.598C1183.16 215.286 1182.11 215.195 1181.02 215.847C1180.72 215.972 1180.46 216.186 1180.29 216.46C1180.11 216.735 1180.02 217.057 1180.03 217.384C1180.03 217.71 1180.03 217.384 1181.84 216.606C1182.55 216.244 1183.32 215.994 1184.12 215.865C1185.62 215.431 1185.06 215.865 1186.34 215.539C1187.63 215.214 1186.58 214.436 1188.29 213.549C1190.01 212.663 1189.23 212.862 1189.23 212.862C1189.44 212.71 1189.64 212.541 1189.81 212.355C1189.91 212.238 1190.02 212.135 1190.14 212.048C1190.48 211.689 1190.76 211.28 1190.97 210.836C1191.43 209.86 1192.08 208.986 1192.89 208.267C1193.9 207.308 1193.12 207.851 1192.98 207Z" fill="#43C4D9"/>
<path d="M1146.86 116.131C1149.84 112.911 1150.29 112.694 1152.05 110.939C1153.8 109.184 1155.2 108.841 1156.75 107.321C1158.31 105.801 1159.17 103.558 1158.13 103.504C1156.95 103.151 1155.72 103.058 1154.51 103.233C1152.86 103.419 1151.18 103.271 1149.59 102.798C1149.63 102.668 1149.63 102.53 1149.59 102.4C1149.95 102.219 1150.2 101.984 1150.02 101.622C1149.39 100.728 1148.67 99.8981 1147.87 99.1441C1147.87 99.1441 1146.64 99.2888 1147.35 97.7149C1148.05 96.141 1148.7 95.7973 1148.34 94.5129C1147.98 93.2284 1149.1 93.0656 1147.6 92.5229C1146.1 91.9802 1145.56 92.1068 1145.36 93.4274C1145.16 94.748 1145.36 94.5852 1144.54 95.5259C1143.73 96.4667 1144.18 97.4978 1143.46 98.0224C1143.46 98.0224 1144.04 97.0817 1142.82 97.6064C1141.61 98.131 1142.82 97.8234 1141.02 98.728C1139.21 99.6325 1138.97 98.8908 1139.21 99.6506C1139.44 100.41 1139.86 100.537 1140.85 100.826C1141.85 101.116 1142.43 99.922 1143.35 101.025C1143.87 101.655 1144.48 102.209 1145.16 102.672C1145.16 102.672 1144.23 102.979 1145.16 102.979C1145.14 103.081 1145.14 103.185 1145.16 103.287C1144.89 103.504 1143.84 102.581 1143.35 102.853C1142.86 103.124 1142.84 102.853 1142.63 103.631C1142.41 104.408 1143 104.499 1142.06 104.788C1141.12 105.078 1141.79 104.065 1141.12 105.06C1140.45 106.055 1141.63 106.326 1139.64 107.212C1137.65 108.099 1136.98 108.316 1136.6 109.148C1136.38 109.786 1136.09 110.394 1135.72 110.957C1135.44 111.194 1135.12 111.378 1134.78 111.5C1134.78 111.5 1134.45 110.849 1133.08 111.391C1131.92 111.825 1130.84 112.435 1129.87 113.2C1128.07 114.358 1128.43 113.797 1128.07 114.847L1127.34 116.782C1126.87 117.486 1126.55 118.281 1126.4 119.116C1126.4 119.984 1126.13 121.106 1126.13 121.54C1126.13 121.974 1125.97 123.476 1127.94 120.925C1129.91 118.374 1129.42 118.61 1130.15 118.23C1131.41 117.676 1132.8 117.464 1134.18 117.615C1135.23 117.886 1137.22 118.23 1137.22 118.23H1140.96C1142.04 118.425 1143.15 118.333 1144.19 117.965C1145.22 117.597 1146.14 116.965 1146.86 116.131Z" fill="#43C4D9"/>
<path d="M1143.44 122.752C1142.84 122.618 1142.24 122.527 1141.63 122.481C1141.63 122.481 1141.5 122.481 1141.38 122.481C1140.83 122.336 1140.26 122.336 1139.71 122.481C1139.04 122.806 1139.15 122.481 1138.16 123.078C1137.16 123.675 1137.54 121.92 1137.16 123.747C1136.78 125.574 1136.89 126.008 1137.49 126.28C1137.72 126.449 1138 126.54 1138.29 126.54C1138.58 126.54 1138.86 126.449 1139.1 126.28C1139.66 125.968 1140.27 125.766 1140.91 125.683C1140.91 125.683 1142.61 125.683 1142.95 125.339C1143.29 124.995 1143.44 124.796 1143.44 124.796C1143.52 124.378 1143.52 123.948 1143.44 123.53C1143.44 122.752 1143.95 122.915 1143.44 122.752Z" fill="#43C4D9"/>
<path d="M1145.32 132.087C1145.99 131.472 1143.95 131.924 1143.69 132.087C1143.44 132.25 1143.06 132.467 1142.72 132.702C1142.27 133.015 1141.92 133.456 1141.72 133.968C1141.5 134.583 1141.72 134.403 1141.72 135.56C1141.72 136.718 1141.72 136.953 1141.72 137.369C1141.72 137.785 1140.91 138.473 1140.36 139.359C1140.01 139.942 1139.69 140.546 1139.41 141.168C1139.12 141.762 1138.68 142.272 1138.14 142.652L1138.52 142.996C1138.92 143.321 1139.03 143.213 1139.8 142.996C1140.58 142.779 1139.97 142.996 1141.07 143.267L1142.17 143.538C1142.17 143.538 1143.76 144.045 1143.98 142.489C1144.12 141.572 1144.21 140.648 1144.25 139.721C1144.39 138.742 1144.3 137.745 1143.98 136.809C1143.62 135.884 1143.62 134.857 1143.98 133.932C1144.16 132.811 1144.89 132.485 1145.32 132.087Z" fill="#43C4D9"/>
<path d="M1136.11 139.215C1135.72 139.667 1136.11 139.667 1136.11 139.939C1136.11 140.21 1136.35 140.065 1137.11 140.047C1137.44 140.009 1137.77 140.009 1138.1 140.047C1138.74 140.047 1138.48 140.174 1139.19 140.047C1139.89 139.921 1139.53 139.83 1139.77 139.324C1140 138.817 1139.77 138.907 1140.11 138.31C1140.45 137.713 1140.29 138.13 1140.47 137.876C1140.65 137.623 1140.56 137.496 1140.47 137.189C1140.38 136.881 1140.27 137.08 1140.13 136.917C1139.92 136.699 1139.71 136.494 1139.48 136.302C1139.28 136.14 1139.17 136.538 1139.03 136.682C1138.85 136.856 1138.7 137.066 1138.61 137.297C1138.57 137.169 1138.5 137.048 1138.43 136.936C1138.34 136.809 1137.63 136.936 1137.36 136.936C1137.09 136.936 1136.96 137.225 1136.75 137.587C1136.53 137.949 1136.75 138.22 1136.62 138.528C1136.49 138.835 1136.49 138.763 1136.11 139.215Z" fill="#43C4D9"/>
<path d="M1160.53 112.079C1160.06 111.771 1159.92 111.916 1159.55 111.916C1159.21 111.939 1158.87 111.908 1158.54 111.825C1157.91 111.699 1157.8 111.916 1157.73 111.952C1157.66 111.988 1156.82 112.386 1156.44 112.531C1156.06 112.676 1156.32 112.784 1156.21 113.291C1156.1 113.797 1156.57 113.544 1156.68 113.797C1156.77 114.17 1156.92 114.525 1157.13 114.847C1157.58 115.624 1157.33 114.973 1157.85 114.629C1158.38 114.286 1158.13 114.322 1158.47 114.141C1158.81 113.96 1158.78 114.557 1158.78 114.557C1158.78 114.557 1159.93 114.847 1160.26 114.557C1160.59 114.268 1160.26 114.322 1160.26 113.671C1160.26 113.019 1160.37 113.472 1160.71 113.273C1161.06 113.074 1160.71 113.273 1160.86 112.857C1161 112.44 1160.98 112.35 1160.53 112.079Z" fill="#43C4D9"/>
<path d="M1148.76 155.297C1148.32 155.297 1148.14 155.062 1148.03 155.804C1147.92 156.545 1148.47 156.057 1147.8 156.726C1147.13 157.396 1146.26 158.427 1146.77 159.006C1147.27 159.585 1147.18 159.313 1147.78 159.349C1147.97 159.348 1148.16 159.299 1148.33 159.207C1148.5 159.116 1148.65 158.985 1148.76 158.825C1148.87 158.38 1148.93 157.926 1148.96 157.468C1148.94 156.908 1148.88 156.351 1148.76 155.804C1148.76 155.767 1149.21 155.333 1148.76 155.297Z" fill="#43C4D9"/>
<path d="M1227.61 152.728C1227.45 150.521 1227.61 150.594 1227.4 148.875C1227.18 147.156 1227.4 148.875 1227.67 148.387C1227.94 147.898 1228.05 148.224 1227.99 147.12C1227.94 146.017 1227.78 145.456 1227.51 143.502C1227.24 141.548 1227.61 142.399 1227.51 141.693C1227.46 141.444 1227.36 141.207 1227.22 140.999C1227.08 140.79 1226.89 140.613 1226.67 140.481C1226.46 140.264 1224.87 140.987 1224.74 140.047C1224.62 139.074 1224.62 138.089 1224.74 137.116C1224.74 135.452 1224.31 135.072 1224.31 135.072V132.25C1224.31 132.25 1223.18 125.9 1222.8 125.231C1222.42 124.561 1221.48 122.861 1220.81 121.486C1220.03 120.028 1219.01 118.718 1217.78 117.614C1216.78 116.728 1217.29 115.95 1215.97 115.679C1214.65 115.407 1214.59 115.787 1213.87 115.407C1213.36 115.18 1212.92 114.845 1212.55 114.426C1212.19 114.008 1211.92 113.515 1211.77 112.983C1211.55 111.699 1210.83 110.812 1212.17 110.993C1212.81 111.082 1213.46 111.137 1214.1 111.156C1214.1 111.156 1214.38 109.347 1213.22 109.058C1212.06 108.768 1211.5 108.786 1211.5 108.786C1211.07 108.745 1210.65 108.614 1210.27 108.402C1209.89 108.191 1209.56 107.902 1209.29 107.556C1208.46 106.398 1207.63 104.806 1206.98 104.137C1206.33 103.468 1207.79 104.028 1205.69 102.473C1204.6 101.634 1203.41 100.913 1202.17 100.32C1201.44 99.9399 1197.92 97.2263 1197.92 97.2263C1197.82 96.968 1197.67 96.7319 1197.49 96.5328C1197.3 96.3336 1197.07 96.1756 1196.81 96.0685C1195.93 95.6886 1195.76 95.2906 1194.66 95.58C1193.56 95.8695 1192.94 94.5308 1193.56 95.8514C1194.17 97.172 1194.26 97.1177 1194.26 97.4615C1194.26 97.8052 1195.37 98.9992 1193.38 97.3348C1191.39 95.6705 1193.21 96.6293 1190.41 95.1278C1187.61 93.6263 1187.64 93.8614 1187.03 93.0293C1186.41 92.1971 1185.55 90.6413 1184.32 90.6413C1183.09 90.6413 1180.88 90.4785 1180.88 90.4785C1180.88 90.4785 1177.79 88.977 1178.46 88.977C1179.96 88.7906 1181.49 88.9642 1182.92 89.4835C1184.41 90.0888 1185.95 90.5669 1187.52 90.9127C1188.02 91.0641 1188.55 91.0641 1189.05 90.9127C1189.05 90.9127 1191.04 90.8041 1188.35 89.7006C1185.65 88.5971 1184.64 88.7599 1182.71 88.0363C1180.77 87.3126 1181.01 86.5528 1179.09 86.6071C1177.95 86.6352 1176.82 86.7624 1175.71 86.987C1175.71 86.987 1176.21 87.5478 1173.66 87.0955C1171.11 86.6433 1171.74 86.2091 1169.76 86.2996C1167.77 86.39 1167.31 86.5528 1166.93 86.5528C1166.55 86.5528 1165.43 85.992 1164.94 85.9377C1164.4 85.973 1163.86 86.0952 1163.35 86.2996C1166.12 88.9408 1165.87 87.2945 1166.01 88.2895C1166.14 88.9353 1166.39 89.5499 1166.75 90.0986C1166.75 90.0986 1169.39 90.0986 1169.95 90.7679C1170.52 91.4373 1171.02 91.4373 1172.31 92.3961C1173.1 92.9895 1173.86 93.6235 1174.58 94.2956C1175.39 95.206 1176.31 96.014 1177.32 96.7017C1178.89 97.769 1178.94 97.9861 1178.94 97.9861C1178.89 98.5837 1178.71 99.1633 1178.42 99.6866C1177.98 100.302 1177.64 99.9761 1177.17 100.899C1176.7 101.821 1177.75 102.599 1177.98 103.214C1178.22 103.829 1178.24 103.884 1177.57 103.775C1176.9 103.667 1176.61 102.328 1175.22 103.142C1173.82 103.956 1173.82 103.431 1173.73 104.282C1173.64 105.132 1172.7 104.77 1173.73 106.199C1174.77 107.628 1175.16 107.339 1175.27 108.334C1175.38 109.329 1175.27 108.587 1175.27 109.51C1175.47 110.507 1175.47 111.534 1175.27 112.531C1174.95 113.454 1174.73 113.345 1174.35 113.978C1173.97 114.611 1174.2 115.118 1174.8 116.258C1175.4 117.397 1175.53 117.578 1174.8 118.067C1174.08 118.555 1174.98 119.351 1172.99 118.356C1171 117.361 1170.71 118.356 1170.52 116.728C1170.32 115.1 1169.94 114.177 1170.23 113.472C1170.52 112.766 1171.02 111.663 1171.02 111.663C1170.89 111.589 1170.74 111.551 1170.58 111.551C1170.43 111.551 1170.28 111.59 1170.15 111.664C1170.01 111.738 1169.9 111.845 1169.82 111.974C1169.74 112.104 1169.69 112.252 1169.68 112.404C1169.38 113.653 1169.34 113.074 1169.3 114.213C1169.19 114.955 1169.31 115.714 1169.65 116.384C1170.08 117.777 1169.76 117.307 1170.82 118.049C1171.38 118.386 1171.99 118.613 1172.63 118.718C1173.04 119 1173.47 119.254 1173.92 119.478C1173.92 119.478 1174.35 119.333 1173.92 119.948C1173.55 120.655 1172.99 121.236 1172.29 121.612C1171.26 122.209 1170.64 121.612 1170.37 122.571C1170.1 123.53 1170.26 123.892 1169.94 123.928C1169.61 123.964 1168.98 122.571 1168.98 122.571C1168.98 122.571 1168.98 122.716 1168.76 123.566C1168.54 124.416 1168.47 124.109 1168.02 124.851C1167.57 125.592 1167.51 125.701 1166.77 124.851C1166.03 124 1166.77 123.747 1164.82 122.861C1162.86 121.974 1162.68 121.052 1161.2 121.359C1159.72 121.667 1159.61 121.251 1158.94 122.137C1158.27 123.024 1155.92 124.706 1155.32 125.393C1154.8 125.862 1154.46 126.504 1154.36 127.202C1153.97 128.595 1154.69 128.035 1153.22 128.885C1152.3 129.273 1151.48 129.853 1150.8 130.585C1149.46 131.834 1149.1 131.797 1148.99 132.937C1148.88 134.077 1147.89 134.041 1148.99 134.746C1149.72 135.19 1150.58 135.345 1151.42 135.18C1151.42 135.18 1151.76 133.932 1152.01 135.036C1152.27 136.139 1152.99 137.677 1152.99 137.677C1152.92 137.779 1152.85 137.876 1152.77 137.966C1152.37 138.473 1152.03 138.545 1152.03 138.238C1152.03 137.93 1152.19 137.152 1152.19 137.044C1152.19 136.935 1152.3 136.374 1151.52 137.044C1150.75 137.713 1150.35 137.044 1150.28 138.31C1150.2 139.576 1150.67 139.251 1150.57 140.246C1150.57 140.481 1150.57 140.644 1150.57 140.77C1150.57 141.114 1150.57 141.078 1150.75 140.879C1150.85 140.987 1150.87 141.114 1150.24 141.186C1149.17 141.313 1150.24 140.698 1148.43 141.186C1146.62 141.675 1146.73 140.951 1146.62 141.783C1146.51 142.616 1147.13 142.76 1146.15 143.593C1145.18 144.425 1145.88 144.135 1144.34 144.714C1142.81 145.293 1144.45 146.053 1141.61 145.89C1138.77 145.727 1138.48 144.714 1138.25 145.239C1138.01 145.763 1137.87 145.745 1138.9 147.446C1139.93 149.146 1139.89 148.947 1139.62 150.286C1139.35 151.625 1139.62 151.498 1138.97 152.095C1138.32 152.692 1138.45 151.48 1136.53 151.064C1134.61 150.648 1135.28 149.255 1134.03 150.377C1132.79 151.498 1132.48 151.516 1132.48 153.162C1132.48 154.809 1131.94 154.266 1131.76 155.713C1131.57 157.16 1130.83 156.256 1131.76 157.522C1132.68 158.789 1133.44 159.331 1133.44 159.494C1133.44 159.657 1133 159.494 1132.93 160.616C1132.92 160.682 1132.92 160.749 1132.93 160.815C1132.65 160.761 1132.35 160.766 1132.07 160.832C1131.78 160.897 1131.52 161.021 1131.28 161.195C1130.71 161.864 1131.14 161.647 1129.96 162.298C1129.26 162.629 1128.57 162.997 1127.9 163.402C1127.47 163.782 1127.54 163.402 1127.47 164.361C1127.47 164.688 1127.38 165.009 1127.21 165.289C1127.04 165.569 1126.8 165.799 1126.51 165.953L1123.18 167.617C1123.18 167.617 1123.71 166.423 1122.46 167.309C1121.21 168.196 1121.57 167.689 1120.65 169.01C1119.73 170.33 1119.76 169.896 1119.4 171.217C1119.04 172.538 1119.69 170.927 1119.02 172.538C1118.7 173.32 1118.48 174.141 1118.37 174.98C1118.06 176.083 1117.34 176.373 1116.96 177.549C1116.58 178.725 1116 178.507 1116.38 179.683C1116.52 180.431 1116.72 181.168 1116.96 181.89C1117.23 183.1 1117.76 184.236 1118.52 185.219C1119.91 187.354 1118.88 186.178 1120.65 187.643C1121.66 188.376 1122.4 189.408 1122.78 190.592C1123.38 191.695 1121.68 191.334 1124.25 192.057C1126.82 192.781 1127.41 192.582 1128.23 193.306C1128.76 193.836 1129.42 194.222 1130.15 194.427C1131.07 194.61 1132.02 194.61 1132.95 194.427C1133.46 194.427 1133.24 193.541 1134.63 194.047C1136.02 194.554 1136.33 194.264 1137.89 194.717C1139.44 195.169 1141.34 195.078 1141.5 195.458C1141.67 195.838 1140.4 195.82 1141.5 197.068C1142.61 198.317 1143.13 198.172 1143.13 198.172C1143.26 198.03 1143.41 197.916 1143.58 197.838C1143.75 197.76 1143.94 197.72 1144.13 197.72C1144.31 197.72 1144.5 197.76 1144.67 197.838C1144.84 197.916 1145 198.03 1145.12 198.172C1146.15 199.203 1146.66 198.769 1146.73 200.162C1146.8 201.555 1145.48 201.193 1145.7 202.079C1145.92 202.966 1145.7 203.255 1146.59 204.359C1147.47 205.462 1149.68 207.38 1149.68 207.38C1149.68 207.38 1150.71 209.081 1151.07 209.587C1151.43 210.094 1152.1 210.618 1151.6 211.396C1151.09 212.174 1150.85 212.355 1150.2 213.205C1149.55 214.055 1148.58 213.205 1148.94 214.743C1149.45 216.226 1150.43 217.499 1151.74 218.361C1152.77 219.012 1153.13 218.578 1154.69 220.17C1156.24 221.762 1156.01 221.274 1156.23 221.78C1156.44 222.287 1158.29 221.997 1159.17 221.78C1159.8 221.587 1160.38 221.26 1160.87 220.821C1161.09 220.677 1160.59 219.718 1162.12 219.935C1163.43 219.994 1164.73 219.798 1165.96 219.356C1166.85 218.193 1167.89 217.152 1169.05 216.263C1170.15 215.666 1170.3 215.883 1171.55 215.231C1172.9 214.787 1174.23 214.268 1175.53 213.676C1176.09 213.234 1176.61 212.744 1177.08 212.21C1177.89 211.324 1178.76 210.401 1179.29 209.84C1179.81 209.28 1180.25 209.696 1180.54 207.778C1180.82 205.86 1179.43 207.561 1180.9 204.775C1182.36 201.989 1182.24 202.116 1183.05 201.374C1183.51 200.873 1184.02 200.429 1184.59 200.053C1185.54 199.338 1186.55 198.697 1187.61 198.136C1189.42 197.032 1189.52 197.557 1190.7 195.639C1191.88 193.722 1192.02 193.432 1192.62 192.546C1193.21 191.659 1193.87 191.442 1193.58 190.176C1193.41 189.794 1193.32 189.381 1193.32 188.964C1193.32 188.546 1193.41 188.133 1193.58 187.752C1193.94 186.503 1194.68 185.762 1194.3 185.472C1193.92 185.183 1192.09 186.286 1191.88 186.286C1191.66 186.286 1192.09 185.906 1190.7 186.865C1189.31 187.824 1189.89 187.535 1188.71 187.969C1187.53 188.403 1187.75 188.493 1186.9 188.349C1186.05 188.204 1186.09 188.638 1185.65 187.896C1185.31 187.233 1185.01 186.543 1184.77 185.834C1184.77 185.834 1185.29 185.617 1184.03 185.472C1183.37 185.396 1182.74 185.139 1182.22 184.731C1182.09 184.241 1181.85 183.788 1181.51 183.405C1181.18 183.023 1180.77 182.721 1180.3 182.524C1178.6 181.709 1177.57 181.131 1177.42 179.719C1177.28 178.308 1178.31 178.996 1177.28 177.512C1176.61 176.65 1175.87 175.84 1175.07 175.088C1174.53 174.523 1174.17 173.803 1174.04 173.026C1173.9 171.995 1173.66 170.584 1174.19 170.294C1174.36 170.24 1174.55 170.24 1174.73 170.294L1177.53 173.912C1177.53 173.912 1182.54 174.672 1182.29 175.559C1182.11 176.185 1182 176.827 1181.95 177.476C1181.95 177.476 1184.39 178.218 1184.97 179.502C1185.24 180.197 1185.63 180.844 1186.11 181.42C1187.06 182.849 1187.41 182.198 1187.73 183.519L1188.06 184.839C1189.57 184.415 1190.94 183.575 1192 182.415C1193.32 180.606 1193.09 181.131 1194.53 179.358C1195.98 177.585 1196.49 178.399 1197.9 176.047C1199.31 173.695 1200.58 171.615 1200.58 171.615C1200.58 171.615 1202.38 170.258 1200.47 169.444C1198.55 168.63 1198.21 166.622 1196.56 167.671C1195.77 168.188 1195.05 168.795 1194.41 169.48C1194.11 169.705 1193.84 169.966 1193.61 170.258C1193.61 170.258 1193.61 170.367 1192.36 170.367C1191.12 170.367 1191.55 170.475 1190.77 169.372C1190.39 168.64 1189.83 168.017 1189.14 167.563C1187.86 166.477 1187.05 166.821 1187.5 165.898C1187.67 165.522 1187.91 165.174 1188.19 164.867C1188.57 164.867 1189 164.867 1189.45 164.867C1190.77 164.867 1189.99 165.247 1191.26 165.645C1192.53 166.043 1193.07 166.586 1194.88 165.645C1196.69 164.704 1196.2 165.03 1196.49 165.301C1196.78 165.573 1196.81 166.025 1198.86 166.188C1200.9 166.351 1200.12 165.247 1202.11 163.872C1204.1 162.497 1203.32 162.877 1204.77 162.497C1206.22 162.117 1205.31 162.714 1206.2 163.347C1207.09 163.981 1207.19 163.764 1207.86 163.347C1208.53 162.931 1208.24 162.551 1209.46 160.724C1210.67 158.897 1209.91 160.616 1210.02 160.941C1210.31 161.655 1210.78 162.279 1211.39 162.75C1212.22 163.406 1212.9 164.233 1213.38 165.175C1214.38 166.785 1215.53 168.937 1215.53 168.937C1215.53 168.937 1216.42 171.199 1217.03 172.302C1217.65 173.406 1217.74 172.519 1218.14 171.253C1218.27 170.675 1218.49 170.12 1218.79 169.607C1218.79 169.607 1219.24 171.597 1219.84 171.199C1220.43 170.801 1220.56 170.312 1219.84 169.39C1219.11 168.467 1219.02 169.39 1218.68 168.286C1218.34 167.183 1218.52 166.242 1218.08 164.089C1217.65 161.936 1218.08 162.931 1218.19 162.389C1218.3 161.846 1219.24 156.021 1219.51 154.592C1219.84 153.345 1220.01 152.063 1220.02 150.775C1220.13 148.188 1220.56 148.857 1221.5 147.97C1222.44 147.084 1221.94 148.676 1222.39 149.562C1222.68 150.157 1223.03 150.721 1223.44 151.245C1223.82 151.824 1223.82 150.395 1224.16 148.676C1224.5 146.957 1225.16 149.906 1225.16 149.906C1225.34 151.018 1225.44 152.144 1225.43 153.271C1225.43 155.261 1226.91 156.093 1227.69 155.641C1228.46 155.189 1227.78 154.953 1227.61 152.728ZM1153.46 139.341C1154.27 138.943 1155 138.979 1155.45 138.183C1155.9 137.387 1155.99 136.989 1156.55 136.067C1157.11 135.144 1157.58 135.072 1157.58 134.005C1157.58 132.937 1155.99 133.028 1157.58 131.779C1158.8 130.934 1159.88 129.91 1160.78 128.74C1161.38 127.854 1161.22 127.293 1161.53 127.112C1161.83 126.931 1162.29 126.642 1162.45 127.112C1162.61 127.582 1163.44 126.967 1162.21 128.071C1160.98 129.174 1161.38 129.482 1160.6 131.056C1159.83 132.63 1159.46 132.756 1159.36 133.408C1159.25 134.059 1160.42 134.185 1160.97 133.932C1161.51 133.679 1162.77 132.376 1163.24 132.901C1163.71 133.426 1165.05 133.371 1163.52 134.403C1161.98 135.434 1161.71 135.072 1161.18 135.633C1160.66 136.193 1159.75 135.633 1159.72 136.212C1159.68 136.79 1160.82 136.772 1160.78 137.387C1160.75 138.003 1161.04 138.455 1159.93 138.147C1158.83 137.84 1158.9 136.881 1158.83 137.84C1158.87 138.408 1158.76 138.977 1158.51 139.486C1158.13 140.336 1158.83 140.336 1157.55 140.264C1156.26 140.191 1157.22 139.522 1155.56 140.264C1153.89 141.006 1154.78 140.77 1153.1 140.861C1152.81 140.848 1152.53 140.904 1152.27 141.024V140.047C1152.66 139.974 1152.83 139.685 1153.51 139.341H1153.46ZM1170.01 168.431C1168.53 168.431 1168.02 167.563 1167.35 167.997C1166.68 168.431 1166.84 169.697 1164.85 169.462C1163.57 169.292 1162.34 168.848 1161.24 168.16C1160.72 167.992 1160.17 167.895 1159.63 167.87C1158.74 167.87 1158.07 167.545 1158.07 168.684C1158.07 169.824 1159.03 169.462 1158.07 170.204C1157.11 170.946 1158.45 171.832 1156.61 170.421C1154.76 169.01 1154.69 168.612 1154.47 168.612C1154.26 168.612 1153.51 168.847 1153.22 168.612C1152.93 168.377 1153.73 168.702 1152.48 167.78C1151.23 166.857 1152.77 167.002 1150.85 166.64C1148.94 166.278 1148.58 166.043 1148.36 165.754C1148.14 165.464 1147.83 165.464 1148.65 164.342C1149.46 163.221 1149.9 162.732 1149.9 162.732L1149.46 161.43H1148.43C1145.48 161.575 1146.95 161.05 1144.67 161.43C1142.39 161.81 1143.49 160.978 1141.79 161.249C1140.09 161.52 1143.35 160.833 1139.3 161.249C1137.71 161.482 1136.09 161.482 1134.5 161.249C1134.82 160.525 1135.04 159.766 1135.17 158.988C1135.77 158.795 1136.37 158.638 1136.98 158.517C1137.87 158.409 1139.01 157.812 1139.08 157.486C1139.15 157.16 1139.08 156.238 1139.48 155.858C1139.88 155.478 1139.26 155.171 1140.55 155.315C1141.83 155.46 1141.85 155.605 1142.5 154.827C1143.15 154.049 1143.35 153.434 1143.87 153.217C1144.4 153 1145.37 152.222 1146.41 152.602C1147.44 152.982 1147.65 152.602 1147.87 153.289C1148.01 153.79 1148.24 154.262 1148.54 154.682C1149.06 155.605 1149.32 154.682 1149.93 155.207C1150.51 155.617 1151.01 156.125 1151.42 156.708C1152.19 157.739 1152.37 157.378 1152.7 157.92C1153.03 158.463 1153.03 158.228 1153.4 158.915C1153.78 159.603 1153.95 159.44 1153.4 159.91C1153.08 160.247 1152.63 160.441 1152.16 160.453C1151.49 160.58 1150.17 159.548 1150.71 160.453C1151.24 161.202 1151.93 161.821 1152.74 162.262C1153.26 162.606 1153.22 161.683 1153.91 161.285C1154.44 160.897 1154.89 160.405 1155.23 159.838C1155.23 159.838 1155.43 158.843 1155.43 158.698C1155.31 158.32 1155.15 157.952 1154.98 157.595L1156.39 158.59C1156.39 158.59 1157.19 157.776 1157 157.631C1156.01 156.992 1154.97 156.446 1153.88 156.003C1153.51 156.003 1153.44 155.822 1153.3 155.351C1152.94 154.573 1152.46 153.853 1151.89 153.217C1151.42 152.656 1150.75 152.258 1150.96 151.95C1151.46 151.659 1151.99 151.451 1152.55 151.335C1152.55 151.335 1152.81 151.154 1153.4 152.366C1154 153.579 1152.92 153.181 1154.8 154.393C1156.68 155.605 1157 154.899 1157.75 156.202C1158.15 156.92 1158.38 157.728 1158.4 158.553C1158.6 159.295 1158.81 159.06 1159.17 160.091C1159.67 160.99 1160.23 161.854 1160.84 162.678C1160.84 162.931 1160.95 163.854 1161.54 163.076C1162 162.415 1162.53 161.808 1163.12 161.267C1163.33 161.339 1163.53 161.443 1163.71 161.575C1163.46 160.724 1163.09 159.914 1162.61 159.169C1162.2 158.915 1162.09 158.065 1162.09 158.065C1162.09 158.065 1164.85 157.667 1165.14 158.065C1165.43 158.463 1164.71 158.59 1165 159.766C1165.29 160.941 1166.14 161.122 1167.28 161.575C1168.06 161.971 1168.92 162.193 1169.79 162.226C1170.3 162.367 1170.83 162.385 1171.34 162.278C1171.85 162.171 1172.33 161.942 1172.74 161.611C1173.17 161.358 1173.63 161.169 1174.11 161.05H1174.2L1174.6 164.107C1174.6 164.107 1174.84 164.107 1174.6 165.283C1174.37 166.459 1173.95 166.278 1173.84 166.948C1173.82 167.296 1173.74 167.638 1173.61 167.961L1173.25 167.87C1172.18 168.12 1171.1 168.308 1170.01 168.431ZM1180.43 154.338C1179.63 154.627 1178.91 155.077 1178.29 155.659C1176.97 155.468 1175.63 155.468 1174.31 155.659C1174.1 155.659 1173.03 154.845 1171.82 155.062C1170.61 155.279 1171.71 154.845 1169.56 155.261L1166.73 155.768C1166.73 155.768 1164.64 155.478 1165.25 154.194C1165.87 152.909 1166.25 153 1166.39 152.493C1166.64 151.868 1166.94 151.263 1167.28 150.684L1167.84 150.25C1167.98 150.105 1168.2 149.472 1168.62 149.761C1168.97 149.961 1169.38 150.055 1169.79 150.033C1169.79 150.033 1169.79 149.834 1169.9 150.648C1170.01 151.462 1169.09 151.462 1170.12 151.643C1171.15 151.824 1171.58 151.643 1171.93 151.317C1172.27 150.992 1171.65 150.612 1172.54 150.648C1173.43 150.684 1173.54 149.761 1174.35 150.937C1175.16 152.113 1174.13 152.023 1176.16 152.276C1178.18 152.529 1178.62 151.788 1179.29 152.276C1180 152.64 1180.65 153.097 1181.24 153.633C1181.2 153.85 1181.93 153.669 1180.43 154.302V154.338ZM1189.47 155.695C1189.05 156.129 1189.29 155.985 1189.25 156.437C1189.22 156.889 1186.74 156.618 1186.74 156.618L1185.24 155.876C1185.57 155.333 1185.67 154.685 1185.53 154.067C1185.31 152.996 1184.81 152.006 1184.06 151.209C1183.21 150.403 1182.41 149.551 1181.66 148.658C1181.37 148.079 1180.93 148.224 1181.8 146.849C1182.31 145.82 1183.13 144.973 1184.13 144.425C1184.79 144.208 1185.71 143.828 1185.64 145.058C1185.56 146.288 1185.64 145.42 1185.27 146.74C1184.91 148.061 1183.9 148.549 1184.89 149.11C1185.89 149.671 1186.7 149.508 1187.48 150.756C1188.26 152.005 1188.15 152.927 1188.73 153.524C1188.84 153.653 1188.99 153.751 1189.15 153.811C1189.31 153.871 1189.48 153.891 1189.65 153.868C1189.83 154.044 1190.03 154.19 1190.25 154.302C1191.12 154.682 1189.92 155.225 1189.52 155.659L1189.47 155.695Z" fill="#43C4D9"/>
<path d="M1120.74 111.789C1121.14 110.39 1121.93 109.135 1123.02 108.171C1125.08 106.037 1124.43 106.923 1124.27 105.44C1124.1 103.956 1122.87 105.295 1122.06 105.44C1120.63 105.953 1119.25 106.595 1117.94 107.357C1117.94 107.357 1116.62 107.502 1117.57 105.801C1118.53 104.101 1118.17 105.15 1117.94 102.708C1117.7 100.266 1117.94 102.708 1119.93 100.501C1121.92 98.2938 1121.73 98.9631 1124.43 97.2626C1127.12 95.5621 1126.33 96.4485 1128.17 97.4073C1130.02 98.3661 1127.36 98.5109 1126.18 100.012C1125.01 101.514 1127.07 100.646 1130.38 101.315C1133.69 101.984 1130.38 103.902 1130.38 103.902C1130.38 103.902 1129.51 104.553 1125.7 107.647C1121.88 110.74 1127.74 109.347 1127.74 109.347C1127.74 109.347 1129.2 108.244 1131.65 105.964C1134.09 103.685 1134.21 104.843 1138.72 103.305C1143.22 101.767 1139.51 102.201 1139.3 101.858C1139.08 101.514 1134.21 100.573 1135.03 98.9631C1135.84 97.3531 1138.21 98.0043 1138.21 98.0043C1139.92 97.6868 1141.56 97.0747 1143.06 96.1953C1144.87 94.947 1142.68 93.6264 1142.68 93.6264C1143.91 91.7471 1145.76 90.3628 1147.91 89.7188C1152.03 88.0907 1150.2 89.7188 1156.12 89.9359C1162.03 90.153 1157.71 88.0183 1159.17 87.367C1160.27 87.0344 1161.34 86.6046 1162.36 86.0826C1163.15 85.4675 1162.12 85.1419 1161.62 84.563C1161.11 83.9841 1161.62 84.563 1158.4 83.6042C1156.91 82.9738 1155.25 82.9221 1153.73 83.4595C1153.73 83.4595 1151.92 84.4183 1151.6 84.4906C1151.27 84.563 1144.98 85.5761 1144.98 85.5761C1143.09 85.7013 1141.19 85.7013 1139.3 85.5761C1136.87 85.359 1125.04 87.8374 1113.56 97.4254C1106.95 102.776 1101.36 109.271 1097.05 116.601C1096.31 118.869 1095.71 121.176 1095.24 123.512C1096.27 122.521 1097.23 121.464 1098.11 120.346C1099.58 118.537 1098.71 119.387 1101.57 118.049C1102.7 117.497 1103.86 117.008 1105.04 116.583C1107.39 115.625 1106.22 118.573 1108.42 119.677C1110.63 120.78 1109.31 119.46 1109.6 118.863C1109.89 118.266 1109.6 118.573 1109.74 116.059C1109.89 113.544 1109.89 113.996 1111.73 113.617C1113.58 113.237 1111.73 114.955 1112.4 116.222C1113.07 117.488 1114.21 118.031 1114.83 118.863C1115.44 119.695 1113.72 119.749 1112.4 119.749C1111.08 119.749 1111.44 120.925 1110.48 122.463C1109.53 124.001 1111.3 126.37 1112.84 123.874C1113.76 122.446 1114.8 121.091 1115.93 119.822C1116.97 118.689 1117.8 117.385 1118.39 115.968C1119.49 113.888 1120.74 111.789 1120.74 111.789Z" fill="#43C4D9"/>
<path d="M1101.44 190.14C1101.44 189.271 1101.01 187.788 1101.44 186.901C1101.88 186.015 1102.62 186.322 1102.47 183.808C1102.29 181.946 1101.84 180.119 1101.15 178.381C1099.75 177.483 1098.52 176.336 1097.53 174.998C1096.43 173.189 1096 173.677 1095.55 170.728C1095.09 167.78 1094.89 166.893 1094.44 164.614C1093.99 162.334 1094.44 161.954 1093.65 160.109C1092.85 158.264 1092.31 158.499 1091.35 156.364C1090.55 154.942 1090.13 153.344 1090.1 151.715C1089.88 149.291 1090.39 149.906 1090.7 147.518C1090.95 145.046 1090.95 142.555 1090.7 140.083C1090.24 138.843 1090.16 137.495 1090.48 136.211C1090.77 133.823 1091.13 132.195 1091.13 132.195C1091.13 132.195 1089.32 133.498 1088.53 139.305C1086.38 149.69 1086.78 160.44 1089.69 170.638C1094.51 188.728 1104.5 198.461 1104.5 198.461C1104.2 196.961 1103.73 195.498 1103.11 194.101C1102.32 192.89 1101.76 191.549 1101.44 190.14Z" fill="#43C4D9"/>
<path d="M1042.5 193.107C1044.5 193.964 1046.65 194.406 1048.83 194.406C1051 194.406 1053.16 193.964 1055.16 193.107C1062.66 190.267 1081 173.714 1081 173.714L1086.18 178.797C1086.18 178.797 1066.72 205.77 1055.19 209.714C1043.67 213.658 1032.06 205.608 1032.06 205.608C1032.06 205.608 1041.39 195.368 1042.5 193.107Z" fill="#FCCAA6"/>
<path d="M1081.04 173.714C1084.29 171.804 1087.89 170.573 1091.62 170.095C1097.28 169.517 1108.66 172.773 1107.27 174.889C1105.87 177.006 1085.15 180.317 1082.88 179.683C1080.62 179.05 1081.04 173.714 1081.04 173.714Z" fill="#FCCAA6"/>
<path d="M1328 152.15C1328 152.15 1319.84 178.562 1307.32 197.376C1294.81 216.19 1282.44 219.628 1281.26 231.549C1280.68 239.832 1281.16 248.155 1282.69 256.315C1276.47 256.553 1270.23 256.201 1264.08 255.266C1262.45 237.899 1257.39 167.744 1257.39 167.744C1257.39 167.744 1274.04 173.279 1279.61 173.044C1285.19 172.809 1300.38 131.436 1304.34 115.154C1312.26 123.627 1319.52 132.699 1326.04 142.29L1328 152.15Z" fill="#D4C1DA"/>
<path d="M1304.34 115.209C1304.34 115.209 1292.42 177.151 1277.32 177.097C1262.22 177.042 1224.87 160.2 1224.87 160.2L1218.1 171.362C1218.1 171.362 1256.32 202.297 1283.09 201.356C1309.86 200.415 1325.14 146.451 1328.92 131.78C1332.7 117.108 1328.36 106.073 1319.44 103.16C1310.52 100.248 1304.34 115.209 1304.34 115.209Z" fill="#F6E4E7"/>
<path d="M1224.18 161.358C1224.18 161.358 1221.12 148.695 1217.85 145.33C1214.57 141.965 1206.47 136.284 1204.81 138.817C1203.14 141.35 1211.35 151.481 1212.31 154.158C1213.27 156.835 1214.68 161.575 1215.75 164.379C1216.61 166.185 1218.08 167.623 1219.91 168.431L1224.18 161.358Z" fill="#AA633F"/>
<path opacity="0.3" d="M1173.67 1.43848C1160.67 -3.07128 1155.21 14.4851 1155.21 14.4851C1155.21 14.4851 1149.76 -3.07128 1136.83 1.43848C1116.15 8.5824 1155.21 53.749 1155.21 53.749C1155.21 53.749 1194.27 8.5824 1173.67 1.43848Z" fill="#43C4D9"/>
</svg>
