<svg width="303" height="287" viewBox="0 0 303 287" fill="none" xmlns="http://www.w3.org/2000/svg">
<mask id="mask0" mask-type="alpha" maskUnits="userSpaceOnUse" x="3" y="10" width="300" height="277">
<rect x="3.73608" y="10.6824" width="298.625" height="276.253" fill="#C4C4C4"/>
</mask>
<g mask="url(#mask0)">
<path opacity="0.3" fill-rule="evenodd" clip-rule="evenodd" d="M181.627 36.1676C157.377 33.0929 82.9399 34.3284 58.6822 38.8976C27.3773 44.7942 21.7404 57.8194 15.4205 65.1556C-5.9276 89.9368 10.9321 130.065 11.4061 162.925C11.8778 195.632 5.98589 230.03 21.8004 257.747C38.5098 287.033 66.4034 311.201 98.8918 316.257C130.076 321.109 159.271 300.25 187.081 283.466C210.398 269.394 230.57 251.341 245.443 227.811C260.027 204.739 268.43 178.845 270.447 151.576C272.631 122.046 274.807 89.2734 257.364 66.6091C240.042 44.1012 209.321 39.6789 181.627 36.1676Z" fill="url(#paint0_linear)" fill-opacity="0.5"/>
</g>
<circle cx="19.1346" cy="19.0313" r="19.014" fill="#43C4D9"/>
<path d="M21.8107 10.2264V29.8264H18.1707V13.2784H14.0267V10.2264H21.8107Z" fill="white"/>
<path d="M31.4436 286.07H258.822C258.822 286.07 255.772 265.325 235.565 260.346C215.359 255.367 195.16 265.325 179.364 270.864C163.568 276.404 142.27 257.304 94.934 256.19C47.5984 255.076 33.2901 279.125 31.4436 286.07Z" fill="#C4E8F0"/>
<path fill-rule="evenodd" clip-rule="evenodd" d="M197.051 260.324C196.905 259.054 196.49 257.831 195.832 256.735C195.272 255.988 192.439 253.7 189.03 251.054C191.148 248.927 193.035 246.581 194.659 244.057L195.832 245.828C197.926 249.088 199.421 251.644 200.542 253.349C200.542 259.755 198.875 260.765 197.051 260.324Z" fill="#AA633F"/>
<path fill-rule="evenodd" clip-rule="evenodd" d="M180.492 267.111C180.902 266.602 181.187 266.002 181.322 265.362C181.659 263.785 182.391 256.758 182.436 254.672C182.481 252.586 189.665 252.646 189.03 256.048C188.544 258.619 187.759 263.59 187.258 267.029C186.201 267.522 185.05 267.784 183.884 267.798C182.718 267.813 181.561 267.578 180.492 267.111Z" fill="#AA633F"/>
<path fill-rule="evenodd" clip-rule="evenodd" d="M187.258 267.029L186.854 269.721C186.488 272.427 186.48 273.144 184.567 273.271C182.653 273.399 174.519 273.369 172.606 273.271C170.692 273.174 169.712 271.5 173.174 270.588C175.91 269.84 178.99 269.04 180.485 267.112C181.554 267.578 182.71 267.813 183.876 267.798C185.043 267.784 186.193 267.522 187.25 267.029H187.258Z" fill="#322875"/>
<path fill-rule="evenodd" clip-rule="evenodd" d="M177.151 241.784L176.015 240.887C172.546 237.964 163.441 228.276 163.927 220.778C164.338 214.588 176.785 211.209 176.373 216.524C175.932 222.183 175.506 223.574 179.274 227.521C178.273 232.227 177.563 236.99 177.151 241.784Z" fill="#355BA9"/>
<path fill-rule="evenodd" clip-rule="evenodd" d="M200.542 253.349C201.447 254.739 202.112 255.592 202.65 255.793C203.966 256.332 204.213 257.819 202.65 264.338C201.604 268.689 200.721 271.201 198.165 271.111C195.608 271.021 193.597 271.111 195.466 269.279C197.335 267.448 197.903 266.947 197.649 265.153C197.499 264.144 197.372 262.163 197.043 260.324C199.495 259.075 200.542 256.915 200.535 253.349H200.542Z" fill="#322875"/>
<path fill-rule="evenodd" clip-rule="evenodd" d="M179.274 227.521C180.059 228.365 181.023 229.315 182.219 230.429C188.08 235.931 190.001 237.015 194.659 244.057C193.041 246.586 191.154 248.932 189.03 251.054C184.843 247.757 179.797 243.929 177.151 241.784C177.563 236.99 178.272 232.227 179.274 227.521Z" fill="#2A4C90"/>
<path fill-rule="evenodd" clip-rule="evenodd" d="M180.448 201.02C181.554 196.624 184.933 193.185 186.316 193.544C190.801 194.635 193.904 196.534 195.937 204.174L195.735 206.357C194.315 220.21 194.135 230.279 193.238 237.755C192.341 245.23 190.547 253.192 190.143 255.188C189.74 257.184 190.398 257.513 185.202 256.855C181.285 256.354 181.173 256.855 181.143 253.984C181.113 251.114 180.993 217.533 180.717 208.6L180.448 200.997V201.02Z" fill="#355BA9"/>
<path fill-rule="evenodd" clip-rule="evenodd" d="M168.487 173.943C174.654 174.832 176.657 175.064 177.338 177.643C178.384 181.598 179.266 185.336 177.338 184.371C175.409 183.407 172.037 181.665 171.723 182.719C171.409 183.773 176.844 187.952 179.692 189.851C178.893 196.497 176.575 215.829 175.895 220.897C175.663 222.639 172.942 228.971 168.21 227.483C163.478 225.996 163.612 222.908 163.971 215.522C164.263 209.714 166.961 186.143 168.457 173.906L168.487 173.943Z" fill="#355BA9"/>
<path fill-rule="evenodd" clip-rule="evenodd" d="M176.882 164.711C184.26 164.845 194.517 167.492 194.771 169.749C196.698 181.108 197.091 192.674 195.937 204.137C192.633 204.563 180.881 201.461 180.448 200.997L179.969 187.541L179.693 189.829C176.844 187.937 171.41 183.729 171.724 182.697C172.037 181.665 175.416 183.392 177.338 184.349C179.259 185.306 178.384 181.568 177.338 177.621C176.657 175.042 174.654 174.81 168.487 173.921C168.898 170.631 169.234 168.164 169.414 167.065L169.533 166.699L170.767 165.54L176.882 164.688V164.711Z" fill="#2A4C90"/>
<path fill-rule="evenodd" clip-rule="evenodd" d="M190.091 79.8399C190.091 79.8399 195.504 76.5731 198.374 85.2448C201.245 93.9165 201.133 98.3645 204.796 101.564C208.459 104.764 223.986 111.918 225.563 119.169C227.14 126.42 220.33 142.501 204.796 144.422C189.261 146.343 187.235 137.155 184.612 132.932C181.988 128.708 166.7 120.604 168.494 110.991C169.526 105.459 171.94 101.273 172.979 97.2955C173.727 94.365 173.413 89.5582 174.624 86.4035C176.665 81.0884 180.53 78.2327 186.309 78.2327C189.433 78.2327 190.099 79.8399 190.099 79.8399H190.091Z" fill="#4C266E"/>
<path d="M202.381 131.16C202.631 131.177 202.865 131.288 203.036 131.472C203.206 131.655 203.301 131.896 203.301 132.147C203.891 143.854 204.527 155.583 205.012 167.334C205.012 168.217 205.012 168.897 204.444 169.181C204.288 169.26 204.114 169.297 203.939 169.29C203.764 169.283 203.593 169.231 203.444 169.14C203.294 169.049 203.17 168.921 203.084 168.768C202.997 168.616 202.951 168.444 202.949 168.269C202.545 157.205 201.91 146.246 201.364 135.264L201.207 132.274C201.206 132.122 201.236 131.972 201.296 131.833C201.356 131.694 201.444 131.569 201.556 131.466C201.667 131.363 201.799 131.285 201.942 131.236C202.085 131.187 202.238 131.169 202.388 131.182L202.381 131.16Z" fill="#322875"/>
<path fill-rule="evenodd" clip-rule="evenodd" d="M195.578 114.714C198.367 116.134 201.506 118.982 203.958 126.391C207.861 138.195 209.244 149.415 209.647 151.867C210.051 154.319 202.837 157.713 201.506 150.372C200.343 144.414 198.861 138.522 197.066 132.722C196.804 131.975 196.505 132.042 196.131 132.722C192.042 127.751 194.053 118.743 195.578 114.714Z" fill="#AA633F"/>
<path fill-rule="evenodd" clip-rule="evenodd" d="M163.478 134.031C165.339 130.36 167.836 125.404 168.987 123.004C170.393 120.059 172.688 117.024 175.416 115.394C174.228 119.453 170.587 124.866 168.412 129.874C165.952 135.548 169.907 138.202 169.87 140.093C169.727 140.393 166.049 148.459 162.887 151.105C160.151 153.385 156.04 152.219 155.621 147.053C155.202 141.888 156.369 128.147 156.578 126.391C156.675 125.501 156.825 123.954 155.913 123.498C153.543 122.331 150.119 118.743 151.607 116.523C153.094 114.303 158.656 120.492 159.979 122.309C160.914 123.595 161.295 133.448 161.16 138.576C161.818 138.576 162.551 137.2 163.478 134.031Z" fill="#AA633F"/>
<path fill-rule="evenodd" clip-rule="evenodd" d="M163.478 134.031C163.373 138.471 162.828 145.154 161.751 145.326C160.675 145.498 161.22 142.224 161.161 138.598L163.478 134.038V134.031Z" fill="#934624"/>
<path fill-rule="evenodd" clip-rule="evenodd" d="M178.713 114.093C182.01 113.6 182.085 112.897 182.1 110.976V110.617C184.53 110.03 186.713 108.693 188.342 106.797C188.536 109.787 189.089 112.179 191.175 113.024C191.796 113.286 192.506 113.495 193.276 113.772C190.876 117.696 186.256 122.742 182.107 122.309C178.706 121.935 178.459 117.323 178.721 114.086L178.713 114.093Z" fill="#AA633F"/>
<path fill-rule="evenodd" clip-rule="evenodd" d="M193.806 138.322C192.035 142.867 189.321 150.171 188.768 151.868C188.215 153.565 193.007 161.967 195.653 169.51C196.296 171.334 187.886 171.125 181.853 170.841C176.62 170.594 173.241 170.601 171.103 170.497C170.58 170.497 170.139 170.437 169.757 170.392C172.643 155.77 181.517 145.566 187.497 141.379C189.393 139.978 191.532 138.941 193.806 138.322Z" fill="#A4D0DC"/>
<path fill-rule="evenodd" clip-rule="evenodd" d="M167.619 133.388C167.635 132.174 167.905 130.977 168.412 129.874C170.587 124.858 174.25 119.453 175.416 115.394C176.41 114.731 177.534 114.288 178.713 114.093C178.452 117.323 178.713 121.935 182.1 122.316C186.249 122.765 190.869 117.704 193.268 113.779L193.971 114.026L195.556 114.721C194.13 118.5 193.531 122.54 193.799 126.57C187.475 133.193 176.037 135.414 167.597 133.395L167.619 133.388Z" fill="#A4D0DC"/>
<path fill-rule="evenodd" clip-rule="evenodd" d="M193.821 126.563C193.958 128.801 194.763 130.946 196.131 132.722C195.713 133.464 195.358 134.239 195.07 135.04L193.806 138.322C191.532 138.941 189.393 139.978 187.497 141.379C181.516 145.566 172.643 155.77 169.757 170.392C167.462 170.138 167.305 169.473 167.709 167.402C168.614 162.774 170.094 156.368 169.869 148.825C169.742 144.399 169.869 140.101 169.869 140.101C169.922 138.651 167.627 136.759 167.627 133.373C176.052 135.391 187.497 133.178 193.829 126.548L193.821 126.563Z" fill="#C2E2ED"/>
<path d="M190.913 115.783C191.585 114.932 192.406 114.21 193.335 113.652C193.687 113.465 195.683 113.974 195.07 114.474C190.741 118.078 188.693 123.445 186.974 129.104C183.079 142.007 183.094 155.807 183.722 169.405C183.717 169.611 183.662 169.813 183.564 169.994C183.465 170.174 183.324 170.329 183.154 170.444C182.996 170.513 182.824 170.544 182.653 170.535C182.481 170.526 182.314 170.476 182.165 170.39C182.016 170.304 181.889 170.185 181.794 170.041C181.7 169.897 181.641 169.733 181.621 169.562C180.948 155.493 180.971 141.155 185.187 127.766C186.525 123.512 188.259 119.214 190.913 115.805V115.783Z" fill="#322875"/>
<path fill-rule="evenodd" clip-rule="evenodd" d="M182.115 110.617C182.115 108.374 181.853 105.22 181.853 105.22C181.853 105.22 188.065 95.6956 188.207 101.168C188.26 103.156 188.207 105.085 188.357 106.797C186.726 108.691 184.543 110.027 182.115 110.617Z" fill="#934624"/>
<path fill-rule="evenodd" clip-rule="evenodd" d="M202.904 149.632C200.594 151.755 191.519 156.839 188.245 157.594C184.97 158.349 179.64 156.6 179.872 159.373C180.149 162.677 180.418 163.343 184.148 162.363C187.878 161.384 194.659 161.534 200.213 159.373C204.108 157.878 207.36 156.525 208.892 155.007C209.55 154.364 209.894 154.05 209.64 152.077C209.363 149.573 205.155 147.502 202.867 149.632H202.904Z" fill="#AA633F"/>
<path fill-rule="evenodd" clip-rule="evenodd" d="M187.557 82.419C191.646 83.6974 193.193 90.4105 190.996 97.3703C188.798 104.33 183.707 108.987 179.618 107.672C175.529 106.356 173.981 99.6802 176.171 92.7204C178.362 85.7606 183.468 81.1257 187.557 82.4115V82.419Z" fill="#AA633F"/>
<path fill-rule="evenodd" clip-rule="evenodd" d="M180.717 173.943C180.926 177.98 182.601 188.326 183.057 191.406C183.513 194.486 185.434 198.702 197.731 196.998C210.029 195.293 210.903 193.432 210.44 187.668C209.976 181.905 208.526 171.543 207.098 168.852C205.67 166.161 189.209 165.271 185.561 165.787C184.347 166.002 183.115 166.095 181.883 166.064C181.6 166.278 181.398 166.58 181.307 166.923C180.751 169.219 180.562 171.588 180.747 173.943H180.717Z" fill="#322875"/>
<path fill-rule="evenodd" clip-rule="evenodd" d="M193.343 164.486C198.509 163.926 203.256 163.559 204.594 163.44C206.089 163.305 207.719 163.724 208.451 167.514C208.993 169.954 209.358 172.43 209.543 174.922C209.543 176.193 209.655 176.417 205.057 177.344C200.46 178.271 192.581 178.78 190.151 179.146C187.721 179.512 186.413 178.72 185.808 174.429C185.202 170.138 183.804 166.684 181.831 166.086C181.831 166.086 188.035 165.054 193.321 164.486H193.343Z" fill="#4C266E"/>
<path fill-rule="evenodd" clip-rule="evenodd" d="M200.804 173.666C201.798 173.532 202.658 173.801 202.725 174.279C202.792 174.758 202.037 175.259 201.043 175.401C200.049 175.543 199.182 175.266 199.114 174.788C199.047 174.309 199.802 173.808 200.804 173.666Z" fill="white"/>
<path fill-rule="evenodd" clip-rule="evenodd" d="M175.813 90.3955C175.813 90.3955 182.795 88.7434 186.226 85.5812C186.226 85.5812 184.514 91.4496 192.446 96.2564C201.536 101.751 197.103 88.0332 197.103 88.0332L195.249 85.2448L192.446 81.0884H183.057C181.285 82.072 179.73 83.4034 178.485 85.0027C177.24 86.6021 176.331 88.4363 175.813 90.3955Z" fill="#4C266E"/>
<path fill-rule="evenodd" clip-rule="evenodd" d="M105.22 265.751C105.22 267.351 105.303 270.236 105.415 271.836C105.49 272.935 105.587 273.331 110.909 273.286C116.232 273.241 117.899 273.57 117.862 271.836C117.824 270.102 111.014 270.692 110.909 266.282C110.805 261.871 105.183 263.867 105.22 265.751Z" fill="#322875"/>
<path fill-rule="evenodd" clip-rule="evenodd" d="M84.7969 269.75C84.5652 273.668 81.8067 275.544 76.7233 279.08C74.0545 280.941 71.9164 280.037 72.3874 277.831C72.8584 275.626 78.4501 271.926 78.951 269.75C79.4519 267.575 84.8866 268.158 84.7969 269.75Z" fill="#322875"/>
<path fill-rule="evenodd" clip-rule="evenodd" d="M106.416 198.71C101.52 215.321 87.0173 264.66 86.0679 268.3C84.9316 272.718 85.724 272.21 80.8349 271.56C77.0597 271.051 77.2691 271.261 77.598 268.876C77.8073 267.343 82.4347 237.957 86.0679 215.388C94.3882 200.437 100.272 199.831 103.591 199.255C105.026 199.009 105.886 198.867 106.402 198.71H106.416Z" fill="#365CAA"/>
<path fill-rule="evenodd" clip-rule="evenodd" d="M126.975 178.862C124.694 196.265 112.711 262.103 112.263 264.532C111.769 267.149 112.263 267.612 108.016 267.523C103.77 267.433 104.024 267.844 104.077 264.532C104.122 261.542 107.336 205.154 107.927 194.867C109.355 193.372 112.412 192.968 114.961 192.124C118.639 190.883 120.942 187.728 115.709 189.059C105.318 191.682 99.3223 187.257 99.3522 184.708C99.3821 182.159 107.321 181.643 118.168 181.119C122.467 180.918 125.195 180.125 126.997 178.877L126.975 178.862Z" fill="#365CAA"/>
<path fill-rule="evenodd" clip-rule="evenodd" d="M111.179 166.893C119.761 168.067 127.625 171.117 127.318 175.759C127.266 176.507 127.147 177.531 126.975 178.862C125.173 180.125 122.444 180.918 118.146 181.105C107.299 181.628 99.3597 182.144 99.3298 184.693C99.2999 187.242 105.31 191.668 115.686 189.044C120.919 187.713 118.677 190.868 114.939 192.109C112.42 192.953 109.332 193.32 107.904 194.852L107.994 193.252L106.394 198.695C105.878 198.852 105.019 198.994 103.583 199.24C100.294 199.816 94.3809 200.399 86.0605 215.373C88.0491 202.903 89.7386 192.52 90.217 190.053C91.4804 183.452 89.8432 178.368 90.1721 171.536L103.583 167.372C103.583 167.372 106.865 167.05 111.156 166.878L111.179 166.893Z" fill="#2A4C90"/>
<path fill-rule="evenodd" clip-rule="evenodd" d="M117.742 125.493L117.219 124.746C117.219 124.746 115.873 106.191 118.146 106.057C120.418 105.922 124.321 106.244 127.356 111.357C130.391 116.47 137.687 137.312 142.509 139.151C143.152 139.391 146.65 140.878 143.324 146.223L142.928 146.754C140.453 146.485 136.267 148.249 134.704 146.223C132.462 143.308 127.976 128.424 123.319 120.268C120.329 115.035 118.579 120.754 117.735 125.501L117.742 125.493Z" fill="#F6E5E7"/>
<path fill-rule="evenodd" clip-rule="evenodd" d="M117.742 125.494C118.587 120.769 120.321 115.028 123.326 120.261C127.976 128.417 132.125 138.247 134.203 141.267C137.194 145.588 140.453 146.5 142.927 146.747C139.623 151.09 133.575 147.233 130.877 143.413C128.447 139.974 119.94 128.461 117.742 125.471V125.494Z" fill="#D4C1DB"/>
<path fill-rule="evenodd" clip-rule="evenodd" d="M87.0098 129.912L87.2116 124.073C87.2938 119.947 86.8453 118.324 88.2358 116.441C90.1794 113.802 94.3882 111.626 96.8626 110.034C97.513 109.615 98.0438 109.286 98.4549 108.935C100.286 109.974 102.851 108.494 105.512 108.045C108.173 107.597 110.663 107.642 111.605 105.803C112.465 105.981 113.342 106.069 114.221 106.064C118.056 105.967 119.379 106.064 119.379 106.064C121.263 108.389 123.558 115.91 126.003 126.189C128.447 136.468 127.498 164.875 127.685 170.706C127.871 176.537 127.939 176.35 124.268 176.851C115.697 177.891 107.027 177.808 98.4774 176.604C97.7896 170.983 98.4325 160.337 99.2249 147.861C100.189 132.438 98.3802 125.247 96.8776 121.472C95.9431 119.132 90.7849 125.075 87.0247 129.904L87.0098 129.912Z" fill="#F6E5E7"/>
<path fill-rule="evenodd" clip-rule="evenodd" d="M87.5108 80.0119C87.5108 80.0119 85.5298 72.2821 92.8334 70.6898C100.137 69.0975 98.9186 72.8353 103.06 72.7456C105.624 72.6932 108.487 73.6277 109.788 75.4368C112.165 78.7261 110.596 81.6117 110.76 82.0378C110.924 82.4639 113.317 83.0918 114.034 88.4518C114.887 94.8285 107.687 98.6262 104.256 100.039C100.825 101.452 94.7023 102.506 90.6805 99.0224C86.6586 95.5387 88.7742 92.3466 86.7632 90.1638C84.7523 87.9809 82.6741 81.9406 87.5108 80.0119Z" fill="#F05553"/>
<path fill-rule="evenodd" clip-rule="evenodd" d="M99.554 107.963C100.623 106.662 100.04 105.309 99.2101 101.168C97.9991 95.105 107.074 98.7756 107.074 98.7756C107.39 100.364 107.892 101.91 108.57 103.381C108.278 108.957 102.776 108.389 99.5989 107.963H99.554Z" fill="#FAB082"/>
<path fill-rule="evenodd" clip-rule="evenodd" d="M108.54 103.381C108.78 103.918 109.092 104.421 109.467 104.876C110.058 105.415 110.808 105.751 111.605 105.833C110.663 107.634 108.614 109.002 105.834 109.802C103.351 110.445 100.718 110.133 98.4551 108.927C98.8557 108.645 99.2242 108.319 99.554 107.956C102.41 107.956 106.529 107.313 108.525 103.373L108.54 103.381Z" fill="#FCCAA6"/>
<path fill-rule="evenodd" clip-rule="evenodd" d="M96.915 76.7077C101.617 75.2126 107.276 79.9596 109.556 87.2408C111.836 94.5221 109.863 101.631 105.168 103.104C100.473 104.577 94.7994 99.8522 92.5269 92.5635C90.2543 85.2748 92.2129 78.1729 96.915 76.7077Z" fill="#FCCAA6"/>
<path fill-rule="evenodd" clip-rule="evenodd" d="M87.0098 129.912C90.7476 125.082 95.9282 119.139 96.8627 121.479C98.3578 125.217 100.174 132.446 99.21 147.868C98.4625 160.345 97.7897 170.99 98.4625 176.612C94.7919 176.141 91.8241 175.588 89.9253 175.221C85.2531 174.317 86.4492 144.571 86.9949 129.912H87.0098Z" fill="#D4C1DB"/>
<path fill-rule="evenodd" clip-rule="evenodd" d="M82.2179 163.739C82.046 162.423 81.9264 161.13 81.874 159.896C81.3208 146.934 82.6216 129.994 84.4307 124.215C87.7798 113.607 92.153 112.949 94.5901 113.989C99.666 116.142 99.0754 123.655 96.8327 132.999C94.5901 142.344 91.9213 154.574 92.0409 161.571V162.7C88.8161 163.415 85.5209 163.763 82.2179 163.739Z" fill="#F6E5E7"/>
<path fill-rule="evenodd" clip-rule="evenodd" d="M92.1008 162.7C92.2503 170.086 92.7885 183.99 93.3866 189.186C94.022 194.665 95.106 200.728 90.8075 203.674C88.3779 205.348 89.0208 195.226 89.3124 193.559C89.5815 192.064 83.7356 176.365 82.218 163.739C85.5411 163.771 88.857 163.422 92.1008 162.7Z" fill="#FCCAA6"/>
<path fill-rule="evenodd" clip-rule="evenodd" d="M146.426 111.006C151.121 107.844 153.154 106.789 153.453 109.735C153.752 112.68 152.75 112.187 149.491 114.108C146.232 116.029 145.312 116.351 145.536 119.027C145.761 121.703 146.03 136.557 144.684 142.949C142.621 142.418 140.785 141.232 139.451 139.57C138.27 138.075 137.089 136.699 138.494 129.56C139.339 125.269 140.782 119.266 141.223 117.495C142.015 114.332 141.739 114.183 146.456 111.021L146.426 111.006Z" fill="#FCCAA6"/>
<path fill-rule="evenodd" clip-rule="evenodd" d="M92.4595 94.8211C92.4595 94.8211 96.7878 87.4203 93.3864 83.6825C93.3864 83.6825 98.0288 84.9458 100.937 84.3179C103.845 83.6899 104.959 80.8866 105.953 82.1873C106.947 83.4881 110.132 89.1098 111.291 89.1172C112.449 89.1247 106.401 76.4087 106.401 76.4087L92.4595 73.1418L87.4209 82.606L92.4595 94.8211Z" fill="#F05553"/>
<path d="M220.27 286.227L238.212 286.077C238.212 286.077 241.561 282.272 240.589 278.998C239.617 275.723 236.051 280.269 234.938 281.644C233.824 283.02 234.571 275.021 231.895 272.673C229.219 270.326 228.456 276.172 228.621 279.82C228.785 283.468 225.855 277.428 223.171 273.735C220.487 270.042 218.566 272.105 219.351 274.632C220.136 277.159 222.692 280.986 222.117 282.167C221.541 283.349 218.379 279.536 216.839 280.852C215.299 282.167 216.024 284.403 220.27 286.227Z" fill="#71CDDF"/>
<path d="M226.363 254.096L225.84 254.117L227.055 285.169L227.578 285.149L226.363 254.096Z" fill="#71CDDF" stroke="#71CDDF" stroke-width="0.5" stroke-miterlimit="10"/>
<path d="M226.804 272.322C226.804 272.322 225.167 266.954 223.313 268.45C221.459 269.945 226.804 272.322 226.804 272.322Z" fill="#71CDDF"/>
<path d="M226.804 266.342C226.804 266.342 228.015 260.862 229.981 262.208C231.947 263.553 226.804 266.342 226.804 266.342Z" fill="#71CDDF"/>
<path d="M226.699 255.689C227.634 255.899 228.59 255.997 229.548 255.98C230.475 255.921 232.119 255.046 232.089 253.446C232.059 251.846 231.805 250.456 232.508 249.79C233.037 249.153 233.342 248.36 233.377 247.532C233.412 246.704 233.175 245.888 232.702 245.208C231.431 243.489 230.004 243.713 229.286 243.302C228.568 242.891 227.417 239.975 224.92 240.072C222.423 240.169 221.99 242.756 221.75 243.533C221.511 244.311 218.491 244.692 217.968 247.451C217.445 250.209 219.956 251.383 219.971 251.884C219.986 252.385 218.999 255.188 221.586 256.324C224.173 257.46 225.443 255.592 226.699 255.689Z" fill="#F05553"/>
<path d="M225.69 251.076C226.85 251.076 227.791 250.136 227.791 248.976C227.791 247.815 226.85 246.875 225.69 246.875C224.53 246.875 223.589 247.815 223.589 248.976C223.589 250.136 224.53 251.076 225.69 251.076Z" fill="white"/>
<path d="M238.892 285.913L256.833 286.466C256.833 286.466 260.324 282.796 259.48 279.484C258.635 276.172 254.897 280.583 253.731 281.913C252.565 283.244 253.619 275.275 251.04 272.846C248.461 270.416 247.466 276.202 247.489 279.858C247.511 283.513 244.82 277.361 242.256 273.563C239.692 269.766 237.718 271.754 238.406 274.311C239.094 276.867 241.493 280.792 240.873 281.951C240.252 283.11 237.262 279.177 235.64 280.456C234.018 281.734 234.713 283.932 238.892 285.913Z" fill="#71CDDF"/>
<path d="M246.081 258.241L244.471 284.349L244.911 284.376L246.521 258.268L246.081 258.241Z" fill="#71CDDF" stroke="#71CDDF" stroke-width="0.5" stroke-miterlimit="10"/>
<path d="M245.47 271.522C245.47 271.522 244.386 266.02 242.39 267.321C240.394 268.622 245.47 271.522 245.47 271.522Z" fill="#71CDDF"/>
<path d="M245.47 271.522C245.47 271.522 247.227 266.192 249.051 267.732C250.875 269.272 245.47 271.522 245.47 271.522Z" fill="#71CDDF"/>
<path d="M246.667 258.679C247.575 258.98 248.516 259.173 249.47 259.255C250.404 259.255 252.124 258.582 252.251 257.012C252.378 255.442 252.251 254.022 253.043 253.416C253.631 252.834 254.012 252.075 254.128 251.256C254.244 250.436 254.089 249.601 253.686 248.879C252.602 247.04 251.159 247.152 250.487 246.636C249.814 246.12 248.991 243.137 246.465 242.98C243.938 242.823 243.28 245.358 242.966 246.105C242.652 246.853 239.602 246.935 238.802 249.626C238.002 252.317 240.387 253.738 240.357 254.231C240.327 254.725 239.056 257.431 241.516 258.814C243.975 260.197 245.426 258.462 246.667 258.679Z" fill="#F05553"/>
<path d="M246.33 253.999C247.49 253.999 248.431 253.059 248.431 251.899C248.431 250.739 247.49 249.798 246.33 249.798C245.17 249.798 244.229 250.739 244.229 251.899C244.229 253.059 245.17 253.999 246.33 253.999Z" fill="white"/>
<defs>
<linearGradient id="paint0_linear" x1="166.92" y1="27.5344" x2="316.57" y2="183.803" gradientUnits="userSpaceOnUse">
<stop offset="0.390625" stop-color="#43C4D9"/>
<stop offset="1" stop-color="white" stop-opacity="0.32"/>
</linearGradient>
</defs>
</svg>
