<svg width="304" height="287" viewBox="0 0 304 287" fill="none" xmlns="http://www.w3.org/2000/svg">
<mask id="mask0" mask-type="alpha" maskUnits="userSpaceOnUse" x="0" y="0" width="304" height="285">
<rect x="0.16626" width="303.489" height="284.034" fill="#C4C4C4"/>
</mask>
<g mask="url(#mask0)">
<path opacity="0.2" fill-rule="evenodd" clip-rule="evenodd" d="M160.631 35.0741C187.666 33.6239 215.377 29.8624 239.481 43.4043C266.056 58.3342 290.888 81.7165 299.554 113.122C308.16 144.309 295.173 176.619 284.65 207.087C274.638 236.075 262.919 264.877 240.599 283.822C217.857 303.124 189.356 312.607 160.631 312.351C132.069 312.098 104.933 300.524 81.5971 282.409C58.0022 264.092 36.2611 240.571 28.684 209.92C21.2807 179.972 30.8749 148.946 41.4964 120.193C51.4419 93.2708 65.0212 67.4055 87.1784 51.5747C108.66 36.2264 135.045 36.4467 160.631 35.0741Z" fill="url(#paint0_linear)" fill-opacity="0.5"/>
</g>
<circle cx="30.091" cy="18.1315" r="18.1315" fill="#43C4D9"/>
<path d="M31.5185 16.3282C33.3292 16.5522 34.7105 17.1682 35.6625 18.1762C36.6145 19.1842 37.0905 20.4442 37.0905 21.9562C37.0905 23.0948 36.8012 24.1308 36.2225 25.0642C35.6439 25.9975 34.7665 26.7442 33.5905 27.3042C32.4332 27.8455 31.0145 28.1162 29.3345 28.1162C27.9345 28.1162 26.5812 27.9202 25.2745 27.5282C23.9865 27.1175 22.8852 26.5575 21.9705 25.8482L23.5385 23.0202C24.2479 23.6175 25.1065 24.0935 26.1145 24.4482C27.1412 24.7842 28.1959 24.9522 29.2785 24.9522C30.5665 24.9522 31.5745 24.6908 32.3025 24.1682C33.0492 23.6268 33.4225 22.8988 33.4225 21.9842C33.4225 21.0695 33.0679 20.3602 32.3585 19.8562C31.6679 19.3335 30.6039 19.0722 29.1665 19.0722H27.3745V16.5802L31.8265 11.2882H22.9225V8.23618H36.2785V10.6722L31.5185 16.3282Z" fill="white"/>
<path d="M15.916 284.438H282.268C282.268 284.438 278.529 256.048 257.78 252.033C237.031 248.018 220.305 253.655 207.944 262.951C195.582 272.246 165.805 250.443 136.021 250.784C106.236 251.125 89.0073 266.017 69.1913 269.781C49.3753 273.544 31.4654 267.591 15.916 284.438Z" fill="#C4E8F0"/>
<path d="M216.842 177.758H211.748V227.829H216.842V177.758Z" fill="#C4E8F0"/>
<path d="M232.497 187.621H48.2639V203.154H232.497V187.621Z" fill="#C4E8F0"/>
<path d="M232.367 165.477H48.1343V181.01H232.367V165.477Z" fill="#C4E8F0"/>
<path d="M241.046 226.539H47.0959V235.997H241.046V226.539Z" fill="#C4E8F0"/>
<path d="M237.031 235.421H232.448V284.43H237.031V235.421Z" fill="#C4E8F0"/>
<path d="M67.9015 178.617H62.8076V228.689H67.9015V178.617Z" fill="#C4E8F0"/>
<path d="M177.283 128.295C176.123 127.078 169.618 127.094 167.728 132.691C166.008 137.785 165.294 139.934 162.382 144.347C159.47 148.759 150.726 149.854 145.349 155.435C138.705 162.338 142.364 178.22 152.032 180.848C157.759 182.405 192.492 177.263 205.356 171.925C209.031 170.401 212.113 168.924 211.472 156.952C211.156 151.031 202.039 146.699 198.097 140.729C194.657 135.514 195.014 130.501 189.937 127.865C185.11 125.334 180.722 124.279 177.283 128.295Z" fill="#4C266E"/>
<path d="M189.766 154.056C188.323 156.102 186.308 157.676 183.975 158.582C179.23 160.472 173.122 158.68 169.788 156.149C170.113 158.363 176.78 162.476 181.582 162.468C186.384 162.459 190.999 160.943 192.127 156.019C191.292 155.425 190.503 154.769 189.766 154.056Z" fill="#AA633F"/>
<path d="M183.975 158.59C186.308 157.684 188.323 156.11 189.766 154.064C188.747 153.18 187.889 152.126 187.227 150.949C185.93 145.766 176.731 149.919 175.563 151.712C174.566 153.261 170.559 155.703 169.788 156.189C173.122 158.68 179.23 160.472 183.975 158.59Z" fill="#934624"/>
<path d="M197.48 161.024C199.492 164.641 200.725 174.31 202.704 185.431C203.58 190.427 203.791 196.965 203.969 199.39C201.471 200.161 196.669 189.851 194.292 182.357C193.222 178.901 189.426 173.434 192.005 166.393C192.922 163.944 195.566 161.024 197.48 161.024Z" fill="#934624"/>
<path d="M163.453 161.073C161.312 164.658 158.164 173.864 155.642 185.106C154.531 190.054 153.087 193.786 152.486 196.138C154.823 197.33 161.547 188.254 165.14 181.286C166.762 178.041 169.788 172.071 168.433 164.698C167.955 162.103 165.335 161.413 163.453 161.073Z" fill="#934624"/>
<path d="M195.801 226.596C196.78 225.717 197.572 224.649 198.129 223.457C197.756 219.515 196.077 215.532 192.897 214.356C185.597 211.687 184.964 214.964 180.917 215.508C179.002 215.759 178.589 213.074 173.657 213.885C166.284 215.005 160.468 221.324 159.397 226.328C159.835 226.693 160.257 227.018 160.655 227.326C169.196 227.358 186.627 227.999 195.801 226.596Z" fill="#D4C1DB"/>
<path d="M181.168 176.265C188.793 175.648 190.991 175.324 195.331 172.258C194.722 170.206 194 168.754 194.292 166.896C194.901 163.108 195.793 162.881 197.48 161.04C196.555 159.223 193.627 156.984 191.972 155.93C191.113 158.363 185.118 161.835 182.125 161.835C180.852 161.835 176.626 162.646 170.275 155.873C168.952 156.636 164.418 159.207 163.453 161.072C164.864 161.616 165.708 161.681 166.819 164.179C167.809 166.377 167.152 168.9 166.552 171.877C169.593 174.618 174.176 176.825 181.168 176.265Z" fill="#EFE6E8"/>
<path d="M189.45 195.505C189.542 193.163 190.116 190.866 191.137 188.756C189.634 189.195 188.203 189.848 186.887 190.695C184.332 192.212 177.761 199.196 174.136 199.918C169.196 200.891 165.213 205.595 164.572 207.794C163.932 209.992 166.032 212.66 169.95 214.883C171.141 214.394 172.385 214.049 173.657 213.853C178.589 213.098 179.002 215.759 180.917 215.475C184.972 214.932 185.629 211.655 192.897 214.323C196.077 215.499 197.764 219.482 198.129 223.424C200.725 218.233 197.772 211.119 195.314 206.553C192.759 201.848 189.352 200.064 189.45 195.505Z" fill="#EFE6E8"/>
<path d="M164.572 207.794C165.229 205.612 169.196 200.891 174.136 199.918C177.761 199.196 184.332 192.212 186.887 190.695C188.203 189.848 189.635 189.195 191.137 188.756C191.382 188.272 191.652 187.8 191.948 187.345C195.752 181.18 196.482 177.782 195.866 174.286C195.739 173.601 195.574 172.924 195.371 172.258C191.032 175.324 188.833 175.648 181.209 176.265C174.249 176.825 169.634 174.643 166.608 171.877C166.183 173.789 165.968 175.742 165.968 177.701C165.899 178.544 166.018 179.392 166.315 180.184C166.613 180.976 167.081 181.693 167.687 182.284C169.537 184.433 170.705 191.936 169.415 194.232C167.979 196.77 167.355 196.9 163.202 200.818C158.757 205.012 153.719 212.985 155.463 219.936C156.027 222.45 157.436 224.695 159.454 226.296C160.338 222.167 164.459 217.146 169.999 214.883C166.065 212.644 163.899 210.049 164.572 207.794Z" fill="#D4C1DB"/>
<path d="M189.588 143.39C189.912 150.13 186.506 156.822 181.923 157.033C177.34 157.244 173.317 150.917 173 144.185C172.684 137.452 176.188 132.829 180.771 132.642C185.354 132.456 189.231 136.69 189.588 143.39Z" fill="#AA633F"/>
<path d="M176.521 138.928C176.521 138.928 179.441 145.361 183.464 146.318C186.059 146.942 188.947 146.577 190.091 142.757C191.81 144.858 190.318 150.617 190.318 150.617C190.318 150.617 195.233 132.204 186.141 129.633C177.048 127.062 169.845 135.927 169.829 140.745C169.812 145.564 173.276 150.941 173.276 150.941C173.276 150.941 171.102 146.269 173.398 146.61C176.837 147.088 176.61 142.546 176.521 138.928Z" fill="#4C266E"/>
<path d="M56.8377 234.277H52.2548V284.438H56.8377V234.277Z" fill="#C4E8F0"/>
<path d="M240.292 226.782H236.853L244.112 191.871H247.998L240.292 226.782Z" fill="#C4E8F0"/>
<path d="M48.5073 226.782H51.9465L44.6788 191.871H40.7935L48.5073 226.782Z" fill="#C4E8F0"/>
<path d="M170.177 179.526C165.603 184.839 158.205 187.507 156.307 188.927C154.869 189.92 153.758 191.316 153.112 192.94C152.467 194.564 152.317 196.343 152.681 198.052C153.135 199.609 156.072 199.674 157.84 199.244C163.445 197.995 168.004 188.197 171.8 182.843C172.846 181.375 170.997 180.207 170.177 179.526Z" fill="#AA633F"/>
<path d="M211.975 219.166C220.273 220.123 227.581 213.537 230.291 208.621C229.935 207.428 229.197 206.384 228.19 205.651C227.183 204.918 225.963 204.537 224.718 204.565L204.351 204.93C203.269 204.946 202.213 205.27 201.31 205.865C200.406 206.46 199.691 207.301 199.249 208.289C201.382 213.042 205.875 218.468 211.975 219.166Z" fill="#72CDDF"/>
<path d="M233.105 221.445L230.396 209.059C230.396 208.921 230.331 208.783 230.29 208.654C227.581 213.52 220.273 220.123 211.975 219.198C209.846 218.931 207.818 218.133 206.078 216.878C206.362 220.812 207.287 224.625 207.944 228.388H227.524C228.381 228.395 229.229 228.208 230.003 227.841C230.778 227.474 231.459 226.936 231.996 226.268C232.533 225.6 232.911 224.819 233.103 223.984C233.296 223.148 233.296 222.281 233.105 221.445Z" fill="#43C4D9"/>
<path d="M199.248 208.297C199.038 208.765 198.891 209.258 198.81 209.765L196.945 221.761C196.812 222.579 196.86 223.417 197.085 224.214C197.311 225.012 197.708 225.75 198.249 226.378C198.79 227.005 199.462 227.507 200.218 227.847C200.973 228.188 201.794 228.359 202.623 228.348H207.984C207.327 224.584 206.403 220.772 206.119 216.838C203.121 214.641 200.752 211.696 199.248 208.297Z" fill="#43C4D9"/>
<path d="M205.381 204.979C207.676 198.668 212.819 187.799 221.482 189.405C225.878 190.216 226.024 200.153 225.351 204.817C225.261 205.466 223.12 205.563 223.25 204.768C224.207 199.042 223.25 192.342 220.387 191.676C214.652 190.338 209.842 200.372 207.863 204.963C207.514 205.806 205.153 205.636 205.381 204.979Z" fill="#4C266E"/>
<path d="M173.681 279.32C174.89 281.858 168.677 282.71 167.192 279.822C167.192 278.898 167.298 275.199 167.119 272.214C167.071 271.297 169.748 268.386 170.818 270.592C170.632 271.687 172.019 277.754 173.681 279.32Z" fill="#934624"/>
<path d="M187.722 180.734C191.307 186.753 198.502 190.046 200.124 191.766C203.872 195.546 204.391 198.798 203.807 199.983C203.085 201.443 200.27 201.8 198.591 201.11C193.295 198.912 188.371 189.641 185.548 183.719C184.778 182.113 186.798 181.254 187.722 180.734Z" fill="#AA633F"/>
<path d="M190.983 234.237C194.098 226.831 195.85 217.479 190.285 215.313C186.587 213.893 181.996 219.75 180.552 224.503C176.05 239.687 168.701 263.34 166.998 272.271C167.663 273.122 167.387 270.77 170.753 270.997C171.175 264.987 184.34 250.013 190.983 234.237Z" fill="#934624"/>
<path d="M180.787 230.035C182.774 221.778 181.598 217.422 177.989 216.019C174.379 214.615 170.348 218.906 168.936 223.66C164.435 238.844 164.743 263.754 163.039 272.693C163.705 273.544 164.272 271.881 167.63 272.133C170.364 263.227 176.772 246.728 180.787 230.035Z" fill="#AA633F"/>
<path d="M173.665 284.438H167.687C167.583 284.352 167.493 284.251 167.42 284.138C166.771 283.221 167.055 281.38 167.144 279.814C168.839 281.437 172.57 281.721 173.633 279.312C174.882 280.609 175.109 281.242 174.882 282.905C174.81 283.237 174.663 283.547 174.452 283.813C174.241 284.079 173.972 284.293 173.665 284.438Z" fill="#322875"/>
<path d="M160.979 284.438H166.957C167.057 284.348 167.146 284.247 167.225 284.138C167.866 283.221 167.59 281.38 167.492 279.814C165.797 281.437 162.066 281.721 161.003 279.312C159.754 280.609 159.527 281.242 159.754 282.905C159.827 283.237 159.975 283.549 160.188 283.814C160.4 284.08 160.671 284.294 160.979 284.438Z" fill="#322875"/>
<path d="M160.971 279.312C160.16 281.996 166.397 282.897 167.46 279.823C167.411 279.011 166.876 274.542 167.841 271.395C168.109 270.519 164.013 268.742 163.258 271.062C162.82 273.812 162.374 277.527 160.971 279.312Z" fill="#AA633F"/>
<path d="M181.858 165.939H178.07C177.268 165.939 176.618 166.589 176.618 167.391V177.676C176.618 178.478 177.268 179.128 178.07 179.128H181.858C182.659 179.128 183.31 178.478 183.31 177.676V167.391C183.31 166.589 182.659 165.939 181.858 165.939Z" fill="#322875"/>
<path d="M187.154 174.237C186.838 173.102 183.537 170.538 183.099 170.717C182.531 171.017 185.532 173.41 185.297 173.661C185.062 173.913 182.052 170.027 181.533 170.717C181.355 170.96 184.607 174.253 184.396 174.245C184.396 174.245 181.46 171.001 181.152 171.163C180.552 171.301 183.658 174.651 183.537 174.805C183.415 174.959 181.387 172.177 180.99 172.485C180.803 172.688 182.012 174.107 183.35 176.119C184.396 176.435 186.976 175.519 187.154 174.237Z" fill="#AA633F"/>
<path d="M187.811 180.888C187.041 179.266 187.39 174.975 187.162 174.237C186.092 173.296 183.983 174.886 183.31 176.119C184.932 180.11 183.042 180.564 185.508 183.606C186.421 182.834 187.2 181.916 187.811 180.888Z" fill="#AA633F"/>
<path d="M171.881 173.288C172.619 171.909 175.936 170.352 176.366 170.611C176.853 170.993 173.568 172.785 173.771 173.045C173.974 173.304 177.486 170.1 177.826 170.855C177.956 171.122 174.298 173.734 174.501 173.759C174.501 173.799 177.843 171.179 178.143 171.325C178.702 171.56 175.174 174.245 175.263 174.416C175.352 174.586 177.753 172.258 178.086 172.631C178.232 172.85 176.78 174.002 175.174 175.689C174.103 175.9 171.84 174.553 171.881 173.288Z" fill="#AA633F"/>
<path d="M170.064 179.68C171.094 178.26 171.532 174.002 171.881 173.296C173.097 172.55 174.841 174.278 175.296 175.608C173.008 179.266 174.817 180.191 171.865 182.762C171.097 181.842 170.488 180.8 170.064 179.68Z" fill="#AA633F"/>
<path d="M270.085 285.598L289.552 286.198C289.552 286.198 293.34 282.216 292.423 278.622C291.507 275.029 287.451 279.815 286.186 281.258C284.92 282.702 286.064 274.056 283.266 271.419C280.467 268.783 279.388 275.061 279.413 279.028C279.437 282.994 276.517 276.319 273.735 272.198C270.953 268.077 268.811 270.235 269.557 273.009C270.304 275.783 272.907 280.042 272.234 281.299C271.561 282.556 268.325 278.29 266.556 279.677C264.788 281.064 265.559 283.448 270.085 285.598Z" fill="#71CDDF"/>
<path d="M15.5023 286.352L34.9695 286.953C34.9695 286.953 38.7575 282.962 37.841 279.377C36.9244 275.791 32.8687 280.569 31.6033 282.005C30.338 283.44 31.4817 274.81 28.6833 272.166C25.8848 269.521 24.806 275.816 24.8304 279.782C24.8547 283.749 21.9346 277.073 19.1524 272.952C16.3702 268.832 14.2288 270.981 14.9751 273.763C15.7213 276.546 18.3251 280.788 17.6518 282.045C16.9786 283.302 13.7422 279.036 11.9739 280.423C10.2056 281.81 10.9762 284.195 15.5023 286.352Z" fill="#71CDDF"/>
<path d="M23.4109 257.119H22.9324V285.501H23.4109V257.119Z" fill="#71CDDF" stroke="#71CDDF" stroke-width="0.5" stroke-miterlimit="10"/>
<path d="M23.1756 271.549C23.1756 271.549 21.6264 265.66 19.5499 267.21C17.4734 268.759 23.1756 271.549 23.1756 271.549Z" fill="#71CDDF"/>
<path d="M23.1757 271.549C23.1757 271.549 24.7168 265.66 26.7933 267.21C28.8698 268.759 23.1757 271.549 23.1757 271.549Z" fill="#71CDDF"/>
<path d="M23.6056 257.549C24.6121 257.815 25.6469 257.959 26.6879 257.979C27.6937 257.979 29.5106 257.078 29.5431 255.343C29.5755 253.607 29.3646 252.098 30.1595 251.392C30.7589 250.724 31.1223 249.877 31.1941 248.981C31.2659 248.086 31.0421 247.192 30.557 246.436C29.251 244.514 27.6937 244.733 26.9393 244.23C26.185 243.727 25.0575 240.515 22.3402 240.515C19.6229 240.515 19.047 243.305 18.755 244.141C18.463 244.976 15.1698 245.26 14.4884 248.197C13.8071 251.133 16.4757 252.536 16.4757 253.063C16.4757 253.591 15.2833 256.608 18.0331 257.93C20.7828 259.252 22.251 257.411 23.6056 257.549Z" fill="#F05553"/>
<path d="M22.7944 252.52C24.0532 252.52 25.0737 251.5 25.0737 250.241C25.0737 248.982 24.0532 247.961 22.7944 247.961C21.5356 247.961 20.5151 248.982 20.5151 250.241C20.5151 251.5 21.5356 252.52 22.7944 252.52Z" fill="white"/>
<path d="M149.031 141.467L151.108 140.291C149.666 137.019 147.882 133.909 145.787 131.012L144.164 132.991C146.069 135.645 147.7 138.485 149.031 141.467Z" fill="#335AA9"/>
<path d="M141.804 129.957L143.296 127.767C142.437 126.729 141.544 125.715 140.628 124.766L139.297 127.135C140.157 128.027 141.001 128.976 141.804 129.957ZM136.661 124.563L137.813 122.041C136.856 121.181 135.866 120.354 134.869 119.607L133.887 122.276C134.828 122.982 135.761 123.752 136.661 124.563Z" fill="#335AA9"/>
<path d="M131.016 120.24L131.827 117.442C129.03 115.779 126.084 114.383 123.026 113.272L123.521 116.436C126.146 117.437 128.658 118.713 131.016 120.24Z" fill="#335AA9"/>
<path d="M112.035 83.155V133.543C112.053 134.038 111.875 134.52 111.539 134.884C111.203 135.249 110.738 135.466 110.243 135.489H85.5518C85.076 135.469 84.6258 135.268 84.2929 134.927C83.9599 134.587 83.7691 134.132 83.7592 133.656V83.155C83.7394 82.6585 83.9167 82.1743 84.2526 81.8081C84.5884 81.4419 85.0554 81.2234 85.5518 81.2002H110.243C110.739 81.2234 111.206 81.4419 111.542 81.8081C111.878 82.1743 112.055 82.6585 112.035 83.155Z" fill="#322875"/>
<path d="M112.035 83.155V86.0589H83.7592V83.155C83.7394 82.6585 83.9167 82.1743 84.2526 81.8081C84.5884 81.4419 85.0554 81.2234 85.5518 81.2002H110.243C110.739 81.2234 111.206 81.4419 111.542 81.8081C111.878 82.1743 112.055 82.6585 112.035 83.155Z" fill="#A680B7"/>
<path d="M112.035 130.631V133.543C112.053 134.038 111.875 134.52 111.539 134.884C111.203 135.249 110.738 135.466 110.243 135.489H85.5518C85.0561 135.468 84.5891 135.251 84.2531 134.887C83.917 134.522 83.7394 134.038 83.7592 133.543V130.631H112.035Z" fill="#A680B7"/>
<path d="M97.8972 134.167C99.0261 134.167 99.9413 133.673 99.9413 133.064C99.9413 132.455 99.0261 131.961 97.8972 131.961C96.7683 131.961 95.8531 132.455 95.8531 133.064C95.8531 133.673 96.7683 134.167 97.8972 134.167Z" fill="#322875"/>
<path d="M98.5299 83.5201C98.5189 83.6442 98.4719 83.7623 98.3948 83.8601C98.3177 83.9579 98.2137 84.0311 98.0956 84.0708C97.9775 84.1104 97.8505 84.1148 97.73 84.0834C97.6094 84.0519 97.5007 83.9861 97.417 83.8938C97.3333 83.8015 97.2783 83.6869 97.2588 83.5639C97.2392 83.4409 97.256 83.3148 97.3069 83.2012C97.3579 83.0875 97.4408 82.9912 97.5457 82.9239C97.6505 82.8567 97.7727 82.8214 97.8972 82.8225C98.073 82.833 98.2376 82.9119 98.3558 83.0423C98.4741 83.1727 98.5366 83.3442 98.5299 83.5201Z" fill="#322875"/>
<path d="M117.762 72.4157L121.136 67.7436C121.436 67.3299 121.647 67.2325 122.126 67.3786C122.393 67.45 122.644 67.5734 122.864 67.7418C123.084 67.9102 123.269 68.1203 123.407 68.36C123.498 68.4957 123.541 68.6572 123.531 68.8198C123.52 68.9823 123.457 69.1371 123.351 69.2604C121.063 72.4076 118.784 75.5575 116.513 78.7101C116.427 78.8594 116.292 78.9746 116.131 79.0366C115.97 79.0985 115.793 79.1036 115.629 79.0508C115.333 78.9808 115.055 78.8483 114.814 78.6623C114.574 78.4762 114.376 78.2408 114.234 77.972C114.157 77.8474 114.122 77.7016 114.134 77.5558C114.145 77.41 114.203 77.2717 114.298 77.1608C115.458 75.6034 116.586 74.0055 117.762 72.4157Z" fill="#322875"/>
<path d="M118.208 85.8724C117.918 85.5646 117.732 85.1739 117.676 84.7551C117.619 84.3363 117.694 83.9102 117.892 83.5364C118.025 83.3956 118.203 83.3041 118.395 83.2768C121.807 82.7739 125.219 82.2818 128.631 81.8006C129.085 81.7276 129.548 81.687 129.994 81.5978C130.154 81.5619 130.322 81.5817 130.469 81.654C130.617 81.7262 130.735 81.8466 130.805 81.9952C130.953 82.2426 131.05 82.5176 131.089 82.8034C131.128 83.0892 131.109 83.3799 131.032 83.6581C131.002 83.8176 130.919 83.9624 130.797 84.0696C130.675 84.1769 130.521 84.2404 130.359 84.2502C128.331 84.526 126.303 84.8261 124.275 85.1181C122.434 85.3858 120.593 85.6534 118.752 85.9292C118.569 85.9252 118.387 85.9062 118.208 85.8724Z" fill="#322875"/>
<path d="M104.995 64.2476C105.293 63.9597 105.675 63.7733 106.086 63.7151C106.497 63.6568 106.915 63.7296 107.282 63.9231C107.441 64.0672 107.544 64.2623 107.574 64.4747C108.115 68.1627 108.656 71.8506 109.196 75.5386C109.205 75.6835 109.227 75.8273 109.261 75.9685C109.319 76.1399 109.31 76.3268 109.236 76.492C109.163 76.6572 109.03 76.7888 108.864 76.8607C108.596 77.0363 108.289 77.1417 107.97 77.1672C107.651 77.1927 107.331 77.1375 107.039 77.0067C106.943 76.9525 106.858 76.8793 106.791 76.7914C106.724 76.7035 106.676 76.6029 106.649 76.4957C106.049 72.5806 105.462 68.6656 104.889 64.7505C104.901 64.5787 104.936 64.4094 104.995 64.2476Z" fill="#322875"/>
<path d="M99.6574 111.723L100.955 113.013C101.28 113.329 101.28 113.329 100.955 113.646L99.5925 115C99.7299 115.072 99.8602 115.156 99.9819 115.252C100.355 115.609 100.72 115.99 101.093 116.355C101.19 116.444 101.247 116.525 101.093 116.647L97.8486 119.891C97.5333 119.531 97.1946 119.193 96.8347 118.877C96.5673 118.666 96.3584 118.389 96.2278 118.074C96.0972 117.759 96.0492 117.416 96.0884 117.077C96.0884 113.597 96.0884 110.109 96.0884 106.621C96.1014 106.533 96.0812 106.442 96.0319 106.367C95.9825 106.293 95.9074 106.239 95.8207 106.216C94.8653 105.86 94.0377 105.228 93.4441 104.399C92.7306 103.434 92.362 102.257 92.3978 101.057C92.4011 100.179 92.6258 99.3153 93.0511 98.5469C93.4764 97.7784 94.0887 97.1297 94.8312 96.6605C95.8717 95.9529 97.1256 95.6284 98.3788 95.7423C99.632 95.8562 100.807 96.4014 101.703 97.285C102.599 98.1685 103.16 99.3356 103.292 100.587C103.423 101.839 103.116 103.097 102.423 104.147C101.82 105.094 100.927 105.82 99.8764 106.216C99.7942 106.237 99.7224 106.287 99.6746 106.357C99.6268 106.427 99.6063 106.513 99.6168 106.597C99.6168 107.14 99.6168 107.684 99.6168 108.219C99.6266 108.37 99.6866 108.512 99.7872 108.625C100.193 109.055 100.598 109.476 101.044 109.89C101.215 110.044 101.207 110.158 101.044 110.32C100.598 110.774 100.144 111.237 99.6574 111.723ZM97.9297 98.2828C97.6217 98.2796 97.3197 98.3678 97.0618 98.5363C96.8039 98.7047 96.6018 98.9458 96.481 99.2292C96.3602 99.5125 96.3261 99.8253 96.383 100.128C96.44 100.431 96.5854 100.71 96.8009 100.93C97.0164 101.15 97.2924 101.301 97.5938 101.364C97.8953 101.428 98.2087 101.4 98.4945 101.285C98.7803 101.17 99.0256 100.973 99.1993 100.719C99.3731 100.464 99.4676 100.164 99.4708 99.8564C99.4752 99.6513 99.4385 99.4474 99.363 99.2566C99.2875 99.0659 99.1746 98.8921 99.0311 98.7456C98.8875 98.599 98.7162 98.4826 98.5271 98.4031C98.3379 98.3236 98.1348 98.2827 97.9297 98.2828Z" fill="white"/>
<defs>
<linearGradient id="paint0_linear" x1="164.213" y1="33.4763" x2="-17.5143" y2="144.105" gradientUnits="userSpaceOnUse">
<stop offset="0.390625" stop-color="#43C4D9"/>
<stop offset="1" stop-color="white" stop-opacity="0.32"/>
</linearGradient>
</defs>
</svg>
