<svg width="299" height="287" viewBox="0 0 299 287" fill="none" xmlns="http://www.w3.org/2000/svg">
<mask id="mask0" mask-type="alpha" maskUnits="userSpaceOnUse" x="8" y="21" width="291" height="266">
<rect x="8.26831" y="21.1904" width="289.871" height="265.553" fill="#C4C4C4"/>
</mask>
<g mask="url(#mask0)">
<path opacity="0.3" fill-rule="evenodd" clip-rule="evenodd" d="M266.62 260.396C250.449 287.839 231.768 319.262 200.401 325.983C169.196 332.669 139.743 309.782 111.836 293.56C88.027 279.721 67.4963 262.296 51.8777 239.649C35.8825 216.455 21.8612 191.016 21.8827 163.127C21.9047 134.48 36.7128 109.384 51.9964 85.4039C69.2385 58.3504 84.9941 26.7459 115.485 16.2613C146.777 5.50093 182.706 14.3105 212.169 30.3262C239.557 45.2139 256.688 72.6279 270.456 100.502C282.822 125.535 286.909 152.626 286.245 180.296C285.567 208.57 280.881 236.192 266.62 260.396Z" fill="url(#paint0_linear)" fill-opacity="0.5"/>
</g>
<circle cx="19.1571" cy="19.2232" r="19.014" fill="#43C4D9"/>
<path d="M26.4367 25.9657V29.0457H11.9887V26.6097L19.7727 19.2177C20.65 18.3777 21.238 17.6497 21.5367 17.0337C21.854 16.399 22.0127 15.7737 22.0127 15.1577C22.0127 14.243 21.7047 13.543 21.0887 13.0577C20.4727 12.5723 19.5673 12.3297 18.3727 12.3297C16.3753 12.3297 14.8447 13.011 13.7807 14.3737L11.2327 12.4137C11.998 11.387 13.0247 10.5937 14.3127 10.0337C15.6193 9.45499 17.0753 9.16565 18.6807 9.16565C20.8087 9.16565 22.5073 9.66965 23.7767 10.6777C25.046 11.6857 25.6807 13.0577 25.6807 14.7937C25.6807 15.8577 25.4567 16.8563 25.0087 17.7897C24.5607 18.723 23.702 19.787 22.4327 20.9817L17.1967 25.9657H26.4367Z" fill="white"/>
<path d="M141.144 109.303L147.353 96.8831C147.353 96.8831 166.284 138.817 154.61 141.62C149.376 142.729 143.965 132.243 142.013 127.231C141.144 122.503 141.144 109.303 141.144 109.303Z" fill="#F1B185"/>
<path d="M105.766 124.729C106.526 121.142 106.824 117.472 106.653 113.809L95.8389 109.054C95.8389 109.054 88.6001 153.17 97.2139 153.17C102.537 152.637 102.474 147.67 104.045 140.067C104.275 138.382 105.18 127.08 105.748 124.729H105.766Z" fill="#FCC9A1"/>
<path d="M149.766 92.7047C151.842 94.7627 152.827 109.001 152.827 109.001L140.514 115.406L141.507 89.3958C141.507 89.3958 147.291 90.2119 149.766 92.7047Z" fill="#EFE6E8"/>
<path d="M99.3874 93.6894C96.868 95.7475 94.464 111.245 94.464 111.245L110.521 115.379L108.17 89.999C108.17 89.999 102.43 91.1966 99.3874 93.6894Z" fill="#EFE6E8"/>
<path d="M128.183 181.087L128.414 155.139H144.63C145.029 161.704 153.749 218.718 150.334 226.498C146.714 234.73 102.608 270.72 102.608 270.72L95.5995 264.182C95.5995 264.182 131.873 221.175 132.601 219.88C133.328 218.585 128.183 181.087 128.183 181.087Z" fill="#365CAA"/>
<path d="M130.764 155.139L130.33 181.894L126.48 181.415L124.776 275.883H113.652L107.034 176.58C107.034 175.516 108.001 155.37 108.383 154.066L130.764 155.139Z" fill="#365CAA"/>
<path d="M115.054 275.883C115.054 275.883 114.371 279.636 113.279 281.206C112.188 282.776 110.618 285.686 112.783 285.686H124.679C124.679 285.686 126.941 285.561 126.258 283.707C125.575 281.853 124.226 275.874 124.226 275.874L115.054 275.883Z" fill="#322875"/>
<path d="M96.1939 264.714C96.1939 264.714 90.9422 268.112 90.7648 268.839C90.5873 269.567 95.4221 280.097 96.9124 281.552C98.4027 283.006 99.1302 285.668 104.737 285.668C105.686 285.668 106.458 285.18 105.056 283.849C103.309 282.029 102.115 279.749 101.614 277.276C101.029 274.49 101.907 270.037 101.907 270.037L96.1939 264.714Z" fill="#322875"/>
<path d="M139.769 174.398C139.769 174.398 128.804 178.443 127.509 178.328C126.214 178.213 113.315 175.276 114.628 175.755C115.941 176.235 126.48 181.415 126.48 181.415L128.254 181.637L131.19 204.267C131.19 204.267 132.867 184.751 133.071 182.56C133.275 180.368 146.404 174.762 139.769 174.398Z" fill="#2A4C90"/>
<path d="M125.637 228.405L125.211 251.612L140.043 238.145C138.357 238.214 136.679 237.866 135.158 237.133C133.637 236.399 132.32 235.303 131.323 233.941C127.775 229.23 130.037 223.091 130.037 223.091L125.637 228.405Z" fill="#2A4C90"/>
<path d="M110.387 246.617L112.162 262.762L102.936 270.445C104.593 267.224 105.955 263.86 107.008 260.394C107.464 258.949 107.625 257.427 107.482 255.918C107.339 254.409 106.894 252.945 106.174 251.612L110.387 246.617Z" fill="#2A4C90"/>
<path d="M130.676 52.5897C129.965 51.6831 129.067 50.9409 128.042 50.4141C127.018 49.8874 125.892 49.5885 124.741 49.5381C121.059 49.5381 117.369 51.1615 117.369 55.0204C117.369 58.8793 112.871 60.4584 112.871 64.9471C112.871 69.4359 116.42 73.4899 118.194 73.4899C118.194 75.3174 120.465 78.1384 121.388 78.1384C123.224 72.319 130.676 52.5897 130.676 52.5897Z" fill="#F05553"/>
<path d="M132.885 77.8279C132.885 77.8279 129.398 84.6586 133.346 88.5708C137.196 107.573 116.491 104.636 118.646 88.2248C119.631 84.5256 121.734 78.307 121.734 74.9182C126.542 74.8739 132.885 77.8279 132.885 77.8279Z" fill="#FCC9A1"/>
<path d="M130.738 78.7681C130.738 78.7681 129.913 85.1641 119.835 84.0907C120.748 80.5437 121.407 76.9357 121.805 73.2947L130.738 78.7681Z" fill="#F1B185"/>
<path d="M119.143 67.3069C119.143 75.4328 122.603 82.0151 128.653 82.0151C134.703 82.0151 139.414 74.3683 139.414 66.2335C139.414 58.0988 134.712 52.5898 128.662 52.5898C122.612 52.5898 119.143 59.1722 119.143 67.3069Z" fill="#FCC9A1"/>
<path d="M127.127 54.2131C127.127 54.2131 129.789 60.6712 133.71 60.6712C137.631 60.6712 135.058 64.2197 137.187 66.3576C139.316 68.4955 139.263 70.0213 138.695 71.7955C141.285 71.7955 144.798 66.9253 143.344 62.9866C141.889 59.0478 145.233 57.5664 143.344 56.2091C138.784 52.9091 141.898 50.7268 138.207 49.3074C134.517 47.888 131.217 48.8372 128.183 51.0816C125.149 53.326 127.127 54.2131 127.127 54.2131Z" fill="#F05553"/>
<path d="M133.337 88.5707C136.083 88.4456 138.833 88.7236 141.498 89.3958C142.385 89.6353 142.962 89.8216 142.962 89.8216L142.465 112.886L149.757 168.251H104.062C104.062 168.251 106.422 129.812 106.422 115.024C106.422 103.492 106.191 90.3982 106.191 90.3982C110.289 89.4369 114.434 88.6965 118.611 88.1804C119.791 91.8087 119.791 96.1644 126.213 96.1644C134.322 96.1644 132.893 89.8127 133.337 88.5707Z" fill="#EFE6E8"/>
<path d="M152.081 97.1757C151.891 97.5872 151.544 97.9061 151.118 98.0625C150.693 98.2188 150.222 98.1998 149.81 98.0096L143.521 95.2064C143.107 95.027 142.782 94.691 142.615 94.272C142.449 93.8529 142.456 93.385 142.634 92.9709L150.068 76.5949C150.161 76.3904 150.294 76.2064 150.46 76.0536C150.625 75.9008 150.818 75.7823 151.029 75.7047C151.241 75.6272 151.465 75.5923 151.69 75.6019C151.914 75.6116 152.135 75.6657 152.339 75.761L158.628 78.5643C158.833 78.6522 159.018 78.7795 159.173 78.939C159.328 79.0985 159.451 79.287 159.533 79.4938C159.616 79.7006 159.656 79.9216 159.653 80.1441C159.65 80.3667 159.603 80.5865 159.515 80.7909L152.081 97.1757Z" fill="#322875"/>
<path d="M129.3 53.1309C129.3 53.1309 128.183 62.5342 118.904 64.9471C112.437 66.6326 119.187 58.2672 119.187 58.2672C119.187 58.2672 121.352 50.2566 129.3 53.1309Z" fill="#F05553"/>
<path d="M153.252 101.726C153.021 99.9735 153.2 98.1909 153.776 96.5191C154.663 94.257 156.269 90.6465 156.269 89.7682C156.269 88.89 154.858 89.1029 154.086 88.5795C152.711 87.6924 151.425 85.59 146.546 86.8763C145.118 87.2932 146.546 88.1271 147.149 88.1271C145.162 89.0142 145.747 89.9013 147.371 89.9013C145.535 90.9303 147.371 91.4005 149.766 92.0037C149.766 93.3965 147.743 95.6142 148.258 97.9296C148.773 100.245 149.092 102.418 149.092 102.418L153.252 101.726Z" fill="#FCC9A1"/>
<path d="M154.982 89.8837L156.242 89.5732C156.314 88.6241 156.206 87.6698 155.923 86.7611C155.124 84.703 152.215 83.1328 150.219 83.1328C149.065 83.1328 150.307 84.632 151.727 85.1465C153.146 85.6611 154.015 86.3707 154.015 88.0385C154.015 89.7063 154.982 89.8837 154.982 89.8837Z" fill="#FCC9A1"/>
<path d="M153.164 100.068H148.728C148.728 100.068 144.177 141.637 155.275 141.637C166.373 141.637 153.164 101.966 153.164 100.068Z" fill="#FCCAA7"/>
<path d="M99.6269 147.617L102.838 146.046C102.838 146.046 99.893 166.645 99.3874 174.318C98.9705 180.271 99.2011 179.393 99.2011 179.393L93.8785 179.437C93.8785 179.437 89.3897 156.612 92.9914 142.179C98.11 140.75 99.6269 147.617 99.6269 147.617Z" fill="#FCC9A1"/>
<path d="M97.9504 175.117L99.1923 179.384C99.1923 179.384 99.6359 184.706 99.1923 186.685C98.0479 191.803 96.1584 192.202 96.1584 194.163C96.1584 196.123 93.9939 198.971 93.0092 198.971C92.0245 198.971 89.6914 187.935 93.8963 179.455C95.9366 175.223 97.9504 175.117 97.9504 175.117Z" fill="#FCC9A1"/>
<path d="M159.586 74.5193L157.519 73.3394C158.952 70.0712 160.737 66.9688 162.842 64.0869L164.483 66.0652C162.56 68.7042 160.918 71.5378 159.586 74.5193Z" fill="#335AA9"/>
<path d="M169.327 60.1834L167.996 57.8237C167.109 58.7818 166.222 59.7931 165.335 60.831L166.807 63.0044C167.624 62.0286 168.466 61.0794 169.327 60.1834ZM174.738 55.3132L173.753 52.6519C172.76 53.4148 171.766 54.2398 170.808 55.0914L171.97 57.6196C172.853 56.8182 173.777 56.0631 174.738 55.3575V55.3132Z" fill="#335AA9"/>
<path d="M177.612 53.2907L176.805 50.4963C179.601 48.8335 182.547 47.4376 185.605 46.3269L185.108 49.4939C182.484 50.4941 179.971 51.7667 177.612 53.2907Z" fill="#335AA9"/>
<path d="M220.433 32.293V87.3911C220.452 87.9326 220.257 88.4598 219.89 88.8584C219.523 89.257 219.014 89.4948 218.472 89.5201H191.469C190.948 89.4998 190.454 89.2807 190.09 88.9078C189.725 88.535 189.517 88.0367 189.508 87.5153V32.293C189.496 32.0238 189.538 31.7549 189.63 31.5017C189.722 31.2485 189.863 31.016 190.045 30.8174C190.227 30.6188 190.447 30.4581 190.691 30.3445C190.935 30.2308 191.2 30.1664 191.469 30.155H218.499C219.036 30.1893 219.539 30.4319 219.9 30.8312C220.261 31.2305 220.452 31.7549 220.433 32.293Z" fill="#322875"/>
<path d="M220.433 32.293V35.4688H189.508V32.293C189.496 32.0238 189.538 31.7549 189.63 31.5017C189.722 31.2485 189.863 31.016 190.045 30.8174C190.227 30.6188 190.447 30.4581 190.691 30.3445C190.935 30.2308 191.2 30.1664 191.469 30.155H218.499C219.036 30.1893 219.539 30.4319 219.9 30.8312C220.261 31.2305 220.452 31.7549 220.433 32.293Z" fill="#A680B7"/>
<path d="M220.433 84.2063V87.391C220.452 87.9325 220.257 88.4598 219.89 88.8584C219.523 89.2569 219.014 89.4947 218.472 89.5201H191.469C191.2 89.5098 190.936 89.4465 190.692 89.3338C190.447 89.2211 190.228 89.0612 190.046 88.8633C189.864 88.6654 189.722 88.4335 189.63 88.1808C189.538 87.9281 189.496 87.6597 189.508 87.391V84.2063H220.433Z" fill="#A680B7"/>
<path d="M204.97 88.0743C206.205 88.0743 207.206 87.5341 207.206 86.8678C207.206 86.2015 206.205 85.6614 204.97 85.6614C203.736 85.6614 202.735 86.2015 202.735 86.8678C202.735 87.5341 203.736 88.0743 204.97 88.0743Z" fill="#322875"/>
<path d="M205.663 32.6833C205.65 32.819 205.599 32.9483 205.515 33.0552C205.43 33.1622 205.317 33.2422 205.188 33.2856C205.058 33.3289 204.919 33.3337 204.788 33.2994C204.656 33.265 204.537 33.1929 204.445 33.092C204.354 32.9911 204.294 32.8658 204.272 32.7312C204.251 32.5967 204.269 32.4588 204.325 32.3345C204.381 32.2102 204.471 32.1049 204.586 32.0313C204.701 31.9578 204.834 31.9192 204.971 31.9204C205.162 31.9341 205.341 32.021 205.47 32.1631C205.598 32.3052 205.668 32.4916 205.663 32.6833Z" fill="#322875"/>
<path d="M226.696 20.5389L230.386 15.438C230.714 14.9856 230.945 14.8791 231.468 15.0388C232.058 15.1992 232.561 15.5846 232.87 16.1122C232.967 16.2611 233.014 16.4374 233.002 16.6149C232.991 16.7923 232.923 16.9614 232.808 17.0969C230.306 20.5389 227.814 23.9838 225.33 27.4317C225.234 27.5938 225.087 27.7188 224.911 27.7864C224.736 27.8541 224.542 27.8603 224.363 27.8043C224.038 27.7294 223.734 27.5852 223.471 27.3815C223.207 27.1778 222.991 26.9196 222.837 26.6244C222.75 26.4891 222.71 26.3291 222.723 26.1689C222.736 26.0088 222.801 25.8572 222.908 25.7373C224.176 24.0252 225.436 22.2776 226.696 20.5389Z" fill="#322875"/>
<path d="M227.21 35.2559C226.891 34.9206 226.686 34.4932 226.624 34.0345C226.562 33.5757 226.646 33.1091 226.864 32.701C227.008 32.5434 227.203 32.4427 227.414 32.4172C231.14 31.8672 234.872 31.329 238.61 30.8026C239.106 30.7228 239.612 30.6784 240.1 30.5809C240.275 30.5416 240.459 30.5633 240.62 30.6423C240.781 30.7213 240.911 30.853 240.987 31.0155C241.147 31.2871 241.251 31.5877 241.294 31.8999C241.336 32.2121 241.317 32.5296 241.235 32.8341C241.204 33.0092 241.114 33.1685 240.98 33.2861C240.846 33.4036 240.677 33.4725 240.499 33.4817C238.281 33.7833 236.064 34.1115 233.846 34.4309L227.805 35.318C227.605 35.3154 227.406 35.2946 227.21 35.2559Z" fill="#322875"/>
<path d="M212.733 11.6057C213.059 11.2896 213.476 11.085 213.926 11.0213C214.375 10.9575 214.833 11.0379 215.234 11.2509C215.428 11.4133 215.557 11.64 215.598 11.8896C216.19 15.923 216.781 19.9563 217.372 23.9897C217.378 24.1486 217.402 24.3064 217.443 24.4599C217.504 24.6475 217.493 24.851 217.413 25.0312C217.333 25.2114 217.189 25.3555 217.009 25.4357C216.716 25.6285 216.38 25.7442 216.031 25.7721C215.682 25.8 215.332 25.7392 215.013 25.5954C214.907 25.5361 214.815 25.456 214.742 25.3599C214.669 25.2638 214.616 25.1537 214.587 25.0365C213.901 20.7311 213.244 16.4375 212.617 12.1557C212.625 11.9672 212.664 11.7813 212.733 11.6057Z" fill="#322875"/>
<path d="M206.896 63.528L208.315 64.9385C208.67 65.2844 208.67 65.2844 208.315 65.6304L206.825 67.1119C206.974 67.192 207.116 67.284 207.251 67.3869C207.659 67.7772 208.058 68.1941 208.466 68.5933C208.564 68.6909 208.626 68.7796 208.466 68.9127L204.918 72.4611C204.571 72.0605 204.201 71.6813 203.809 71.3256C203.516 71.0946 203.287 70.7922 203.144 70.4474C203.001 70.1026 202.949 69.7269 202.993 69.3563V57.9481C203.007 57.8511 202.985 57.7523 202.931 57.6705C202.877 57.5887 202.795 57.5296 202.7 57.5045C201.655 57.1158 200.75 56.4239 200.101 55.5174C199.327 54.4634 198.932 53.1782 198.983 51.8714C198.986 50.9107 199.231 49.9663 199.696 49.1257C200.161 48.2852 200.832 47.5758 201.644 47.0633C202.782 46.2895 204.153 45.9345 205.524 46.0591C206.895 46.1836 208.18 46.7799 209.159 47.7462C210.139 48.7125 210.754 49.989 210.897 51.3577C211.041 52.7264 210.705 54.1025 209.947 55.2513C209.286 56.2849 208.309 57.0781 207.162 57.5134C207.072 57.5364 206.993 57.5915 206.941 57.6683C206.889 57.745 206.866 57.8382 206.878 57.9303V59.7046C206.885 59.8699 206.951 60.0273 207.064 60.1481C207.508 60.6183 207.951 61.0796 208.439 61.532C208.617 61.7005 208.617 61.8247 208.439 62.0022C207.925 62.4546 207.428 62.9957 206.896 63.528ZM204.953 48.8286C204.616 48.8251 204.286 48.9216 204.004 49.1059C203.722 49.2901 203.501 49.5538 203.369 49.8637C203.236 50.1735 203.199 50.5156 203.261 50.8467C203.324 51.1777 203.483 51.4829 203.719 51.7236C203.954 51.9642 204.256 52.1296 204.586 52.1987C204.915 52.2679 205.258 52.2378 205.571 52.1121C205.883 51.9864 206.152 51.7709 206.342 51.4928C206.532 51.2147 206.635 50.8865 206.639 50.5496C206.641 50.3259 206.599 50.104 206.516 49.8965C206.432 49.6889 206.309 49.4998 206.152 49.34C205.996 49.1802 205.809 49.0528 205.603 48.9651C205.398 48.8773 205.177 48.831 204.953 48.8286Z" fill="white"/>
<path d="M80.3766 46.2204C80.3145 46.6018 80.5452 46.7881 80.8911 46.9389C81.0768 47.0357 81.2798 47.0948 81.4884 47.1129C81.697 47.1309 81.9071 47.1075 82.1067 47.044C82.3062 46.9805 82.4912 46.8782 82.651 46.7429C82.8108 46.6077 82.9423 46.4421 83.0379 46.2558C83.1327 46.0828 83.1929 45.893 83.2154 45.697C83.2339 45.5849 83.2194 45.4699 83.1737 45.366C83.1281 45.262 83.0531 45.1736 82.9581 45.1115C82.8441 45.026 82.7483 44.9187 82.6762 44.7958C82.6041 44.6729 82.5572 44.5369 82.5382 44.3958C82.5192 44.2546 82.5285 44.111 82.5656 43.9734C82.6026 43.8359 82.6667 43.7071 82.7541 43.5945C82.8334 43.4933 82.9294 43.4063 83.0379 43.3373C83.2524 43.1902 83.5124 43.1245 83.771 43.1522C84.0297 43.1798 84.2699 43.2989 84.4484 43.4881C84.6205 43.6749 84.7232 43.9152 84.7394 44.1687C84.7555 44.4223 84.6841 44.6736 84.5371 44.8808C84.4175 45.0117 84.3511 45.1825 84.3511 45.3599C84.3511 45.5372 84.4175 45.7081 84.5371 45.8389C84.6569 46.0764 84.8341 46.2802 85.0526 46.4319C85.2711 46.5835 85.524 46.6782 85.7884 46.7073C86.0528 46.7363 86.3202 46.6989 86.5665 46.5984C86.8127 46.4979 87.03 46.3374 87.1985 46.1316C87.2744 46.0407 87.3257 45.9317 87.3475 45.8152C87.3692 45.6987 87.3607 45.5786 87.3227 45.4663C87.2826 45.3231 87.2723 45.1732 87.2923 45.0258C87.3123 44.8784 87.3622 44.7367 87.439 44.6093C87.5158 44.4819 87.6178 44.3716 87.7387 44.285C87.8597 44.1985 87.9971 44.1376 88.1425 44.1062C88.2878 44.0747 88.4381 44.0732 88.584 44.1019C88.7299 44.1306 88.8685 44.1888 88.9911 44.273C89.1137 44.3572 89.2178 44.4655 89.297 44.5914C89.3762 44.7173 89.4289 44.8581 89.4517 45.005C89.4609 45.0994 89.4609 45.1945 89.4517 45.2889C89.4477 45.5008 89.3839 45.7073 89.2678 45.8846C89.1517 46.0619 88.9879 46.2029 88.7953 46.2913C88.5386 46.3506 88.3156 46.5086 88.1745 46.7311C88.0334 46.9535 87.9855 47.2226 88.0412 47.48C88.0412 47.5244 88.0412 47.5688 88.0856 47.6042C88.1773 48.0186 88.4268 48.381 88.7812 48.6145C89.1356 48.848 89.567 48.9343 89.984 48.8551C90.1123 48.828 90.2313 48.7679 90.3293 48.6808C90.4273 48.5937 90.5009 48.4825 90.5428 48.3583C90.6179 48.1844 90.7415 48.0358 90.8988 47.9304C91.0562 47.825 91.2406 47.7672 91.43 47.7639C91.6372 47.7454 91.8452 47.7908 92.0259 47.8938C92.2067 47.9969 92.3516 48.1528 92.4413 48.3405C92.5455 48.5268 92.5904 48.7405 92.5698 48.953C92.5491 49.1654 92.4641 49.3665 92.3259 49.5293C92.1942 49.7055 92.0089 49.8344 91.7979 49.8968C91.5869 49.9591 91.3613 49.9516 91.155 49.8752C90.5695 49.6357 90.3566 49.8752 90.0727 50.2301C89.805 50.5573 89.678 50.9774 89.7196 51.3981C89.7612 51.8188 89.9679 52.2059 90.2945 52.4744C90.438 52.5965 90.6036 52.6898 90.7824 52.7494C90.8691 52.7795 90.9616 52.7887 91.0525 52.7763C91.1434 52.764 91.2302 52.7305 91.3058 52.6785C91.4866 52.5698 91.6936 52.5123 91.9046 52.5123C92.1155 52.5123 92.3225 52.5698 92.5034 52.6785C92.6882 52.7887 92.8338 52.9541 92.9198 53.1514C93.0057 53.3488 93.0276 53.5681 92.9824 53.7785C92.9544 53.9924 92.8609 54.1925 92.7148 54.3513C92.5687 54.5101 92.3771 54.6199 92.1663 54.6656C91.9545 54.7346 91.7256 54.7291 91.5174 54.65C91.3093 54.5709 91.1344 54.4231 91.0219 54.2309C90.7203 53.7607 90.4541 53.7519 89.9662 53.8849C89.711 53.9391 89.4729 54.0546 89.2724 54.2215C89.0718 54.3883 88.915 54.6016 88.8154 54.8427C88.7158 55.0838 88.6765 55.3455 88.7008 55.6053C88.7251 55.865 88.8123 56.1149 88.9549 56.3334C89.088 56.5729 89.3275 56.5995 89.5759 56.6261C89.7341 56.6487 89.8854 56.7061 90.0188 56.7941C90.1522 56.8822 90.2645 56.9987 90.3475 57.1352C90.4305 57.2718 90.4823 57.4251 90.499 57.5841C90.5158 57.743 90.4971 57.9037 90.4444 58.0546C90.3916 58.2055 90.3061 58.3428 90.194 58.4567C90.0819 58.5706 89.9459 58.6583 89.7959 58.7134C89.6458 58.7685 89.4854 58.7897 89.3262 58.7754C89.167 58.7612 89.013 58.7118 88.8751 58.631C88.6966 58.5454 88.5494 58.4062 88.454 58.2328C88.3585 58.0594 88.3197 57.8606 88.3428 57.664C88.3961 57.185 88.1388 56.9809 87.7662 56.7769C87.5781 56.6886 87.3745 56.6383 87.1669 56.6289C86.9593 56.6195 86.752 56.6511 86.5566 56.722C86.3613 56.7929 86.1819 56.9016 86.0287 57.0419C85.8755 57.1823 85.7515 57.3515 85.6638 57.5398C85.5929 57.6847 85.5478 57.8408 85.5307 58.0011C85.4751 58.1395 85.4676 58.2926 85.5094 58.4358C85.5512 58.579 85.64 58.7039 85.7614 58.7906C85.9612 58.9767 86.0834 59.2313 86.1034 59.5037C86.1234 59.776 86.0397 60.0458 85.8692 60.259C85.6986 60.4722 85.4537 60.6131 85.1837 60.6533C84.9136 60.6936 84.6383 60.6303 84.413 60.4761C84.2077 60.3178 84.0656 60.0916 84.012 59.8381C83.9583 59.5845 83.9967 59.3201 84.1202 59.0923C84.5017 58.4447 84.4839 58.2051 84.0315 57.6729C83.7632 57.3489 83.3779 57.1439 82.9593 57.1024C82.5408 57.0609 82.1227 57.1862 81.796 57.4511C81.6848 57.5442 81.5864 57.6516 81.5032 57.7705C81.3613 57.9834 81.45 58.1874 81.5032 58.3914C81.5332 58.6069 81.4987 58.8264 81.4039 59.0222C81.3092 59.2179 81.1585 59.3813 80.971 59.4914C80.7567 59.6039 80.5129 59.6472 80.273 59.6154C80.0332 59.5837 79.809 59.4784 79.6315 59.314C79.5301 59.2127 79.4496 59.0924 79.3948 58.96C79.3399 58.8275 79.3116 58.6856 79.3116 58.5422C79.3116 58.3989 79.3399 58.257 79.3948 58.1245C79.4496 57.9921 79.5301 57.8718 79.6315 57.7705C79.7299 57.6708 79.8476 57.5924 79.9774 57.5398C80.2347 57.4156 80.5629 57.3979 80.6428 57.0253C80.7159 56.7906 80.7395 56.5432 80.7121 56.2988C80.6846 56.0545 80.6066 55.8185 80.4831 55.6059C80.307 55.3345 80.055 55.1209 79.7585 54.9916C79.462 54.8622 79.134 54.8229 78.8153 54.8785C78.496 54.8785 78.3718 55.1535 78.2476 55.4196C78.19 55.5484 78.1076 55.6646 78.005 55.7615C77.9025 55.8584 77.7819 55.9342 77.6501 55.9844C77.5182 56.0347 77.3778 56.0585 77.2368 56.0544C77.0958 56.0504 76.9569 56.0185 76.8282 55.9608L76.7217 55.9075C76.5947 55.8319 76.4839 55.7317 76.3958 55.6129C76.3078 55.4941 76.2442 55.359 76.2087 55.2154C76.1732 55.0719 76.1666 54.9227 76.1892 54.7765C76.2117 54.6304 76.2631 54.4901 76.3403 54.364C76.4613 54.1806 76.6369 54.0399 76.8423 53.9619C77.0477 53.8839 77.2724 53.8725 77.4847 53.9293C77.5915 53.9813 77.7077 54.0113 77.8264 54.0175C77.9451 54.0237 78.0638 54.006 78.1755 53.9655C78.2872 53.925 78.3896 53.8624 78.4767 53.7815C78.5637 53.7006 78.6336 53.603 78.6822 53.4946C78.9394 53.1709 79.0576 52.7585 79.011 52.3477C78.9645 51.9369 78.7569 51.5614 78.4339 51.3035L78.2742 51.1881C78.1476 51.0889 77.9915 51.0349 77.8306 51.0349C77.6698 51.0349 77.5136 51.0889 77.3871 51.1881C77.1326 51.3201 76.8364 51.3467 76.5625 51.262C76.2886 51.1774 76.059 50.9883 75.9234 50.7357C75.8556 50.6102 75.8136 50.4724 75.7997 50.3305C75.7858 50.1885 75.8003 50.0452 75.8424 49.9089C75.8845 49.7726 75.9534 49.6461 76.045 49.5368C76.1366 49.4274 76.249 49.3374 76.3758 49.272C76.5364 49.1857 76.7169 49.1429 76.8992 49.1478C77.0618 49.1472 77.222 49.1866 77.3658 49.2623C77.5097 49.3381 77.6327 49.4481 77.7242 49.5825C77.8142 49.7421 77.9594 49.8635 78.1324 49.9239C78.3055 49.9844 78.4947 49.9796 78.6645 49.9107C79.0701 49.843 79.4333 49.6197 79.6768 49.2884C79.9203 48.9571 80.025 48.5438 79.9686 48.1365C79.9419 47.9868 79.8972 47.8408 79.8355 47.7018C79.7915 47.5715 79.7081 47.4579 79.5969 47.3769C79.4857 47.2959 79.3521 47.2513 79.2145 47.2494C78.9467 47.2429 78.6913 47.1348 78.5003 46.947C78.3092 46.7592 78.1966 46.5058 78.1855 46.2381C78.1734 46.094 78.19 45.949 78.2345 45.8114C78.2789 45.6738 78.3502 45.5464 78.4443 45.4366C78.5384 45.3269 78.6534 45.2369 78.7826 45.1719C78.9117 45.107 79.0525 45.0683 79.1968 45.0582C79.4096 45.0426 79.6223 45.0887 79.8096 45.191C79.9968 45.2933 80.1506 45.4474 80.2524 45.6349C80.3335 45.8195 80.3757 46.0187 80.3766 46.2204Z" fill="#72CDDF"/>
<path d="M101.046 19.2525C100.949 19.838 101.312 20.1396 101.836 20.3525C102.123 20.5034 102.437 20.596 102.759 20.625C103.082 20.654 103.408 20.6188 103.717 20.5215C104.026 20.4242 104.313 20.2667 104.561 20.0581C104.809 19.8494 105.014 19.5937 105.162 19.3057C105.307 19.0298 105.397 18.7286 105.428 18.4186C105.456 18.2488 105.434 18.0746 105.365 17.917C105.296 17.7595 105.182 17.6256 105.038 17.5315C104.868 17.3953 104.726 17.2267 104.621 17.0354C104.516 16.844 104.45 16.6338 104.427 16.4168C104.404 16.1998 104.424 15.9804 104.486 15.7713C104.549 15.5621 104.652 15.3674 104.79 15.1984C104.893 15.071 105.016 14.9604 105.153 14.8702C105.345 14.7583 105.556 14.6852 105.775 14.6549C105.994 14.6247 106.217 14.638 106.432 14.694C106.646 14.75 106.847 14.8477 107.023 14.9814C107.2 15.1152 107.348 15.2823 107.46 15.4734C107.615 15.7368 107.697 16.037 107.697 16.3428C107.697 16.6486 107.615 16.9487 107.46 17.2121C107.265 17.403 107.149 17.6593 107.132 17.9314C107.116 18.2034 107.201 18.4719 107.371 18.6847C107.521 18.9701 107.727 19.223 107.975 19.4289C108.223 19.6348 108.51 19.7896 108.818 19.8844C109.126 19.9792 109.45 20.0121 109.771 19.9813C110.093 19.9505 110.404 19.8566 110.689 19.7049C110.962 19.5618 111.205 19.3693 111.408 19.1372C111.531 18.9982 111.617 18.8299 111.658 18.6482C111.698 18.4665 111.691 18.2776 111.638 18.0993C111.575 17.664 111.687 17.2214 111.95 16.8687C112.212 16.5161 112.605 16.2822 113.04 16.2186C113.339 16.1721 113.645 16.2058 113.927 16.3162C114.252 16.4343 114.531 16.6526 114.724 16.9396C114.917 17.2266 115.014 17.5674 115 17.913C114.997 18.2412 114.901 18.5618 114.721 18.8369C114.542 19.112 114.288 19.33 113.989 19.4654C113.602 19.5507 113.264 19.7841 113.046 20.1157C112.829 20.4472 112.75 20.8507 112.827 21.2396C112.847 21.3119 112.87 21.3829 112.898 21.4525C113.035 22.0875 113.41 22.6456 113.947 23.012C114.483 23.3784 115.14 23.5251 115.781 23.4219C115.982 23.382 116.169 23.2908 116.325 23.1571C116.48 23.0235 116.599 22.8518 116.668 22.659C116.811 22.3879 117.026 22.1609 117.288 22.0027C117.551 21.8444 117.852 21.7608 118.158 21.7608C118.465 21.7608 118.766 21.8444 119.028 22.0027C119.291 22.1609 119.506 22.3879 119.649 22.659C119.817 22.9441 119.891 23.2748 119.86 23.6043C119.83 23.9338 119.697 24.2455 119.48 24.4953C119.283 24.7652 119.003 24.9632 118.682 25.0593C118.362 25.1553 118.019 25.1442 117.706 25.0275C116.819 24.655 116.482 25.0275 116.038 25.5776C114.787 27.1921 115.746 28.7445 117.129 29.4542C117.413 29.5961 117.662 29.4542 117.928 29.3389C118.209 29.1644 118.533 29.072 118.864 29.072C119.194 29.072 119.519 29.1644 119.8 29.3389C120.085 29.5082 120.309 29.763 120.441 30.0672C120.574 30.3713 120.607 30.7093 120.536 31.0333C120.47 31.3496 120.31 31.6388 120.077 31.8634C119.845 32.088 119.55 32.2376 119.232 32.2929C118.904 32.3991 118.549 32.3902 118.226 32.2676C117.904 32.145 117.633 31.9161 117.458 31.6187C116.996 30.8913 116.571 30.8824 115.825 31.0865C115.193 31.2555 114.652 31.6665 114.32 32.2309C113.988 32.7953 113.891 33.4676 114.051 34.1026C114.119 34.3715 114.233 34.6267 114.388 34.8567C114.592 35.2293 114.965 35.2647 115.337 35.318C115.679 35.3659 115.997 35.518 116.249 35.7535C116.501 35.9891 116.675 36.2966 116.745 36.6341C116.816 36.9717 116.781 37.3228 116.645 37.6398C116.509 37.9567 116.279 38.224 115.985 38.4051C115.724 38.5579 115.427 38.6384 115.125 38.6384C114.822 38.6384 114.525 38.5579 114.264 38.4051C113.988 38.2738 113.76 38.0596 113.612 37.7923C113.464 37.525 113.404 37.2182 113.439 36.9148C113.528 36.1696 113.129 35.8591 112.552 35.6107C111.975 35.32 111.307 35.2697 110.693 35.4709C110.08 35.6721 109.571 36.1084 109.279 36.6841C109.176 36.8914 109.104 37.1125 109.066 37.3406C108.984 37.5563 108.976 37.7928 109.041 38.0139C109.107 38.235 109.243 38.4285 109.429 38.5648C109.744 38.8503 109.946 39.2393 109.998 39.6609C110.05 40.0825 109.949 40.5089 109.713 40.8624C109.459 41.2104 109.08 41.4476 108.656 41.5253C108.232 41.603 107.795 41.5152 107.433 41.28C107.072 41.0448 106.814 40.68 106.714 40.2608C106.613 39.8415 106.677 39.3997 106.892 39.0261C107.487 38.0414 107.46 37.7132 106.768 36.8349C106.528 36.5425 106.223 36.3098 105.877 36.1551C105.532 36.0004 105.155 35.928 104.777 35.9435C104.398 35.9589 104.029 36.0619 103.697 36.2443C103.365 36.4267 103.08 36.6835 102.865 36.9946C102.643 37.3228 102.785 37.6333 102.865 37.9615C102.939 38.3048 102.9 38.6628 102.755 38.9824C102.61 39.302 102.365 39.5662 102.057 39.7358C101.728 39.9108 101.352 39.9775 100.983 39.9266C100.613 39.8756 100.269 39.7095 99.9994 39.4519C99.8487 39.2911 99.7313 39.1019 99.6542 38.8955C99.577 38.689 99.5415 38.4693 99.5498 38.2491C99.558 38.0288 99.6098 37.8124 99.7022 37.6123C99.7946 37.4122 99.9258 37.2324 100.088 37.0833C100.217 36.9598 100.367 36.8606 100.532 36.7906C100.931 36.6043 101.419 36.5688 101.561 36.001C101.671 35.6367 101.706 35.2537 101.663 34.8755C101.62 34.4972 101.501 34.1317 101.312 33.801C101.041 33.3832 100.651 33.055 100.194 32.8577C99.7359 32.6604 99.2301 32.6028 98.7397 32.6921C98.2429 32.6921 98.0566 33.1179 97.8526 33.5171C97.6704 33.9209 97.3358 34.2362 96.922 34.3941C96.5081 34.552 96.0485 34.5397 95.6437 34.3599L95.4929 34.2801C95.102 34.0316 94.8238 33.64 94.7177 33.1892C94.6117 32.7383 94.6861 32.2638 94.9251 31.8671C95.1081 31.5781 95.3803 31.3568 95.7006 31.2367C96.0208 31.1166 96.3715 31.1043 96.6994 31.2018C97.0312 31.327 97.3974 31.3267 97.729 31.2009C98.0606 31.0751 98.3349 30.8325 98.5002 30.5187C98.8966 30.0164 99.0772 29.3772 99.0023 28.7417C98.9275 28.1062 98.6033 27.5264 98.101 27.13L97.8526 26.9703C97.6532 26.824 97.4124 26.7451 97.1651 26.7451C96.9178 26.7451 96.6769 26.824 96.4776 26.9703C96.1611 27.1719 95.7851 27.259 95.4122 27.217C95.0393 27.1751 94.6921 27.0066 94.4284 26.7397C94.1844 26.5016 94.0188 26.1947 93.9536 25.8601C93.8885 25.5255 93.9269 25.1789 94.0637 24.8667C94.2006 24.5545 94.4294 24.2914 94.7196 24.1125C95.0098 23.9336 95.3476 23.8474 95.6881 23.8654C95.938 23.868 96.1837 23.9306 96.4045 24.048C96.6252 24.1653 96.8146 24.3339 96.9566 24.5396C97.0983 24.7842 97.3231 24.9698 97.5901 25.0626C97.8572 25.1554 98.1486 25.1493 98.4115 25.0453C99.0482 24.9307 99.6137 24.5687 99.9843 24.0384C100.355 23.5082 100.501 22.8528 100.39 22.2154C100.343 21.9991 100.275 21.7881 100.186 21.5856C100.119 21.3843 99.9902 21.2093 99.8182 21.0851C99.6463 20.9609 99.4397 20.8939 99.2276 20.8936C98.8191 20.8884 98.4272 20.7309 98.1286 20.452C97.83 20.1731 97.6462 19.7928 97.6131 19.3856C97.5715 18.9948 97.6699 18.6021 97.8909 18.2772C98.1118 17.9522 98.4409 17.7163 98.8195 17.6113C99.201 17.5047 99.6077 17.535 99.9691 17.6971C100.331 17.8591 100.624 18.1427 100.798 18.4985C100.925 18.7329 101.009 18.9883 101.046 19.2525Z" fill="#72CDDF"/>
<path d="M81.0848 175.782L80.6804 286.101L216.575 286.599L216.98 176.28L81.0848 175.782Z" fill="#A3CFDC"/>
<path d="M71 176.083C71 178.044 72.8984 179.632 75.267 179.632L221.817 180.155C224.185 180.155 226.101 178.576 226.11 176.607C226.11 174.646 224.203 173.058 221.843 173.058L75.2847 172.544C72.925 172.544 71.0089 174.123 71 176.092V176.083Z" fill="#A3CFDC"/>
<path d="M238.583 240.354C238.583 240.354 226.163 181.805 237.492 182.799C250.719 182.799 238.583 240.354 238.583 240.354Z" fill="#43C4D9"/>
<path d="M239.284 237.152C239.284 237.152 213.46 192.034 222.109 188.698C230.759 185.363 239.284 237.152 239.284 237.152Z" fill="#43C4D9"/>
<path d="M239.284 238.34C239.284 238.34 262.047 190.605 253.309 187.421C243.666 183.908 239.284 238.34 239.284 238.34Z" fill="#43C4D9"/>
<path d="M246.061 286.519L251.242 227.979H225.268L229.295 286.519H246.061Z" fill="#A3CFDC"/>
<defs>
<linearGradient id="paint0_linear" x1="276.184" y1="255.736" x2="309.111" y2="46.6668" gradientUnits="userSpaceOnUse">
<stop offset="0.390625" stop-color="#43C4D9"/>
<stop offset="1" stop-color="white" stop-opacity="0.32"/>
</linearGradient>
</defs>
</svg>
