<svg width="375" height="316" viewBox="0 0 375 316" fill="none" xmlns="http://www.w3.org/2000/svg">
<mask id="mask0" mask-type="alpha" maskUnits="userSpaceOnUse" x="0" y="23" width="375" height="293">
<rect y="23" width="375" height="293" fill="#C4C4C4"/>
</mask>
<g mask="url(#mask0)">
<path opacity="0.3" fill-rule="evenodd" clip-rule="evenodd" d="M301.451 287.363C283.591 317.673 262.958 352.378 228.316 359.8C193.851 367.185 161.321 341.907 130.5 323.992C104.204 308.706 81.529 289.462 64.279 264.449C46.6132 238.833 31.1274 210.736 31.1511 179.934C31.1755 148.295 47.5302 120.579 64.4102 94.0933C83.4532 64.2141 100.854 29.3085 134.53 17.7288C169.09 5.84458 208.772 15.5743 241.313 33.2628C271.561 49.7056 290.482 79.9829 305.688 110.768C319.345 138.416 323.86 168.337 323.126 198.896C322.377 230.124 317.202 260.631 301.451 287.363Z" fill="url(#paint0_linear)" fill-opacity="0.5"/>
</g>
<circle cx="46" cy="21" r="21" fill="#43C4D9"/>
<path d="M53.2796 27.5562V30.6362H38.8316V28.2002L46.6156 20.8082C47.4929 19.9682 48.0809 19.2402 48.3796 18.6242C48.6969 17.9896 48.8556 17.3642 48.8556 16.7482C48.8556 15.8336 48.5476 15.1336 47.9316 14.6482C47.3156 14.1629 46.4103 13.9202 45.2156 13.9202C43.2183 13.9202 41.6876 14.6016 40.6236 15.9642L38.0756 14.0042C38.8409 12.9776 39.8676 12.1842 41.1556 11.6242C42.4623 11.0456 43.9183 10.7562 45.5236 10.7562C47.6516 10.7562 49.3503 11.2602 50.6196 12.2682C51.8889 13.2762 52.5236 14.6482 52.5236 16.3842C52.5236 17.4482 52.2996 18.4469 51.8516 19.3802C51.4036 20.3136 50.5449 21.3776 49.2756 22.5722L44.0396 27.5562H53.2796Z" fill="white"/>
<path d="M54 315.992H332.711C332.711 315.992 315.576 272.428 260.145 268.933C204.714 265.438 186.953 290.345 165.879 294.24C144.806 298.135 134.956 287.781 99.5723 289.102C64.189 290.424 54 315.992 54 315.992Z" fill="#C4E8F0"/>
<path d="M194.664 142.335L200.75 130.164C200.75 130.164 219.302 171.259 207.861 174.006C202.732 175.093 197.429 164.817 195.516 159.905C194.664 155.272 194.664 142.335 194.664 142.335Z" fill="#F1B185"/>
<path d="M159.993 157.454C160.742 153.938 161.034 150.342 160.863 146.752L150.239 142.092C150.239 142.092 143.145 185.326 151.587 185.326C156.803 184.804 156.742 179.936 158.281 172.485C158.507 170.833 159.394 159.757 159.95 157.454H159.993Z" fill="#FCC9A1"/>
<path d="M203.114 126.069C205.149 128.086 206.114 142.04 206.114 142.04L194.047 148.317L195.02 122.827C195.02 122.827 200.645 123.626 203.114 126.069Z" fill="#EFE6E8"/>
<path d="M153.734 127.034C151.274 129.051 148.918 144.265 148.918 144.265L164.653 148.317L162.349 123.418C162.349 123.418 156.725 124.591 153.734 127.034Z" fill="#EFE6E8"/>
<path d="M181.962 212.685L182.188 187.256H198.081C198.472 193.689 207.018 249.563 203.671 257.188C200.124 265.255 156.899 300.526 156.899 300.526L150.031 294.119C150.031 294.119 185.579 251.971 186.292 250.702C187.005 249.433 181.962 212.685 181.962 212.685Z" fill="#365CAA"/>
<path d="M184.492 187.256L184.066 213.476L180.293 213.006L178.624 305.585H167.722L161.237 208.268C161.237 207.225 162.184 187.482 162.558 186.204L184.492 187.256Z" fill="#365CAA"/>
<path d="M169.096 305.585C169.096 305.585 168.426 309.263 167.357 310.802C166.288 312.34 164.749 315.192 166.87 315.192H178.528C178.528 315.192 180.745 315.07 180.076 313.253C179.407 311.436 178.085 305.577 178.085 305.577L169.096 305.585Z" fill="#322875"/>
<path d="M150.613 294.631C150.613 294.631 145.466 297.961 145.292 298.674C145.119 299.387 149.857 309.706 151.317 311.132C152.778 312.558 153.491 315.166 158.985 315.166C159.915 315.166 160.672 314.688 159.298 313.384C157.589 311.597 156.42 309.364 155.925 306.942C155.351 304.212 156.212 299.848 156.212 299.848L150.613 294.631Z" fill="#322875"/>
<path d="M193.316 206.13C193.316 206.13 182.571 210.094 181.302 209.981C180.032 209.868 167.392 206.99 168.678 207.46C169.965 207.929 180.293 213.006 180.293 213.006L182.032 213.224L184.91 235.401C184.91 235.401 186.553 216.275 186.753 214.128C186.953 211.98 199.828 206.486 193.316 206.13Z" fill="#2A4C90"/>
<path d="M179.467 259.057L179.05 281.8L193.586 268.602C191.927 268.674 190.276 268.335 188.78 267.616C187.283 266.897 185.987 265.821 185.005 264.482C181.571 259.857 183.779 253.849 183.779 253.849L179.467 259.057Z" fill="#2A4C90"/>
<path d="M164.523 276.905L166.262 292.727L157.211 300.256C158.837 297.101 160.173 293.804 161.202 290.406C161.653 288.991 161.813 287.498 161.672 286.019C161.532 284.54 161.094 283.105 160.385 281.799L164.523 276.905Z" fill="#2A4C90"/>
<path d="M184.405 86.7566C183.709 85.868 182.829 85.1407 181.825 84.6244C180.821 84.1082 179.717 83.8153 178.589 83.7659C174.981 83.7659 171.365 85.3569 171.365 89.1386C171.365 92.9204 166.957 94.4679 166.957 98.8669C166.957 103.266 170.435 107.239 172.173 107.239C172.173 109.03 174.399 111.794 175.303 111.794C177.103 106.091 184.405 86.7566 184.405 86.7566Z" fill="#F05553"/>
<path d="M186.57 111.49C186.57 111.49 183.153 118.184 187.022 122.018C190.795 140.64 170.504 137.762 172.617 121.679C173.582 118.054 175.642 111.96 175.642 108.639C180.354 108.586 186.57 111.49 186.57 111.49Z" fill="#FCC9A1"/>
<path d="M184.466 112.412C184.466 112.412 183.658 118.68 173.782 117.628C174.679 114.152 175.324 110.616 175.712 107.048L184.466 112.412Z" fill="#F1B185"/>
<path d="M173.104 101.179C173.104 109.143 176.494 115.594 182.423 115.594C188.352 115.594 192.969 108.1 192.969 100.127C192.969 92.1553 188.361 86.7565 182.423 86.7565C176.485 86.7565 173.104 93.2073 173.104 101.179Z" fill="#FCC9A1"/>
<path d="M180.928 88.3475C180.928 88.3475 183.536 94.6765 187.379 94.6765C191.221 94.6765 188.7 98.154 190.787 100.249C192.873 102.344 192.821 103.84 192.264 105.578C194.803 105.578 198.246 100.806 196.82 96.9455C195.394 93.0855 198.672 91.6337 196.82 90.3036C192.351 87.0695 195.403 84.9309 191.786 83.5399C188.17 82.1489 184.936 83.0791 181.962 85.3221C178.989 87.5651 180.928 88.3475 180.928 88.3475Z" fill="#F05553"/>
<path d="M187.013 122.018C189.705 121.893 192.4 122.165 195.012 122.827C195.881 123.061 196.446 123.244 196.446 123.244L195.959 145.848L203.105 200.105H158.324C158.324 200.105 160.637 162.435 160.637 147.943C160.637 136.641 160.411 123.809 160.411 123.809C164.426 122.865 168.489 122.14 172.582 121.636C173.729 125.191 173.773 129.46 180.032 129.46C187.978 129.451 186.579 123.235 187.013 122.018Z" fill="#EFE6E8"/>
<path d="M205.383 130.451C205.196 130.854 204.857 131.167 204.44 131.32C204.022 131.473 203.561 131.455 203.158 131.268L196.994 128.521C196.792 128.434 196.609 128.308 196.456 128.15C196.303 127.993 196.183 127.806 196.102 127.602C196.022 127.397 195.982 127.179 195.986 126.959C195.99 126.74 196.037 126.523 196.124 126.322L203.41 110.273C203.597 109.87 203.936 109.557 204.354 109.404C204.771 109.251 205.232 109.269 205.635 109.456L211.799 112.203C212.002 112.289 212.185 112.414 212.339 112.572C212.492 112.73 212.613 112.916 212.694 113.121C212.775 113.325 212.814 113.544 212.81 113.764C212.806 113.984 212.758 114.201 212.669 114.402L205.383 130.451Z" fill="#322875"/>
<path d="M183.058 87.2869C183.058 87.2869 181.962 96.5022 172.851 98.8669C166.514 100.519 173.13 92.3205 173.13 92.3205C173.13 92.3205 175.268 84.4701 183.058 87.2869Z" fill="#F05553"/>
<path d="M206.531 134.911C206.31 133.193 206.486 131.447 207.044 129.808C207.957 127.591 209.487 124.052 209.487 123.192C209.487 122.331 208.104 122.54 207.348 122.027C206 121.157 204.74 119.097 199.958 120.358C198.559 120.766 199.958 121.583 200.55 121.583C198.602 122.453 199.176 123.322 200.767 123.322C198.967 124.331 200.767 124.791 203.114 125.383C203.114 126.748 201.132 128.921 201.636 131.19C202.14 133.459 202.453 135.589 202.453 135.589L206.531 134.911Z" fill="#FCC9A1"/>
<path d="M208.226 123.305L209.461 123.001C209.534 122.07 209.427 121.135 209.148 120.245C208.365 118.228 205.514 116.689 203.558 116.689C202.419 116.689 203.645 118.132 205.07 118.662C206.496 119.193 207.313 119.862 207.313 121.497C207.313 123.131 208.226 123.305 208.226 123.305Z" fill="#FCC9A1"/>
<path d="M206.444 133.285H202.097C202.097 133.285 197.637 174.024 208.469 174.024C219.302 174.024 206.444 135.146 206.444 133.285Z" fill="#FCCAA7"/>
<path d="M153.977 179.875L157.125 178.336C157.125 178.336 154.238 198.531 153.699 206.051C153.291 211.885 153.517 211.024 153.517 211.024L148.3 211.068C148.3 211.068 143.901 188.699 147.431 174.554C152.491 173.154 153.977 179.875 153.977 179.875Z" fill="#FCC9A1"/>
<path d="M152.334 206.825L153.551 211.007C153.551 211.007 153.986 216.223 153.551 218.162C152.43 223.178 150.578 223.569 150.578 225.49C150.578 227.412 148.457 230.202 147.492 230.202C146.527 230.202 144.241 219.388 148.361 211.076C150.361 206.938 152.334 206.825 152.334 206.825Z" fill="#FCC9A1"/>
<path d="M212.738 108.247L210.712 107.091C212.12 103.89 213.869 100.85 215.929 98.0236L217.537 99.9623C215.658 102.553 214.05 105.329 212.738 108.247Z" fill="#335AA9"/>
<path d="M222.284 94.1983L220.98 91.8858C220.11 92.8247 219.241 93.8158 218.372 94.833L219.823 96.9629C220.615 96.0066 221.44 95.0764 222.284 94.1983ZM227.587 89.4255L226.622 86.8174C225.648 87.565 224.675 88.3736 223.736 89.2081L224.874 91.6859C225.753 90.8947 226.665 90.1297 227.587 89.4603V89.4255Z" fill="#335AA9"/>
<path d="M230.404 87.4433L229.613 84.7048C232.352 83.0747 235.24 81.7067 238.237 80.6188L237.75 83.7224C235.179 84.7046 232.717 85.9516 230.404 87.4433Z" fill="#335AA9"/>
<path d="M272.368 66.8567V120.862C272.387 121.393 272.196 121.909 271.836 122.3C271.476 122.691 270.977 122.924 270.447 122.948H243.983C243.473 122.926 242.991 122.711 242.634 122.346C242.277 121.981 242.072 121.494 242.062 120.984V66.8567C242.041 66.3245 242.231 65.8056 242.591 65.413C242.951 65.0205 243.451 64.7863 243.983 64.7615H270.473C271 64.7929 271.494 65.03 271.849 65.4218C272.203 65.8136 272.39 66.3288 272.368 66.8567Z" fill="#322875"/>
<path d="M272.368 66.8567V69.969H242.062V66.8567C242.041 66.3245 242.231 65.8056 242.591 65.413C242.951 65.0205 243.451 64.7863 243.983 64.7615H270.473C271 64.7929 271.494 65.03 271.849 65.4218C272.203 65.8136 272.39 66.3288 272.368 66.8567Z" fill="#A680B7"/>
<path d="M272.368 117.741V120.862C272.387 121.393 272.196 121.909 271.836 122.3C271.476 122.691 270.977 122.924 270.447 122.948H243.983C243.452 122.926 242.951 122.693 242.591 122.302C242.231 121.911 242.041 121.393 242.062 120.862V117.741H272.368Z" fill="#A680B7"/>
<path d="M257.215 121.531C258.425 121.531 259.406 121.002 259.406 120.349C259.406 119.696 258.425 119.167 257.215 119.167C256.005 119.167 255.024 119.696 255.024 120.349C255.024 121.002 256.005 121.531 257.215 121.531Z" fill="#322875"/>
<path d="M257.893 67.2479C257.881 67.3808 257.831 67.5075 257.748 67.6123C257.666 67.7171 257.554 67.7956 257.428 67.8381C257.301 67.8806 257.165 67.8852 257.036 67.8516C256.907 67.8179 256.79 67.7473 256.7 67.6484C256.611 67.5495 256.552 67.4266 256.531 67.2948C256.51 67.1629 256.528 67.0279 256.582 66.906C256.637 66.7842 256.726 66.681 256.838 66.6089C256.951 66.5368 257.082 66.499 257.215 66.5002C257.403 66.5114 257.58 66.596 257.707 66.7357C257.833 66.8755 257.9 67.0593 257.893 67.2479Z" fill="#322875"/>
<path d="M278.506 55.3462L282.122 50.3386C282.444 49.8952 282.67 49.7909 283.183 49.9474C283.47 50.024 283.739 50.1563 283.975 50.3367C284.21 50.5172 284.408 50.7424 284.557 50.9993C284.653 51.1448 284.7 51.3178 284.689 51.4921C284.678 51.6663 284.61 51.8322 284.496 51.9643C282.044 55.3375 279.601 58.7135 277.167 62.0925C277.075 62.2525 276.93 62.376 276.758 62.4424C276.585 62.5088 276.395 62.5142 276.219 62.4576C275.902 62.3826 275.605 62.2407 275.347 62.0413C275.089 61.8418 274.877 61.5896 274.724 61.3014C274.642 61.1678 274.604 61.0116 274.617 60.8553C274.629 60.699 274.691 60.5508 274.794 60.432C276.037 58.7628 277.271 57.0502 278.506 55.3462Z" fill="#322875"/>
<path d="M279.01 69.769C278.7 69.4391 278.5 69.0204 278.439 68.5715C278.379 68.1226 278.46 67.6659 278.671 67.2653C278.814 67.1144 279.004 67.0163 279.21 66.9871C282.867 66.448 286.524 65.9206 290.182 65.4048C290.668 65.3266 291.164 65.2831 291.642 65.1875C291.814 65.149 291.994 65.1702 292.152 65.2477C292.31 65.3251 292.437 65.4542 292.511 65.6135C292.67 65.8786 292.774 66.1733 292.816 66.4796C292.858 66.7859 292.837 67.0976 292.755 67.3957C292.722 67.5666 292.634 67.7219 292.503 67.8368C292.372 67.9518 292.207 68.0198 292.033 68.0303C289.86 68.3259 287.686 68.6476 285.513 68.9605C283.54 69.2474 281.566 69.5343 279.593 69.8299C279.397 69.8256 279.202 69.8052 279.01 69.769Z" fill="#322875"/>
<path d="M264.822 46.5917C265.142 46.2831 265.551 46.0834 265.992 46.0209C266.432 45.9585 266.88 46.0365 267.274 46.2439C267.444 46.3983 267.555 46.6075 267.587 46.8351C268.166 50.7878 268.746 54.7405 269.325 58.6933C269.335 58.8486 269.358 59.0028 269.395 59.154C269.457 59.3378 269.447 59.5381 269.368 59.7152C269.289 59.8923 269.147 60.0333 268.969 60.1103C268.682 60.2985 268.353 60.4115 268.011 60.4388C267.669 60.4662 267.326 60.407 267.013 60.2668C266.91 60.2088 266.819 60.1302 266.748 60.0361C266.676 59.9419 266.624 59.834 266.596 59.7191C265.952 55.523 265.323 51.3268 264.709 47.1307C264.721 46.9466 264.759 46.7651 264.822 46.5917Z" fill="#322875"/>
<path d="M259.102 97.4758L260.493 98.8581C260.84 99.1972 260.84 99.1972 260.493 99.5362L259.032 100.988C259.179 101.065 259.319 101.155 259.449 101.258C259.849 101.64 260.24 102.049 260.64 102.44C260.736 102.536 260.797 102.623 260.64 102.753L257.163 106.23C256.825 105.845 256.462 105.482 256.076 105.144C255.79 104.917 255.566 104.62 255.426 104.282C255.286 103.945 255.234 103.577 255.276 103.214C255.276 99.4841 255.276 95.7458 255.276 92.0075C255.29 91.9125 255.269 91.8156 255.216 91.7355C255.163 91.6553 255.082 91.5974 254.989 91.5728C253.965 91.1919 253.078 90.5138 252.442 89.6254C251.688 88.59 251.303 87.3322 251.347 86.0523C251.35 85.111 251.591 84.1857 252.047 83.3621C252.503 82.5385 253.159 81.8432 253.955 81.3403C255.07 80.582 256.414 80.2341 257.757 80.3562C259.1 80.4782 260.36 81.0626 261.32 82.0096C262.28 82.9566 262.882 84.2075 263.023 85.5488C263.164 86.8902 262.835 88.2388 262.092 89.3646C261.444 90.3776 260.487 91.1549 259.362 91.5815C259.274 91.6041 259.197 91.658 259.146 91.7333C259.095 91.8085 259.073 91.8998 259.084 91.9901C259.084 92.5726 259.084 93.1551 259.084 93.7289C259.095 93.8901 259.159 94.0432 259.267 94.1635C259.701 94.6243 260.136 95.0764 260.614 95.5198C260.788 95.6849 260.788 95.8066 260.614 95.9805C260.11 96.4587 259.623 96.9542 259.102 97.4758ZM257.224 83.0704C256.894 83.067 256.57 83.1615 256.293 83.3421C256.017 83.5226 255.8 83.7811 255.671 84.0847C255.541 84.3884 255.505 84.7236 255.566 85.0481C255.627 85.3725 255.783 85.6716 256.014 85.9074C256.245 86.1433 256.541 86.3053 256.864 86.3731C257.187 86.4409 257.523 86.4113 257.829 86.2882C258.135 86.1651 258.398 85.9539 258.584 85.6813C258.771 85.4087 258.872 85.0871 258.875 84.757C258.88 84.5371 258.841 84.3186 258.76 84.1142C258.679 83.9097 258.558 83.7235 258.404 83.5664C258.25 83.4093 258.067 83.2845 257.864 83.1994C257.661 83.1142 257.444 83.0703 257.224 83.0704Z" fill="white"/>
<path d="M135.112 80.5145C135.051 80.8883 135.277 81.0709 135.616 81.2186C135.842 81.336 136.093 81.3967 136.347 81.3953C136.602 81.3939 136.852 81.3305 137.076 81.2106C137.301 81.0907 137.492 80.918 137.635 80.7073C137.777 80.4966 137.866 80.2544 137.894 80.0015C137.913 79.8917 137.9 79.7786 137.855 79.6765C137.81 79.5744 137.736 79.4878 137.642 79.4277C137.506 79.3238 137.398 79.1886 137.326 79.0337C137.253 78.8788 137.22 78.7087 137.227 78.5379C137.235 78.3672 137.284 78.2008 137.37 78.053C137.455 77.9052 137.576 77.7803 137.72 77.689C137.931 77.5466 138.185 77.4833 138.438 77.5103C138.691 77.5374 138.927 77.653 139.103 77.8368C139.271 78.0199 139.372 78.2554 139.388 78.5039C139.404 78.7523 139.334 78.9987 139.19 79.2017C139.072 79.3299 139.007 79.4974 139.007 79.6712C139.007 79.8449 139.072 80.0124 139.19 80.1406C139.305 80.3751 139.478 80.5767 139.692 80.7267C139.906 80.8767 140.155 80.9704 140.415 80.9989C140.675 81.0275 140.938 80.9902 141.179 80.8903C141.421 80.7904 141.634 80.6313 141.798 80.4275C141.874 80.3392 141.925 80.2324 141.946 80.1179C141.968 80.0034 141.958 79.8853 141.919 79.7755C141.887 79.6266 141.886 79.4724 141.918 79.3234C141.95 79.1744 142.014 79.0338 142.104 78.9113C142.195 78.7887 142.311 78.687 142.444 78.6128C142.577 78.5387 142.724 78.4938 142.876 78.4813C143.028 78.4688 143.181 78.4889 143.324 78.5403C143.468 78.5917 143.599 78.6732 143.708 78.7793C143.818 78.8854 143.903 79.0136 143.959 79.1554C144.015 79.2973 144.04 79.4494 144.032 79.6016C144.031 79.81 143.97 80.0137 143.856 80.1881C143.742 80.3624 143.579 80.5 143.389 80.584C143.254 80.615 143.127 80.6743 143.017 80.7581C142.907 80.8419 142.816 80.9483 142.75 81.07C142.684 81.1918 142.645 81.3262 142.635 81.4642C142.625 81.6023 142.645 81.7409 142.693 81.8707C142.785 82.2757 143.03 82.6294 143.377 82.8579C143.723 83.0864 144.145 83.1719 144.554 83.0965C144.679 83.07 144.796 83.0111 144.892 82.9257C144.988 82.8404 145.06 82.7314 145.101 82.6096C145.176 82.4399 145.297 82.2949 145.451 82.1917C145.605 82.0885 145.785 82.0314 145.971 82.0272C146.174 82.0078 146.378 82.0516 146.556 82.1528C146.733 82.2539 146.875 82.4074 146.962 82.5922C147.066 82.7741 147.112 82.984 147.091 83.1928C147.071 83.4016 146.986 83.5989 146.849 83.7572C146.721 83.9322 146.54 84.0603 146.332 84.1216C146.125 84.1829 145.903 84.174 145.701 84.0963C145.127 83.8615 144.919 84.0963 144.64 84.444C144.481 84.6388 144.371 84.8692 144.319 85.1157C144.268 85.3621 144.277 85.6174 144.345 85.8597C144.413 86.102 144.539 86.3243 144.711 86.5077C144.884 86.6911 145.098 86.8301 145.336 86.913C145.421 86.9424 145.512 86.9514 145.601 86.9394C145.69 86.9273 145.775 86.8944 145.849 86.8435C146.027 86.7373 146.23 86.682 146.437 86.6835C146.644 86.685 146.846 86.7434 147.023 86.8522C147.205 86.9592 147.348 87.1212 147.432 87.3149C147.517 87.5085 147.538 87.7239 147.492 87.9302C147.466 88.1403 147.375 88.337 147.231 88.4929C147.088 88.6487 146.899 88.7559 146.692 88.7995C146.485 88.8655 146.261 88.8593 146.057 88.782C145.854 88.7047 145.682 88.5607 145.571 88.3736C145.275 87.9128 145.014 87.9041 144.536 88.0345C144.287 88.0894 144.055 88.2036 143.86 88.3675C143.665 88.5313 143.512 88.74 143.414 88.9756C143.317 89.2112 143.278 89.4669 143.301 89.7208C143.324 89.9747 143.407 90.2194 143.545 90.434C143.675 90.6687 143.91 90.6948 144.154 90.7208C144.37 90.7531 144.571 90.8509 144.73 91.0011C144.889 91.1513 144.998 91.3466 145.043 91.5608C145.087 91.7749 145.065 91.9976 144.979 92.1987C144.893 92.3999 144.748 92.5698 144.562 92.6856C144.396 92.7818 144.207 92.8324 144.015 92.8324C143.822 92.8324 143.633 92.7818 143.467 92.6856C143.293 92.6007 143.149 92.4641 143.056 92.2945C142.962 92.1248 142.924 91.9305 142.945 91.738C142.997 91.2685 142.745 91.0686 142.38 90.8686C142.16 90.7654 141.918 90.7156 141.675 90.7232C141.432 90.7309 141.194 90.7958 140.98 90.9127C140.767 91.0295 140.584 91.1951 140.447 91.3959C140.309 91.5967 140.221 91.8271 140.189 92.0684C140.136 92.2042 140.13 92.3538 140.171 92.4937C140.212 92.6337 140.298 92.7562 140.415 92.8421C140.621 93.0179 140.754 93.2642 140.788 93.5327C140.821 93.8012 140.754 94.0727 140.598 94.294C140.434 94.5073 140.197 94.6512 139.932 94.6972C139.667 94.7431 139.395 94.6877 139.169 94.542C138.943 94.3962 138.781 94.1708 138.714 93.9106C138.647 93.6504 138.68 93.3744 138.807 93.1377C139.181 92.5031 139.163 92.2683 138.72 91.7467C138.568 91.5611 138.374 91.4133 138.155 91.3149C137.936 91.2165 137.697 91.1701 137.457 91.1794C137.217 91.1886 136.983 91.2533 136.772 91.3683C136.561 91.4833 136.38 91.6456 136.242 91.8423C136.103 92.051 136.19 92.2509 136.242 92.4509C136.275 92.6623 136.243 92.8788 136.15 93.0714C136.057 93.264 135.907 93.4236 135.721 93.5289C135.511 93.6404 135.272 93.6836 135.036 93.6524C134.801 93.6212 134.581 93.5172 134.408 93.355C134.285 93.2312 134.193 93.079 134.143 92.9117C134.092 92.7445 134.083 92.5673 134.116 92.3957C134.149 92.2241 134.224 92.0633 134.334 91.9274C134.444 91.7915 134.586 91.6847 134.747 91.6163C134.999 91.4946 135.321 91.4772 135.399 91.1121C135.471 90.882 135.494 90.6396 135.467 90.4001C135.44 90.1607 135.364 89.9294 135.243 89.7211C135.072 89.4534 134.825 89.2427 134.534 89.1158C134.243 88.9888 133.921 88.9514 133.608 89.0082C133.295 89.0082 133.173 89.2777 133.052 89.5385C132.991 89.6739 132.903 89.795 132.793 89.894C132.682 89.9929 132.552 90.0674 132.411 90.1125C132.27 90.1577 132.121 90.1725 131.974 90.1559C131.826 90.1394 131.684 90.092 131.556 90.0167C131.431 89.9409 131.322 89.8411 131.236 89.7228C131.15 89.6046 131.088 89.4704 131.054 89.328C131.02 89.1857 131.014 89.0379 131.038 88.8935C131.062 88.749 131.114 88.6107 131.191 88.4866C131.31 88.3069 131.482 88.169 131.683 88.0926C131.885 88.0161 132.105 88.0049 132.313 88.0606C132.861 88.2779 133.182 88.0606 133.486 87.6346C133.622 87.4648 133.719 87.2682 133.773 87.0578C133.827 86.8473 133.835 86.6279 133.797 86.4141C133.759 86.2003 133.676 85.997 133.554 85.8177C133.431 85.6384 133.272 85.4872 133.087 85.3742C132.962 85.2784 132.809 85.2264 132.652 85.2264C132.495 85.2264 132.342 85.2784 132.217 85.3742C132.075 85.4486 131.919 85.49 131.759 85.4952C131.599 85.5004 131.44 85.4694 131.294 85.4044C131.147 85.3394 131.018 85.2421 130.914 85.1199C130.811 84.9977 130.737 84.8537 130.697 84.6987C130.657 84.5436 130.653 84.3816 130.685 84.2248C130.716 84.0679 130.783 83.9202 130.88 83.7929C130.977 83.6655 131.102 83.5617 131.244 83.4893C131.387 83.4169 131.544 83.3777 131.704 83.3747C131.864 83.3741 132.021 83.4127 132.162 83.4869C132.303 83.5612 132.423 83.6689 132.513 83.8007C132.602 83.9558 132.745 84.0736 132.914 84.1326C133.083 84.1917 133.268 84.188 133.434 84.1223C133.672 84.084 133.898 83.9906 134.093 83.8496C134.289 83.7087 134.448 83.524 134.56 83.3104C134.671 83.0968 134.731 82.8601 134.735 82.6192C134.739 82.3783 134.686 82.1399 134.582 81.9228C134.54 81.7944 134.458 81.6824 134.349 81.6028C134.24 81.5232 134.108 81.4801 133.973 81.4795C133.718 81.472 133.475 81.3715 133.289 81.1969C133.104 81.0223 132.988 80.7857 132.965 80.5318C132.946 80.2851 133.012 80.0393 133.153 79.8357C133.294 79.6321 133.5 79.4831 133.738 79.4138C133.975 79.3445 134.229 79.359 134.458 79.4549C134.686 79.5509 134.874 79.7224 134.99 79.9407C135.077 80.1194 135.118 80.3162 135.112 80.5145Z" fill="#72CDDF"/>
<path d="M155.368 54.0856C155.273 54.6594 155.629 54.955 156.142 55.1636C156.49 55.3455 156.877 55.4398 157.269 55.4386C157.662 55.4373 158.048 55.3405 158.395 55.1564C158.742 54.9724 159.038 54.7067 159.259 54.3823C159.48 54.0578 159.619 53.6845 159.663 53.2945C159.691 53.1281 159.669 52.9573 159.601 52.803C159.533 52.6486 159.422 52.5173 159.281 52.4251C159.084 52.2652 158.927 52.0614 158.823 51.83C158.719 51.5986 158.67 51.3461 158.681 51.0926C158.692 50.8392 158.762 50.5918 158.886 50.3703C159.01 50.1488 159.184 49.9593 159.394 49.817C159.709 49.6322 160.077 49.5571 160.439 49.6036C160.802 49.6501 161.139 49.8156 161.397 50.074C161.655 50.3325 161.821 50.6693 161.867 51.0318C161.914 51.3944 161.839 51.7621 161.654 52.0774C161.468 52.2703 161.359 52.5253 161.35 52.7933C161.34 53.0613 161.43 53.3234 161.602 53.5292C161.785 53.8761 162.051 54.1729 162.375 54.3938C162.699 54.6147 163.073 54.753 163.462 54.7967C163.852 54.8404 164.247 54.7882 164.612 54.6445C164.977 54.5009 165.302 54.2702 165.557 53.9726C165.674 53.8339 165.753 53.6674 165.787 53.4892C165.82 53.3109 165.807 53.1271 165.749 52.9554C165.708 52.6741 165.742 52.3871 165.847 52.1229C165.952 51.8587 166.124 51.6266 166.346 51.4498C166.569 51.273 166.834 51.1576 167.115 51.1152C167.396 51.0727 167.683 51.1048 167.948 51.208C168.268 51.3226 168.542 51.5363 168.731 51.8178C168.92 52.0993 169.015 52.434 169 52.7729C168.999 53.0951 168.905 53.4102 168.73 53.6801C168.554 53.9501 168.304 54.1634 168.009 54.2943C167.8 54.3402 167.604 54.4306 167.433 54.5594C167.263 54.6881 167.122 54.8522 167.02 55.0403C166.919 55.2285 166.859 55.4363 166.845 55.6496C166.831 55.8629 166.864 56.0767 166.94 56.2764C167.084 56.8995 167.462 57.4431 167.996 57.7944C168.531 58.1457 169.18 58.2777 169.809 58.163C170.006 58.1247 170.19 58.0356 170.343 57.9045C170.495 57.7734 170.611 57.6048 170.678 57.4153C170.816 57.1471 171.026 56.9221 171.283 56.7651C171.541 56.608 171.837 56.5249 172.139 56.5249C172.44 56.5249 172.736 56.608 172.994 56.7651C173.252 56.9221 173.461 57.1471 173.599 57.4153C173.765 57.6944 173.838 58.0187 173.809 58.3419C173.779 58.6651 173.648 58.9707 173.434 59.2149C173.241 59.4794 172.966 59.6735 172.652 59.7676C172.338 59.8618 172.002 59.8508 171.695 59.7365C170.826 59.3714 170.496 59.7365 170.061 60.2755C168.835 61.8665 169.774 63.4053 171.139 64.0834C171.417 64.2225 171.66 64.0834 171.921 63.9703C172.197 63.7994 172.514 63.7088 172.838 63.7088C173.163 63.7088 173.48 63.7994 173.756 63.9703C174.036 64.1353 174.257 64.3849 174.386 64.6832C174.516 64.9816 174.548 65.3133 174.477 65.6308C174.41 65.9405 174.252 66.2229 174.022 66.4414C173.793 66.66 173.503 66.8046 173.191 66.8567C172.869 66.9591 172.522 66.9495 172.206 66.8295C171.89 66.7096 171.624 66.4862 171.452 66.1959C171 65.4831 170.582 65.4744 169.852 65.6743C169.476 65.7689 169.127 65.9521 168.836 66.2088C168.545 66.4654 168.319 66.788 168.178 67.1496C168.037 67.5112 167.984 67.9013 168.024 68.2874C168.064 68.6735 168.196 69.0444 168.409 69.3691C168.609 69.7343 168.974 69.769 169.339 69.8212C169.68 69.849 170.001 69.9913 170.251 70.2249C170.5 70.4585 170.663 70.7698 170.713 71.1079C170.802 71.4386 170.778 71.7897 170.644 72.1049C170.51 72.4202 170.274 72.6813 169.974 72.8466C169.718 72.9964 169.427 73.0753 169.131 73.0753C168.834 73.0753 168.543 72.9964 168.287 72.8466C168.019 72.7149 167.798 72.5044 167.654 72.2432C167.509 71.9821 167.448 71.683 167.479 71.3861C167.566 70.6558 167.175 70.3515 166.609 70.1081C166.279 69.9412 165.914 69.8536 165.544 69.8523C165.174 69.851 164.808 69.936 164.477 70.1005C164.145 70.2651 163.856 70.5047 163.634 70.8002C163.411 71.0958 163.26 71.4393 163.193 71.8034C163.116 72.0151 163.109 72.246 163.173 72.462C163.237 72.678 163.369 72.8677 163.549 73.0031C163.858 73.2829 164.055 73.6641 164.106 74.0773C164.157 74.4905 164.058 74.9083 163.827 75.2548C163.578 75.5958 163.207 75.8283 162.792 75.9045C162.376 75.9806 161.947 75.8945 161.593 75.664C161.239 75.4335 160.987 75.0761 160.888 74.6652C160.789 74.2543 160.852 73.8213 161.063 73.4552C161.645 72.4902 161.619 72.1685 160.941 71.3078C160.705 71.0228 160.405 70.7962 160.067 70.6457C159.729 70.4952 159.36 70.4247 158.99 70.4399C158.62 70.455 158.258 70.5553 157.933 70.733C157.608 70.9107 157.328 71.1609 157.116 71.4643C156.899 71.786 157.038 72.0903 157.116 72.4119C157.189 72.7483 157.151 73.0991 157.008 73.4123C156.866 73.7256 156.626 73.9845 156.325 74.1507C156.002 74.3222 155.633 74.3876 155.271 74.3377C154.909 74.2877 154.572 74.1249 154.308 73.8725C154.132 73.6819 154.003 73.4523 153.933 73.2025C153.863 72.9527 153.853 72.6898 153.904 72.4354C153.955 72.181 154.065 71.9422 154.226 71.7387C154.387 71.5351 154.594 71.3726 154.829 71.2644C155.221 71.0818 155.699 71.047 155.838 70.4906C155.948 70.1339 155.984 69.7582 155.942 69.3871C155.9 69.016 155.782 68.6577 155.595 68.3346C155.328 67.9251 154.947 67.6035 154.498 67.4101C154.05 67.2168 153.554 67.1603 153.073 67.2479C152.586 67.2913 152.404 67.6652 152.204 68.0564C152.111 68.2657 151.974 68.453 151.804 68.6061C151.633 68.7593 151.432 68.8749 151.214 68.9454C150.996 69.0159 150.766 69.0397 150.538 69.0154C150.31 68.991 150.09 68.919 149.891 68.804C149.508 68.5605 149.236 68.1768 149.132 67.735C149.028 67.2931 149.101 66.8281 149.335 66.4394C149.515 66.1572 149.782 65.9411 150.096 65.8236C150.409 65.706 150.752 65.6933 151.074 65.7873C151.4 65.9145 151.762 65.9164 152.089 65.7928C152.416 65.6692 152.687 65.4288 152.847 65.1179C153.054 64.8565 153.203 64.5543 153.285 64.2312C153.367 63.908 153.38 63.5712 153.322 63.2428C153.265 62.9144 153.139 62.6019 152.952 62.3257C152.765 62.0496 152.522 61.8161 152.239 61.6404C152.044 61.4958 151.808 61.4176 151.565 61.4176C151.322 61.4176 151.086 61.4958 150.891 61.6404C150.582 61.8396 150.213 61.9259 149.847 61.8847C149.481 61.8435 149.141 61.6774 148.883 61.4144C148.644 61.1811 148.482 60.8804 148.418 60.5524C148.354 60.2245 148.392 59.8849 148.526 59.5789C148.66 59.2729 148.884 59.015 149.168 58.8397C149.453 58.6644 149.784 58.58 150.117 58.5976C150.363 58.5995 150.604 58.6605 150.82 58.7756C151.037 58.8906 151.222 59.0562 151.361 59.2584C151.5 59.4981 151.72 59.6799 151.982 59.7709C152.243 59.8618 152.529 59.8558 152.786 59.7539C153.15 59.6897 153.494 59.5423 153.79 59.3231C154.087 59.1039 154.33 58.8189 154.498 58.4905C154.666 58.1621 154.757 57.7992 154.761 57.4301C154.766 57.0611 154.685 56.696 154.525 56.3634C154.461 56.1654 154.335 55.9931 154.166 55.8712C153.998 55.7494 153.794 55.6842 153.586 55.6853C153.193 55.6718 152.819 55.5149 152.534 55.2442C152.249 54.9735 152.073 54.6077 152.039 54.216C152 53.8334 152.097 53.4493 152.313 53.1313C152.53 52.8133 152.851 52.5817 153.221 52.4773C153.595 52.3728 153.994 52.4025 154.348 52.5613C154.702 52.7201 154.989 52.998 155.16 53.3467C155.275 53.5779 155.345 53.8285 155.368 54.0856Z" fill="#72CDDF"/>
<defs>
<linearGradient id="paint0_linear" x1="312.014" y1="282.217" x2="348.38" y2="51.3101" gradientUnits="userSpaceOnUse">
<stop offset="0.390625" stop-color="#43C4D9"/>
<stop offset="1" stop-color="white" stop-opacity="0.32"/>
</linearGradient>
</defs>
</svg>
