<svg width="328" height="313" viewBox="0 0 328 313" fill="none" xmlns="http://www.w3.org/2000/svg">
<path opacity="0.4" fill-rule="evenodd" clip-rule="evenodd" d="M14.0016 313L327 26.8892V313H14.0016Z" fill="url(#paint0_linear)" fill-opacity="0.5"/>
<circle cx="21" cy="21" r="21" fill="#43C4D9"/>
<path d="M30.2021 27.1842H26.7301V31.6362H23.2021V27.1842H12.4501V24.6642L22.1101 12.0362H26.0021L16.9021 24.1042H23.3141V20.1562H26.7301V24.1042H30.2021V27.1842Z" fill="white"/>
<path d="M227.111 196.224C227.111 196.224 227.163 192.576 225.429 190.96C223.694 189.345 216.919 189.829 215.914 191.913C215.17 193.514 211.924 193.574 210.919 195.509C210.04 197.207 207.472 198.301 206.608 200.907C205.744 203.513 207.874 207.563 207.181 208.21C206.489 208.858 206.31 210.399 207.308 212.61C208.514 215.29 210.033 216.936 211.775 216.936C213.517 216.936 212.423 216.191 214.954 216.191C217.485 216.191 228.444 203.9 227.111 196.224Z" fill="#F05553"/>
<path d="M167.604 298.368C167.604 299.507 163.137 300.431 157.62 300.431C152.104 300.431 147.637 299.507 147.637 298.368C147.637 297.229 152.104 296.306 157.62 296.306C163.137 296.306 167.604 297.207 167.604 298.368Z" fill="#A4D0DC"/>
<path d="M235.621 230.136C235.621 230.136 237.408 227.902 238.949 229.48C240.49 231.059 241.301 241.117 240.512 256.193C223.932 254.942 225.809 254.347 225.809 254.347C225.809 254.347 232.293 230.791 235.621 230.136Z" fill="#E0D5D9"/>
<path d="M212.959 206.96C212.959 206.96 213.643 216.638 210.144 219.102C207.687 220.703 204.961 221.845 202.096 222.475C202.096 222.475 207.419 228.959 210.792 229.741C214.165 230.523 224.677 230.776 229.218 224.291C222.86 221.432 222.473 220.01 223.262 215.357C220.082 212.26 216.634 209.45 212.959 206.96Z" fill="#FCCAA7"/>
<path d="M217.299 227.924C212.832 227.924 207.01 224.202 204.583 221.782C195.329 224.634 191.346 230.136 191.346 230.136L207.784 269.266C207.784 269.266 211.417 275.326 215.661 275.326C219.905 275.326 227.164 273.42 227.164 273.42L233.737 227.098L227.216 223.376C227.216 223.376 224.915 227.924 217.299 227.924Z" fill="#E0D5D9"/>
<path d="M216.919 274.306C216.919 274.306 212.222 251.793 209.474 238.95C206.727 226.108 205.596 223.636 204.561 221.782C200.258 221.782 191.435 225.713 190.527 227.79C194.034 234.409 199.714 272.832 201.3 274.023C202.886 275.215 216.919 274.306 216.919 274.306Z" fill="#322875"/>
<path d="M222.175 271.604C224.252 279.384 230.275 272.467 230.275 270.115C230.275 266.482 231.764 246.775 233.998 242.1C236.231 237.424 238.644 229.145 238.644 229.145C234.497 226.689 232.01 225.088 227.223 223.316C226.858 223.755 226.613 245.003 222.175 271.604Z" fill="#322875"/>
<path d="M179.732 243.514C184.452 243.067 187.177 240.104 191.949 239.323C196.721 238.541 206.184 240.38 208.581 250.661L209.378 254.093L147.726 265.194C147.726 265.194 142.15 244.616 156.37 240.551C170.589 236.486 171.825 244.251 179.732 243.514Z" fill="#F05553"/>
<path d="M183.938 273.138C188.763 271.872 193.617 273.703 198.352 272.721C203.087 271.738 211.127 266.817 209.742 256.037L209.281 252.441L147.726 264.397C147.726 264.397 149.759 286.27 164.492 284.968C179.226 283.665 176.873 275.006 183.938 273.138Z" fill="#F05553"/>
<path d="M187.393 258.888C187.382 260.428 186.915 261.931 186.051 263.205C185.187 264.48 183.964 265.47 182.537 266.05C181.11 266.63 179.544 266.774 178.035 266.463C176.526 266.153 175.144 265.402 174.062 264.305C172.98 263.209 172.248 261.816 171.958 260.304C171.667 258.791 171.832 257.227 172.431 255.808C173.03 254.389 174.036 253.179 175.322 252.332C176.609 251.485 178.117 251.038 179.657 251.048C180.68 251.054 181.692 251.262 182.635 251.659C183.577 252.056 184.432 252.636 185.151 253.364C185.869 254.092 186.437 254.955 186.822 255.903C187.206 256.851 187.4 257.865 187.393 258.888Z" fill="white"/>
<path d="M273.277 241.132L198.739 255.873L198.247 252.895L256.013 241.467L256.951 239.36L270.776 235.57C270.776 235.57 272.406 235.928 273.277 241.132Z" fill="#F05553"/>
<path d="M259.117 238.318C259.466 238.224 259.765 238.001 259.953 237.693C260.142 237.386 260.205 237.018 260.13 236.665C260.111 236.489 260.058 236.319 259.973 236.165C259.887 236.01 259.772 235.874 259.633 235.765C259.494 235.656 259.334 235.576 259.164 235.53C258.994 235.484 258.816 235.472 258.641 235.496C258.292 235.591 257.993 235.816 257.806 236.125C257.619 236.434 257.558 236.803 257.636 237.156C257.653 237.331 257.706 237.501 257.79 237.655C257.875 237.809 257.99 237.945 258.128 238.053C258.267 238.162 258.426 238.241 258.596 238.287C258.766 238.332 258.943 238.343 259.117 238.318Z" fill="#F05553"/>
<path d="M268.349 236.062C268.697 235.967 268.996 235.742 269.183 235.433C269.37 235.124 269.432 234.754 269.354 234.402C269.337 234.226 269.284 234.055 269.199 233.901C269.114 233.746 268.998 233.61 268.859 233.501C268.719 233.393 268.559 233.314 268.389 233.269C268.218 233.224 268.04 233.214 267.865 233.24C267.517 233.333 267.218 233.557 267.031 233.865C266.844 234.173 266.782 234.541 266.86 234.893C266.876 235.069 266.928 235.241 267.013 235.396C267.098 235.552 267.213 235.689 267.353 235.798C267.492 235.907 267.652 235.987 267.824 236.033C267.995 236.078 268.174 236.088 268.349 236.062Z" fill="#F05553"/>
<path d="M273.277 241.132L198.448 254.101L199.26 258.843L257.025 247.415L258.589 249.031L272.734 247.281C272.734 247.281 274.141 246.328 273.277 241.132Z" fill="#F05553"/>
<path d="M260.934 249.18C261.109 249.156 261.287 249.167 261.457 249.214C261.627 249.26 261.787 249.34 261.926 249.449C262.065 249.558 262.18 249.694 262.266 249.848C262.351 250.003 262.404 250.173 262.423 250.349C262.498 250.701 262.435 251.07 262.246 251.377C262.058 251.685 261.759 251.908 261.41 252.001C261.235 252.027 261.057 252.018 260.887 251.973C260.716 251.928 260.556 251.849 260.417 251.74C260.277 251.632 260.162 251.496 260.076 251.341C259.991 251.186 259.938 251.016 259.921 250.84C259.844 250.486 259.906 250.116 260.095 249.807C260.283 249.498 260.584 249.273 260.934 249.18Z" fill="#F05553"/>
<path d="M270.299 247.758C270.475 247.733 270.653 247.744 270.824 247.789C270.995 247.835 271.154 247.915 271.294 248.024C271.433 248.133 271.548 248.27 271.633 248.425C271.718 248.58 271.771 248.751 271.788 248.927C271.864 249.278 271.802 249.646 271.615 249.953C271.428 250.26 271.13 250.485 270.783 250.579C270.609 250.604 270.431 250.594 270.261 250.549C270.09 250.503 269.931 250.424 269.792 250.315C269.653 250.207 269.537 250.072 269.452 249.917C269.366 249.763 269.313 249.593 269.294 249.418C269.219 249.065 269.28 248.697 269.467 248.388C269.654 248.08 269.952 247.854 270.299 247.758Z" fill="#F05553"/>
<path d="M166.222 253.946L162.834 254.934L167.447 270.751L170.835 269.763L166.222 253.946Z" fill="white"/>
<path d="M327 300.87C327 301.421 325.734 301.86 324.171 301.86H135.829C134.266 301.86 133 301.421 133 300.87V300.408C133 299.865 134.266 299.426 135.829 299.426H324.186C325.749 299.426 327.015 299.865 327.015 300.408L327 300.87Z" fill="#B8E0EA"/>
<path d="M154.896 297.721L155.58 298.331L157.62 298.368L157.74 288.779L151.374 288.653C151.396 297.125 154.896 297.721 154.896 297.721Z" fill="#A4D0DC"/>
<path d="M159.846 298.413L160.353 298.026C160.353 298.026 163.993 297.817 164.075 288.913H163.561L157.71 288.809L157.591 298.398L159.846 298.413Z" fill="#A4D0DC"/>
<path d="M151.404 289.926C151.404 289.926 151.024 288.184 148.545 288.05C146.066 287.916 147.019 293.261 149.595 295.175C152.171 297.088 152.357 293.418 152.357 293.418L151.821 293.224C151.821 293.224 151.344 294.772 150.533 294.564C149.721 294.356 147.763 291.817 147.853 290.328C147.979 288.266 150.22 289.792 150.429 290.514C150.637 291.236 150.808 292.003 151.575 291.869C152.342 291.735 151.404 289.926 151.404 289.926Z" fill="#A4D0DC"/>
<path d="M233.112 251.927C233.112 251.927 223.947 265.975 225.22 270.74C226.493 275.505 228.295 278.691 230.514 276.473C232.732 274.254 236.351 269.959 236.998 266.847C237.646 263.735 238.167 255.299 238.167 252.701C238.167 250.103 233.112 251.927 233.112 251.927Z" fill="#F1B185"/>
<path d="M183.73 268.239C195.149 269.965 206.653 271.07 218.192 271.552C235.025 272.088 242.232 268.298 254.412 268.239C249.201 282.563 215.482 284.923 215.482 284.923C215.482 284.923 185.115 271.336 183.73 268.239Z" fill="#2A4C90"/>
<path d="M235.211 289.256L241.197 291.162L239.999 296.239L232.494 295.152L235.211 289.256Z" fill="#335AA9"/>
<path d="M236.209 288.898C236.209 288.898 204.456 274.962 191.539 270.167C178.623 265.372 171.818 269.571 172.54 278.26C173.262 286.948 209.809 293.693 234.333 296.239C235.193 293.858 235.821 291.4 236.209 288.898Z" fill="#335AA9"/>
<path d="M201.851 289.256L195.872 291.162L197.064 296.239L204.568 295.152L201.851 289.256Z" fill="#FCC3A0"/>
<path d="M200.853 288.898C200.853 288.898 232.606 274.962 245.523 270.167C258.44 265.372 265.244 269.571 264.515 278.26C263.785 286.948 227.29 293.693 202.722 296.239C201.869 293.857 201.243 291.399 200.853 288.898Z" fill="#335AA9"/>
<path d="M188.748 291.891C191.137 291.438 193.56 291.189 195.992 291.147C196.803 290.976 197.875 296.142 197.875 296.142C197.875 296.142 193.914 298.696 191.815 298.971C189.715 299.247 189.477 299.366 185.859 299.761C182.241 300.155 179.709 298.272 179.605 296.239C179.501 294.207 184.832 292.68 188.748 291.891Z" fill="#FCC3A0"/>
<path d="M235.8 291.11L218.535 294.229C218.535 294.229 229.285 295.912 234.326 296.247C235.308 294.631 235.8 291.11 235.8 291.11Z" fill="#2A4C90"/>
<path d="M218.535 281.253L200.853 288.898L200.957 289.539L198.173 290.425L190.222 288.4C190.222 288.4 199.9 286.665 206.012 284.253C212.125 281.841 214.686 279.607 214.686 279.607L218.535 281.253Z" fill="#2A4C90"/>
<path d="M213.539 208.94C213.539 208.94 215.832 223.338 220.59 223.338C225.347 223.338 224.2 221.626 223.724 220.748C223.247 219.869 224.826 214.337 224.826 214.337L213.539 208.94Z" fill="#F1B185"/>
<path d="M222.146 286.658L224.416 286.955C224.416 286.955 230.104 290.551 233.737 292.539C237.37 294.527 233.909 296.343 231.504 296.343C229.099 296.343 222.57 291.824 221.267 290.544C219.964 289.263 222.146 286.658 222.146 286.658Z" fill="#FCCAA7"/>
<path d="M231.943 207.808C229.963 214.695 225.406 221.276 220.523 219.876C215.639 218.477 212.125 210.943 214.098 204.041C216.071 197.14 220.5 192.71 225.377 194.11C230.253 195.509 233.916 200.922 231.943 207.808Z" fill="#FCCAA7"/>
<path d="M228.198 199.894C228.198 199.894 218.937 207.682 212.497 209.238C208.477 211.315 207.613 208.195 209.69 204.562C211.767 200.929 213.837 192.457 217.299 192.457C220.761 192.457 226.977 191.243 228.198 192.457C231.489 193.32 234.43 195.219 234.43 199.544C237.021 200.423 237.229 209.9 231.273 209.9C232.405 205.493 228.198 202.656 228.198 199.894Z" fill="#F05553"/>
<path d="M212.207 297.884C212.232 297.454 212.425 297.051 212.746 296.762C213.067 296.473 213.488 296.323 213.919 296.343H261.894C262.325 296.323 262.746 296.473 263.067 296.762C263.388 297.051 263.581 297.454 263.606 297.884C263.581 298.315 263.388 298.718 263.067 299.007C262.746 299.295 262.325 299.446 261.894 299.426H213.919C213.488 299.446 213.067 299.295 212.746 299.007C212.425 298.718 212.232 298.315 212.207 297.884Z" fill="#322875"/>
<path d="M225.503 294.229C224.602 296.053 225.138 297.535 226.702 297.535H262.266C263.83 297.535 265.825 296.046 266.733 294.229L276.613 274.202C277.514 272.378 276.978 270.897 275.414 270.897H239.842C238.286 270.897 236.284 272.386 235.375 274.202L225.503 294.229Z" fill="#322875"/>
<path d="M250.496 284.201C250.057 285.6 250.675 286.732 251.866 286.732C253.057 286.732 254.382 285.6 254.844 284.201C255.305 282.801 254.658 281.669 253.466 281.669C252.275 281.669 250.928 282.801 250.496 284.201Z" fill="white"/>
<path d="M230.454 247.125C230.856 246.581 233.737 244.274 234.966 244.891C236.328 245.636 235.219 242.122 236.678 242.517C237.765 242.807 238.242 243.916 239.038 245.398C239.835 246.879 240.788 251.354 240.438 252.664C240.088 253.974 237.155 256.297 234.482 256.744C231.809 257.191 230.134 255.374 230.529 254.026C230.923 252.679 232.33 251.92 232.695 250.542C233.06 249.165 229.829 247.989 230.454 247.125Z" fill="#FCCAA7"/>
<path d="M199.506 245.308L203.839 244.273C203.839 244.273 207.963 258.315 208.305 260.243C208.521 261.389 207.561 266.631 203.705 264.71C201.595 263.615 199.377 262.744 197.086 262.112L190.549 247.661L199.506 245.308Z" fill="#FCCAA7"/>
<path d="M204.471 259.32H207.74C207.74 259.32 211.462 265.276 213.621 267.442C215.78 269.609 221.811 282.935 224.416 286.955C227.022 290.976 222.667 292.085 220.657 290.075C219.458 288.876 209.169 279.451 202.848 271.165C200.692 268.299 198.77 265.264 197.101 262.089L204.471 259.32Z" fill="#FCCAA7"/>
<path d="M191.346 226.845C196.714 223.696 203.876 234.454 207.382 250.929C195.061 257.592 191.346 256.26 191.346 256.26C191.346 256.26 183.417 231.491 191.346 226.845Z" fill="#E0D5D9"/>
<path d="M75.9927 137.165C77.5909 137.165 78.8865 135.869 78.8865 134.271C78.8865 132.673 77.5909 131.377 75.9927 131.377C74.3945 131.377 73.0989 132.673 73.0989 134.271C73.0989 135.869 74.3945 137.165 75.9927 137.165Z" fill="#A4D0DD"/>
<path d="M78.5858 75.9071C78.5858 75.9071 96.4369 86.0603 84.9621 98.6689C92.6913 97.936 102.863 100.466 106.784 92.8939C109.29 88.0647 109.785 80.3167 109.428 70.5956C88.9144 75.2181 78.5858 75.9071 78.5858 75.9071Z" fill="#C4D1E5"/>
<path d="M118.247 68.5913C118.313 68.8554 118.326 69.13 118.286 69.3992C118.246 69.6685 118.152 69.9271 118.011 70.1601C117.87 70.393 117.685 70.5958 117.465 70.7565C117.245 70.9173 116.996 71.0329 116.731 71.0967L75.3915 81.1184C75.127 81.1838 74.8522 81.1962 74.5829 81.155C74.3136 81.1138 74.0551 81.0198 73.8223 80.8784C73.5894 80.7369 73.3868 80.5508 73.2262 80.3308C73.0655 80.1108 72.9499 79.8612 72.8861 79.5963L72.5791 78.3436C72.5138 78.0792 72.5013 77.8044 72.5425 77.5351C72.5837 77.2658 72.6777 77.0073 72.8192 76.7744C72.9606 76.5416 73.1467 76.339 73.3667 76.1783C73.5867 76.0177 73.8363 75.9021 74.1012 75.8382L115.441 65.8165C115.975 65.6862 116.539 65.7734 117.008 66.0588C117.478 66.3442 117.816 66.8046 117.946 67.3386L118.247 68.5913Z" fill="#A4D0DD"/>
<path d="M125.782 88.0146L114.476 132.135L112.403 131.195L118.554 85.8787L125.782 88.0146Z" fill="#A4D0DD"/>
<path d="M82.7574 94.5161L75.0845 134.271H77.3582L90.4302 90.451L82.7574 94.5161Z" fill="#A4D0DD"/>
<path d="M145.349 100.335C145.349 108.114 130.003 114.428 111.069 114.428C92.1339 114.428 76.7631 108.622 76.7756 97.9235C76.7756 87.6387 92.1401 86.242 111.069 86.242C129.997 86.242 145.349 92.5243 145.349 100.335Z" fill="#C2E2ED"/>
<path d="M111.069 109.837C130.001 109.837 145.349 103.97 145.349 96.7334C145.349 89.4966 130.001 83.63 111.069 83.63C92.1361 83.63 76.7882 89.4966 76.7882 96.7334C76.7882 103.97 92.1361 109.837 111.069 109.837Z" fill="#DFF2F8"/>
<path d="M154.525 16.4786C159.73 17.1425 163.294 23.8445 162.981 30.985C162.586 40.23 162.286 52.4689 159.279 63.355C155.467 76.6972 149.788 89.4337 142.411 101.187L101.46 95.9505C101.46 95.9505 108.35 66.2237 115.804 44.5581C120.533 30.8096 127.304 22.2473 131.638 17.8127C132.797 16.6291 134.215 15.7303 135.78 15.1869C137.345 14.6435 139.014 14.4703 140.658 14.681L154.525 16.4786Z" fill="#C2E2ED"/>
<path d="M149.226 15.8084C154.5 16.4786 157.995 23.168 157.682 30.3148C157.287 39.5597 157.381 48.7045 154.375 59.5906C148.512 80.8428 137.119 100.517 137.119 100.517L101.936 88.1711C101.936 88.1711 108.363 66.2487 115.804 44.5706C120.527 30.8221 122.067 23.4687 126.364 19.0404C128.694 16.654 130.749 14.5745 134.112 15.0004L149.226 15.8084Z" fill="#A4D0DD"/>
<path d="M49.4353 151.746C49.5292 151.709 57.5403 149.241 58.7805 147.017C59.8578 147.33 62.714 145.476 63.7036 145.94C64.3278 146.161 64.9951 146.231 65.6516 146.147C65.9084 147.305 65.5389 148.495 65.7268 149.397C66.5536 153.3 65.8082 155.091 65.8082 155.091C65.8082 155.091 47.4184 155.047 45.0821 155.091C43.3221 154.634 43.0465 153.155 49.4353 151.746Z" fill="#AA633F"/>
<path d="M113.524 75.832C113.524 75.832 95.7855 48.7359 80.4399 49.4437C77.6526 58.3692 96.5622 89.2861 105.024 90.6828C119.224 91.7664 120.314 90.8206 120.314 90.8206L113.524 75.832Z" fill="#2A4C90"/>
<path d="M113.092 40.5619C113.092 40.5619 112.515 39.0962 111.482 39.0962C104.821 38.8547 98.1546 39.3462 91.6015 40.5619C81.68 42.5161 78.4167 44.4641 78.4167 46.1177C78.4167 47.7712 78.2225 50.8529 91.6579 50.8529C105.093 50.8529 107.098 50.4019 108.231 51.5419C109.365 52.6819 113.092 40.5619 113.092 40.5619Z" fill="#F6E5E7"/>
<path d="M118.416 7.00809C118.416 7.00809 118.673 3.49424 120.639 2.46075C122.606 1.42727 128.556 2.0411 131.751 5.23551C134.945 8.42992 134.419 11.6556 135.146 16.6164C135.872 21.5771 141.002 18.4015 143.069 22.0156C145.136 25.6296 143.695 31.8619 139.987 33.4403C135.164 35.5072 132.753 31.4109 131.669 30.3085C130.586 29.2061 130.655 30.559 128.538 30.559C126.421 30.559 125.825 25.805 125.205 22.9112C124.585 20.0175 121.103 6.17504 118.416 7.00809Z" fill="#4C266E"/>
<path d="M118.566 30.321C118.566 30.321 120.84 38.0752 114.445 39.3154C110.687 40.0357 115.365 43.8628 119.086 43.8628C122.806 43.8628 134.745 41.8459 136.962 39.6223C132.415 37.7433 127.529 35.6011 126.94 25.141C123.922 26.47 121.103 28.2134 118.566 30.321Z" fill="#AA633F"/>
<path d="M117.846 30.9411C117.846 30.9411 120.564 34.5614 121.391 35.3882C122.218 36.215 127.824 32.7825 126.965 25.141C123.546 26.9073 117.846 30.9411 117.846 30.9411Z" fill="#934624"/>
<path d="M101.391 34.4174C101.391 34.4174 106.747 33.2398 108.513 31.4359C108.727 31.1944 108.99 31.001 109.284 30.8685C109.578 30.7361 109.897 30.6676 110.22 30.6676C110.543 30.6676 110.862 30.7361 111.156 30.8685C111.45 31.001 111.713 31.1944 111.927 31.4359L113.079 34.3923L106.509 38.6954L101.391 34.4174Z" fill="#934624"/>
<path d="M108.989 32.4193L108.513 31.4359C108.513 31.4359 107.317 24.4646 107.317 22.4477C107.317 20.4309 109.597 17.9943 111.307 20.9946C113.017 23.9948 118.103 31.1227 113.079 34.3923C110.079 34.4174 108.989 32.4193 108.989 32.4193Z" fill="#934624"/>
<path d="M140.363 86.3735L140.445 86.4486L140.363 86.3735Z" fill="#E9DBB8"/>
<path d="M78.0534 50.2265C82.0997 48.2222 85.0436 50.8529 86.3276 52.1056C87.6116 53.3583 89.2088 55.5568 91.7706 63.8623C94.9024 74.0718 98.4476 96.5768 98.4476 96.5768L92.7289 97.8295C92.7289 97.8295 76.569 64.4824 75.6608 60.4549C74.7526 56.4274 75.3163 51.5857 78.0534 50.2265Z" fill="#2A4C90"/>
<path d="M119.067 84.3692C119.067 84.3692 83.2146 89.5429 77.3269 98.1051C73.1804 104.124 81.8742 108.127 87.1481 106.348C92.422 104.569 121.717 106.31 125.7 102.001C129.884 97.4725 131.25 85.4152 119.067 84.3692Z" fill="#335AA9"/>
<path d="M125.024 16.5224C128.35 22.3036 127.529 28.9994 123.22 31.486C118.911 33.9726 112.703 31.3044 109.377 25.5231C106.051 19.7419 106.872 13.0399 111.175 10.5532C115.478 8.06661 121.698 10.7662 125.024 16.5224Z" fill="#AA633F"/>
<path d="M78.4042 46.1177C78.0534 49.3873 83.8848 50.7778 87.6053 50.7151C96.2302 50.5585 100.514 44.6332 106.672 39.0524C106.672 39.0524 79.3938 37.0105 78.4042 46.1177Z" fill="#D4C1DB"/>
<path d="M77.8217 46.8192C77.615 52.0305 88.025 50.9657 94.0004 47.1763C99.9759 43.3868 107.004 38.9021 107.004 38.9021L104.385 32.4193C104.385 32.4193 78.1787 37.6619 77.8217 46.8192Z" fill="#F6E5E7"/>
<path d="M105.099 50.7339L110.862 43.2678L108.356 51.0972C107.283 50.8861 106.193 50.7646 105.099 50.7339Z" fill="#D4C1DB"/>
<path d="M120.119 39.7289L115.246 39.1025H111.488C111.488 39.1025 109.246 48.4602 107.824 51.0032C105.945 54.4169 102.863 60.505 108.757 64.1567C109.433 64.9838 109.877 65.9762 110.041 67.0317C111.018 71.2282 111.219 71.1092 110.993 72.2555C111.719 73.3457 112.388 74.4726 112.998 75.6315C115.134 80.7864 113.787 85.8849 117.207 86.9059C125.024 89.1921 130.329 94.5036 126.483 103.191C136.11 100.285 137.006 97.247 138.246 90.8394C139.486 84.4318 136.085 76.8592 134.739 73.1386C133.392 69.4181 133.035 58.8452 133.567 56.8847C134.1 54.9242 137.952 41.9587 139.9 41.0254C138.584 40.018 137.064 39.3104 135.446 38.9522C135.446 38.9522 134.275 40.8626 120.119 39.7289Z" fill="#F6E5E7"/>
<path d="M107.329 61.0187C108.914 62.4781 114.075 62.6347 117.082 62.6347C120.088 62.6347 130.028 62.4656 134.795 54.4921C134.795 56.2834 135.885 58.4506 135.102 62.215C134.038 67.1062 134.188 72.1837 135.54 77.0033C135.954 78.519 129.314 75.2557 129.314 75.2557C129.314 75.2557 131.882 68.9922 129.941 68.0464C127.999 67.1006 124.567 66.9753 121.253 66.9753C118.159 66.9753 110.805 67.7395 110.048 66.9753C109.215 63.9438 107.611 64.1692 106.289 62.1399C105.452 60.7791 105.117 59.168 105.344 57.5863C105.344 57.5863 106.553 60.3046 107.329 61.0187Z" fill="#D4C1DB"/>
<path d="M115.347 81.8513C115.347 81.8513 110.849 82.9599 108.526 82.9599C106.202 82.9599 99.8317 79.4774 98.7607 78.4126C97.6896 77.3478 96.2051 76.0011 98.5164 76.5711C100.828 77.1411 114.908 78.1182 115.985 79.1892C117.063 80.2603 115.347 81.8513 115.347 81.8513Z" fill="#934624"/>
<path d="M87.1481 106.348C85.8578 107.601 85.0248 108.546 82.7636 116.827C81.5109 121.487 80.2582 125.89 75.6921 132.486C73.5249 135.618 67.0359 147.694 67.0359 147.694H57.2021C57.2021 147.694 69.5851 105.897 77.9657 97.3097C80.4398 94.7729 87.1481 106.348 87.1481 106.348Z" fill="#335AA9"/>
<path d="M96.794 110.1L88.9144 154.959H91.1881L104.26 111.14L96.794 110.1Z" fill="#C2E2ED"/>
<path d="M142.142 104.607L150.022 154.959H147.748L134.676 111.14L142.142 104.607Z" fill="#C2E2ED"/>
<path d="M116.618 131.433C116.619 132.006 116.45 132.567 116.133 133.044C115.816 133.52 115.364 133.892 114.835 134.112C114.306 134.332 113.723 134.39 113.161 134.278C112.599 134.167 112.083 133.891 111.678 133.486C111.273 133.081 110.997 132.565 110.886 132.003C110.774 131.441 110.832 130.858 111.052 130.329C111.272 129.8 111.644 129.349 112.121 129.031C112.597 128.714 113.158 128.545 113.731 128.546C114.496 128.546 115.231 128.85 115.772 129.392C116.314 129.933 116.618 130.668 116.618 131.433Z" fill="#A4D0DD"/>
<path d="M93.3114 154.959C93.3127 155.532 93.144 156.092 92.8268 156.569C92.5096 157.045 92.0581 157.417 91.5294 157.637C91.0008 157.857 90.4187 157.915 89.857 157.805C89.2952 157.694 88.779 157.418 88.3737 157.014C87.9684 156.61 87.6922 156.094 87.58 155.532C87.4678 154.971 87.5248 154.389 87.7436 153.86C87.9624 153.331 88.3333 152.878 88.8093 152.56C89.2854 152.242 89.8451 152.072 90.4177 152.072C91.1841 152.072 91.9192 152.376 92.4617 152.917C93.0042 153.459 93.3098 154.193 93.3114 154.959Z" fill="#C2E2ED"/>
<path d="M151.838 154.959C151.839 155.532 151.671 156.092 151.353 156.569C151.036 157.045 150.585 157.417 150.056 157.637C149.527 157.857 148.945 157.915 148.384 157.805C147.822 157.694 147.306 157.418 146.9 157.014C146.495 156.61 146.219 156.094 146.107 155.532C145.994 154.971 146.051 154.389 146.27 153.86C146.489 153.331 146.86 152.878 147.336 152.56C147.812 152.242 148.372 152.072 148.944 152.072C149.711 152.072 150.446 152.376 150.988 152.917C151.531 153.459 151.836 154.193 151.838 154.959Z" fill="#C2E2ED"/>
<path d="M118.272 85.6407C118.272 85.6407 137.401 104.431 116.236 113.877C123.965 113.144 141.428 110.626 145.349 103.053C147.854 98.2241 147.823 89.9563 147.466 80.2352C126.953 84.8828 118.272 85.6407 118.272 85.6407Z" fill="#C2E2ED"/>
<path d="M149.965 78.8885C150.031 79.153 150.043 79.4278 150.002 79.6971C149.961 79.9664 149.867 80.2249 149.725 80.4577C149.584 80.6906 149.398 80.8932 149.178 81.0538C148.958 81.2145 148.708 81.3301 148.443 81.3939L107.104 91.4156C106.57 91.5459 106.006 91.4588 105.536 91.1734C105.066 90.8879 104.729 90.4276 104.598 89.8936L104.298 88.6409C104.231 88.3768 104.218 88.1022 104.258 87.8329C104.299 87.5637 104.392 87.3051 104.533 87.0721C104.674 86.8391 104.86 86.6364 105.08 86.4756C105.299 86.3149 105.549 86.1993 105.813 86.1355L147.153 76.1138C147.417 76.0484 147.692 76.0359 147.961 76.0771C148.231 76.1183 148.489 76.2124 148.722 76.3538C148.955 76.4953 149.158 76.6813 149.318 76.9014C149.479 77.1214 149.594 77.371 149.658 77.6358L149.965 78.8885Z" fill="#C2E2ED"/>
<path d="M146.971 76.7339L140.927 73.6334L136.962 72.0801C136.962 72.0801 115.215 76.1639 113.092 78.2873L113.787 82.9599C113.787 82.9599 121.222 82.1707 125.061 81.7948C127.679 81.5443 144.679 81.989 146.971 76.7339Z" fill="#F6E5E7"/>
<path d="M139.029 40.4053C146.971 42.7416 147.679 74.097 146.971 76.7339C145.349 81.181 136.95 75.3371 136.95 75.3371V71.46C136.95 68.9546 134.607 56.891 133.367 55.6508C132.127 54.4106 130.216 37.8122 139.029 40.4053Z" fill="#F6E5E7"/>
<path d="M88.0688 71.7731L101.078 78.0805L111.194 74.1282L100.677 66.9878L88.0688 71.5163V71.7731Z" fill="#F05553"/>
<path d="M88.0688 71.5162L101.279 77.8362L111.426 74.1532L101.648 66.5994L88.0688 71.5162Z" fill="#F05553"/>
<path d="M101.078 78.0804L118.967 80.542L126.59 73.9903L111.194 73.959L101.279 77.8362L101.078 78.0804Z" fill="#F05553"/>
<path d="M101.279 77.8362L118.879 80.0722L126.057 73.9778L111.194 73.959L101.279 77.8362Z" fill="#F05553"/>
<path d="M103.947 67.445C103.947 67.445 88.7954 69.6999 88.5198 69.9066C88.5198 70.9212 88.6326 71.1029 88.5198 71.4411C88.5198 71.4411 100.239 76.9906 101.492 77.6232C109.027 73.909 103.947 67.445 103.947 67.445Z" fill="#E0D5D9"/>
<path d="M111.194 73.9591C111.194 73.9591 124.21 72.8755 125.274 73.9591C123.439 74.955 118.19 78.8885 118.322 79.2205C118.322 79.2205 104.649 76.809 101.492 77.617C104.635 76.1701 107.878 74.9478 111.194 73.9591Z" fill="white"/>
<path d="M97.0696 69.2238L95.7167 68.0588L88.5198 69.9379C88.5198 69.9379 99.2493 75.5751 100.508 76.9217C100.684 74.7733 97.0696 69.2238 97.0696 69.2238Z" fill="#EFE6E8"/>
<path d="M91.5263 69.0609C91.5263 69.0609 90.0544 69.4493 89.2088 69.7249C93.7749 71.7292 100.439 76.715 101.642 77.6044C106.008 75.1742 92.0274 69.4305 91.5263 69.0609Z" fill="#E0D5D9"/>
<path d="M105.381 66.6996C105.381 66.6996 89.8602 68.5786 89.0334 69.205C93.7812 71.3471 100.308 76.7213 101.485 77.6044C105.857 75.193 105.889 67.0754 105.381 66.6996Z" fill="white"/>
<path d="M89.5721 69.1487C91.2108 69.9124 92.7751 70.8266 94.2448 71.8796C97.7022 74.3098 101.279 77.2349 101.492 77.6232C101.642 77.5767 101.769 77.4755 101.847 77.3398C101.926 77.2041 101.951 77.0437 101.918 76.8904C101.918 76.8904 93.3553 68.134 89.5721 69.1487Z" fill="#E0D5D9"/>
<path d="M89.5721 68.5849C89.5721 68.5849 91.5577 69.7312 94.2448 71.6165C97.7022 74.0467 101.279 77.2537 101.492 77.6232C106.321 75.8318 111.194 73.959 111.194 73.959C111.194 73.959 106.44 65.8164 104.304 65.1274C101.479 64.8205 92.1214 66.6933 89.5721 68.5849Z" fill="white"/>
<path d="M99.218 73.0947L102.25 76.1575L106.816 74.3536C106.067 73.1991 105.173 72.1464 104.154 71.2219C102.074 71.9735 99.218 73.0947 99.218 73.0947Z" fill="#D5E2F4"/>
<path d="M92.4095 68.754C92.4095 68.754 97.2638 71.4849 98.3662 72.5122L104.291 70.4139C104.291 70.4139 107.041 73.3076 107.498 74.172C110.079 73.5018 110.079 73.2325 110.079 73.2325C110.079 73.2325 105.788 65.9855 103.815 65.7538C98.3537 66.2674 92.4095 68.754 92.4095 68.754Z" fill="#D5E2F4"/>
<path d="M100.677 77.5105C100.677 77.5105 100.847 77.2725 101.009 77.3101C101.172 77.3477 101.673 77.498 101.755 77.6296C101.83 77.8118 101.889 78.0004 101.93 78.1933C101.93 78.1933 100.627 78.2246 100.677 77.5105Z" fill="#F89839"/>
<path d="M100.627 77.5168C100.627 77.5168 100.803 77.2851 100.966 77.3227C101.232 77.3712 101.484 77.4782 101.705 77.6358C101.767 77.7982 101.803 77.9695 101.811 78.1432C101.811 78.1432 100.584 78.2309 100.627 77.5168Z" fill="#EC8628"/>
<path d="M112.678 14.9189C112.678 14.9189 110.211 23.2369 108.876 24.546C104.617 24.546 103.866 17.6874 104.824 16.7541C106.922 14.6558 103.747 12.8206 107.329 9.60116C111.288 6.03094 116.017 5.40459 120.326 6.21258C127.053 7.46529 134.914 17.3742 126.978 25.3164C127.225 22.773 126.793 20.2095 125.725 17.8878C125.725 17.8878 121.76 19.6479 118.247 17.9943C116.314 17.1137 114.453 16.0855 112.678 14.9189Z" fill="#4C266E"/>
<defs>
<linearGradient id="paint0_linear" x1="170.501" y1="26.8892" x2="-23.8462" y2="157.532" gradientUnits="userSpaceOnUse">
<stop offset="0.390625" stop-color="#43C4D9"/>
<stop offset="1" stop-color="white" stop-opacity="0.32"/>
</linearGradient>
</defs>
</svg>
