<svg width="375" height="317" viewBox="0 0 375 317" fill="none" xmlns="http://www.w3.org/2000/svg">
<mask id="mask0" mask-type="alpha" maskUnits="userSpaceOnUse" x="0" y="5" width="375" height="308">
<rect y="5" width="375" height="308" fill="#C4C4C4"/>
</mask>
<g mask="url(#mask0)">
<path opacity="0.2" fill-rule="evenodd" clip-rule="evenodd" d="M185.851 24.8506C217.163 23.1709 249.258 18.8144 277.176 34.4986C307.955 51.7905 336.715 78.8719 346.752 115.246C356.72 151.367 341.678 188.788 329.49 224.076C317.895 257.65 304.321 291.009 278.47 312.951C252.131 335.307 219.121 346.29 185.851 345.994C152.771 345.7 121.341 332.296 94.3134 311.315C66.9858 290.1 41.8051 262.858 33.0293 227.358C24.4548 192.672 35.5669 156.737 47.8686 123.436C59.3876 92.2542 75.1152 62.297 100.778 43.9616C125.658 26.1851 156.217 26.4403 185.851 24.8506Z" fill="url(#paint0_linear)" fill-opacity="0.5"/>
</g>
<circle cx="46" cy="21" r="21" fill="#43C4D9"/>
<path d="M47.4276 20.1282C49.2383 20.3522 50.6196 20.9682 51.5716 21.9762C52.5236 22.9842 52.9996 24.2442 52.9996 25.7562C52.9996 26.8949 52.7103 27.9309 52.1316 28.8642C51.5529 29.7976 50.6756 30.5442 49.4996 31.1042C48.3423 31.6456 46.9236 31.9162 45.2436 31.9162C43.8436 31.9162 42.4903 31.7202 41.1836 31.3282C39.8956 30.9176 38.7943 30.3576 37.8796 29.6482L39.4476 26.8202C40.1569 27.4176 41.0156 27.8936 42.0236 28.2482C43.0503 28.5842 44.1049 28.7522 45.1876 28.7522C46.4756 28.7522 47.4836 28.4909 48.2116 27.9682C48.9583 27.4269 49.3316 26.6989 49.3316 25.7842C49.3316 24.8696 48.9769 24.1602 48.2676 23.6562C47.5769 23.1336 46.5129 22.8722 45.0756 22.8722H43.2836V20.3802L47.7356 15.0882H38.8316V12.0362H52.1876V14.4722L47.4276 20.1282Z" fill="white"/>
<path d="M29.5825 313.665H338.072C338.072 313.665 333.741 280.784 309.71 276.133C285.679 271.483 266.307 278.012 251.99 288.778C237.672 299.545 203.185 274.292 168.688 274.687C134.191 275.081 114.237 292.33 91.2861 296.689C68.3352 301.048 47.5919 294.152 29.5825 313.665Z" fill="#C4E8F0"/>
<path d="M262.295 190.107H256.396V248.1H262.295V190.107Z" fill="#C4E8F0"/>
<path d="M280.427 201.531H67.048V219.522H280.427V201.531Z" fill="#C4E8F0"/>
<path d="M280.277 175.884H66.8978V193.874H280.277V175.884Z" fill="#C4E8F0"/>
<path d="M290.329 246.606H65.6952V257.56H290.329V246.606Z" fill="#C4E8F0"/>
<path d="M285.679 256.893H280.371V313.655H285.679V256.893Z" fill="#C4E8F0"/>
<path d="M89.7923 191.103H83.8925V249.096H89.7923V191.103Z" fill="#C4E8F0"/>
<path d="M216.478 132.819C215.135 131.41 207.6 131.429 205.411 137.911C203.42 143.811 202.593 146.3 199.22 151.411C195.848 156.521 185.72 157.79 179.492 164.253C171.798 172.248 176.035 190.643 187.233 193.686C193.865 195.49 234.093 189.534 248.993 183.352C253.249 181.586 256.819 179.876 256.076 166.01C255.71 159.152 245.15 154.135 240.585 147.221C236.601 141.18 237.015 135.374 231.134 132.321C225.544 129.39 220.461 128.169 216.478 132.819Z" fill="#4C266E"/>
<path d="M230.937 162.656C229.265 165.025 226.932 166.849 224.229 167.898C218.733 170.087 211.659 168.011 207.798 165.08C208.173 167.645 215.896 172.408 221.457 172.398C227.019 172.389 232.365 170.632 233.67 164.93C232.703 164.242 231.789 163.482 230.937 162.656Z" fill="#AA633F"/>
<path d="M224.229 167.908C226.932 166.858 229.265 165.035 230.937 162.665C229.756 161.641 228.762 160.42 227.996 159.058C226.493 153.055 215.839 157.865 214.487 159.941C213.331 161.735 208.69 164.563 207.798 165.127C211.659 168.011 218.733 170.087 224.229 167.908Z" fill="#934624"/>
<path d="M239.871 170.726C242.201 174.916 243.629 186.114 245.921 198.994C246.935 204.781 247.18 212.353 247.386 215.162C244.493 216.055 238.931 204.114 236.179 195.434C234.939 191.432 230.542 185.1 233.529 176.945C234.591 174.108 237.654 170.726 239.871 170.726Z" fill="#934624"/>
<path d="M200.46 170.782C197.98 174.935 194.335 185.598 191.413 198.619C190.126 204.349 188.454 208.671 187.759 211.395C190.465 212.776 198.253 202.264 202.414 194.194C204.293 190.436 207.798 183.522 206.229 174.982C205.674 171.976 202.64 171.177 200.46 170.782Z" fill="#934624"/>
<path d="M237.926 246.672C239.06 245.653 239.977 244.417 240.622 243.036C240.19 238.47 238.245 233.858 234.563 232.495C226.108 229.405 225.375 233.2 220.687 233.829C218.47 234.121 217.991 231.011 212.279 231.951C203.739 233.247 197.003 240.565 195.763 246.362C196.27 246.785 196.759 247.16 197.219 247.517C207.112 247.555 227.301 248.297 237.926 246.672Z" fill="#D4C1DB"/>
<path d="M220.978 188.378C229.809 187.664 232.355 187.289 237.381 183.738C236.676 181.361 235.84 179.679 236.179 177.528C236.883 173.14 237.917 172.877 239.871 170.745C238.8 168.64 235.408 166.048 233.492 164.826C232.496 167.645 225.553 171.666 222.087 171.666C220.612 171.666 215.717 172.605 208.361 164.76C206.83 165.644 201.578 168.622 200.46 170.782C202.095 171.412 203.072 171.487 204.359 174.381C205.505 176.926 204.744 179.848 204.049 183.296C207.572 186.471 212.88 189.027 220.978 188.378Z" fill="#EFE6E8"/>
<path d="M230.57 210.662C230.677 207.95 231.342 205.289 232.524 202.846C230.784 203.354 229.126 204.111 227.601 205.091C224.642 206.848 217.032 214.937 212.833 215.773C207.112 216.9 202.499 222.349 201.757 224.895C201.015 227.441 203.448 230.532 207.985 233.106C209.364 232.54 210.806 232.14 212.279 231.913C217.991 231.039 218.47 234.121 220.687 233.792C225.384 233.162 226.145 229.367 234.563 232.458C238.245 233.82 240.199 238.433 240.622 242.999C243.628 236.986 240.209 228.747 237.362 223.458C234.403 218.009 230.457 215.942 230.57 210.662Z" fill="#EFE6E8"/>
<path d="M201.757 224.895C202.518 222.368 207.112 216.9 212.833 215.773C217.032 214.937 224.642 206.848 227.601 205.091C229.126 204.111 230.784 203.354 232.524 202.846C232.807 202.285 233.121 201.739 233.464 201.211C237.87 194.072 238.715 190.135 238.001 186.086C237.854 185.293 237.663 184.509 237.428 183.738C232.402 187.289 229.856 187.664 221.025 188.378C212.965 189.027 207.619 186.5 204.115 183.296C203.623 185.511 203.374 187.773 203.373 190.041C203.294 191.018 203.431 192 203.776 192.918C204.12 193.835 204.662 194.665 205.364 195.349C207.506 197.839 208.859 206.529 207.365 209.187C205.703 212.128 204.979 212.278 200.169 216.816C195.021 221.673 189.187 230.908 191.207 238.959C191.86 241.87 193.491 244.47 195.829 246.324C196.853 241.542 201.625 235.727 208.042 233.106C203.485 230.513 200.977 227.507 201.757 224.895Z" fill="#D4C1DB"/>
<path d="M230.73 150.302C231.106 158.109 227.16 165.86 221.852 166.104C216.544 166.348 211.884 159.02 211.518 151.223C211.152 143.425 215.21 138.071 220.518 137.854C225.826 137.638 230.316 142.542 230.73 150.302Z" fill="#AA633F"/>
<path d="M215.595 145.135C215.595 145.135 218.977 152.585 223.637 153.694C226.643 154.417 229.988 153.994 231.312 149.569C233.304 152.003 231.575 158.673 231.575 158.673C231.575 158.673 237.268 137.347 226.737 134.369C216.206 131.391 207.863 141.659 207.845 147.24C207.826 152.82 211.837 159.049 211.837 159.049C211.837 159.049 209.32 153.637 211.978 154.032C215.962 154.586 215.698 149.325 215.595 145.135Z" fill="#4C266E"/>
<path d="M76.9781 255.568H71.6702V313.665H76.9781V255.568Z" fill="#C4E8F0"/>
<path d="M289.455 246.888H285.472L293.88 206.454H298.38L289.455 246.888Z" fill="#C4E8F0"/>
<path d="M67.3299 246.888H71.3132L62.8956 206.454H58.3956L67.3299 246.888Z" fill="#C4E8F0"/>
<path d="M208.249 192.155C202.95 198.309 194.382 201.399 192.184 203.043C190.519 204.194 189.231 205.811 188.484 207.692C187.737 209.573 187.563 211.633 187.984 213.612C188.511 215.416 191.911 215.491 193.959 214.993C200.451 213.547 205.731 202.198 210.128 195.998C211.339 194.297 209.197 192.944 208.249 192.155Z" fill="#AA633F"/>
<path d="M256.659 238.066C266.27 239.175 274.734 231.547 277.872 225.853C277.46 224.471 276.605 223.262 275.439 222.414C274.273 221.565 272.86 221.123 271.418 221.156L247.828 221.579C246.575 221.597 245.353 221.972 244.306 222.661C243.259 223.35 242.431 224.324 241.919 225.468C244.39 230.974 249.594 237.259 256.659 238.066Z" fill="#72CDDF"/>
<path d="M281.132 240.706L277.994 226.361C277.994 226.201 277.919 226.041 277.872 225.891C274.734 231.528 266.269 239.175 256.659 238.104C254.193 237.795 251.845 236.871 249.829 235.417C250.158 239.974 251.229 244.389 251.99 248.748H274.668C275.661 248.756 276.642 248.539 277.539 248.114C278.436 247.688 279.225 247.066 279.847 246.292C280.469 245.518 280.907 244.614 281.13 243.646C281.352 242.679 281.353 241.674 281.132 240.706Z" fill="#43C4D9"/>
<path d="M241.919 225.478C241.675 226.02 241.505 226.591 241.411 227.178L239.251 241.073C239.097 242.02 239.153 242.99 239.414 243.913C239.675 244.837 240.135 245.692 240.761 246.419C241.388 247.146 242.166 247.727 243.041 248.121C243.916 248.516 244.867 248.713 245.827 248.701H252.037C251.276 244.342 250.205 239.927 249.876 235.37C246.404 232.826 243.66 229.415 241.919 225.478Z" fill="#43C4D9"/>
<path d="M249.021 221.635C251.68 214.326 257.636 201.738 267.669 203.598C272.761 204.537 272.93 216.046 272.15 221.447C272.047 222.199 269.567 222.312 269.717 221.391C270.826 214.758 269.717 206.999 266.401 206.228C259.759 204.678 254.188 216.299 251.896 221.617C251.492 222.594 248.758 222.396 249.021 221.635Z" fill="#4C266E"/>
<path d="M212.307 307.737C213.707 310.677 206.511 311.664 204.791 308.319C204.791 307.248 204.913 302.964 204.707 299.507C204.65 298.445 207.751 295.073 208.991 297.628C208.775 298.896 210.381 305.923 212.307 307.737Z" fill="#934624"/>
<path d="M228.569 193.555C232.722 200.526 241.055 204.34 242.933 206.332C247.274 210.709 247.875 214.477 247.199 215.848C246.362 217.539 243.103 217.953 241.158 217.154C235.023 214.608 229.321 203.87 226.051 197.012C225.159 195.152 227.498 194.156 228.569 193.555Z" fill="#AA633F"/>
<path d="M232.346 255.522C235.953 246.944 237.982 236.112 231.538 233.604C227.254 231.96 221.936 238.743 220.264 244.248C215.05 261.835 206.539 289.229 204.566 299.573C205.336 300.559 205.017 297.835 208.916 298.098C209.404 291.136 224.651 273.794 232.346 255.522Z" fill="#934624"/>
<path d="M220.537 250.655C222.838 241.091 221.476 236.047 217.296 234.421C213.115 232.796 208.446 237.766 206.811 243.271C201.597 260.858 201.954 289.708 199.981 300.061C200.752 301.048 201.409 299.122 205.299 299.413C208.465 289.098 215.886 269.989 220.537 250.655Z" fill="#AA633F"/>
<path d="M212.288 313.665H205.364C205.244 313.565 205.14 313.448 205.054 313.317C204.303 312.255 204.632 310.123 204.735 308.31C206.698 310.189 211.02 310.517 212.251 307.727C213.697 309.23 213.96 309.963 213.697 311.889C213.614 312.273 213.444 312.633 213.2 312.941C212.955 313.249 212.643 313.496 212.288 313.665Z" fill="#322875"/>
<path d="M197.595 313.665H204.519C204.634 313.56 204.738 313.443 204.829 313.317C205.571 312.255 205.252 310.123 205.139 308.31C203.175 310.189 198.854 310.517 197.623 307.727C196.177 309.23 195.913 309.963 196.177 311.889C196.261 312.274 196.432 312.635 196.678 312.943C196.924 313.25 197.238 313.498 197.595 313.665Z" fill="#322875"/>
<path d="M197.586 307.727C196.646 310.837 203.871 311.88 205.101 308.319C205.045 307.38 204.425 302.203 205.543 298.558C205.853 297.544 201.109 295.486 200.235 298.173C199.728 301.358 199.211 305.66 197.586 307.727Z" fill="#AA633F"/>
<path d="M221.777 176.419H217.389C216.461 176.419 215.708 177.172 215.708 178.101V190.013C215.708 190.942 216.461 191.695 217.389 191.695H221.777C222.705 191.695 223.458 190.942 223.458 190.013V178.101C223.458 177.172 222.705 176.419 221.777 176.419Z" fill="#322875"/>
<path d="M227.911 186.03C227.545 184.715 223.721 181.746 223.214 181.953C222.556 182.3 226.032 185.072 225.76 185.363C225.488 185.654 222.002 181.154 221.401 181.953C221.194 182.234 224.962 186.049 224.717 186.039C224.717 186.039 221.316 182.281 220.959 182.469C220.264 182.629 223.862 186.509 223.721 186.687C223.58 186.866 221.232 183.644 220.772 184.001C220.555 184.235 221.955 185.88 223.505 188.209C224.717 188.576 227.705 187.514 227.911 186.03Z" fill="#AA633F"/>
<path d="M228.672 193.733C227.78 191.854 228.184 186.885 227.921 186.03C226.681 184.94 224.238 186.781 223.458 188.209C225.337 192.832 223.148 193.358 226.004 196.881C227.062 195.987 227.964 194.923 228.672 193.733Z" fill="#AA633F"/>
<path d="M210.221 184.931C211.076 183.334 214.919 181.53 215.417 181.83C215.98 182.272 212.176 184.348 212.41 184.649C212.645 184.949 216.713 181.239 217.108 182.112C217.258 182.422 213.021 185.447 213.256 185.476C213.256 185.523 217.126 182.488 217.474 182.657C218.122 182.93 214.036 186.039 214.139 186.237C214.242 186.434 217.023 183.738 217.408 184.17C217.577 184.423 215.896 185.757 214.036 187.711C212.796 187.956 210.174 186.396 210.221 184.931Z" fill="#AA633F"/>
<path d="M208.117 192.334C209.31 190.69 209.817 185.757 210.221 184.94C211.631 184.076 213.65 186.077 214.177 187.618C211.527 191.855 213.622 192.925 210.203 195.904C209.314 194.838 208.609 193.631 208.117 192.334Z" fill="#AA633F"/>
<path d="M323.961 315.008L346.508 315.703C346.508 315.703 350.896 311.091 349.834 306.929C348.773 302.767 344.075 308.31 342.61 309.982C341.144 311.654 342.469 301.64 339.228 298.586C335.987 295.533 334.737 302.805 334.765 307.398C334.793 311.992 331.411 304.261 328.189 299.488C324.967 294.716 322.487 297.215 323.351 300.428C324.215 303.641 327.231 308.573 326.451 310.029C325.671 311.485 321.923 306.544 319.875 308.15C317.827 309.757 318.719 312.519 323.961 315.008Z" fill="#71CDDF"/>
<path d="M29.1033 315.882L51.6503 316.577C51.6503 316.577 56.0376 311.955 54.976 307.802C53.9144 303.65 49.2171 309.183 47.7516 310.846C46.286 312.509 47.6107 302.513 44.3695 299.451C41.1284 296.388 39.8789 303.678 39.9071 308.272C39.9353 312.866 36.5532 305.134 33.3309 300.362C30.1086 295.589 27.6284 298.079 28.4927 301.301C29.357 304.524 32.3727 309.437 31.5929 310.893C30.8132 312.349 27.0647 307.408 25.0167 309.014C22.9687 310.621 23.8612 313.383 29.1033 315.882Z" fill="#71CDDF"/>
<path d="M38.2631 282.024H37.7089V314.895H38.2631V282.024Z" fill="#71CDDF" stroke="#71CDDF" stroke-width="0.5" stroke-miterlimit="10"/>
<path d="M37.9906 298.737C37.9906 298.737 36.1963 291.916 33.7912 293.711C31.3862 295.505 37.9906 298.737 37.9906 298.737Z" fill="#71CDDF"/>
<path d="M37.9906 298.737C37.9906 298.737 39.7756 291.916 42.1806 293.711C44.5856 295.505 37.9906 298.737 37.9906 298.737Z" fill="#71CDDF"/>
<path d="M38.4885 282.522C39.6543 282.83 40.8528 282.997 42.0584 283.02C43.2234 283.02 45.3278 281.977 45.3653 279.966C45.4029 277.956 45.1587 276.208 46.0793 275.391C46.7735 274.616 47.1944 273.636 47.2776 272.599C47.3607 271.562 47.1015 270.526 46.5397 269.651C45.0271 267.425 43.2234 267.678 42.3497 267.096C41.476 266.513 40.1701 262.793 37.023 262.793C33.8758 262.793 33.2088 266.025 32.8705 266.992C32.5323 267.96 28.7181 268.289 27.929 271.69C27.1399 275.091 30.2307 276.716 30.2307 277.326C30.2307 277.937 28.8497 281.432 32.0344 282.963C35.2192 284.494 36.9196 282.362 38.4885 282.522Z" fill="#F05553"/>
<path d="M37.5491 276.697C39.007 276.697 40.1889 275.515 40.1889 274.057C40.1889 272.599 39.007 271.417 37.5491 271.417C36.0911 271.417 34.9092 272.599 34.9092 274.057C34.9092 275.515 36.0911 276.697 37.5491 276.697Z" fill="white"/>
<path d="M183.757 148.076L186.162 146.714C184.492 142.924 182.426 139.321 179.999 135.966L178.12 138.258C180.326 141.332 182.215 144.621 183.757 148.076Z" fill="#335AA9"/>
<path d="M175.386 134.745L177.115 132.208C176.119 131.006 175.086 129.831 174.024 128.732L172.483 131.476C173.479 132.509 174.456 133.608 175.386 134.745ZM169.43 128.497L170.764 125.576C169.656 124.58 168.509 123.622 167.354 122.757L166.217 125.848C167.307 126.666 168.387 127.558 169.43 128.497Z" fill="#335AA9"/>
<path d="M162.892 123.49L163.831 120.249C160.592 118.324 157.179 116.707 153.638 115.42L154.211 119.084C157.251 120.244 160.161 121.721 162.892 123.49Z" fill="#335AA9"/>
<path d="M140.908 80.5381V138.897C140.929 139.471 140.722 140.029 140.333 140.451C139.945 140.873 139.405 141.125 138.832 141.152H110.235C109.684 141.128 109.162 140.895 108.777 140.501C108.391 140.107 108.17 139.58 108.159 139.029V80.5381C108.136 79.9631 108.341 79.4023 108.73 78.9781C109.119 78.554 109.66 78.3009 110.235 78.274H138.832C139.407 78.3009 139.948 78.554 140.337 78.9781C140.726 79.4023 140.931 79.9631 140.908 80.5381Z" fill="#322875"/>
<path d="M140.908 80.5381V83.9014H108.159V80.5381C108.136 79.9631 108.341 79.4023 108.73 78.9781C109.119 78.554 109.66 78.3009 110.235 78.274H138.832C139.407 78.3009 139.948 78.554 140.337 78.9781C140.726 79.4023 140.931 79.9631 140.908 80.5381Z" fill="#A680B7"/>
<path d="M140.908 135.525V138.897C140.929 139.471 140.722 140.029 140.333 140.451C139.945 140.873 139.405 141.125 138.832 141.152H110.235C109.661 141.128 109.12 140.876 108.731 140.454C108.342 140.031 108.136 139.471 108.159 138.897V135.525H140.908Z" fill="#A680B7"/>
<path d="M124.533 139.621C125.841 139.621 126.901 139.049 126.901 138.343C126.901 137.637 125.841 137.065 124.533 137.065C123.226 137.065 122.166 137.637 122.166 138.343C122.166 139.049 123.226 139.621 124.533 139.621Z" fill="#322875"/>
<path d="M125.266 80.9609C125.253 81.1046 125.199 81.2414 125.11 81.3547C125.02 81.4679 124.9 81.5527 124.763 81.5986C124.627 81.6446 124.479 81.6496 124.34 81.6132C124.2 81.5768 124.074 81.5005 123.977 81.3937C123.88 81.2868 123.817 81.154 123.794 81.0116C123.771 80.8691 123.791 80.7231 123.85 80.5915C123.909 80.4598 124.005 80.3483 124.126 80.2704C124.248 80.1925 124.389 80.1517 124.533 80.1529C124.737 80.1651 124.928 80.2564 125.065 80.4075C125.202 80.5585 125.274 80.7571 125.266 80.9609Z" fill="#322875"/>
<path d="M147.541 68.0997L151.449 62.6884C151.797 62.2093 152.041 62.0965 152.595 62.2657C152.905 62.3484 153.196 62.4913 153.45 62.6864C153.705 62.8814 153.919 63.1247 154.079 63.4024C154.184 63.5596 154.234 63.7466 154.222 63.9349C154.21 64.1231 154.137 64.3024 154.014 64.4452C151.364 68.0903 148.725 71.7385 146.094 75.3899C145.994 75.5628 145.838 75.6962 145.652 75.768C145.465 75.8398 145.26 75.8456 145.07 75.7845C144.727 75.7034 144.406 75.55 144.127 75.3345C143.848 75.119 143.619 74.8464 143.454 74.535C143.365 74.3907 143.325 74.2219 143.338 74.053C143.352 73.8841 143.419 73.7239 143.529 73.5955C144.873 71.7918 146.179 69.941 147.541 68.0997Z" fill="#322875"/>
<path d="M148.057 83.6853C147.722 83.3287 147.506 82.8763 147.441 82.3912C147.375 81.9061 147.463 81.4126 147.691 80.9797C147.846 80.8166 148.051 80.7106 148.274 80.679C152.226 80.0966 156.178 79.5266 160.13 78.9692C160.656 78.8847 161.191 78.8377 161.708 78.7344C161.893 78.6928 162.088 78.7158 162.258 78.7994C162.429 78.8831 162.566 79.0226 162.647 79.1947C162.819 79.4812 162.931 79.7997 162.976 80.1307C163.021 80.4617 162.999 80.7985 162.91 81.1206C162.875 81.3053 162.779 81.4731 162.638 81.5973C162.497 81.7215 162.318 81.7951 162.131 81.8064C159.782 82.1258 157.433 82.4734 155.085 82.8116C152.952 83.1216 150.819 83.4316 148.687 83.7511C148.476 83.7464 148.265 83.7244 148.057 83.6853Z" fill="#322875"/>
<path d="M132.754 58.6394C133.1 58.3059 133.542 58.0901 134.018 58.0226C134.493 57.9552 134.978 58.0395 135.403 58.2636C135.587 58.4304 135.707 58.6565 135.741 58.9024C136.368 63.1738 136.994 67.4452 137.62 71.7166C137.631 71.8844 137.656 72.0511 137.695 72.2145C137.762 72.4131 137.752 72.6295 137.666 72.8209C137.581 73.0123 137.427 73.1647 137.235 73.2479C136.925 73.4513 136.569 73.5733 136.2 73.6029C135.83 73.6324 135.459 73.5685 135.121 73.417C135.01 73.3543 134.912 73.2694 134.835 73.1676C134.757 73.0659 134.701 72.9493 134.67 72.8252C133.975 68.2907 133.295 63.7563 132.632 59.2218C132.645 59.0229 132.686 58.8268 132.754 58.6394Z" fill="#322875"/>
<path d="M126.572 113.626L128.075 115.12C128.451 115.486 128.451 115.486 128.075 115.852L126.497 117.421C126.656 117.504 126.807 117.602 126.948 117.712C127.38 118.126 127.803 118.567 128.235 118.99C128.348 119.093 128.413 119.187 128.235 119.328L124.477 123.086C124.112 122.669 123.72 122.277 123.303 121.912C122.993 121.667 122.751 121.346 122.6 120.981C122.449 120.616 122.393 120.219 122.438 119.826C122.438 115.796 122.438 111.756 122.438 107.717C122.453 107.614 122.43 107.509 122.373 107.423C122.316 107.336 122.229 107.273 122.128 107.247C121.022 106.835 120.063 106.102 119.376 105.143C118.549 104.025 118.123 102.662 118.164 101.272C118.168 100.255 118.428 99.2549 118.921 98.3649C119.413 97.4749 120.122 96.7235 120.982 96.1801C122.188 95.3606 123.64 94.9847 125.091 95.1166C126.543 95.2485 127.903 95.88 128.941 96.9033C129.979 97.9267 130.629 99.2784 130.782 100.728C130.934 102.177 130.578 103.635 129.776 104.851C129.077 105.948 128.042 106.788 126.826 107.247C126.73 107.271 126.647 107.33 126.592 107.411C126.537 107.492 126.513 107.591 126.525 107.688C126.525 108.318 126.525 108.947 126.525 109.567C126.536 109.742 126.606 109.907 126.722 110.037C127.192 110.535 127.662 111.024 128.179 111.503C128.376 111.681 128.366 111.813 128.179 112.001C127.662 112.527 127.136 113.062 126.572 113.626ZM124.571 98.059C124.214 98.0553 123.865 98.1575 123.566 98.3526C123.267 98.5477 123.033 98.827 122.893 99.1551C122.753 99.4833 122.714 99.8456 122.78 100.196C122.846 100.547 123.014 100.87 123.264 101.125C123.513 101.38 123.833 101.555 124.182 101.628C124.531 101.701 124.894 101.669 125.225 101.536C125.556 101.403 125.84 101.175 126.042 100.88C126.243 100.586 126.352 100.238 126.356 99.8816C126.361 99.644 126.319 99.4079 126.231 99.1869C126.144 98.966 126.013 98.7648 125.847 98.595C125.68 98.4253 125.482 98.2904 125.263 98.1984C125.044 98.1063 124.809 98.059 124.571 98.059Z" fill="white"/>
<defs>
<linearGradient id="paint0_linear" x1="190" y1="23" x2="-20.4778" y2="151.131" gradientUnits="userSpaceOnUse">
<stop offset="0.390625" stop-color="#43C4D9"/>
<stop offset="1" stop-color="white" stop-opacity="0.32"/>
</linearGradient>
</defs>
</svg>
