<svg width="375" height="314" viewBox="0 0 375 314" fill="none" xmlns="http://www.w3.org/2000/svg">
<mask id="mask0" mask-type="alpha" maskUnits="userSpaceOnUse" x="0" y="9" width="375" height="305">
<rect y="9" width="375" height="305" fill="#C4C4C4"/>
</mask>
<g mask="url(#mask0)">
<path opacity="0.3" fill-rule="evenodd" clip-rule="evenodd" d="M241.593 37.3097C214.81 33.9139 132.598 35.2785 105.807 40.3249C71.232 46.8374 65.0064 61.223 58.0264 69.3256C34.4484 96.6951 53.0692 141.014 53.5926 177.306C54.1136 213.43 47.6063 251.421 65.0727 282.033C83.5273 314.378 114.334 341.071 150.216 346.654C184.658 352.013 216.902 328.975 247.617 310.438C273.369 294.897 295.648 274.958 312.074 248.971C328.182 223.488 337.463 194.89 339.69 164.773C342.102 132.158 344.505 95.9624 325.241 70.9308C306.109 46.072 272.18 41.1878 241.593 37.3097Z" fill="url(#paint0_linear)" fill-opacity="0.5"/>
</g>
<circle cx="46" cy="21" r="21" fill="#43C4D9"/>
<path d="M48.676 12.0362V31.6362H45.036V15.0882H40.892V12.0362H48.676Z" fill="white"/>
<path d="M51 313.314H302.128C302.128 313.314 298.759 290.402 276.442 284.904C254.125 279.405 231.816 290.402 214.37 296.52C196.924 302.638 173.402 281.543 121.122 280.313C68.8422 279.083 53.0393 305.644 51 313.314Z" fill="#C4E8F0"/>
<path fill-rule="evenodd" clip-rule="evenodd" d="M233.905 284.879C233.744 283.477 233.285 282.126 232.559 280.916C231.94 280.09 228.811 277.564 225.046 274.641C227.385 272.292 229.469 269.701 231.263 266.913L232.559 268.87C234.871 272.469 236.522 275.293 237.761 277.176C237.761 284.251 235.92 285.366 233.905 284.879Z" fill="#AA633F"/>
<path fill-rule="evenodd" clip-rule="evenodd" d="M215.617 292.376C216.07 291.812 216.383 291.151 216.533 290.444C216.905 288.702 217.714 280.94 217.763 278.637C217.813 276.333 225.747 276.399 225.046 280.156C224.509 282.996 223.642 288.487 223.089 292.285C221.921 292.829 220.651 293.119 219.363 293.134C218.074 293.15 216.797 292.891 215.617 292.376Z" fill="#AA633F"/>
<path fill-rule="evenodd" clip-rule="evenodd" d="M223.089 292.285L222.643 295.257C222.238 298.246 222.23 299.039 220.117 299.179C218.003 299.319 209.02 299.286 206.906 299.179C204.793 299.072 203.711 297.222 207.534 296.215C210.556 295.389 213.957 294.506 215.609 292.376C216.789 292.891 218.066 293.15 219.354 293.134C220.643 293.119 221.913 292.829 223.081 292.285H223.089Z" fill="#322875"/>
<path fill-rule="evenodd" clip-rule="evenodd" d="M211.926 264.403L210.671 263.412C206.84 260.184 196.784 249.483 197.321 241.202C197.775 234.366 211.522 230.634 211.068 236.504C210.58 242.754 210.11 244.29 214.271 248.65C213.165 253.847 212.382 259.108 211.926 264.403Z" fill="#355BA9"/>
<path fill-rule="evenodd" clip-rule="evenodd" d="M237.761 277.176C238.76 278.711 239.494 279.652 240.089 279.875C241.542 280.47 241.815 282.113 240.089 289.313C238.933 294.118 237.959 296.892 235.135 296.793C232.311 296.694 230.09 296.793 232.155 294.77C234.219 292.747 234.846 292.194 234.565 290.212C234.4 289.098 234.26 286.91 233.897 284.879C236.605 283.5 237.761 281.114 237.752 277.176H237.761Z" fill="#322875"/>
<path fill-rule="evenodd" clip-rule="evenodd" d="M214.271 248.65C215.138 249.583 216.203 250.631 217.524 251.861C223.997 257.938 226.119 259.135 231.263 266.913C229.476 269.706 227.392 272.298 225.046 274.641C220.422 271 214.849 266.772 211.926 264.403C212.382 259.108 213.165 253.847 214.271 248.65Z" fill="#2A4C90"/>
<path fill-rule="evenodd" clip-rule="evenodd" d="M215.567 219.38C216.789 214.526 220.521 210.728 222.049 211.124C227.003 212.329 230.429 214.427 232.675 222.865L232.452 225.276C230.883 240.575 230.685 251.696 229.694 259.953C228.703 268.209 226.722 277.002 226.276 279.207C225.83 281.411 226.557 281.774 220.818 281.048C216.492 280.495 216.368 281.048 216.335 277.877C216.302 274.707 216.17 237.619 215.865 227.752L215.567 219.356V219.38Z" fill="#355BA9"/>
<path fill-rule="evenodd" clip-rule="evenodd" d="M202.357 189.476C209.169 190.458 211.381 190.714 212.133 193.563C213.288 197.93 214.263 202.058 212.133 200.993C210.002 199.928 206.279 198.005 205.932 199.169C205.585 200.333 211.588 204.948 214.733 207.045C213.85 214.385 211.29 235.736 210.539 241.334C210.283 243.258 207.278 250.251 202.051 248.608C196.825 246.965 196.974 243.555 197.37 235.398C197.692 228.983 200.673 202.95 202.324 189.434L202.357 189.476Z" fill="#355BA9"/>
<path fill-rule="evenodd" clip-rule="evenodd" d="M211.629 179.279C219.778 179.428 231.106 182.35 231.387 184.844C233.516 197.389 233.949 210.163 232.675 222.823C229.025 223.294 216.046 219.868 215.567 219.356L215.039 204.494L214.733 207.021C211.588 204.932 205.585 200.283 205.932 199.144C206.279 198.005 210.011 199.912 212.133 200.969C214.255 202.025 213.289 197.897 212.133 193.538C211.381 190.689 209.169 190.433 202.357 189.451C202.811 185.818 203.183 183.093 203.381 181.88L203.513 181.475L204.875 180.195L211.629 179.254V179.279Z" fill="#2A4C90"/>
<path fill-rule="evenodd" clip-rule="evenodd" d="M226.218 85.5436C226.218 85.5436 232.196 81.9355 235.366 91.513C238.537 101.09 238.413 106.003 242.459 109.537C246.504 113.071 263.653 120.972 265.395 128.981C267.137 136.989 259.615 154.749 242.459 156.871C225.302 158.993 223.064 148.846 220.166 144.181C217.268 139.516 200.384 130.566 202.365 119.948C203.505 113.838 206.172 109.215 207.319 104.822C208.145 101.586 207.798 96.2769 209.136 92.7927C211.39 86.9224 215.658 83.7684 222.04 83.7684C225.492 83.7684 226.226 85.5436 226.226 85.5436H226.218Z" fill="#4C266E"/>
<path d="M239.792 142.224C240.068 142.243 240.326 142.366 240.515 142.568C240.703 142.771 240.808 143.037 240.807 143.314C241.459 156.243 242.161 169.198 242.698 182.177C242.698 183.151 242.698 183.903 242.07 184.216C241.898 184.303 241.705 184.345 241.512 184.337C241.319 184.329 241.13 184.272 240.965 184.171C240.8 184.07 240.663 183.929 240.568 183.761C240.472 183.592 240.421 183.403 240.419 183.209C239.973 170.989 239.271 158.886 238.669 146.757L238.495 143.454C238.494 143.287 238.527 143.121 238.593 142.967C238.659 142.814 238.757 142.676 238.88 142.562C239.003 142.448 239.148 142.362 239.307 142.308C239.465 142.254 239.633 142.234 239.8 142.249L239.792 142.224Z" fill="#322875"/>
<path fill-rule="evenodd" clip-rule="evenodd" d="M232.278 124.06C235.358 125.629 238.826 128.774 241.534 136.956C245.844 149.993 247.371 162.386 247.817 165.094C248.263 167.803 240.295 171.551 238.826 163.443C237.541 156.862 235.904 150.355 233.921 143.95C233.632 143.124 233.302 143.198 232.889 143.95C228.373 138.459 230.594 128.51 232.278 124.06Z" fill="#AA633F"/>
<path fill-rule="evenodd" clip-rule="evenodd" d="M196.825 145.395C198.881 141.341 201.639 135.867 202.91 133.216C204.462 129.963 206.997 126.611 210.011 124.811C208.698 129.294 204.677 135.272 202.274 140.804C199.558 147.071 203.926 150.002 203.884 152.09C203.728 152.421 199.665 161.329 196.173 164.252C193.151 166.77 188.61 165.482 188.148 159.777C187.685 154.072 188.973 138.897 189.205 136.956C189.312 135.974 189.477 134.265 188.47 133.761C185.852 132.473 182.071 128.51 183.714 126.058C185.357 123.606 191.5 130.442 192.961 132.448C193.993 133.869 194.414 144.751 194.266 150.414C194.992 150.414 195.801 148.895 196.825 145.395Z" fill="#AA633F"/>
<path fill-rule="evenodd" clip-rule="evenodd" d="M196.825 145.395C196.71 150.299 196.107 157.68 194.918 157.87C193.729 158.06 194.332 154.444 194.266 150.439L196.825 145.403V145.395Z" fill="#934624"/>
<path fill-rule="evenodd" clip-rule="evenodd" d="M213.652 123.375C217.293 122.83 217.375 122.054 217.392 119.932V119.535C220.076 118.887 222.488 117.411 224.286 115.316C224.501 118.619 225.112 121.261 227.415 122.194C228.101 122.483 228.885 122.714 229.735 123.02C227.085 127.354 221.983 132.927 217.4 132.448C213.644 132.036 213.371 126.941 213.66 123.366L213.652 123.375Z" fill="#AA633F"/>
<path fill-rule="evenodd" clip-rule="evenodd" d="M230.322 150.134C228.365 155.154 225.368 163.22 224.757 165.094C224.146 166.969 229.438 176.249 232.361 184.58C233.071 186.594 223.782 186.363 217.12 186.049C211.34 185.777 207.608 185.785 205.247 185.669C204.669 185.669 204.182 185.603 203.761 185.554C206.948 169.404 216.748 158.134 223.353 153.511C225.447 151.963 227.81 150.818 230.322 150.134Z" fill="#A4D0DC"/>
<path fill-rule="evenodd" clip-rule="evenodd" d="M201.399 144.684C201.416 143.344 201.714 142.022 202.274 140.804C204.677 135.264 208.723 129.294 210.011 124.811C211.108 124.079 212.35 123.589 213.652 123.375C213.363 126.941 213.652 132.036 217.392 132.457C221.974 132.952 227.077 127.362 229.727 123.028L230.503 123.3L232.253 124.068C230.679 128.241 230.017 132.704 230.313 137.155C223.328 144.47 210.696 146.922 201.374 144.693L201.399 144.684Z" fill="#A4D0DC"/>
<path fill-rule="evenodd" clip-rule="evenodd" d="M230.338 137.146C230.489 139.618 231.378 141.988 232.889 143.95C232.428 144.769 232.036 145.625 231.717 146.509L230.321 150.134C227.81 150.818 225.447 151.963 223.353 153.511C216.748 158.134 206.947 169.404 203.76 185.554C201.226 185.273 201.052 184.538 201.498 182.251C202.497 177.141 204.132 170.065 203.884 161.734C203.744 156.846 203.884 152.099 203.884 152.099C203.942 150.497 201.407 148.408 201.407 144.668C210.712 146.897 223.353 144.453 230.346 137.13L230.338 137.146Z" fill="#C2E2ED"/>
<path d="M227.126 125.241C227.868 124.301 228.775 123.504 229.801 122.887C230.189 122.681 232.394 123.242 231.717 123.796C226.936 127.775 224.674 133.703 222.775 139.954C218.474 154.204 218.49 169.446 219.184 184.464C219.178 184.691 219.118 184.914 219.009 185.114C218.9 185.313 218.745 185.484 218.556 185.612C218.382 185.688 218.193 185.722 218.003 185.712C217.813 185.701 217.629 185.646 217.464 185.552C217.299 185.457 217.159 185.325 217.055 185.166C216.951 185.007 216.885 184.826 216.864 184.637C216.12 169.099 216.145 153.263 220.802 138.476C222.28 133.778 224.195 129.03 227.126 125.265V125.241Z" fill="#322875"/>
<path fill-rule="evenodd" clip-rule="evenodd" d="M217.408 119.535C217.408 117.058 217.12 113.574 217.12 113.574C217.12 113.574 223.981 103.056 224.137 109.099C224.195 111.295 224.137 113.426 224.303 115.316C222.502 117.408 220.091 118.884 217.408 119.535Z" fill="#934624"/>
<path fill-rule="evenodd" clip-rule="evenodd" d="M240.37 162.626C237.819 164.971 227.795 170.585 224.179 171.419C220.563 172.253 214.676 170.321 214.932 173.384C215.237 177.033 215.534 177.768 219.654 176.686C223.774 175.605 231.263 175.77 237.397 173.384C241.699 171.733 245.291 170.238 246.983 168.562C247.71 167.852 248.09 167.505 247.809 165.326C247.503 162.56 242.855 160.273 240.328 162.626H240.37Z" fill="#AA633F"/>
<path fill-rule="evenodd" clip-rule="evenodd" d="M223.419 88.3921C227.935 89.804 229.644 97.2183 227.217 104.905C224.79 112.592 219.167 117.736 214.651 116.282C210.135 114.829 208.425 107.456 210.845 99.7695C213.264 92.0828 218.903 86.9638 223.419 88.3839V88.3921Z" fill="#AA633F"/>
<path fill-rule="evenodd" clip-rule="evenodd" d="M215.865 189.476C216.096 193.934 217.945 205.361 218.449 208.763C218.952 212.164 221.074 216.821 234.656 214.939C248.238 213.056 249.204 211 248.692 204.634C248.18 198.269 246.579 186.825 245.002 183.853C243.425 180.881 225.244 179.898 221.215 180.468C219.874 180.706 218.513 180.808 217.153 180.773C216.84 181.01 216.617 181.344 216.517 181.723C215.902 184.258 215.693 186.875 215.898 189.476H215.865Z" fill="#322875"/>
<path fill-rule="evenodd" clip-rule="evenodd" d="M229.81 179.031C235.515 178.412 240.758 178.007 242.236 177.875C243.887 177.727 245.687 178.189 246.496 182.375C247.094 185.07 247.497 187.804 247.701 190.557C247.701 191.961 247.825 192.209 242.747 193.232C237.67 194.256 228.967 194.818 226.284 195.222C223.601 195.627 222.156 194.751 221.487 190.012C220.818 185.273 219.274 181.459 217.095 180.798C217.095 180.798 223.948 179.659 229.785 179.031H229.81Z" fill="#4C266E"/>
<path fill-rule="evenodd" clip-rule="evenodd" d="M238.05 189.17C239.148 189.022 240.097 189.319 240.172 189.847C240.246 190.376 239.412 190.929 238.314 191.086C237.216 191.243 236.258 190.937 236.184 190.409C236.109 189.88 236.943 189.327 238.05 189.17Z" fill="white"/>
<path fill-rule="evenodd" clip-rule="evenodd" d="M210.448 97.2017C210.448 97.2017 218.16 95.3771 221.95 91.8846C221.95 91.8846 220.059 98.3659 228.819 103.675C238.859 109.743 233.963 94.5927 233.963 94.5927L231.915 91.5131L228.819 86.9225H218.449C216.492 88.0089 214.774 89.4793 213.4 91.2457C212.025 93.0121 211.021 95.0379 210.448 97.2017Z" fill="#4C266E"/>
<path fill-rule="evenodd" clip-rule="evenodd" d="M132.483 290.873C132.483 292.64 132.574 295.827 132.697 297.594C132.78 298.807 132.887 299.245 138.766 299.196C144.644 299.146 146.486 299.509 146.444 297.594C146.403 295.678 138.881 296.331 138.766 291.459C138.65 286.588 132.441 288.792 132.483 290.873Z" fill="#322875"/>
<path fill-rule="evenodd" clip-rule="evenodd" d="M109.926 295.29C109.67 299.617 106.624 301.689 101.009 305.594C98.0616 307.65 95.7003 306.651 96.2205 304.215C96.7406 301.78 102.916 297.693 103.47 295.29C104.023 292.888 110.025 293.532 109.926 295.29Z" fill="#322875"/>
<path fill-rule="evenodd" clip-rule="evenodd" d="M133.804 216.829C128.396 235.175 112.378 289.668 111.33 293.688C110.075 298.568 110.95 298.007 105.55 297.288C101.381 296.727 101.612 296.958 101.975 294.324C102.206 292.632 107.317 260.176 111.33 235.249C120.519 218.736 127.017 218.068 130.683 217.432C132.268 217.159 133.218 217.003 133.787 216.829H133.804Z" fill="#365CAA"/>
<path fill-rule="evenodd" clip-rule="evenodd" d="M156.509 194.908C153.991 214.129 140.756 286.844 140.26 289.527C139.715 292.417 140.26 292.929 135.571 292.83C130.881 292.731 131.162 293.185 131.22 289.527C131.269 286.225 134.819 223.946 135.472 212.585C137.049 210.934 140.425 210.488 143.241 209.555C147.303 208.185 149.846 204.701 144.067 206.17C132.59 209.068 125.968 204.18 126.001 201.365C126.034 198.549 134.803 197.98 146.783 197.402C151.53 197.179 154.544 196.304 156.534 194.925L156.509 194.908Z" fill="#365CAA"/>
<path fill-rule="evenodd" clip-rule="evenodd" d="M139.063 181.69C148.542 182.986 157.227 186.355 156.889 191.482C156.831 192.308 156.699 193.439 156.509 194.908C154.519 196.304 151.506 197.179 146.758 197.385C134.778 197.963 126.01 198.533 125.977 201.348C125.944 204.164 132.582 209.052 144.042 206.154C149.821 204.684 147.344 208.168 143.216 209.539C140.434 210.472 137.024 210.876 135.447 212.569L135.546 210.802L133.779 216.813C133.209 216.986 132.26 217.143 130.675 217.415C127.042 218.051 120.511 218.695 111.322 235.233C113.518 221.461 115.384 209.993 115.912 207.268C117.308 199.978 115.499 194.363 115.863 186.817L130.675 182.218C130.675 182.218 134.299 181.863 139.038 181.673L139.063 181.69Z" fill="#2A4C90"/>
<path fill-rule="evenodd" clip-rule="evenodd" d="M146.312 135.966L145.734 135.14C145.734 135.14 144.248 114.648 146.758 114.499C149.268 114.35 153.578 114.705 156.93 120.353C160.282 126 168.341 149.019 173.666 151.05C174.376 151.314 178.24 152.957 174.566 158.861L174.128 159.447C171.395 159.15 166.772 161.098 165.046 158.861C162.569 155.641 157.615 139.202 152.472 130.194C149.169 124.415 147.237 130.731 146.304 135.974L146.312 135.966Z" fill="#F6E5E7"/>
<path fill-rule="evenodd" clip-rule="evenodd" d="M146.312 135.966C147.245 130.748 149.161 124.407 152.48 130.186C157.615 139.194 162.198 150.051 164.493 153.387C167.796 158.159 171.395 159.166 174.128 159.439C170.479 164.236 163.799 159.975 160.819 155.756C158.135 151.958 148.74 139.244 146.312 135.941V135.966Z" fill="#D4C1DB"/>
<path fill-rule="evenodd" clip-rule="evenodd" d="M112.37 140.845L112.593 134.397C112.684 129.839 112.188 128.048 113.724 125.967C115.871 123.053 120.519 120.65 123.252 118.891C123.97 118.429 124.557 118.066 125.011 117.678C127.033 118.825 129.865 117.191 132.805 116.695C135.744 116.2 138.493 116.249 139.534 114.218C140.484 114.415 141.453 114.512 142.423 114.507C146.659 114.4 148.12 114.507 148.12 114.507C150.201 117.075 152.736 125.381 155.436 136.734C158.135 148.086 157.087 179.461 157.293 185.901C157.5 192.341 157.574 192.134 153.52 192.687C144.054 193.836 134.478 193.744 125.035 192.415C124.276 186.206 124.986 174.449 125.861 160.669C126.926 143.636 124.928 135.693 123.269 131.524C122.236 128.939 116.54 135.503 112.387 140.837L112.37 140.845Z" fill="#F6E5E7"/>
<path fill-rule="evenodd" clip-rule="evenodd" d="M112.923 85.7335C112.923 85.7335 110.735 77.1964 118.802 75.4377C126.868 73.6791 125.523 77.8073 130.097 77.7083C132.929 77.6505 136.091 78.6825 137.527 80.6806C140.153 84.3134 138.419 87.5004 138.601 87.971C138.782 88.4416 141.425 89.1352 142.217 95.055C143.158 102.098 135.207 106.292 131.418 107.853C127.628 109.413 120.866 110.577 116.424 106.73C111.982 102.882 114.319 99.3566 112.098 96.9458C109.877 94.5349 107.581 87.8637 112.923 85.7335Z" fill="#F05553"/>
<path fill-rule="evenodd" clip-rule="evenodd" d="M126.224 116.604C127.405 115.168 126.761 113.673 125.845 109.099C124.507 102.403 134.53 106.457 134.53 106.457C134.879 108.211 135.434 109.919 136.182 111.543C135.86 117.702 129.783 117.075 126.274 116.604H126.224Z" fill="#FAB082"/>
<path fill-rule="evenodd" clip-rule="evenodd" d="M136.149 111.543C136.414 112.137 136.759 112.692 137.172 113.194C137.826 113.791 138.654 114.161 139.534 114.251C138.494 116.241 136.231 117.752 133.16 118.635C130.418 119.346 127.51 119.001 125.011 117.669C125.453 117.357 125.86 116.997 126.224 116.596C129.378 116.596 133.928 115.886 136.132 111.535L136.149 111.543Z" fill="#FCCAA6"/>
<path fill-rule="evenodd" clip-rule="evenodd" d="M123.31 82.0842C128.503 80.4329 134.753 85.6758 137.272 93.7175C139.79 101.759 137.61 109.611 132.425 111.238C127.24 112.864 120.973 107.646 118.463 99.5961C115.953 91.5461 118.117 83.7025 123.31 82.0842Z" fill="#FCCAA6"/>
<path fill-rule="evenodd" clip-rule="evenodd" d="M112.37 140.845C116.498 135.512 122.22 128.948 123.252 131.532C124.903 135.66 126.91 143.644 125.845 160.677C125.019 174.457 124.276 186.214 125.019 192.423C120.965 191.903 117.687 191.292 115.59 190.887C110.43 189.888 111.751 157.036 112.354 140.845H112.37Z" fill="#D4C1DB"/>
<path fill-rule="evenodd" clip-rule="evenodd" d="M107.078 178.206C106.888 176.752 106.756 175.324 106.698 173.962C106.087 159.645 107.524 140.936 109.522 134.554C113.22 122.838 118.051 122.111 120.742 123.259C126.348 125.637 125.696 133.935 123.219 144.255C120.742 154.576 117.795 168.083 117.927 175.811V177.058C114.365 177.848 110.726 178.233 107.078 178.206Z" fill="#F6E5E7"/>
<path fill-rule="evenodd" clip-rule="evenodd" d="M117.993 177.058C118.158 185.215 118.752 200.572 119.413 206.311C120.115 212.363 121.312 219.058 116.564 222.312C113.881 224.161 114.591 212.982 114.913 211.141C115.21 209.489 108.754 192.151 107.078 178.206C110.748 178.241 114.41 177.856 117.993 177.058Z" fill="#FCCAA6"/>
<path fill-rule="evenodd" clip-rule="evenodd" d="M177.992 119.965C183.177 116.472 185.423 115.308 185.753 118.561C186.084 121.814 184.977 121.269 181.377 123.391C177.778 125.513 176.762 125.868 177.01 128.824C177.257 131.78 177.555 148.185 176.069 155.244C173.789 154.658 171.762 153.348 170.289 151.513C168.984 149.861 167.68 148.342 169.232 140.457C170.165 135.718 171.759 129.088 172.246 127.131C173.121 123.639 172.815 123.474 178.025 119.981L177.992 119.965Z" fill="#FCCAA6"/>
<path fill-rule="evenodd" clip-rule="evenodd" d="M118.389 102.09C118.389 102.09 123.17 93.9157 119.413 89.7875C119.413 89.7875 124.54 91.1828 127.752 90.4893C130.964 89.7957 132.194 86.6995 133.292 88.1362C134.39 89.5728 137.907 95.7816 139.187 95.7899C140.467 95.7981 133.787 81.7539 133.787 81.7539L118.389 78.1459L112.824 88.5985L118.389 102.09Z" fill="#F05553"/>
<path d="M259.549 313.487L279.365 313.322C279.365 313.322 283.064 309.12 281.99 305.503C280.917 301.887 276.979 306.907 275.749 308.426C274.518 309.945 275.344 301.111 272.388 298.518C269.432 295.926 268.59 302.382 268.772 306.412C268.954 310.441 265.717 303.77 262.753 299.691C259.789 295.612 257.667 297.891 258.534 300.682C259.401 303.472 262.225 307.7 261.589 309.004C260.953 310.309 257.461 306.098 255.76 307.551C254.059 309.004 254.86 311.473 259.549 313.487Z" fill="#71CDDF"/>
<path d="M266.279 278.001L265.701 278.023L267.043 312.319L267.62 312.297L266.279 278.001Z" fill="#71CDDF" stroke="#71CDDF" stroke-width="0.5" stroke-miterlimit="10"/>
<path d="M266.766 298.13C266.766 298.13 264.957 292.202 262.91 293.854C260.862 295.505 266.766 298.13 266.766 298.13Z" fill="#71CDDF"/>
<path d="M266.766 291.525C266.766 291.525 268.103 285.473 270.275 286.959C272.446 288.446 266.766 291.525 266.766 291.525Z" fill="#71CDDF"/>
<path d="M266.65 279.76C267.682 279.992 268.738 280.1 269.796 280.082C270.819 280.016 272.636 279.05 272.603 277.283C272.57 275.516 272.289 273.98 273.065 273.245C273.649 272.541 273.986 271.665 274.025 270.751C274.064 269.837 273.802 268.935 273.28 268.184C271.876 266.285 270.299 266.533 269.507 266.079C268.714 265.625 267.443 262.405 264.685 262.512C261.927 262.619 261.448 265.476 261.184 266.335C260.92 267.193 257.584 267.615 257.006 270.661C256.428 273.708 259.203 275.004 259.219 275.557C259.236 276.11 258.146 279.207 261.003 280.462C263.859 281.717 265.263 279.652 266.65 279.76Z" fill="#F05553"/>
<path d="M265.535 274.666C266.817 274.666 267.855 273.627 267.855 272.346C267.855 271.064 266.817 270.025 265.535 270.025C264.254 270.025 263.215 271.064 263.215 272.346C263.215 273.627 264.254 274.666 265.535 274.666Z" fill="white"/>
<path d="M280.116 313.141L299.931 313.752C299.931 313.752 303.787 309.698 302.854 306.04C301.921 302.382 297.793 307.254 296.505 308.723C295.217 310.193 296.381 301.392 293.533 298.708C290.684 296.025 289.586 302.415 289.611 306.453C289.636 310.49 286.663 303.695 283.831 299.501C280.999 295.307 278.82 297.503 279.579 300.327C280.339 303.15 282.989 307.485 282.304 308.765C281.619 310.044 278.316 305.702 276.524 307.113C274.733 308.525 275.501 310.953 280.116 313.141Z" fill="#71CDDF"/>
<path d="M288.056 282.578L286.278 311.413L286.764 311.443L288.542 282.608L288.056 282.578Z" fill="#71CDDF" stroke="#71CDDF" stroke-width="0.5" stroke-miterlimit="10"/>
<path d="M287.382 297.247C287.382 297.247 286.184 291.17 283.98 292.607C281.775 294.043 287.382 297.247 287.382 297.247Z" fill="#71CDDF"/>
<path d="M287.382 297.247C287.382 297.247 289.322 291.36 291.337 293.061C293.351 294.762 287.382 297.247 287.382 297.247Z" fill="#71CDDF"/>
<path d="M288.703 283.062C289.706 283.394 290.746 283.608 291.799 283.698C292.831 283.698 294.73 282.955 294.87 281.221C295.011 279.487 294.87 277.919 295.745 277.25C296.395 276.607 296.816 275.768 296.944 274.863C297.072 273.959 296.901 273.036 296.456 272.238C295.258 270.207 293.665 270.331 292.922 269.761C292.179 269.192 291.27 265.897 288.48 265.724C285.689 265.55 284.963 268.349 284.616 269.175C284.269 270.001 280.9 270.091 280.017 273.064C279.134 276.036 281.767 277.605 281.734 278.15C281.701 278.695 280.298 281.684 283.014 283.211C285.73 284.738 287.332 282.823 288.703 283.062Z" fill="#F05553"/>
<path d="M288.331 277.894C289.612 277.894 290.651 276.855 290.651 275.574C290.651 274.292 289.612 273.254 288.331 273.254C287.05 273.254 286.011 274.292 286.011 275.574C286.011 276.855 287.05 277.894 288.331 277.894Z" fill="white"/>
<defs>
<linearGradient id="paint0_linear" x1="225.35" y1="27.7748" x2="390.63" y2="200.366" gradientUnits="userSpaceOnUse">
<stop offset="0.390625" stop-color="#43C4D9"/>
<stop offset="1" stop-color="white" stop-opacity="0.32"/>
</linearGradient>
</defs>
</svg>
