<svg width="1440" height="861" viewBox="0 0 1440 861" fill="none" xmlns="http://www.w3.org/2000/svg">
<mask id="mask0" mask-type="alpha" maskUnits="userSpaceOnUse" x="0" y="0" width="1440" height="861">
<rect width="1440" height="861" fill="#C4C4C4"/>
</mask>
<g mask="url(#mask0)">
<path d="M824.495 828.65L854.373 829.505C854.373 829.505 860.187 823.832 858.78 818.713C857.374 813.594 851.149 820.411 849.207 822.468C847.265 824.525 849.02 812.208 844.725 808.453C840.43 804.697 838.774 813.641 838.812 819.291C838.849 824.941 834.367 815.431 830.097 809.562C825.827 803.692 822.541 806.766 823.686 810.717C824.831 814.669 828.827 820.735 827.794 822.526C826.761 824.317 821.794 818.239 819.08 820.215C816.366 822.191 817.548 825.588 824.495 828.65Z" fill="#71CDDF"/>
<path d="M1408.5 662.355L1378.63 663.21C1378.63 663.21 1372.81 657.537 1374.22 652.418C1375.63 647.3 1381.85 654.117 1383.79 656.173C1385.74 658.23 1383.98 645.913 1388.27 642.158C1392.57 638.403 1394.23 647.346 1394.19 652.996C1394.15 658.646 1398.63 649.137 1402.9 643.267C1407.17 637.397 1410.46 640.471 1409.31 644.422C1408.17 648.374 1404.17 654.44 1405.21 656.231C1406.24 658.022 1411.21 651.944 1413.92 653.92C1416.63 655.896 1415.45 659.293 1408.5 662.355Z" fill="#71CDDF"/>
<path d="M433.763 765.213L463.641 766.068C463.641 766.068 469.455 760.383 468.048 755.276C466.641 750.169 460.417 756.974 458.475 759.019C456.532 761.064 458.288 748.771 453.993 745.004C449.698 741.237 448.042 750.203 448.079 755.853C448.117 761.504 443.635 751.994 439.365 746.125C435.095 740.255 431.808 743.317 432.954 747.28C434.099 751.243 438.095 757.286 437.062 759.077C436.028 760.868 431.061 754.79 428.347 756.766C425.633 758.742 426.816 762.139 433.763 765.213Z" fill="#71CDDF"/>
<path d="M445.901 723.57H445.166V763.999H445.901V723.57Z" fill="#71CDDF"/>
<path d="M445.54 744.126C445.54 744.126 443.162 735.737 439.975 737.944C436.788 740.151 445.54 744.126 445.54 744.126Z" fill="#71CDDF"/>
<path d="M445.54 744.126C445.54 744.126 447.905 735.737 451.092 737.944C454.279 740.151 445.54 744.126 445.54 744.126Z" fill="#71CDDF"/>
<path d="M446.199 724.183C447.744 724.562 449.333 724.767 450.93 724.795C452.474 724.795 455.263 723.513 455.312 721.04C455.362 718.567 455.038 716.418 456.259 715.413C457.178 714.46 457.736 713.254 457.846 711.979C457.957 710.703 457.613 709.43 456.869 708.353C454.864 705.615 452.474 705.927 451.316 705.21C450.158 704.494 448.428 699.919 444.257 699.919C440.087 699.919 439.203 703.893 438.755 705.083C438.307 706.273 433.252 706.678 432.207 710.861C431.161 715.043 435.257 717.042 435.257 717.793C435.257 718.544 433.427 722.842 437.647 724.726C441.867 726.609 444.12 723.986 446.199 724.183Z" fill="#F05553"/>
<path d="M444.955 717.019C446.887 717.019 448.453 715.565 448.453 713.772C448.453 711.979 446.887 710.525 444.955 710.525C443.023 710.525 441.456 711.979 441.456 713.772C441.456 715.565 443.023 717.019 444.955 717.019Z" fill="white"/>
<path opacity="0.3" fill-rule="evenodd" clip-rule="evenodd" d="M-8 789.113H61C130 789.113 268 789.113 406 765.15C544 741.188 682 693.263 820 669.3C958 645.337 1096 645.337 1234 651.328C1372 657.319 1510 669.3 1579 675.291L1648 681.281V861H1579C1510 861 1372 861 1234 861C1096 861 958 861 820 861C682 861 544 861 406 861C268 861 130 861 61 861H-8V789.113Z" fill="#43C4D9"/>
</g>
<path d="M1026.07 497.919C1026.07 497.919 1048.84 504.424 1052.1 502.538C1055.35 500.651 1068 480.647 1068 480.647L1073.14 482.501C1073.14 482.501 1065.43 506.896 1057.82 516.232C1052.88 522.282 1020.16 513.857 1020.16 513.857L1026.07 497.919Z" fill="#AA633F"/>
<mask id="mask1" mask-type="alpha" maskUnits="userSpaceOnUse" x="1020" y="480" width="54" height="39">
<path d="M1026.07 497.919C1026.07 497.919 1048.84 504.424 1052.1 502.538C1055.35 500.651 1068 480.647 1068 480.647L1073.14 482.501C1073.14 482.501 1065.43 506.896 1057.82 516.232C1052.88 522.282 1020.16 513.857 1020.16 513.857L1026.07 497.919Z" fill="#AA633F"/>
</mask>
<g mask="url(#mask1)">
<ellipse cx="1068.78" cy="485.852" rx="6.5" ry="5" transform="rotate(19.1047 1068.78 485.852)" fill="#8C4322"/>
</g>
<path d="M1068.03 480.484C1068.11 479.875 1068.39 479.308 1068.81 478.868C1069.24 478.428 1069.8 478.139 1070.41 478.045C1072.56 477.687 1088.1 478.045 1088.1 478.045C1088.1 478.045 1089.11 478.826 1087.58 480.029C1085.06 481.571 1082.25 482.578 1079.32 482.989C1076.71 482.986 1074.11 482.736 1071.55 482.241L1068.03 480.484Z" fill="#AA633F"/>
<path d="M1128.18 438.134C1128.01 438.097 1127.83 438.095 1127.66 438.13C1127.49 438.165 1127.33 438.235 1127.19 438.337C1127.05 438.438 1126.93 438.568 1126.84 438.718C1126.76 438.868 1126.7 439.035 1126.68 439.207C1126.49 440.574 1125.28 446.331 1126.68 448.966C1128.08 451.6 1133.84 453.877 1133.84 453.877C1133.84 453.877 1138.55 451.177 1138.13 450.072C1137.71 448.966 1134.59 447.534 1134.59 447.534L1128.18 438.134Z" fill="#F2B186"/>
<path d="M1209.72 502.57C1195.46 496.49 1182.06 488.573 1169.85 479.021C1158.32 470.493 1147.7 460.815 1138.13 450.137L1133.84 453.942C1133.84 453.942 1148.31 477.232 1163.57 490.34C1180.42 504.717 1193.49 515.841 1207.9 517.598C1222.31 519.354 1219.35 505.4 1209.72 502.57Z" fill="#F2B186"/>
<mask id="mask2" mask-type="alpha" maskUnits="userSpaceOnUse" x="1133" y="450" width="85" height="68">
<path d="M1209.72 502.57C1195.46 496.49 1182.06 488.573 1169.85 479.021C1158.32 470.493 1147.7 460.815 1138.13 450.137L1133.84 453.942C1133.84 453.942 1148.31 477.232 1163.57 490.34C1180.42 504.717 1193.49 515.841 1207.9 517.598C1222.31 519.354 1219.35 505.4 1209.72 502.57Z" fill="#F2B186"/>
</mask>
<g mask="url(#mask2)">
<ellipse cx="1169.93" cy="485.138" rx="13" ry="5" transform="rotate(-19.9612 1169.93 485.138)" fill="#CC9570"/>
</g>
<ellipse opacity="0.3" rx="150" ry="29.8643" transform="matrix(-1 -8.74228e-08 -8.74228e-08 1 1105 722.864)" fill="url(#paint0_radial)"/>
<path d="M1120.25 493.672C1197.89 493.672 1260.83 430.731 1260.83 353.09C1260.83 275.448 1197.89 212.507 1120.25 212.507C1042.61 212.507 979.667 275.448 979.667 353.09C979.667 430.731 1042.61 493.672 1120.25 493.672Z" fill="#43C4D9"/>
<path d="M1207.72 326.873L1208.01 328.597H1207.19C1208.69 331.362 1210.22 334.094 1211.55 336.924C1212.17 338.272 1212.56 339.711 1212.72 341.185C1213.09 343.339 1214.16 345.31 1215.78 346.779C1217.44 348.471 1219.23 350.032 1220.76 351.821C1221.64 352.887 1222.27 354.146 1222.58 355.497C1222.59 355.792 1222.66 356.083 1222.79 356.346C1222.93 356.61 1223.12 356.841 1223.35 357.022C1223.58 357.203 1223.85 357.329 1224.14 357.391C1224.43 357.454 1224.73 357.451 1225.02 357.383C1227.2 357.058 1229.35 356.538 1231.52 356.017C1232.52 355.754 1233.49 355.439 1234.45 355.074C1234.35 355.919 1234.18 356.755 1233.96 357.578C1232.21 363.439 1229.43 368.945 1225.77 373.842C1224.34 375.791 1222.37 377.282 1220.11 378.136C1219.11 378.592 1218.26 379.318 1217.66 380.233C1217.06 381.147 1216.72 382.212 1216.69 383.307C1216.32 386.908 1216.54 390.544 1217.34 394.074C1217.82 395.791 1217.76 397.611 1217.18 399.295C1216.6 400.979 1215.52 402.447 1214.09 403.507C1210.03 407.267 1207.01 412.02 1205.34 417.298C1205.1 417.966 1204.9 418.651 1204.76 419.348C1204.72 419.791 1204.72 420.237 1204.76 420.681C1202.78 421.514 1201.17 423.041 1200.23 424.975C1198.09 428.227 1196.1 431.773 1193.73 435.026C1192.86 436.557 1191.68 437.883 1190.25 438.911C1188.83 439.938 1187.19 440.644 1185.47 440.978C1183.46 441.141 1181.45 441.141 1179.45 440.978C1178.6 441.032 1177.77 440.753 1177.12 440.2C1176.48 439.647 1176.08 438.864 1176 438.018C1175.64 436.359 1175.35 434.765 1174.99 433.041C1174.08 429.106 1173.17 425.202 1172.16 421.332C1170.77 416.909 1170.21 412.266 1170.5 407.638C1170.47 404.435 1171.2 401.27 1172.62 398.4C1173.02 397.614 1173.23 396.745 1173.23 395.863C1173.23 394.981 1173.02 394.112 1172.62 393.326C1171.41 390.431 1170.08 387.601 1168.68 384.804C1167.84 383.112 1166.8 381.551 1165.79 379.892C1165.43 379.386 1165.21 378.793 1165.16 378.175C1165.11 377.558 1165.23 376.938 1165.49 376.379C1165.85 375.599 1166.15 374.753 1166.5 373.972C1166.87 373.138 1166.99 372.215 1166.84 371.316C1166.7 370.416 1166.3 369.577 1165.69 368.898C1165.28 368.487 1164.76 368.195 1164.19 368.052C1162.71 367.694 1161.25 367.227 1159.84 366.654C1158.27 365.867 1156.53 365.457 1154.78 365.457C1153.02 365.457 1151.29 365.867 1149.72 366.654C1149 366.914 1148.35 367.369 1147.67 367.694C1146.33 368.449 1144.76 368.703 1143.25 368.41C1140.6 367.909 1137.86 368.203 1135.37 369.256C1134.17 369.646 1132.87 369.646 1131.67 369.256C1127.91 367.931 1124.66 365.491 1122.33 362.262C1120.74 360.213 1118.82 358.392 1117.06 356.505C1116.91 356.384 1116.73 356.305 1116.54 356.277C1116.06 356.181 1115.61 355.99 1115.21 355.716C1114.8 355.442 1114.46 355.09 1114.19 354.682C1113.92 354.273 1113.74 353.815 1113.65 353.335C1113.57 352.855 1113.57 352.363 1113.68 351.886C1114.07 348.048 1114.52 344.21 1114.98 340.404C1115.85 335.293 1118.33 330.595 1122.07 327.003C1123.72 325.634 1125.67 324.675 1127.76 324.206C1129.29 323.685 1130.33 323.1 1130.43 321.506C1130.56 320.421 1130.91 319.376 1131.47 318.439C1132.03 317.502 1132.79 316.696 1133.68 316.074C1135.18 314.805 1136.48 313.342 1137.94 312.106C1138.37 311.748 1139.31 311.455 1139.64 311.683C1140.89 312.559 1142.36 313.097 1143.88 313.245C1145.41 313.394 1146.95 313.147 1148.35 312.528C1153.27 310.995 1158.44 310.41 1163.58 310.804C1165.36 310.804 1167.15 311 1169.04 311.13C1168.81 312.203 1168.62 312.886 1168.52 313.569C1168 317.245 1167.8 317.342 1171.54 318.513C1174.1 319.092 1176.5 320.2 1178.6 321.766C1179.51 322.547 1181.4 322.352 1182.83 322.352C1183.59 322.244 1184.33 322.002 1185.01 321.636C1187.15 320.619 1189.57 320.366 1191.87 320.92C1194.93 321.636 1198.09 321.734 1201.21 322.156C1202.5 322.284 1203.73 322.716 1204.82 323.418C1205.91 324.119 1206.81 325.069 1207.45 326.19L1207.72 326.873Z" fill="#43C4D9"/>
<path d="M1022.57 373.224L1024.07 373.744C1024.65 372.962 1025.2 372.148 1025.69 371.305C1025.84 370.866 1025.9 370.401 1025.86 369.939C1025.86 369.126 1025.86 368.345 1027.03 368.41C1027.35 368.41 1027.71 367.955 1028.03 367.694L1030.64 365.418L1030.21 369.548H1030.6C1031.19 369.028 1031.74 368.443 1032.36 367.955C1032.86 367.411 1033.49 366.997 1034.19 366.748C1034.88 366.499 1035.63 366.422 1036.36 366.523C1037.31 366.719 1038.41 366.036 1039.42 365.775C1040.49 365.461 1041.57 365.211 1042.67 365.027C1042.89 365.053 1043.09 365.128 1043.27 365.247C1043.45 365.365 1043.6 365.524 1043.71 365.71C1044.02 366.261 1044.46 366.732 1044.98 367.082C1045.51 367.433 1046.11 367.654 1046.74 367.727C1048.19 368.24 1049.61 368.837 1051 369.516C1051.68 369.818 1052.44 369.93 1053.18 369.841C1055.91 369.285 1058.76 369.81 1061.11 371.305C1062.39 372.378 1063.37 373.754 1063.98 375.306C1064.63 376.77 1065.05 377.875 1066.97 377.453C1067.62 377.29 1068.4 377.843 1069.41 378.168C1070.06 377.813 1070.77 377.601 1071.51 377.547C1072.25 377.492 1072.99 377.596 1073.68 377.852C1074.38 378.108 1075.01 378.51 1075.53 379.03C1076.06 379.55 1076.47 380.177 1076.73 380.868C1077.86 379.957 1079.21 379.355 1080.65 379.121C1082.09 378.887 1083.56 379.03 1084.92 379.534C1088.35 380.423 1091.71 381.509 1095.01 382.787C1096.06 383.158 1096.96 383.852 1097.6 384.769C1098.23 385.687 1098.55 386.781 1098.52 387.894C1098.58 389.968 1098.39 392.042 1097.97 394.074C1097.5 395.263 1096.82 396.362 1095.98 397.327C1096.76 400.775 1097.64 404.515 1098.36 408.321C1098.56 409.874 1098.61 411.442 1098.52 413.005C1098.47 413.211 1098.37 413.403 1098.24 413.566C1098.1 413.73 1097.93 413.86 1097.74 413.948C1096.47 414.664 1095.07 415.087 1093.9 415.9C1091.92 417.331 1090.03 418.892 1088.18 420.519C1087.76 420.868 1087.48 421.367 1087.42 421.911C1087.35 422.455 1087.49 423.005 1087.82 423.446L1089.45 426.276C1090.71 428.52 1090.52 429.073 1088.11 430.114C1088.11 431.415 1088.44 432.716 1088.57 434.05C1088.93 438.181 1087.75 439.254 1083.72 438.474L1082.55 438.148C1083.37 438.751 1084.02 439.557 1084.44 440.486C1084.85 441.415 1085.02 442.437 1084.92 443.45C1084.5 445.662 1082.78 446.703 1080.76 447.288C1081.23 447.67 1081.56 448.193 1081.71 448.779C1081.86 449.366 1081.81 449.984 1081.57 450.541C1081 451.689 1080.31 452.778 1079.53 453.794C1081.66 457.328 1083.25 461.167 1084.24 465.178C1084.6 466.154 1084.99 467.097 1085.38 468.041C1086.28 470.574 1087.99 472.743 1090.24 474.217C1092.49 475.691 1095.16 476.389 1097.84 476.205C1097.32 476.693 1097.06 477.116 1096.7 477.213C1094.42 477.994 1092.15 478.807 1089.8 479.36C1087.27 479.659 1084.71 479.023 1082.62 477.571C1079.36 475.912 1077.67 472.399 1074.58 470.513C1074.24 470.067 1074.09 469.507 1074.16 468.951C1074.25 468.018 1074.41 467.093 1074.65 466.187C1073.87 466.187 1073.25 466.187 1072.66 466.382C1071.52 466.382 1070.61 465.634 1071.26 464.723C1072.53 462.836 1071.62 461.275 1070.94 459.649C1070.59 458.842 1070.16 458.069 1069.67 457.339C1069.44 457.014 1069.31 455.941 1068.5 456.851C1068.2 456.541 1067.92 456.216 1067.65 455.876C1062.81 448.584 1058.97 440.674 1056.24 432.358C1054.61 427.805 1052.07 423.544 1050.12 419.055C1049.21 416.973 1048.79 414.664 1048.07 412.549C1047.89 411.989 1047.52 411.508 1047.03 411.183C1045.51 410.198 1043.91 409.349 1042.25 408.646C1037.62 406.728 1033.49 403.754 1030.21 399.961C1029.17 398.888 1028.2 397.782 1027.25 396.709C1026 395.1 1025.33 393.119 1025.34 391.081C1025.34 385.022 1024.41 378.999 1022.57 373.224Z" fill="#43C4D9"/>
<path d="M1060.5 264.291H1057.83C1058.45 262.957 1058.58 262.925 1061.08 262.664C1059.75 260.778 1058.09 263.608 1056.72 262.209C1057.18 261.363 1057.73 260.518 1058.19 259.607C1059.03 257.818 1058.19 256.712 1056.33 257.005C1054.48 257.297 1051.81 258.013 1049.57 258.501L1047.78 258.826L1047.52 258.501L1049.73 255.964L1045.66 257.005C1048.12 253.482 1051.16 250.403 1054.64 247.897L1054.25 247.702C1051.75 249.296 1049.21 250.955 1046.74 252.516C1045.5 253.359 1044.34 254.306 1043.26 255.346C1042.8 255.801 1042.74 256.614 1042.44 257.265C1042.36 257.472 1042.24 257.66 1042.09 257.818C1040.93 258.822 1039.84 259.91 1038.83 261.071C1037.83 262.301 1036.5 263.225 1035 263.738C1033.17 264.518 1031.45 265.527 1029.69 266.47V266.795L1034.87 264.876L1035.06 265.429C1031.31 267.483 1027.36 269.171 1023.29 270.471L1024.13 268.357H1022.15C1023.49 266.864 1025.19 265.743 1027.09 265.104L1032.1 262.729L1031.91 262.307C1030.74 262.813 1029.54 263.258 1028.33 263.64C1027.63 263.755 1026.91 263.755 1026.21 263.64C1026.21 262.664 1025.95 261.461 1026.44 260.778C1027.01 260.016 1027.74 259.389 1028.58 258.939C1029.41 258.49 1030.34 258.229 1031.29 258.176H1033.01C1031.87 255.281 1033.5 253.752 1035.65 252.744C1039.42 250.987 1043.26 249.491 1047.16 247.93C1050.24 246.746 1053.4 245.8 1056.63 245.1C1059.09 244.437 1061.48 243.51 1063.75 242.335C1064.26 242.068 1064.79 241.86 1065.34 241.717C1066.29 241.659 1067.21 241.396 1068.04 240.947C1068.87 240.497 1069.59 239.872 1070.16 239.115C1070.58 238.399 1071.75 238.171 1072.56 237.651L1078.16 234.106C1078.97 233.514 1079.84 233.012 1080.76 232.609C1082.32 231.991 1084.01 231.568 1085.54 231.015C1086.23 230.788 1086.81 230.332 1087.49 230.137C1090 229.454 1092.5 228.771 1095.04 228.283C1095.44 228.201 1095.84 228.199 1096.24 228.277C1096.64 228.355 1097.02 228.512 1097.35 228.739C1098.88 230.007 1100.34 229.454 1101.87 228.966C1103.4 228.478 1104.38 228.186 1105.68 227.73C1106.38 227.522 1107.12 227.522 1107.82 227.73L1098.07 235.276L1100.6 235.667L1097.87 237.944C1100.21 237.944 1100.18 237.944 1099.59 239.928C1099.01 241.912 1097.38 242.498 1095.95 243.376C1094.79 243.998 1093.6 244.552 1092.37 245.035C1093.64 245.49 1094.75 245.815 1095.63 246.271C1096.08 246.466 1096.41 246.986 1096.8 247.344C1096.37 247.702 1096.02 248.255 1095.56 248.385C1094.52 248.645 1093.41 248.678 1092.31 248.873C1091.8 249.042 1091.31 249.26 1090.84 249.523L1091.07 250.076L1094.16 249.556L1094.33 249.784C1093.94 250.165 1093.53 250.513 1093.09 250.824C1086.46 254.882 1080.34 259.708 1074.84 265.201C1071.65 268.353 1069.15 272.129 1067.49 276.293C1066.42 279.156 1064.6 280.001 1061.25 279.936C1060.45 279.942 1059.67 279.653 1059.07 279.125C1058.47 278.598 1058.09 277.867 1057.99 277.074C1057.57 274.049 1057.54 270.959 1057.41 267.901C1057.41 267.608 1057.7 267.283 1057.93 267.023L1060.5 264.291Z" fill="#43C4D9"/>
<path d="M1230.09 395.798C1231.05 396.648 1231.71 397.788 1231.96 399.044C1232.21 400.3 1232.05 401.604 1231.49 402.759C1229.32 408.115 1227.25 413.482 1225.28 418.86C1225 419.633 1224.46 420.286 1223.76 420.712C1223.05 421.138 1222.22 421.311 1221.41 421.202C1220.68 421.122 1220.01 420.781 1219.52 420.242C1219.03 419.703 1218.75 419.003 1218.74 418.274C1218.59 417.177 1218.68 416.06 1219 414.999C1219.32 413.939 1219.86 412.959 1220.6 412.127C1220.96 411.655 1221.23 411.113 1221.38 410.533C1222.22 408.126 1222.97 405.654 1223.85 403.247C1224.21 402.498 1224.7 401.825 1225.31 401.263C1226.87 399.441 1228.63 397.619 1230.09 395.798Z" fill="#43C4D9"/>
<path d="M1151.51 285.043H1140.81L1142.99 282.994L1140.97 282.018L1143.83 279.416C1144.35 278.895 1144.84 278.44 1144.38 277.562C1143.93 276.684 1143.44 276.261 1142.47 276.456C1142.09 276.489 1141.71 276.489 1141.33 276.456C1141.91 275.285 1142.01 274.309 1140.77 273.496C1140.57 273.273 1140.42 273.001 1140.34 272.705C1140.27 272.409 1140.27 272.099 1140.35 271.804C1141 271.022 1141.81 270.389 1142.73 269.95C1143.21 269.723 1143.99 269.95 1144.84 270.211L1143.47 271.707L1146.95 272.422L1147.34 273.008L1145.13 274.569L1151.64 281.27V285.076L1151.51 285.043Z" fill="#43C4D9"/>
<path d="M995.768 286.995C996.614 286.279 997.427 285.531 998.338 284.88C999.705 283.798 1001.15 282.819 1002.66 281.953C1003.72 281.622 1004.81 281.447 1005.92 281.432C1005.98 281.168 1006.11 280.922 1006.28 280.711C1006.45 280.5 1006.67 280.33 1006.91 280.212C1007.16 280.094 1007.43 280.031 1007.7 280.029C1007.97 280.026 1008.24 280.083 1008.49 280.196L1010.47 285.271C1009.4 285.824 1008 286.637 1006.53 287.255C1003.86 288.443 1001.13 289.474 998.338 290.345C997.236 290.418 996.131 290.274 995.085 289.922L994.89 289.272L997.655 287.417L995.931 286.962L995.768 286.995Z" fill="#43C4D9"/>
<path d="M1170.54 235.634L1175.35 237.944H1164.78V237.618L1165.75 236.87C1165.58 236.845 1165.41 236.845 1165.23 236.87C1164.1 236.87 1162.96 237.131 1161.79 237.131C1161.6 237.098 1161.41 237.019 1161.26 236.9C1161.11 236.781 1160.99 236.625 1160.91 236.447C1160.92 236.253 1160.98 236.064 1161.07 235.895C1161.17 235.726 1161.3 235.581 1161.46 235.472C1162.46 234.85 1163.56 234.41 1164.71 234.171C1168.65 233.845 1172.62 233.748 1176.59 233.585C1176.81 233.585 1177.07 233.585 1177.56 233.748C1176.65 234.631 1175.52 235.268 1174.29 235.598C1173.06 235.928 1171.77 235.94 1170.54 235.634Z" fill="#43C4D9"/>
<path d="M1095.27 259.086L1093.71 258.143C1093.32 256.744 1094.46 256.354 1095.69 255.801C1098.1 254.695 1100.47 253.427 1102.82 252.191C1104.28 251.442 1106.39 251.345 1106.65 252.191C1107.11 253.622 1106 254.467 1105.06 255.216C1102.2 257.354 1098.82 258.69 1095.27 259.086Z" fill="#43C4D9"/>
<path d="M1015.64 283.221C1013.95 281.725 1015.64 280.652 1015.64 279.416C1015.64 279.416 1015.32 279.416 1015.25 279.416C1014.21 281.27 1012.94 281.042 1011.35 279.416L1013.43 277.92C1013.5 277.301 1013.75 276.717 1014.16 276.246C1014.56 275.776 1015.1 275.44 1015.71 275.285C1016.13 275.122 1016.68 275.285 1017.17 275.447C1017.17 275.87 1016.88 276.293 1016.75 276.716L1016.42 277.497L1016.78 277.692C1017.46 276.804 1018.09 275.881 1018.67 274.927C1019.01 274.209 1019.6 273.641 1020.33 273.329C1021.06 273.017 1021.88 272.984 1022.64 273.236C1021.53 275.74 1017.66 276.781 1018.86 280.262L1015.64 283.221Z" fill="#43C4D9"/>
<path d="M1048.04 301.274L1046.71 302.868L1047.68 303.779L1049.8 303.291C1050.14 304.129 1050.39 305.001 1050.54 305.893C1050.55 306.18 1050.48 306.465 1050.36 306.724C1050.24 306.983 1050.05 307.211 1049.83 307.389C1049.41 307.649 1048.4 307.714 1048.2 307.389C1047.45 306.478 1046.87 306.966 1046.22 307.389C1045.57 307.812 1044.62 308.528 1043.81 309.016C1043.27 309.271 1042.7 309.478 1042.12 309.634C1042.22 306.478 1045.63 301.502 1048.04 301.274Z" fill="#43C4D9"/>
<path d="M1140.81 276.131C1140.09 277.91 1139.23 279.628 1138.24 281.27C1136.87 283.156 1134.59 283.026 1132.87 281.075L1134.63 279.643C1134.33 279.361 1134.09 279.031 1133.91 278.668C1133.77 278.191 1133.77 277.681 1133.91 277.204C1133.91 277.009 1134.66 276.911 1134.98 277.009C1135.53 277.206 1136.12 277.253 1136.7 277.145C1137.27 277.036 1137.8 276.776 1138.24 276.391C1138.63 276 1139.57 276.228 1140.81 276.131Z" fill="#43C4D9"/>
<path d="M1015.8 371.305L1020.36 372.508L1021.92 372.996C1021.3 374.948 1019.81 374.753 1018.34 374.46C1017.38 374.407 1016.45 374.115 1015.63 373.609C1014.81 373.103 1014.13 372.401 1013.66 371.565L1015.87 371.37L1015.8 371.305Z" fill="#43C4D9"/>
<path d="M1025.04 355.92C1024.72 356.26 1024.33 356.531 1023.9 356.717C1023.47 356.902 1023.01 356.998 1022.54 356.998C1022.07 356.998 1021.61 356.902 1021.17 356.717C1020.74 356.531 1020.36 356.26 1020.03 355.92C1019.5 355.459 1018.81 355.225 1018.11 355.269C1016.58 355.572 1015.06 355.952 1013.56 356.407C1015.51 353.317 1020.07 353.155 1025.04 355.92Z" fill="#43C4D9"/>
<path d="M1164.06 307.714C1164.06 306.966 1164.06 306.348 1163.84 305.763C1163.61 305.177 1163.64 304.689 1163.48 303.811C1164.16 303.811 1165.23 303.161 1165.56 303.486C1166.02 304.151 1166.25 304.953 1166.21 305.763C1166.24 307.031 1165.14 307.259 1164.06 307.714Z" fill="#43C4D9"/>
<path d="M1015.64 273.951C1015.64 273.463 1015.28 272.813 1015.48 272.618C1016.39 271.707 1017.43 270.926 1018.73 269.918C1018.89 273.04 1018.89 273.04 1015.64 273.951Z" fill="#43C4D9"/>
<path d="M1016.75 266.925C1017.48 266.498 1018.24 266.128 1019.03 265.819C1019.24 265.777 1019.47 265.784 1019.68 265.84C1019.89 265.896 1020.09 266.001 1020.26 266.145C1020.46 266.372 1020.26 266.925 1020.26 267.316H1019.03H1016.68L1016.75 266.925Z" fill="#43C4D9"/>
<path d="M1164.45 300.038L1165.85 302.413C1165.4 302.413 1164.78 302.933 1164.52 302.77C1163.58 302.217 1163.58 301.372 1164.45 300.038Z" fill="#43C4D9"/>
<path d="M1019.87 272.13L1021.82 269.853C1022.05 270.363 1022.23 270.898 1022.34 271.447C1021.66 271.888 1020.94 272.279 1020.2 272.618L1019.87 272.13Z" fill="#43C4D9"/>
<path d="M1016.03 371.305C1017.33 371.305 1016.91 370.362 1016.85 369.679C1016.65 368.912 1016.53 368.127 1016.49 367.337C1016.75 365.287 1015.38 364.93 1013.63 365.157C1012.62 365.32 1011.58 365.58 1010.67 365.743L1011.41 358.294C1010.1 358.554 1008.89 359.153 1007.88 360.032C1006.88 360.911 1006.12 362.04 1005.69 363.303C1004.26 363.303 1002.89 363.596 1001.56 363.564C1001.28 363.527 1001.01 363.426 1000.77 363.268C1000.53 363.11 1000.33 362.899 1000.19 362.653C998.874 360.194 998.362 357.384 998.728 354.619C998.964 353.524 999.448 352.498 1000.14 351.618C1000.83 350.739 1001.72 350.029 1002.73 349.544C1004.84 348.341 1007.02 347.3 1009.23 346.292C1011.45 345.283 1011.93 345.674 1013.27 347.365C1013.79 348.048 1014.34 348.731 1014.89 349.382C1015.06 349.382 1015.41 349.805 1015.54 349.739C1015.67 349.674 1015.78 349.576 1015.86 349.457C1015.94 349.337 1015.99 349.2 1016 349.056C1016.31 344.449 1018.13 340.071 1021.17 336.599C1021.65 336.079 1021.95 335.417 1022.02 334.712C1022.09 334.008 1021.93 333.3 1021.56 332.695C1021.3 332.272 1021.56 331.622 1021.4 330.874L1022.7 331.589C1023.48 329.18 1024.96 327.061 1026.96 325.507C1027.73 324.785 1028.44 324.014 1029.11 323.197C1030.7 321.116 1032.36 318.969 1033.92 316.692C1034.31 319.164 1034.38 319.229 1036.07 317.993C1038.17 316.211 1039.94 314.062 1041.27 311.65L1041.01 311.357L1037.27 314.252C1035.29 312.236 1037.63 311 1038.09 309.015L1031.29 313.309L1031.06 313.016C1031.9 312.228 1032.79 311.5 1033.73 310.837C1035.71 309.536 1037.73 308.3 1039.78 307.161C1042.73 305.086 1045.27 302.471 1047.26 299.453C1045.83 299.29 1044.62 300.689 1042.83 298.932C1043.43 298.576 1044.03 298.25 1044.66 297.956C1045.7 297.468 1045.27 296.948 1044.66 296.493C1043.79 295.811 1043.1 294.94 1042.62 293.948C1042.15 292.955 1041.91 291.867 1041.92 290.768C1041.86 290.413 1041.76 290.064 1041.63 289.727C1039.88 292.036 1038.09 293.923 1034.9 293.533C1035.2 292.898 1035.57 292.298 1036 291.744C1036.25 291.539 1036.44 291.28 1036.56 290.987C1036.69 290.694 1036.74 290.376 1036.72 290.059C1036.7 289.742 1036.6 289.435 1036.44 289.162C1036.27 288.89 1036.05 288.66 1035.78 288.491C1034.67 287.352 1033.56 288.101 1032.88 288.914C1030.57 291.613 1028.36 294.378 1026.38 297.241C1025.3 298.737 1024.72 300.493 1023.61 302.087C1022.42 304.094 1021.95 306.446 1022.28 308.755C1022.32 309.081 1022.29 309.412 1022.2 309.727C1022.11 310.043 1021.96 310.337 1021.75 310.592C1021.55 310.847 1021.29 311.058 1021 311.212C1020.71 311.366 1020.39 311.459 1020.07 311.488C1019.71 311.031 1019.49 310.49 1019.41 309.918C1019.34 309.347 1019.42 308.766 1019.64 308.235C1019.77 307.913 1019.82 307.564 1019.79 307.219C1019.76 306.873 1019.64 306.541 1019.45 306.251C1019.16 305.925 1018.21 306.251 1017.53 306.251C1016.85 306.251 1016.72 306.251 1016.46 306.251C1014.63 304.95 1012.65 305.958 1010.7 305.535L1009.66 302.575L1021.4 289.402L1018.86 288.914C1020.27 288.183 1021.64 287.38 1022.96 286.507C1024.97 285.074 1026.9 283.521 1028.72 281.855C1030.18 280.489 1029.92 279.188 1028.04 278.017C1029.96 277.561 1031.69 276.487 1032.95 274.96C1033.73 273.919 1034.8 274.244 1034.83 275.513C1035 277.695 1034.82 279.89 1034.31 282.018C1033.99 283.091 1032.3 283.774 1031.06 284.588C1030.64 284.854 1030.19 285.082 1029.73 285.271C1031.13 286.465 1032.87 287.204 1034.7 287.39C1036.54 287.575 1038.39 287.199 1040.01 286.312C1039.92 286.089 1039.82 285.872 1039.71 285.661C1038.83 284.62 1038.25 283.677 1039.91 282.766C1040.2 282.571 1040.33 281.953 1040.4 281.498C1040.98 278.245 1040.98 278.245 1044.43 278.245C1046.58 278.245 1047.68 277.432 1048.43 274.992L1041.37 274.407L1043.68 272.78C1040.78 270.926 1037.56 269.634 1034.18 268.975L1034.8 271.251L1032.26 272.357L1032.69 269.918C1030.6 270.6 1028.66 271.658 1026.96 273.04L1025.69 272.585C1024.88 273.561 1024 274.569 1023.19 275.61C1022.38 276.651 1022.31 276.944 1023.19 277.659C1023.35 277.659 1023.19 278.505 1022.96 279.156L1027.55 277.985L1023.51 282.799C1022.77 282.246 1022.05 281.302 1021.33 281.302C1020.34 281.398 1019.41 281.834 1018.7 282.538C1017.34 283.851 1016.07 285.253 1014.89 286.734C1014.31 287.515 1013.82 288.231 1012.68 287.775C1012.39 287.683 1012.07 287.683 1011.77 287.775C1008.78 288.491 1005.87 289.47 1003.05 290.703C1002.28 291.147 1001.43 291.427 1000.55 291.528C999.661 291.629 998.766 291.547 997.915 291.288H997.427L997.72 290.182L993.491 291.093L995.996 286.734L997.72 287.222L994.955 289.076L995.15 289.727C996.197 290.076 997.302 290.22 998.403 290.15C1001.19 289.265 1003.92 288.233 1006.6 287.06C1008.1 286.442 1009.46 285.628 1010.54 285.076L1008.62 280.229C1008.37 280.11 1008.09 280.048 1007.82 280.047C1007.54 280.047 1007.27 280.108 1007.02 280.227C1006.77 280.345 1006.55 280.518 1006.38 280.732C1006.2 280.946 1006.08 281.197 1006.01 281.465C1004.91 281.462 1003.81 281.638 1002.76 281.985C1001.25 282.84 999.803 283.808 998.435 284.88C997.525 285.531 996.711 286.312 995.866 287.027C996.179 286.026 996.651 285.081 997.264 284.23C997.882 283.579 999.021 283.514 999.867 283.059C1000.6 282.579 1001.29 282.046 1001.95 281.465L999.671 280.229L1001.56 277.334L1001.92 277.529L1001.27 279.156L1005.17 278.05L1004.26 279.611C1007.71 278.277 1010.93 277.399 1012.75 274.309L1012.49 273.724L1008.1 275.935C1007.77 275.529 1007.36 275.201 1006.9 274.975C1006.43 274.749 1005.92 274.632 1005.4 274.632C1004.88 274.632 1004.36 274.749 1003.9 274.975C1003.43 275.201 1003.02 275.529 1002.7 275.935C1018 252.412 1039.98 234.006 1065.83 223.085C1091.68 212.163 1120.2 209.227 1147.74 214.654C1175.65 220.238 1201.23 234.127 1221.12 254.5C1220.73 254.728 1220.21 255.248 1219.88 255.151C1219.14 254.978 1218.37 254.979 1217.63 255.154C1216.89 255.329 1216.2 255.673 1215.62 256.159V254.207C1213.08 253.654 1210.51 255.411 1209.11 258.794C1208.64 258.357 1208.21 257.866 1207.85 257.33C1207.06 255.866 1206.38 254.37 1204.23 254.923C1203.88 255.964 1203.88 255.964 1205.31 259.347C1204.37 259.901 1203.49 260.543 1202.67 261.266C1201.6 262.339 1200.56 261.884 1199.42 261.493C1198.28 261.103 1198.09 261.136 1197.44 260.973L1197.24 261.363L1198.44 262.99C1195.78 262.99 1195.45 262.632 1194.77 260.257C1194.57 259.607 1194.51 258.956 1193.47 259.216C1193.18 259.216 1192.69 258.566 1192.39 258.013C1193.99 258.371 1195.65 258.794 1197.18 259.021C1198.37 259.153 1199.57 259.153 1200.75 259.021C1201.73 259.021 1202.06 257.623 1201.34 256.679C1200.4 255.564 1199.25 254.647 1197.96 253.982C1196.66 253.317 1195.25 252.918 1193.79 252.809C1191.87 252.483 1189.92 252.548 1188 252.353C1187.41 252.273 1186.86 251.971 1186.47 251.508C1186.1 250.795 1185.47 250.247 1184.71 249.97C1183.96 249.694 1183.12 249.708 1182.38 250.011C1181.91 250.082 1181.44 250.082 1180.98 250.011V249.328H1180.49C1178.34 249.881 1176.16 250.402 1173.98 251.02C1173.32 251.312 1172.7 251.707 1172.16 252.191C1171.51 252.678 1170.99 253.427 1170.28 253.719C1169.21 254.039 1168.25 254.66 1167.52 255.508C1166.8 256.356 1166.33 257.395 1166.18 258.501C1165.82 259.49 1165.16 260.34 1164.29 260.925C1163.42 261.511 1162.38 261.801 1161.33 261.754C1160.83 261.765 1160.34 261.879 1159.88 262.09C1159.42 262.301 1159.02 262.604 1158.68 262.98C1158.35 263.355 1158.1 263.796 1157.95 264.273C1157.79 264.751 1157.74 265.255 1157.79 265.754C1157.85 265.911 1157.85 266.086 1157.79 266.242C1157.53 266.698 1157.2 267.121 1156.68 267.934L1158.6 267.608C1158.42 267.866 1158.29 268.152 1158.21 268.454C1158.21 268.975 1157.88 269.69 1158.21 270.015C1158.4 270.228 1158.65 270.387 1158.92 270.478C1159.2 270.569 1159.49 270.589 1159.77 270.536C1160.76 270.159 1161.82 270.039 1162.87 270.186C1163.92 270.334 1164.91 270.746 1165.76 271.382C1167.1 272.474 1168.39 273.647 1169.59 274.895C1170.23 275.52 1170.92 276.076 1171.68 276.553C1172.85 277.204 1173.5 276.749 1173.59 275.447C1173.59 274.667 1173.59 273.919 1173.59 273.138C1173.59 272.357 1173.59 272.39 1173.59 272.26C1175.58 270.861 1174.86 269.007 1174.41 267.283C1174.35 266.088 1174.62 264.9 1175.2 263.849C1175.77 262.799 1176.62 261.928 1177.66 261.331C1179.29 260.615 1180.91 260.062 1182.67 259.444L1183.06 259.965C1181.95 261.038 1180.88 262.176 1179.81 263.217C1179.4 263.467 1179.09 263.85 1178.94 264.301C1178.78 264.752 1178.79 265.243 1178.96 265.689C1179.51 267.446 1179.97 269.105 1182.21 269.56C1183.91 269.902 1185.66 269.835 1187.32 269.365C1188.09 269.186 1188.87 269.087 1189.66 269.072V269.853C1188.83 270.115 1187.98 270.332 1187.13 270.503C1186.1 270.634 1185.14 271.105 1184.41 271.842C1183.68 272.579 1183.21 273.539 1183.09 274.569L1179.84 273.203C1179.84 274.472 1179.84 275.317 1179.84 276.196C1179.87 276.75 1179.77 277.304 1179.53 277.805C1179.29 278.306 1178.93 278.737 1178.47 279.058C1178.25 279.221 1177.82 279.481 1177.69 279.416C1176 278.245 1174.44 279.806 1173.01 279.741C1171.12 279.75 1169.23 279.543 1167.38 279.123C1165.59 278.603 1165.27 276.911 1165.36 275.187C1165.36 274.537 1165.36 273.919 1165.36 273.236C1161.79 274.016 1161.17 275.578 1163.15 278.342C1159.63 280.972 1155.79 283.157 1151.74 284.848V281.205L1145.23 274.504L1147.41 272.91L1147.02 272.325L1143.54 271.642L1144.91 270.146C1144.09 270.146 1143.31 269.625 1142.79 269.885C1141.87 270.319 1141.06 270.952 1140.42 271.739C1140.34 272.034 1140.34 272.343 1140.42 272.638C1140.49 272.933 1140.64 273.205 1140.84 273.431C1142.08 274.244 1141.98 275.22 1141.39 276.391C1141.77 276.424 1142.15 276.424 1142.53 276.391C1142.94 276.289 1143.36 276.348 1143.73 276.553C1144.09 276.759 1144.36 277.097 1144.48 277.497C1144.91 278.375 1144.48 278.83 1143.9 279.318L1141.03 281.953L1143.08 282.929L1140.87 284.945H1151.67C1151.59 285.381 1151.42 285.795 1151.18 286.163C1150.93 286.531 1150.61 286.844 1150.24 287.085C1149.87 287.326 1149.45 287.488 1149.02 287.562C1148.58 287.636 1148.13 287.62 1147.7 287.515C1147.31 287.515 1146.86 287.808 1146.4 287.873C1145.95 287.938 1145 287.873 1144.29 288.166L1142.34 288.621C1142.63 289.369 1142.69 290.312 1143.21 290.833C1144.32 291.939 1145.75 292.752 1146.89 293.825C1147.41 294.346 1148.09 295.419 1147.87 295.842C1147.31 297.078 1146.4 298.282 1144.61 297.989L1138.11 296.85C1137.45 296.716 1136.79 296.629 1136.12 296.59C1134.27 296.59 1133.68 297.273 1133.59 299.225C1133.59 301.957 1133.59 304.657 1133.2 307.389C1133.2 308.983 1133.94 309.308 1135.18 309.471C1137.88 309.796 1140.58 310.056 1143.25 310.479C1144.16 310.764 1145.14 310.714 1146.02 310.338C1146.89 309.962 1147.61 309.285 1148.03 308.43C1149.25 305.661 1151.49 303.463 1154.27 302.282C1154.44 302.179 1154.58 302.036 1154.68 301.866C1154.79 301.696 1154.85 301.504 1154.86 301.307C1154.86 300.071 1155.64 299.68 1156.68 299.453C1158.69 298.838 1160.74 298.392 1162.83 298.119C1163.57 298.1 1164.31 298.235 1165 298.515C1165.69 298.795 1166.31 299.213 1166.83 299.745C1168.56 301.589 1170.58 303.138 1172.81 304.332C1174.31 305.34 1175.74 306.446 1177.2 307.584V308.235L1170.89 309.894L1175.22 312.008L1178.93 305.828L1180.88 306.608L1181.08 306.381C1180.85 306.023 1180.69 305.535 1180.36 305.34C1178.54 304.201 1176.65 303.128 1174.8 302.087C1174.5 301.853 1174.23 301.591 1173.98 301.307C1173.14 300.428 1172.29 299.583 1171.51 298.639C1171.19 298.196 1170.93 297.715 1170.73 297.208C1171.38 296.948 1172.2 296.33 1172.62 296.525C1174.07 297.307 1175.47 298.176 1176.81 299.127L1178.9 300.623C1180.48 301.695 1181.64 303.298 1182.15 305.145C1182.92 307.185 1184.02 309.085 1185.4 310.772C1185.92 311.455 1187.16 311.618 1188.07 311.943C1188.07 311.943 1188.52 311.748 1188.65 311.553C1188.78 311.357 1189.47 310.544 1189.96 309.894C1189.4 309.243 1188.69 308.43 1188 307.584C1187.87 307.42 1187.78 307.227 1187.75 307.02C1187.71 306.813 1187.72 306.601 1187.79 306.401C1187.85 306.201 1187.96 306.02 1188.11 305.875C1188.27 305.729 1188.45 305.624 1188.65 305.568C1189.56 305.439 1190.48 305.439 1191.39 305.568C1191.81 305.568 1192.49 306.348 1192.49 306.739C1192.51 307.476 1192.69 308.2 1193.02 308.862C1193.35 309.524 1193.81 310.109 1194.38 310.577C1195.06 311.325 1195.62 312.398 1196.46 312.789C1197.66 313.201 1198.93 313.399 1200.2 313.374C1200.92 313.374 1201.67 312.821 1202.35 312.951C1204.39 313.274 1206.4 313.763 1208.37 314.415C1210.51 315.196 1210.71 316.529 1209.11 318.123C1207.52 319.717 1206.25 320.79 1206.64 323.002C1206.87 324.076 1207.32 325.084 1207.65 326.255C1207.01 325.129 1206.11 324.175 1205.02 323.472C1203.93 322.77 1202.69 322.341 1201.4 322.222C1198.31 321.799 1195.13 321.701 1192.1 320.985C1189.79 320.422 1187.36 320.663 1185.21 321.669C1184.54 322.071 1183.8 322.326 1183.03 322.417C1181.6 322.417 1179.77 322.612 1178.8 321.831C1176.71 320.246 1174.3 319.136 1171.74 318.578C1168 317.408 1168.19 317.31 1168.72 313.634C1168.72 312.919 1169.01 312.236 1169.24 311.162C1167.35 311.162 1165.56 310.837 1163.77 310.837C1158.69 310.549 1153.59 311.199 1148.74 312.756C1147.34 313.367 1145.8 313.606 1144.27 313.453C1142.74 313.299 1141.28 312.757 1140.03 311.878C1139.73 311.65 1138.76 311.878 1138.37 312.301C1136.87 313.569 1135.57 315.033 1134.07 316.269C1133.17 316.89 1132.42 317.695 1131.86 318.632C1131.3 319.569 1130.94 320.616 1130.82 321.701C1130.82 323.327 1129.68 323.913 1128.12 324.433C1126.04 324.919 1124.1 325.863 1122.43 327.198C1118.71 330.808 1116.23 335.498 1115.34 340.599C1114.88 344.438 1114.43 348.276 1114.04 352.081C1113.93 352.558 1113.92 353.051 1114.01 353.531C1114.1 354.011 1114.28 354.468 1114.55 354.877C1114.81 355.286 1115.16 355.637 1115.56 355.911C1115.97 356.185 1116.42 356.376 1116.9 356.473C1117.09 356.473 1117.32 356.473 1117.42 356.7C1119.28 358.535 1121.04 360.468 1122.69 362.49C1125.01 365.728 1128.29 368.161 1132.06 369.451C1133.25 369.841 1134.54 369.841 1135.73 369.451C1138.21 368.389 1140.95 368.084 1143.6 368.573C1145.11 368.875 1146.68 368.633 1148.03 367.89C1148.74 367.532 1149.39 367.109 1150.11 366.816C1151.68 366.037 1153.4 365.631 1155.15 365.631C1156.9 365.631 1158.63 366.037 1160.19 366.816C1161.6 367.41 1163.06 367.888 1164.55 368.247C1165.13 368.385 1165.66 368.677 1166.08 369.093C1166.66 369.769 1167.04 370.594 1167.17 371.474C1167.3 372.354 1167.18 373.253 1166.83 374.07C1166.47 374.85 1166.21 375.696 1165.85 376.477C1165.58 377.033 1165.46 377.651 1165.51 378.269C1165.55 378.886 1165.76 379.48 1166.11 379.99C1167.12 381.584 1168.16 383.242 1169.01 384.901C1170.41 387.699 1171.77 390.529 1172.94 393.391C1173.35 394.18 1173.56 395.056 1173.56 395.944C1173.56 396.833 1173.35 397.708 1172.94 398.498C1171.52 401.356 1170.8 404.51 1170.83 407.703C1170.56 412.34 1171.13 416.988 1172.49 421.429C1173.5 425.3 1174.41 429.203 1175.32 433.107C1175.71 434.765 1175.97 436.359 1176.33 438.116C1176.44 438.943 1176.86 439.7 1177.49 440.244C1178.13 440.789 1178.94 441.084 1179.77 441.076C1181.78 441.239 1183.79 441.239 1185.79 441.076C1187.52 440.739 1189.15 440.033 1190.58 439.006C1192 437.978 1193.19 436.653 1194.05 435.123C1196.33 431.871 1198.31 428.423 1200.56 425.072C1201.51 423.143 1203.11 421.611 1205.08 420.746C1205.04 420.313 1205.04 419.878 1205.08 419.445C1205.23 418.738 1205.42 418.043 1205.67 417.363C1207.34 412.095 1210.35 407.353 1214.42 403.604C1215.84 402.542 1216.92 401.073 1217.5 399.39C1218.08 397.707 1218.14 395.889 1217.67 394.172C1216.84 390.602 1216.62 386.918 1217.02 383.275C1217.03 382.191 1217.33 381.131 1217.91 380.212C1218.48 379.294 1219.3 378.552 1220.27 378.071C1222.54 377.228 1224.51 375.734 1225.93 373.777C1229.6 368.883 1232.38 363.376 1234.13 357.513C1234.36 356.693 1234.52 355.856 1234.62 355.009C1233.44 355.399 1232.6 355.724 1231.69 355.952C1229.54 356.44 1227.39 356.993 1225.18 357.286C1223.91 357.481 1223.04 356.961 1222.74 355.399C1222.45 354.066 1221.84 352.825 1220.95 351.789C1219.46 350 1217.7 348.536 1215.98 346.714C1214.37 345.253 1213.29 343.295 1212.92 341.152C1212.77 339.67 1212.39 338.22 1211.78 336.859C1210.45 334.061 1208.89 331.329 1207.42 328.564H1208.2L1207.91 326.84L1212.85 333.346C1213.24 333.876 1213.65 334.386 1214.09 334.875C1215.81 336.599 1215.72 339.038 1216.5 341.087C1217.86 345.201 1220.27 348.889 1223.49 351.789C1224.76 352.65 1226.28 353.055 1227.8 352.936C1229.33 352.818 1230.77 352.184 1231.88 351.138C1233.52 349.633 1235.36 348.363 1237.35 347.365C1239.17 346.227 1241.12 345.348 1242.91 344.112C1244.04 343.233 1244.82 341.987 1245.12 340.59C1245.42 339.194 1245.23 337.736 1244.57 336.468C1243.49 334.841 1242.31 333.287 1241.02 331.817C1240.01 332.667 1238.92 333.419 1237.77 334.061C1236.63 334.638 1235.37 334.938 1234.09 334.94C1232.18 334.94 1231.75 333.281 1231.56 331.687C1231.36 330.093 1231.26 329.215 1231.1 327.751C1232.96 328.564 1234.68 329.41 1236.5 330.028C1240.08 331.53 1243.79 332.684 1247.59 333.476C1251.1 333.852 1254.49 334.961 1257.55 336.729C1258.51 337.122 1259.53 337.374 1260.57 337.477C1263.51 363.825 1258.97 390.468 1247.45 414.35C1235.94 438.231 1217.93 458.384 1195.49 472.494C1173.04 486.605 1147.07 494.102 1120.56 494.125C1094.05 494.149 1068.07 486.698 1045.6 472.627C1026.15 460.59 1009.99 443.915 998.566 424.097C987.229 404.612 980.663 382.721 979.407 360.213H979.993C979.993 362.295 982.042 362.783 983.245 363.824C983.571 364.084 984.351 363.824 984.937 363.531C983.238 362.409 981.816 360.915 980.779 359.162C979.742 357.41 979.117 355.445 978.952 353.415L979.505 352.96C980.662 354.072 981.749 355.256 982.757 356.505C984.676 358.912 986.173 361.547 987.929 363.726C988.909 365.186 990.245 366.373 991.809 367.175C993.374 367.977 995.117 368.369 996.874 368.312C1000.75 368.21 1004.62 368.318 1008.49 368.638C1010.19 369.031 1011.84 369.632 1013.4 370.427C1014.28 370.752 1015.22 370.98 1016.13 371.24L1013.92 371.468C1014.4 372.295 1015.08 372.992 1015.9 373.496C1016.72 374.001 1017.64 374.298 1018.6 374.363C1020.07 374.655 1021.56 374.85 1022.21 372.899C1021.69 372.736 1021.17 372.541 1020.62 372.411L1016.03 371.305ZM1022.77 373.257C1024.64 378.981 1025.63 384.96 1025.69 390.984C1025.67 393.028 1026.34 395.02 1027.58 396.644C1028.52 397.815 1029.53 398.921 1030.54 399.896C1033.79 403.645 1037.87 406.595 1042.44 408.516C1044.11 409.206 1045.7 410.056 1047.19 411.053C1047.69 411.378 1048.05 411.859 1048.23 412.419C1048.98 414.599 1049.41 416.908 1050.32 418.925C1052.24 423.413 1054.77 427.642 1056.43 432.228C1059.22 440.588 1063.1 448.54 1067.98 455.876L1068.82 456.851C1069.64 455.941 1069.77 456.851 1070.03 457.339C1070.52 458.062 1070.94 458.836 1071.26 459.649C1071.95 461.275 1072.86 462.901 1071.59 464.69C1070.97 465.601 1071.85 466.512 1073.02 466.349L1074.97 466.154C1074.75 467.076 1074.59 468.01 1074.48 468.951C1074.48 469.472 1074.48 470.285 1074.94 470.48C1078 472.367 1079.53 475.88 1082.97 477.571C1085.06 479.021 1087.61 479.657 1090.13 479.36C1092.47 478.807 1094.75 477.994 1097.03 477.213C1097.38 477.213 1097.64 476.693 1098.16 476.173C1095.49 476.374 1092.82 475.686 1090.57 474.215C1088.32 472.745 1086.63 470.575 1085.74 468.041C1085.32 467.097 1084.93 466.154 1084.6 465.178C1083.61 461.167 1082.02 457.328 1079.88 453.794C1080.65 452.765 1081.34 451.678 1081.93 450.541C1082.19 449.953 1082.24 449.297 1082.09 448.674C1081.94 448.051 1081.59 447.496 1081.09 447.093C1083.14 446.41 1084.83 445.499 1085.25 443.288C1085.35 442.274 1085.18 441.251 1084.77 440.321C1084.35 439.391 1083.7 438.586 1082.88 437.986C1083.26 438.111 1083.65 438.209 1084.05 438.278C1088.08 439.092 1089.25 438.018 1088.89 433.887C1088.89 432.554 1088.6 431.22 1088.44 429.951C1090.85 428.911 1091.04 428.358 1089.77 426.113L1088.18 423.348C1087.85 422.906 1087.7 422.354 1087.76 421.804C1087.82 421.255 1088.08 420.749 1088.5 420.388C1090.36 418.795 1092.24 417.136 1094.23 415.802C1095.47 415.081 1096.75 414.429 1098.07 413.85C1098.42 413.655 1098.88 413.232 1098.88 412.907C1098.9 411.307 1098.79 409.708 1098.55 408.126C1097.84 404.353 1096.96 400.612 1096.21 397.132C1097.05 396.165 1097.72 395.066 1098.2 393.879C1098.66 391.829 1098.87 389.734 1098.85 387.634C1098.82 386.551 1098.47 385.502 1097.83 384.629C1097.19 383.756 1096.29 383.102 1095.27 382.755C1091.99 381.467 1088.63 380.38 1085.22 379.502C1083.85 378.997 1082.38 378.855 1080.94 379.088C1079.51 379.322 1078.16 379.924 1077.02 380.835C1076.76 380.145 1076.35 379.519 1075.83 378.998C1075.3 378.477 1074.67 378.074 1073.98 377.816C1073.29 377.557 1072.55 377.449 1071.81 377.499C1071.07 377.548 1070.35 377.754 1069.7 378.103C1068.66 377.778 1067.88 377.257 1067.26 377.388C1065.31 377.843 1064.89 376.704 1064.24 375.273C1063.62 373.722 1062.61 372.355 1061.31 371.305C1060.13 370.564 1058.81 370.065 1057.43 369.836C1056.05 369.607 1054.64 369.653 1053.28 369.971C1052.53 370.039 1051.79 369.928 1051.1 369.646C1049.73 368.962 1048.31 368.364 1046.87 367.857C1046.23 367.789 1045.63 367.57 1045.1 367.219C1044.56 366.868 1044.12 366.396 1043.81 365.84C1043.7 365.654 1043.55 365.495 1043.37 365.377C1043.19 365.258 1042.98 365.183 1042.77 365.157C1041.7 365.32 1040.62 365.613 1039.52 365.873C1038.41 366.133 1037.37 366.816 1036.43 366.621C1035.7 366.525 1034.97 366.604 1034.28 366.854C1033.6 367.103 1032.98 367.514 1032.49 368.052C1031.87 368.54 1031.29 369.093 1030.7 369.614H1030.34L1030.86 365.45L1028.23 367.727C1027.91 368.02 1027.55 368.508 1027.22 368.475C1025.99 368.475 1026.08 369.158 1026.05 369.971C1026.17 370.43 1026.17 370.911 1026.05 371.37C1025.56 372.207 1025.02 373.011 1024.42 373.777L1022.77 373.257ZM1060.69 264.291L1058.38 267.055C1058.19 267.348 1057.86 267.673 1057.86 267.934C1057.86 271.024 1058.06 274.114 1058.45 277.139C1058.55 277.926 1058.94 278.649 1059.54 279.17C1060.14 279.691 1060.91 279.975 1061.7 279.969C1064.95 279.969 1066.91 279.188 1067.95 276.358C1069.61 272.184 1072.11 268.398 1075.3 265.234C1080.79 259.783 1086.91 254.991 1093.51 250.955C1093.96 250.635 1094.38 250.288 1094.78 249.914L1094.59 249.653L1091.5 250.206L1091.27 249.621C1091.74 249.374 1092.23 249.167 1092.73 249.003C1093.81 248.775 1094.88 248.775 1095.98 248.482C1096.44 248.482 1096.8 247.832 1097.22 247.474C1096.9 247.05 1096.5 246.687 1096.05 246.401C1095.01 245.913 1093.9 245.62 1092.8 245.165C1094.02 244.674 1095.21 244.121 1096.37 243.506C1097.81 242.628 1099.46 241.912 1100.02 240.058C1100.57 238.204 1100.41 237.944 1098.07 237.944L1100.86 235.764L1098.29 235.374L1108.05 227.828C1107.35 227.62 1106.61 227.62 1105.91 227.828C1104.64 228.186 1103.37 228.641 1102.1 229.064C1100.83 229.487 1099.11 230.105 1097.61 228.836C1096.94 228.325 1096.1 228.092 1095.27 228.186C1092.73 228.706 1090.23 229.389 1087.75 230.072C1087.07 230.267 1086.45 230.69 1085.77 230.95C1084.18 231.503 1082.52 231.926 1080.99 232.544C1080.07 232.954 1079.2 233.456 1078.39 234.04L1072.79 237.586C1071.98 238.074 1070.78 238.334 1070.35 239.05C1069.79 239.807 1069.06 240.432 1068.23 240.881C1067.4 241.331 1066.48 241.594 1065.54 241.652C1064.99 241.798 1064.46 241.994 1063.95 242.237C1061.69 243.44 1059.3 244.368 1056.82 245.002C1053.6 245.728 1050.44 246.685 1047.36 247.864C1043.49 249.296 1039.65 250.922 1035.87 252.678C1033.69 253.654 1032.07 255.216 1033.24 258.111H1031.52C1030.56 258.159 1029.63 258.418 1028.79 258.867C1027.94 259.317 1027.21 259.947 1026.64 260.713C1026.18 261.396 1026.64 262.599 1026.44 263.575C1027.14 263.673 1027.85 263.673 1028.56 263.575C1029.76 263.193 1030.94 262.748 1032.1 262.241L1032.3 262.632L1027.32 265.039C1025.4 265.656 1023.68 266.78 1022.34 268.292H1024.36L1023.51 270.406C1027.61 269.096 1031.57 267.408 1035.35 265.364L1035.13 264.811L1029.99 266.73L1029.82 266.372C1031.58 265.462 1033.3 264.453 1035.13 263.673C1036.63 263.157 1037.96 262.234 1038.96 261.005C1039.97 259.845 1041.06 258.758 1042.22 257.753C1042.36 257.581 1042.47 257.382 1042.54 257.167C1042.83 256.549 1042.93 255.704 1043.39 255.281C1044.45 254.233 1045.6 253.286 1046.84 252.451C1049.31 250.792 1051.85 249.198 1054.38 247.604L1054.58 247.93C1051.09 250.415 1048.07 253.486 1045.63 257.005L1049.73 255.866L1047.55 258.403L1047.78 258.761L1049.57 258.436C1051.81 257.915 1054.06 257.297 1056.33 256.94C1058.61 256.582 1059.03 257.753 1058.19 259.542C1057.76 260.452 1057.21 261.298 1056.72 262.144C1058.12 263.543 1059.78 260.713 1061.08 262.567C1058.74 262.827 1058.64 262.892 1057.99 264.193L1060.69 264.291ZM1230.32 395.733L1225.38 401.197C1224.8 401.772 1224.3 402.43 1223.91 403.149C1223.04 405.556 1222.29 408.028 1221.47 410.468C1221.3 411.037 1221.04 411.575 1220.69 412.061C1219.96 412.891 1219.42 413.871 1219.1 414.933C1218.79 415.995 1218.71 417.114 1218.87 418.209C1218.88 418.938 1219.16 419.638 1219.65 420.177C1220.14 420.716 1220.81 421.057 1221.54 421.137C1222.35 421.226 1223.16 421.045 1223.86 420.621C1224.55 420.197 1225.09 419.555 1225.38 418.795C1227.42 413.417 1229.48 407.996 1231.56 402.531C1232.09 401.411 1232.26 400.153 1232.03 398.933C1231.81 397.713 1231.21 396.594 1230.32 395.733ZM1170.76 235.569C1172 235.89 1173.29 235.89 1174.53 235.572C1175.76 235.253 1176.9 234.625 1177.82 233.748C1177.5 233.721 1177.17 233.721 1176.85 233.748C1172.88 233.748 1168.91 234.008 1164.97 234.301C1163.82 234.556 1162.72 235.007 1161.72 235.634C1161.55 235.735 1161.41 235.878 1161.32 236.049C1161.22 236.22 1161.17 236.414 1161.17 236.61C1161.24 236.793 1161.36 236.954 1161.51 237.074C1161.67 237.195 1161.85 237.27 1162.05 237.293C1163.19 237.293 1164.32 237.098 1165.3 237H1165.82L1164.88 237.749V238.074H1175.45L1170.76 235.569ZM1095.27 259.021C1098.81 258.607 1102.18 257.26 1105.03 255.118C1105.97 254.402 1107.11 253.524 1106.65 252.126C1106.36 251.28 1104.25 251.377 1102.82 252.126C1100.44 253.362 1098.1 254.598 1095.66 255.704C1094.42 256.256 1093.28 256.679 1093.71 258.045L1095.27 259.021ZM1015.84 283.124L1019.09 280.327C1017.89 276.846 1021.72 275.773 1022.83 273.301C1022.08 273.049 1021.26 273.082 1020.53 273.394C1019.79 273.706 1019.2 274.274 1018.86 274.992C1018.29 275.943 1017.66 276.856 1016.98 277.724L1016.62 277.562C1016.74 277.307 1016.85 277.047 1016.94 276.781C1017.11 276.358 1017.24 275.903 1017.37 275.48C1016.88 275.48 1016.33 275.187 1015.9 275.48C1015.3 275.629 1014.76 275.958 1014.36 276.424C1013.95 276.889 1013.69 277.468 1013.63 278.082L1011.54 279.611C1013.14 281.107 1014.41 281.367 1015.48 279.611H1015.87C1015.84 280.587 1014.15 281.66 1015.84 283.124ZM1048.36 301.176C1045.96 301.437 1042.54 306.413 1042.44 309.601C1043.03 309.435 1043.59 309.217 1044.14 308.95C1044.98 308.463 1045.73 307.845 1046.58 307.324C1047.42 306.804 1047.78 306.446 1048.53 307.324C1048.75 307.584 1049.76 307.519 1050.15 307.324C1050.38 307.141 1050.56 306.908 1050.69 306.643C1050.81 306.378 1050.87 306.088 1050.87 305.795C1050.71 304.92 1050.47 304.06 1050.15 303.226L1048.01 303.714L1047.03 302.803L1048.36 301.176ZM1140.81 276.033C1139.7 276.033 1138.79 276.033 1138.33 276.326C1137.9 276.71 1137.37 276.971 1136.79 277.08C1136.22 277.188 1135.63 277.141 1135.08 276.944C1134.72 276.944 1134.07 276.944 1133.98 277.139C1133.83 277.605 1133.83 278.104 1133.98 278.57C1133.98 278.96 1134.46 279.286 1134.66 279.578L1132.9 281.01C1134.63 282.961 1136.9 283.091 1138.27 281.205C1139.26 279.554 1140.11 277.824 1140.81 276.033ZM1025.24 355.855C1020.26 353.057 1015.71 353.252 1013.76 356.277C1015.32 355.887 1016.81 355.367 1018.34 355.139C1019.04 355.098 1019.73 355.332 1020.26 355.79C1020.58 356.129 1020.96 356.401 1021.39 356.589C1021.81 356.777 1022.27 356.877 1022.74 356.883C1023.2 356.889 1023.66 356.801 1024.09 356.625C1024.52 356.448 1024.91 356.186 1025.24 355.855ZM1164.26 307.649C1165.36 307.194 1166.44 306.966 1166.41 305.698C1166.48 304.884 1166.25 304.071 1165.76 303.421C1165.46 303.096 1164.36 303.583 1163.67 303.714C1163.67 304.592 1163.97 305.145 1164.03 305.698C1164.1 306.251 1164.16 306.869 1164.26 307.649ZM1015.87 273.724C1019.12 272.845 1019.12 272.845 1018.83 269.723C1017.63 270.731 1016.59 271.512 1015.58 272.422C1015.48 272.715 1015.77 273.398 1015.87 273.724ZM1016.94 266.73V267.186H1019.32L1020.46 267.218C1020.46 266.795 1020.46 266.275 1020.46 266.047C1020.29 265.904 1020.1 265.799 1019.89 265.743C1019.68 265.687 1019.46 265.679 1019.25 265.722C1018.45 266.035 1017.68 266.416 1016.94 266.86V266.73ZM1164.65 299.973C1163.87 301.307 1163.87 302.152 1164.65 302.705C1164.91 302.868 1165.53 302.478 1165.98 302.315L1164.65 299.973ZM1020.07 272.032L1020.42 272.52C1021.16 272.192 1021.86 271.812 1022.54 271.382C1022.42 270.823 1022.25 270.278 1022.02 269.755L1020.07 272.032Z" fill="#C1E2ED"/>
<path opacity="0.1" fill-rule="evenodd" clip-rule="evenodd" d="M1259.94 345.151C1255.76 419.058 1194.5 477.692 1119.55 477.672C1044.58 477.652 983.339 418.96 979.223 345.029C979.073 347.684 978.997 350.359 978.996 353.052C978.975 430.693 1041.9 493.651 1119.54 493.672C1197.18 493.693 1260.14 430.769 1260.16 353.128C1260.16 350.451 1260.09 347.791 1259.94 345.151Z" fill="url(#paint1_linear)"/>
<path opacity="0.2" fill-rule="evenodd" clip-rule="evenodd" d="M1260.15 350.764C1258.72 427.189 1196.31 488.693 1119.55 488.672C1042.7 488.651 980.265 426.967 979.024 350.415C979.008 351.292 979 352.171 978.999 353.052C978.978 430.693 1041.9 493.651 1119.54 493.672C1197.18 493.693 1260.14 430.769 1260.16 353.128C1260.16 352.338 1260.16 351.551 1260.15 350.764Z" fill="url(#paint2_linear)"/>
<path opacity="0.3" fill-rule="evenodd" clip-rule="evenodd" d="M1232 433.765C1174.64 486.089 1085.72 482.005 1033.4 424.642C991.309 378.5 985.719 311.938 1015 260.43C968.089 313.536 967.781 394.576 1016.62 448.121C1068.95 505.483 1157.86 509.567 1215.23 457.244C1226.45 447.01 1235.63 435.376 1242.75 422.852C1239.4 426.639 1235.82 430.283 1232 433.765Z" fill="url(#paint3_linear)"/>
<path d="M1021.13 495.349L1034.14 499.383L1029.59 516.687C1025.02 516.446 1020.47 515.946 1015.96 515.191C1015.96 514.703 1014.89 496.65 1014.89 496.65L1021.13 495.349Z" fill="#A3CFDC"/>
<path d="M1021.88 678.77L1026.43 577.578L1015.7 576.342V576.7L996.963 575.984L996.638 606.397C996.963 601.16 1003.34 634.988 1005.97 657.465C1006.3 660.49 1005.29 671.126 1005.81 681.632H1022.07C1021.91 680.591 1021.91 679.681 1021.88 678.77Z" fill="#294D90"/>
<path d="M1012.58 714.745L1019.9 715.233C1019.9 715.233 1020.58 702.515 1020.97 689.211C1020.97 686.544 1020.97 683.974 1020.97 681.47H1006.72C1006.72 681.925 1006.72 682.348 1006.72 682.803C1007.95 693.571 1009.9 704.243 1012.58 714.745Z" fill="#934624"/>
<path d="M978.748 569.641C975.17 585.71 976.244 585.905 975.333 603.99C974.162 627.442 976.569 650.959 976.211 656.879H992.182L1005.62 606.169L1008.45 575.984L978.748 569.641Z" fill="#335AA9"/>
<path d="M992.182 656.879C992.182 656.879 976.309 652.716 976.309 656.879C976.309 661.043 975.17 667.906 973.609 679.648L973.414 681.34H988.637L992.182 656.879Z" fill="#335AA9"/>
<path d="M975.918 712.988H983.758L987.596 681.502H974.325C974.035 692.023 974.568 702.55 975.918 712.988Z" fill="#934624"/>
<path d="M1007.7 583.953C1007.7 583.953 988.181 585.645 987.335 586.848C986.49 588.052 983.595 595.696 982.717 611.764C981.838 627.832 982.261 646.568 981.546 652.813C980.064 662.362 979.087 671.981 978.618 681.632H973.316C973.316 681.632 973.674 677.696 974.422 671.679C975.17 665.661 976.048 659.611 976.016 656.326C975.983 653.041 974.487 626.531 974.747 612.415C974.7 601.325 975.352 590.244 976.699 579.237C977.61 576.57 1007.86 582.262 1007.86 582.262C1008.02 582.826 1007.96 583.43 1007.7 583.953Z" fill="#294D90"/>
<path d="M980.505 582.49C976.927 582.49 973.999 573.252 973.772 569.706C973.023 558.712 972.145 545.376 971.657 537.179C970.714 521.631 966.811 501.399 967.299 495.284C967.787 489.169 980.7 486.567 980.7 486.567L998.395 485.624C998.395 485.624 1009.84 485.884 1014.04 493.105C1016.54 497.399 1022.01 513.987 1025.91 537.797C1027.7 551.092 1028.64 564.488 1028.71 577.903C1028.71 578.5 1028.6 579.091 1028.38 579.643C1028.15 580.196 1027.82 580.698 1027.4 581.121C1026.98 581.545 1026.48 581.881 1025.93 582.11C1025.38 582.339 1024.79 582.457 1024.19 582.457L980.505 582.49Z" fill="#C1E2ED"/>
<path d="M995.597 476.646C995.447 479.007 995.447 481.376 995.597 483.737C995.89 485.233 998.395 485.494 998.395 485.494C998.395 485.494 1004.31 499.318 995.142 497.268C989.181 495.566 984.067 491.704 980.797 486.437C982.07 484.927 982.982 483.147 983.465 481.233C983.725 477.817 983.465 470.889 983.465 470.889L995.597 476.646Z" fill="#AA633F"/>
<path d="M995.435 477.72C993.53 478.068 991.565 477.646 989.97 476.549C987.361 474.299 985.044 471.731 983.074 468.905L981.936 469.685C981.936 469.685 983.627 472.157 983.367 480.419C986.62 484.16 995.402 479.151 995.402 479.151L995.435 477.72Z" fill="#934624"/>
<path d="M1012.45 713.606C1012.45 713.606 1010.82 718.876 1012.45 718.973C1014.07 719.071 1026.63 718.973 1026.63 718.973C1026.63 718.973 1029.72 717.802 1028.55 716.306C1027.38 714.81 1020.74 714.777 1020.87 713.476C1020.19 712.305 1012.45 713.606 1012.45 713.606Z" fill="#322875"/>
<path d="M975.723 712.988C975.723 712.988 974.097 718.876 975.723 718.973C977.35 719.071 989.938 718.973 989.938 718.973C989.938 718.973 992.995 717.802 991.857 716.306C990.718 714.81 983.823 714.29 983.953 713.053C983.27 711.817 975.723 712.988 975.723 712.988Z" fill="#322875"/>
<path d="M988.994 678.998L985.514 709.541H973.739L973.316 681.502L988.994 678.998Z" fill="#335AA9"/>
<path d="M1021.91 680.526L1021.46 709.541H1008.45C1007.02 700.257 1006.17 690.892 1005.91 681.502C1011.7 674.606 1021.91 680.526 1021.91 680.526Z" fill="#294D90"/>
<path d="M978.618 680.656C978.618 680.656 978.293 690.415 978.26 697.571C978.228 704.727 978.26 709.541 978.26 709.541H973.739C972.967 700.215 972.825 690.847 973.316 681.502C975.04 678.282 978.618 680.656 978.618 680.656Z" fill="#294D90"/>
<path d="M974.682 464.383C981.188 474.337 992.345 480.647 998.655 476.679C1004.97 472.71 1003.92 459.732 997.516 449.746C991.109 439.76 981.838 436.508 975.528 440.541C969.218 444.574 968.307 454.398 974.682 464.383Z" fill="#AA633F"/>
<path d="M975.561 449.909C976.858 451.992 977.792 454.279 978.325 456.675C978.781 459.927 978.748 466.433 980.082 468.352C981.416 470.271 985.286 473.068 981.936 472.418C979.147 471.986 976.51 470.868 974.26 469.165C969.42 465.818 965.684 461.108 963.526 455.634C962.548 451.856 962.947 447.853 964.651 444.342C966.356 440.832 969.255 438.043 972.828 436.475C979.496 432.995 981.416 429.97 986.815 430.23C992.215 430.49 993.32 430.913 995.012 433.483C998.265 438.167 995.305 441.745 998.265 444.542C1001.22 447.339 1003.63 452.121 1001.88 460.187C998.232 450.429 994.556 443.924 989.775 444.184C984.994 444.444 985.677 450.332 975.561 449.909Z" fill="#BBBDBF"/>
<path d="M985 486.705C985 486.705 1024.66 481.045 1028.64 477.695C1032.63 474.345 1056.73 452 1056.73 452L1060 455.903C1060 455.903 1044.65 483.712 1033.87 491.681C1023.09 499.65 987.156 503 987.156 503L985 486.705Z" fill="#934624"/>
<path d="M1057.8 452.11C1057.45 448.532 1057.39 444.932 1057.62 441.345C1058.48 438.388 1058 435.5 1061 434C1061.5 433 1063.88 436.562 1063.72 438.744C1063.18 441.641 1062.82 444.57 1062.65 447.512C1062.98 450.049 1061.16 453.712 1060 456C1058.93 457.123 1057.8 452.11 1057.8 452.11Z" fill="#934624"/>
<path d="M983.757 486.73C983.757 486.73 1023.25 481.07 1027.21 477.72C1031.18 474.369 1055.19 452.023 1055.19 452.023L1058.44 455.926C1058.44 455.926 1043.15 483.737 1032.42 491.706C1021.68 499.675 985.904 503.026 985.904 503.026L983.757 486.73Z" fill="#AA633F"/>
<path d="M1055.02 453.064C1054.74 449.481 1054.74 445.881 1055.02 442.298C1055.92 439.354 1057.64 436.726 1059.97 434.719C1060.75 434.719 1061.3 437.614 1061.11 439.793C1060.52 442.681 1060.12 445.604 1059.9 448.543C1060.2 451.085 1059.72 453.657 1058.54 455.926C1057.46 457.032 1055.02 453.064 1055.02 453.064Z" fill="#AA633F"/>
<path d="M1002.88 483.022L1005.58 502.18C1005.58 502.18 986.067 504.424 985.059 506.181C984.05 507.937 987.14 541.57 986.425 552.922C985.709 564.274 983.985 574.488 986.978 582.197H976.179C976.179 582.197 973.902 580.44 972.926 572.666C971.95 564.892 972.275 554.549 971.722 545.571C971.169 536.594 969.868 522.347 968.958 516.069C968.047 509.791 965.51 499.122 967.169 493.3C968.827 487.478 976.406 485.949 982.554 485.656C988.702 485.364 1002.88 483.022 1002.88 483.022Z" fill="#A3CFDC"/>
<path d="M1233.53 496.097C1234.77 496.097 1245.63 498.96 1245.63 498.96C1246.19 496.835 1246.48 494.65 1246.51 492.454C1245.99 492.064 1232.92 491.153 1232.92 491.153L1233.53 496.097Z" fill="#4B0A70"/>
<path d="M1218.31 500.098C1218.31 500.098 1213.14 499.253 1211.81 500.912C1211.09 501.855 1210.44 505.4 1207.71 510.409C1204.97 515.419 1204.19 516.915 1204.19 516.915L1223.91 512.979L1218.31 500.098Z" fill="#F05452"/>
<path d="M1194.7 631.931L1209.07 716.111L1212.52 715.135C1212.52 715.135 1219.03 687.39 1217.11 677.306C1215.19 667.223 1211.94 660.425 1212.03 656.652C1212.13 652.878 1214.54 627.963 1214.54 627.963L1194.7 631.931Z" fill="#F2B186"/>
<path d="M1212.65 714.159C1213.53 715.539 1213.9 717.186 1213.69 718.811C1213.11 720.893 1212.55 722.779 1212.55 722.779H1211.32C1211.32 722.779 1211.55 721.153 1211.06 721.998C1210.57 722.844 1208.91 722.812 1207.64 722.812H1202.21C1202.21 722.812 1201.4 720.958 1202.21 720.47C1203.87 719.658 1205.36 718.557 1206.63 717.217C1207.28 716.046 1208.13 709.736 1209.01 709.573C1209.89 709.41 1210.11 712.273 1210.31 712.826C1210.51 713.358 1210.68 713.901 1210.83 714.452L1212.65 714.159Z" fill="#4C266E"/>
<path d="M1225.34 714.159C1226.22 715.538 1226.58 717.19 1226.34 718.811C1225.76 720.893 1225.21 722.779 1225.21 722.779H1224.13V722.356C1224.13 722.356 1224.13 721.055 1223.74 721.901C1223.35 722.747 1221.6 722.714 1220.29 722.714H1214.86C1214.86 722.714 1214.05 720.86 1214.86 720.372C1216.53 719.553 1218.03 718.453 1219.32 717.119C1219.94 715.948 1220.82 709.638 1221.66 709.476C1222.51 709.313 1222.8 712.175 1222.96 712.728C1223.12 713.281 1223.52 714.355 1223.52 714.355L1225.34 714.159Z" fill="#4C266E"/>
<path d="M1207.58 713.704C1207.48 711.155 1207.24 708.614 1206.86 706.093L1204.97 694.253C1209.02 693.909 1213.04 695.144 1216.2 697.701C1214.77 704.954 1212.94 715.883 1212.94 715.883L1207.58 713.704Z" fill="#4C266E"/>
<path d="M1214.18 631.931L1221.01 714.615L1224.46 716.404C1224.46 716.404 1233.6 689.406 1232.66 679.193C1231.71 668.979 1229.11 661.888 1229.6 658.148C1230.09 654.407 1234.83 629.849 1234.83 629.849L1214.18 631.931Z" fill="#FFCAA6"/>
<path d="M1219.87 714.68C1219.87 714.68 1219.87 711.069 1219.45 706.743C1219.03 702.417 1218.7 694.773 1218.7 694.773C1220.75 694.83 1222.76 695.344 1224.58 696.278C1226.41 697.212 1228 698.543 1229.24 700.173C1227.06 707.329 1224.46 717.087 1224.46 717.087L1219.87 714.68Z" fill="#4C266E"/>
<path d="M1196 567.495L1186.86 634.793H1252.4C1252.4 634.793 1247.85 612.382 1243.42 598.363C1236.92 577.936 1232.69 572.113 1230.64 568.861C1226.54 562.355 1232.79 546.092 1232.79 546.092L1196 567.495Z" fill="#F05452"/>
<path d="M1230.74 454.235C1227.81 456.375 1225.4 459.156 1223.71 462.367C1222.9 465.671 1221.91 468.928 1220.75 472.125C1219.64 474.304 1214.83 478.403 1216.39 484.713C1217.95 491.023 1226.38 494.959 1226.38 494.959L1231.39 480.647C1231.39 480.647 1234.12 457.878 1234.38 457.683C1234.64 457.488 1230.74 454.235 1230.74 454.235Z" fill="#4B0A70"/>
<path d="M1227.48 487.413L1224.3 501.725L1233.08 503.709L1236.59 487.933L1227.48 487.413Z" fill="#F2B186"/>
<path d="M1226.8 490.438C1228.57 490.766 1230.39 490.766 1232.17 490.438C1234 489.611 1235.6 488.323 1236.79 486.697L1236.3 489.95L1234.77 496L1226.38 491.739L1226.8 490.438Z" fill="#D89D76"/>
<path d="M1201.98 566.649C1201.98 566.649 1195.74 593.874 1193.36 610.04C1190.99 626.206 1190.47 634.793 1190.47 634.793H1174.89C1174.89 634.793 1185.2 580.278 1196.81 564.112C1198.05 562.42 1201.98 566.649 1201.98 566.649Z" fill="#C2394E"/>
<path d="M1208.1 512.524C1208.1 512.524 1198.57 522.282 1199.15 529.178C1199.74 536.073 1203.41 540.66 1203.22 544.14C1203.02 547.62 1201.62 556.208 1201.62 556.208L1201.04 565.12C1201.04 565.12 1225.63 567.495 1225.86 567.82C1226.08 568.145 1228.33 564.209 1228.33 564.209L1227.45 559.33L1245.05 521.599C1245.05 521.599 1247.03 513.662 1243.78 509.954C1242.66 508.507 1241.27 507.292 1239.68 506.376C1237.99 505.4 1208.1 512.524 1208.1 512.524Z" fill="#F05452"/>
<path d="M1199.61 525.47C1199.61 525.47 1200.52 531.715 1215.16 534.154C1229.79 536.594 1243.58 524.689 1243.58 524.689L1238.54 535.13C1237.65 537.683 1236.56 540.162 1235.29 542.546L1231.74 549.962C1229.8 548.224 1227.38 547.089 1224.8 546.696C1222.22 546.304 1219.58 546.67 1217.2 547.751C1204.19 554.028 1200.94 570.877 1200.94 570.877L1196.75 563.982C1196.75 563.982 1205.49 550.19 1201.46 541.213C1199.15 536.305 1198.5 530.779 1199.61 525.47Z" fill="#C2394E"/>
<path d="M1218.31 500.098C1218.31 500.098 1209.59 511.841 1220.69 513.727C1231.78 515.614 1239.84 506.409 1239.84 506.409C1237.19 504.773 1234.32 503.525 1231.32 502.701C1227.04 501.592 1222.69 500.724 1218.31 500.098Z" fill="#F2B186"/>
<path d="M1174.89 634.793C1174.89 634.793 1179.83 644.551 1214.18 643.023C1248.53 641.494 1252.4 634.793 1252.4 634.793L1248.82 632.646L1174.89 634.793Z" fill="#F15F46"/>
<path d="M1190.6 634.338L1189.72 641.787C1189.72 641.787 1179.15 641.104 1174.98 634.793C1177.59 630.272 1190.6 634.338 1190.6 634.338Z" fill="#CC524C"/>
<path d="M1230.48 568.861C1235.95 573.06 1240.67 578.164 1244.43 583.953C1250.94 593.939 1257.44 602.266 1265.47 604.445C1273.51 606.625 1292.37 609.064 1290.46 624.84C1288.54 640.616 1266.74 639.445 1257.93 648.552C1249.11 657.66 1240.23 661.108 1224.52 659.709C1208.81 658.31 1203.71 664.328 1192.94 667.646C1182.17 670.963 1173.98 665.857 1172.94 653.561C1172.54 645.236 1173.65 636.908 1176.19 628.971L1230.48 568.861Z" fill="#F05452"/>
<path d="M1193.85 607.21C1192.04 619.571 1191.26 632.061 1191.51 644.551C1192.35 660.327 1195.96 666.605 1195.96 666.605C1192.44 668.468 1188.45 669.27 1184.48 668.914C1177.52 668.459 1173.23 663.938 1172.51 653.334C1171.8 642.73 1174.01 634.37 1177.55 622.238C1178.81 618.575 1180.95 615.282 1183.8 612.658C1186.64 610.033 1190.1 608.161 1193.85 607.21Z" fill="#C2394E"/>
<path d="M1228.1 462.627C1221.08 472.385 1219.22 485.168 1225.34 489.592C1231.45 494.016 1243.13 488.323 1250.12 478.695C1257.12 469.067 1256.63 459.179 1250.71 454.723C1244.79 450.267 1235.09 452.999 1228.1 462.627Z" fill="#FFCAA6"/>
<path d="M1242.45 459.765C1242.77 459.921 1243.04 460.159 1243.25 460.453C1243.45 460.747 1243.57 461.089 1243.61 461.446C1243.64 461.802 1243.58 462.161 1243.43 462.488C1243.29 462.814 1243.06 463.097 1242.77 463.31C1241.3 464.247 1240.11 465.578 1239.35 467.153C1238.59 468.728 1238.29 470.484 1238.48 472.223C1239.53 477.002 1238.69 482.004 1236.14 486.177C1233.27 491.381 1235.94 497.529 1243.13 499.871C1254.06 503.416 1259.39 494.829 1267.23 496.781C1275.07 498.732 1281.15 507.872 1292.24 503.676C1312.61 496 1301.48 473.816 1290.42 474.597C1283.4 475.085 1272.83 476.614 1268.89 465.75C1264.6 453.877 1259.52 451.015 1245.24 450.137C1230.96 449.258 1228.04 457.52 1228.04 457.52L1230.67 459.635C1230.67 459.635 1234.96 455.992 1242.45 459.765Z" fill="#4C266E"/>
<path opacity="0.4" d="M1173.15 444.931C1170.31 449.382 1167.05 450.99 1165.5 450C1163.95 449.01 1165.5 447 1169.5 441C1171.5 436 1173.91 434.088 1175.47 435.079C1175.47 437 1175.98 440.48 1173.15 444.931Z" fill="#2C58B1"/>
<path d="M1239.61 508.6C1225.71 501.32 1212.81 492.264 1201.26 481.662C1190.33 472.135 1180.39 461.526 1171.61 450L1167 453.478C1167 453.478 1179.62 478.053 1194.01 492.522C1209.83 508.37 1222.12 520.608 1236.51 523.594C1250.91 526.58 1249.03 512.242 1239.61 508.6Z" fill="#D89D76"/>
<path d="M1167 453.5C1166.45 452.372 1164.93 450.132 1165.01 448.904C1165.35 447.62 1169.64 443.6 1170.33 442.147C1171.02 440.694 1174.64 434.9 1175.37 435.001C1176.65 438.012 1175.71 442.317 1174.93 445.458C1174.22 447.482 1172.9 449.294 1171.1 450.695L1167 453.5Z" fill="#D89D76"/>
<path d="M1239.84 506.409C1226.12 499.192 1213.39 490.214 1201.98 479.704C1191.19 470.259 1181.38 459.742 1172.71 448.315L1168.15 451.763C1168.15 451.763 1180.61 476.126 1194.83 490.47C1210.44 506.181 1222.57 518.314 1236.79 521.273C1251 524.233 1249.15 510.019 1239.84 506.409Z" fill="#FFCAA6"/>
<path d="M1168.15 451.763C1167.68 450.677 1167.47 449.497 1167.54 448.315C1167.83 447.079 1171.47 443.208 1172.06 441.81C1172.64 440.411 1174.69 435.825 1175.31 435.922C1176.4 438.821 1176.62 441.973 1175.96 444.997C1175.36 446.946 1174.24 448.69 1172.71 450.039L1168.15 451.763Z" fill="#FFCAA6"/>
<defs>
<radialGradient id="paint0_radial" cx="0" cy="0" r="1" gradientUnits="userSpaceOnUse" gradientTransform="translate(150 29.8643) rotate(90) scale(29.8643 150)">
<stop stop-color="#43C4D9"/>
<stop offset="1" stop-color="white" stop-opacity="0"/>
</radialGradient>
<linearGradient id="paint1_linear" x1="1119.54" y1="475.662" x2="1119.59" y2="327.05" gradientUnits="userSpaceOnUse">
<stop stop-color="#2C007B"/>
<stop offset="0.05" stop-color="#2E0F82"/>
<stop offset="0.23" stop-color="#34459C"/>
<stop offset="0.41" stop-color="#3973B2"/>
<stop offset="0.58" stop-color="#3E96C3"/>
<stop offset="0.74" stop-color="#41AFCF"/>
<stop offset="0.88" stop-color="#42BFD6"/>
<stop offset="1" stop-color="#43C4D9"/>
</linearGradient>
<linearGradient id="paint2_linear" x1="1119.55" y1="476.315" x2="1119.59" y2="333.09" gradientUnits="userSpaceOnUse">
<stop stop-color="#2C007B"/>
<stop offset="0.05" stop-color="#2E0F82"/>
<stop offset="0.23" stop-color="#34459C"/>
<stop offset="0.41" stop-color="#3973B2"/>
<stop offset="0.58" stop-color="#3E96C3"/>
<stop offset="0.74" stop-color="#41AFCF"/>
<stop offset="0.88" stop-color="#42BFD6"/>
<stop offset="1" stop-color="#43C4D9"/>
</linearGradient>
<linearGradient id="paint3_linear" x1="1152.91" y1="324.362" x2="1062.67" y2="406.675" gradientUnits="userSpaceOnUse">
<stop stop-color="#2C58B1"/>
<stop offset="1" stop-color="#43C4D9"/>
</linearGradient>
</defs>
</svg>
