<svg width="28" height="25" viewBox="0 0 28 25" fill="none" xmlns="http://www.w3.org/2000/svg">
<path d="M25.025 0H2.975C1.3342 0 0 1.24449 0 2.77477V22.1982C0 23.7285 1.3342 24.973 2.975 24.973H25.025C26.6658 24.973 28 23.7285 28 22.1982V2.77477C28 1.24449 26.6658 0 25.025 0ZM25.025 22.1982H2.975C2.8952 22.1982 2.8406 22.176 2.8168 22.176C2.807 22.176 2.8014 22.1788 2.8 22.1871L2.7832 2.83859C2.793 2.82472 2.856 2.77477 2.975 2.77477H25.025C25.1356 2.77616 25.1958 2.81362 25.2 2.78587L25.2168 22.1344C25.207 22.1483 25.144 22.1982 25.025 22.1982Z" fill="#43C4D9"/>
<path d="M5.29724 5.29736H13.9999V13.4703H5.29724V5.29736ZM15.4504 16.1947H5.29724V18.919H22.7026V16.1947H16.9008H15.4504ZM16.9008 10.746H22.7026V13.4703H16.9008V10.746ZM16.9008 5.29736H22.7026V8.02169H16.9008V5.29736Z" fill="#43C4D9"/>
</svg>
