<svg width="156" height="136" viewBox="0 0 156 136" fill="none" xmlns="http://www.w3.org/2000/svg">
<path d="M153.025 111H130.975C129.334 111 128 112.244 128 113.775V133.198C128 134.728 129.334 135.973 130.975 135.973H153.025C154.666 135.973 156 134.728 156 133.198V113.775C156 112.244 154.666 111 153.025 111ZM153.025 133.198H130.975C130.895 133.198 130.841 133.176 130.817 133.176C130.807 133.176 130.801 133.179 130.8 133.187L130.783 113.839C130.793 113.825 130.856 113.775 130.975 113.775H153.025C153.136 113.776 153.196 113.814 153.2 113.786L153.217 133.134C153.207 133.148 153.144 133.198 153.025 133.198Z" fill="#43C4D9"/>
<path d="M133.297 116.297H142V124.47H133.297V116.297ZM143.451 127.195H133.297V129.919H150.703V127.195H144.901H143.451ZM144.901 121.746H150.703V124.47H144.901V121.746ZM144.901 116.297H150.703V119.022H144.901V116.297Z" fill="#43C4D9"/>
</svg>
