<svg width="20" height="25" viewBox="0 0 20 25" fill="none" xmlns="http://www.w3.org/2000/svg">
<path d="M10.3599 14.2411L10.3683 14.202C10.5301 13.5352 10.7338 12.7037 10.5748 11.9503C10.4688 11.356 10.0307 11.1244 9.65681 11.1077C9.21596 11.0882 8.82255 11.3393 8.72489 11.7048C8.54074 12.3744 8.70536 13.2896 9.0067 14.4559C8.62723 15.3599 8.02176 16.6741 7.57813 17.4554C6.75223 17.8823 5.64453 18.5407 5.47991 19.3722C5.44643 19.5257 5.48549 19.721 5.57757 19.8968C5.6808 20.0921 5.84542 20.2427 6.03795 20.3153C6.12165 20.346 6.2221 20.3711 6.33929 20.3711C6.83036 20.3711 7.62556 19.9749 8.68583 18.1557C8.84766 18.1027 9.01507 18.0469 9.1769 17.9911C9.93583 17.7344 10.7227 17.4665 11.4342 17.3465C12.221 17.7679 13.1166 18.0385 13.7249 18.0385C14.3276 18.0385 14.5647 17.6814 14.654 17.4665C14.8103 17.0898 14.7349 16.6155 14.481 16.3616C14.1127 15.9989 13.2171 15.904 11.822 16.077C11.1356 15.6585 10.6864 15.0893 10.3599 14.2411ZM7.29911 18.4794C6.91127 19.043 6.6183 19.3248 6.45926 19.4475C6.64621 19.1044 7.01172 18.7416 7.29911 18.4794ZM9.7433 11.9085C9.88839 12.1568 9.86886 12.9074 9.75726 13.2868C9.62054 12.7316 9.601 11.9448 9.68192 11.8527C9.70424 11.8555 9.72377 11.8722 9.7433 11.9085ZM9.69866 15.2706C9.99721 15.7868 10.3739 16.2305 10.7896 16.5597C10.1869 16.6964 9.63728 16.9224 9.14621 17.1233C9.02902 17.1708 8.91462 17.2182 8.80301 17.2628C9.17411 16.5904 9.48382 15.8287 9.69866 15.2706ZM14.0402 17.0982C14.043 17.1038 14.0458 17.1122 14.029 17.1233H14.0234L14.0179 17.1317C13.9955 17.1456 13.7667 17.2796 12.7818 16.8917C13.9146 16.8387 14.0374 17.0954 14.0402 17.0982ZM19.3806 6.26674L13.3761 0.262277C13.2087 0.0948661 12.9827 0 12.7455 0H0.892857C0.398996 0 0 0.398996 0 0.892857V24.1071C0 24.601 0.398996 25 0.892857 25H18.75C19.2439 25 19.6429 24.601 19.6429 24.1071V6.90011C19.6429 6.66295 19.548 6.43415 19.3806 6.26674ZM17.5837 7.31027H12.3326V2.05915L17.5837 7.31027ZM17.6339 22.9911H2.00893V2.00893H10.4353V8.03571C10.4353 8.34651 10.5587 8.64459 10.7785 8.86436C10.9983 9.08412 11.2963 9.20759 11.6071 9.20759H17.6339V22.9911Z" fill="#2C58B1"/>
</svg>
