<svg width="28" height="25" viewBox="0 0 28 25" fill="none" xmlns="http://www.w3.org/2000/svg">
<path d="M25.025 0.000244141H2.975C1.3342 0.000244141 0 1.24473 0 2.77502V22.1984C0 23.7287 1.3342 24.9732 2.975 24.9732H25.025C26.6658 24.9732 28 23.7287 28 22.1984V2.77502C28 1.24473 26.6658 0.000244141 25.025 0.000244141ZM25.025 22.1984H2.975C2.8952 22.1984 2.8406 22.1762 2.8168 22.1762C2.807 22.1762 2.8014 22.179 2.8 22.1873L2.7832 2.83884C2.793 2.82497 2.856 2.77502 2.975 2.77502H25.025C25.1356 2.77641 25.1958 2.81387 25.2 2.78612L25.2168 22.1346C25.207 22.1485 25.144 22.1984 25.025 22.1984Z" fill="#F05452"/>
<path d="M5.29736 5.29761H14.0001V13.4706H5.29736V5.29761ZM15.4505 16.1949H5.29736V18.9192H22.7028V16.1949H16.901H15.4505ZM16.901 10.7463H22.7028V13.4706H16.901V10.7463ZM16.901 5.29761H22.7028V8.02193H16.901V5.29761Z" fill="#F05452"/>
</svg>
