<svg width="156" height="259" viewBox="0 0 156 259" fill="none" xmlns="http://www.w3.org/2000/svg">
<path d="M113.61 146.952L138.616 110.275L113.61 146.952Z" fill="#F1B185"/>
<path d="M114.012 147.255L113.208 146.649L138.206 109.972L139.017 110.579L114.012 147.255Z" fill="#A5D5F3"/>
<path d="M139.181 100.719L106.693 71.2549L139.181 100.719Z" fill="#F1B185"/>
<path d="M138.853 101.12L106.373 71.6563L107.021 70.8613L139.501 100.325L138.853 101.12Z" fill="#A5D5F3"/>
<path d="M89.0715 57.7892L47.9939 44.8726L89.0715 57.7892Z" fill="#F1B185"/>
<path d="M88.9323 58.2891L47.8546 45.3725L48.1333 44.3726L89.2109 57.2892L88.9323 58.2891Z" fill="#A5D5F3"/>
<path d="M141.173 57.3707L112.241 15.2686L141.173 57.3707Z" fill="#F1B185"/>
<path d="M140.771 57.6988L111.84 15.5966L112.643 14.9819L141.574 57.0841L140.771 57.6988Z" fill="#A5D5F3"/>
<path d="M100.554 11.7036L46.7318 38.5205L100.554 11.7036Z" fill="#F1B185"/>
<path d="M100.759 12.1792L46.8958 39.0125L46.4778 38.0618L100.349 11.2285L100.759 12.1792Z" fill="#A5D5F3"/>
<path d="M116.856 188.504L106.93 148.648L116.856 188.504Z" fill="#F1B185"/>
<path d="M116.38 188.669L106.455 148.812L107.406 148.55L117.339 188.406L116.38 188.669Z" fill="#A5D5F3"/>
<path d="M144.197 98.9401L143.902 65.0093L144.197 98.9401Z" fill="#F1B185"/>
<path d="M144.393 64.999L143.401 65.0078L143.703 98.9373L144.695 98.9285L144.393 64.999Z" fill="#A5D5F3"/>
<path d="M106.832 60.576L139.05 60.3711L106.832 60.576Z" fill="#F1B185"/>
<path d="M139.049 59.8559L106.831 60.0415L106.837 61.0824L139.055 60.8968L139.049 59.8559Z" fill="#A5D5F3"/>
<path d="M39.3966 39.3398L13.6943 75.459L39.3966 39.3398Z" fill="#F1B185"/>
<path d="M14.0877 75.7706L13.3009 75.1478L38.9949 39.0122L39.7899 39.6351L14.0877 75.7706Z" fill="#A5D5F3"/>
<path d="M104.357 148.148L19.0708 81.9585L104.357 148.148Z" fill="#F1B185"/>
<path d="M104.062 148.566L18.7758 82.3931L19.3659 81.5571L104.652 147.73L104.062 148.566Z" fill="#A5D5F3"/>
<path d="M110.176 148.575L19.0217 158.352L18.9233 157.402L110.078 147.624L110.176 148.575Z" fill="#A5D5F3"/>
<path d="M113.233 190.144L17.694 157L113.233 190.144Z" fill="#F1B185"/>
<path d="M113.077 190.669L17.5382 157.5L17.8497 156.508L113.389 189.677L113.077 190.669Z" fill="#A5D5F3"/>
<path d="M99.2673 56.4697L19.8085 160.131L99.2673 56.4697Z" fill="#F1B185"/>
<path d="M20.1936 160.459L19.4232 159.803L98.8821 56.1416L99.6525 56.7973L20.1936 160.459Z" fill="#A5D5F3"/>
<path d="M19.1363 161.802L13.6779 79.2783L19.1363 161.802Z" fill="#F1B185"/>
<path d="M18.6446 161.835L13.1862 79.3194L14.1697 79.2456L19.6281 161.77L18.6446 161.835Z" fill="#A5D5F3"/>
<path d="M108.283 149.451L100.431 67.1484L108.283 149.451Z" fill="#F1B185"/>
<path d="M107.791 149.509L99.9393 67.1979L100.931 67.0913L108.774 149.402L107.791 149.509Z" fill="#A5D5F3"/>
<path d="M117.831 187.685L144.058 109.71L117.831 187.685Z" fill="#F1B185"/>
<path d="M118.298 187.841L117.364 187.497L143.582 109.513L144.517 109.866L118.298 187.841Z" fill="#A5D5F3"/>
<path d="M91.0304 64.6733L13.5549 78.3522L91.0304 64.6733Z" fill="#F1B185"/>
<path d="M13.6369 78.8688L13.473 77.8443L90.9403 64.1572L91.1042 65.1817L13.6369 78.8688Z" fill="#A5D5F3"/>
<path d="M113.807 62.7968C113.807 72.0008 106.717 79.4672 97.9805 79.4672C89.2437 79.4672 82.1461 72.0008 82.1461 62.7968C82.1461 53.5929 89.2355 46.1265 97.9805 46.1265C106.726 46.1265 113.807 53.5847 113.807 62.7968Z" fill="#335AA9"/>
<path d="M101.644 59.0105C101.606 59.7729 101.344 60.5072 100.893 61.1226C100.441 61.7379 99.8184 62.2072 99.1026 62.4723C98.3867 62.7373 97.6089 62.7866 96.8653 62.6139C96.1217 62.4413 95.4452 62.0542 94.9194 61.5008C94.3936 60.9474 94.0418 60.2519 93.9075 59.5004C93.7731 58.749 93.8622 57.9746 94.1636 57.2733C94.465 56.572 94.9656 55.9745 95.6032 55.5549C96.2409 55.1353 96.9877 54.912 97.751 54.9126C98.8097 54.9426 99.8135 55.3905 100.543 56.1584C101.272 56.9263 101.668 57.9517 101.644 59.0105Z" fill="white"/>
<path d="M100.497 69.706H106.029C106.029 65.9113 102.423 62.8379 97.9805 62.8379C93.5383 62.8379 89.924 65.9113 89.924 69.706H100.497Z" fill="white"/>
<path d="M52.2886 42.3644C52.2886 48.9949 47.1826 54.3714 40.8882 54.3714C34.5937 54.3714 29.5205 48.9949 29.5205 42.3644C29.5205 35.734 34.5937 30.3247 40.8882 30.3247C47.1826 30.3247 52.2886 35.734 52.2886 42.3644Z" fill="#81D0D4"/>
<path d="M43.5436 39.66C43.5163 40.2096 43.3283 40.7391 43.003 41.1828C42.6776 41.6266 42.2292 41.9651 41.7132 42.1565C41.1973 42.3478 40.6366 42.3835 40.1005 42.2591C39.5645 42.1347 39.0768 41.8558 38.6978 41.4568C38.3188 41.0579 38.0652 40.5565 37.9685 40.0148C37.8717 39.4731 37.9361 38.9149 38.1536 38.4095C38.3711 37.904 38.7322 37.4735 39.192 37.1713C39.6519 36.8691 40.1903 36.7085 40.7406 36.7095C41.1184 36.719 41.4907 36.803 41.836 36.9564C42.1814 37.1099 42.4931 37.3299 42.7535 37.6039C43.0138 37.878 43.2175 38.2006 43.3531 38.5533C43.4887 38.9061 43.5534 39.2822 43.5436 39.66Z" fill="white"/>
<path d="M42.7076 47.3477H46.7318C46.7318 44.6103 44.1337 42.4302 40.9291 42.4302C37.7246 42.4302 35.1265 44.6431 35.1265 47.3477H42.7076Z" fill="white"/>
<path d="M155.811 103.325C155.811 109.956 150.704 115.332 144.41 115.332C138.116 115.332 133.01 109.956 133.01 103.325C133.01 96.6948 138.116 91.3184 144.41 91.3184C150.704 91.3184 155.811 96.7112 155.811 103.325Z" fill="#81D0D4"/>
<path d="M147.066 100.613C147.038 101.162 146.85 101.692 146.525 102.135C146.2 102.579 145.751 102.918 145.235 103.109C144.719 103.3 144.159 103.336 143.622 103.212C143.086 103.087 142.599 102.808 142.22 102.409C141.841 102.011 141.587 101.509 141.49 100.967C141.394 100.426 141.458 99.8676 141.676 99.3621C141.893 98.8567 142.254 98.4262 142.714 98.124C143.174 97.8218 143.712 97.6612 144.263 97.6621C145.025 97.6836 145.748 98.006 146.273 98.5589C146.798 99.1118 147.083 99.8502 147.066 100.613Z" fill="white"/>
<path d="M146.23 108.3H150.213C150.213 105.571 147.615 103.383 144.41 103.383C141.205 103.383 138.616 105.604 138.616 108.3H146.23Z" fill="white"/>
<path d="M107.57 18.9488C112.535 18.9488 116.561 14.707 116.561 9.47441C116.561 4.24184 112.535 0 107.57 0C102.604 0 98.5789 4.24184 98.5789 9.47441C98.5789 14.707 102.604 18.9488 107.57 18.9488Z" fill="#43C4D9"/>
<path d="M109.66 7.37646C109.66 7.96335 109.426 8.5262 109.012 8.9412C108.597 9.3562 108.034 9.58934 107.447 9.58934C106.86 9.58934 106.297 9.3562 105.882 8.9412C105.467 8.5262 105.234 7.96335 105.234 7.37646C105.234 6.78956 105.467 6.22671 105.882 5.81171C106.297 5.39672 106.86 5.16357 107.447 5.16357C108.034 5.16357 108.597 5.39672 109.012 5.81171C109.426 6.22671 109.66 6.78956 109.66 7.37646Z" fill="white"/>
<path d="M109.02 13.4001H112.159C112.159 11.2446 110.11 9.49072 107.586 9.49072C105.062 9.49072 103.013 11.2446 103.013 13.4001H109.02Z" fill="white"/>
<path d="M115.577 148.705C115.503 150.156 115.005 151.553 114.145 152.723C113.285 153.893 112.1 154.784 110.737 155.287C109.375 155.79 107.895 155.881 106.48 155.551C105.066 155.22 103.78 154.482 102.782 153.427C101.784 152.372 101.117 151.047 100.865 149.617C100.613 148.187 100.786 146.714 101.363 145.381C101.94 144.049 102.895 142.915 104.111 142.12C105.326 141.325 106.749 140.905 108.201 140.911C110.21 140.973 112.114 141.828 113.496 143.288C114.877 144.748 115.626 146.696 115.577 148.705Z" fill="#81D0D4"/>
<path d="M109.84 146.952C109.821 147.307 109.698 147.648 109.487 147.934C109.275 148.22 108.985 148.438 108.651 148.561C108.318 148.684 107.955 148.706 107.609 148.625C107.263 148.544 106.948 148.363 106.703 148.105C106.459 147.847 106.295 147.524 106.232 147.173C106.17 146.823 106.211 146.463 106.351 146.136C106.491 145.809 106.724 145.531 107.021 145.335C107.317 145.139 107.665 145.034 108.021 145.034C108.266 145.04 108.508 145.095 108.732 145.195C108.956 145.294 109.159 145.437 109.328 145.616C109.497 145.794 109.629 146.003 109.717 146.233C109.805 146.462 109.847 146.706 109.84 146.952Z" fill="white"/>
<path d="M109.307 151.943H111.897C111.897 150.164 110.209 148.73 108.127 148.73C106.045 148.73 104.357 150.164 104.357 151.943H109.307Z" fill="white"/>
<path d="M122.953 188.382C122.87 189.819 122.368 191.201 121.508 192.357C120.649 193.513 119.47 194.392 118.117 194.885C116.764 195.379 115.296 195.465 113.894 195.134C112.493 194.803 111.219 194.069 110.229 193.023C109.24 191.976 108.578 190.663 108.327 189.245C108.075 187.827 108.244 186.366 108.812 185.043C109.381 183.72 110.325 182.592 111.527 181.799C112.729 181.005 114.137 180.582 115.577 180.579C117.589 180.639 119.495 181.494 120.877 182.956C122.26 184.419 123.006 186.37 122.953 188.382Z" fill="#43C4D9"/>
<path d="M117.257 186.619C117.24 186.977 117.117 187.321 116.906 187.61C116.694 187.899 116.402 188.119 116.067 188.243C115.731 188.367 115.367 188.391 115.018 188.31C114.669 188.229 114.352 188.047 114.106 187.787C113.86 187.528 113.695 187.201 113.632 186.849C113.57 186.497 113.612 186.134 113.754 185.805C113.896 185.476 114.131 185.197 114.43 185.001C114.73 184.804 115.08 184.701 115.438 184.702C115.933 184.717 116.402 184.927 116.742 185.286C117.083 185.645 117.268 186.124 117.257 186.619Z" fill="white"/>
<path d="M116.716 191.611H119.298C119.298 189.832 117.61 188.398 115.536 188.398C113.463 188.398 111.766 189.832 111.766 191.611H116.716Z" fill="white"/>
<path d="M24.1687 157.623C24.2061 159.17 23.6283 160.669 22.5619 161.791C21.4956 162.912 20.0278 163.565 18.4807 163.606C16.9592 163.508 15.5318 162.835 14.4888 161.723C13.4457 160.611 12.8652 159.144 12.8652 157.619C12.8652 156.094 13.4457 154.627 14.4888 153.515C15.5318 152.403 16.9592 151.729 18.4807 151.632C20.0293 151.673 21.4983 152.327 22.5649 153.45C23.6314 154.573 24.2083 156.074 24.1687 157.623Z" fill="#81D0D4"/>
<path d="M19.8085 156.271C19.7941 156.544 19.6998 156.808 19.5373 157.028C19.3748 157.249 19.1512 157.417 18.8942 157.512C18.6372 157.607 18.358 157.624 18.0912 157.562C17.8243 157.5 17.5816 157.361 17.3929 157.162C17.2042 156.964 17.0778 156.714 17.0295 156.444C16.9811 156.175 17.0128 155.897 17.1207 155.645C17.2286 155.393 17.408 155.178 17.6366 155.027C17.8652 154.876 18.133 154.796 18.407 154.795C18.7882 154.806 19.1496 154.967 19.4122 155.244C19.6748 155.52 19.8173 155.889 19.8085 156.271Z" fill="white"/>
<path d="M19.3905 160.106H21.3739C21.3113 159.399 20.9727 158.744 20.4313 158.284C19.89 157.824 19.1893 157.595 18.4808 157.647C17.7723 157.595 17.0716 157.824 16.5303 158.284C15.9889 158.744 15.6503 159.399 15.5876 160.106H19.3905Z" fill="white"/>
<path d="M26.5454 75.5169C26.5454 81.3032 22.0951 85.9912 16.5956 85.9912C11.0962 85.9912 6.65405 81.3032 6.65405 75.5169C6.65405 69.7306 11.1044 65.0508 16.5956 65.0508C22.0869 65.0508 26.5454 69.7388 26.5454 75.5169Z" fill="#335AA9"/>
<path d="M18.9151 73.1565C18.8926 73.6373 18.7296 74.1009 18.4461 74.4899C18.1626 74.8788 17.7712 75.176 17.3205 75.3447C16.8697 75.5133 16.3793 75.5459 15.9102 75.4385C15.441 75.331 15.0137 75.0883 14.6812 74.7403C14.3487 74.3923 14.1257 73.9544 14.0398 73.4808C13.9538 73.0072 14.0088 72.5189 14.1978 72.0762C14.3868 71.6336 14.7015 71.2562 15.103 70.9907C15.5045 70.7253 15.975 70.5835 16.4563 70.583C16.7868 70.5905 17.1125 70.6629 17.4149 70.7963C17.7174 70.9297 17.9906 71.1214 18.2189 71.3603C18.4472 71.5993 18.6262 71.881 18.7457 72.1892C18.8651 72.4973 18.9227 72.8261 18.9151 73.1565Z" fill="white"/>
<path d="M18.1857 79.8607H21.6607C21.6607 77.4757 19.3905 75.5415 16.5957 75.5415C13.8009 75.5415 11.5388 77.4757 11.5388 79.8607H18.1857Z" fill="white"/>
<path d="M148.664 60.3462C148.606 61.5107 148.208 62.6327 147.519 63.5731C146.83 64.5136 145.88 65.2312 144.787 65.637C143.694 66.0428 142.505 66.119 141.37 65.8562C140.234 65.5934 139.2 65.0031 138.396 64.1584C137.592 63.3138 137.054 62.2519 136.848 61.1043C136.642 59.9567 136.777 58.7739 137.237 57.7024C137.696 56.6309 138.46 55.7177 139.434 55.0761C140.407 54.4345 141.548 54.0926 142.714 54.0928C144.331 54.1357 145.865 54.818 146.981 55.9901C148.096 57.1623 148.701 58.7287 148.664 60.3462Z" fill="#335AA9"/>
<path d="M144.099 58.9283C144.081 59.2136 143.98 59.4876 143.809 59.7165C143.638 59.9455 143.404 60.1194 143.135 60.217C142.867 60.3146 142.575 60.3316 142.297 60.2659C142.019 60.2001 141.766 60.0546 141.569 59.8471C141.373 59.6396 141.241 59.3791 141.19 59.0978C141.14 58.8165 141.172 58.5265 141.284 58.2635C141.396 58.0005 141.583 57.7759 141.821 57.6174C142.058 57.4588 142.337 57.3732 142.623 57.3711C142.823 57.3753 143.019 57.4191 143.202 57.4999C143.384 57.5806 143.549 57.6968 143.686 57.8416C143.823 57.9865 143.93 58.1571 144.001 58.3436C144.072 58.5302 144.105 58.7289 144.099 58.9283Z" fill="white"/>
<path d="M143.664 62.9442H145.746C145.633 62.2222 145.266 61.5643 144.71 61.0892C144.155 60.6141 143.448 60.353 142.718 60.353C141.987 60.353 141.28 60.6141 140.725 61.0892C140.169 61.5643 139.802 62.2222 139.689 62.9442H143.664Z" fill="white"/>
<path d="M32.9627 145.829C32.2333 149.271 27.3977 156.205 26.9306 164.589C26.2585 176.621 27.6764 201.233 27.6436 204.831C27.6108 208.429 26.1848 219.944 25.9553 226.903C25.7258 233.861 26.2421 251.777 26.2421 251.777H30.3401C30.3401 251.777 33.3316 235.738 34.7248 227.829C35.8862 220.337 36.5052 212.772 36.5771 205.192C36.5771 201.233 44.0599 160.631 44.0599 160.631L34.0938 145.829H32.9627Z" fill="#2A4C90"/>
<path d="M60.6074 204.675C60.6074 201.061 62.0499 176.367 61.3532 164.294C60.9793 157.955 60.1217 151.653 58.7879 145.444H56.2308L43.5272 160.295C43.5272 160.295 51.3133 201.028 51.3133 205.003C51.388 212.611 52.0291 220.202 53.2311 227.714C54.6818 235.647 57.7962 251.744 57.7962 251.744H62.0499C62.0499 251.744 62.599 233.779 62.3613 226.788C62.1236 219.797 60.6648 208.281 60.6074 204.675Z" fill="#2A4C90"/>
<path d="M32.1842 243.008L30.586 253.211H25.7832V242.45L32.1842 243.008Z" fill="#FCC3A0"/>
<path d="M31.3564 252.482C31.3564 252.482 32.176 256.735 32.3071 257.768C32.4382 258.801 31.4875 258.94 29.7172 258.94H24.144C23.9474 258.923 23.7573 258.861 23.5885 258.759C23.4197 258.656 23.2767 258.517 23.1705 258.35C23.0644 258.184 22.9979 257.995 22.9763 257.799C22.9546 257.603 22.9784 257.405 23.0458 257.219C23.691 255.579 24.4695 253.995 25.3734 252.482C25.6275 251.957 31.258 251.99 31.3564 252.482Z" fill="#322875"/>
<path d="M56.2062 243.008L57.7142 253.211H62.2383V242.45L56.2062 243.008Z" fill="#FCC3A0"/>
<path d="M56.9848 252.482C56.9848 252.482 56.1652 256.735 56.0833 257.768C56.0013 258.801 56.9029 258.94 58.542 258.94H63.7956C63.9886 258.919 64.174 258.853 64.3375 258.748C64.5009 258.643 64.6379 258.502 64.7379 258.335C64.8378 258.169 64.8979 257.981 64.9136 257.788C64.9293 257.594 64.9001 257.399 64.8282 257.219C64.2201 255.587 63.4885 254.003 62.64 252.482C62.3859 251.957 57.0832 251.99 56.9848 252.482Z" fill="#322875"/>
<path d="M59.0257 145.796L33.5283 145.141C31.5941 153.623 27.1028 165.024 27.1028 165.024L42.7323 167.368C42.7199 165.817 42.8626 164.268 43.1585 162.745C43.6338 160.508 44.1748 160.287 44.6501 160.975C45.1255 161.663 45.5517 167.368 45.5517 167.368L61.3943 165.311C61.3943 165.311 61.2303 160.623 60.4599 153.705C60.1703 151.038 59.691 148.395 59.0257 145.796Z" fill="#2A4C90"/>
<path d="M4.93295 104.342C2.47419 99.9159 5.11326 101.612 8.70305 103.465C12.2928 105.317 39.6998 122.315 32.2416 125.692C25.0538 128.962 7.32614 108.776 4.93295 104.342Z" fill="#FCC9A1"/>
<path d="M53.6573 79.7129H44.0681V91.7034H53.6573V79.7129Z" fill="#FAB085"/>
<path d="M29.0944 111.095L27.4552 116.275C27.4552 116.275 29.7091 125.634 32.2416 125.692C35.774 125.765 39.413 112.857 39.413 112.857L29.0944 111.095Z" fill="#F6E4E7"/>
<path d="M60.5582 72.0496C60.1812 77.9261 57.4684 82.7043 53.6573 82.7043C49.8462 82.7043 46.7318 77.9343 46.7318 72.0496C46.7318 66.165 49.8135 61.395 53.6245 61.395C57.4356 61.395 61.1975 62.149 60.5582 72.0496Z" fill="#FCC9A1"/>
<path d="M35.4953 94.3505L42.8715 89.056C42.8715 89.056 50.1085 87.6463 53.6409 88.3512C57.1733 89.056 67.5738 93.3342 75.8107 93.3342C73.8601 101.596 75.3353 104.358 75.3353 104.358H72.2783C66.492 104.358 61.6237 104.358 60.5582 104.358C64.5988 108.587 61.722 115.701 57.5585 120.086C57.5585 131.412 60.6647 147.525 60.6647 147.525H29.4221C30.106 143.627 31.2051 139.814 32.7005 136.149C35.3149 129.453 36.4706 127.068 35.0773 120.069C33.4463 111.627 35.4953 94.3505 35.4953 94.3505Z" fill="#F6E4E7"/>
<path d="M82.7936 75.1726L83.0968 62.1494C83.0968 62.1494 84.3344 63.6984 84.736 62.8788C85.072 62.1904 86.5391 61.9937 86.1867 63.4689C86.0146 64.2066 87.6373 61.9937 87.7111 63.9279C87.7111 64.6573 89.0552 63.6165 89.0224 64.7475C88.8947 65.8792 88.7087 67.0035 88.4651 68.116C87.9734 70.8534 86.0801 71.9353 86.0064 74.517C85.9326 77.0987 82.7936 75.1726 82.7936 75.1726Z" fill="#FCC9A1"/>
<path d="M83.2526 63.1983L83.0559 62.1492C83.0559 62.1492 84.2853 60.3052 84.8262 59.6905C85.3671 59.0758 86.5637 58.2152 87.2112 57.4858C87.8587 56.7564 87.8423 57.7808 87.7112 58.0923C87.0802 59.156 86.3113 60.1316 85.4245 60.9936C85.0863 61.3582 84.8506 61.8057 84.7412 62.2908C84.6318 62.7758 84.6527 63.2812 84.8016 63.7556C85.1704 65.1817 83.2526 63.1983 83.2526 63.1983Z" fill="#FCC9A1"/>
<path d="M27.4387 72.0498C31.8235 67.4273 35.3231 69.296 37.3393 65.2554C38.2408 63.4441 41.3225 53.1665 47.7235 53.1665C54.1244 53.1665 63.3694 56.0924 61.4843 61.3788C59.5993 66.6651 51.9443 68.6075 51.9443 72.0334C51.9443 73.607 51.5263 87.5399 46.7318 91.7034C40.8881 96.8095 57.6486 102.604 46.7318 114.103C41.5848 119.52 36.5033 111.824 27.4059 118.955C24.6931 121.077 15.4318 115.209 19.3904 111.037C22.2589 108.021 16.3661 104.768 14.8826 101.481C12.7763 96.8422 16.0547 85.6795 22.013 85.532C26.9306 85.4664 24.7505 74.8691 27.4387 72.0498Z" fill="#F05553"/>
<path d="M74.1798 97.9567C74.1798 97.9567 81.261 78.2293 82.7937 73.0167C84.2443 68.0992 86.4818 69.5991 86.154 73.2216C85.6294 79.0161 87.1047 97.9403 79.5317 102.948C71.9587 107.956 74.1798 97.9567 74.1798 97.9567Z" fill="#FCC9A1"/>
<path d="M8.77678 103.268C8.77678 103.268 9.54719 99.2272 9.54719 98.301C9.54719 97.3749 8.21947 96.2111 7.5638 95.5063C6.90813 94.8014 6.21968 95.2604 6.5721 96.711C6.92452 98.1617 8.77678 103.268 8.77678 103.268Z" fill="#FCC9A1"/>
<path d="M5.49026 104.022C5.45053 104.183 5.37853 104.335 5.27863 104.467C5.17872 104.6 5.05298 104.711 4.90899 104.794C4.76499 104.877 4.60573 104.929 4.44082 104.949C4.2759 104.968 4.10875 104.954 3.94944 104.907L0.72847 103.629C0.424505 103.473 0.19146 103.208 0.0771553 102.886C-0.0371493 102.565 -0.0240446 102.211 0.11378 101.899L4.48217 89.6055C4.52376 89.4447 4.59729 89.2939 4.69839 89.1621C4.79949 89.0303 4.92608 88.9202 5.07063 88.8383C5.21517 88.7565 5.37471 88.7046 5.53974 88.6857C5.70477 88.6669 5.8719 88.6814 6.03119 88.7285L9.25216 89.9989C9.56679 90.1604 9.80562 90.4387 9.91746 90.7743C10.0293 91.1098 10.0052 91.4758 9.85046 91.7938L5.49026 104.022Z" fill="#322875"/>
<path d="M9.26042 103.776C9.26042 103.776 8.113 98.7764 6.90001 97.4979C5.68702 96.2193 3.14631 93.195 2.3759 92.3837C1.60549 91.5723 0.605591 90.9904 0.605591 92.3837C0.605591 93.777 1.93332 95.0719 1.49074 96.916C1.04817 98.76 0.720333 99.1862 1.71203 101.538C2.70373 103.891 4.79367 106.194 6.62955 106.841C9.32598 105.054 9.26042 103.776 9.26042 103.776Z" fill="#FCC9A1"/>
</svg>
