<svg width="137" height="183" viewBox="0 0 137 183" fill="none" xmlns="http://www.w3.org/2000/svg">
<path d="M32.5575 28.4036C32.8845 31.8993 36.7773 35.0525 41.184 35.761C45.9955 36.5396 51.9827 31.7436 52.2863 28.2634C52.4342 26.5584 51.0795 24.8611 50.8459 22.4008C50.5657 19.5124 51.4299 18.3212 51.9827 16.1022C52.7768 12.9179 31.8178 20.5011 32.5575 28.4036Z" fill="#4C266E"/>
<path d="M85.4687 41.468C88.9411 39.7007 93.6748 43.5156 93.9161 44.3175C94.3132 45.8747 92.5147 47.1204 89.8832 44.8703C91.4403 46.8012 91.7829 48.2259 87.9757 47.0892C89.5328 52.6015 85.7412 48.0002 85.6867 48.4362C85.4453 50.3359 84.5656 50.5461 84.1296 50.3359C82.9462 49.7597 82.5724 45.1117 83.7014 42.9706C84.1093 42.2891 84.7304 41.761 85.4687 41.468Z" fill="#322875"/>
<path d="M37.0809 29.3693C35.5237 28.6296 32.3238 28.8009 30.5098 29.6496C31.444 32.8339 33.9121 36.6566 35.8274 37.7778C35.7729 35.0294 35.9753 31.5259 37.0809 29.3693Z" fill="#F1B185"/>
<path d="M30.502 29.6494C29.6689 30.0309 29.1239 30.5525 29.155 31.2065C29.3107 34.8892 27.0373 40.6895 26.8193 41.1021C27.4733 44.3799 36.4658 45.3531 36.0531 41.3123C35.9908 40.7284 35.8818 39.397 35.8585 37.7932C33.9043 36.6721 31.4362 32.8337 30.502 29.6494Z" fill="#FCCAA7"/>
<path d="M77.5663 35.1227C77.138 34.0405 77.7142 31.4011 77.286 30.7783C75.3006 27.8431 73.8291 25.3283 72.0151 22.9926C70.0064 20.4312 71.5246 4.98442 73.6656 4.03457C77.0913 2.6643 76.4218 11.3531 76.5152 11.8202C80.5793 14.2961 77.94 15.7753 78.6718 16.7252C80.9452 17.784 79.1857 19.5981 79.8864 21.1085C80.735 20.5791 80.9997 23.6933 80.7895 24.9079C81.934 26.1536 82.806 27.9365 81.4747 28.4971C82.3155 29.2289 82.6425 33.1685 81.8406 33.5578C80.7272 34.1573 78.2903 36.9835 77.5663 35.1227Z" fill="#322875"/>
<path d="M28.0417 79.7266C28.4154 91.9111 30.5798 117.028 27.52 132.809C23.2379 154.889 15.172 167.113 14.6971 173.917C12.731 174.547 10.6096 174.492 8.67876 173.762C8.35955 163.15 11.6295 151.23 13.2723 144.316C13.9808 141.303 17.897 135.519 19.0726 131.649C19.7811 129.313 19.5865 124.307 20.8711 111.064C21.4394 105.209 24.398 76.48 28.0417 79.7266Z" fill="#43C4D9"/>
<path d="M34.4649 18.1112C32.3082 24.1685 31.9579 30.7318 35.7807 32.1254C39.6034 33.519 46.1589 29.1435 48.3233 23.0862C50.4877 17.029 48.7905 11.9683 44.9677 10.6292C41.145 9.29007 36.6293 12.0618 34.4649 18.1112Z" fill="#FCCAA7"/>
<path d="M51.9515 16.227C51.5856 18.041 50.2386 20.2444 48.627 20.3456C45.7619 20.5246 42.6554 13.8368 42.5308 14.9657C42.2973 15.8377 42.2194 26.1848 37.0809 30.1633C27.9794 37.1704 22.1869 35.6132 20.6142 35.5432C6.39762 34.5855 0.418236 28.4738 0.0600955 23.6389C-0.142331 20.9529 -0.952039 11.8203 20.3028 10.232C27.7459 9.67922 29.7312 -3.48631 45.3882 0.889223C50.48 2.32957 52.8702 11.7113 51.9515 16.227Z" fill="#4C266E"/>
<path d="M26.8194 78.1619C30.9302 75.7016 38.5446 76.4802 42.1883 79.719C42.5542 91.9036 38.3889 115.066 35.3291 130.847C31.047 152.927 29.3108 167.105 28.8359 173.91C28.1507 174.291 25.309 174.688 22.8176 173.754C22.5061 163.142 19.6021 146.948 21.2604 140.027C21.9767 137.021 22.2959 135.908 23.4793 132.039C24.1801 129.703 24.1567 124.012 23.1601 106.782C22.7942 100.398 21.712 94.831 22.1558 90.2608C22.4516 87.0687 26.0408 82.2493 26.8194 78.1619Z" fill="#43C4D9"/>
<path d="M68.605 83.8066C69.5428 83.5249 70.5268 83.4297 71.5013 83.5263C73.471 83.7677 75.8612 84.4684 75.6199 85.0835C75.5186 85.3715 74.6077 85.4182 74.2418 85.4027C73.2919 85.4027 71.6414 84.8577 71.6881 85.4027C67.4449 85.2314 68.5894 84.0791 68.605 83.8066Z" fill="#FCCAA7"/>
<path d="M68.3247 84.6864C68.2181 85.242 68.1453 85.8036 68.1067 86.3681C69.0098 87.2634 70.7927 89.3733 72.2564 90.074C73.4321 90.6424 78.773 90.2998 77.9555 89.5057C75.9468 87.5515 72.2175 86.7574 71.5947 85.2314C71.2209 84.3438 69.3524 83.9389 68.3247 84.6864Z" fill="#FCCAA7"/>
<path d="M76.7877 48.6853C77.3483 48.1559 80.9063 51.021 83.4678 49.0045C83.6702 48.841 86.2317 46.8946 86.3563 45.9681C86.6444 43.7025 85.422 46.6688 81.825 46.6143C78.5006 46.5598 77.4962 44.0918 75.0437 45.3608C73.8681 45.9837 75.9079 47.6109 76.7877 48.6853Z" fill="#FCCAA7"/>
<path d="M22.1947 182.824C22.2458 179.823 22.4563 176.826 22.8253 173.847C23.6039 173.949 28.3532 173.225 28.8436 173.847C28.7424 174.439 30.5721 177.826 30.8991 178.161C32.0358 179.352 35.7651 180.084 36.6994 180.784C37.0384 181.004 37.3134 181.308 37.4966 181.668C37.6798 182.027 37.7647 182.429 37.7427 182.832L22.1947 182.824Z" fill="#322875"/>
<path d="M8.05591 182.824C8.10696 179.823 8.31747 176.826 8.68654 173.847C9.46511 173.949 14.2066 173.225 14.6971 173.847C14.6036 174.439 16.4333 177.826 16.7525 178.161C17.8892 179.352 21.6185 180.084 22.5606 180.784C22.8987 181.004 23.1726 181.309 23.3545 181.669C23.5364 182.028 23.6197 182.43 23.5961 182.832L8.05591 182.824Z" fill="#322875"/>
<path opacity="0.4" d="M24.8263 72.1667C24.1411 71.8241 24.0477 74.043 24.5615 74.3856L24.9197 74.6269C25.0131 74.0897 25.1065 73.3112 25.1922 72.3458C25.0672 72.2924 24.9451 72.2326 24.8263 72.1667Z" fill="#F16047"/>
<path d="M74.9113 45.4697C73.6501 46.2483 60.8582 56.2762 60.1186 54.7269C59.9473 54.3609 52.294 52.033 45.9799 49.6584C47.5993 52.9284 49.9661 56.938 51.679 59.8265C54.9956 60.605 58.071 61.0955 59.2622 61.4303C64.7121 62.9874 75.0826 50.219 76.85 48.6696C76.7877 47.7743 75.8768 45.9291 74.9113 45.4697Z" fill="#FCCAA7"/>
<path d="M37.7037 45.1505C36.3568 43.8191 41.2462 51.1532 40.6311 54.4076C40.1718 56.8679 46.2368 58.643 51.6556 59.8576C49.9428 56.9691 47.5759 52.9595 45.9565 49.6895C41.3163 47.9144 37.4001 46.147 37.7037 45.1505Z" fill="#F1B185"/>
<path opacity="0.4" d="M29.1395 46.7701C30.6109 45.9915 33.5461 47.4085 36.6137 50.1958C32.9311 44.0918 28.0027 44.5823 27.9482 49.3082C28.065 48.0547 28.431 47.1438 29.1395 46.7701Z" fill="#FCCAA7"/>
<path d="M31.3195 64.3034C29.5288 59.9434 27.5979 53.0842 27.9483 49.3082C28.0468 51.4732 28.6779 53.5806 29.7857 55.4433C30.8212 57.3741 37.9684 67.1763 42.2428 72.4316C42.449 70.0406 42.7843 67.6625 43.2471 65.3077C43.7532 62.6762 45.9098 60.4806 45.3025 57.234C45.0222 55.7314 44.4383 54.9684 43.0836 52.804C38.1008 44.8159 36.676 43.1809 36.0765 41.1255C32.3238 42.2311 28.6023 42.0753 26.8194 41.1255C24.9197 43.975 23.5961 52.0799 25.9863 58.2539C27.0024 62.1858 27.6617 66.2013 27.9561 70.2516C27.9656 72.9372 27.596 75.6107 26.8583 78.193C28.8359 80.2328 38.8249 81.79 42.2272 79.8046C42.2272 79.5165 42.1493 78.7458 42.1182 77.4689C38.8249 75.1721 33.8031 70.3762 31.3195 64.3034Z" fill="#EFE6E8"/>
<path d="M42.2428 72.4002C37.9685 67.1449 30.8212 57.3428 29.7857 55.412C28.6779 53.5492 28.0468 51.4419 27.9483 49.2769C27.598 53.0529 29.5054 59.9121 31.3195 64.272C33.8031 70.3448 38.8249 75.1719 42.0793 77.422C42.042 75.7463 42.0966 74.0699 42.2428 72.4002Z" fill="#E0D5D9"/>
<path d="M119.741 178.418C120.084 179.243 120.434 180.948 120.13 181.696C119.827 182.443 118.394 182.178 118.355 182.708C119.095 182.859 119.861 182.835 120.59 182.638C121.057 181.921 120.644 178.27 119.99 178.262C119.939 178.266 119.89 178.283 119.847 178.31C119.803 178.337 119.767 178.374 119.741 178.418Z" fill="#EC8628"/>
<path d="M124.335 178.441C124.685 179.259 125.035 180.964 124.732 181.711C124.428 182.459 122.996 182.194 122.957 182.723C123.696 182.879 124.463 182.855 125.191 182.653C125.658 181.937 125.246 178.286 124.592 178.278C124.54 178.286 124.49 178.305 124.446 178.333C124.402 178.361 124.364 178.398 124.335 178.441Z" fill="#EC8628"/>
<path d="M128.539 173.342C130.688 171.053 133.6 169.714 133.779 170.017C134.417 171.061 131.373 173.793 131.443 173.965C131.965 174.829 135.834 171.629 136.426 173.061C136.87 174.144 132.619 175.646 132.533 175.833C132.175 176.822 137.204 175.724 136.838 177.39C136.582 178.636 132.774 177.803 132.292 177.663C131.35 177.398 136.184 179.578 135.351 180.364C134.752 180.948 127.566 178.955 127.418 175.903C127.394 174.961 127.239 174.728 128.539 173.342Z" fill="#322875"/>
<path d="M112.407 167.822C112.516 166.545 110.196 166.989 110.468 164.45C110.538 163.688 110.879 162.975 111.429 162.442C111.979 161.91 112.701 161.592 113.466 161.546C115.747 161.546 117.849 164.038 120.66 168.001C123.774 172.407 127.76 173.676 128.173 175.335C128.23 175.621 128.227 175.917 128.164 176.202C128.101 176.488 127.98 176.757 127.807 176.993C126.102 179.251 118.675 179.531 116.051 177.593C112.999 175.343 112.135 171.138 112.407 167.822Z" fill="#322875"/>
<path d="M111.13 163.073C110.912 162.909 109.254 162.559 109.168 162.792C109.036 163.166 110.25 164.349 110.679 164.466C111.107 164.583 111.449 163.291 111.13 163.073Z" fill="#EC8628"/>
<path d="M55.315 178.737C54.9958 179.515 54.6688 181.072 54.949 181.773C55.2293 182.474 56.5607 182.225 56.5996 182.715C55.9111 182.854 55.1998 182.833 54.5208 182.653C54.0848 181.983 54.4741 178.597 55.0814 178.581C55.1904 178.581 55.2683 178.682 55.315 178.737Z" fill="#EC8628"/>
<path d="M51.0407 178.752C50.7214 179.531 50.3945 181.088 50.6747 181.789C50.955 182.49 52.2864 182.24 52.3253 182.731C51.6371 182.874 50.9249 182.853 50.2465 182.669C49.8183 181.999 50.1998 178.612 50.8071 178.597C50.8551 178.604 50.901 178.621 50.9414 178.648C50.9818 178.675 51.0157 178.711 51.0407 178.752Z" fill="#EC8628"/>
<path d="M47.14 174.019C45.1391 171.893 42.4686 170.648 42.2662 170.904C41.6823 171.878 44.5084 174.416 44.4072 174.571C43.9245 175.35 40.3275 172.407 39.7826 173.731C39.3699 174.735 43.3172 176.129 43.3795 176.308C43.7143 177.219 39.0663 176.206 39.3855 177.732C39.6268 178.893 43.1537 178.122 43.6053 177.989C44.4851 177.74 40.0161 179.772 40.7635 180.496C41.3241 181.041 47.9731 179.196 48.1366 176.354C48.1833 175.521 48.3468 175.303 47.14 174.019Z" fill="#322875"/>
<path d="M57.9153 167.019C57.5416 165.89 59.1844 164.271 57.3392 162.535C56.3737 161.624 54.3806 161.157 53.5865 161.951C52.0916 163.454 53.2206 165.805 52.9558 169.075C52.5588 174.019 47.864 174.322 47.5059 175.864C47.4527 176.133 47.4557 176.41 47.5147 176.678C47.5736 176.946 47.6873 177.199 47.8485 177.421C49.4056 179.523 57.1912 179.803 59.1065 177.421C62.0884 173.614 58.9196 170.025 57.9153 167.019Z" fill="#322875"/>
<path d="M57.6039 162.714C57.8141 162.566 59.3557 162.239 59.4336 162.457C59.5581 162.807 58.4292 163.929 58.0321 164.014C57.6351 164.1 57.3236 162.94 57.6039 162.714Z" fill="#EC8628"/>
<path d="M87.2516 178.799C87.563 179.578 87.89 181.135 87.6097 181.805C87.3295 182.474 86.0137 182.248 85.9825 182.731C86.6606 182.87 87.3618 182.849 88.0302 182.669C88.4584 182.007 88.0769 178.659 87.4852 178.651C87.4377 178.657 87.392 178.673 87.3515 178.699C87.3111 178.724 87.277 178.759 87.2516 178.799Z" fill="#EC8628"/>
<path d="M83.0163 178.784C83.4282 179.728 83.5553 180.773 83.3822 181.789C83.0085 182.567 81.825 182.233 81.7472 182.715C82.4279 182.854 83.1315 182.833 83.8026 182.653C84.2308 181.991 83.8493 178.644 83.2498 178.636C83.2026 178.642 83.1573 178.659 83.1171 178.684C83.0768 178.71 83.0424 178.744 83.0163 178.784Z" fill="#EC8628"/>
<path d="M90.5293 170.009C91.7673 167.401 93.9395 165.416 94.1808 165.634C95.0294 166.365 93.1375 169.604 93.2777 169.729C93.9706 170.336 96.462 166.451 97.3729 167.541C98.0659 168.359 94.7725 170.866 94.7647 171.052C94.7647 172.01 98.7977 169.651 98.9612 171.185C99.0858 172.345 95.5277 172.687 95.0684 172.742C94.1652 172.742 98.9612 173.334 98.5019 174.237C98.1359 174.922 91.3235 175.194 90.3113 172.571C90.0233 171.738 89.7819 171.582 90.5293 170.009Z" fill="#4B0A70"/>
<path d="M75.2306 175.693C74.5454 174.735 72.1163 176.238 70.785 174.299C70.0531 173.217 70.419 170.998 71.5635 169.978C73.1206 168.6 75.1605 170.188 76.3439 170.445C81.2022 171.481 82.8917 165.478 90.8797 171.013C91.1539 171.277 91.366 171.598 91.5007 171.953C91.6353 172.309 91.6892 172.69 91.6583 173.069C91.8062 175.661 88.0769 179.5 85.0872 179.702C81.6537 179.944 76.9746 178.176 75.2306 175.693Z" fill="#4B0A70"/>
<path d="M71.4545 175.046C71.3144 175.256 71.0341 176.782 71.2521 176.852C71.5947 176.969 72.6769 175.825 72.7469 175.428C72.817 175.031 71.6569 174.75 71.4545 175.046Z" fill="#EC8628"/>
<path d="M36.6449 40.8221C35.3334 39.8541 33.7486 39.3273 32.1186 39.3175C30.4887 39.3077 28.8976 39.8154 27.5746 40.7676C25.4881 42.3247 25.6516 43.6093 24.9041 43.9441C25.2701 44.4969 25.5036 46.4511 25.636 49.1449C28.252 45.5635 28.1663 43.1889 31.9579 42.9164C36.6293 42.5583 36.9252 50.1026 37.1276 51.177C39.1752 61.8589 34.3637 73.117 30.0037 73.3194C28.3445 73.5093 26.6671 73.1831 25.2 72.3851C25.075 72.3317 24.9529 72.272 24.8341 72.206C24.1489 71.8635 24.0555 74.0824 24.5694 74.4249L24.9275 74.6663C25.9 75.2344 26.9789 75.5967 28.0972 75.7306C29.2155 75.8646 30.3494 75.7673 31.4285 75.4449C39.8993 72.9924 39.8759 58.6746 39.9927 56.4167C40.2964 52.4772 40.5533 43.8273 36.6449 40.8221Z" fill="#335AA9"/>
<path d="M24.8263 72.1666C24.9451 72.2326 25.0673 72.2924 25.1922 72.3457C25.7472 64.6199 25.8928 56.8701 25.6282 49.1289C25.1394 49.8071 24.6063 50.4521 24.0322 51.0597C22.6642 52.5845 21.0076 53.823 19.1581 54.7037C17.3086 55.5843 15.3028 56.0897 13.2568 56.1905C9.78444 64.9883 9.05259 72.7817 11.5829 76.3943C14.2845 80.2871 21.533 80.6686 24.7173 75.3666C24.8269 75.1198 24.8953 74.8568 24.9197 74.588L24.5616 74.3466C24.0867 74.043 24.1412 71.8241 24.8263 72.1666Z" fill="#335AA9"/>
<path d="M80.9842 34.1106C81.1165 32.9505 82.8761 30.9029 82.806 30.1477C82.4479 26.6286 82.3544 23.709 81.8562 20.8049C81.2956 17.5972 86.73 4.31491 89.0579 4.49398C92.4369 4.99226 90.615 10.5901 90.4827 11.0651C93.7293 18.0722 90.9654 16.3749 90.6384 20.4079C91.9464 24.6432 89.1591 25.235 89.0813 26.8933C88.9255 29.3925 89.3538 32.1175 87.0181 32.3433C87.4385 33.986 86.7534 35.4965 85.3208 35.3485C84.5422 35.2707 84.8225 36.9602 83.9349 36.9057C82.6814 36.9212 80.7428 36.0959 80.9842 34.1106Z" fill="#322875"/>
<path d="M76.8656 37.4039C73.5956 36.4074 73.8992 33.2075 74.5299 32.6858C77.4884 30.0698 79.1312 33.2152 80.1745 33.6045C82.4833 34.38 84.6047 35.629 86.403 37.2716C87.8044 38.5328 87.5942 42.1532 85.9826 44.0062C84.1452 46.1083 80.0266 46.0849 78.2748 44.3721C76.7332 42.9006 76.7332 39.1479 76.8656 37.4039Z" fill="#322875"/>
<path d="M74.1639 34.4218C74.5766 34.1026 75.2929 35.5196 75.1138 36.0334C74.8958 36.6796 72.9961 36.6719 72.5912 36.6407C72.3655 36.6251 73.58 34.8734 74.1639 34.4218Z" fill="#EC8628"/>
<path d="M78.3915 139.084C78.3915 139.863 78.228 140.509 78.0256 140.509C77.8231 140.509 77.6519 139.879 77.6519 139.084C77.6519 138.29 77.8154 137.66 78.0256 137.66C78.2358 137.66 78.3915 138.298 78.3915 139.084Z" fill="#F05553"/>
<path d="M88.2092 132.435C88.2092 133.167 88.0224 133.759 87.7888 133.759C87.5552 133.759 87.3606 133.167 87.3606 132.435C87.3606 131.704 87.5552 131.12 87.7888 131.12C88.0224 131.12 88.2092 131.711 88.2092 132.435Z" fill="#F05553"/>
<path d="M80.4469 96.6605C80.4469 97.3845 80.2601 97.9762 80.0265 97.9762C79.7929 97.9762 79.6061 97.3845 79.6061 96.6605C79.6061 95.9364 79.7929 95.3369 80.0265 95.3369C80.2601 95.3369 80.4469 95.9286 80.4469 96.6605Z" fill="#F05553"/>
<path d="M96.5477 127.001C96.5477 127.702 96.3609 128.27 96.1273 128.27C95.8937 128.27 95.6991 127.702 95.6991 127.001C95.6991 126.3 95.8937 125.74 96.1273 125.74C96.3609 125.74 96.5477 126.3 96.5477 127.001Z" fill="#F05553"/>
<path d="M83.6468 155.154C83.8489 155.154 84.0127 154.516 84.0127 153.729C84.0127 152.943 83.8489 152.305 83.6468 152.305C83.4447 152.305 83.2809 152.943 83.2809 153.729C83.2809 154.516 83.4447 155.154 83.6468 155.154Z" fill="#F05553"/>
<path d="M93.8304 147.08C93.8304 147.812 93.6436 148.404 93.41 148.404C93.1765 148.404 92.9818 147.812 92.9818 147.08C92.9818 146.349 93.1765 145.765 93.41 145.765C93.6436 145.765 93.8304 146.364 93.8304 147.08Z" fill="#F05553"/>
<path d="M102.169 141.646C102.169 142.347 101.982 142.915 101.749 142.915C101.515 142.915 101.32 142.347 101.32 141.646C101.32 140.945 101.515 140.385 101.749 140.385C101.982 140.385 102.169 140.914 102.169 141.646Z" fill="#F05553"/>
<path d="M51.1339 153.496C51.1339 154.275 50.9704 154.921 50.768 154.921C50.5656 154.921 50.3943 154.282 50.3943 153.496C50.3943 152.71 50.5578 152.071 50.768 152.071C50.9782 152.071 51.1339 152.71 51.1339 153.496Z" fill="#F05553"/>
<path d="M60.9517 146.847C60.9517 147.571 60.7648 148.163 60.5312 148.163C60.2977 148.163 60.103 147.571 60.103 146.847C60.103 146.123 60.2977 145.523 60.5312 145.523C60.7648 145.523 60.9517 146.115 60.9517 146.847Z" fill="#F05553"/>
<path d="M69.2902 141.413C69.2902 142.113 69.1033 142.674 68.8697 142.674C68.6362 142.674 68.4415 142.113 68.4415 141.413C68.4415 140.712 68.6362 140.144 68.8697 140.144C69.1033 140.144 69.2902 140.712 69.2902 141.413Z" fill="#F05553"/>
<path d="M61.2164 133.627C61.2164 134.405 61.0529 135.052 60.8505 135.052C60.6481 135.052 60.4768 134.413 60.4768 133.627C60.4768 132.841 60.6481 132.202 60.8505 132.202C61.0529 132.202 61.2164 132.841 61.2164 133.627Z" fill="#F05553"/>
<path d="M71.003 126.978C71.003 127.702 70.8161 128.294 70.5825 128.294C70.349 128.294 70.1621 127.702 70.1621 126.978C70.1621 126.254 70.349 125.654 70.5825 125.654C70.8161 125.654 71.003 126.246 71.003 126.978Z" fill="#F05553"/>
<path d="M79.3413 121.543C79.3413 122.244 79.1545 122.805 78.9209 122.805C78.6874 122.805 78.5005 122.244 78.5005 121.543C78.5005 120.843 78.6874 120.274 78.9209 120.274C79.1545 120.274 79.3413 120.843 79.3413 121.543Z" fill="#F05553"/>
<path d="M71.2677 119.932C71.2677 120.711 71.1042 121.357 70.9018 121.357C70.6994 121.357 70.5281 120.718 70.5281 119.932C70.5281 119.146 70.6916 118.507 70.9018 118.507C71.112 118.507 71.2677 119.115 71.2677 119.932Z" fill="#F05553"/>
<path d="M82.2377 102.04C82.2377 102.772 82.0509 103.364 81.8173 103.364C81.5837 103.364 81.3969 102.772 81.3969 102.04C81.3969 101.309 81.5837 100.725 81.8173 100.725C82.0509 100.725 82.2377 101.309 82.2377 102.04Z" fill="#F05553"/>
<path d="M90.6072 96.606C90.6072 97.3067 90.4204 97.875 90.1868 97.875C89.9532 97.875 89.7664 97.3067 89.7664 96.606C89.7664 95.9053 89.9532 95.3369 90.1868 95.3369C90.4204 95.3369 90.6072 95.9053 90.6072 96.606Z" fill="#F05553"/>
<path d="M84.0906 115.658C84.0906 116.382 83.9037 116.973 83.6702 116.973C83.4366 116.973 83.2498 116.382 83.2498 115.658C83.2498 114.933 83.4366 114.334 83.6702 114.334C83.9037 114.334 84.0906 114.926 84.0906 115.658Z" fill="#F05553"/>
<path d="M85.9125 121.037C85.9125 121.769 85.7256 122.361 85.4921 122.361C85.2585 122.361 85.0717 121.769 85.0717 121.037C85.0717 120.306 85.2585 119.722 85.4921 119.722C85.7256 119.722 85.9125 120.313 85.9125 121.037Z" fill="#F05553"/>
<path d="M94.2509 115.603C94.2509 116.304 94.064 116.872 93.8305 116.872C93.5969 116.872 93.41 116.304 93.41 115.603C93.41 114.902 93.5969 114.334 93.8305 114.334C94.064 114.334 94.2509 114.902 94.2509 115.603Z" fill="#F05553"/>
<path d="M75.9391 108.292C75.9391 109.024 75.7522 109.616 75.5187 109.616C75.2851 109.616 75.0905 109.024 75.0905 108.292C75.0905 107.56 75.2851 106.977 75.5187 106.977C75.7522 106.977 75.9391 107.568 75.9391 108.292Z" fill="#F05553"/>
<path d="M77.7609 113.664C77.7609 114.388 77.574 114.98 77.3404 114.98C77.1069 114.98 76.9122 114.388 76.9122 113.664C76.9122 112.94 77.1069 112.341 77.3404 112.341C77.574 112.341 77.7609 112.948 77.7609 113.664Z" fill="#F05553"/>
<path d="M85.679 109.515C85.9112 109.515 86.0994 108.946 86.0994 108.246C86.0994 107.545 85.9112 106.977 85.679 106.977C85.4468 106.977 85.2585 107.545 85.2585 108.246C85.2585 108.946 85.4468 109.515 85.679 109.515Z" fill="#F05553"/>
<path d="M72.2176 102.383C72.2176 103.084 72.0307 103.652 71.7971 103.652C71.5636 103.652 71.3767 103.084 71.3767 102.383C71.3767 101.682 71.5636 101.114 71.7971 101.114C72.0307 101.114 72.2176 101.682 72.2176 102.383Z" fill="#F05553"/>
<path d="M97.1238 158.875C97.1238 159.654 96.9603 160.3 96.7579 160.3C96.5555 160.3 96.392 159.662 96.392 158.875C96.392 158.089 96.5555 157.451 96.7579 157.451C96.9603 157.451 97.1238 158.089 97.1238 158.875Z" fill="#F05553"/>
<path d="M106.942 152.227C106.942 152.959 106.755 153.55 106.521 153.55C106.288 153.55 106.101 152.959 106.101 152.227C106.101 151.495 106.288 150.911 106.521 150.911C106.755 150.911 106.942 151.503 106.942 152.227Z" fill="#F05553"/>
<path d="M115.28 146.793C115.28 147.493 115.093 148.062 114.86 148.062C114.626 148.062 114.439 147.493 114.439 146.793C114.439 146.092 114.626 145.523 114.86 145.523C115.093 145.523 115.28 146.092 115.28 146.793Z" fill="#F05553"/>
<path d="M69.0955 83.7052C65.4363 83.7597 53.4308 72.8832 50.5267 70.5319C48.7666 68.8767 47.1995 67.0275 45.8553 65.0197C42.2194 59.9201 38.1943 53.1466 36.9797 50.9043C36.8474 50.6551 36.7072 50.4216 36.5749 50.1958C33.9667 46.303 30.5721 46.0071 29.1006 46.7701C28.3921 47.1438 28.0262 48.0547 27.9094 49.3082C28.0079 51.4733 28.639 53.5806 29.7468 55.4433C31.156 58.0593 43.761 75.141 45.2636 75.7561L46.5093 76.4879C53.5164 80.5754 65.8645 86.4614 68.3092 86.4224C68.5895 86.4146 70.0454 84.2269 69.0955 83.7052Z" fill="#FCCAA7"/>
</svg>
