<svg width="189" height="239" viewBox="0 0 189 239" fill="none" xmlns="http://www.w3.org/2000/svg">
<path d="M71.4697 71.7895L69.7869 70.8268C70.9585 68.1638 72.4122 65.6342 74.1232 63.2812L75.4616 64.8937C73.8999 67.0505 72.5623 69.3611 71.4697 71.7895Z" fill="#335AA9"/>
<path d="M79.4066 60.1034L78.2951 58.1857C77.5515 58.9684 76.8236 59.7512 76.127 60.6278L77.3324 62.4046C78.0212 61.6141 78.71 60.8392 79.4066 60.1034ZM83.8212 56.135L83.0385 53.959C82.2557 54.5852 81.4182 55.2583 80.6355 55.9549L81.5826 58.0135C82.2949 57.356 83.0541 56.722 83.8212 56.135Z" fill="#335AA9"/>
<path d="M86.1616 54.4912L85.5042 52.2135C87.7796 50.8537 90.1806 49.7162 92.6739 48.8164L92.2748 51.3916C90.1336 52.2066 88.0845 53.2456 86.1616 54.4912Z" fill="#335AA9"/>
<path d="M37.3079 234.081V230.59L31.2183 230.809V234.081H37.3079Z" fill="#AA633F"/>
<path d="M30.8895 139.144C31.3748 151.401 32.7132 186.107 32.6271 187.618C32.5175 189.473 30.3807 196.471 29.958 201.003C29.5354 205.535 30.913 232.218 30.913 232.218H37.5348C37.5348 232.218 43.9376 190.498 47.1389 172.582C48.9751 161.535 49.7614 150.339 49.4871 139.144H30.8895Z" fill="#2A4C90"/>
<path d="M31.2183 234.081V237.399C31.2244 237.709 31.353 238.004 31.5759 238.22C31.7988 238.436 32.0979 238.554 32.408 238.55H44.6812C44.6812 238.55 45.8318 237.955 45.2291 237.078C44.6264 236.202 37.3079 234.081 37.3079 234.081H31.2183Z" fill="#322875"/>
<path d="M22.7568 234.081V230.59L16.675 230.809V234.081H22.7568Z" fill="#AA633F"/>
<path d="M16.3464 139.144C16.8239 151.401 18.1623 186.107 18.0762 187.618C17.9666 189.473 15.8298 196.471 15.4071 201.003C14.9844 205.535 16.3699 232.218 16.3699 232.218H22.9839C22.9839 232.218 29.3867 190.498 32.588 172.582C34.4242 161.535 35.2105 150.339 34.9362 139.144H16.3464Z" fill="#375DAA"/>
<path d="M16.675 234.081V237.399C16.6771 237.552 16.7093 237.704 16.7698 237.844C16.8303 237.985 16.9179 238.113 17.0277 238.219C17.1374 238.326 17.2672 238.41 17.4094 238.467C17.5517 238.524 17.7038 238.552 17.857 238.55H30.1302C30.1302 238.55 31.2808 237.955 30.6781 237.078C30.0754 236.202 22.7568 234.081 22.7568 234.081H16.675Z" fill="#322875"/>
<path d="M62.3628 87.053C62.3303 87.1876 62.3248 87.3274 62.3466 87.4643C62.3684 87.6011 62.4171 87.7322 62.4898 87.8501C62.5626 87.968 62.658 88.0704 62.7706 88.1512C62.8831 88.232 63.0106 88.2897 63.1455 88.321L67.1844 89.4011C67.4522 89.4731 67.7376 89.4361 67.9781 89.2982C68.2187 89.1603 68.3948 88.9328 68.4681 88.6654L71.2937 77.989C71.3263 77.8543 71.3318 77.7145 71.31 77.5777C71.2882 77.4408 71.2395 77.3097 71.1667 77.1918C71.0939 77.0739 70.9985 76.9716 70.886 76.8907C70.7734 76.8099 70.646 76.7522 70.511 76.7209L66.4487 75.6486C66.3166 75.6118 66.1785 75.6014 66.0424 75.6181C65.9063 75.6348 65.7748 75.6782 65.6556 75.7458C65.5363 75.8135 65.4315 75.904 65.3473 76.0122C65.2632 76.1205 65.2012 76.2443 65.165 76.3765L62.3628 87.053Z" fill="#3E3543"/>
<path d="M33.9499 60.7843C33.9499 60.7843 32.4393 63.3517 35.9694 62.1854C37.12 61.8019 39.3038 58.7649 39.3038 58.7649L39.7187 54.4912H36.8304L33.9499 60.7843Z" fill="#934624"/>
<path d="M28.4707 62.303C28.4707 62.303 30.9285 59.8139 32.6505 57.9119C34.3725 56.0099 34.1142 51.8301 35.5387 51.8301C36.9633 51.8301 40.3525 52.2214 41.2683 53.239C42.1841 54.2565 39.3115 56.3699 37.5738 56.3699C35.8362 56.3699 36.4937 60.534 34.9595 62.2325C33.4254 63.9311 29.6213 65.1365 29.6213 65.1365L28.4707 62.303Z" fill="#AA633F"/>
<path d="M33.0183 84.6497L34.8969 78.834C34.8969 78.834 35.1865 76.7519 30.271 75.5778C25.3554 74.4037 15.5635 73.2844 10.8436 71.3198C6.12377 69.3551 -2.37666 73.1748 0.824699 75.7813C10.7262 83.8591 17.262 86.6143 25.4963 93.0014C33.7306 99.3884 33.0183 84.6497 33.0183 84.6497Z" fill="#AA633F"/>
<path d="M17.7397 73.3315C17.7397 73.3315 9.35664 80.4857 7.61898 80.4857C4.38631 78.6776 1.545 77.4252 0.3396 75.2649C3.97929 73.9577 17.7397 73.3315 17.7397 73.3315Z" fill="#934624"/>
<path d="M32.1965 63.9935L29.7466 60.9956C29.7466 60.9956 22.9995 62.8976 16.1115 65.0267C7.13355 67.7975 -2.50184 71.0772 0.589938 75.7109C6.19428 84.0939 32.1965 63.9935 32.1965 63.9935Z" fill="#AA633F"/>
<path d="M58.1674 57.0274C58.1674 57.0274 60.4608 56.1429 58.1674 52.6676C57.3295 51.3691 56.2166 50.2705 54.9073 49.4495C53.598 48.6286 52.1244 48.1052 50.5906 47.9164C46.043 47.1728 44.8923 47.5955 42.9668 49.7245C41.0413 51.8536 38.6383 52.6989 38.1531 54.4209C37.8399 55.2869 37.8735 56.2404 38.247 57.0822C38.247 57.0822 38.7714 60.2131 37.9652 61.442C34.9595 66.1384 39.1471 68.6901 40.7595 69.2301C43.82 65.794 58.1674 57.0274 58.1674 57.0274Z" fill="#4C266E"/>
<path d="M55.1304 98.0112L58.6997 86.6382C58.6997 86.6382 77.9939 116.382 69.5639 118.182C64.3275 118.965 56.5158 103.013 54.5903 100.453C54.6276 99.6142 54.8104 98.7879 55.1304 98.0112Z" fill="#AA633F"/>
<path d="M68.9144 92.9076C68.7369 91.4931 68.8787 90.0568 69.3292 88.7043C70.1119 86.8727 71.333 83.961 71.333 83.2252C71.333 82.4894 70.198 82.6851 69.5797 82.2624C68.4839 81.4797 67.435 79.8516 63.5527 80.8927C62.4021 81.2292 63.5527 81.8946 64.0301 81.8946C62.4647 82.5834 62.9108 83.3113 64.2102 83.3113C62.7386 84.1488 64.2102 84.5245 66.1278 85.0098C66.1278 86.1369 64.5076 87.9216 64.9224 89.7923C65.3373 91.663 65.5878 93.4163 65.5878 93.4163L68.9144 92.9076Z" fill="#AA633F"/>
<path d="M70.2997 83.3428L71.3095 83.0923C71.3667 82.3288 71.2791 81.5613 71.0512 80.8303C70.4171 79.163 68.0846 77.895 66.4878 77.895C65.5642 77.895 66.5583 79.0926 67.7246 79.5231C68.8908 79.9536 69.5561 80.5093 69.5561 81.8713C69.5561 83.2332 70.2997 83.3428 70.2997 83.3428Z" fill="#AA633F"/>
<path d="M48.2032 79.3119C48.2032 79.3119 58.6213 83.7734 60.1711 89.0177C57.909 94.7395 55.2556 101.494 55.2556 101.494L50.7784 143.832L15.9548 142.556C15.9548 142.556 14.992 135.019 20.2441 114.879C22.1462 107.584 26.2242 89.8317 26.2242 89.8317L29.042 75.1321C29.042 75.1321 34.8968 74.5294 38.0277 76.5958C41.1587 78.6622 48.2032 79.3119 48.2032 79.3119Z" fill="#322875"/>
<path d="M49.1191 72.5959L48.2034 79.3118L44.8141 85.2605C44.6907 85.4768 44.511 85.6555 44.294 85.7777C44.0771 85.9 43.8311 85.9611 43.5822 85.9547C43.3333 85.9483 43.0907 85.8745 42.8804 85.7413C42.6701 85.608 42.4998 85.4202 42.3877 85.1979L38.0044 76.5879L41.5893 67.5552L49.1191 72.5959Z" fill="#AA633F"/>
<path d="M50.2462 73.0109C50.2462 73.0109 45.9725 77.5272 43.867 76.5958C41.4483 75.5156 40.3682 70.7175 40.3682 70.7175L41.4483 66.4673L50.2462 73.0109Z" fill="#934624"/>
<path d="M41.1587 60.3306C39.2253 66.4046 40.9552 72.6195 45.0723 74.2006C49.1895 75.7817 54.0111 72.142 55.9522 66.0602C57.8934 59.9784 56.1558 53.7792 52.0777 52.1981C47.9997 50.6169 43.092 54.2566 41.1587 60.3306Z" fill="#AA633F"/>
<path d="M50.5907 49.1221L58.0658 55.5326C58.0658 55.5326 60.8601 55.6422 60.8601 58.0843C60.8601 60.5264 59.7017 63.1955 56.6334 62.4911C54.6609 64.6671 48.3521 61.2231 46.3327 56.785C44.4932 58.8201 43.3426 59.6576 41.6363 59.1332C39.9299 58.6087 40.3761 53.521 40.3761 53.521C40.3761 53.521 49.0487 49.1221 50.5907 49.1221Z" fill="#4C266E"/>
<path d="M65.165 97.5962C65.165 97.5962 61.2513 111.341 64.3822 115.121C65.6816 116.687 67.3957 118.354 70.2605 118.354C69.9083 115.748 65.165 97.5962 65.165 97.5962Z" fill="#934624"/>
<path d="M68.7264 91.3345H65.2355C65.2355 91.3345 61.5097 118.362 70.2215 118.362C78.2053 118.362 68.7264 92.5947 68.7264 91.3345Z" fill="#AA633F"/>
<path d="M29.0421 75.1318C29.0421 75.1318 31.2886 77.2687 30.0675 85.229C28.8464 93.1894 25.5042 92.978 25.5042 92.978L24.0718 77.8948C24.0718 77.8948 23.7978 73.7464 29.0421 75.1318Z" fill="#AA633F"/>
<path d="M55.2871 101.494C55.2871 101.494 58.0345 91.6005 56.0698 83.9141C59.8426 86.3562 61.909 91.8744 61.909 91.8744C61.909 91.8744 61.6742 101.079 55.2871 101.494Z" fill="#AA633F"/>
<path d="M101.719 26H170.841C172.274 26 173.44 27.9803 173.44 30.4224V79.6717C173.44 82.1138 172.274 84.0941 170.841 84.0941H101.719C100.286 84.0941 99.1199 82.1138 99.1199 79.6717V30.4224C99.1199 27.9803 100.286 26 101.719 26Z" fill="#C4E8F0"/>
<path d="M142.538 36.0659H107.292V41.952H142.538V36.0659Z" fill="white"/>
<path d="M125.553 49.5208C129.841 50.2596 133.951 51.7997 137.669 54.0607C139.673 55.2504 151.813 50.147 155.171 50.6323C158.529 51.1176 162.998 54.8512 164.415 60.299C164.736 61.4966 163.891 69.59 154.983 69.3865C146.076 69.183 142.264 72.4235 136.073 77.0259C129.881 81.6284 115.855 79.0845 115.354 72.5018C114.853 65.919 103.613 65.8564 112.724 51.2115C115.072 47.4231 118.203 48.018 119.956 48.2841C121.843 48.5947 123.711 49.0076 125.553 49.5208Z" fill="#9CCEDB"/>
<path d="M156.22 61.2227C156.22 61.2227 170.998 29.3891 155.688 29.397C139.266 29.3891 156.22 61.2227 156.22 61.2227ZM151.696 36.8955C151.696 34.383 153.418 32.3479 155.547 32.3479C157.676 32.3479 159.351 34.3751 159.351 36.8877C159.351 39.4002 157.629 41.4353 155.508 41.4353C153.386 41.4353 151.657 39.4002 151.657 36.8877L151.696 36.8955Z" fill="#F05553"/>
<line x1="156.457" y1="14.4637" x2="116.726" y2="91.7372" stroke="#F05452" stroke-width="3"/>
<circle cx="135.5" cy="53.5001" r="43" transform="rotate(-12.5954 135.5 53.5001)" stroke="#F05553" stroke-width="3"/>
</svg>
