<svg width="401" height="225" viewBox="0 0 401 225" fill="none" xmlns="http://www.w3.org/2000/svg">
<path opacity="0.2" d="M8.61338 225H401C401 225 401 196.022 350.663 186.15C316.642 179.478 280.377 189.496 262.627 200.302C244.876 211.108 207.177 190.601 174.078 190.248C140.98 189.895 123.192 197.227 100.403 205.064C77.6137 212.901 52.5151 197.762 26.2523 200.296C-0.0105069 202.83 -7.86141 216.916 8.61338 225Z" fill="#43C4D9"/>
<path d="M335.454 134.855H331.04L340.353 87.5686H345.336L335.454 134.855Z" fill="#C9E9F5"/>
<path d="M64.0081 134.855H68.4224L59.1094 87.5686H54.127L64.0081 134.855Z" fill="#C9E9F5"/>
<path d="M323.981 225L311.371 146.946L301.229 146.844L318.058 225H323.981Z" fill="#C9E9F5"/>
<path d="M79.989 225L96.8176 146.844L86.6757 146.946L74.0659 225H79.989Z" fill="#C9E9F5"/>
<path d="M305.392 68.4551H298.854V136.278H305.392V68.4551Z" fill="#C9E9F5"/>
<path d="M100.413 67.9622H93.875V135.785H100.413V67.9622Z" fill="#C9E9F5"/>
<path d="M330.277 81.8113H68.5156V102.85H330.277V81.8113Z" fill="#C9E9F5"/>
<path d="M330.109 51.825H68.3481V72.8638H330.109V51.825Z" fill="#C9E9F5"/>
<path d="M336.423 134.52H62.2012V147.337H336.423V134.52Z" fill="#C9E9F5"/>
<path d="M250.52 43.1006C251.451 45.4723 251.526 49.016 250.026 51.1552C247.512 54.7361 268.755 53.5084 265.234 49.295C264.247 48.0952 263.158 43.054 263.931 38.7849C264.704 34.5157 248.853 39.0639 250.52 43.1006Z" fill="#F1B085"/>
<path d="M211.2 79.672C206.749 82.3972 197.52 91.6516 198.367 101.883C198.74 106.636 203.024 111.137 208.714 110.151C214.032 109.221 218.39 96.9811 215.363 85.9687C214.851 84.2109 213.445 78.3047 211.2 79.672Z" fill="#F05452"/>
<path d="M263.409 4.23177C261.547 2.93894 261.854 -1.15349 252.457 0.31606C243.237 1.75771 246.776 5.73853 241.17 9.45892C237.687 11.7749 233.552 15.4115 233.244 19.5784C232.816 25.2892 234.772 30.3582 241.17 31.7441C249.551 33.6043 260.727 41.8821 267.246 35.9946C269.155 34.2739 275.972 29.8188 272.974 18.8436C271.418 13.17 273.085 10.7983 272.154 8.39861C270.273 3.5249 265.421 5.58041 263.409 4.23177Z" fill="#4C266E"/>
<path d="M266.529 28.8329C266.529 37.7804 261.444 46.4024 255.279 46.3745C249.114 46.3466 244.159 37.6688 244.206 28.7026C244.252 19.7365 249.281 13.9141 255.447 13.942C261.612 13.9699 266.576 19.8388 266.529 28.8329Z" fill="#FFC9A5"/>
<path d="M256.862 51.9643C256.862 51.9643 209.291 24.4799 193.263 36.5619C188.467 40.18 214.19 69.2176 214.357 83.0668C214.451 90.6285 205.529 112.132 209.617 112.951C222.45 115.509 258.343 112.951 258.343 112.951L256.862 51.9643Z" fill="#DFD4D7"/>
<path d="M305.606 79.672C310.077 82.3972 319.287 91.6516 318.468 101.883C318.095 106.636 313.811 111.137 308.111 110.151C302.803 109.221 298.445 96.9811 301.462 85.9687C301.956 84.2109 303.362 78.3047 305.606 79.672Z" fill="#F05452"/>
<path d="M242.231 30.5256C242.473 30.5907 242.445 29.27 243.628 28.2376C246.673 25.5682 250.091 28.098 253.491 26.1169C257.262 23.9126 258.017 19.4202 258.669 17.7461C259.023 16.816 259.814 21.4664 262.589 22.2291C265.039 22.8802 265.057 22.4151 266.082 23.8103C267.414 25.6705 267.088 27.9864 266.622 28.2748C271.912 31.2139 271.902 19.6155 269.416 14.3977C266.259 7.7847 253.584 6.24074 246.739 11.6074C239.577 17.1136 241.495 30.3117 242.231 30.5256Z" fill="#4C266E"/>
<path d="M217.924 86.3129C217.924 85.7548 215.13 85.0944 215.754 84.9549C216.686 84.9549 217.207 84.0248 217.245 83.5784C217.31 82.8715 214.6 82.5088 214.656 82.0716C214.711 81.6345 217.794 82.1739 217.701 81.1415C217.57 79.7836 215.531 79.7836 215.112 79.6162C214.488 79.3836 216.043 79.1697 215.848 78.6117C215.401 77.1421 211.908 76.9096 210.111 77.3653C206.898 78.1652 206.926 79.2255 209.422 80.2486C209.701 80.3602 207.922 81.002 209.962 82.1088C210.437 82.2669 207.876 84.2294 210.968 84.7038C211.685 84.9363 210.232 85.9594 212.728 86.7035C215.289 87.1965 217.859 86.936 217.924 86.3129Z" fill="#FFCAA6"/>
<path d="M252.839 51.8063C252.839 51.8063 304.424 23.9033 313.439 30.4698C320.2 35.3714 301.453 80.3231 301.453 80.3231C301.453 80.3231 315.18 117.778 308.205 117.443C295.167 116.839 256.76 113.416 256.76 113.416L252.839 51.8063Z" fill="#EEE5E7"/>
<path d="M284.913 92.6562C270.068 84.5922 247.065 101.911 240.211 121.043C238.898 124.689 236.914 133.339 242.334 135.106C242.8 135.264 243.321 135.403 243.899 135.543C243.396 143.198 252.737 164.488 252.904 161.316C253.072 158.321 252.28 145.997 250.567 136.603C260.811 137.673 276.364 137.319 287.055 133.478C290.212 132.344 292.965 130.307 294.97 127.621C296.976 124.935 298.145 121.719 298.333 118.373C299.05 109.965 291.497 96.2463 284.913 92.6562Z" fill="#294D90"/>
<path d="M259.293 225C259.293 221.279 257.738 213.178 257.765 212.592C256.164 212.722 247.27 212.397 246.245 213.16C247.745 214.936 246.841 217.736 246.04 218.433C244.076 219.846 241.946 221.014 239.698 221.912C238.482 222.573 237.571 223.68 237.156 225H259.293Z" fill="#443D4F"/>
<path d="M192.854 142.826C196.365 141.245 202.968 136.315 205.287 136.659C203.918 135.627 203.62 128.586 202.297 128.428C197.24 129.963 193.468 128.912 192.5 128.428C190.293 127.228 184.826 122.698 182.963 121.406C181.333 120.262 178.307 120.364 177.515 121.294L192.854 142.826Z" fill="#443D4F"/>
<path d="M271.744 89.466C250.166 92.2563 216.593 116.271 197.194 125.396C196.896 125.535 198.47 128.949 200.23 132.297C208.611 130.028 220.858 121.973 233.654 118.532C236.453 117.681 239.47 117.921 242.098 119.204C244.726 120.486 246.771 122.715 247.819 125.442C258.902 122.159 270.077 118.476 280.741 113.472C292.876 107.808 290.259 87.0849 271.744 89.466Z" fill="#335AA9"/>
<path d="M233.654 118.532C220.858 121.973 208.648 130.028 200.229 132.297C201.99 135.645 203.955 138.919 204.383 138.808C217.98 133.618 232.853 129.916 247.819 125.47C246.776 122.738 244.734 120.502 242.105 119.215C239.476 117.927 236.456 117.683 233.654 118.532Z" fill="#335AA9"/>
<path d="M223.428 137.654C225.161 119.099 240.378 119.694 245.426 131.078C255.558 153.94 255.558 187.582 258.175 212.927C258.269 213.857 245.584 214.704 245.426 214.071C240.117 193.311 221.389 159.521 223.428 137.654Z" fill="#335AA9"/>
<path d="M300.81 85.3548C300.531 84.8619 302.673 82.9924 302.105 83.1412C301.766 83.2781 301.391 83.3004 301.038 83.2047C300.685 83.1089 300.373 82.9005 300.149 82.611C299.758 82.0158 302.012 80.4346 301.732 80.0812C301.453 79.7277 299.004 81.6158 298.612 80.6671C298.091 79.3929 299.898 78.4535 300.196 78.1094C300.633 77.6164 299.19 78.1094 299.078 77.5606C298.789 76.0538 301.77 74.2308 303.586 73.8402C306.799 73.0682 307.311 74.0448 305.532 76.0817C305.327 76.3143 307.208 76.0817 305.905 77.9419C305.551 78.3047 308.698 78.872 306.212 80.7322C305.69 81.2717 307.45 81.4949 305.588 83.3086C303.53 84.9363 301.136 85.8943 300.81 85.3548Z" fill="#FFCAA6"/>
</svg>
