<svg width="26" height="16" viewBox="0 0 26 16" fill="none" xmlns="http://www.w3.org/2000/svg">
<path d="M1.20079 14.6123C0.547979 13.9623 0.547979 12.9142 1.20079 12.2642L12.2719 1.23974C12.3952 1.11675 12.5416 1.01918 12.7028 0.952607C12.8639 0.886034 13.0367 0.851766 13.2112 0.851766C13.3857 0.851766 13.5584 0.886034 13.7196 0.952607C13.8808 1.01918 14.0272 1.11675 14.1504 1.23974L25.2216 12.2642C25.8744 12.9142 25.8744 13.9623 25.2216 14.6123C24.5688 15.2624 23.5163 15.2624 22.8635 14.6123L13.2045 5.00742L3.54558 14.6256C2.90609 15.2624 1.84028 15.2624 1.20079 14.6123Z" fill="#BDBDBD"/>
</svg>
