<svg width="366" height="203" viewBox="0 0 366 203" fill="none" xmlns="http://www.w3.org/2000/svg">
<g clip-path="url(#clip0)">
<path d="M116.646 155.618L122.564 203L66.5178 185.639L116.646 155.618Z" fill="#43C4D9"/>
<path d="M361.998 21.9617C341.48 23.7616 321.074 26.6707 300.869 30.6762C280.808 34.5454 261.014 39.6988 241.61 46.1047C218.795 53.768 198.922 62.8442 182.611 73.096C154.864 90.3197 125.185 104.198 94.1912 114.442C81.3329 118.812 68.2026 122.331 54.8848 124.976L59.033 149.492C59.7319 149.368 76.257 146.508 101.383 138.246C134.468 127.354 166.143 112.556 195.743 94.1646C222.267 77.5606 260.164 64.0537 305.355 55.1244C324.103 51.4187 343.028 48.676 362.055 46.9072L361.998 21.9617Z" fill="#C3E7EF"/>
<path d="M361.998 82.1382C355.708 82.8616 340.333 84.7039 322.703 87.5749C291.637 92.6838 269.588 98.2674 257.155 104.326C249.76 107.931 240.753 114.024 230.315 121.077C200.534 141.196 155.557 171.612 112.644 165.802L109.262 190.443C114.045 191.087 118.865 191.408 123.691 191.403C170.561 191.403 214.264 161.869 244.124 141.671C253.784 135.149 262.16 129.509 267.942 126.672C287.105 117.335 337.898 109.943 361.942 107.14L361.998 82.1382Z" fill="#43C4D9"/>
<path d="M57.748 112.69L70.3392 161.191L8.92773 150.396L57.748 112.69Z" fill="#C3E7EF"/>
<path d="M364.512 157.404C342.791 161.163 320.864 163.613 298.851 164.74C251.361 167 215.436 161.598 195.033 149.006C176.997 137.918 158.736 125.496 141.039 113.481C97.4714 83.9129 69.8205 65.7039 51.1987 63.9067L43.511 86.1282C47.2647 86.4899 60.7689 91.6666 78.4551 102.19C92.6018 110.644 109.341 122.071 127.129 134.075C145.052 146.237 163.583 158.817 182.047 170.244C207.151 185.718 246.965 192.229 300.406 189.606C302.21 189.527 303.991 189.425 305.761 189.324C325.958 188.093 346.077 185.795 366.034 182.44L364.512 157.404Z" fill="#F05452"/>
<path d="M57.9283 50.3545L44.3565 99.3412L0 57.6336L57.9283 50.3545Z" fill="#F05452"/>
<path d="M237.564 25.0021L236.673 22.2668L230.688 23.2389L233.584 26.302L237.564 25.0021Z" fill="#FFC39F"/>
<path d="M276.419 36.6214C276.419 36.6214 251.97 43.844 250.493 43.3354C249.016 42.8267 238.093 24.8325 238.093 24.8325L233.077 26.4714C233.077 26.4714 239.367 43.8892 242.523 49.8458C244.44 53.4854 248.024 56.3563 255.757 54.7061C263.49 53.0559 278.572 49.4389 281.841 48.1391C285.11 46.8393 285.313 35.5929 276.419 36.6214Z" fill="#E8DFE1"/>
<path d="M289.98 85.0996C289.98 85.0996 282.968 120.523 282.799 127.904C282.63 135.284 284.93 166.39 284.93 166.39H292.82C292.82 166.39 293.643 149.277 293.722 142.439C293.801 135.601 293.643 131.758 293.722 130.006C293.801 128.254 306.505 95.6678 306.505 95.6678L303.225 79.1204L289.98 85.0996Z" fill="#335AA9"/>
<path d="M302.334 99.7707C302.334 99.7707 313.009 126.321 316.199 132.843C319.389 139.365 332.318 166.39 332.318 166.39L339.792 165.26C339.792 165.26 335.756 149.436 333.795 144.451C331.834 139.466 326.784 131.034 326.231 128.627C325.679 126.219 318.837 95.8938 318.555 93.8141C318.273 91.7343 317.834 83.4041 314.046 78.0804C304.002 77.5718 297.893 81.4713 297.893 81.4713L302.334 99.7707Z" fill="#335AA9"/>
<path d="M276.859 29.7268L279.598 36.2146L287.545 32.349L282.732 23.7136L276.859 29.7268Z" fill="#EBAA80"/>
<path d="M279.327 34.3949L271.076 38.6221L267.615 51.5187L289.901 85.6422L314.012 78.0692L305.547 53.2933L299.324 37.1528C299.324 37.1528 295.796 29.3199 287.117 31.7048C282.698 33.2194 279.327 34.3949 279.327 34.3949Z" fill="#E8DFE1"/>
<path d="M287.985 31.7046L286.023 28.9241L277.479 32.5636L278.437 35.8753L287.985 31.7046Z" fill="#E8DFE1"/>
<path d="M303.642 102.992C303.642 102.992 301.849 98.6064 301.523 98.2221C301.196 97.8378 290.25 93.8479 290.25 93.8479C290.25 93.8479 296.292 98.8212 296.957 99.4994C297.622 100.178 293.891 129.249 293.891 129.249L303.642 102.992Z" fill="#294D90"/>
<path d="M292.054 166.39V169.431C292.092 169.664 292.076 169.903 292.006 170.129C291.937 170.355 291.816 170.561 291.653 170.732C291.49 170.903 291.29 171.034 291.068 171.114C290.846 171.194 290.608 171.222 290.374 171.194H279.237C279.237 171.194 277.445 170.697 279.034 169.792C280.624 168.888 286.328 166.401 286.328 166.401L292.054 166.39Z" fill="#322875"/>
<path d="M339.296 165.305L339.803 169.43C339.841 169.664 339.825 169.903 339.756 170.129C339.686 170.355 339.565 170.561 339.402 170.732C339.239 170.903 339.039 171.034 338.817 171.114C338.595 171.194 338.358 171.221 338.124 171.194H326.998C326.998 171.194 325.194 170.696 326.795 169.792C328.396 168.888 333.987 166.13 333.987 166.13L339.296 165.305Z" fill="#322875"/>
<path d="M281.661 34.9261C281.661 34.9261 282.236 48.2183 283.295 53.9601C284.355 59.702 285.832 69.6373 285.832 69.6373L283.746 77.2667L280.105 69.1399C280.105 69.1399 280.105 55.7912 279.914 51.304C279.722 46.8167 280.917 35.22 280.917 35.22C280.761 34.9988 280.633 34.7597 280.534 34.5079C280.534 34.3722 280.624 31.9082 280.624 31.9082C280.624 31.9082 282.236 33.8297 282.202 33.9088C282.168 33.9879 281.661 34.9261 281.661 34.9261Z" fill="#F05452"/>
<path d="M284.716 16.0841C284.276 23.6344 279.981 30.71 275.224 30.4274C270.467 30.1449 267.029 22.6284 267.469 15.0781C267.909 7.52778 272.057 2.80317 276.825 3.08574C281.593 3.36831 285.189 8.53374 284.716 16.0841Z" fill="#FFC39F"/>
<path d="M279.733 10.4779C280.357 12.681 280.612 14.9727 280.488 17.2596C280.105 20.0741 278.899 25.1717 280.488 25.9742C282.078 26.7767 284.242 26.0533 285.73 23.7927C287.218 21.5321 286.756 20.0627 287.331 17.384C287.906 14.7052 290.137 12.8628 288.999 8.34165C287.86 3.82049 285.831 2.56587 283.363 1.83118C280.894 1.09649 275.202 -0.881514 272.237 0.452228C269.272 1.78597 268.213 3.67355 268.28 5.4029C268.348 7.13224 266.804 8.1495 266.928 10.8622C266.955 12.2859 267.152 13.7013 267.514 15.0782C267.842 13.7246 268.419 12.4443 269.216 11.303C270.343 10.0823 273.274 10.5909 275.145 11.0996C277.016 11.6082 279.733 10.4779 279.733 10.4779Z" fill="#4C266E"/>
<path d="M289.619 31.5126C289.619 31.5126 265.834 40.7245 264.29 40.3289C262.746 39.9333 250.448 22.9111 250.448 22.9111L245.578 24.957C245.578 24.957 253.277 41.8209 256.895 47.4723C259.15 50.9423 262.915 53.5081 270.49 51.2362C278.065 48.9643 292.798 44.1154 295.954 42.5443C299.11 40.9732 298.4 29.7607 289.619 31.5126Z" fill="#D9CED1"/>
<path d="M264.527 19.5992L210.589 25.8836V13.1453L264.527 17.3047V19.5992Z" fill="#322875"/>
<path d="M210.589 25.8838C211.977 25.8838 213.103 23.0347 213.103 19.5203C213.103 16.0058 211.977 13.1567 210.589 13.1567C209.201 13.1567 208.075 16.0058 208.075 19.5203C208.075 23.0347 209.201 25.8838 210.589 25.8838Z" fill="#443D4F"/>
<path d="M210.589 25.3865C211.759 25.3865 212.708 22.7601 212.708 19.5203C212.708 16.2804 211.759 13.6541 210.589 13.6541C209.419 13.6541 208.47 16.2804 208.47 19.5203C208.47 22.7601 209.419 25.3865 210.589 25.3865Z" fill="#C3E7EF"/>
<path d="M249.816 23.1824C249.816 23.1824 248.047 17.5309 247.382 16.3441C246.931 15.7452 246.338 15.2684 245.657 14.9566C244.976 14.6448 244.228 14.5079 243.481 14.5583C242.163 14.6487 238.465 15.3043 238.465 15.3043C238.465 15.3043 241.069 16.2198 241.644 16.2989C242.219 16.378 244.462 21.8712 244.868 22.6172C245.281 23.331 245.732 24.0215 246.221 24.6857L249.816 23.1824Z" fill="#FFC39F"/>
</g>
<defs>
<clipPath id="clip0">
<rect width="366" height="203" fill="white"/>
</clipPath>
</defs>
</svg>
