<svg width="291" height="268" viewBox="0 0 291 268" fill="none" xmlns="http://www.w3.org/2000/svg">
<path opacity="0.7" d="M291 268H0C0 268 17.8908 244.101 75.7658 242.184C133.641 240.267 152.185 253.931 174.188 256.067C196.191 258.204 206.475 252.524 243.418 253.249C280.362 253.974 291 268 291 268Z" fill="white"/>
<path d="M186.61 146.952L211.616 110.275L186.61 146.952Z" fill="#F1B185"/>
<path d="M187.012 147.255L186.208 146.649L211.206 109.972L212.017 110.579L187.012 147.255Z" fill="#A5D5F3"/>
<path d="M212.181 100.719L179.693 71.2549L212.181 100.719Z" fill="#F1B185"/>
<path d="M211.853 101.12L179.373 71.6563L180.021 70.8613L212.501 100.325L211.853 101.12Z" fill="#A5D5F3"/>
<path d="M162.072 57.7892L120.994 44.8726L162.072 57.7892Z" fill="#F1B185"/>
<path d="M161.932 58.2891L120.855 45.3725L121.133 44.3726L162.211 57.2892L161.932 58.2891Z" fill="#A5D5F3"/>
<path d="M214.173 57.3707L185.241 15.2686L214.173 57.3707Z" fill="#F1B185"/>
<path d="M213.771 57.6988L184.84 15.5966L185.643 14.9819L214.574 57.0841L213.771 57.6988Z" fill="#A5D5F3"/>
<path d="M173.554 11.7036L119.732 38.5205L173.554 11.7036Z" fill="#F1B185"/>
<path d="M173.759 12.1792L119.896 39.0125L119.478 38.0618L173.349 11.2285L173.759 12.1792Z" fill="#A5D5F3"/>
<path d="M189.856 188.504L179.93 148.648L189.856 188.504Z" fill="#F1B185"/>
<path d="M189.38 188.669L179.455 148.812L180.406 148.55L190.339 188.406L189.38 188.669Z" fill="#A5D5F3"/>
<path d="M217.197 98.9401L216.902 65.0093L217.197 98.9401Z" fill="#F1B185"/>
<path d="M217.393 64.999L216.401 65.0078L216.703 98.9373L217.695 98.9285L217.393 64.999Z" fill="#A5D5F3"/>
<path d="M179.832 60.576L212.05 60.3711L179.832 60.576Z" fill="#F1B185"/>
<path d="M212.049 59.8559L179.831 60.0415L179.837 61.0824L212.055 60.8968L212.049 59.8559Z" fill="#A5D5F3"/>
<path d="M112.397 39.3398L86.6943 75.459L112.397 39.3398Z" fill="#F1B185"/>
<path d="M87.0878 75.7706L86.301 75.1478L111.995 39.0122L112.79 39.6351L87.0878 75.7706Z" fill="#A5D5F3"/>
<path d="M177.357 148.148L92.0706 81.9585L177.357 148.148Z" fill="#F1B185"/>
<path d="M177.062 148.566L91.7756 82.3931L92.3657 81.5571L177.652 147.73L177.062 148.566Z" fill="#A5D5F3"/>
<path d="M183.176 148.575L92.0214 158.352L91.9231 157.402L183.077 147.624L183.176 148.575Z" fill="#A5D5F3"/>
<path d="M186.233 190.144L90.6938 157L186.233 190.144Z" fill="#F1B185"/>
<path d="M186.077 190.669L90.5381 157.5L90.8495 156.508L186.389 189.677L186.077 190.669Z" fill="#A5D5F3"/>
<path d="M172.267 56.4697L92.8086 160.131L172.267 56.4697Z" fill="#F1B185"/>
<path d="M93.1938 160.459L92.4233 159.803L171.882 56.1416L172.653 56.7973L93.1938 160.459Z" fill="#A5D5F3"/>
<path d="M92.1364 161.802L86.678 79.2783L92.1364 161.802Z" fill="#F1B185"/>
<path d="M91.6447 161.835L86.1863 79.3194L87.1698 79.2456L92.6282 161.77L91.6447 161.835Z" fill="#A5D5F3"/>
<path d="M181.283 149.451L173.431 67.1484L181.283 149.451Z" fill="#F1B185"/>
<path d="M180.791 149.509L172.939 67.1979L173.931 67.0913L181.775 149.402L180.791 149.509Z" fill="#A5D5F3"/>
<path d="M190.831 187.685L217.058 109.71L190.831 187.685Z" fill="#F1B185"/>
<path d="M191.298 187.841L190.364 187.497L216.582 109.513L217.517 109.866L191.298 187.841Z" fill="#A5D5F3"/>
<path d="M164.031 64.6733L86.5552 78.3522L164.031 64.6733Z" fill="#F1B185"/>
<path d="M86.6371 78.8688L86.4731 77.8443L163.94 64.1572L164.104 65.1817L86.6371 78.8688Z" fill="#A5D5F3"/>
<path d="M186.807 62.7968C186.807 72.0008 179.717 79.4672 170.981 79.4672C162.244 79.4672 155.146 72.0008 155.146 62.7968C155.146 53.5929 162.236 46.1265 170.981 46.1265C179.726 46.1265 186.807 53.5847 186.807 62.7968Z" fill="#335AA9"/>
<path d="M174.644 59.0105C174.606 59.7729 174.344 60.5072 173.893 61.1226C173.441 61.7379 172.819 62.2072 172.103 62.4723C171.387 62.7373 170.609 62.7866 169.865 62.6139C169.122 62.4413 168.445 62.0542 167.92 61.5008C167.394 60.9474 167.042 60.2519 166.908 59.5004C166.773 58.749 166.862 57.9746 167.164 57.2733C167.465 56.572 167.966 55.9745 168.603 55.5549C169.241 55.1353 169.988 54.912 170.751 54.9126C171.81 54.9426 172.814 55.3905 173.543 56.1584C174.273 56.9263 174.668 57.9517 174.644 59.0105Z" fill="white"/>
<path d="M173.497 69.706H179.029C179.029 65.9113 175.423 62.8379 170.981 62.8379C166.538 62.8379 162.924 65.9113 162.924 69.706H173.497Z" fill="white"/>
<path d="M125.289 42.3644C125.289 48.9949 120.183 54.3714 113.888 54.3714C107.594 54.3714 102.521 48.9949 102.521 42.3644C102.521 35.734 107.594 30.3247 113.888 30.3247C120.183 30.3247 125.289 35.734 125.289 42.3644Z" fill="#81D0D4"/>
<path d="M116.544 39.66C116.516 40.2096 116.328 40.7391 116.003 41.1828C115.678 41.6266 115.229 41.9651 114.713 42.1565C114.197 42.3478 113.637 42.3835 113.101 42.2591C112.565 42.1347 112.077 41.8558 111.698 41.4568C111.319 41.0579 111.065 40.5565 110.969 40.0148C110.872 39.4731 110.936 38.9149 111.154 38.4095C111.371 37.904 111.732 37.4735 112.192 37.1713C112.652 36.8691 113.19 36.7085 113.741 36.7095C114.119 36.719 114.491 36.803 114.836 36.9564C115.182 37.1099 115.493 37.3299 115.754 37.6039C116.014 37.878 116.218 38.2006 116.353 38.5533C116.489 38.9061 116.554 39.2822 116.544 39.66Z" fill="white"/>
<path d="M115.708 47.3477H119.732C119.732 44.6103 117.134 42.4302 113.929 42.4302C110.725 42.4302 108.126 44.6431 108.126 47.3477H115.708Z" fill="white"/>
<path d="M228.811 103.325C228.811 109.956 223.705 115.332 217.41 115.332C211.116 115.332 206.01 109.956 206.01 103.325C206.01 96.6948 211.116 91.3184 217.41 91.3184C223.705 91.3184 228.811 96.7112 228.811 103.325Z" fill="#81D0D4"/>
<path d="M220.066 100.613C220.038 101.162 219.85 101.692 219.525 102.135C219.2 102.579 218.751 102.918 218.235 103.109C217.719 103.3 217.159 103.336 216.623 103.212C216.087 103.087 215.599 102.808 215.22 102.409C214.841 102.011 214.587 101.509 214.491 100.967C214.394 100.426 214.458 99.8676 214.676 99.3621C214.893 98.8567 215.254 98.4262 215.714 98.124C216.174 97.8218 216.712 97.6612 217.263 97.6621C218.025 97.6836 218.748 98.006 219.273 98.5589C219.798 99.1118 220.083 99.8502 220.066 100.613Z" fill="white"/>
<path d="M219.23 108.3H223.213C223.213 105.571 220.615 103.383 217.41 103.383C214.206 103.383 211.616 105.604 211.616 108.3H219.23Z" fill="white"/>
<path d="M180.57 18.9488C185.535 18.9488 189.561 14.707 189.561 9.47441C189.561 4.24184 185.535 0 180.57 0C175.604 0 171.579 4.24184 171.579 9.47441C171.579 14.707 175.604 18.9488 180.57 18.9488Z" fill="#43C4D9"/>
<path d="M182.66 7.37646C182.66 7.96335 182.426 8.5262 182.012 8.9412C181.597 9.3562 181.034 9.58934 180.447 9.58934C179.86 9.58934 179.297 9.3562 178.882 8.9412C178.467 8.5262 178.234 7.96335 178.234 7.37646C178.234 6.78956 178.467 6.22671 178.882 5.81171C179.297 5.39672 179.86 5.16357 180.447 5.16357C181.034 5.16357 181.597 5.39672 182.012 5.81171C182.426 6.22671 182.66 6.78956 182.66 7.37646Z" fill="white"/>
<path d="M182.02 13.4001H185.159C185.159 11.2446 183.11 9.49072 180.586 9.49072C178.062 9.49072 176.013 11.2446 176.013 13.4001H182.02Z" fill="white"/>
<path d="M188.577 148.705C188.503 150.156 188.005 151.553 187.145 152.723C186.285 153.893 185.1 154.784 183.737 155.287C182.375 155.79 180.895 155.881 179.48 155.551C178.066 155.22 176.78 154.482 175.782 153.427C174.784 152.372 174.117 151.047 173.865 149.617C173.613 148.187 173.786 146.714 174.363 145.381C174.94 144.049 175.895 142.915 177.111 142.12C178.326 141.325 179.749 140.905 181.201 140.911C183.21 140.973 185.114 141.828 186.496 143.288C187.877 144.748 188.626 146.696 188.577 148.705Z" fill="#81D0D4"/>
<path d="M182.84 146.952C182.821 147.307 182.698 147.648 182.487 147.934C182.275 148.22 181.985 148.438 181.651 148.561C181.318 148.684 180.955 148.706 180.609 148.625C180.263 148.544 179.948 148.363 179.703 148.105C179.458 147.847 179.295 147.524 179.232 147.173C179.169 146.823 179.211 146.463 179.351 146.136C179.491 145.809 179.724 145.531 180.021 145.335C180.317 145.139 180.665 145.034 181.02 145.034C181.266 145.04 181.508 145.095 181.732 145.195C181.956 145.294 182.159 145.437 182.328 145.616C182.497 145.794 182.629 146.003 182.717 146.233C182.805 146.462 182.846 146.706 182.84 146.952Z" fill="white"/>
<path d="M182.307 151.943H184.897C184.897 150.164 183.209 148.73 181.127 148.73C179.045 148.73 177.357 150.164 177.357 151.943H182.307Z" fill="white"/>
<path d="M195.953 188.382C195.87 189.819 195.368 191.201 194.508 192.357C193.649 193.513 192.47 194.392 191.117 194.885C189.764 195.379 188.296 195.465 186.894 195.134C185.493 194.803 184.219 194.069 183.229 193.023C182.24 191.976 181.578 190.663 181.327 189.245C181.075 187.827 181.244 186.366 181.812 185.043C182.381 183.72 183.325 182.592 184.527 181.799C185.729 181.005 187.137 180.582 188.577 180.579C190.589 180.639 192.495 181.494 193.877 182.956C195.26 184.419 196.006 186.37 195.953 188.382Z" fill="#43C4D9"/>
<path d="M190.257 186.619C190.24 186.977 190.118 187.321 189.906 187.61C189.694 187.899 189.403 188.119 189.067 188.243C188.731 188.367 188.367 188.391 188.018 188.31C187.669 188.229 187.352 188.047 187.106 187.787C186.86 187.528 186.695 187.201 186.632 186.849C186.57 186.497 186.612 186.134 186.754 185.805C186.896 185.476 187.131 185.197 187.43 185.001C187.73 184.804 188.08 184.701 188.438 184.702C188.933 184.717 189.402 184.927 189.743 185.286C190.083 185.645 190.268 186.124 190.257 186.619Z" fill="white"/>
<path d="M189.716 191.611H192.298C192.298 189.832 190.61 188.398 188.536 188.398C186.463 188.398 184.766 189.832 184.766 191.611H189.716Z" fill="white"/>
<path d="M97.1687 157.623C97.2061 159.17 96.6283 160.669 95.5619 161.791C94.4956 162.912 93.0278 163.565 91.4807 163.606C89.9592 163.508 88.5318 162.835 87.4888 161.723C86.4457 160.611 85.8652 159.144 85.8652 157.619C85.8652 156.094 86.4457 154.627 87.4888 153.515C88.5318 152.403 89.9592 151.729 91.4807 151.632C93.0293 151.673 94.4983 152.327 95.5649 153.45C96.6314 154.573 97.2083 156.074 97.1687 157.623Z" fill="#81D0D4"/>
<path d="M92.8084 156.271C92.7939 156.544 92.6997 156.808 92.5372 157.028C92.3747 157.249 92.1511 157.417 91.8941 157.512C91.637 157.607 91.3579 157.624 91.091 157.562C90.8242 157.5 90.5814 157.361 90.3927 157.162C90.204 156.964 90.0777 156.714 90.0293 156.444C89.981 156.175 90.0127 155.897 90.1206 155.645C90.2285 155.393 90.4079 155.178 90.6365 155.027C90.8651 154.876 91.1329 154.796 91.4069 154.795C91.788 154.806 92.1494 154.967 92.4121 155.244C92.6747 155.52 92.8172 155.889 92.8084 156.271Z" fill="white"/>
<path d="M92.3905 160.106H94.3739C94.3113 159.399 93.9727 158.744 93.4313 158.284C92.89 157.824 92.1893 157.595 91.4808 157.647C90.7723 157.595 90.0716 157.824 89.5303 158.284C88.9889 158.744 88.6503 159.399 88.5876 160.106H92.3905Z" fill="white"/>
<path d="M99.5454 75.5169C99.5454 81.3032 95.0951 85.9912 89.5956 85.9912C84.0962 85.9912 79.6541 81.3032 79.6541 75.5169C79.6541 69.7306 84.1044 65.0508 89.5956 65.0508C95.0869 65.0508 99.5454 69.7388 99.5454 75.5169Z" fill="#335AA9"/>
<path d="M91.9151 73.1565C91.8926 73.6373 91.7296 74.1009 91.4461 74.4899C91.1626 74.8788 90.7712 75.176 90.3205 75.3447C89.8697 75.5133 89.3793 75.5459 88.9102 75.4385C88.441 75.331 88.0137 75.0883 87.6812 74.7403C87.3487 74.3923 87.1257 73.9544 87.0398 73.4808C86.9538 73.0072 87.0088 72.5189 87.1978 72.0762C87.3868 71.6336 87.7015 71.2562 88.103 70.9907C88.5045 70.7253 88.975 70.5835 89.4563 70.583C89.7868 70.5905 90.1125 70.6629 90.4149 70.7963C90.7174 70.9297 90.9906 71.1214 91.2189 71.3603C91.4472 71.5993 91.6262 71.881 91.7457 72.1892C91.8651 72.4973 91.9227 72.8261 91.9151 73.1565Z" fill="white"/>
<path d="M91.1857 79.8607H94.6607C94.6607 77.4757 92.3905 75.5415 89.5957 75.5415C86.8009 75.5415 84.5388 77.4757 84.5388 79.8607H91.1857Z" fill="white"/>
<path d="M221.664 60.3462C221.606 61.5107 221.208 62.6327 220.519 63.5731C219.829 64.5136 218.879 65.2312 217.786 65.637C216.693 66.0428 215.505 66.119 214.369 65.8562C213.234 65.5934 212.2 65.0031 211.396 64.1584C210.592 63.3138 210.054 62.2519 209.848 61.1043C209.642 59.9567 209.777 58.7739 210.237 57.7024C210.696 56.6309 211.46 55.7177 212.434 55.0761C213.407 54.4345 214.548 54.0926 215.713 54.0928C217.331 54.1357 218.865 54.818 219.981 55.9901C221.096 57.1623 221.701 58.7287 221.664 60.3462Z" fill="#335AA9"/>
<path d="M217.099 58.9283C217.081 59.2136 216.98 59.4876 216.809 59.7165C216.638 59.9455 216.404 60.1194 216.135 60.217C215.867 60.3146 215.575 60.3316 215.297 60.2659C215.019 60.2001 214.766 60.0546 214.569 59.8471C214.373 59.6396 214.241 59.3791 214.19 59.0978C214.14 58.8165 214.172 58.5265 214.284 58.2635C214.396 58.0005 214.583 57.7759 214.821 57.6174C215.058 57.4588 215.337 57.3732 215.623 57.3711C215.823 57.3753 216.019 57.4191 216.202 57.4999C216.384 57.5806 216.549 57.6968 216.686 57.8416C216.823 57.9865 216.93 58.1571 217.001 58.3436C217.072 58.5302 217.105 58.7289 217.099 58.9283Z" fill="white"/>
<path d="M216.664 62.9442H218.746C218.633 62.2222 218.266 61.5643 217.71 61.0892C217.155 60.6141 216.448 60.353 215.718 60.353C214.987 60.353 214.28 60.6141 213.725 61.0892C213.169 61.5643 212.802 62.2222 212.689 62.9442H216.664Z" fill="white"/>
<path d="M105.963 145.829C105.233 149.271 100.398 156.205 99.9306 164.589C99.2585 176.621 100.676 201.233 100.644 204.831C100.611 208.429 99.1848 219.944 98.9553 226.903C98.7258 233.861 99.2421 251.777 99.2421 251.777H103.34C103.34 251.777 106.332 235.738 107.725 227.829C108.886 220.337 109.505 212.772 109.577 205.192C109.577 201.233 117.06 160.631 117.06 160.631L107.094 145.829H105.963Z" fill="#2A4C90"/>
<path d="M133.608 204.675C133.608 201.061 135.05 176.367 134.353 164.294C133.979 157.955 133.122 151.653 131.788 145.444H129.231L116.527 160.295C116.527 160.295 124.313 201.028 124.313 205.003C124.388 212.611 125.029 220.202 126.231 227.714C127.682 235.647 130.796 251.744 130.796 251.744H135.05C135.05 251.744 135.599 233.779 135.361 226.788C135.124 219.797 133.665 208.281 133.608 204.675Z" fill="#2A4C90"/>
<path d="M105.184 243.008L103.586 253.211H98.7832V242.45L105.184 243.008Z" fill="#FCC3A0"/>
<path d="M104.356 252.482C104.356 252.482 105.176 256.735 105.307 257.768C105.438 258.801 104.488 258.94 102.717 258.94H97.144C96.9474 258.923 96.7573 258.861 96.5885 258.759C96.4197 258.656 96.2767 258.517 96.1705 258.35C96.0644 258.184 95.9979 257.995 95.9763 257.799C95.9546 257.603 95.9784 257.405 96.0458 257.219C96.691 255.579 97.4695 253.995 98.3734 252.482C98.6275 251.957 104.258 251.99 104.356 252.482Z" fill="#322875"/>
<path d="M129.206 243.008L130.714 253.211H135.238V242.45L129.206 243.008Z" fill="#FCC3A0"/>
<path d="M129.985 252.482C129.985 252.482 129.165 256.735 129.083 257.768C129.001 258.801 129.903 258.94 131.542 258.94H136.796C136.989 258.919 137.174 258.853 137.337 258.748C137.501 258.643 137.638 258.502 137.738 258.335C137.838 258.169 137.898 257.981 137.914 257.788C137.929 257.594 137.9 257.399 137.828 257.219C137.22 255.587 136.489 254.003 135.64 252.482C135.386 251.957 130.083 251.99 129.985 252.482Z" fill="#322875"/>
<path d="M132.026 145.796L106.528 145.141C104.594 153.623 100.103 165.024 100.103 165.024L115.732 167.368C115.72 165.817 115.863 164.268 116.158 162.745C116.634 160.508 117.175 160.287 117.65 160.975C118.125 161.663 118.552 167.368 118.552 167.368L134.394 165.311C134.394 165.311 134.23 160.623 133.46 153.705C133.17 151.038 132.691 148.395 132.026 145.796Z" fill="#2A4C90"/>
<path d="M77.9329 104.342C75.4742 99.9159 78.1133 101.612 81.703 103.465C85.2928 105.317 112.7 122.315 105.242 125.692C98.0538 128.962 80.3261 108.776 77.9329 104.342Z" fill="#FCC9A1"/>
<path d="M126.657 79.7129H117.068V91.7034H126.657V79.7129Z" fill="#FAB085"/>
<path d="M102.094 111.095L100.455 116.275C100.455 116.275 102.709 125.634 105.241 125.692C108.774 125.765 112.413 112.857 112.413 112.857L102.094 111.095Z" fill="#F6E4E7"/>
<path d="M133.558 72.0496C133.181 77.9261 130.468 82.7043 126.657 82.7043C122.846 82.7043 119.732 77.9343 119.732 72.0496C119.732 66.165 122.813 61.395 126.624 61.395C130.435 61.395 134.197 62.149 133.558 72.0496Z" fill="#FCC9A1"/>
<path d="M108.495 94.3505L115.872 89.056C115.872 89.056 123.108 87.6463 126.641 88.3512C130.173 89.056 140.574 93.3342 148.811 93.3342C146.86 101.596 148.335 104.358 148.335 104.358H145.278C139.492 104.358 134.624 104.358 133.558 104.358C137.599 108.587 134.722 115.701 130.559 120.086C130.559 131.412 133.665 147.525 133.665 147.525H102.422C103.106 143.627 104.205 139.814 105.7 136.149C108.315 129.453 109.471 127.068 108.077 120.069C106.446 111.627 108.495 94.3505 108.495 94.3505Z" fill="white"/>
<path d="M155.794 75.1726L156.097 62.1494C156.097 62.1494 157.335 63.6984 157.736 62.8788C158.072 62.1904 159.539 61.9937 159.187 63.4689C159.015 64.2066 160.637 61.9937 160.711 63.9279C160.711 64.6573 162.055 63.6165 162.023 64.7475C161.895 65.8792 161.709 67.0035 161.465 68.116C160.973 70.8534 159.08 71.9353 159.006 74.517C158.933 77.0987 155.794 75.1726 155.794 75.1726Z" fill="#FCC9A1"/>
<path d="M156.253 63.1983L156.056 62.1492C156.056 62.1492 157.285 60.3052 157.826 59.6905C158.367 59.0758 159.564 58.2152 160.211 57.4858C160.859 56.7564 160.842 57.7808 160.711 58.0923C160.08 59.156 159.311 60.1316 158.425 60.9936C158.086 61.3582 157.851 61.8057 157.741 62.2908C157.632 62.7758 157.653 63.2812 157.802 63.7556C158.17 65.1817 156.253 63.1983 156.253 63.1983Z" fill="#FCC9A1"/>
<path d="M100.439 72.0498C104.824 67.4273 108.323 69.296 110.339 65.2554C111.241 63.4441 114.323 53.1665 120.724 53.1665C127.125 53.1665 136.369 56.0924 134.484 61.3788C132.599 66.6651 124.944 68.6075 124.944 72.0334C124.944 73.607 124.526 87.5399 119.732 91.7034C113.888 96.8095 130.649 102.604 119.732 114.103C114.585 119.52 109.503 111.824 100.406 118.955C97.6932 121.077 88.4319 115.209 92.3905 111.037C95.259 108.021 89.3662 104.768 87.8828 101.481C85.7764 96.8422 89.0548 85.6795 95.0132 85.532C99.9307 85.4664 97.7506 74.8691 100.439 72.0498Z" fill="#F05553"/>
<path d="M147.18 97.9567C147.18 97.9567 154.261 78.2293 155.794 73.0167C157.244 68.0992 159.482 69.5991 159.154 73.2216C158.629 79.0161 160.105 97.9403 152.532 102.948C144.959 107.956 147.18 97.9567 147.18 97.9567Z" fill="#FCC9A1"/>
<path d="M81.7768 103.268C81.7768 103.268 82.5472 99.2272 82.5472 98.301C82.5472 97.3749 81.2195 96.2111 80.5638 95.5063C79.9081 94.8014 79.2197 95.2604 79.5721 96.711C79.9245 98.1617 81.7768 103.268 81.7768 103.268Z" fill="#FCC9A1"/>
<path d="M78.4903 104.022C78.4505 104.183 78.3785 104.335 78.2786 104.467C78.1787 104.6 78.053 104.711 77.909 104.794C77.765 104.877 77.6057 104.929 77.4408 104.949C77.2759 104.968 77.1087 104.954 76.9494 104.907L73.7285 103.629C73.4245 103.473 73.1915 103.208 73.0772 102.886C72.9629 102.565 72.976 102.211 73.1138 101.899L77.4822 89.6055C77.5238 89.4447 77.5973 89.2939 77.6984 89.1621C77.7995 89.0303 77.9261 88.9202 78.0706 88.8383C78.2152 88.7565 78.3747 88.7046 78.5397 88.6857C78.7048 88.6669 78.8719 88.6814 79.0312 88.7285L82.2522 89.9989C82.5668 90.1604 82.8056 90.4387 82.9175 90.7743C83.0293 91.1098 83.0052 91.4758 82.8505 91.7938L78.4903 104.022Z" fill="#322875"/>
<path d="M82.2603 103.776C82.2603 103.776 81.1129 98.7764 79.8999 97.4979C78.6869 96.2193 76.1462 93.195 75.3758 92.3837C74.6054 91.5723 73.6055 90.9904 73.6055 92.3837C73.6055 93.777 74.9332 95.0719 74.4906 96.916C74.048 98.76 73.7202 99.1862 74.7119 101.538C75.7036 103.891 77.7936 106.194 79.6294 106.841C82.3259 105.054 82.2603 103.776 82.2603 103.776Z" fill="#FCC9A1"/>
</svg>
