<svg xmlns="http://www.w3.org/2000/svg" xmlns:xlink="http://www.w3.org/1999/xlink" viewBox="0 0 1237.8 290.15">
  <defs>
    <style>
      .cls-1 {
        fill: url(#linear-gradient);
      }

      .cls-2 {
        fill: #fff;
      }

      .cls-3 {
        fill: #2c58b1;
      }
    </style>
    <linearGradient id="linear-gradient" x1="271.94" y1="245.15" x2="1237.8" y2="245.15" gradientUnits="userSpaceOnUse">
      <stop offset="0" stop-color="#fff" stop-opacity="0"/>
      <stop offset="0.02" stop-color="#eef2f9" stop-opacity="0.08"/>
      <stop offset="0.08" stop-color="#c1cee8" stop-opacity="0.3"/>
      <stop offset="0.14" stop-color="#98aed9" stop-opacity="0.49"/>
      <stop offset="0.22" stop-color="#7693cd" stop-opacity="0.65"/>
      <stop offset="0.3" stop-color="#5b7dc2" stop-opacity="0.78"/>
      <stop offset="0.39" stop-color="#466cbb" stop-opacity="0.88"/>
      <stop offset="0.5" stop-color="#3761b5" stop-opacity="0.95"/>
      <stop offset="0.65" stop-color="#2e5ab2" stop-opacity="0.99"/>
      <stop offset="1" stop-color="#2c58b1"/>
    </linearGradient>
  </defs>
  <title>Asset 63</title>
  <g id="Layer_2" data-name="Layer 2">
    <g id="Logos_-_Flattened" data-name="Logos - Flattened">
      <g id="Covid_Watch_Forum_Logo_-_Blue" data-name="Covid Watch Forum Logo - Blue">
        <rect class="cls-1" x="271.94" y="200.15" width="965.86" height="90"/>
        <g id="Forum_outlines" data-name="Forum outlines">
          <path class="cls-2" d="M955.13,220.26h32.38v7.42H963.7v13.58h20.73v7.36H963.7v19.87h-8.57Z"/>
          <path class="cls-2" d="M994.61,244.44a21.63,21.63,0,0,1,2.13-9.47,25.62,25.62,0,0,1,5.86-7.88,27.51,27.51,0,0,1,8.68-5.4,29.37,29.37,0,0,1,21.1,0,28.16,28.16,0,0,1,8.72,5.4A26,26,0,0,1,1047,235a21.38,21.38,0,0,1,2.16,9.47A21.72,21.72,0,0,1,1047,254a25.18,25.18,0,0,1-5.93,7.85,27.8,27.8,0,0,1-8.72,5.26,30.5,30.5,0,0,1-21.14,0,27.6,27.6,0,0,1-8.64-5.23,24.47,24.47,0,0,1-5.86-7.82A22.11,22.11,0,0,1,994.61,244.44Zm8.8,0a15.84,15.84,0,0,0,1.42,6.69,17.06,17.06,0,0,0,4,5.47,18.87,18.87,0,0,0,5.93,3.68,19.94,19.94,0,0,0,7.33,1.32,19.27,19.27,0,0,0,7.14-1.32,18.24,18.24,0,0,0,5.82-3.68,17.43,17.43,0,0,0,3.92-5.47,15.85,15.85,0,0,0,1.43-6.69,15.6,15.6,0,0,0-1.47-6.75,18.22,18.22,0,0,0-4-5.5,17.79,17.79,0,0,0-5.86-3.71,20.45,20.45,0,0,0-14.51,0,18.13,18.13,0,0,0-5.89,3.71,16.76,16.76,0,0,0-3.92,5.53A16.41,16.41,0,0,0,1003.41,244.44Z"/>
          <path class="cls-2" d="M1075.56,220.26a30,30,0,0,1,8.06,1,18.17,18.17,0,0,1,6.23,3,13.92,13.92,0,0,1,4,4.87,14.69,14.69,0,0,1,1.43,6.6,17.7,17.7,0,0,1-1,5.69,13.76,13.76,0,0,1-3.11,5.14,15.88,15.88,0,0,1-5.68,3.71,23.28,23.28,0,0,1-8.71,1.42h-7.7v16.76h-8.57V220.26Zm1.17,24.05a11.81,11.81,0,0,0,4.76-.83,7.92,7.92,0,0,0,3-2.08,8.22,8.22,0,0,0,1.54-2.69,8.4,8.4,0,0,0,.48-2.68,9.08,9.08,0,0,0-.44-2.62,8.15,8.15,0,0,0-1.51-2.71,8,8,0,0,0-2.89-2.15,10.74,10.74,0,0,0-4.61-.87h-7.92v16.63Zm9.23,4.57,13.63,19.61h-9.89l-13.92-19.41Z"/>
          <path class="cls-2" d="M1117.32,251.13a9.08,9.08,0,0,0,1.64,5.24,11.66,11.66,0,0,0,4.36,3.77,13.12,13.12,0,0,0,6.08,1.4,13.84,13.84,0,0,0,6.3-1.4,11.2,11.2,0,0,0,4.4-3.77,9.2,9.2,0,0,0,1.61-5.24V220.26h8.42v31.07a15.81,15.81,0,0,1-2.78,9.25,18.62,18.62,0,0,1-7.47,6.22,25.66,25.66,0,0,1-20.88,0,18.3,18.3,0,0,1-7.43-6.22,15.93,15.93,0,0,1-2.75-9.25V220.26h8.5Z"/>
          <path class="cls-2" d="M1163.91,268.49v-50h.07l28.72,36.77-3.67-.73,28.57-36h.15v50h-8.5V236l.59,3.9-19.34,24.71h-.15l-19.63-24.71,1.46-3.57v32.19Z"/>
        </g>
        <path id="COVID_WATCH" data-name="COVID WATCH" class="cls-3" d="M353.35,143.47a38.17,38.17,0,0,1-6,3.64,55,55,0,0,1-10.73,4,49.32,49.32,0,0,1-14,1.62,56.07,56.07,0,0,1-21-4.25,46.07,46.07,0,0,1-15.66-10.87,47.81,47.81,0,0,1-9.78-15.79,53.31,53.31,0,0,1-3.38-19A60.45,60.45,0,0,1,276.19,82a47.5,47.5,0,0,1,9.86-16.33A44.29,44.29,0,0,1,301.37,55a50,50,0,0,1,19.71-3.78A53.33,53.33,0,0,1,338.77,54a61.09,61.09,0,0,1,12.55,5.81l-7.69,18.49a56.08,56.08,0,0,0-9-5.33,28.69,28.69,0,0,0-12.89-2.77,26,26,0,0,0-10.87,2.36,28.33,28.33,0,0,0-9.18,6.69,32.41,32.41,0,0,0-6.28,10.05,33.35,33.35,0,0,0-2.29,12.49,39.09,39.09,0,0,0,2.09,13.1,29.09,29.09,0,0,0,6,10.19,26.57,26.57,0,0,0,9.38,6.55A31.62,31.62,0,0,0,323,133.88a32.94,32.94,0,0,0,13.64-2.56,31.13,31.13,0,0,0,8.64-5.4Zm13.5-41.31a49,49,0,0,1,3.91-19.44,52.22,52.22,0,0,1,10.87-16.27,51.36,51.36,0,0,1,16.13-11.14,49.67,49.67,0,0,1,39.29,0,53.1,53.1,0,0,1,16.26,11.14,52,52,0,0,1,11.07,16.27,48.24,48.24,0,0,1,4,19.44,48.9,48.9,0,0,1-4,19.71A50.46,50.46,0,0,1,453.31,138a52.47,52.47,0,0,1-16.26,10.87,51.31,51.31,0,0,1-39.29,0,50.86,50.86,0,0,1-27-27A49.71,49.71,0,0,1,366.85,102.16Zm20.25,0a31.84,31.84,0,0,0,9,22.47,30.11,30.11,0,0,0,22.07,9.25,28.59,28.59,0,0,0,21.34-9.25,32.63,32.63,0,0,0,6.34-10.12,34.53,34.53,0,0,0-.07-24.91,32.57,32.57,0,0,0-6.48-10.19,29.07,29.07,0,0,0-9.65-6.82,30.92,30.92,0,0,0-24,0,29.87,29.87,0,0,0-9.72,6.82,31.19,31.19,0,0,0-6.48,10.19A33.87,33.87,0,0,0,387.1,102.16ZM496.18,52.34l29,71.55-11.34-2.29,26.33-69.26h23.22l-45.36,104L472.69,52.34Zm84.37,0h19.58V151.7H580.55Zm45.22,99.36V52.34h29.7q15,0,25.52,4.46a45.12,45.12,0,0,1,16.94,11.88,47.65,47.65,0,0,1,9.38,16.6,59.79,59.79,0,0,1,3,18.5,48.06,48.06,0,0,1-4,19.91,45.5,45.5,0,0,1-10.87,15.12,47.68,47.68,0,0,1-15.93,9.58,55.26,55.26,0,0,1-19.17,3.31Zm19.58-18.9H657a43.71,43.71,0,0,0,13.5-2,29.68,29.68,0,0,0,10.46-5.73,24.73,24.73,0,0,0,6.75-9.52A34.44,34.44,0,0,0,690,102.43q0-9.72-3.17-15.87A26.36,26.36,0,0,0,679,77.05a28.61,28.61,0,0,0-9.52-4.66,33,33,0,0,0-8.23-1.28H645.35ZM765.23,53h22.95l21.19,62.37-3.1-1.35,18.49-46,9,26.87-28.62,61.42ZM815,53h19.44l24.44,60.34-3.51-.54L873.63,53h21.06L856.35,156Zm72.09,98.68L932,48.43H933L977.85,151.7H955.17L926.55,79.07l14.18-9.72L906.44,151.7Zm30.65-35.91h29.83l6.89,16.47H911.7Zm59.67-63.45h67v18.9h-24.17V151.7h-19.57V71.24H977.45Zm157,91.13a37.94,37.94,0,0,1-6,3.64,55.07,55.07,0,0,1-10.74,4,49.32,49.32,0,0,1-14,1.62,56,56,0,0,1-21-4.25A46.07,46.07,0,0,1,1067,137.66a47.84,47.84,0,0,1-9.79-15.79,53.31,53.31,0,0,1-3.37-19A60.45,60.45,0,0,1,1057.3,82a47.5,47.5,0,0,1,9.86-16.33A44.29,44.29,0,0,1,1082.48,55a50,50,0,0,1,19.71-3.78,53.27,53.27,0,0,1,17.68,2.7,61.2,61.2,0,0,1,12.56,5.81l-7.7,18.49a55.93,55.93,0,0,0-9-5.33,28.73,28.73,0,0,0-12.9-2.77A26,26,0,0,0,1092,72.52a28.33,28.33,0,0,0-9.18,6.69,32.41,32.41,0,0,0-6.28,10.05,33.35,33.35,0,0,0-2.3,12.49,39.08,39.08,0,0,0,2.1,13.1,29.07,29.07,0,0,0,6,10.19,26.61,26.61,0,0,0,9.39,6.55,31.62,31.62,0,0,0,12.35,2.29,32.89,32.89,0,0,0,13.63-2.56,31.13,31.13,0,0,0,8.64-5.4Zm103.14-91.13V151.7H1218V111.34H1173.6V151.7H1154V52.34h19.57v40.1H1218V52.34Z"/>
        <path id="BRANDMARK" class="cls-3" d="M203,95.73a13.38,13.38,0,0,0-21.15-2.81c-4.07,4-8.61,6.91-14.47,6.8a53.1,53.1,0,0,1-10-1.23,12.06,12.06,0,0,1-3.38-1.26,4.06,4.06,0,0,1-2-2.89A50,50,0,0,0,143,73a4,4,0,0,1-.55-3.79c.1-.27.22-.54.35-.81,2.67-5.45,6.19-10.42,11.8-13.4,3.46-1.85,7.24-2,11.07-2.11a13.41,13.41,0,1,0-13.75-13.37c-.05,5.71-1.21,11-5.43,15a52.74,52.74,0,0,1-8,6.22,12,12,0,0,1-3.55,1.58,4.08,4.08,0,0,1-3.37-.64A50,50,0,0,0,110.33,53a4,4,0,0,1-3.06-2.27,9,9,0,0,1-.38-1c-2-5.74-3-11.74-1.14-17.81,1.15-3.76,3.69-6.56,6.34-9.32a13.41,13.41,0,1,0-19.17.26c4,4.07,6.91,8.62,6.8,14.48a53,53,0,0,1-1.23,10,11.49,11.49,0,0,1-1.55,3.85A4,4,0,0,1,94.21,53,49.81,49.81,0,0,0,73,61.81a4,4,0,0,1-3.76.54c-.29-.11-.58-.24-.88-.38C62.92,59.29,58,55.78,55,50.17c-1.85-3.47-2-7.25-2.11-11.08A13.4,13.4,0,1,0,39.49,52.84c5.71,0,11,1.21,15,5.43a53.33,53.33,0,0,1,6.22,8,11.56,11.56,0,0,1,1.55,3.46,4,4,0,0,1-.65,3.41,50.1,50.1,0,0,0-8.91,21.38,4,4,0,0,1-2.44,3.13c-.17.08-.36.14-.55.21C44,99.79,38,100.82,32,99c-3.76-1.15-6.56-3.7-9.32-6.35a13.41,13.41,0,1,0,.26,19.18c4.07-4,8.62-6.91,14.48-6.8a53,53,0,0,1,10,1.23,11.75,11.75,0,0,1,3.28,1.2,4.08,4.08,0,0,1,2,2.93,50,50,0,0,0,9,21.75,4,4,0,0,1,.38,4.08c0,.05,0,.1-.07.16-2.68,5.45-6.19,10.42-11.8,13.4-3.47,1.84-7.25,2-11.08,2.1a13.41,13.41,0,1,0,13.75,13.37c0-5.7,1.21-11,5.43-15a53.4,53.4,0,0,1,8-6.23A12.1,12.1,0,0,1,69,142.61a4.1,4.1,0,0,1,3.72.59,50,50,0,0,0,21.85,9.07,4,4,0,0,1,3.23,2.61l0,.07c2,5.75,3,11.75,1.14,17.82-1.15,3.76-3.7,6.56-6.35,9.32a13.41,13.41,0,1,0,19.18-.27c-4-4.07-6.91-8.61-6.8-14.47a53.1,53.1,0,0,1,1.23-10,12,12,0,0,1,1-2.84,4.1,4.1,0,0,1,3-2.22,50,50,0,0,0,21.9-9.16,4,4,0,0,1,4.1-.39l.11.05c5.45,2.67,10.42,6.19,13.4,11.8,1.84,3.46,2,7.24,2.1,11.07a13.41,13.41,0,1,0,13.37-13.75c-5.7-.05-11-1.21-15-5.43a52.81,52.81,0,0,1-6.23-8,12,12,0,0,1-1.41-3,4,4,0,0,1,.62-3.52A50.07,50.07,0,0,0,152,110.23a4,4,0,0,1,2.45-3.17l.46-.17c5.75-2,11.75-3,17.82-1.14,3.76,1.15,6.56,3.69,9.32,6.34A13.41,13.41,0,0,0,203,95.73Z"/>
      </g>
    </g>
  </g>
</svg>
