<svg width="389" height="389" viewBox="0 0 389 389" fill="none" xmlns="http://www.w3.org/2000/svg">
<path opacity="0.3" fill-rule="evenodd" clip-rule="evenodd" d="M286.334 296.971C267.04 315.219 248.734 335.66 221.938 340.607C192.395 346.06 158.69 343.957 131.894 325.479C105.285 307.13 94.11 274.234 82.2814 244.306C71.0274 215.831 61.1716 186.415 65.6238 157.802C70.16 128.649 85.3569 103.341 107.019 85.3225C128.558 67.4066 156.351 59.0347 185.53 58.0667C215.033 57.0879 246.515 61.257 272.007 79.849C296.915 98.0143 309.799 127.78 320.445 156.462C330.413 183.318 336.977 211.671 330.633 237.803C324.483 263.139 304.594 279.7 286.334 296.971Z" fill="url(#paint0_linear)" fill-opacity="0.4"/>
<path d="M152.152 203.93C152.152 203.93 153.667 205.099 154.818 205.948C155.968 206.797 157.192 207.947 156.982 209.052C156.874 209.656 156.703 210.247 156.47 210.814L155.165 211.024C154.584 211.022 154.013 210.884 153.494 210.623C152.976 210.362 152.526 209.983 152.179 209.518C151.084 207.957 148.856 204.04 148.856 204.04L152.152 203.93Z" fill="#F2B186"/>
<path d="M136.722 138.713C136.722 138.713 139.342 140.539 140.146 150.491C140.899 160.019 142.445 169.468 144.765 178.74C147.094 188.281 153.485 203.93 153.485 203.93L148.92 205.518C148.92 205.518 138.201 188.646 135.224 180.867C130.121 167.701 129.399 158.662 129.399 158.662L136.722 138.713Z" fill="#294D90"/>
<path d="M177.104 230.27C177.104 230.27 168.394 224.71 163.838 219.561C160.989 216.299 158.411 212.809 156.132 209.125L154.151 209.938C154.151 209.938 158.004 221.98 161.611 227.166C165.217 232.352 170.668 237.328 173.388 238.497C176.109 239.665 181.268 233.649 177.104 230.27Z" fill="#F2B186"/>
<path d="M137.489 206.733C137.489 206.733 139.315 207.646 140.602 208.367C141.889 209.088 143.442 210.056 143.442 211.398C143.47 212.125 143.433 212.852 143.332 213.571L142.072 214.147C141.49 214.3 140.877 214.297 140.296 214.136C139.716 213.976 139.188 213.664 138.767 213.234C137.315 211.718 134.202 207.838 134.202 207.838L137.489 206.733Z" fill="#FFCAA6"/>
<path d="M168.23 227.322L166.86 231.403H175.534V227.203L168.23 227.322Z" fill="#FFCAA6"/>
<path d="M182.153 273.1C182.153 273.1 186.189 286.111 189.613 285.737C193.037 285.362 203.619 278.606 203.619 278.606L202.322 275.392C202.322 275.392 194.945 276.597 191.594 278.423C191.996 273.776 190.754 267.33 190.754 267.33L182.153 273.1Z" fill="#FFCAA6"/>
<path d="M180.976 272.489L183.413 279.564C183.413 279.564 185.504 279.19 187.787 278.578C189.493 277.98 191.05 277.021 192.352 275.766C192.352 275.766 191.512 268.033 191.247 266.636C190.982 265.239 191.247 261.368 188.773 258.328C186.299 255.287 180.437 262.208 180.437 262.208L180.976 272.489Z" fill="#C2394E"/>
<path d="M169.773 268.005L167.582 301.623H171.133C172.372 298.486 173.436 295.282 174.32 292.027C175.05 288.722 174.584 287.58 175.105 286.211C175.625 284.841 180.583 274.05 181.587 269.201C182.592 264.353 169.773 268.005 169.773 268.005Z" fill="#FFCAA6"/>
<path d="M169.307 264.819L168.257 278.578C168.257 278.578 169.307 279.61 173.014 280.231C174.945 280.592 176.903 280.785 178.867 280.806C178.867 280.806 181.797 273.046 182.318 272.069C182.838 271.092 184.883 268.709 183.779 262.199C182.674 255.689 169.307 264.819 169.307 264.819Z" fill="#F05452"/>
<path d="M165.61 230.243C167.856 230.625 170.133 230.805 172.412 230.782C176.52 230.782 176.675 230.024 178.273 231.467C179.871 232.909 191.631 259.514 191.631 259.514C191.631 259.514 187.805 262.254 179.305 264.198C170.805 266.143 165.61 265.504 165.61 265.504C165.61 265.504 161.894 240.049 162.058 236.287C162.222 232.526 165.61 230.243 165.61 230.243Z" fill="#F5E5E6"/>
<path d="M123.063 281.372C123.017 278.514 122.89 275.794 122.707 273.237L122.196 189.486L114.663 188.902V189.185H101.543L102.347 212.923C102 210.96 108.09 238.917 110.829 257.223C111.203 259.661 110.829 268.563 111.641 277.017C112.454 285.472 117.293 301.55 117.293 301.55L123.09 301.65C123.09 301.65 123.227 291.68 123.063 281.372Z" fill="#C2394E"/>
<path d="M88.9253 189.021C88.9253 189.021 87.3914 196.653 86.5423 215.726C85.7206 233.932 86.5423 252.247 86.3141 256.812H98.2563L107.633 212.357L109.706 188.875L88.9253 189.021Z" fill="#F05452"/>
<path d="M117.311 300.619C117.311 300.619 116.398 304.773 117.503 304.782C118.607 304.791 127.409 304.28 127.409 304.28C127.409 304.28 129.518 303.276 128.669 302.153C127.82 301.03 123.136 301.24 123.191 300.226C122.67 299.34 117.311 300.619 117.311 300.619Z" fill="#322875"/>
<path d="M171.206 301.193C171.206 301.193 172.211 304.343 171.38 304.426C170.549 304.508 164.076 304.782 164.076 304.782C164.076 304.782 162.451 304.152 162.998 303.22C163.546 302.289 166.988 302.097 166.87 301.321C167.18 300.6 171.206 301.193 171.206 301.193Z" fill="#322875"/>
<path d="M201.537 275.474C201.537 275.474 204.166 273.475 204.522 274.223C204.878 274.972 207.261 281.007 207.261 281.007C207.261 281.007 207.261 282.742 206.157 282.541C205.052 282.34 203.755 279.163 203.071 279.528C202.322 279.473 201.537 275.474 201.537 275.474Z" fill="#322875"/>
<path d="M67.4055 288.338C67.4055 288.338 63.3973 290.402 64.0912 291.36C64.7851 292.319 70.5554 299.368 70.5554 299.368C70.5554 299.368 72.6097 300.509 72.911 299.103C73.2123 297.697 69.5785 292.84 71.2402 291.653C71.5688 290.667 67.4055 288.338 67.4055 288.338Z" fill="#322875"/>
<path d="M97.4164 257.451L71.8519 292.054L66.3099 288.585C66.3099 288.585 72.3723 273.155 77.7226 265.759C83.0729 258.364 86.305 254.31 87.8571 251.462C89.4092 248.613 97.4164 257.451 97.4164 257.451Z" fill="#F05452"/>
<path d="M120.717 130.907C117.567 129.674 109.706 129.145 105.78 130.861C101.854 132.577 102.502 134.906 100.53 138.613C92.7326 153.221 89.464 175.69 87.1814 192.124C91.6187 195.229 99.1237 195.128 104.529 195.923C109.934 196.717 115.622 196.123 121.054 196.087C121.876 196.087 123.328 196.224 123.94 195.667C124.725 194.937 123.784 191.641 123.693 190.563C123.1 183.606 125.318 174.348 127.975 167.893C130.632 161.438 134.028 155.293 136.64 148.82C137.621 146.769 138.118 144.52 138.091 142.246C137.845 139.124 135.471 136.768 132.75 135.618C128.778 133.92 124.716 132.477 120.717 130.907Z" fill="#335AA9"/>
<path d="M120.817 124.123L118.178 130.14C118.178 130.14 118.26 135.718 122.46 136.531C123.536 136.814 124.681 136.663 125.646 136.109C126.611 135.556 127.32 134.644 127.619 133.573C127.354 133.216 127.171 132.805 127.083 132.37C126.994 131.934 127.003 131.485 127.108 131.053C127.642 129.271 128.279 127.521 129.016 125.812L120.817 124.123Z" fill="#FFCAA6"/>
<path d="M128.779 126.406C127.47 127.152 125.954 127.45 124.46 127.255C122.369 126.798 121.767 121.64 121.767 121.64L119.867 126.296C120.059 127.15 120.465 127.941 121.049 128.593C121.632 129.245 122.373 129.737 123.2 130.021C126.176 131.208 127.181 130.788 127.181 130.788L128.779 126.406Z" fill="#F2B186"/>
<path d="M98.2563 256.83C97.9034 257.964 97.3431 259.023 96.6037 259.953C95.4077 261.423 89.6557 267.969 89.6557 267.969L94.2208 253.726L97.4255 254.511L98.2563 256.83Z" fill="#F05452"/>
<path d="M123.857 108.063C120.013 116.28 120.488 126.168 125.683 128.597C130.878 131.026 138.785 125.073 142.629 116.874C146.473 108.675 144.793 101.352 139.616 98.8965C134.439 96.4405 127.71 99.8643 123.857 108.063Z" fill="#FFCAA6"/>
<path d="M183.386 221.889C179.67 227.668 172.585 231.019 168.257 228.234C163.93 225.45 164.021 217.625 167.728 211.8C171.435 205.975 177.378 204.496 181.697 207.235C186.016 209.974 187.093 216.1 183.386 221.889Z" fill="#FFCAA6"/>
<path d="M133.499 104.274C134.789 105.9 136.448 107.196 138.338 108.054C141.634 109.634 142.903 107.378 143.761 108.848C144.619 110.318 143.442 115.532 140.894 120.015C144.473 115.477 148.061 106.173 146.181 101.836C144.3 97.4996 137.854 96.2305 135.224 96.2944C132.595 96.3583 127.811 92.2406 123.921 96.3583C115.385 105.489 118.014 115.166 121.328 118.8C126.797 111.432 127.418 99.0974 133.499 104.274Z" fill="#BBBDBF"/>
<path d="M138.064 206.322C138.064 206.322 127.363 186.646 121.922 169.244C116.48 151.842 113.869 136.294 111.34 132.724C108.811 129.154 99.1146 128.049 98.8133 145.506C98.512 162.963 114.335 188.418 133.435 208.504C135.571 208.294 138.064 206.322 138.064 206.322Z" fill="#294D90"/>
<path d="M168.257 230.572C168.257 230.572 158.333 226.418 152.645 221.67C149.026 218.605 145.666 215.246 142.602 211.627L140.775 213.07C140.775 213.07 147.367 226.007 152.133 231.029C156.899 236.05 163.427 240.387 166.404 241.017C169.38 241.647 173.169 233.402 168.257 230.572Z" fill="#FFCAA6"/>
<path d="M167.983 228.052C168.957 228.09 169.923 227.863 170.777 227.395C172.832 226.363 173.096 226.18 173.936 226.655C174.776 227.13 176.027 228.015 176.027 228.015L175.534 230.627C175.534 230.627 174.575 231.476 168.23 230.627L167.244 230.198L167.983 228.052Z" fill="#F2B186"/>
<path d="M178.136 205.172C178.136 205.172 175.452 202.624 172.941 203.93C170.43 205.236 170.659 207.116 169.736 207.856C168.814 208.595 166.276 210.422 166.377 213.508C166.477 216.594 168.997 219.214 168.769 221.159C168.54 223.103 168.431 227.878 174.648 229.23C180.866 230.581 182.93 228.006 183.614 226.061C184.299 224.117 187.951 221.442 188.289 217.589C188.627 213.736 187.668 213.27 186.636 211.024C185.605 208.778 185.522 205.172 178.136 205.172Z" fill="#F05452"/>
<path d="M166.86 241.053L170.832 265.495C169.093 265.728 167.33 265.728 165.591 265.495C165.044 261.678 162.186 239.118 162.186 239.118C162.186 239.118 164.952 240.998 166.86 241.053Z" fill="#D3C0DB"/>
<path d="M293.834 203.665C293.834 203.665 293.487 198.671 299.531 196.918C305.575 195.165 308.469 198.936 313.108 199.894C317.746 200.853 319.763 189.303 328.875 193.375C337.987 197.447 329.314 202.259 328.528 206.815C327.743 211.371 328.264 218.228 318.403 223.249C308.542 228.271 300.143 227.577 295.304 224.162C290.465 220.748 292.391 215.388 292.126 213.553C291.862 211.718 288.611 206.185 293.834 203.665Z" fill="#4C266E"/>
<path d="M261.084 113.706C261.084 113.706 261.522 118.755 263.722 120.462C265.923 122.169 269.995 122.79 270.972 128.424C271.949 134.057 268.233 135.682 264.699 135.445C261.166 135.207 258.728 132.021 254.757 133.327C250.785 134.632 244.914 137.691 238.815 135.463C232.716 133.235 234.086 130.14 231.319 129.227C228.553 128.314 225.613 127.638 225.275 123.749C224.937 119.86 226.864 117.148 230.288 116.783C233.712 116.417 234.707 115.769 235.337 113.441C235.967 111.113 261.084 113.706 261.084 113.706Z" fill="#D0D2D3"/>
<path d="M296.828 289.918C297.588 291.112 298.48 292.218 299.485 293.214C300.49 293.981 299.978 295.807 299.85 295.843C299.723 295.88 297.111 296.756 297.111 296.756L292.044 291.351L296.828 289.918Z" fill="#FFCAA6"/>
<path d="M243.873 301.824L243.207 298.948L248.019 299.222L248.265 302.737L243.873 301.824Z" fill="#FFCAA6"/>
<path d="M221.961 193.375C221.961 193.375 220.728 212.695 225.047 228.983C229.366 245.271 242.467 299.961 242.467 299.961H248.968C248.968 299.961 249.352 282.897 248.393 276.095C247.434 269.293 244.631 261.377 244.312 258.181C243.992 254.986 243.627 229.704 242.787 215.79C241.947 201.876 239.884 194.243 239.884 194.243L221.961 193.375Z" fill="#294D90"/>
<path d="M233.83 193.741C233.83 193.741 239.226 213.535 240.669 216.657C242.111 219.78 258.062 252.265 263.339 259.131C268.616 265.997 292.501 293.88 292.501 293.88C292.501 293.88 297.979 293.552 298.253 290.548C297.057 284.796 286.74 269.923 283.38 265.248C280.02 260.573 275.299 256.291 273.382 252.685C271.465 249.079 266.142 215.06 260.025 203.656C253.907 192.252 248.849 189.34 248.849 189.34L233.83 193.741Z" fill="#335AA9"/>
<path d="M236.944 114.719C235.729 123.758 239.181 133.107 244.887 133.893C250.593 134.678 256.409 126.588 257.623 117.513C258.838 108.438 255.012 101.928 249.352 101.161C243.691 100.394 238.167 105.68 236.944 114.719Z" fill="#E7AD83"/>
<path d="M251.497 143.835C253.387 145.031 254.811 146.574 254.748 148.793C254.606 151.027 254.081 153.22 253.195 155.275C251.315 160.096 249.224 165.209 247.809 170.185C246.393 175.161 245.782 183.113 248.822 187.295C249.859 188.412 250.993 189.435 252.209 190.354C252.209 190.354 250.447 192.746 244.65 194.444C236.852 196.717 229.073 196.179 221.103 194.654C221.608 186.893 222.116 179.133 222.628 171.372C222.746 169.473 222.856 167.492 222.08 165.757C221.304 164.022 219.733 162.753 219.039 161C217.98 158.316 219.231 155.275 220.865 152.92C222.5 150.564 224.645 148.446 225.631 145.734C226.344 143.762 226.435 141.516 227.667 139.818C230.215 136.285 235.392 136.933 238.843 138.467C242.595 140.128 247.462 141.279 251.497 143.835Z" fill="#C1E2ED"/>
<path d="M248.521 306.115H237.793C237.688 306.115 237.587 306.074 237.512 306C237.437 305.927 237.393 305.827 237.391 305.722C237.39 305.255 237.555 304.802 237.857 304.444C238.541 303.531 241.098 303.084 242.422 303.248C243.746 303.412 243.864 302.618 243.572 301.924C243.28 301.23 244.741 300.783 245.398 301.112C245.857 301.367 246.261 301.712 246.585 302.125C246.585 302.125 246.786 301.212 247.562 301.212C248.338 301.212 248.475 301.897 248.475 302.344C248.475 302.791 249.306 304.17 248.932 305.823C248.905 305.91 248.851 305.986 248.776 306.039C248.702 306.092 248.612 306.119 248.521 306.115Z" fill="#322875"/>
<path d="M302.59 295.287L296.646 304.225C296.588 304.312 296.498 304.373 296.396 304.396C296.294 304.418 296.187 304.399 296.098 304.344C295.709 304.085 295.425 303.697 295.295 303.248C294.929 302.18 295.952 299.788 296.81 298.793C297.668 297.797 297.084 297.24 296.345 297.103C295.605 296.966 296.646 295.277 297.367 295.15C298.937 294.903 299.038 294.063 299.038 294.063C299.038 294.063 297.942 293.387 298.371 292.739C298.801 292.091 299.431 292.739 299.832 292.986C300.863 293.396 301.796 294.018 302.571 294.812C302.626 294.878 302.657 294.96 302.66 295.046C302.664 295.132 302.639 295.216 302.59 295.287Z" fill="#322875"/>
<path d="M258.838 151.139C258.838 151.139 271.547 168.094 275.628 167.482C279.709 166.87 296.025 158.562 296.025 158.562L297.915 161.301C297.915 161.301 277.993 176.822 272.853 176.311C267.712 175.8 252.903 160.269 252.903 160.269L258.838 151.139Z" fill="#E7AD83"/>
<path d="M296.025 158.526C296.697 157.868 297.588 157.482 298.527 157.439C300.042 157.439 303.028 157.649 303.886 157.193C304.744 156.736 306.141 154.107 307.41 154.508C308.679 154.91 305.904 159.073 304.616 160.26C303.329 161.447 297.385 161.776 296.783 161.256C296.18 160.735 296.025 158.526 296.025 158.526Z" fill="#E7AD83"/>
<path d="M226.983 136.257C226.983 136.257 201.418 132.148 199.83 130.478C198.241 128.807 186.08 105.16 186.08 105.16L182.893 106.401C182.893 106.401 190.526 134.312 195.967 138.001C201.409 141.689 223.787 146.894 223.787 146.894L226.983 136.257Z" fill="#E7AD83"/>
<path d="M186.079 105.16C185.626 104.267 184.891 103.549 183.989 103.115C182.614 102.653 181.304 102.018 180.09 101.225C179.497 100.677 178.072 97.7919 177.196 98.4127C176.319 99.0336 176.228 101.891 177.652 103.489C179.077 105.087 182.519 107.05 183.815 106.794C184.732 106.52 185.53 105.944 186.079 105.16Z" fill="#E7AD83"/>
<path d="M236.98 137.782C237.509 137.739 238.014 137.544 238.433 137.22C238.853 136.896 239.17 136.457 239.345 135.956C239.976 134.352 240.522 132.715 240.979 131.053L250.009 130.195C250.009 130.195 246.886 138.768 246.886 139.855C246.994 140.675 247.377 141.435 247.973 142.009C247.973 142.009 243.791 147.487 238.587 145.707C233.383 143.927 236.405 139.024 236.98 137.782Z" fill="#E7AD83"/>
<path d="M240.833 131.583C241.218 132.191 241.723 132.713 242.319 133.116C242.914 133.52 243.586 133.797 244.293 133.929C245.925 134.093 247.57 133.776 249.023 133.016L248.439 134.705C246.89 135.772 245.151 136.531 243.317 136.942C242.622 137.117 241.897 137.137 241.193 137.001C240.49 136.865 239.825 136.577 239.244 136.157L240.833 131.583Z" fill="#CF8D65"/>
<path d="M251.972 144.164C254.105 145.469 256.092 146.999 257.897 148.729C260.509 151.286 266.617 159.558 266.617 159.558C266.617 159.558 260.308 165.291 258.957 166.862C256.272 164.625 250.329 159.329 250.329 159.329C250.329 159.329 249.425 148.4 251.972 144.164Z" fill="#C1E2ED"/>
<path d="M235.848 137.508C233.194 136.654 230.464 136.061 227.695 135.737C222.691 135.088 218.008 134.148 218.008 134.148C218.008 134.148 216.83 135.454 216.182 139.316C215.775 141.354 215.704 143.445 215.972 145.506L225.832 147.989L235.848 137.508Z" fill="#C1E2ED"/>
<path d="M218.738 157.813C218.738 157.813 218.501 162.744 231.137 164.634C243.773 166.524 251.287 160.16 251.287 160.16L248.758 167.126C248.758 167.126 237.309 169.582 231.018 174.102C224.727 178.621 221.66 186.071 221.66 186.071C221.66 186.071 222.089 178.119 222.271 175.115C222.454 172.111 222.682 168.377 222.144 167.017C221.605 165.656 217.67 162.78 218.738 157.813Z" fill="#A3CFDC"/>
<path d="M224.7 147.706C226.05 145.937 227.27 144.073 228.352 142.128C225.668 143.835 215.844 142.411 215.844 142.411C215.692 143.442 215.736 144.491 215.972 145.506L224.7 147.706Z" fill="#A3CFDC"/>
<path d="M251.287 160.16C251.287 160.16 252.629 157.595 253.917 155.495C255.377 159.813 261.084 164.625 261.084 164.625L258.956 166.789L251.287 160.16Z" fill="#A3CFDC"/>
<path d="M302.544 294.784C302.685 294.903 302.786 295.062 302.835 295.239C302.884 295.417 302.878 295.605 302.818 295.779C302.604 296.709 302.179 297.578 301.576 298.318C300.782 299.231 300.462 301.431 299.403 303.166C298.344 304.9 296.326 304.864 295.842 304.133C295.359 303.403 300.672 295.779 302.544 294.784Z" fill="#322875"/>
<path d="M244.996 105.781C244.767 106.882 244.86 108.026 245.265 109.076C245.67 110.125 246.369 111.035 247.279 111.697C250.493 114.199 253.853 112.939 255.925 117.513C257.998 122.087 253.606 128.469 253.606 128.469C253.606 128.469 258.39 128.807 260.71 122.991C262.134 119.43 261.084 114.975 261.084 112.172C261.084 109.369 259.714 102.75 253.542 100.01C247.37 97.2714 244.33 101.088 244.33 101.088C244.33 101.088 239.628 100.586 237.126 104.311C234.625 108.036 235.72 111.323 235.3 113.706C234.88 116.089 232.141 120.343 237.656 125.429C236.743 119.586 237.482 116.828 239.226 114.756C240.97 112.683 241.271 107.315 244.996 105.781Z" fill="#D0D2D3"/>
<path d="M280.157 304.088C280.157 304.088 279.664 305.147 279.326 305.229C276.818 304.615 274.373 303.768 272.022 302.7C269.365 301.495 272.223 301.577 273.775 302.098C275.952 302.587 278.087 303.253 280.157 304.088Z" fill="#F05452"/>
<path d="M282.302 300.061C282.302 300.061 280.431 304.17 280.056 304.143C279.682 304.115 273.757 302.098 273.757 302.098C273.757 302.098 277.235 302.609 277.409 302.344L278.769 299.605L282.302 300.061Z" fill="#FFCAA6"/>
<path d="M324.219 297.624C324.219 297.624 324.958 298.537 324.885 298.857C323.24 300.855 321.405 302.689 319.407 304.335C317.17 306.161 318.494 303.668 319.626 302.509C321.02 300.757 322.556 299.123 324.219 297.624Z" fill="#F05452"/>
<path d="M321.535 293.944C321.535 293.944 324.438 297.405 324.274 297.733C324.109 298.062 319.709 302.527 319.709 302.527C319.709 302.527 321.672 299.614 321.535 299.386L319.627 296.957L321.535 293.944Z" fill="#FFCAA6"/>
<path d="M303.959 269.604C303.959 269.604 307.374 282.961 308.643 285.874C309.912 288.786 321.124 298.957 321.124 298.957C321.124 298.957 322.293 299.87 323.945 297.067C323.178 293.415 315.801 283.089 315.417 282.642C315.034 282.194 315.993 271.247 315.993 269.604C315.993 267.96 317.253 264.281 315.865 260.547C314.477 256.812 303.996 260.866 303.996 260.866L303.959 269.604Z" fill="#FFCAA6"/>
<path d="M310.734 212.375C311.857 218.566 309.245 225.212 304.68 226.071C300.115 226.929 295.34 221.588 294.226 215.397C293.112 209.207 296.052 204.496 300.617 203.665C305.183 202.834 309.611 206.185 310.734 212.375Z" fill="#FFCAA6"/>
<path d="M294.719 259.377L277.372 302.344L280.595 303.485C280.595 303.485 289.141 291.552 290.538 288.932C291.429 287.405 292.094 285.756 292.51 284.038C292.638 283.344 303.338 270.863 303.968 269.603C304.598 268.343 305.292 260.866 305.292 260.866L294.719 259.377Z" fill="#FFCAA6"/>
<path d="M298.7 230.344C301.318 230.161 303.92 229.801 306.488 229.266C310.14 228.444 314.404 226.354 314.705 227.048C315.007 227.741 317.91 246.276 318.759 260.829C303.393 264.262 291.77 259.916 291.77 259.916C291.77 259.916 295.623 250.074 296.335 243.664C297.048 237.255 297.038 230.28 298.7 230.344Z" fill="#F05553"/>
<path d="M310.861 227.933C313.626 221.696 315.362 215.051 316.002 208.258C317.262 196.334 317.39 187.03 317.39 187.03H320.174C320.174 187.03 322.265 196.27 321.252 211.152C320.238 226.034 316.002 234.772 316.002 234.772L310.861 227.933Z" fill="#FFCAA6"/>
<path d="M298.7 230.344C298.7 230.344 287.488 227.66 286.247 224.793C285.005 221.926 285.498 210.906 285.498 210.906H283.051C283.051 210.906 279.518 223.779 282.302 228.929C285.087 234.078 296.911 236.863 296.911 236.863L298.7 230.344Z" fill="#FFCAA6"/>
<path d="M301.613 224.628L301.905 230.033C302.688 230.705 303.685 231.074 304.717 231.074C306.543 231.074 307.967 228.883 307.967 228.883L306.461 224.181L301.613 224.628Z" fill="#FFCAA6"/>
<path d="M285.498 210.906C285.461 210.131 285.256 209.374 284.895 208.687C284.357 207.865 280.969 204.542 280.431 204.697C279.892 204.852 280.823 208.349 281.234 209.125C281.942 210.021 282.782 210.803 283.727 211.444L285.498 210.906Z" fill="#FFCAA6"/>
<path d="M317.381 187.03C317.212 186.162 317.212 185.269 317.381 184.401C317.664 183.013 320.457 179.306 320.932 178.922C321.407 178.539 322.576 180.63 322.064 182.438C321.542 184.021 320.907 185.565 320.165 187.057C319.753 187.335 319.266 187.481 318.769 187.477C318.271 187.472 317.787 187.316 317.381 187.03Z" fill="#FFCAA6"/>
<path d="M301.658 225.487C302.511 225.722 303.395 225.82 304.279 225.779C305.145 225.733 305.99 225.496 306.753 225.085L307.054 225.998C306.449 226.823 305.589 227.426 304.607 227.714C303.698 227.989 302.754 228.134 301.804 228.144L301.658 225.487Z" fill="#F2B186"/>
<path d="M308.871 228.609C309.736 228.107 310.43 227.356 310.862 226.454C311.479 225.256 311.975 223.999 312.341 222.702L319.645 225.231L316.367 237.639L308.871 228.609Z" fill="#F05553"/>
<path d="M300.992 230.134C299.861 230.024 298.744 229.798 297.659 229.458C296.016 228.919 292.802 227.632 292.802 227.632L289.616 235.036C291.556 235.631 293.456 236.351 295.304 237.191C296.856 238.04 296.664 240.451 296.664 240.451C296.664 240.451 300.837 234.781 300.992 230.134Z" fill="#F05553"/>
<path d="M290.666 232.581C290.666 232.581 296.609 235.475 297.276 235.53C297.942 235.584 300.097 233.201 299.942 234.06C299.787 234.918 299.65 241.61 298.7 248.485C298.108 252.715 297.282 256.91 296.226 261.048C294.713 260.817 293.227 260.438 291.789 259.916C293.517 254.59 294.874 249.151 295.852 243.637C296.107 241.108 296.408 238.762 295.852 237.967C295.295 237.173 289.616 235.027 289.616 235.027L290.666 232.581Z" fill="#C2394E"/>
<path d="M317.207 243.92C317.207 243.92 320.704 267.166 319.553 283.07C310.916 286.093 300.271 285.17 293.706 280.176C287.141 275.182 275.573 278.597 271.794 277.811C268.014 277.026 262.727 272.16 269.557 263.751C276.386 255.342 286.904 254.119 291.35 250.877C295.797 247.636 296.116 241.61 296.116 241.61L317.207 243.92Z" fill="#F05452"/>
<path d="M299.403 241.976C299.403 241.976 298.435 249.17 295.806 252.713C293.176 256.255 288.502 255.89 281.782 263.203C275.062 270.516 275.537 277.811 275.537 277.811C273.169 278.359 270.68 277.974 268.589 276.734C265.457 274.652 265.129 270.599 266.818 266.81C268.507 263.021 274.122 258.401 278.312 256.346C282.503 254.292 287.57 253.087 290.839 250.941C294.108 248.796 295.632 245.253 296.08 241.263C297.951 239.949 299.403 241.976 299.403 241.976Z" fill="#C2394E"/>
<path d="M297.331 222.355C297.331 222.355 295.285 218.283 295.103 215.827C295.035 214.105 295.197 212.383 295.587 210.705C296.983 212.23 298.926 213.143 300.992 213.243C304.644 213.553 307.949 211.709 309.474 213.334C310.999 214.959 310.679 218.456 310.679 218.456C310.679 218.456 314.011 210.796 308.853 205.272C307.901 204.196 306.715 203.35 305.387 202.8C304.06 202.25 302.624 202.01 301.189 202.098C299.754 202.186 298.359 202.6 297.108 203.308C295.857 204.016 294.784 205 293.971 206.185C291.606 210.148 292.455 219.689 297.331 222.355Z" fill="#4C266E"/>
<defs>
<linearGradient id="paint0_linear" x1="284.687" y1="300.462" x2="352.627" y2="101.987" gradientUnits="userSpaceOnUse">
<stop offset="0.390625" stop-color="#43C4D9"/>
<stop offset="1" stop-color="white" stop-opacity="0.32"/>
</linearGradient>
</defs>
</svg>
