<svg width="388" height="386" viewBox="0 0 388 386" fill="none" xmlns="http://www.w3.org/2000/svg">
<path opacity="0.3" fill-rule="evenodd" clip-rule="evenodd" d="M299.463 104.432C317.07 124.312 336.902 143.277 340.97 170.221C345.454 199.926 342.25 233.544 322.906 259.721C303.697 285.716 270.453 295.81 240.154 306.653C211.326 316.97 181.604 325.859 153.152 320.474C124.163 314.987 99.3646 298.97 82.0643 276.73C64.8624 254.617 57.4037 226.565 57.3903 197.37C57.3767 167.851 62.5731 136.522 81.9886 111.651C100.959 87.3512 131.13 75.4468 160.144 65.745C187.312 56.6606 215.864 51.0265 241.775 58.2217C266.897 65.1976 282.799 85.6166 299.463 104.432Z" fill="url(#paint0_linear)" fill-opacity="0.4"/>
<path d="M122.831 155.609C122.831 155.609 138.355 175.306 148.859 178.376C159.363 181.447 178.844 180.153 178.844 180.153L178.327 176.902C178.327 176.902 155.439 172.693 151.877 169.916C148.315 167.139 135.673 150.616 135.673 150.616L122.831 155.609Z" fill="#AA633F"/>
<path d="M177.628 177.169C178.591 176.27 179.601 175.423 180.655 174.633C181.104 174.426 181.802 174.814 181.802 174.814C181.802 174.814 183.769 173.616 184.39 174.357C185.011 175.099 185.718 179.204 185.131 180.489C184.545 181.774 179.094 181.351 177.913 180.265C176.732 179.178 177.628 177.169 177.628 177.169Z" fill="#AA633F"/>
<path d="M212.306 293.593C212.306 293.593 213.004 294.835 212.849 295.232C212.694 295.629 210.175 297.698 207.079 299.475C203.983 301.251 204.13 299.69 205.76 298.526C207.802 296.704 209.991 295.054 212.306 293.593Z" fill="#322875"/>
<path d="M209.839 288.583C209.839 288.583 212.59 293.386 212.288 293.757C211.986 294.128 205.76 298.552 205.76 298.552C205.76 298.552 208.752 295.456 208.58 295.145C208.407 294.835 206.812 291.817 206.812 291.817L209.839 288.583Z" fill="#FFCAA6"/>
<path d="M170.453 294.938C170.453 294.938 169.496 295.991 169.065 295.965C168.634 295.939 165.882 294.197 163.226 291.825C160.57 289.454 162.088 289.091 163.709 290.273C166.083 291.637 168.339 293.198 170.453 294.938Z" fill="#322875"/>
<path d="M174.438 291.006C174.438 291.006 170.746 295.128 170.315 294.956C169.884 294.783 163.709 290.264 163.709 290.264C163.709 290.264 167.59 292.127 167.832 291.868L170.419 289.143L174.438 291.006Z" fill="#FFCAA6"/>
<path d="M196.256 265.315C196.256 265.315 185.243 277.389 184.002 279.838C182.76 282.287 179.232 289.281 173.144 293.343C171.663 292.401 170.277 291.318 169.004 290.109C169.004 290.109 178.284 273.456 181.078 268.549C183.872 263.642 188.374 247.92 188.374 247.92C188.374 247.92 201.31 250.016 201.793 250.292C202.276 250.568 196.256 265.315 196.256 265.315Z" fill="#335AA9"/>
<path d="M207.105 251.094L198.128 249.274L196.17 266.005C196.17 266.005 197.938 279.588 198.128 280.252C198.317 280.916 207.769 294.352 207.769 294.352C207.769 294.352 211.219 293.921 212.081 291.679C211.331 286.841 206.734 278.743 205.863 277.785C204.992 276.828 211.081 261.702 209.529 251.818C208.706 251.632 207.896 251.39 207.105 251.094Z" fill="#335AA9"/>
<path d="M206.424 218.047C206.424 218.047 210.736 215.641 210.736 212.666C210.691 210.738 210.533 208.814 210.262 206.905C210.175 205.249 210.011 200.946 207.778 198.833C205.544 196.72 199.766 197.755 199.275 197.341C198.783 196.927 194.773 194.961 191.582 197.099C188.391 199.238 187.813 202.645 187.192 204.671C186.571 206.698 185.83 210.881 186.778 213.364C187.727 215.848 189.883 217.038 190.633 217.771C191.384 218.504 192.41 220.531 197.136 220.143C200.305 219.82 203.423 219.116 206.424 218.047Z" fill="#4C266E"/>
<path d="M203.966 224.601L202.241 220.341L196.894 220.16L196.179 225.282C196.179 225.282 201.267 225.325 203.966 224.601Z" fill="#CF8D65"/>
<path d="M88.1888 137.861C88.1888 137.861 69.7075 161.379 68.3535 172.245C66.9996 183.111 74.3386 203.291 74.3386 203.291L77.4691 202.282C77.4691 202.282 75.0199 177.842 77.1932 173.892C79.3664 169.942 95.8124 150.84 95.8124 150.84L88.1888 137.861Z" fill="#AA633F"/>
<path d="M140.683 112.549C140.884 114.361 140.671 116.195 140.062 117.913C139.062 120.362 137.967 121.363 137.078 123.571C136.19 125.778 132.904 127.02 132.904 127.02L139.01 111.669L140.683 112.549Z" fill="#4C266E"/>
<path d="M103.997 257.217L105.765 269.61C105.765 269.61 106.36 273.465 107.86 273.103C109.361 272.74 109.749 269.541 109.507 267.471C109.266 265.401 111.18 261.486 111.18 261.486L109.732 256.398C109.732 256.398 103.807 255.846 103.997 257.217Z" fill="#322875"/>
<path d="M127.488 187.406C127.488 187.406 154.085 233.182 151.713 239.15C149.342 245.118 111.344 261.9 111.344 261.9L108.705 256.036C108.705 256.036 120.072 246.161 125.608 242.16C131.145 238.158 135.655 236.485 136.44 235.821C137.225 235.157 119.934 213.925 117.821 206.801C116.465 201.798 115.627 196.668 115.32 191.494L127.488 187.406Z" fill="#294D90"/>
<path d="M116.372 188.725C116.372 188.725 120.986 206.672 120.684 208.647C120.382 210.621 125.858 243.246 125.565 251.767C125.272 260.287 120.494 296.611 120.494 296.611H113C113 296.611 111.456 277.88 111.456 268.971C111.456 260.063 112.379 255.285 112.379 253.008C112.379 250.732 103.997 224.549 101.03 216.4C98.0633 208.25 97.0715 194.495 97.0715 194.495L116.372 188.725Z" fill="#335AA9"/>
<path d="M118.795 112.662C117.381 121.51 120.52 130.772 126.152 131.686C131.783 132.6 137.656 124.787 139.088 115.887C140.519 106.987 136.889 100.51 131.326 99.6135C125.764 98.7166 120.201 103.805 118.795 112.662Z" fill="#AA633F"/>
<path d="M126.091 138.594C128.118 139.594 130.326 140.81 131.042 142.958C131.662 144.838 130.955 146.864 130.343 148.753C126.593 160.376 126.572 172.881 130.283 184.517C130.757 186.009 131.274 187.725 130.438 189.044C130.001 189.635 129.439 190.121 128.791 190.467C119.435 196.199 108.328 198.37 97.5028 196.582C91.9911 177.738 91.8209 157.735 97.0112 138.801C97.4993 136.578 98.4226 134.473 99.7278 132.609C101.105 130.919 103.083 129.828 105.247 129.564C107.265 129.375 109.266 130.686 111.034 131.479C116.099 133.767 121.118 136.139 126.091 138.594Z" fill="#C1E2ED"/>
<path d="M126.186 130.039C126.186 130.039 124.237 135.265 124.03 135.989C123.823 136.714 125.557 138.361 125.557 138.361C125.557 138.361 122.4 143.156 116.57 139.732C112.836 137.533 111.741 131.833 111.741 131.833C111.741 131.833 113.768 132.04 114.414 131.436C115.061 130.832 118.959 122.044 118.959 122.044C118.959 122.044 126.298 130.306 126.186 130.039Z" fill="#AA633F"/>
<path d="M118.959 122.019C119.479 124.123 120.234 126.163 121.21 128.098C122.211 129.746 123.777 130.972 125.617 131.548L125.031 133.161C123.101 133.202 121.178 132.91 119.347 132.298C116.225 131.281 115.208 130.013 115.208 130.013L118.959 122.019Z" fill="#934624"/>
<path d="M129.567 140.776C131.673 142.228 133.482 144.069 134.896 146.2C137.397 149.874 140.7 153.962 142.658 157.024C139.398 159.085 130.671 166.234 130.671 166.234C130.671 166.234 127.704 162.853 126.669 159.964C125.634 157.075 129.567 140.776 129.567 140.776Z" fill="#C1E2ED"/>
<path d="M106.713 129.668C104 128.609 101.056 128.279 98.1754 128.711C93.7858 129.521 85.3256 141.276 85.3256 141.276C85.3256 141.276 89.8532 145.545 91.5953 148.606C93.3373 151.668 92.8544 153.996 93.1476 154.039C93.8515 153.824 94.5308 153.535 95.1743 153.177C95.1743 153.177 106.791 134.679 106.713 129.668Z" fill="#C1E2ED"/>
<path d="M127.695 162.068C127.979 158.067 128.696 154.109 129.834 150.262C129.644 155.1 135.492 162.336 135.492 162.336L130.697 166.208C129.566 164.928 128.561 163.541 127.695 162.068Z" fill="#A3CFDC"/>
<path d="M94.0445 153.738L100.599 143.018C98.9252 151.711 98.1736 160.557 98.3565 169.408C98.8309 182.749 104.609 197.237 104.609 197.237C104.609 197.237 100.124 198.574 96.5541 197.884C94.4671 191.623 91.0261 174.461 94.0445 153.738Z" fill="#A3CFDC"/>
<path d="M113.517 302.372H126.04C126.04 302.372 129.946 302.321 129.8 300.786C129.653 299.251 126.531 298.414 124.453 298.362C122.374 298.311 119.701 296.577 119.701 296.577H113.517C113.517 296.577 112.138 302.372 113.517 302.372Z" fill="#322875"/>
<path d="M124.763 107.918C126.191 109.83 128.272 111.15 130.61 111.627C134.586 112.489 135.905 111.368 137.423 111.894C138.941 112.42 140.562 114.645 143.15 112.092C145.737 109.54 146.651 101.071 140.028 98.8803C133.405 96.6898 130.86 98.6043 127.092 98.2938C123.323 97.9834 120.589 96.8364 117.942 101.39C115.71 105.179 115.033 109.686 116.053 113.964C116.846 117.689 115.501 122.174 117.467 122.933C119.434 123.692 122.952 120.397 122.547 116.585C122.142 112.774 123.427 108.867 124.763 107.918Z" fill="#4C266E"/>
<path d="M232.339 136.636C232.401 135.557 232.209 134.479 231.779 133.488C230.234 131.308 228.478 129.286 226.535 127.451C225.897 127.046 225.293 129.918 225.94 132.039C226.587 134.161 228.277 134.549 229.01 135.661C229.743 136.774 230.097 137.386 230.097 137.386L232.339 136.636Z" fill="#FFCAA6"/>
<path d="M276.244 138.844C275.395 137.289 274.166 135.976 272.671 135.028C271.176 134.079 269.465 133.525 267.697 133.419C261.479 132.953 259.073 139.025 255.684 139.456C252.295 139.887 251.95 137.731 250.734 137.731C249.518 137.731 251.062 142.543 254.71 143.94C258.358 145.337 264.567 142.448 266.783 142.216C269 141.983 270.612 144.803 275.192 144.923C279.771 145.044 276.244 138.844 276.244 138.844Z" fill="#4C266E"/>
<path d="M337.474 144.751C337.69 144.751 339.768 141.206 343.226 140.629C346.685 140.051 349.574 139.016 349.988 140.37C350.402 141.724 347.883 144.018 344.943 144.751C342.002 145.484 339.285 146.933 338.354 146.778C337.423 146.622 337.474 144.751 337.474 144.751Z" fill="#FFCAA6"/>
<path d="M284.299 261.382C293.578 273.516 303.522 285.529 308.946 300.268L313.663 299.673C312.258 291.963 310.843 284.227 308.489 276.819C306.135 269.411 302.78 262.288 297.916 256.613C295.122 253.353 291.81 250.576 289.749 246.652C287.162 241.728 286.877 235.769 285.86 230.163C284.702 223.743 282.447 217.57 279.193 211.915C277.951 209.759 276.391 207.603 274.166 206.939C271.578 206.197 268.931 207.801 266.74 209.526C263.937 211.751 261.445 214.545 261.773 218.693C262.014 221.72 263.92 224.834 264.834 227.697C267.422 235.743 271.492 243.091 276.046 249.929C278.659 253.871 281.453 257.657 284.299 261.382Z" fill="#F05452"/>
<path d="M229.416 236.459C227.811 241.323 226.406 246.368 226.32 251.551C226.19 259.356 229.165 262.676 233.081 272.3C235.97 279.406 239.281 287.384 241.101 294.921L245.413 294.671C245.413 285.124 244.62 273.577 241.886 264.53C240.722 260.684 238.393 256.768 238.85 254.518C239.885 249.412 243.628 245.73 246.206 241.435C250.165 234.829 251.631 231.517 254.115 226.774C254.873 225.513 255.366 224.11 255.564 222.652C255.676 221.871 255.621 221.075 255.402 220.317C255.184 219.558 254.807 218.855 254.296 218.254C251.605 214.295 243.645 206.991 239.635 212.389C237.307 215.485 235.823 219.961 234.297 223.601C232.48 227.803 230.853 232.089 229.416 236.459Z" fill="#F05452"/>
<path d="M250.812 201.712C254.917 204.558 264.308 204.558 267.016 205.636C269.724 206.714 270.992 209.137 267.577 212.078C267.577 212.078 260.376 218.546 257.573 218.218C254.77 217.891 246.793 207.982 247.776 210.077C248.759 212.173 253.054 217.408 253.468 219.84C253.661 221.28 253.576 222.744 253.218 224.152C249.363 220.34 242.981 217.546 237.444 216.226C240.046 209.84 243.065 203.632 246.482 197.642C247.729 199.194 249.186 200.564 250.812 201.712Z" fill="#F05452"/>
<path d="M267.973 215.769C272.492 212.949 276.089 217.718 277.46 220.012C276.753 220.228 275.968 220.478 275.097 220.771C271.532 222.004 268.193 223.813 265.214 226.127C264.61 224.402 263.084 218.822 267.973 215.769Z" fill="#F05452"/>
<path d="M262.79 225.773C261.85 224.135 259.988 222.168 258.478 222.263C256.969 222.358 254.494 225.79 253.606 227.438C253.375 226.356 253.233 225.257 253.183 224.152C253.541 222.744 253.626 221.28 253.433 219.84C253.019 217.408 248.716 212.173 247.742 210.078C246.767 207.982 254.839 216.977 257.642 217.27C260.445 217.563 267.542 212.096 267.542 212.096C270.992 209.155 269.69 206.731 266.982 205.653C264.274 204.575 254.908 204.575 250.777 201.73C249.159 200.588 247.708 199.227 246.465 197.685C248.475 194.235 250.001 191.829 250.001 191.829C250.001 191.829 266.438 191.639 271.561 196.409C276.684 201.178 284.937 225.937 284.937 225.937C284.937 225.937 282.902 221.021 281.401 219.797C279.202 218.012 276.365 217.089 273.889 215.994C272.979 215.521 271.975 215.257 270.95 215.221C269.926 215.186 268.906 215.379 267.965 215.787C262.575 217.839 264.61 224.411 265.231 226.135C265.343 227.403 269.345 238.502 269.345 238.502C269.345 238.502 263.748 227.403 262.79 225.773Z" fill="#F05452"/>
<path d="M294.751 143.475C287.912 149.339 278.296 151.504 274.588 147.174C270.88 142.845 274.493 133.678 281.332 127.813C288.171 121.949 295.656 121.621 299.365 125.942C303.073 130.263 301.598 137.61 294.751 143.475Z" fill="#FFCAA6"/>
<path d="M274.7 152.616C273.131 151.754 271.466 150.892 269.672 150.892C266.835 150.969 264.645 153.306 262.773 155.462C260.186 158.463 255.874 161.189 254.848 164.949C253.752 168.89 254.736 172.193 254.072 176.229C253.524 179.983 252.426 183.636 250.812 187.069C250.303 188.216 246.5 194.158 246.396 195.409C246.224 197.082 250.38 199.893 251.786 200.799C258.409 205.111 269.388 203.61 277.149 202.204C274.985 198.755 272.285 190.579 273.924 186.836C275.563 183.094 278.408 180.006 281.229 177.074C284.049 174.142 287.033 171.236 289.051 167.683C291.069 164.129 290.482 161.344 287.033 159.429L274.7 152.616Z" fill="#F5E5E6"/>
<path d="M270.595 150.96C270.595 150.96 267.835 149.347 260.548 150.9C253.261 152.452 238.591 155.212 238.591 155.212C238.591 155.212 233.546 141.017 232.891 136.342C231.585 136.205 230.265 136.284 228.984 136.575C228.984 136.575 228.786 159.325 233.736 164.465C238.126 164.646 255.503 165.121 260.548 160.723C265.593 156.324 270.595 150.96 270.595 150.96Z" fill="#F5E5E6"/>
<path d="M287.033 159.429C287.033 159.429 309.748 160.085 315.492 156.394C321.235 152.703 337.198 144.26 337.198 144.26C337.842 144.314 338.453 144.561 338.954 144.968C339.454 145.376 339.819 145.926 340.001 146.545C338.777 149.322 326.125 161.534 316.035 166.018C305.945 170.503 282.401 173.409 282.401 173.409L287.033 159.429Z" fill="#EFE6E8"/>
<path d="M278.201 146.363C278.201 146.363 275.054 150.693 274.096 151.296C273.734 151.453 273.344 151.533 272.949 151.533C272.555 151.533 272.165 151.453 271.802 151.296C271.802 151.296 263.368 159.213 270.552 160.265C274.883 160.865 279.276 159.751 282.798 157.161C282.401 156.889 282.114 156.484 281.989 156.019C281.864 155.554 281.909 155.06 282.117 154.625C282.712 152.806 289.137 145.889 289.137 145.889L278.201 146.363Z" fill="#FFCAA6"/>
<path d="M287.196 148.045C287.196 148.045 282.72 149.572 280.202 149.451C278.92 149.419 277.658 149.126 276.494 148.589L275.632 149.624C276.497 150.738 277.634 151.611 278.935 152.159C280.361 152.591 281.854 152.761 283.341 152.659L287.196 148.045Z" fill="#F2B186"/>
<path d="M282.41 170.114C282.41 170.114 277.71 176.703 266.568 173.823C255.426 170.942 254.744 165.475 254.744 165.475C254.381 166.689 254.201 167.95 254.21 169.217C254.21 171.391 254.451 174.676 253.959 177.091C259.294 179.772 263.609 184.12 266.249 189.475C270.405 197.746 271.423 203.11 271.423 203.11C273.352 203.001 275.266 202.713 277.141 202.247C275.468 198.85 273.2 192.183 273.803 188.113C274.407 184.042 285.015 173.098 285.015 173.098L282.41 170.114Z" fill="#D3C0DB"/>
<path d="M255.805 162.922L261.109 157.152C255.378 159.101 249.504 160.603 243.542 161.645C234.918 162.999 232.115 161.792 232.115 161.792C232.51 162.758 233.057 163.655 233.736 164.448C236.617 164.526 248.819 165.147 255.805 162.922Z" fill="#D3C0DB"/>
<path d="M339.699 145.855C339.699 145.855 326.763 159.3 311.24 163.965C295.717 168.631 287.343 167.562 285.368 167.976C283.393 168.39 282.16 170.649 281.306 171.33C282.383 172.267 283.712 172.867 285.127 173.055C285.127 173.055 302.495 171.908 316.415 166.302C330.334 160.697 340.001 146.545 340.001 146.545L339.699 145.855Z" fill="#D3C0DB"/>
<path d="M313.957 304.64H301.642C301.514 304.633 301.394 304.577 301.308 304.484C301.221 304.391 301.173 304.267 301.176 304.14C301.179 303.551 301.366 302.979 301.711 302.501C302.504 301.354 305.436 300.777 306.885 300.958C308.334 301.139 308.549 300.147 308.213 299.233C307.877 298.319 309.55 297.767 310.3 298.189C310.831 298.532 311.291 298.974 311.654 299.492C311.654 299.492 311.887 298.293 312.775 298.293C313.663 298.293 313.801 299.155 313.844 299.75C313.888 300.345 314.802 302.122 314.371 304.2C314.362 304.31 314.316 304.413 314.241 304.493C314.166 304.573 314.065 304.625 313.957 304.64Z" fill="#322875"/>
<path d="M245.853 298.689H233.564C233.436 298.683 233.317 298.627 233.23 298.533C233.143 298.44 233.096 298.317 233.098 298.189C233.097 297.6 233.285 297.026 233.633 296.551C234.426 295.404 237.358 294.826 238.807 295.007C240.256 295.188 240.471 294.196 240.127 293.282C239.782 292.368 241.472 291.816 242.222 292.23C242.752 292.578 243.212 293.022 243.576 293.541C243.576 293.541 243.809 292.342 244.697 292.342C245.586 292.342 245.723 293.205 245.767 293.8C245.81 294.395 246.724 296.171 246.293 298.25C246.283 298.363 246.233 298.469 246.153 298.55C246.073 298.63 245.966 298.68 245.853 298.689Z" fill="#322875"/>
<path d="M294.553 126.649C292.154 128.265 289.234 128.915 286.377 128.469C281.332 127.814 277.236 131.608 275.08 135.644C273.355 131.332 272.786 127.814 276.615 125.433C280.444 123.053 283.824 116.801 290.215 116.654C296.605 116.508 298.339 119.241 299.313 120.44C300.288 121.639 305.531 123.381 306.747 128.521C307.963 133.661 307.446 137.3 304.591 138.654C301.736 140.008 302.306 145.657 296.139 148.278C289.973 150.9 285.472 148.58 285.472 148.58C285.472 148.58 290.646 146.778 292.681 143.794C294.717 140.81 293.38 135.894 293.242 132.255C293.076 130.295 293.535 128.333 294.553 126.649Z" fill="#4C266E"/>
<path d="M190.262 211.346C191.34 217.383 196.437 222.471 201.474 221.583C206.51 220.694 209.468 214.131 208.373 208.112C207.278 202.092 202.534 198.858 197.541 199.755C192.548 200.652 189.184 205.318 190.262 211.346Z" fill="#E7AD83"/>
<path d="M77.0466 201.635C78.088 202.442 79.0842 203.306 80.0305 204.222C80.3064 204.636 80.0305 205.387 80.0305 205.387C80.0305 205.387 81.531 207.111 80.8929 207.844C80.2547 208.578 76.3221 209.931 74.9595 209.569C73.5969 209.207 73.2347 203.757 74.0282 202.411C74.8216 201.066 77.0466 201.635 77.0466 201.635Z" fill="#AA633F"/>
<path d="M191.617 224.506C187.004 223.31 182.865 220.739 179.75 217.133C174.869 211.251 173.713 203.386 173.713 203.386L170.979 203.679C170.979 203.679 172.842 216.296 175.412 221.678C177.982 227.059 189.693 232.156 189.693 232.156C190.561 229.668 191.204 227.108 191.617 224.506Z" fill="#E7AD83"/>
<path d="M207.105 223.609C207.105 223.609 215.436 217.961 220.904 211.38C224.363 207.075 227.13 202.257 229.105 197.099L232.089 198.082C230.421 204.741 227.755 211.108 224.181 216.969C218.549 225.834 208.571 230.767 208.571 230.767L207.105 223.609Z" fill="#E7AD83"/>
<path d="M208.985 222.264C208.985 222.264 206.795 223.488 200.836 224.359C197.386 224.908 193.859 224.72 190.487 223.807L184.7 251.534C188.853 253.258 193.244 254.34 197.722 254.742C202.292 255.311 206.93 254.951 211.357 253.681L208.985 222.264Z" fill="#C1E2ED"/>
<path d="M208.175 213.95C208.07 212.381 207.709 210.84 207.105 209.388C205.927 207.501 204.613 205.702 203.173 204.007C201.931 202.394 195.592 202.972 194.721 205.732C193.85 208.491 192.237 209.621 192.134 212.631C192.03 215.641 194.29 219.004 194.29 219.004C194.29 219.004 188.443 215.554 188.65 208.819C188.857 202.084 193.229 198.35 200.723 198.798C208.218 199.246 210.4 208.491 208.175 213.95Z" fill="#4C266E"/>
<path d="M229.096 197.099C229.108 196.26 229.413 195.451 229.959 194.814C230.873 193.779 234.762 189.64 235.513 190.562C236.263 191.485 233.443 198.376 231.537 199.117C229.631 199.859 229.096 197.099 229.096 197.099Z" fill="#E7AD83"/>
<path d="M173.73 203.386C173.799 202.764 173.698 202.135 173.437 201.566C172.137 199.747 170.667 198.055 169.048 196.513C168.427 196.056 167.055 198.582 168.383 200.773C169.497 202.43 170.806 203.947 172.282 205.292L173.73 203.386Z" fill="#E7AD83"/>
<path d="M208.554 222.462L205.432 254.802C205.432 254.802 209.46 254.681 211.383 253.681C210.943 247.886 208.977 222.264 208.977 222.264L208.554 222.462Z" fill="#A3CFDC"/>
<path d="M186.994 252.689C186.994 252.689 191.384 255.276 194.497 255.897C197.61 256.518 186.132 276.957 186.132 276.957L195.998 265.625L196.489 268.212C196.489 268.212 196.696 261.313 200.094 261.227C203.492 261.141 203.863 267.264 203.699 270.627C203.535 273.99 203.242 276.923 203.492 277.664C203.742 278.406 211.253 292.903 211.253 292.903C211.568 292.803 211.853 292.627 212.082 292.389C212.311 292.151 212.477 291.859 212.564 291.54C211.169 286.519 208.985 281.751 206.096 277.414C206.717 274.887 211.038 260.658 209.83 254.233C206.139 254.75 194.988 255.164 187.123 252.413L186.994 252.689Z" fill="#294D90"/>
<defs>
<linearGradient id="paint0_linear" x1="302.898" y1="106.193" x2="106.751" y2="31.7984" gradientUnits="userSpaceOnUse">
<stop offset="0.390625" stop-color="#43C4D9"/>
<stop offset="1" stop-color="white" stop-opacity="0.32"/>
</linearGradient>
</defs>
</svg>
