<svg width="39" height="39" viewBox="0 0 39 39" fill="none" xmlns="http://www.w3.org/2000/svg">
<circle cx="19.2794" cy="19.014" r="19.014" fill="#4B0A70"/>
<path d="M20.7071 18.3011C22.5178 18.5251 23.8991 19.1411 24.8511 20.1491C25.8031 21.1571 26.2791 22.4171 26.2791 23.9291C26.2791 25.0677 25.9898 26.1037 25.4111 27.0371C24.8324 27.9704 23.9551 28.7171 22.7791 29.2771C21.6218 29.8184 20.2031 30.0891 18.5231 30.0891C17.1231 30.0891 15.7698 29.8931 14.4631 29.5011C13.1751 29.0904 12.0738 28.5304 11.1591 27.8211L12.7271 24.9931C13.4364 25.5904 14.2951 26.0664 15.3031 26.4211C16.3298 26.7571 17.3844 26.9251 18.4671 26.9251C19.7551 26.9251 20.7631 26.6637 21.4911 26.1411C22.2378 25.5997 22.6111 24.8717 22.6111 23.9571C22.6111 23.0424 22.2564 22.3331 21.5471 21.8291C20.8564 21.3064 19.7924 21.0451 18.3551 21.0451H16.5631V18.5531L21.0151 13.2611H12.1111V10.2091H25.4671V12.6451L20.7071 18.3011Z" fill="white"/>
</svg>
