<svg width="39" height="39" viewBox="0 0 39 39" fill="none" xmlns="http://www.w3.org/2000/svg">
<ellipse cx="19.0258" cy="19.014" rx="19.015" ry="19.014" fill="#4B0A70"/>
<path d="M23.8371 19.5051C24.8638 19.9717 25.6478 20.6064 26.1891 21.4091C26.7491 22.1931 27.0291 23.1171 27.0291 24.1811C27.0291 25.3757 26.6931 26.4211 26.0211 27.3171C25.3678 28.2131 24.4344 28.9037 23.2211 29.3891C22.0078 29.8557 20.5984 30.0891 18.9931 30.0891C17.3878 30.0891 15.9784 29.8557 14.7651 29.3891C13.5704 28.9037 12.6464 28.2131 11.9931 27.3171C11.3398 26.4211 11.0131 25.3757 11.0131 24.1811C11.0131 23.1171 11.2838 22.1931 11.8251 21.4091C12.3664 20.6064 13.1411 19.9717 14.1491 19.5051C13.3651 19.0757 12.7584 18.5157 12.3291 17.8251C11.9184 17.1157 11.7131 16.3037 11.7131 15.3891C11.7131 14.2877 12.0118 13.3264 12.6091 12.5051C13.2251 11.6837 14.0838 11.0491 15.1851 10.6011C16.2864 10.1531 17.5558 9.92908 18.9931 9.92908C20.4491 9.92908 21.7278 10.1531 22.8291 10.6011C23.9304 11.0491 24.7891 11.6837 25.4051 12.5051C26.0211 13.3264 26.3291 14.2877 26.3291 15.3891C26.3291 16.3037 26.1144 17.1064 25.6851 17.7971C25.2558 18.4877 24.6398 19.0571 23.8371 19.5051ZM18.9931 12.7851C17.8544 12.7851 16.9491 13.0277 16.2771 13.5131C15.6238 13.9984 15.2971 14.6797 15.2971 15.5571C15.2971 16.3971 15.6238 17.0691 16.2771 17.5731C16.9491 18.0584 17.8544 18.3011 18.9931 18.3011C20.1504 18.3011 21.0651 18.0584 21.7371 17.5731C22.4091 17.0691 22.7451 16.3971 22.7451 15.5571C22.7451 14.6797 22.3998 13.9984 21.7091 13.5131C21.0371 13.0277 20.1318 12.7851 18.9931 12.7851ZM18.9931 27.2331C20.3371 27.2331 21.4011 26.9531 22.1851 26.3931C22.9691 25.8331 23.3611 25.0584 23.3611 24.0691C23.3611 23.0984 22.9691 22.3331 22.1851 21.7731C21.4011 21.2131 20.3371 20.9331 18.9931 20.9331C17.6491 20.9331 16.5944 21.2131 15.8291 21.7731C15.0638 22.3331 14.6811 23.0984 14.6811 24.0691C14.6811 25.0584 15.0638 25.8331 15.8291 26.3931C16.5944 26.9531 17.6491 27.2331 18.9931 27.2331Z" fill="white"/>
</svg>
