<svg width="211" height="244" viewBox="0 0 211 244" fill="none" xmlns="http://www.w3.org/2000/svg">
<path fill-rule="evenodd" clip-rule="evenodd" d="M140.43 213.618C140.266 212.191 139.799 210.816 139.06 209.584C138.43 208.744 135.245 206.172 131.413 203.198C133.794 200.806 135.915 198.17 137.741 195.332L139.06 197.323C141.413 200.987 143.094 203.861 144.354 205.777C144.354 212.979 142.48 214.114 140.43 213.618Z" fill="#AA633F"/>
<path fill-rule="evenodd" clip-rule="evenodd" d="M121.816 221.248C122.277 220.675 122.596 220.001 122.749 219.282C123.127 217.509 123.95 209.609 124.001 207.265C124.051 204.92 132.127 204.987 131.413 208.811C130.867 211.702 129.984 217.29 129.421 221.156C128.233 221.71 126.94 222.005 125.628 222.02C124.317 222.036 123.018 221.773 121.816 221.248Z" fill="#AA633F"/>
<path fill-rule="evenodd" clip-rule="evenodd" d="M129.421 221.156L128.967 224.181C128.556 227.223 128.547 228.03 126.396 228.173C124.245 228.316 115.101 228.282 112.95 228.173C110.799 228.064 109.698 226.181 113.589 225.156C116.665 224.316 120.127 223.417 121.807 221.248C123.009 221.773 124.309 222.037 125.62 222.021C126.931 222.005 128.224 221.71 129.413 221.156H129.421Z" fill="#322875"/>
<path fill-rule="evenodd" clip-rule="evenodd" d="M118.06 192.777L116.782 191.769C112.883 188.483 102.647 177.592 103.194 169.163C103.656 162.205 117.648 158.406 117.186 164.381C116.69 170.743 116.211 172.306 120.446 176.743C119.32 182.033 118.523 187.388 118.06 192.777Z" fill="#355BA9"/>
<path fill-rule="evenodd" clip-rule="evenodd" d="M144.354 205.777C145.371 207.34 146.119 208.298 146.724 208.525C148.203 209.13 148.48 210.803 146.724 218.131C145.548 223.021 144.556 225.845 141.682 225.744C138.808 225.643 136.547 225.744 138.648 223.685C140.749 221.626 141.388 221.063 141.102 219.047C140.934 217.912 140.791 215.685 140.421 213.618C143.178 212.214 144.354 209.786 144.346 205.777H144.354Z" fill="#322875"/>
<path fill-rule="evenodd" clip-rule="evenodd" d="M120.446 176.743C121.328 177.693 122.412 178.76 123.757 180.012C130.345 186.197 132.505 187.416 137.741 195.332C135.922 198.175 133.801 200.813 131.413 203.198C126.707 199.492 121.034 195.189 118.059 192.777C118.523 187.388 119.32 182.033 120.446 176.743Z" fill="#2A4C90"/>
<path fill-rule="evenodd" clip-rule="evenodd" d="M121.766 146.952C123.009 142.011 126.808 138.145 128.362 138.549C133.404 139.776 136.892 141.91 139.178 150.499L138.951 152.952C137.354 168.524 137.152 179.844 136.144 188.247C135.136 196.651 133.119 205.601 132.665 207.845C132.211 210.088 132.951 210.458 127.11 209.719C122.707 209.156 122.581 209.719 122.547 206.492C122.513 203.265 122.379 165.516 122.068 155.474L121.766 146.927V146.952Z" fill="#355BA9"/>
<path fill-rule="evenodd" clip-rule="evenodd" d="M108.32 116.514C115.253 117.514 117.505 117.775 118.269 120.674C119.446 125.12 120.438 129.321 118.269 128.237C116.101 127.153 112.311 125.195 111.958 126.38C111.605 127.565 117.715 132.263 120.917 134.397C120.017 141.868 117.412 163.6 116.648 169.297C116.387 171.255 113.328 178.373 108.009 176.701C102.689 175.029 102.841 171.558 103.244 163.255C103.572 156.726 106.605 130.229 108.286 116.472L108.32 116.514Z" fill="#355BA9"/>
<path fill-rule="evenodd" clip-rule="evenodd" d="M117.757 106.136C126.051 106.288 137.581 109.262 137.867 111.8C140.034 124.569 140.475 137.571 139.178 150.457C135.463 150.936 122.253 147.448 121.766 146.927L121.228 131.801L120.917 134.372C117.715 132.246 111.606 127.515 111.959 126.355C112.312 125.196 116.11 127.137 118.27 128.213C120.429 129.288 119.446 125.086 118.27 120.649C117.505 117.75 115.253 117.49 108.32 116.49C108.782 112.792 109.16 110.019 109.362 108.783L109.496 108.372L110.883 107.069L117.757 106.111V106.136Z" fill="#2A4C90"/>
<path fill-rule="evenodd" clip-rule="evenodd" d="M132.606 10.7304C132.606 10.7304 138.69 7.05799 141.917 16.8061C145.144 26.5543 145.018 31.5544 149.136 35.1511C153.254 38.7479 170.708 46.7901 172.481 54.9416C174.254 63.093 166.599 81.1691 149.136 83.3288C131.673 85.4886 129.396 75.1606 126.446 70.4126C123.497 65.6645 106.311 56.5551 108.328 45.7481C109.488 39.5294 112.202 34.8234 113.37 30.3527C114.211 27.0585 113.858 21.655 115.219 18.1087C117.513 12.1337 121.858 8.92358 128.354 8.92358C131.867 8.92358 132.615 10.7304 132.615 10.7304H132.606Z" fill="#4C266E"/>
<path d="M146.422 68.4211C146.702 68.4403 146.965 68.5656 147.157 68.7716C147.349 68.9776 147.456 69.2489 147.455 69.5304C148.119 82.6904 148.833 95.8756 149.38 109.086C149.38 110.078 149.38 110.842 148.741 111.162C148.565 111.25 148.369 111.292 148.172 111.284C147.976 111.276 147.784 111.218 147.616 111.116C147.448 111.013 147.308 110.869 147.211 110.698C147.114 110.527 147.062 110.333 147.06 110.136C146.606 97.6992 145.892 85.3796 145.279 73.0347L145.102 69.6733C145.1 69.5029 145.134 69.3341 145.202 69.1776C145.269 69.0212 145.369 68.8806 145.494 68.765C145.619 68.6494 145.767 68.5613 145.928 68.5064C146.089 68.4515 146.26 68.4311 146.43 68.4464L146.422 68.4211Z" fill="#322875"/>
<path fill-rule="evenodd" clip-rule="evenodd" d="M138.774 49.9331C141.909 51.5298 145.438 54.7315 148.195 63.0595C152.581 76.3287 154.136 88.9425 154.59 91.6989C155.044 94.4553 146.934 98.2705 145.438 90.0182C144.131 83.32 142.464 76.6968 140.447 70.1773C140.152 69.337 139.816 69.4126 139.396 70.1773C134.799 64.5889 137.06 54.4626 138.774 49.9331Z" fill="#AA633F"/>
<path fill-rule="evenodd" clip-rule="evenodd" d="M102.689 71.6481C104.782 67.522 107.589 61.9504 108.883 59.2528C110.463 55.9418 113.043 52.53 116.11 50.698C114.774 55.2611 110.681 61.3453 108.236 66.9757C105.471 73.354 109.916 76.3373 109.874 78.4634C109.715 78.7996 105.58 87.867 102.026 90.8419C98.9498 93.405 94.3278 92.094 93.8572 86.2871C93.3866 80.4803 94.6976 65.0345 94.9329 63.0597C95.0421 62.0596 95.2102 60.3201 94.185 59.8075C91.521 58.4965 87.6722 54.4628 89.3445 51.9669C91.0168 49.4711 97.2691 56.4292 98.7565 58.4713C99.807 59.9167 100.236 70.9926 100.084 76.7575C100.824 76.7575 101.647 75.2112 102.689 71.6481Z" fill="#AA633F"/>
<path fill-rule="evenodd" clip-rule="evenodd" d="M102.689 71.6479C102.572 76.6397 101.958 84.1525 100.748 84.3458C99.538 84.539 100.151 80.8583 100.084 76.7825L102.689 71.6563V71.6479Z" fill="#934624"/>
<path fill-rule="evenodd" clip-rule="evenodd" d="M119.816 49.2353C123.522 48.6807 123.606 47.8908 123.623 45.731V45.3277C126.354 44.6677 128.809 43.1654 130.64 41.0334C130.858 44.3949 131.48 47.084 133.825 48.0336C134.522 48.3278 135.32 48.5631 136.186 48.874C133.489 53.2859 128.295 58.9583 123.631 58.4709C119.807 58.0507 119.53 52.8657 119.824 49.2269L119.816 49.2353Z" fill="#AA633F"/>
<path fill-rule="evenodd" clip-rule="evenodd" d="M136.783 76.4717C134.791 81.5811 131.74 89.7914 131.119 91.699C130.497 93.6066 135.883 103.052 138.858 111.531C139.581 113.582 130.127 113.347 123.345 113.027C117.463 112.75 113.664 112.758 111.261 112.641C110.673 112.641 110.177 112.573 109.748 112.523C112.992 96.0856 122.967 84.6147 129.69 79.9087C131.821 78.3336 134.226 77.1681 136.783 76.4717Z" fill="#A4D0DC"/>
<path fill-rule="evenodd" clip-rule="evenodd" d="M107.345 70.9254C107.362 69.561 107.666 68.2155 108.236 66.9757C110.681 61.3369 114.799 55.2611 116.11 50.698C117.227 49.9529 118.491 49.4544 119.816 49.2358C119.522 52.8661 119.816 58.0511 123.623 58.4797C128.287 58.9839 133.48 53.2947 136.178 48.8828L136.967 49.1601L138.749 49.9417C137.146 54.1893 136.473 58.7313 136.774 63.2613C129.665 70.7069 116.807 73.2028 107.32 70.9338L107.345 70.9254Z" fill="#A4D0DC"/>
<path fill-rule="evenodd" clip-rule="evenodd" d="M136.799 63.2529C136.953 65.7688 137.858 68.1808 139.396 70.1774C138.926 71.011 138.527 71.8824 138.203 72.7825L136.782 76.4717C134.226 77.1681 131.821 78.3336 129.69 79.9088C122.967 84.6148 112.992 96.0857 109.748 112.523C107.168 112.237 106.992 111.489 107.446 109.162C108.462 103.96 110.126 96.758 109.874 88.2787C109.731 83.3038 109.874 78.4718 109.874 78.4718C109.933 76.8415 107.353 74.7154 107.353 70.9085C116.824 73.1775 129.69 70.6901 136.808 63.2361L136.799 63.2529Z" fill="#C2E2ED"/>
<path d="M133.53 51.1348C134.286 50.1785 135.208 49.3671 136.253 48.7398C136.648 48.5297 138.892 49.1012 138.203 49.6642C133.337 53.7147 131.034 59.7485 129.102 66.11C124.723 80.6146 124.74 96.1276 125.446 111.414C125.44 111.645 125.379 111.872 125.268 112.075C125.157 112.278 124.999 112.452 124.807 112.582C124.63 112.659 124.437 112.694 124.244 112.684C124.051 112.673 123.863 112.617 123.696 112.521C123.528 112.424 123.386 112.29 123.279 112.128C123.173 111.967 123.107 111.782 123.085 111.59C122.328 95.7746 122.354 79.6566 127.093 64.6058C128.597 59.8241 130.547 54.9921 133.53 51.16V51.1348Z" fill="#322875"/>
<path fill-rule="evenodd" clip-rule="evenodd" d="M123.639 45.3277C123.639 42.8066 123.345 39.2603 123.345 39.2603C123.345 39.2603 130.329 28.5542 130.488 34.7056C130.547 36.941 130.488 39.1091 130.656 41.0335C128.824 43.1629 126.37 44.6646 123.639 45.3277Z" fill="#934624"/>
<path fill-rule="evenodd" clip-rule="evenodd" d="M147.01 89.1863C144.413 91.573 134.211 97.2874 130.53 98.1362C126.85 98.9849 120.858 97.0185 121.118 100.136C121.429 103.851 121.732 104.599 125.925 103.498C130.119 102.397 137.741 102.565 143.985 100.136C148.363 98.4555 152.018 96.9344 153.741 95.2285C154.481 94.5058 154.867 94.1529 154.582 91.9343C154.271 89.1191 149.539 86.7913 146.968 89.1863H147.01Z" fill="#AA633F"/>
<path fill-rule="evenodd" clip-rule="evenodd" d="M129.757 13.6297C134.354 15.0667 136.093 22.6131 133.623 30.4368C131.152 38.2605 125.429 43.496 120.833 42.0169C116.236 40.5379 114.496 33.0335 116.959 25.2098C119.421 17.3861 125.16 12.1758 129.757 13.6212V13.6297Z" fill="#AA633F"/>
<path fill-rule="evenodd" clip-rule="evenodd" d="M122.068 116.515C122.303 121.053 124.186 132.683 124.698 136.145C125.211 139.608 127.371 144.347 141.195 142.431C155.018 140.515 156.002 138.423 155.481 131.944C154.96 125.465 153.329 113.817 151.724 110.792C150.119 107.767 131.614 106.767 127.514 107.346C126.149 107.588 124.764 107.692 123.379 107.657C123.061 107.898 122.833 108.238 122.732 108.624C122.106 111.204 121.894 113.868 122.102 116.515H122.068Z" fill="#322875"/>
<path fill-rule="evenodd" clip-rule="evenodd" d="M136.262 105.884C142.069 105.254 147.405 104.842 148.909 104.707C150.59 104.556 152.422 105.027 153.245 109.287C153.854 112.03 154.264 114.813 154.472 117.615C154.472 119.044 154.598 119.296 149.43 120.338C144.262 121.38 135.404 121.952 132.673 122.363C129.942 122.775 128.472 121.884 127.791 117.061C127.11 112.237 125.539 108.355 123.32 107.682C123.32 107.682 130.295 106.523 136.236 105.884H136.262Z" fill="#4C266E"/>
<path fill-rule="evenodd" clip-rule="evenodd" d="M144.648 116.204C145.766 116.052 146.733 116.355 146.808 116.893C146.884 117.431 146.035 117.994 144.917 118.153C143.8 118.313 142.825 118.002 142.749 117.464C142.674 116.926 143.522 116.363 144.648 116.204Z" fill="white"/>
<path fill-rule="evenodd" clip-rule="evenodd" d="M116.555 22.5962C116.555 22.5962 124.404 20.7391 128.261 17.1843C128.261 17.1843 126.337 23.7811 135.253 29.1846C145.472 35.3613 140.489 19.9407 140.489 19.9407L138.405 16.8062L135.253 12.1338H124.698C122.706 13.2395 120.958 14.7362 119.559 16.534C118.16 18.3319 117.138 20.3939 116.555 22.5962Z" fill="#4C266E"/>
<path fill-rule="evenodd" clip-rule="evenodd" d="M37.2003 219.719C37.2003 221.517 37.2928 224.761 37.4188 226.56C37.5029 227.795 37.6121 228.24 43.5955 228.19C49.5788 228.139 51.4528 228.509 51.4108 226.56C51.3688 224.61 43.7131 225.274 43.5955 220.316C43.4778 215.358 37.1583 217.601 37.2003 219.719Z" fill="#322875"/>
<path fill-rule="evenodd" clip-rule="evenodd" d="M14.2417 224.215C13.9812 228.618 10.8802 230.727 5.1658 234.702C2.16572 236.795 -0.237699 235.778 0.291726 233.299C0.821151 230.82 7.10703 226.66 7.67007 224.215C8.23311 221.769 14.3425 222.425 14.2417 224.215Z" fill="#322875"/>
<path fill-rule="evenodd" clip-rule="evenodd" d="M38.5449 144.356C33.0406 163.028 16.7376 218.492 15.6704 222.585C14.393 227.551 15.2838 226.98 9.78786 226.249C5.54405 225.677 5.77936 225.912 6.14911 223.232C6.38441 221.509 11.5862 188.474 15.6704 163.104C25.0235 146.297 31.6372 145.616 35.3684 144.969C36.9818 144.692 37.9482 144.532 38.5281 144.356H38.5449Z" fill="#F05452"/>
<path fill-rule="evenodd" clip-rule="evenodd" d="M61.6547 122.044C59.0917 141.608 45.6207 215.618 45.1165 218.349C44.5619 221.29 45.1165 221.811 40.3433 221.711C35.57 221.61 35.8558 222.072 35.9146 218.349C35.965 214.988 39.5786 151.6 40.2424 140.036C41.8475 138.356 45.2846 137.902 48.1502 136.952C52.2848 135.557 54.8731 132.011 48.9906 133.507C37.3096 136.456 30.5699 131.481 30.6035 128.616C30.6371 125.75 39.5617 125.17 51.7553 124.582C56.5874 124.355 59.6547 123.464 61.68 122.061L61.6547 122.044Z" fill="#F05452"/>
<path fill-rule="evenodd" clip-rule="evenodd" d="M43.898 108.59C53.5453 109.91 62.3859 113.338 62.0413 118.557C61.9825 119.397 61.8481 120.549 61.6548 122.044C59.6295 123.465 56.5622 124.355 51.7302 124.565C39.5366 125.154 30.612 125.734 30.5784 128.599C30.5447 131.465 37.3012 136.44 48.9654 133.49C54.8479 131.994 52.3268 135.541 48.125 136.936C45.293 137.885 41.8223 138.297 40.2173 140.02L40.3181 138.221L38.5197 144.339C37.9399 144.516 36.9735 144.675 35.36 144.953C31.6624 145.6 25.0152 146.255 15.662 163.087C17.8974 149.07 19.7966 137.398 20.3344 134.625C21.7546 127.204 19.9142 121.49 20.284 113.809L35.36 109.128C35.36 109.128 39.0492 108.767 43.8728 108.573L43.898 108.59Z" fill="#C2394E"/>
<path fill-rule="evenodd" clip-rule="evenodd" d="M51.2763 62.0509L50.6881 61.2106C50.6881 61.2106 49.1755 40.3529 51.7301 40.2016C54.2848 40.0504 58.6715 40.4117 62.0833 46.1598C65.4952 51.9078 73.6971 75.337 79.1174 77.4043C79.8401 77.6732 83.773 79.3455 80.0334 85.3541L79.588 85.9507C76.8064 85.6482 72.1004 87.6314 70.3441 85.3541C67.823 82.0767 62.7808 65.3451 57.5454 56.1768C54.184 50.2943 52.2175 56.7231 51.2679 62.0593L51.2763 62.0509Z" fill="#F6E5E7"/>
<path fill-rule="evenodd" clip-rule="evenodd" d="M51.2762 62.0513C52.2258 56.7402 54.1754 50.2863 57.5537 56.1688C62.7807 65.3371 67.4447 76.3878 69.7809 79.7828C73.1423 84.6401 76.8063 85.6653 79.5879 85.9426C75.8735 90.8251 69.075 86.4889 66.0413 82.1946C63.3101 78.329 53.7469 65.3875 51.2762 62.0261V62.0513Z" fill="#D4C1DB"/>
<path fill-rule="evenodd" clip-rule="evenodd" d="M16.729 67.0175L16.9559 60.4544C17.0484 55.8156 16.5442 53.992 18.1072 51.8743C20.2922 48.9078 25.0234 46.4624 27.805 44.6724C28.5361 44.2018 29.1327 43.8321 29.5949 43.4371C31.6538 44.6052 34.5362 42.9413 37.5279 42.4371C40.5196 41.9329 43.318 41.9833 44.3768 39.916C45.3443 40.1162 46.3301 40.2148 47.3181 40.2101C51.6291 40.1009 53.1165 40.2101 53.1165 40.2101C55.2342 42.8237 57.8141 51.2776 60.5621 62.8326C63.3101 74.3875 62.2428 106.321 62.4529 112.876C62.663 119.431 62.7386 119.221 58.6125 119.784C48.9774 120.953 39.2311 120.859 29.6201 119.506C28.847 113.187 29.5697 101.22 30.4605 87.1945C31.5446 69.858 29.5109 61.7737 27.8218 57.5299C26.7713 54.8996 20.9729 61.5804 16.7459 67.0091L16.729 67.0175Z" fill="#F6E5E7"/>
<path fill-rule="evenodd" clip-rule="evenodd" d="M17.2923 10.9237C17.2923 10.9237 15.0653 2.23438 23.2756 0.444421C31.4859 -1.34554 30.1161 2.85625 34.7717 2.7554C37.6542 2.69658 40.8727 3.74703 42.3349 5.78069C45.0073 9.47827 43.2425 12.722 43.4274 13.2011C43.6123 13.6801 46.3014 14.386 47.1082 20.4113C48.0662 27.5796 39.9735 31.8486 36.1163 33.4369C32.2591 35.0251 25.3765 36.21 20.8554 32.294C16.3343 28.3779 18.7125 24.7896 16.4519 22.3357C14.1914 19.8819 11.8552 13.0918 17.2923 10.9237Z" fill="#F05553"/>
<path fill-rule="evenodd" clip-rule="evenodd" d="M30.8304 42.3445C32.0321 40.8823 31.3767 39.3612 30.4439 34.7056C29.0825 27.8903 39.2844 32.0165 39.2844 32.0165C39.6396 33.802 40.2038 35.5395 40.9651 37.1931C40.6374 43.4622 34.4524 42.8235 30.8809 42.3445H30.8304Z" fill="#FAB082"/>
<path fill-rule="evenodd" clip-rule="evenodd" d="M40.9315 37.1935C41.2019 37.7979 41.5524 38.3632 41.9736 38.8742C42.6388 39.481 43.4813 39.8581 44.377 39.9498C43.3181 41.9751 41.0156 43.513 37.8894 44.4121C35.0991 45.135 32.1391 44.7842 29.5951 43.4289C30.0455 43.1109 30.4597 42.7445 30.8304 42.3365C34.0406 42.3365 38.671 41.6137 40.9147 37.1851L40.9315 37.1935Z" fill="#FCCAA6"/>
<path fill-rule="evenodd" clip-rule="evenodd" d="M27.8639 7.2094C33.1497 5.52868 39.5112 10.865 42.0743 19.05C44.6374 27.2351 42.4189 35.2269 37.1414 36.8824C31.864 38.5379 25.4857 33.2269 22.931 25.0334C20.3763 16.8399 22.578 8.8565 27.8639 7.2094Z" fill="#FCCAA6"/>
<path fill-rule="evenodd" clip-rule="evenodd" d="M16.7291 67.0176C20.9309 61.5889 26.7546 54.908 27.805 57.5384C29.4857 61.7401 31.5278 69.8664 30.4438 87.203C29.6034 101.229 28.8471 113.195 29.6034 119.515C25.4772 118.985 22.141 118.363 20.0065 117.952C14.7543 116.935 16.0988 83.497 16.7123 67.0176H16.7291Z" fill="#D4C1DB"/>
<path fill-rule="evenodd" clip-rule="evenodd" d="M11.3424 105.044C11.1491 103.565 11.0146 102.111 10.9558 100.724C10.334 86.1525 11.7962 67.11 13.8298 60.614C17.5946 48.6893 22.5107 47.9498 25.2503 49.1179C30.9563 51.5382 30.2924 59.9837 27.7714 70.4882C25.2503 80.9927 22.2502 94.7409 22.3847 102.607V103.876C18.7596 104.679 15.0554 105.071 11.3424 105.044Z" fill="#F6E5E7"/>
<path fill-rule="evenodd" clip-rule="evenodd" d="M22.452 103.876C22.6201 112.178 23.2252 127.809 23.8974 133.65C24.6117 139.809 25.8303 146.625 20.9982 149.936C18.267 151.818 18.9898 140.44 19.3175 138.566C19.62 136.885 13.0484 119.237 11.3425 105.044C15.0781 105.08 18.8056 104.688 22.452 103.876Z" fill="#FCCAA6"/>
<path fill-rule="evenodd" clip-rule="evenodd" d="M83.5208 45.7647C88.7983 42.21 91.084 41.0251 91.4202 44.3361C91.7563 47.6471 90.6302 47.0925 86.9663 49.2522C83.3023 51.4119 82.2687 51.7733 82.5208 54.7818C82.7729 57.7903 83.0754 74.4882 81.5628 81.6732C79.243 81.076 77.1792 79.7433 75.6803 77.8748C74.3525 76.1941 73.0247 74.6478 74.6046 66.6224C75.5542 61.7988 77.1761 55.0507 77.6719 53.059C78.5627 49.5043 78.2518 49.3363 83.5544 45.7815L83.5208 45.7647Z" fill="#FCCAA6"/>
<path fill-rule="evenodd" clip-rule="evenodd" d="M22.8554 27.5713C22.8554 27.5713 27.721 19.2518 23.8974 15.05C23.8974 15.05 29.116 16.4702 32.385 15.7643C35.654 15.0584 36.9061 11.907 38.0238 13.3693C39.1415 14.8315 42.7214 21.151 44.024 21.1594C45.3265 21.1678 38.528 6.87329 38.528 6.87329L22.8554 3.20093L17.1914 13.8399L22.8554 27.5713Z" fill="#F05553"/>
<path d="M166.532 242.736L186.7 242.568C186.7 242.568 190.465 238.291 189.372 234.61C188.28 230.929 184.271 236.039 183.019 237.585C181.767 239.131 182.608 230.139 179.599 227.501C176.591 224.862 175.733 231.434 175.918 235.534C176.103 239.635 172.809 232.845 169.792 228.694C166.775 224.543 164.616 226.862 165.498 229.702C166.38 232.543 169.254 236.845 168.607 238.173C167.96 239.501 164.405 235.215 162.674 236.694C160.943 238.173 161.758 240.686 166.532 242.736Z" fill="#71CDDF"/>
<path d="M173.381 206.617L172.793 206.64L174.158 241.547L174.746 241.524L173.381 206.617Z" fill="#71CDDF" stroke="#71CDDF" stroke-width="0.5" stroke-miterlimit="10"/>
<path d="M173.876 227.105C173.876 227.105 172.036 221.072 169.952 222.752C167.868 224.433 173.876 227.105 173.876 227.105Z" fill="#71CDDF"/>
<path d="M173.876 220.383C173.876 220.383 175.238 214.223 177.448 215.736C179.658 217.248 173.876 220.383 173.876 220.383Z" fill="#71CDDF"/>
<path d="M173.759 208.408C174.809 208.644 175.884 208.754 176.96 208.735C178.002 208.668 179.851 207.685 179.818 205.887C179.784 204.088 179.498 202.525 180.288 201.777C180.882 201.06 181.226 200.169 181.265 199.238C181.305 198.308 181.038 197.39 180.507 196.626C179.078 194.693 177.473 194.945 176.666 194.483C175.859 194.021 174.565 190.743 171.758 190.853C168.952 190.962 168.464 193.869 168.195 194.743C167.926 195.617 164.531 196.046 163.943 199.147C163.355 202.248 166.179 203.567 166.195 204.13C166.212 204.693 165.103 207.845 168.011 209.122C170.918 210.399 172.347 208.298 173.759 208.408Z" fill="#F05553"/>
<path d="M172.624 203.223C173.928 203.223 174.985 202.165 174.985 200.861C174.985 199.557 173.928 198.5 172.624 198.5C171.32 198.5 170.263 199.557 170.263 200.861C170.263 202.165 171.32 203.223 172.624 203.223Z" fill="white"/>
<path d="M187.464 242.384L207.633 243.005C207.633 243.005 211.557 238.879 210.608 235.157C209.658 231.434 205.456 236.392 204.146 237.888C202.835 239.384 204.019 230.425 201.12 227.694C198.221 224.963 197.103 231.467 197.129 235.577C197.154 239.686 194.128 232.77 191.246 228.501C188.364 224.232 186.145 226.467 186.918 229.341C187.691 232.215 190.389 236.627 189.691 237.93C188.994 239.232 185.632 234.812 183.809 236.249C181.985 237.686 182.767 240.157 187.464 242.384Z" fill="#71CDDF"/>
<path d="M195.546 211.277L193.736 240.625L194.231 240.656L196.041 211.307L195.546 211.277Z" fill="#71CDDF" stroke="#71CDDF" stroke-width="0.5" stroke-miterlimit="10"/>
<path d="M194.86 226.207C194.86 226.207 193.641 220.022 191.397 221.484C189.153 222.946 194.86 226.207 194.86 226.207Z" fill="#71CDDF"/>
<path d="M194.86 226.207C194.86 226.207 196.834 220.215 198.885 221.946C200.935 223.677 194.86 226.207 194.86 226.207Z" fill="#71CDDF"/>
<path d="M196.204 211.769C197.226 212.107 198.283 212.324 199.356 212.416C200.406 212.416 202.339 211.66 202.482 209.895C202.625 208.131 202.482 206.534 203.372 205.853C204.033 205.199 204.462 204.345 204.592 203.424C204.723 202.503 204.548 201.565 204.095 200.752C202.877 198.685 201.255 198.811 200.498 198.231C199.742 197.651 198.818 194.298 195.977 194.122C193.137 193.945 192.397 196.794 192.044 197.635C191.692 198.475 188.263 198.567 187.364 201.593C186.464 204.618 189.145 206.215 189.112 206.769C189.078 207.324 187.649 210.366 190.414 211.921C193.179 213.475 194.809 211.526 196.204 211.769Z" fill="#F05553"/>
<path d="M195.826 206.509C197.13 206.509 198.187 205.451 198.187 204.147C198.187 202.843 197.13 201.786 195.826 201.786C194.522 201.786 193.464 202.843 193.464 204.147C193.464 205.451 194.522 206.509 195.826 206.509Z" fill="white"/>
</svg>
