<svg width="39" height="39" viewBox="0 0 39 39" fill="none" xmlns="http://www.w3.org/2000/svg">
<ellipse cx="19.5001" cy="19.014" rx="19.4894" ry="19.014" fill="#4B0A70"/>
<path d="M18.6883 17.7971C21.451 17.7971 23.495 18.3384 24.8203 19.4211C26.1457 20.4851 26.8083 21.9411 26.8083 23.7891C26.8083 24.9651 26.519 26.0291 25.9403 26.9811C25.3617 27.9331 24.4937 28.6891 23.3363 29.2491C22.179 29.8091 20.751 30.0891 19.0523 30.0891C17.6523 30.0891 16.299 29.8931 14.9923 29.5011C13.6857 29.0904 12.5843 28.5304 11.6883 27.8211L13.2283 24.9931C13.9563 25.5904 14.8243 26.0664 15.8323 26.4211C16.859 26.7571 17.9137 26.9251 18.9963 26.9251C20.2843 26.9251 21.2923 26.6637 22.0203 26.1411C22.767 25.5997 23.1403 24.8624 23.1403 23.9291C23.1403 22.9211 22.739 22.1651 21.9363 21.6611C21.1523 21.1384 19.799 20.8771 17.8763 20.8771H13.1443L14.1523 10.2091H25.6603V13.2611H17.2323L16.8123 17.7971H18.6883Z" fill="white"/>
</svg>
