<svg width="261" height="270" viewBox="0 0 261 270" fill="none" xmlns="http://www.w3.org/2000/svg">
<path d="M260.79 270C260.79 270 255.489 259.772 226.264 256.826C213.231 254.649 207.197 244.102 187.874 241.714C150.132 237.049 113.166 241.289 88.4529 249.889C65.0417 258.035 58.3689 256.045 27.2642 260.586C10.1371 262.176 0.230957 268.278 0.230957 270H260.79Z" fill="#C4E8F0"/>
<path d="M161.771 197.255L157.791 203.419C157.791 203.419 165.54 245.591 165.54 250.548C162.132 253.965 159.649 256.131 159.649 256.131H172.056C172.056 256.131 170.189 204.969 170.189 197.219C164.615 191.645 161.771 197.255 161.771 197.255Z" fill="#FBC8A0"/>
<path d="M196.035 197.457L201.574 202.318C201.574 202.318 207.738 248.734 209.112 253.507C213.33 255.841 215.118 256.149 215.118 256.149H203.203C203.203 256.149 190.082 207.241 187.942 199.791C191.764 192.852 196.035 197.457 196.035 197.457Z" fill="#FBC8A0"/>
<path d="M172.056 146.681H173.527V107.609L156.795 109.009C156.795 109.009 150.059 127.088 150.059 142.314C150.059 157.539 165.496 247.986 165.496 247.986L171.528 248.276L172.056 146.681Z" fill="#2C58B1"/>
<path d="M201.627 249.447L173.527 146.681L168.974 121.875L173.527 107.609H185.565C185.565 107.609 193.49 130.249 195.013 141.415C195.788 146.937 207.958 249.447 207.958 249.447H201.627Z" fill="#2C58B1"/>
<path d="M118.19 51.0748C118.067 51.1276 118.04 51.0748 118.014 50.9867C117.882 50.5288 117.741 50.1061 117.6 49.613C117.6 49.5338 117.6 49.4721 117.688 49.4545L117.547 48.9878C117.415 48.9878 117.397 48.9349 117.371 48.8469L116.966 47.5524C116.966 47.4731 116.966 47.4115 117.045 47.3851L116.834 46.6718C116.702 46.7334 116.693 46.6718 116.666 46.5749L116.481 45.9673C116.481 45.8881 116.481 45.8176 116.57 45.7912V45.6591C116.402 45.1043 116.244 44.5407 116.059 43.986C116.026 43.8385 116.024 43.6861 116.05 43.5375C116.077 43.3889 116.133 43.2471 116.215 43.1203C116.297 42.9934 116.403 42.884 116.527 42.7983C116.652 42.7126 116.792 42.6524 116.939 42.621L126.626 39.627C126.767 39.5727 126.918 39.5474 127.07 39.5527C127.221 39.558 127.37 39.5938 127.507 39.6579C127.645 39.722 127.767 39.8132 127.869 39.9259C127.97 40.0386 128.047 40.1705 128.097 40.3139C128.378 41.1945 128.643 42.0751 128.924 43.0085C128.924 43.0613 128.924 43.1318 129.03 43.123C129.136 43.1142 129.083 43.123 129.092 43.1934L129.673 45.0955C129.673 45.0955 129.673 45.1572 129.673 45.166C129.673 45.1748 129.62 45.3157 129.673 45.3861C131.187 50.3938 132.708 55.3839 134.234 60.3563C134.276 60.5091 134.286 60.6688 134.264 60.8257C134.242 60.9825 134.188 61.1332 134.106 61.2684C134.023 61.4037 133.914 61.5206 133.785 61.6121C133.655 61.7036 133.509 61.7677 133.354 61.8005L123.667 64.7417C123.525 64.7953 123.374 64.8203 123.222 64.8152C123.07 64.8101 122.92 64.775 122.782 64.712C122.644 64.649 122.519 64.5593 122.416 64.448C122.312 64.3368 122.232 64.2061 122.179 64.0637C120.887 59.7722 119.587 55.4896 118.278 51.2157L118.19 51.0748Z" fill="#322875"/>
<path d="M185.177 2.18363C185.177 2.18363 179.013 -1.94639 172.981 1.15332C166.949 4.25304 160.371 10.2587 158.891 24.4188C157.412 38.5789 150.42 42.7001 149.205 49.5247C147.99 56.3494 146.933 67.9205 158.715 73.9174C170.498 79.9143 197.391 79.7558 210.186 77.2284C222.392 74.8508 233.144 57.591 225.905 44.5669C218.667 31.5429 212.273 31.7454 208.751 25.5372C205.229 19.3289 198.783 -1.56773 185.177 2.18363Z" fill="#4C266E"/>
<path d="M172.153 39.2919C172.153 39.2919 172.417 47.0941 170.189 49.322C167.961 51.5499 163.726 51.9021 163.726 51.9021C163.726 51.9021 164.509 59.6514 171.123 61.4126C174.41 62.2415 177.879 61.9614 180.991 60.6158C184.102 59.2702 186.682 56.9345 188.33 53.9716C184.349 52.4217 182.87 51.1448 182.491 49.1106C182.113 47.0764 181.355 33.6121 181.355 33.6121L172.153 39.2919Z" fill="#AA633F"/>
<path d="M163.726 56.7632C163.726 56.7632 162.898 52.14 161.612 51.5941C158.152 50.1411 150.041 61.8971 134.226 82.0276C131.584 93.044 131.126 94.902 132.517 94.902C133.909 94.902 144.608 90.1996 156.707 73.2481C163.215 62.8041 163.726 56.7632 163.726 56.7632Z" fill="#AA633F"/>
<path d="M135.775 88.3859L134.226 82.0279C134.226 82.0279 124.918 67.4628 123.834 60.3299C121.36 55.5218 119.801 56.605 119.801 56.605C119.801 56.605 122.751 90.5609 132.517 94.9023C135.661 89.6275 135.775 88.3859 135.775 88.3859Z" fill="#AA633F"/>
<path d="M121.51 60.638L123.834 60.3298C123.834 60.3298 126.124 54.7027 127.788 53.0384C129.453 51.374 128.669 48.6354 127.788 47.7548C126.908 46.8742 119.81 51.1803 119.81 55.3632C119.81 59.546 120.259 60.6468 120.259 60.6468L121.51 60.638Z" fill="#AA633F"/>
<path d="M204.454 93.3435L208.178 93.8102C208.178 93.8102 218.57 130.241 222.268 136.748C221.026 141.09 219.327 141.407 219.327 141.407C219.327 141.407 202.032 111.008 198.545 99.7895C201.451 96.8659 204.454 93.3435 204.454 93.3435Z" fill="#AA633F"/>
<path d="M222.101 137.18L224.241 137.505C224.241 137.505 234.35 142.472 235.301 145.959C232.263 145.651 226.063 142.437 221.546 142.217C216.377 140.332 219.362 136.678 219.362 136.678L222.101 137.18Z" fill="#AA633F"/>
<path d="M163.373 254.44H161.524C161.524 254.44 155.466 254.59 155.466 257.082H172.373C172.468 255.787 172.325 254.486 171.951 253.243C168.851 254.493 163.373 254.44 163.373 254.44Z" fill="#322875"/>
<path d="M209.112 253.507C212.212 253.507 216.315 255.269 216.315 257.074H202.587C202.587 257.074 201.97 254.027 202.481 253.507C203.925 254.934 207.412 255.198 209.112 253.507Z" fill="#322875"/>
<path d="M166.121 54.0775L166.332 51.3828L161.278 51.4973C161.278 51.4973 162.158 59.7573 158.31 63.5791C154.462 67.4009 150.869 74.1463 156.443 81.5698C158.31 90.6664 158.204 100.062 157.068 105.751C156.082 110.815 155.413 113.042 155.413 113.042C155.413 113.042 175.05 116.565 187.335 113.042C184.948 104.562 182.879 88.1479 191.368 77.8185C193.446 59.8366 193.446 55.6978 193.446 55.6978L185.248 52.51C185.248 52.51 184.164 59.6252 173.509 59.6252C166.121 59.6517 166.121 54.0775 166.121 54.0775Z" fill="#F5E5E6"/>
<path d="M174.531 43.5013C176.618 43.0963 180.334 41.7401 181.699 39.2568C181.699 33.3832 181.311 32.6611 181.311 32.6611L172.153 39.2921L172.056 42.8937C172.387 43.1906 172.786 43.4013 173.217 43.5073C173.649 43.6133 174.1 43.6113 174.531 43.5013Z" fill="#934624"/>
<path d="M185.617 27.5535C182.879 36.6149 176.001 42.5237 170.277 40.8065C164.553 39.0894 162.114 30.3274 164.862 21.2748C167.609 12.2222 174.469 6.3046 180.202 8.0658C185.934 9.827 188.356 18.4921 185.617 27.5535Z" fill="#AA633F"/>
<path d="M182.13 11.6412C182.13 11.6412 179.277 18.3249 167.063 16.0442C164.008 13.0237 168.49 3.11695 179.189 5.28322C189.888 7.4495 195.339 25.449 187.995 31.0232C183.759 26.7611 177.639 21.134 182.13 11.6412Z" fill="#4C266E"/>
<path d="M193.446 55.7243C198.642 55.9093 208.179 93.8191 208.179 93.8191C208.179 93.8191 207.562 103.893 202.895 101.877C198.712 100.019 198.554 99.7984 198.554 99.7984C198.554 99.7984 177.173 54.2273 193.446 55.7243Z" fill="#AA633F"/>
<path d="M110.458 46.6804H108.6V65.8335H110.458V46.6804Z" fill="#A680B7"/>
<path d="M119.766 63.9756H108.6V65.8337H119.766V63.9756Z" fill="#A680B7"/>
<path d="M141.455 63.9756H130.289V65.8337H141.455V63.9756Z" fill="#A680B7"/>
<path d="M141.446 54.6763H139.588V65.8423H141.446V54.6763Z" fill="#A680B7"/>
<path d="M141.552 34.3696H139.694V50.7312H141.552V34.3696Z" fill="#A680B7"/>
<path d="M141.552 34.3699H123.799V36.2279H141.552V34.3699Z" fill="#A680B7"/>
<path d="M118.472 34.3704H108.6V36.2284H118.472V34.3704Z" fill="#A680B7"/>
<path d="M110.458 34.3704H108.6V42.4191H110.458V34.3704Z" fill="#A680B7"/>
<g opacity="0.6">
<path d="M136.175 76.4685L88.0282 179.371" stroke="#A680B7" stroke-width="2" stroke-linecap="round" stroke-linejoin="round"/>
<path d="M104.077 67.9719L88.0282 83.0768" stroke="#A680B7" stroke-width="2" stroke-linecap="round" stroke-linejoin="round"/>
<path d="M101.245 38.7063L27.6086 65.1399" stroke="#A680B7" stroke-width="2" stroke-linecap="round"/>
</g>
<path d="M80.2055 74.2764V188.07C80.2055 190.494 78.3781 192.486 76.1521 192.486H20.3335C18.1738 192.486 16.4129 190.626 16.28 188.335C16.28 188.236 16.28 188.169 16.28 188.07V74.2764C16.28 71.8524 18.1074 69.8601 20.3335 69.8601H76.1521C78.3781 69.8601 80.2055 71.8524 80.2055 74.2764Z" fill="#4B0A70"/>
<path d="M80.2055 181.528V188.103C80.2055 190.527 78.3781 192.519 76.1521 192.519H20.3335C18.1074 192.519 16.28 190.527 16.28 188.103V181.528H80.2055Z" fill="#E8DAF2"/>
<path d="M80.2055 74.2764V80.8509H16.28V74.2764C16.28 71.8524 18.1074 69.8601 20.3335 69.8601H76.1521C78.3781 69.8601 80.2055 71.8524 80.2055 74.2764Z" fill="#E8DAF2"/>
<path d="M52.861 187.14C52.861 188.435 51.7978 189.497 50.502 189.497H45.9834C44.6876 189.497 43.6244 188.435 43.6244 187.14V186.907C43.6244 185.612 44.6876 184.55 45.9834 184.55H50.502C51.7978 184.55 52.861 185.612 52.861 186.907V187.14Z" fill="#BA91B5"/>
<path d="M49.6714 75.0731C49.6714 75.9364 49.0401 76.6337 48.2427 76.6337C47.4453 76.6337 46.814 75.9364 46.814 75.0731C46.814 74.2098 47.4453 73.5125 48.2427 73.5125C49.0401 73.5125 49.6714 74.2098 49.6714 75.0731Z" fill="#BA91B5"/>
<path d="M27.1484 140.376C27.4951 140.549 27.7584 140.776 27.9384 141.056C28.1251 141.336 28.2184 141.659 28.2184 142.026C28.2184 142.459 28.0951 142.839 27.8484 143.166C27.6018 143.486 27.2551 143.736 26.8084 143.916C26.3618 144.089 25.8451 144.176 25.2584 144.176C24.6718 144.176 24.1551 144.089 23.7084 143.916C23.2684 143.736 22.9251 143.486 22.6784 143.166C22.4384 142.839 22.3184 142.459 22.3184 142.026C22.3184 141.659 22.4084 141.336 22.5884 141.056C22.7751 140.776 23.0384 140.549 23.3784 140.376C23.1184 140.216 22.9184 140.016 22.7784 139.776C22.6384 139.529 22.5684 139.249 22.5684 138.936C22.5684 138.529 22.6818 138.176 22.9084 137.876C23.1351 137.576 23.4518 137.346 23.8584 137.186C24.2651 137.019 24.7318 136.936 25.2584 136.936C25.7918 136.936 26.2618 137.019 26.6684 137.186C27.0818 137.346 27.4018 137.576 27.6284 137.876C27.8551 138.176 27.9684 138.529 27.9684 138.936C27.9684 139.249 27.8984 139.529 27.7584 139.776C27.6184 140.016 27.4151 140.216 27.1484 140.376ZM25.2584 138.126C24.9318 138.126 24.6684 138.206 24.4684 138.366C24.2751 138.519 24.1784 138.733 24.1784 139.006C24.1784 139.273 24.2751 139.483 24.4684 139.636C24.6618 139.789 24.9251 139.866 25.2584 139.866C25.5918 139.866 25.8584 139.789 26.0584 139.636C26.2584 139.483 26.3584 139.273 26.3584 139.006C26.3584 138.733 26.2584 138.519 26.0584 138.366C25.8584 138.206 25.5918 138.126 25.2584 138.126ZM25.2584 142.986C25.6651 142.986 25.9851 142.896 26.2184 142.716C26.4584 142.529 26.5784 142.283 26.5784 141.976C26.5784 141.669 26.4584 141.426 26.2184 141.246C25.9851 141.066 25.6651 140.976 25.2584 140.976C24.8584 140.976 24.5418 141.066 24.3084 141.246C24.0751 141.426 23.9584 141.669 23.9584 141.976C23.9584 142.289 24.0751 142.536 24.3084 142.716C24.5418 142.896 24.8584 142.986 25.2584 142.986ZM31.42 136.936C32.4 136.936 33.1667 137.236 33.72 137.836C34.2733 138.429 34.55 139.286 34.55 140.406C34.55 141.199 34.4 141.879 34.1 142.446C33.8067 143.013 33.39 143.443 32.85 143.736C32.31 144.029 31.6867 144.176 30.98 144.176C30.6067 144.176 30.25 144.136 29.91 144.056C29.57 143.969 29.28 143.849 29.04 143.696L29.64 142.506C29.98 142.739 30.4167 142.856 30.95 142.856C31.5433 142.856 32.0133 142.683 32.36 142.336C32.7067 141.983 32.8933 141.476 32.92 140.816C32.5 141.236 31.92 141.446 31.18 141.446C30.7333 141.446 30.3267 141.356 29.96 141.176C29.5933 140.996 29.3033 140.743 29.09 140.416C28.8767 140.083 28.77 139.699 28.77 139.266C28.77 138.799 28.8867 138.389 29.12 138.036C29.3533 137.683 29.67 137.413 30.07 137.226C30.4767 137.033 30.9267 136.936 31.42 136.936ZM31.54 140.236C31.8933 140.236 32.18 140.139 32.4 139.946C32.6267 139.746 32.74 139.493 32.74 139.186C32.74 138.879 32.63 138.629 32.41 138.436C32.1967 138.243 31.9 138.146 31.52 138.146C31.1733 138.146 30.89 138.239 30.67 138.426C30.4567 138.613 30.35 138.866 30.35 139.186C30.35 139.506 30.4567 139.763 30.67 139.956C30.89 140.143 31.18 140.236 31.54 140.236ZM37.7272 139.686C38.7139 139.686 39.4405 139.883 39.9072 140.276C40.3805 140.669 40.6172 141.196 40.6172 141.856C40.6172 142.283 40.5105 142.673 40.2972 143.026C40.0839 143.373 39.7572 143.653 39.3172 143.866C38.8839 144.073 38.3472 144.176 37.7072 144.176C37.2139 144.176 36.7272 144.113 36.2472 143.986C35.7739 143.853 35.3705 143.666 35.0372 143.426L35.6772 142.186C35.9439 142.386 36.2505 142.543 36.5972 142.656C36.9439 142.763 37.3005 142.816 37.6672 142.816C38.0739 142.816 38.3939 142.736 38.6272 142.576C38.8605 142.416 38.9772 142.193 38.9772 141.906C38.9772 141.606 38.8539 141.379 38.6072 141.226C38.3672 141.073 37.9472 140.996 37.3472 140.996H35.5572L35.9172 137.056H40.1872V138.356H37.2672L37.1572 139.686H37.7272ZM46.4556 142.736V144.056H41.1656V143.006L43.8656 140.456C44.1523 140.183 44.3456 139.949 44.4456 139.756C44.5456 139.556 44.5956 139.359 44.5956 139.166C44.5956 138.886 44.499 138.673 44.3056 138.526C44.119 138.373 43.8423 138.296 43.4756 138.296C43.169 138.296 42.8923 138.356 42.6456 138.476C42.399 138.589 42.1923 138.763 42.0256 138.996L40.8456 138.236C41.119 137.829 41.4956 137.513 41.9756 137.286C42.4556 137.053 43.0056 136.936 43.6256 136.936C44.1456 136.936 44.599 137.023 44.9856 137.196C45.379 137.363 45.6823 137.603 45.8956 137.916C46.1156 138.223 46.2256 138.586 46.2256 139.006C46.2256 139.386 46.1456 139.743 45.9856 140.076C45.8256 140.409 45.5156 140.789 45.0556 141.216L43.4456 142.736H46.4556ZM47.215 140.616H50.045V141.866H47.215V140.616ZM53.4276 137.056V144.056H51.8076V138.356H50.4076V137.056H53.4276ZM59.8736 142.736V144.056H54.5836V143.006L57.2836 140.456C57.5703 140.183 57.7636 139.949 57.8636 139.756C57.9636 139.556 58.0136 139.359 58.0136 139.166C58.0136 138.886 57.9169 138.673 57.7236 138.526C57.5369 138.373 57.2603 138.296 56.8936 138.296C56.5869 138.296 56.3103 138.356 56.0636 138.476C55.8169 138.589 55.6103 138.763 55.4436 138.996L54.2636 138.236C54.5369 137.829 54.9136 137.513 55.3936 137.286C55.8736 137.053 56.4236 136.936 57.0436 136.936C57.5636 136.936 58.0169 137.023 58.4036 137.196C58.7969 137.363 59.1003 137.603 59.3136 137.916C59.5336 138.223 59.6436 138.586 59.6436 139.006C59.6436 139.386 59.5636 139.743 59.4036 140.076C59.2436 140.409 58.9336 140.789 58.4736 141.216L56.8636 142.736H59.8736ZM66.8544 142.586H65.7144V144.056H64.1344V142.586H60.3644V141.496L63.6644 137.056H65.3644L62.3044 141.266H64.1844V139.956H65.7144V141.266H66.8544V142.586ZM73.7489 142.586H72.6089V144.056H71.0289V142.586H67.2589V141.496L70.5589 137.056H72.2589L69.1989 141.266H71.0789V139.956H72.6089V141.266H73.7489V142.586Z" fill="white"/>
<path d="M29.5522 156.337V157.217H25.4242V156.521L27.6482 154.409C27.8989 154.169 28.0669 153.961 28.1522 153.785C28.2429 153.603 28.2882 153.425 28.2882 153.249C28.2882 152.987 28.2002 152.787 28.0242 152.649C27.8482 152.51 27.5895 152.441 27.2482 152.441C26.6775 152.441 26.2402 152.635 25.9362 153.025L25.2082 152.465C25.4269 152.171 25.7202 151.945 26.0882 151.785C26.4615 151.619 26.8775 151.537 27.3362 151.537C27.9442 151.537 28.4295 151.681 28.7922 151.969C29.1549 152.257 29.3362 152.649 29.3362 153.145C29.3362 153.449 29.2722 153.734 29.1442 154.001C29.0162 154.267 28.7709 154.571 28.4082 154.913L26.9122 156.337H29.5522ZM32.5365 153.929C33.0538 153.993 33.4485 154.169 33.7205 154.457C33.9925 154.745 34.1285 155.105 34.1285 155.537C34.1285 155.862 34.0458 156.158 33.8805 156.425C33.7151 156.691 33.4645 156.905 33.1285 157.065C32.7978 157.219 32.3925 157.297 31.9125 157.297C31.5125 157.297 31.1258 157.241 30.7525 157.129C30.3845 157.011 30.0698 156.851 29.8085 156.649L30.2565 155.841C30.4591 156.011 30.7045 156.147 30.9925 156.249C31.2858 156.345 31.5871 156.393 31.8965 156.393C32.2645 156.393 32.5525 156.318 32.7605 156.169C32.9738 156.014 33.0805 155.806 33.0805 155.545C33.0805 155.283 32.9791 155.081 32.7765 154.937C32.5791 154.787 32.2751 154.713 31.8645 154.713H31.3525V154.001L32.6245 152.489H30.0805V151.617H33.8965V152.313L32.5365 153.929ZM42.7157 152.897C43.2543 152.897 43.681 153.054 43.9957 153.369C44.3103 153.678 44.4677 154.145 44.4677 154.769V157.217H43.4677V154.897C43.4677 154.523 43.385 154.243 43.2197 154.057C43.0543 153.865 42.817 153.769 42.5077 153.769C42.1717 153.769 41.9023 153.881 41.6997 154.105C41.497 154.323 41.3957 154.638 41.3957 155.049V157.217H40.3957V154.897C40.3957 154.523 40.313 154.243 40.1477 154.057C39.9823 153.865 39.745 153.769 39.4357 153.769C39.0943 153.769 38.8223 153.878 38.6197 154.097C38.4223 154.315 38.3237 154.633 38.3237 155.049V157.217H37.3237V152.945H38.2757V153.489C38.4357 153.297 38.6357 153.15 38.8757 153.049C39.1157 152.947 39.3823 152.897 39.6757 152.897C39.9957 152.897 40.2783 152.958 40.5237 153.081C40.7743 153.198 40.9717 153.374 41.1157 153.609C41.2917 153.385 41.5183 153.211 41.7957 153.089C42.073 152.961 42.3797 152.897 42.7157 152.897ZM45.7455 152.945H46.7455V157.217H45.7455V152.945ZM46.2495 152.241C46.0682 152.241 45.9162 152.185 45.7935 152.073C45.6709 151.955 45.6095 151.811 45.6095 151.641C45.6095 151.47 45.6709 151.329 45.7935 151.217C45.9162 151.099 46.0682 151.041 46.2495 151.041C46.4309 151.041 46.5829 151.097 46.7055 151.209C46.8282 151.315 46.8895 151.451 46.8895 151.617C46.8895 151.793 46.8282 151.942 46.7055 152.065C46.5882 152.182 46.4362 152.241 46.2495 152.241ZM50.482 152.897C51.0207 152.897 51.4527 153.054 51.778 153.369C52.1034 153.683 52.266 154.15 52.266 154.769V157.217H51.266V154.897C51.266 154.523 51.178 154.243 51.002 154.057C50.826 153.865 50.5754 153.769 50.25 153.769C49.882 153.769 49.5914 153.881 49.378 154.105C49.1647 154.323 49.058 154.641 49.058 155.057V157.217H48.058V152.945H49.01V153.497C49.1754 153.299 49.3834 153.15 49.634 153.049C49.8847 152.947 50.1674 152.897 50.482 152.897ZM57.6706 152.945V157.217H56.7186V156.673C56.5586 156.865 56.3586 157.014 56.1186 157.121C55.8786 157.222 55.6199 157.273 55.3426 157.273C54.7719 157.273 54.3213 157.115 53.9906 156.801C53.6653 156.481 53.5026 156.009 53.5026 155.385V152.945H54.5026V155.249C54.5026 155.633 54.5879 155.921 54.7586 156.113C54.9346 156.299 55.1826 156.393 55.5026 156.393C55.8599 156.393 56.1426 156.283 56.3506 156.065C56.5639 155.841 56.6706 155.521 56.6706 155.105V152.945H57.6706ZM61.5479 156.985C61.4306 157.081 61.2866 157.153 61.1159 157.201C60.9506 157.249 60.7746 157.273 60.5879 157.273C60.1186 157.273 59.7559 157.15 59.4999 156.905C59.2439 156.659 59.1159 156.302 59.1159 155.833V153.777H58.4119V152.977H59.1159V152.001H60.1159V152.977H61.2599V153.777H60.1159V155.809C60.1159 156.017 60.1666 156.177 60.2679 156.289C60.3692 156.395 60.5159 156.449 60.7079 156.449C60.9319 156.449 61.1186 156.39 61.2679 156.273L61.5479 156.985ZM66.2459 155.105C66.2459 155.174 66.2406 155.273 66.2299 155.401H62.8779C62.9366 155.715 63.0886 155.966 63.3339 156.153C63.5846 156.334 63.8939 156.425 64.2619 156.425C64.7312 156.425 65.1179 156.27 65.4219 155.961L65.9579 156.577C65.7659 156.806 65.5232 156.979 65.2299 157.097C64.9366 157.214 64.6059 157.273 64.2379 157.273C63.7686 157.273 63.3552 157.179 62.9979 156.993C62.6406 156.806 62.3632 156.547 62.1659 156.217C61.9739 155.881 61.8779 155.502 61.8779 155.081C61.8779 154.665 61.9712 154.291 62.1579 153.961C62.3499 153.625 62.6139 153.363 62.9499 153.177C63.2859 152.99 63.6646 152.897 64.0859 152.897C64.5019 152.897 64.8726 152.99 65.1979 153.177C65.5286 153.358 65.7846 153.617 65.9659 153.953C66.1526 154.283 66.2459 154.667 66.2459 155.105ZM64.0859 153.697C63.7659 153.697 63.4939 153.793 63.2699 153.985C63.0512 154.171 62.9179 154.422 62.8699 154.737H65.2939C65.2512 154.427 65.1206 154.177 64.9019 153.985C64.6832 153.793 64.4112 153.697 64.0859 153.697ZM68.5265 157.273C68.1798 157.273 67.8411 157.227 67.5105 157.137C67.1798 157.046 66.9158 156.931 66.7185 156.793L67.1025 156.033C67.2945 156.161 67.5238 156.265 67.7905 156.345C68.0625 156.419 68.3291 156.457 68.5905 156.457C69.1878 156.457 69.4865 156.299 69.4865 155.985C69.4865 155.835 69.4091 155.731 69.2545 155.673C69.1051 155.614 68.8625 155.558 68.5265 155.505C68.1745 155.451 67.8865 155.39 67.6625 155.321C67.4438 155.251 67.2518 155.131 67.0865 154.961C66.9265 154.785 66.8465 154.542 66.8465 154.233C66.8465 153.827 67.0145 153.505 67.3505 153.265C67.6918 153.019 68.1505 152.897 68.7265 152.897C69.0198 152.897 69.3131 152.931 69.6065 153.001C69.8998 153.065 70.1398 153.153 70.3265 153.265L69.9425 154.025C69.5798 153.811 69.1718 153.705 68.7185 153.705C68.4251 153.705 68.2011 153.75 68.0465 153.841C67.8971 153.926 67.8225 154.041 67.8225 154.185C67.8225 154.345 67.9025 154.459 68.0625 154.529C68.2278 154.593 68.4811 154.654 68.8225 154.713C69.1638 154.766 69.4438 154.827 69.6625 154.897C69.8811 154.966 70.0678 155.083 70.2225 155.249C70.3825 155.414 70.4625 155.649 70.4625 155.953C70.4625 156.353 70.2891 156.673 69.9425 156.913C69.5958 157.153 69.1238 157.273 68.5265 157.273Z" fill="white"/>
<path d="M32.6497 165.257C33.1671 165.321 33.5617 165.497 33.8337 165.785C34.1057 166.073 34.2417 166.433 34.2417 166.865C34.2417 167.191 34.1591 167.487 33.9937 167.753C33.8284 168.02 33.5777 168.233 33.2417 168.393C32.9111 168.548 32.5057 168.625 32.0257 168.625C31.6257 168.625 31.2391 168.569 30.8657 168.457C30.4977 168.34 30.1831 168.18 29.9217 167.977L30.3697 167.169C30.5724 167.34 30.8177 167.476 31.1057 167.577C31.3991 167.673 31.7004 167.721 32.0097 167.721C32.3777 167.721 32.6657 167.647 32.8737 167.497C33.0871 167.343 33.1937 167.135 33.1937 166.873C33.1937 166.612 33.0924 166.409 32.8897 166.265C32.6924 166.116 32.3884 166.041 31.9777 166.041H31.4657V165.329L32.7377 163.817H30.1937V162.945H34.0097V163.641L32.6497 165.257ZM42.8289 164.225C43.3676 164.225 43.7943 164.383 44.1089 164.697C44.4236 165.007 44.5809 165.473 44.5809 166.097V168.545H43.5809V166.225C43.5809 165.852 43.4983 165.572 43.3329 165.385C43.1676 165.193 42.9303 165.097 42.6209 165.097C42.2849 165.097 42.0156 165.209 41.8129 165.433C41.6103 165.652 41.5089 165.967 41.5089 166.377V168.545H40.5089V166.225C40.5089 165.852 40.4263 165.572 40.2609 165.385C40.0956 165.193 39.8583 165.097 39.5489 165.097C39.2076 165.097 38.9356 165.207 38.7329 165.425C38.5356 165.644 38.4369 165.961 38.4369 166.377V168.545H37.4369V164.273H38.3889V164.817C38.5489 164.625 38.7489 164.479 38.9889 164.377C39.2289 164.276 39.4956 164.225 39.7889 164.225C40.1089 164.225 40.3916 164.287 40.6369 164.409C40.8876 164.527 41.0849 164.703 41.2289 164.937C41.4049 164.713 41.6316 164.54 41.9089 164.417C42.1863 164.289 42.4929 164.225 42.8289 164.225ZM49.9139 166.433C49.9139 166.503 49.9085 166.601 49.8979 166.729H46.5459C46.6045 167.044 46.7565 167.295 47.0019 167.481C47.2525 167.663 47.5619 167.753 47.9299 167.753C48.3992 167.753 48.7859 167.599 49.0899 167.289L49.6259 167.905C49.4339 168.135 49.1912 168.308 48.8979 168.425C48.6045 168.543 48.2739 168.601 47.9059 168.601C47.4365 168.601 47.0232 168.508 46.6659 168.321C46.3085 168.135 46.0312 167.876 45.8339 167.545C45.6419 167.209 45.5459 166.831 45.5459 166.409C45.5459 165.993 45.6392 165.62 45.8259 165.289C46.0179 164.953 46.2819 164.692 46.6179 164.505C46.9539 164.319 47.3325 164.225 47.7539 164.225C48.1699 164.225 48.5405 164.319 48.8659 164.505C49.1965 164.687 49.4525 164.945 49.6339 165.281C49.8205 165.612 49.9139 165.996 49.9139 166.433ZM47.7539 165.025C47.4339 165.025 47.1619 165.121 46.9379 165.313C46.7192 165.5 46.5859 165.751 46.5379 166.065H48.9619C48.9192 165.756 48.7885 165.505 48.5699 165.313C48.3512 165.121 48.0792 165.025 47.7539 165.025ZM53.4424 168.313C53.3251 168.409 53.1811 168.481 53.0104 168.529C52.8451 168.577 52.6691 168.601 52.4824 168.601C52.0131 168.601 51.6504 168.479 51.3944 168.233C51.1384 167.988 51.0104 167.631 51.0104 167.161V165.105H50.3064V164.305H51.0104V163.329H52.0104V164.305H53.1544V165.105H52.0104V167.137C52.0104 167.345 52.0611 167.505 52.1624 167.617C52.2638 167.724 52.4104 167.777 52.6024 167.777C52.8264 167.777 53.0131 167.719 53.1624 167.601L53.4424 168.313ZM58.1404 166.433C58.1404 166.503 58.1351 166.601 58.1244 166.729H54.7724C54.8311 167.044 54.9831 167.295 55.2284 167.481C55.4791 167.663 55.7884 167.753 56.1564 167.753C56.6258 167.753 57.0124 167.599 57.3164 167.289L57.8524 167.905C57.6604 168.135 57.4178 168.308 57.1244 168.425C56.8311 168.543 56.5004 168.601 56.1324 168.601C55.6631 168.601 55.2498 168.508 54.8924 168.321C54.5351 168.135 54.2578 167.876 54.0604 167.545C53.8684 167.209 53.7724 166.831 53.7724 166.409C53.7724 165.993 53.8658 165.62 54.0524 165.289C54.2444 164.953 54.5084 164.692 54.8444 164.505C55.1804 164.319 55.5591 164.225 55.9804 164.225C56.3964 164.225 56.7671 164.319 57.0924 164.505C57.4231 164.687 57.6791 164.945 57.8604 165.281C58.0471 165.612 58.1404 165.996 58.1404 166.433ZM55.9804 165.025C55.6604 165.025 55.3884 165.121 55.1644 165.313C54.9458 165.5 54.8124 165.751 54.7644 166.065H57.1884C57.1458 165.756 57.0151 165.505 56.7964 165.313C56.5778 165.121 56.3058 165.025 55.9804 165.025ZM60.053 164.897C60.341 164.449 60.8477 164.225 61.573 164.225V165.177C61.4877 165.161 61.4103 165.153 61.341 165.153C60.9517 165.153 60.6477 165.268 60.429 165.497C60.2103 165.721 60.101 166.047 60.101 166.473V168.545H59.101V164.273H60.053V164.897ZM63.7569 168.601C63.4103 168.601 63.0716 168.556 62.7409 168.465C62.4103 168.375 62.1463 168.26 61.9489 168.121L62.3329 167.361C62.5249 167.489 62.7543 167.593 63.0209 167.673C63.2929 167.748 63.5596 167.785 63.8209 167.785C64.4183 167.785 64.7169 167.628 64.7169 167.313C64.7169 167.164 64.6396 167.06 64.4849 167.001C64.3356 166.943 64.0929 166.887 63.7569 166.833C63.4049 166.78 63.1169 166.719 62.8929 166.649C62.6743 166.58 62.4823 166.46 62.3169 166.289C62.1569 166.113 62.0769 165.871 62.0769 165.561C62.0769 165.156 62.2449 164.833 62.5809 164.593C62.9223 164.348 63.3809 164.225 63.9569 164.225C64.2503 164.225 64.5436 164.26 64.8369 164.329C65.1303 164.393 65.3703 164.481 65.5569 164.593L65.1729 165.353C64.8103 165.14 64.4023 165.033 63.9489 165.033C63.6556 165.033 63.4316 165.079 63.2769 165.169C63.1276 165.255 63.0529 165.369 63.0529 165.513C63.0529 165.673 63.1329 165.788 63.2929 165.857C63.4583 165.921 63.7116 165.983 64.0529 166.041C64.3943 166.095 64.6743 166.156 64.8929 166.225C65.1116 166.295 65.2983 166.412 65.4529 166.577C65.6129 166.743 65.6929 166.977 65.6929 167.281C65.6929 167.681 65.5196 168.001 65.1729 168.241C64.8263 168.481 64.3543 168.601 63.7569 168.601Z" fill="white"/>
<path d="M50.6662 113.586L52.6845 115.551C53.1891 116.033 53.1891 116.033 52.6845 116.515L50.5653 118.579C50.7789 118.688 50.9816 118.816 51.1708 118.962C51.7511 119.506 52.3187 120.087 52.899 120.643C53.0377 120.779 53.126 120.902 52.899 121.088L47.8533 126.032C47.3629 125.483 46.8362 124.967 46.2765 124.487C45.8606 124.164 45.5358 123.742 45.3327 123.262C45.1296 122.782 45.055 122.259 45.116 121.743C45.116 116.441 45.116 111.126 45.116 105.812C45.1361 105.676 45.1048 105.539 45.028 105.425C44.9513 105.311 44.8344 105.229 44.6997 105.194C43.2138 104.652 41.9268 103.688 41.0037 102.425C39.9102 100.953 39.3507 99.1649 39.4143 97.3453C39.4195 96.0071 39.7689 94.6917 40.4304 93.5208C41.0918 92.3499 42.0439 91.3613 43.1986 90.6465C44.8168 89.5684 46.7668 89.0738 48.7157 89.2474C50.6646 89.4209 52.4917 90.2517 53.8851 91.598C55.2785 92.9443 56.1519 94.7226 56.3562 96.6295C56.5606 98.5365 56.0832 100.454 55.0055 102.054C54.065 103.494 52.6762 104.599 51.0447 105.206C50.9167 105.238 50.8052 105.315 50.7308 105.422C50.6565 105.529 50.6246 105.658 50.641 105.787C50.641 106.615 50.641 107.443 50.641 108.259C50.6562 108.488 50.7495 108.706 50.9059 108.877C51.5366 109.532 52.1673 110.174 52.8611 110.805C53.1134 111.04 53.1134 111.213 52.8611 111.46C52.1295 112.14 51.4231 112.844 50.6662 113.586ZM47.9415 93.106C47.4626 93.1012 46.9929 93.2356 46.5919 93.4923C46.1909 93.7489 45.8765 94.1164 45.6886 94.5481C45.5007 94.9798 45.4477 95.4564 45.5363 95.9176C45.6248 96.3789 45.851 96.804 46.1861 97.1393C46.5213 97.4746 46.9504 97.705 47.4192 97.8014C47.888 97.8977 48.3754 97.8557 48.8199 97.6807C49.2643 97.5056 49.6458 97.2053 49.916 96.8178C50.1863 96.4304 50.3333 95.9731 50.3383 95.5038C50.345 95.1912 50.2879 94.8806 50.1705 94.5899C50.0531 94.2993 49.8776 94.0345 49.6544 93.8112C49.4311 93.5879 49.1647 93.4105 48.8705 93.2894C48.5764 93.1683 48.2606 93.106 47.9415 93.106Z" fill="white"/>
<path opacity="0.2" d="M80.2055 80.8835V92.5717L16.28 158.849V125.312L60.2371 80.8835H80.2055Z" fill="url(#paint0_linear)"/>
<path opacity="0.2" d="M80.2055 104.46V118.472L26.0482 173.26L16.3132 184.152V169.11L80.2055 104.46Z" fill="url(#paint1_linear)"/>
<defs>
<linearGradient id="paint0_linear" x1="7.76594" y1="150.338" x2="78.6957" y2="79.3645" gradientUnits="userSpaceOnUse">
<stop stop-color="white" stop-opacity="0"/>
<stop offset="0.259" stop-color="#FDFDFE" stop-opacity="0.259"/>
<stop offset="0.398" stop-color="#F7F5F9" stop-opacity="0.398"/>
<stop offset="0.5084" stop-color="#EDE7F1" stop-opacity="0.5084"/>
<stop offset="0.604" stop-color="#DFD4E6" stop-opacity="0.604"/>
<stop offset="0.6898" stop-color="#CDBBD7" stop-opacity="0.6898"/>
<stop offset="0.7688" stop-color="#B69CC5" stop-opacity="0.7688"/>
<stop offset="0.8424" stop-color="#9B77B0" stop-opacity="0.8424"/>
<stop offset="0.9119" stop-color="#7C4D97" stop-opacity="0.9119"/>
<stop offset="0.9757" stop-color="#5A1E7C" stop-opacity="0.9757"/>
<stop offset="1" stop-color="#4B0A70"/>
</linearGradient>
<linearGradient id="paint1_linear" x1="12.3465" y1="180.16" x2="84.1098" y2="108.353" gradientUnits="userSpaceOnUse">
<stop stop-color="white" stop-opacity="0"/>
<stop offset="0.259" stop-color="#FDFDFE" stop-opacity="0.259"/>
<stop offset="0.398" stop-color="#F7F5F9" stop-opacity="0.398"/>
<stop offset="0.5084" stop-color="#EDE7F1" stop-opacity="0.5084"/>
<stop offset="0.604" stop-color="#DFD4E6" stop-opacity="0.604"/>
<stop offset="0.6898" stop-color="#CDBBD7" stop-opacity="0.6898"/>
<stop offset="0.7688" stop-color="#B69CC5" stop-opacity="0.7688"/>
<stop offset="0.8424" stop-color="#9B77B0" stop-opacity="0.8424"/>
<stop offset="0.9119" stop-color="#7C4D97" stop-opacity="0.9119"/>
<stop offset="0.9757" stop-color="#5A1E7C" stop-opacity="0.9757"/>
<stop offset="1" stop-color="#4B0A70"/>
</linearGradient>
</defs>
</svg>
