<svg width="39" height="39" viewBox="0 0 39 39" fill="none" xmlns="http://www.w3.org/2000/svg">
<circle cx="19.0247" cy="19.014" r="19.014" fill="#4B0A70"/>
<path d="M20.3835 17.7131C21.6715 17.7131 22.8288 17.9651 23.8555 18.4691C24.8821 18.9544 25.6848 19.6544 26.2635 20.5691C26.8421 21.4837 27.1315 22.5384 27.1315 23.7331C27.1315 25.0024 26.8141 26.1224 26.1795 27.0931C25.5448 28.0451 24.6861 28.7824 23.6035 29.3051C22.5208 29.8277 21.3075 30.0891 19.9635 30.0891C17.2755 30.0891 15.1848 29.2491 13.6915 27.5691C12.2168 25.8891 11.4795 23.4811 11.4795 20.3451C11.4795 18.1424 11.8808 16.2664 12.6835 14.7171C13.4861 13.1491 14.6061 11.9637 16.0435 11.1611C17.4995 10.3397 19.1795 9.92908 21.0835 9.92908C22.0915 9.92908 23.0341 10.0411 23.9115 10.2651C24.8075 10.4704 25.5821 10.7784 26.2355 11.1891L24.8915 13.9331C23.9208 13.2984 22.6795 12.9811 21.1675 12.9811C19.2821 12.9811 17.8075 13.5597 16.7435 14.7171C15.6795 15.8744 15.1475 17.5451 15.1475 19.7291V19.7571C15.7261 19.0851 16.4635 18.5811 17.3595 18.2451C18.2555 17.8904 19.2635 17.7131 20.3835 17.7131ZM19.7675 27.2331C20.9061 27.2331 21.8301 26.9344 22.5395 26.3371C23.2488 25.7211 23.6035 24.9091 23.6035 23.9011C23.6035 22.8744 23.2488 22.0624 22.5395 21.4651C21.8301 20.8677 20.8781 20.5691 19.6835 20.5691C18.5075 20.5691 17.5461 20.8864 16.7995 21.5211C16.0715 22.1557 15.7075 22.9584 15.7075 23.9291C15.7075 24.8811 16.0621 25.6744 16.7715 26.3091C17.4995 26.9251 18.4981 27.2331 19.7675 27.2331Z" fill="white"/>
</svg>
