<svg width="290" height="285" viewBox="0 0 290 285" fill="none" xmlns="http://www.w3.org/2000/svg">
<mask id="mask0" mask-type="alpha" maskUnits="userSpaceOnUse" x="1" y="0" width="289" height="284">
<rect x="1.01074" width="288" height="284" fill="#C4C4C4"/>
</mask>
<g mask="url(#mask0)">
<path opacity="0.6" fill-rule="evenodd" clip-rule="evenodd" d="M147.997 34.5985C174.514 33.1476 201.695 29.3845 225.338 42.9322C251.404 57.8685 275.76 81.2609 284.26 112.68C292.702 143.881 279.963 176.204 269.642 206.685C259.822 235.685 248.327 264.5 226.434 283.453C204.128 302.764 176.172 312.25 147.997 311.995C119.982 311.741 93.3648 300.163 70.4762 282.04C47.3331 263.715 26.0082 240.184 18.5762 209.519C11.3146 179.559 20.7252 148.519 31.1432 119.754C40.8983 92.8202 54.2176 66.9438 75.9506 51.1062C97.0212 35.7512 122.901 35.9717 147.997 34.5985Z" fill="white"/>
</g>
<path d="M5.7605 284.438H272.112C272.112 284.438 268.373 256.048 247.624 252.033C226.876 248.018 210.15 253.656 197.788 262.951C185.427 272.247 155.65 250.443 125.865 250.784C96.0802 251.125 78.8518 266.017 59.0358 269.781C39.2198 273.545 21.3099 267.591 5.7605 284.438Z" fill="#C4E8F0"/>
<path d="M206.686 177.758H201.592V227.829H206.686V177.758Z" fill="#C4E8F0"/>
<path d="M222.341 187.621H38.1084V203.154H222.341V187.621Z" fill="#C4E8F0"/>
<path d="M222.211 165.477H37.9787V181.01H222.211V165.477Z" fill="#C4E8F0"/>
<path d="M230.891 226.539H36.9404V235.997H230.891V226.539Z" fill="#C4E8F0"/>
<path d="M226.875 235.421H222.293V284.43H226.875V235.421Z" fill="#C4E8F0"/>
<path d="M57.746 178.618H52.6521V228.689H57.746V178.618Z" fill="#C4E8F0"/>
<path d="M167.127 128.295C165.967 127.078 159.462 127.094 157.572 132.691C155.853 137.785 155.139 139.935 152.227 144.347C149.315 148.76 140.571 149.855 135.193 155.435C128.55 162.338 132.208 178.22 141.877 180.848C147.603 182.406 182.336 177.263 195.201 171.926C198.875 170.401 201.957 168.924 201.317 156.952C201 151.031 191.883 146.699 187.941 140.729C184.502 135.514 184.859 130.501 179.781 127.865C174.955 125.334 170.567 124.28 167.127 128.295Z" fill="#4C266E"/>
<path d="M179.611 154.057C178.167 156.102 176.153 157.677 173.819 158.583C169.074 160.473 162.966 158.68 159.633 156.149C159.957 158.364 166.624 162.476 171.426 162.468C176.228 162.46 180.844 160.943 181.971 156.02C181.136 155.425 180.347 154.769 179.611 154.057Z" fill="#AA633F"/>
<path d="M173.819 158.591C176.153 157.684 178.167 156.11 179.611 154.064C178.592 153.18 177.733 152.126 177.072 150.95C175.774 145.767 166.576 149.92 165.408 151.712C164.41 153.261 160.403 155.703 159.633 156.19C162.966 158.68 169.074 160.472 173.819 158.591Z" fill="#934624"/>
<path d="M187.325 161.024C189.336 164.642 190.569 174.31 192.548 185.431C193.424 190.428 193.635 196.965 193.814 199.391C191.315 200.161 186.514 189.852 184.137 182.357C183.066 178.901 179.27 173.434 181.85 166.394C182.766 163.944 185.41 161.024 187.325 161.024Z" fill="#934624"/>
<path d="M153.298 161.073C151.156 164.658 148.009 173.864 145.486 185.107C144.375 190.055 142.931 193.786 142.331 196.138C144.667 197.33 151.391 188.254 154.985 181.286C156.607 178.042 159.632 172.072 158.278 164.699C157.799 162.103 155.179 161.413 153.298 161.073Z" fill="#934624"/>
<path d="M185.646 226.596C186.625 225.717 187.416 224.649 187.974 223.457C187.6 219.515 185.921 215.532 182.742 214.356C175.442 211.687 174.809 214.964 170.761 215.508C168.847 215.759 168.433 213.075 163.502 213.886C156.128 215.005 150.313 221.324 149.242 226.328C149.68 226.693 150.102 227.018 150.499 227.326C159.04 227.359 176.472 227.999 185.646 226.596Z" fill="#D4C1DB"/>
<path d="M171.013 176.265C178.637 175.649 180.836 175.325 185.175 172.258C184.567 170.206 183.845 168.754 184.137 166.897C184.745 163.109 185.637 162.882 187.325 161.04C186.4 159.224 183.472 156.985 181.817 155.93C180.957 158.364 174.963 161.835 171.97 161.835C170.696 161.835 166.47 162.647 160.119 155.874C158.797 156.636 154.263 159.207 153.298 161.073C154.709 161.616 155.552 161.681 156.664 164.18C157.653 166.378 156.996 168.9 156.396 171.877C159.438 174.619 164.021 176.825 171.013 176.265Z" fill="#EFE6E8"/>
<path d="M179.294 195.505C179.386 193.164 179.961 190.866 180.981 188.757C179.479 189.196 178.047 189.849 176.731 190.695C174.176 192.212 167.606 199.196 163.98 199.918C159.04 200.891 155.058 205.596 154.417 207.794C153.776 209.992 155.877 212.661 159.795 214.883C160.985 214.395 162.23 214.049 163.502 213.853C168.433 213.099 168.847 215.759 170.761 215.476C174.817 214.932 175.474 211.655 182.742 214.324C185.921 215.5 187.608 219.483 187.973 223.425C190.569 218.233 187.617 211.12 185.159 206.553C182.604 201.849 179.197 200.064 179.294 195.505Z" fill="#EFE6E8"/>
<path d="M154.417 207.794C155.074 205.612 159.04 200.891 163.98 199.918C167.606 199.196 174.176 192.212 176.731 190.695C178.048 189.848 179.479 189.195 180.982 188.757C181.226 188.272 181.497 187.801 181.793 187.345C185.597 181.181 186.327 177.782 185.71 174.286C185.584 173.601 185.418 172.924 185.216 172.258C180.876 175.324 178.678 175.649 171.053 176.265C164.094 176.825 159.478 174.643 156.453 171.877C156.028 173.789 155.813 175.742 155.812 177.701C155.744 178.544 155.863 179.392 156.16 180.184C156.457 180.977 156.926 181.693 157.532 182.284C159.381 184.433 160.549 191.936 159.259 194.232C157.824 196.771 157.199 196.9 153.046 200.818C148.601 205.012 143.564 212.985 145.308 219.937C145.872 222.45 147.28 224.695 149.299 226.296C150.183 222.167 154.303 217.146 159.843 214.883C155.909 212.645 153.744 210.049 154.417 207.794Z" fill="#D4C1DB"/>
<path d="M179.432 143.39C179.757 150.131 176.35 156.823 171.767 157.033C167.184 157.244 163.161 150.917 162.845 144.185C162.528 137.453 166.032 132.829 170.615 132.643C175.198 132.456 179.075 136.69 179.432 143.39Z" fill="#AA633F"/>
<path d="M166.365 138.929C166.365 138.929 169.285 145.361 173.308 146.318C175.904 146.943 178.792 146.578 179.935 142.757C181.655 144.858 180.162 150.617 180.162 150.617C180.162 150.617 185.078 132.205 175.985 129.633C166.892 127.062 159.689 135.928 159.673 140.746C159.657 145.564 163.12 150.942 163.12 150.942C163.12 150.942 160.947 146.27 163.242 146.61C166.681 147.089 166.454 142.547 166.365 138.929Z" fill="#4C266E"/>
<path d="M46.6822 234.277H42.0992V284.438H46.6822V234.277Z" fill="#C4E8F0"/>
<path d="M230.136 226.783H226.697L233.957 191.872H237.842L230.136 226.783Z" fill="#C4E8F0"/>
<path d="M38.3518 226.783H41.791L34.5233 191.872H30.6379L38.3518 226.783Z" fill="#C4E8F0"/>
<path d="M160.022 179.526C155.447 184.839 148.05 187.507 146.151 188.927C144.714 189.92 143.602 191.317 142.957 192.941C142.312 194.564 142.162 196.343 142.526 198.052C142.98 199.61 145.916 199.674 147.685 199.245C153.289 197.995 157.848 188.197 161.644 182.843C162.691 181.375 160.841 180.207 160.022 179.526Z" fill="#AA633F"/>
<path d="M201.82 219.166C210.117 220.123 217.426 213.537 220.135 208.621C219.779 207.428 219.041 206.384 218.034 205.651C217.028 204.918 215.808 204.537 214.562 204.565L194.195 204.93C193.113 204.946 192.058 205.27 191.154 205.865C190.25 206.46 189.535 207.301 189.093 208.289C191.226 213.042 195.72 218.468 201.82 219.166Z" fill="#72CDDF"/>
<path d="M222.95 221.445L220.24 209.059C220.24 208.921 220.176 208.784 220.135 208.654C217.426 213.521 210.117 220.123 201.82 219.199C199.691 218.931 197.663 218.134 195.923 216.879C196.207 220.813 197.131 224.625 197.788 228.389H217.369C218.226 228.396 219.073 228.208 219.848 227.841C220.622 227.474 221.303 226.936 221.84 226.268C222.377 225.6 222.756 224.819 222.948 223.984C223.14 223.149 223.141 222.281 222.95 221.445Z" fill="#43C4D9"/>
<path d="M189.093 208.297C188.883 208.765 188.736 209.258 188.655 209.765L186.789 221.762C186.657 222.58 186.705 223.417 186.93 224.214C187.155 225.012 187.552 225.75 188.093 226.378C188.635 227.006 189.306 227.507 190.062 227.848C190.818 228.188 191.639 228.359 192.467 228.348H197.829C197.172 224.584 196.247 220.772 195.963 216.838C192.965 214.641 190.596 211.696 189.093 208.297Z" fill="#43C4D9"/>
<path d="M195.225 204.979C197.521 198.669 202.663 187.8 211.326 189.406C215.722 190.217 215.868 200.153 215.195 204.817C215.106 205.466 212.965 205.563 213.094 204.768C214.051 199.042 213.094 192.342 210.231 191.677C204.496 190.338 199.686 200.372 197.707 204.963C197.358 205.807 194.998 205.636 195.225 204.979Z" fill="#4C266E"/>
<path d="M163.526 279.32C164.735 281.858 158.521 282.71 157.037 279.822C157.037 278.898 157.142 275.199 156.964 272.214C156.915 271.297 159.592 268.386 160.663 270.592C160.476 271.687 161.863 277.754 163.526 279.32Z" fill="#934624"/>
<path d="M177.567 180.734C181.152 186.753 188.347 190.046 189.969 191.766C193.716 195.546 194.236 198.798 193.651 199.983C192.93 201.443 190.115 201.8 188.436 201.11C183.139 198.912 178.216 189.641 175.393 183.719C174.622 182.113 176.642 181.254 177.567 180.734Z" fill="#AA633F"/>
<path d="M180.827 234.237C183.942 226.831 185.694 217.479 180.13 215.313C176.431 213.893 171.84 219.75 170.396 224.503C165.894 239.687 158.546 263.34 156.842 272.271C157.507 273.122 157.232 270.77 160.598 270.997C161.02 264.987 174.184 250.013 180.827 234.237Z" fill="#934624"/>
<path d="M170.631 230.035C172.619 221.778 171.443 217.422 167.833 216.019C164.223 214.615 160.192 218.906 158.781 223.66C154.279 238.844 154.587 263.754 152.884 272.693C153.549 273.544 154.117 271.881 157.475 272.133C160.208 263.227 166.616 246.728 170.631 230.035Z" fill="#AA633F"/>
<path d="M163.51 284.438H157.532C157.428 284.352 157.338 284.251 157.264 284.138C156.615 283.221 156.899 281.38 156.988 279.814C158.683 281.437 162.415 281.721 163.477 279.312C164.726 280.609 164.954 281.242 164.726 282.905C164.655 283.237 164.508 283.547 164.297 283.813C164.086 284.079 163.816 284.293 163.51 284.438Z" fill="#322875"/>
<path d="M150.824 284.438H156.802C156.901 284.348 156.991 284.247 157.069 284.138C157.71 283.221 157.434 281.38 157.337 279.814C155.642 281.437 151.91 281.721 150.848 279.312C149.599 280.609 149.372 281.242 149.599 282.905C149.671 283.237 149.82 283.549 150.032 283.814C150.245 284.08 150.515 284.294 150.824 284.438Z" fill="#322875"/>
<path d="M150.815 279.312C150.004 281.997 156.242 282.897 157.305 279.823C157.256 279.012 156.721 274.542 157.686 271.395C157.953 270.519 153.857 268.743 153.103 271.063C152.665 273.812 152.219 277.527 150.815 279.312Z" fill="#AA633F"/>
<path d="M171.702 165.939H167.914C167.112 165.939 166.462 166.59 166.462 167.391V177.677C166.462 178.478 167.112 179.128 167.914 179.128H171.702C172.504 179.128 173.154 178.478 173.154 177.677V167.391C173.154 166.59 172.504 165.939 171.702 165.939Z" fill="#322875"/>
<path d="M176.999 174.237C176.683 173.102 173.381 170.538 172.943 170.717C172.375 171.017 175.377 173.41 175.141 173.661C174.906 173.913 171.897 170.027 171.378 170.717C171.199 170.96 174.452 174.253 174.241 174.245C174.241 174.245 171.305 171.001 170.996 171.163C170.396 171.301 173.503 174.651 173.381 174.805C173.26 174.959 171.232 172.177 170.834 172.485C170.648 172.688 171.856 174.107 173.195 176.119C174.241 176.435 176.82 175.519 176.999 174.237Z" fill="#AA633F"/>
<path d="M177.656 180.889C176.885 179.266 177.234 174.975 177.007 174.237C175.936 173.296 173.827 174.886 173.154 176.119C174.776 180.11 172.886 180.564 175.352 183.606C176.265 182.834 177.044 181.916 177.656 180.889Z" fill="#AA633F"/>
<path d="M161.725 173.288C162.463 171.909 165.781 170.352 166.211 170.612C166.698 170.993 163.412 172.785 163.615 173.045C163.818 173.305 167.33 170.101 167.671 170.855C167.801 171.123 164.142 173.734 164.345 173.759C164.345 173.799 167.687 171.179 167.987 171.325C168.547 171.561 165.018 174.245 165.108 174.416C165.197 174.586 167.598 172.258 167.93 172.631C168.076 172.85 166.625 174.002 165.018 175.689C163.948 175.9 161.685 174.554 161.725 173.288Z" fill="#AA633F"/>
<path d="M159.908 179.68C160.938 178.261 161.376 174.002 161.725 173.296C162.942 172.55 164.686 174.278 165.14 175.608C162.853 179.266 164.662 180.191 161.709 182.762C160.942 181.842 160.333 180.801 159.908 179.68Z" fill="#AA633F"/>
<path d="M259.929 283.599L279.396 284.199C279.396 284.199 283.184 280.216 282.268 276.623C281.351 273.03 277.296 277.815 276.03 279.259C274.765 280.703 275.909 272.056 273.11 269.42C270.312 266.784 269.233 273.062 269.257 277.029C269.282 280.995 266.361 274.319 263.579 270.199C260.797 266.078 258.656 268.236 259.402 271.01C260.148 273.784 262.752 278.042 262.079 279.3C261.405 280.557 258.169 276.29 256.401 277.677C254.633 279.064 255.403 281.449 259.929 283.599Z" fill="#71CDDF"/>
<path d="M5.34681 283.353L24.814 283.953C24.814 283.953 28.602 279.962 27.6854 276.377C26.7689 272.792 22.7132 277.569 21.4478 279.005C20.1824 280.441 21.3261 271.81 18.5277 269.166C15.7293 266.521 14.6505 272.816 14.6748 276.782C14.6992 280.749 11.7791 274.073 8.99691 269.953C6.21473 265.832 4.07333 267.982 4.81957 270.764C5.56582 273.546 8.16956 277.788 7.49632 279.045C6.82308 280.303 3.58665 276.036 1.81838 277.423C0.0501084 278.81 0.820686 281.195 5.34681 283.353Z" fill="#71CDDF"/>
<path d="M13.2554 254.12H12.7769V282.501H13.2554V254.12Z" fill="#71CDDF" stroke="#71CDDF" stroke-width="0.5" stroke-miterlimit="10"/>
<path d="M13.0201 268.549C13.0201 268.549 11.4708 262.661 9.39435 264.21C7.31784 265.759 13.0201 268.549 13.0201 268.549Z" fill="#71CDDF"/>
<path d="M13.0201 268.549C13.0201 268.549 14.5613 262.661 16.6378 264.21C18.7143 265.759 13.0201 268.549 13.0201 268.549Z" fill="#71CDDF"/>
<path d="M13.45 254.549C14.4565 254.815 15.4914 254.96 16.5323 254.979C17.5381 254.979 19.355 254.079 19.3875 252.343C19.4199 250.607 19.209 249.099 20.0039 248.393C20.6033 247.724 20.9667 246.877 21.0385 245.982C21.1103 245.087 20.8865 244.193 20.4014 243.437C19.0955 241.515 17.5381 241.734 16.7837 241.231C16.0294 240.728 14.9019 237.516 12.1846 237.516C9.46731 237.516 8.8914 240.306 8.5994 241.141C8.30739 241.977 5.01418 242.261 4.33283 245.197C3.65148 248.133 6.32011 249.537 6.32011 250.064C6.32011 250.591 5.12774 253.609 7.87749 254.931C10.6272 256.253 12.0954 254.412 13.45 254.549Z" fill="#F05553"/>
<path d="M12.6388 249.52C13.8977 249.52 14.9181 248.5 14.9181 247.241C14.9181 245.982 13.8977 244.962 12.6388 244.962C11.38 244.962 10.3596 245.982 10.3596 247.241C10.3596 248.5 11.38 249.52 12.6388 249.52Z" fill="white"/>
<path d="M138.876 141.468L140.952 140.292C139.51 137.02 137.727 133.909 135.631 131.012L134.009 132.991C135.913 135.645 137.544 138.485 138.876 141.468Z" fill="#335AA9"/>
<path d="M131.648 129.958L133.141 127.768C132.281 126.73 131.389 125.716 130.472 124.767L129.142 127.135C130.002 128.027 130.845 128.976 131.648 129.958ZM126.506 124.564L127.658 122.041C126.7 121.182 125.711 120.354 124.713 119.608L123.732 122.277C124.673 122.982 125.605 123.753 126.506 124.564Z" fill="#335AA9"/>
<path d="M120.86 120.241L121.671 117.442C118.875 115.78 115.928 114.384 112.871 113.273L113.365 116.436C115.99 117.438 118.502 118.713 120.86 120.241Z" fill="#335AA9"/>
<path d="M101.88 83.1555V133.543C101.897 134.038 101.719 134.52 101.383 134.885C101.048 135.249 100.582 135.467 100.087 135.49H75.3963C74.9205 135.469 74.4703 135.268 74.1373 134.928C73.8044 134.587 73.6135 134.133 73.6037 133.657V83.1555C73.5839 82.659 73.7612 82.1748 74.097 81.8086C74.4329 81.4424 74.8999 81.2238 75.3963 81.2007H100.087C100.584 81.2238 101.051 81.4424 101.386 81.8086C101.722 82.1748 101.9 82.659 101.88 83.1555Z" fill="#322875"/>
<path d="M101.88 83.1555V86.0594H73.6037V83.1555C73.5839 82.659 73.7612 82.1748 74.097 81.8086C74.4329 81.4424 74.8999 81.2238 75.3963 81.2007H100.087C100.584 81.2238 101.051 81.4424 101.386 81.8086C101.722 82.1748 101.9 82.659 101.88 83.1555Z" fill="#A680B7"/>
<path d="M101.88 130.631V133.543C101.897 134.038 101.719 134.521 101.383 134.885C101.048 135.249 100.582 135.467 100.087 135.49H75.3963C74.9006 135.469 74.4336 135.252 74.0975 134.887C73.7615 134.522 73.5839 134.039 73.6037 133.543V130.631H101.88Z" fill="#A680B7"/>
<path d="M87.7417 134.168C88.8706 134.168 89.7858 133.674 89.7858 133.065C89.7858 132.455 88.8706 131.961 87.7417 131.961C86.6128 131.961 85.6977 132.455 85.6977 133.065C85.6977 133.674 86.6128 134.168 87.7417 134.168Z" fill="#322875"/>
<path d="M88.3745 83.5204C88.3634 83.6444 88.3165 83.7626 88.2393 83.8604C88.1622 83.9582 88.0582 84.0314 87.9402 84.071C87.8221 84.1107 87.695 84.115 87.5745 84.0836C87.454 84.0522 87.3452 83.9863 87.2615 83.894C87.1779 83.8018 87.1229 83.6871 87.1033 83.5641C87.0838 83.4411 87.1005 83.3151 87.1515 83.2014C87.2024 83.0878 87.2854 82.9914 87.3902 82.9242C87.4951 82.8569 87.6172 82.8217 87.7418 82.8228C87.9175 82.8333 88.0821 82.9121 88.2004 83.0425C88.3186 83.1729 88.3811 83.3444 88.3745 83.5204Z" fill="#322875"/>
<path d="M107.606 72.4159L110.981 67.7438C111.281 67.3301 111.492 67.2328 111.97 67.3788C112.238 67.4502 112.489 67.5737 112.709 67.7421C112.929 67.9105 113.113 68.1205 113.252 68.3603C113.342 68.496 113.385 68.6574 113.375 68.82C113.365 68.9826 113.302 69.1373 113.195 69.2606C110.908 72.4078 108.628 75.5577 106.357 78.7103C106.271 78.8596 106.136 78.9748 105.975 79.0368C105.814 79.0988 105.637 79.1038 105.473 79.051C105.177 78.981 104.899 78.8486 104.659 78.6625C104.418 78.4765 104.22 78.2411 104.078 77.9722C104.001 77.8476 103.966 77.7019 103.978 77.556C103.99 77.4102 104.047 77.2719 104.143 77.1611C105.303 75.6037 106.43 74.0058 107.606 72.4159Z" fill="#322875"/>
<path d="M108.052 85.8727C107.763 85.5648 107.577 85.1742 107.52 84.7553C107.463 84.3365 107.539 83.9104 107.736 83.5366C107.87 83.3958 108.047 83.3044 108.239 83.2771C111.651 82.7742 115.063 82.2821 118.476 81.8008C118.93 81.7278 119.392 81.6872 119.838 81.598C119.999 81.5621 120.166 81.582 120.314 81.6542C120.461 81.7265 120.58 81.8468 120.649 81.9955C120.798 82.2429 120.894 82.5178 120.933 82.8036C120.972 83.0894 120.953 83.3802 120.877 83.6583C120.846 83.8178 120.763 83.9626 120.642 84.0699C120.52 84.1771 120.365 84.2407 120.203 84.2504C118.175 84.5262 116.148 84.8263 114.12 85.1183C112.278 85.386 110.437 85.6537 108.596 85.9295C108.414 85.9254 108.232 85.9065 108.052 85.8727Z" fill="#322875"/>
<path d="M94.8391 64.2478C95.1378 63.9599 95.5196 63.7736 95.9303 63.7153C96.341 63.6571 96.7596 63.7299 97.1265 63.9234C97.2854 64.0674 97.3887 64.2626 97.4186 64.4749C97.9593 68.1629 98.5001 71.8509 99.0408 75.5388C99.0499 75.6837 99.0716 75.8276 99.1057 75.9687C99.1633 76.1402 99.1544 76.327 99.0808 76.4923C99.0072 76.6575 98.8742 76.7891 98.7083 76.861C98.4408 77.0365 98.1334 77.1419 97.8144 77.1674C97.4955 77.1929 97.1752 77.1378 96.8832 77.007C96.7869 76.9528 96.7027 76.8795 96.6358 76.7916C96.5688 76.7038 96.5205 76.6031 96.4939 76.4959C95.8936 72.5809 95.3069 68.6658 94.7337 64.7507C94.745 64.579 94.7805 64.4096 94.8391 64.2478Z" fill="#322875"/>
<path d="M89.5019 111.724L90.7997 113.013C91.1242 113.33 91.1242 113.33 90.7997 113.646L89.437 115C89.5743 115.072 89.7047 115.156 89.8263 115.252C90.1995 115.609 90.5645 115.99 90.9376 116.355C91.0349 116.444 91.0917 116.525 90.9376 116.647L87.6931 119.892C87.3778 119.532 87.039 119.193 86.6791 118.878C86.4117 118.666 86.2029 118.389 86.0723 118.074C85.9417 117.759 85.8937 117.416 85.9329 117.077C85.9329 113.597 85.9329 110.109 85.9329 106.621C85.9458 106.533 85.9257 106.442 85.8764 106.368C85.827 106.293 85.7518 106.239 85.6652 106.216C84.7097 105.86 83.8822 105.228 83.2886 104.399C82.575 103.434 82.2065 102.257 82.2422 101.057C82.2456 100.179 82.4703 99.3155 82.8956 98.5471C83.3209 97.7787 83.9331 97.1299 84.6756 96.6608C85.7162 95.9532 86.9701 95.6286 88.2233 95.7425C89.4765 95.8564 90.6514 96.4016 91.5474 97.2852C92.4434 98.1688 93.005 99.3359 93.1364 100.587C93.2678 101.839 92.9608 103.097 92.2679 104.148C91.6648 105.094 90.7712 105.82 89.7209 106.216C89.6386 106.237 89.5669 106.287 89.5191 106.358C89.4713 106.428 89.4508 106.513 89.4613 106.597C89.4613 107.141 89.4613 107.684 89.4613 108.219C89.4711 108.37 89.5311 108.513 89.6317 108.625C90.0372 109.055 90.4428 109.477 90.8889 109.89C91.0593 110.044 91.0511 110.158 90.8889 110.32C90.4428 110.774 89.9886 111.237 89.5019 111.724ZM87.7742 98.283C87.4662 98.2798 87.1641 98.368 86.9063 98.5365C86.6484 98.705 86.4463 98.9461 86.3255 99.2294C86.2047 99.5127 86.1706 99.8255 86.2275 100.128C86.2844 100.431 86.4299 100.71 86.6454 100.93C86.8609 101.15 87.1368 101.301 87.4383 101.365C87.7397 101.428 88.0532 101.4 88.339 101.285C88.6247 101.17 88.87 100.973 89.0438 100.719C89.2176 100.465 89.3121 100.165 89.3153 99.8566C89.3196 99.6515 89.283 99.4476 89.2075 99.2569C89.1319 99.0661 89.0191 98.8924 88.8756 98.7458C88.732 98.5993 88.5607 98.4828 88.3715 98.4034C88.1824 98.3239 87.9793 98.283 87.7742 98.283Z" fill="white"/>
</svg>
