<svg width="39" height="39" viewBox="0 0 39 39" fill="none" xmlns="http://www.w3.org/2000/svg">
<circle cx="19.0692" cy="19.014" r="19.014" fill="#4B0A70"/>
<path d="M27.3488 26.7291V29.8091H12.9008V27.3731L20.6848 19.9811C21.5621 19.1411 22.1501 18.4131 22.4488 17.7971C22.7661 17.1624 22.9248 16.5371 22.9248 15.9211C22.9248 15.0064 22.6168 14.3064 22.0008 13.8211C21.3848 13.3357 20.4794 13.0931 19.2848 13.0931C17.2874 13.0931 15.7568 13.7744 14.6928 15.1371L12.1448 13.1771C12.9101 12.1504 13.9368 11.3571 15.2248 10.7971C16.5314 10.2184 17.9874 9.92908 19.5928 9.92908C21.7208 9.92908 23.4194 10.4331 24.6888 11.4411C25.9581 12.4491 26.5928 13.8211 26.5928 15.5571C26.5928 16.6211 26.3688 17.6197 25.9208 18.5531C25.4728 19.4864 24.6141 20.5504 23.3448 21.7451L18.1088 26.7291H27.3488Z" fill="white"/>
</svg>
