<svg width="294" height="270" viewBox="0 0 294 270" fill="none" xmlns="http://www.w3.org/2000/svg">
<path opacity="0.6" d="M293.967 270C293.967 270 288.372 259.206 257.529 256.097C243.775 253.8 237.406 242.669 217.015 240.149C177.183 235.225 138.171 239.7 112.09 248.776C87.3831 257.373 80.341 255.273 47.5146 260.065C29.4396 261.743 18.9851 268.183 18.9851 270H293.967Z" fill="white"/>
<path d="M136.327 244.674C136.327 244.674 135.069 248.97 133.141 250.892C136.661 254.401 138.709 253.401 138.709 253.401L141.894 246.729L136.327 244.674Z" fill="#AA633F"/>
<path d="M134.185 249.571C132.386 249.943 130.548 250.1 128.712 250.038C125.272 249.824 122.528 248.637 121.605 251.025C129.702 254.868 136.608 258.044 136.608 258.044C136.608 258.044 139.954 256.71 139.539 251.693C134.48 253.054 134.185 249.571 134.185 249.571Z" fill="#322875"/>
<path d="M202.214 242.912C202.214 242.912 205.051 248.396 204.355 251.092C209.28 251.999 210.137 249.891 210.137 249.891L207.46 239.216L202.214 242.912Z" fill="#AA633F"/>
<path d="M206.643 250.878C206.24 250.888 205.839 250.813 205.468 250.656C205.096 250.5 204.762 250.266 204.489 249.971C203.101 251.139 201.791 252.396 200.567 253.734C198.292 256.309 194.237 255.842 195.548 258.044C197.904 258.044 199.389 257.924 201.143 257.871C202.295 257.831 203.429 257.577 204.489 257.123C209.842 254.855 211.502 253.053 211.502 253.053C211.502 253.053 212.96 251.973 209.655 248.303C209.492 248.995 209.112 249.618 208.571 250.081C208.03 250.544 207.354 250.823 206.643 250.878Z" fill="#322875"/>
<path d="M136.139 92.0587C135.838 92.3343 135.441 92.4805 135.032 92.4655C134.624 92.4505 134.238 92.2756 133.958 91.9786L124.456 81.8372C124.18 81.5393 124.034 81.1448 124.049 80.7398C124.064 80.3348 124.239 79.9522 124.536 79.6755C124.824 79.3903 125.214 79.2302 125.62 79.2302C126.026 79.2302 126.416 79.3903 126.704 79.6755L136.206 89.8169C136.484 90.1153 136.633 90.511 136.621 90.9181C136.608 91.3253 136.435 91.7111 136.139 91.992V92.0587Z" fill="#322875"/>
<path d="M156.951 67.8661C156.951 67.8661 161.033 71.8693 158.369 85.8671C162.264 81.984 168.447 75.9792 170.762 76.9133C167.751 71.8026 164.686 67.0521 164.686 62.7153C158.905 64.5168 156.951 67.8661 156.951 67.8661Z" fill="#AA633F"/>
<path d="M160.524 83.7588C166.399 86.2541 157.486 114.797 144.571 121.856C143.937 117.645 143.937 113.363 144.571 109.152C144.571 109.152 155.412 81.6371 160.524 83.7588Z" fill="#AA633F"/>
<path d="M146.686 116.745C146.686 116.745 146.873 111.407 144.571 109.152C142.269 106.897 134.132 96.9826 132.526 93.6333C131.635 94.5706 130.541 95.2918 129.327 95.7416C129.327 95.7416 138.013 121.856 144.558 121.856L146.686 116.745Z" fill="#AA633F"/>
<path d="M132.312 96.809L132.499 93.6331C132.499 93.6331 134.6 87.8152 133.235 85.867C131.87 83.9187 132.941 81.0098 129.3 84.626C126.744 87.188 126.624 93.0994 129.3 95.7415C131.977 98.3836 132.312 96.809 132.312 96.809Z" fill="#AA633F"/>
<path d="M183.075 111.274L186.783 111.007C186.783 111.007 200.715 143.966 203.498 146.742C206.282 149.518 202.441 151.786 202.441 151.786C202.441 151.786 180.854 123.15 178.779 114.97C180.083 113.597 181.523 112.359 183.075 111.274Z" fill="#AA633F"/>
<path d="M201.638 147.009C201.73 147.297 201.901 147.554 202.132 147.75C202.362 147.946 202.644 148.073 202.943 148.118C203.243 148.162 203.549 148.122 203.827 148.001C204.105 147.881 204.344 147.685 204.516 147.436C206.376 145.581 207.487 142.512 213.322 142.512C219.157 142.512 215.49 142.913 213.322 145.074C211.154 147.236 205.105 154.415 202.441 151.746C202.398 150.137 202.127 148.543 201.638 147.009Z" fill="#AA633F"/>
<path d="M164.74 145.942L201.638 244.687L209.052 242.832L182.085 135.093L178.779 124.244L162.973 130.676C162.973 130.676 160.765 135.293 164.74 145.942Z" fill="#2C58B1"/>
<path d="M156.951 67.866C158.041 69.6496 158.765 71.632 159.079 73.6973C164.258 70.815 164.231 66.0112 164.793 63.9562C163.683 58.8722 156.951 67.866 156.951 67.866Z" fill="#934624"/>
<path d="M144.571 46.5155C144.571 46.5155 145.454 70.3345 154.127 70.3345C162.799 70.3345 159.306 66.5047 166.025 59.7927C161.608 49.0241 159.614 39.1096 144.571 46.5155Z" fill="#AA633F"/>
<path d="M157.66 48.2771C157.66 48.2771 156.75 49.4514 153.926 49.4514C151.102 49.4514 150.941 48.2771 149.175 48.2771C147.408 48.2771 148.091 50.0385 144.825 50.0385C141.56 50.0385 137.491 48.971 139.472 44.0337C141.453 39.0965 146.338 31.5438 154.649 33.105C164.218 31.3436 169.518 40.4842 178.739 40.4842C187.96 40.4842 198.72 33.9857 207.045 33.9857C215.369 33.9857 227.214 34.3327 227.214 44.0337C227.214 53.7348 218.675 53.0009 214.473 57.1909C210.27 61.3809 206.858 71.0419 196.418 72.0961C185.979 73.1503 168.447 73.3371 159.788 57.1909C157.66 52.3337 155.545 53.2144 157.66 48.2771Z" fill="#4C266E"/>
<path d="M170.763 162.048C170.763 162.048 181.309 152.614 184.976 146.635C187.331 156.07 185.712 149.558 185.712 149.558C185.712 149.558 173.198 168.56 176.624 177.727L170.763 162.048Z" fill="#294D90"/>
<path d="M164.057 126.366L162.371 133.131L134.266 246.261L142.229 249.17C142.229 249.17 173.078 165.797 175.42 160.98C183.356 153.067 190.235 143.46 182.112 128.154C180.653 125.485 179.02 122.349 178.806 121.802L164.057 126.366Z" fill="#2C58B1"/>
<path d="M156.951 85.5203C154.917 94.2072 151.597 95.9019 151.597 101.72C151.597 107.538 154.006 109.246 157.807 113.036C160.109 120.455 163.576 129.048 162.344 133.132C178.793 133.132 182.058 128.208 182.058 128.208C180.033 123.519 178.894 118.497 178.699 113.396C178.699 105.977 174.269 82.5179 172.502 79.3287C171.606 77.674 169.223 74.2446 169.223 74.2446C169.223 74.2446 158.998 76.82 156.951 85.5203Z" fill="#F5E5E6"/>
<path d="M169.919 79.2618C177.949 78.0609 183.303 99.945 186.782 109.873C183.785 115.998 181.523 117.986 180.265 115.104C178.886 111.915 160.417 80.6897 169.919 79.2618Z" fill="#AA633F"/>
<path d="M116.786 71.1588L118.463 70.1995C117.295 67.5465 115.847 65.0262 114.142 62.6819L112.809 64.2884C114.365 66.4372 115.698 68.7393 116.786 71.1588Z" fill="#335AA9"/>
<path d="M108.879 59.5158L109.986 57.6052C110.727 58.385 111.452 59.1649 112.146 60.0383L110.945 61.8085C110.259 61.0209 109.573 60.2488 108.879 59.5158ZM104.48 55.562L105.26 53.394C106.04 54.0179 106.874 54.6886 107.654 55.3826L106.711 57.4336C106.001 56.7786 105.244 56.1469 104.48 55.562Z" fill="#335AA9"/>
<path d="M102.148 53.9244L102.803 51.655C100.536 50.3003 98.1443 49.1669 95.6601 48.2705L96.0579 50.8362C98.1911 51.6482 100.233 52.6833 102.148 53.9244Z" fill="#335AA9"/>
<path d="M86.649 25.5381H17.7812C16.3541 25.5381 15.1922 27.5111 15.1922 29.9442V79.0118C15.1922 81.4449 16.3541 83.4179 17.7812 83.4179H86.649C88.0761 83.4179 89.238 81.4449 89.238 79.0118V29.9442C89.238 27.5111 88.0761 25.5381 86.649 25.5381Z" fill="#C4E8F0"/>
<path d="M45.9802 35.5667H81.0964V41.4311H45.9802V35.5667Z" fill="white"/>
<path d="M62.9028 48.9723C58.6304 49.7083 54.535 51.2428 50.8309 53.4954C48.8345 54.6807 36.7391 49.5962 33.3936 50.0797C30.0481 50.5632 25.5952 54.283 24.1837 59.7107C23.864 60.9039 24.7062 68.9674 33.5808 68.7647C42.4554 68.5619 46.2532 71.7905 52.4217 76.3759C58.5903 80.9614 72.565 78.4269 73.0641 71.8684C73.5632 65.31 84.7617 65.2476 75.6844 50.6568C73.3449 46.8823 70.2255 47.475 68.4786 47.7402C66.5991 48.0496 64.7377 48.461 62.9028 48.9723Z" fill="#9CCEDB"/>
<path d="M32.3487 60.6307C32.3487 60.6307 17.6253 28.9146 32.879 28.9224C49.24 28.9146 32.3487 60.6307 32.3487 60.6307ZM36.8562 36.3932C36.8562 33.8899 35.1405 31.8624 33.0193 31.8624C30.8982 31.8624 29.2293 33.8822 29.2293 36.3854C29.2293 38.8887 30.945 40.9163 33.0583 40.9163C35.1717 40.9163 36.8952 38.8887 36.8952 36.3854L36.8562 36.3932Z" fill="#F05553"/>
<line y1="-1.5" x2="86.5684" y2="-1.5" transform="matrix(0.457256 0.889335 0.889335 -0.457256 33.4418 13.3608)" stroke="#F05452" stroke-width="3"/>
<circle r="42.8358" transform="matrix(-0.975934 -0.218065 -0.218065 0.975934 52.9921 52.9369)" stroke="#F05553" stroke-width="3"/>
</svg>
