<svg width="261" height="270" viewBox="0 0 261 270" fill="none" xmlns="http://www.w3.org/2000/svg">
<path d="M260.79 270C260.79 270 255.489 259.772 226.264 256.826C213.231 254.649 207.197 244.102 187.874 241.714C150.132 237.049 113.166 241.289 88.4529 249.889C65.0417 258.035 58.3689 256.045 27.2642 260.586C10.1371 262.176 0.230957 268.278 0.230957 270H260.79Z" fill="#C4E8F0"/>
<path d="M161.771 197.255L157.791 203.419C157.791 203.419 165.54 245.591 165.54 250.548C162.132 253.965 159.649 256.131 159.649 256.131H172.056C172.056 256.131 170.189 204.969 170.189 197.219C164.615 191.645 161.771 197.255 161.771 197.255Z" fill="#FBC8A0"/>
<path d="M196.035 197.457L201.574 202.318C201.574 202.318 207.738 248.734 209.112 253.507C213.33 255.841 215.118 256.149 215.118 256.149H203.203C203.203 256.149 190.082 207.241 187.942 199.791C191.764 192.852 196.035 197.457 196.035 197.457Z" fill="#FBC8A0"/>
<path d="M172.056 146.681H173.527V107.609L156.795 109.009C156.795 109.009 150.059 127.088 150.059 142.314C150.059 157.539 165.496 247.986 165.496 247.986L171.528 248.276L172.056 146.681Z" fill="#2C58B1"/>
<path d="M201.627 249.447L173.527 146.681L168.974 121.875L173.527 107.609H185.565C185.565 107.609 193.49 130.249 195.013 141.415C195.788 146.937 207.958 249.447 207.958 249.447H201.627Z" fill="#2C58B1"/>
<path d="M118.19 51.0748C118.067 51.1276 118.04 51.0748 118.014 50.9867C117.882 50.5288 117.741 50.1061 117.6 49.613C117.6 49.5338 117.6 49.4721 117.688 49.4545L117.547 48.9878C117.415 48.9878 117.397 48.9349 117.371 48.8469L116.966 47.5524C116.966 47.4731 116.966 47.4115 117.045 47.3851L116.834 46.6718C116.702 46.7334 116.693 46.6718 116.666 46.5749L116.481 45.9673C116.481 45.8881 116.481 45.8176 116.57 45.7912V45.6591C116.402 45.1043 116.244 44.5407 116.059 43.986C116.026 43.8385 116.024 43.6861 116.05 43.5375C116.077 43.3889 116.133 43.2471 116.215 43.1203C116.297 42.9934 116.403 42.884 116.527 42.7983C116.652 42.7126 116.792 42.6524 116.939 42.621L126.626 39.627C126.767 39.5727 126.918 39.5474 127.07 39.5527C127.221 39.558 127.37 39.5938 127.507 39.6579C127.645 39.722 127.767 39.8132 127.869 39.9259C127.97 40.0386 128.047 40.1705 128.097 40.3139C128.378 41.1945 128.643 42.0751 128.924 43.0085C128.924 43.0613 128.924 43.1318 129.03 43.123C129.136 43.1142 129.083 43.123 129.092 43.1934L129.673 45.0955C129.673 45.0955 129.673 45.1572 129.673 45.166C129.673 45.1748 129.62 45.3157 129.673 45.3861C131.187 50.3938 132.708 55.3839 134.234 60.3563C134.276 60.5091 134.286 60.6688 134.264 60.8257C134.242 60.9825 134.188 61.1332 134.106 61.2684C134.023 61.4037 133.914 61.5206 133.785 61.6121C133.655 61.7036 133.509 61.7677 133.354 61.8005L123.667 64.7417C123.525 64.7953 123.374 64.8203 123.222 64.8152C123.07 64.8101 122.92 64.775 122.782 64.712C122.644 64.649 122.519 64.5593 122.416 64.448C122.312 64.3368 122.232 64.2061 122.179 64.0637C120.887 59.7722 119.587 55.4896 118.278 51.2157L118.19 51.0748Z" fill="#322875"/>
<path d="M185.177 2.18363C185.177 2.18363 179.013 -1.94639 172.981 1.15332C166.949 4.25304 160.371 10.2587 158.891 24.4188C157.412 38.5789 150.42 42.7001 149.205 49.5247C147.99 56.3494 146.933 67.9205 158.715 73.9174C170.498 79.9143 197.391 79.7558 210.186 77.2284C222.392 74.8508 233.144 57.591 225.905 44.5669C218.667 31.5429 212.273 31.7454 208.751 25.5372C205.229 19.3289 198.783 -1.56773 185.177 2.18363Z" fill="#4C266E"/>
<path d="M172.153 39.2919C172.153 39.2919 172.417 47.0941 170.189 49.322C167.961 51.5499 163.726 51.9021 163.726 51.9021C163.726 51.9021 164.509 59.6514 171.123 61.4126C174.41 62.2415 177.879 61.9614 180.991 60.6158C184.102 59.2702 186.682 56.9345 188.33 53.9716C184.349 52.4217 182.87 51.1448 182.491 49.1106C182.113 47.0764 181.355 33.6121 181.355 33.6121L172.153 39.2919Z" fill="#AA633F"/>
<path d="M163.726 56.7632C163.726 56.7632 162.898 52.14 161.612 51.5941C158.152 50.1411 150.041 61.8971 134.226 82.0276C131.584 93.044 131.126 94.902 132.517 94.902C133.909 94.902 144.608 90.1996 156.707 73.2481C163.215 62.8041 163.726 56.7632 163.726 56.7632Z" fill="#AA633F"/>
<path d="M135.775 88.3859L134.226 82.0279C134.226 82.0279 124.918 67.4628 123.834 60.3299C121.36 55.5218 119.801 56.605 119.801 56.605C119.801 56.605 122.751 90.5609 132.517 94.9023C135.661 89.6275 135.775 88.3859 135.775 88.3859Z" fill="#AA633F"/>
<path d="M121.51 60.638L123.834 60.3298C123.834 60.3298 126.124 54.7027 127.788 53.0384C129.453 51.374 128.669 48.6354 127.788 47.7548C126.908 46.8742 119.81 51.1803 119.81 55.3632C119.81 59.546 120.259 60.6468 120.259 60.6468L121.51 60.638Z" fill="#AA633F"/>
<path d="M204.454 93.3435L208.178 93.8102C208.178 93.8102 218.57 130.241 222.268 136.748C221.026 141.09 219.327 141.407 219.327 141.407C219.327 141.407 202.032 111.008 198.545 99.7895C201.451 96.8659 204.454 93.3435 204.454 93.3435Z" fill="#AA633F"/>
<path d="M222.101 137.18L224.241 137.505C224.241 137.505 234.35 142.472 235.301 145.959C232.263 145.651 226.063 142.437 221.546 142.217C216.377 140.332 219.362 136.678 219.362 136.678L222.101 137.18Z" fill="#AA633F"/>
<path d="M163.373 254.44H161.524C161.524 254.44 155.466 254.59 155.466 257.082H172.373C172.468 255.787 172.325 254.486 171.951 253.243C168.851 254.493 163.373 254.44 163.373 254.44Z" fill="#322875"/>
<path d="M209.112 253.507C212.212 253.507 216.315 255.269 216.315 257.074H202.587C202.587 257.074 201.97 254.027 202.481 253.507C203.925 254.934 207.412 255.198 209.112 253.507Z" fill="#322875"/>
<path d="M166.121 54.0775L166.332 51.3828L161.278 51.4973C161.278 51.4973 162.158 59.7573 158.31 63.5791C154.462 67.4009 150.869 74.1463 156.443 81.5698C158.31 90.6664 158.204 100.062 157.068 105.751C156.082 110.815 155.413 113.042 155.413 113.042C155.413 113.042 175.05 116.565 187.335 113.042C184.948 104.562 182.879 88.1479 191.368 77.8185C193.446 59.8366 193.446 55.6978 193.446 55.6978L185.248 52.51C185.248 52.51 184.164 59.6252 173.509 59.6252C166.121 59.6517 166.121 54.0775 166.121 54.0775Z" fill="#F5E5E6"/>
<path d="M174.531 43.5013C176.618 43.0963 180.334 41.7401 181.699 39.2568C181.699 33.3832 181.311 32.6611 181.311 32.6611L172.153 39.2921L172.056 42.8937C172.387 43.1906 172.786 43.4013 173.217 43.5073C173.649 43.6133 174.1 43.6113 174.531 43.5013Z" fill="#934624"/>
<path d="M185.617 27.5535C182.879 36.6149 176.001 42.5237 170.277 40.8065C164.553 39.0894 162.114 30.3274 164.862 21.2748C167.609 12.2222 174.469 6.3046 180.202 8.0658C185.934 9.827 188.356 18.4921 185.617 27.5535Z" fill="#AA633F"/>
<path d="M182.13 11.6412C182.13 11.6412 179.277 18.3249 167.063 16.0442C164.008 13.0237 168.49 3.11695 179.189 5.28322C189.888 7.4495 195.339 25.449 187.995 31.0232C183.759 26.7611 177.639 21.134 182.13 11.6412Z" fill="#4C266E"/>
<path d="M193.446 55.7243C198.642 55.9093 208.179 93.8191 208.179 93.8191C208.179 93.8191 207.562 103.893 202.895 101.877C198.712 100.019 198.554 99.7984 198.554 99.7984C198.554 99.7984 177.173 54.2273 193.446 55.7243Z" fill="#AA633F"/>
<path d="M110.458 46.6804H108.6V65.8335H110.458V46.6804Z" fill="#A680B7"/>
<path d="M119.766 63.9756H108.6V65.8337H119.766V63.9756Z" fill="#A680B7"/>
<path d="M141.455 63.9756H130.289V65.8337H141.455V63.9756Z" fill="#A680B7"/>
<path d="M141.446 54.6763H139.588V65.8423H141.446V54.6763Z" fill="#A680B7"/>
<path d="M141.552 34.3696H139.694V50.7312H141.552V34.3696Z" fill="#A680B7"/>
<path d="M141.552 34.3699H123.799V36.2279H141.552V34.3699Z" fill="#A680B7"/>
<path d="M118.472 34.3704H108.6V36.2284H118.472V34.3704Z" fill="#A680B7"/>
<path d="M110.458 34.3704H108.6V42.4191H110.458V34.3704Z" fill="#A680B7"/>
<g opacity="0.6">
<path d="M136.175 76.4685L88.0282 179.371" stroke="#A680B7" stroke-width="2" stroke-linecap="round" stroke-linejoin="round"/>
<path d="M104.077 67.9719L88.0282 83.0768" stroke="#A680B7" stroke-width="2" stroke-linecap="round" stroke-linejoin="round"/>
<path d="M101.245 38.7063L27.6086 65.1399" stroke="#A680B7" stroke-width="2" stroke-linecap="round"/>
</g>
<path opacity="0.2" d="M80.2055 80.8835V92.5717L16.28 158.849V125.312L60.2371 80.8835H80.2055Z" fill="url(#paint0_linear)"/>
<path opacity="0.2" d="M80.2055 104.46V118.472L26.0482 173.26L16.3132 184.152V169.11L80.2055 104.46Z" fill="url(#paint1_linear)"/>
<path d="M80.2055 74.2764V188.07C80.2055 190.494 78.3781 192.486 76.1521 192.486H20.3335C18.1738 192.486 16.4129 190.626 16.28 188.335C16.28 188.236 16.28 188.169 16.28 188.07V74.2764C16.28 71.8524 18.1074 69.8601 20.3335 69.8601H76.1521C78.3781 69.8601 80.2055 71.8524 80.2055 74.2764Z" fill="#4B0A70"/>
<path d="M80.2055 181.528V188.103C80.2055 190.527 78.3781 192.519 76.1521 192.519H20.3335C18.1074 192.519 16.28 190.527 16.28 188.103V181.528H80.2055Z" fill="#E8DAF2"/>
<path d="M80.2055 74.2764V80.8509H16.28V74.2764C16.28 71.8524 18.1074 69.8601 20.3335 69.8601H76.1521C78.3781 69.8601 80.2055 71.8524 80.2055 74.2764Z" fill="#E8DAF2"/>
<path d="M52.861 187.14C52.861 188.435 51.7978 189.497 50.502 189.497H45.9834C44.6876 189.497 43.6244 188.435 43.6244 187.14V186.907C43.6244 185.612 44.6876 184.55 45.9834 184.55H50.502C51.7978 184.55 52.861 185.612 52.861 186.907V187.14Z" fill="#BA91B5"/>
<path d="M49.6714 75.0731C49.6714 75.9364 49.0401 76.6337 48.2427 76.6337C47.4453 76.6337 46.814 75.9364 46.814 75.0731C46.814 74.2098 47.4453 73.5125 48.2427 73.5125C49.0401 73.5125 49.6714 74.2098 49.6714 75.0731Z" fill="#BA91B5"/>
<path d="M27.1484 155.865C27.495 156.039 27.7584 156.265 27.9384 156.545C28.125 156.825 28.2184 157.149 28.2184 157.515C28.2184 157.949 28.095 158.329 27.8484 158.655C27.6017 158.975 27.255 159.225 26.8084 159.405C26.3617 159.579 25.845 159.665 25.2584 159.665C24.6717 159.665 24.155 159.579 23.7084 159.405C23.2684 159.225 22.925 158.975 22.6784 158.655C22.4384 158.329 22.3184 157.949 22.3184 157.515C22.3184 157.149 22.4084 156.825 22.5884 156.545C22.775 156.265 23.0384 156.039 23.3784 155.865C23.1184 155.705 22.9184 155.505 22.7784 155.265C22.6384 155.019 22.5684 154.739 22.5684 154.425C22.5684 154.019 22.6817 153.665 22.9084 153.365C23.135 153.065 23.4517 152.835 23.8584 152.675C24.265 152.509 24.7317 152.425 25.2584 152.425C25.7917 152.425 26.2617 152.509 26.6684 152.675C27.0817 152.835 27.4017 153.065 27.6284 153.365C27.855 153.665 27.9684 154.019 27.9684 154.425C27.9684 154.739 27.8984 155.019 27.7584 155.265C27.6184 155.505 27.415 155.705 27.1484 155.865ZM25.2584 153.615C24.9317 153.615 24.6684 153.695 24.4684 153.855C24.275 154.009 24.1784 154.222 24.1784 154.495C24.1784 154.762 24.275 154.972 24.4684 155.125C24.6617 155.279 24.925 155.355 25.2584 155.355C25.5917 155.355 25.8584 155.279 26.0584 155.125C26.2584 154.972 26.3584 154.762 26.3584 154.495C26.3584 154.222 26.2584 154.009 26.0584 153.855C25.8584 153.695 25.5917 153.615 25.2584 153.615ZM25.2584 158.475C25.665 158.475 25.985 158.385 26.2184 158.205C26.4584 158.019 26.5784 157.772 26.5784 157.465C26.5784 157.159 26.4584 156.915 26.2184 156.735C25.985 156.555 25.665 156.465 25.2584 156.465C24.8584 156.465 24.5417 156.555 24.3084 156.735C24.075 156.915 23.9584 157.159 23.9584 157.465C23.9584 157.779 24.075 158.025 24.3084 158.205C24.5417 158.385 24.8584 158.475 25.2584 158.475ZM31.4199 152.425C32.3999 152.425 33.1666 152.725 33.7199 153.325C34.2733 153.919 34.5499 154.775 34.5499 155.895C34.5499 156.689 34.3999 157.369 34.0999 157.935C33.8066 158.502 33.3899 158.932 32.8499 159.225C32.3099 159.519 31.6866 159.665 30.9799 159.665C30.6066 159.665 30.2499 159.625 29.9099 159.545C29.5699 159.459 29.2799 159.339 29.0399 159.185L29.6399 157.995C29.9799 158.229 30.4166 158.345 30.9499 158.345C31.5433 158.345 32.0133 158.172 32.3599 157.825C32.7066 157.472 32.8933 156.965 32.9199 156.305C32.4999 156.725 31.9199 156.935 31.1799 156.935C30.7333 156.935 30.3266 156.845 29.9599 156.665C29.5933 156.485 29.3033 156.232 29.0899 155.905C28.8766 155.572 28.7699 155.189 28.7699 154.755C28.7699 154.289 28.8866 153.879 29.1199 153.525C29.3533 153.172 29.6699 152.902 30.0699 152.715C30.4766 152.522 30.9266 152.425 31.4199 152.425ZM31.5399 155.725C31.8933 155.725 32.1799 155.629 32.3999 155.435C32.6266 155.235 32.7399 154.982 32.7399 154.675C32.7399 154.369 32.6299 154.119 32.4099 153.925C32.1966 153.732 31.8999 153.635 31.5199 153.635C31.1733 153.635 30.8899 153.729 30.6699 153.915C30.4566 154.102 30.3499 154.355 30.3499 154.675C30.3499 154.995 30.4566 155.252 30.6699 155.445C30.8899 155.632 31.1799 155.725 31.5399 155.725ZM37.7271 155.175C38.7138 155.175 39.4405 155.372 39.9071 155.765C40.3805 156.159 40.6171 156.685 40.6171 157.345C40.6171 157.772 40.5105 158.162 40.2971 158.515C40.0838 158.862 39.7571 159.142 39.3171 159.355C38.8838 159.562 38.3471 159.665 37.7071 159.665C37.2138 159.665 36.7271 159.602 36.2471 159.475C35.7738 159.342 35.3705 159.155 35.0371 158.915L35.6771 157.675C35.9438 157.875 36.2505 158.032 36.5971 158.145C36.9438 158.252 37.3005 158.305 37.6671 158.305C38.0738 158.305 38.3938 158.225 38.6271 158.065C38.8605 157.905 38.9771 157.682 38.9771 157.395C38.9771 157.095 38.8538 156.869 38.6071 156.715C38.3671 156.562 37.9471 156.485 37.3471 156.485H35.5571L35.9171 152.545H40.1871V153.845H37.2671L37.1571 155.175H37.7271ZM46.4556 158.225V159.545H41.1656V158.495L43.8656 155.945C44.1522 155.672 44.3456 155.439 44.4456 155.245C44.5456 155.045 44.5956 154.849 44.5956 154.655C44.5956 154.375 44.4989 154.162 44.3056 154.015C44.1189 153.862 43.8422 153.785 43.4756 153.785C43.1689 153.785 42.8922 153.845 42.6456 153.965C42.3989 154.079 42.1922 154.252 42.0256 154.485L40.8456 153.725C41.1189 153.319 41.4956 153.002 41.9756 152.775C42.4556 152.542 43.0056 152.425 43.6256 152.425C44.1456 152.425 44.5989 152.512 44.9856 152.685C45.3789 152.852 45.6822 153.092 45.8956 153.405C46.1156 153.712 46.2256 154.075 46.2256 154.495C46.2256 154.875 46.1456 155.232 45.9856 155.565C45.8256 155.899 45.5156 156.279 45.0556 156.705L43.4456 158.225H46.4556ZM47.2149 156.105H50.0449V157.355H47.2149V156.105ZM53.4275 152.545V159.545H51.8075V153.845H50.4075V152.545H53.4275ZM59.8735 158.225V159.545H54.5835V158.495L57.2835 155.945C57.5702 155.672 57.7635 155.439 57.8635 155.245C57.9635 155.045 58.0135 154.849 58.0135 154.655C58.0135 154.375 57.9169 154.162 57.7235 154.015C57.5369 153.862 57.2602 153.785 56.8935 153.785C56.5869 153.785 56.3102 153.845 56.0635 153.965C55.8169 154.079 55.6102 154.252 55.4435 154.485L54.2635 153.725C54.5369 153.319 54.9135 153.002 55.3935 152.775C55.8735 152.542 56.4235 152.425 57.0435 152.425C57.5635 152.425 58.0169 152.512 58.4035 152.685C58.7969 152.852 59.1002 153.092 59.3135 153.405C59.5335 153.712 59.6435 154.075 59.6435 154.495C59.6435 154.875 59.5635 155.232 59.4035 155.565C59.2435 155.899 58.9335 156.279 58.4735 156.705L56.8635 158.225H59.8735ZM66.8543 158.075H65.7143V159.545H64.1343V158.075H60.3643V156.985L63.6643 152.545H65.3643L62.3043 156.755H64.1843V155.445H65.7143V156.755H66.8543V158.075ZM73.7488 158.075H72.6088V159.545H71.0288V158.075H67.2588V156.985L70.5588 152.545H72.2588L69.1988 156.755H71.0788V155.445H72.6088V156.755H73.7488V158.075Z" fill="white"/>
<path d="M50.6662 126.586L52.6845 128.551C53.189 129.033 53.189 129.033 52.6845 129.515L50.5653 131.579C50.7788 131.688 50.9816 131.816 51.1708 131.962C51.751 132.506 52.3186 133.087 52.8989 133.643C53.0377 133.779 53.126 133.902 52.8989 134.088L47.8532 139.032C47.3629 138.483 46.8361 137.967 46.2764 137.487C45.8606 137.164 45.5357 136.742 45.3326 136.262C45.1295 135.782 45.0549 135.259 45.1159 134.743C45.1159 129.441 45.1159 124.126 45.1159 118.812C45.136 118.676 45.1047 118.539 45.028 118.425C44.9512 118.311 44.8343 118.229 44.6996 118.194C43.2137 117.652 41.9267 116.688 41.0036 115.425C39.9101 113.953 39.3506 112.165 39.4142 110.345C39.4194 109.007 39.7689 107.692 40.4303 106.521C41.0918 105.35 42.0438 104.361 43.1985 103.647C44.8168 102.568 46.7667 102.074 48.7157 102.247C50.6646 102.421 52.4916 103.252 53.885 104.598C55.2784 105.944 56.1518 107.723 56.3562 109.63C56.5605 111.536 56.0831 113.454 55.0055 115.054C54.0649 116.494 52.6761 117.599 51.0446 118.206C50.9167 118.238 50.8051 118.315 50.7308 118.422C50.6565 118.529 50.6245 118.658 50.6409 118.787C50.6409 119.615 50.6409 120.443 50.6409 121.259C50.6561 121.488 50.7494 121.706 50.9058 121.877C51.5366 122.532 52.1673 123.174 52.8611 123.805C53.1133 124.04 53.1133 124.213 52.8611 124.46C52.1294 125.14 51.423 125.844 50.6662 126.586ZM47.9415 106.106C47.4625 106.101 46.9928 106.236 46.5918 106.492C46.1908 106.749 45.8765 107.116 45.6886 107.548C45.5007 107.98 45.4477 108.456 45.5362 108.918C45.6248 109.379 45.8509 109.804 46.1861 110.139C46.5212 110.475 46.9504 110.705 47.4192 110.801C47.888 110.898 48.3754 110.856 48.8198 110.681C49.2643 110.506 49.6457 110.205 49.916 109.818C50.1863 109.43 50.3332 108.973 50.3382 108.504C50.3449 108.191 50.2879 107.881 50.1704 107.59C50.053 107.299 49.8775 107.035 49.6543 106.811C49.4311 106.588 49.1646 106.41 48.8705 106.289C48.5764 106.168 48.2605 106.106 47.9415 106.106Z" fill="white"/>
<defs>
<linearGradient id="paint0_linear" x1="7.76594" y1="150.338" x2="78.6957" y2="79.3645" gradientUnits="userSpaceOnUse">
<stop stop-color="white" stop-opacity="0"/>
<stop offset="0.259" stop-color="#FDFDFE" stop-opacity="0.259"/>
<stop offset="0.398" stop-color="#F7F5F9" stop-opacity="0.398"/>
<stop offset="0.5084" stop-color="#EDE7F1" stop-opacity="0.5084"/>
<stop offset="0.604" stop-color="#DFD4E6" stop-opacity="0.604"/>
<stop offset="0.6898" stop-color="#CDBBD7" stop-opacity="0.6898"/>
<stop offset="0.7688" stop-color="#B69CC5" stop-opacity="0.7688"/>
<stop offset="0.8424" stop-color="#9B77B0" stop-opacity="0.8424"/>
<stop offset="0.9119" stop-color="#7C4D97" stop-opacity="0.9119"/>
<stop offset="0.9757" stop-color="#5A1E7C" stop-opacity="0.9757"/>
<stop offset="1" stop-color="#4B0A70"/>
</linearGradient>
<linearGradient id="paint1_linear" x1="12.3465" y1="180.16" x2="84.1098" y2="108.353" gradientUnits="userSpaceOnUse">
<stop stop-color="white" stop-opacity="0"/>
<stop offset="0.259" stop-color="#FDFDFE" stop-opacity="0.259"/>
<stop offset="0.398" stop-color="#F7F5F9" stop-opacity="0.398"/>
<stop offset="0.5084" stop-color="#EDE7F1" stop-opacity="0.5084"/>
<stop offset="0.604" stop-color="#DFD4E6" stop-opacity="0.604"/>
<stop offset="0.6898" stop-color="#CDBBD7" stop-opacity="0.6898"/>
<stop offset="0.7688" stop-color="#B69CC5" stop-opacity="0.7688"/>
<stop offset="0.8424" stop-color="#9B77B0" stop-opacity="0.8424"/>
<stop offset="0.9119" stop-color="#7C4D97" stop-opacity="0.9119"/>
<stop offset="0.9757" stop-color="#5A1E7C" stop-opacity="0.9757"/>
<stop offset="1" stop-color="#4B0A70"/>
</linearGradient>
</defs>
</svg>
