<svg width="290" height="254" viewBox="0 0 290 254" fill="none" xmlns="http://www.w3.org/2000/svg">
<path opacity="0.3" fill-rule="evenodd" clip-rule="evenodd" d="M145.397 3.06364C173.777 2.20083 203.327 -5.03295 228.781 6.31775C255.277 18.1329 275.791 40.4407 285.604 65.5854C295.056 89.8056 286.011 115.63 281.324 140.956C276.744 165.694 277.165 193.122 258.548 211.753C240.022 230.292 209.679 232.185 183.129 239.221C156.572 246.26 130.407 257.533 103.203 252.926C74.726 248.103 48.7276 233.441 30.2317 213.327C11.9414 193.437 4.42808 167.703 1.2228 142.025C-1.90996 116.929 0.789503 91.5357 12.1471 68.4509C23.5845 45.2041 40.7778 23.4358 65.5488 11.2804C89.5661 -0.505217 118.07 3.89444 145.397 3.06364Z" fill="url(#paint0_radial)"/>
<g filter="url(#filter0_d)">
<path d="M114.696 120.218C114.696 119.468 114.696 118.855 114.696 118.173C114.696 116.673 114.696 115.105 114.696 113.605C114.696 113.537 114.696 113.469 114.696 113.401C114.696 112.583 114.658 112.515 114.203 112.515C105.744 112.515 97.2838 112.515 88.7862 112.515C84.8788 112.515 80.9714 112.515 77.064 112.515C76.9881 112.515 27.382 112.515 27.3062 112.515C27.3062 109.583 27.3062 106.72 27.3062 103.721C27.989 103.721 78.1641 103.721 78.8849 103.721C82.2612 103.652 85.6375 103.584 89.0138 103.584C97.3217 103.584 105.63 103.584 113.9 103.516C114.089 103.516 114.279 103.516 114.431 103.516C114.545 103.516 114.658 103.38 114.658 103.175C114.658 102.971 114.696 102.766 114.696 102.63C114.696 100.516 114.696 98.4713 114.696 96.2217C117.845 100.176 120.994 104.13 124.18 108.084C121.032 112.174 117.883 116.128 114.696 120.218Z" fill="white"/>
</g>
<g filter="url(#filter1_d)">
<path d="M171.895 153.991C171.895 153.242 171.895 152.628 171.895 151.946C171.895 150.447 171.895 148.879 171.895 147.379C171.895 147.311 171.895 147.242 171.895 147.174C171.895 146.356 171.933 146.288 172.388 146.288C180.86 146.288 189.332 146.288 197.842 146.288C201.755 146.288 205.668 146.288 209.581 146.288C209.657 146.288 259.195 146.288 259.271 146.288C259.271 143.357 259.271 140.494 259.271 137.494C258.587 137.494 208.479 137.494 207.758 137.494C204.377 137.426 200.995 137.358 197.614 137.358C189.294 137.358 180.974 137.358 172.692 137.289C172.502 137.289 172.313 137.289 172.161 137.289C172.047 137.289 171.933 137.153 171.933 136.949C171.933 136.744 171.895 136.54 171.895 136.403C171.895 134.29 171.895 132.245 171.895 129.995C168.741 133.949 165.588 137.903 162.397 141.857C165.588 145.947 168.703 149.901 171.895 153.991Z" fill="white"/>
</g>
<g filter="url(#filter2_d)">
<path d="M259.173 69.1003V171.759C259.173 173.946 257.525 175.743 255.516 175.743H205.16C203.211 175.743 201.623 174.065 201.503 171.998C201.503 171.909 201.503 171.849 201.503 171.759V69.1003C201.503 66.9136 203.151 65.1162 205.16 65.1162H255.516C257.525 65.1162 259.173 66.9136 259.173 69.1003Z" fill="#4B0A70"/>
<path d="M259.172 165.857V171.789C259.172 173.975 257.524 175.773 255.515 175.773H205.159C203.151 175.773 201.502 173.975 201.502 171.789V165.857H259.172Z" fill="#E8DAF2"/>
<path d="M259.172 69.0998V75.0311H201.532V69.0998C201.532 66.9131 203.18 65.1157 205.189 65.1157H255.545C257.523 65.1157 259.172 66.9131 259.172 69.0998Z" fill="#E8DAF2"/>
<path d="M234.503 170.919C234.503 172.087 233.544 173.046 232.375 173.046H228.299C227.13 173.046 226.17 172.087 226.17 170.919V170.709C226.17 169.541 227.13 168.583 228.299 168.583H232.375C233.544 168.583 234.503 169.541 234.503 170.709V170.919Z" fill="#BA91B5"/>
<path d="M231.656 69.8181C231.656 70.5969 231.086 71.226 230.367 71.226C229.648 71.226 229.078 70.5969 229.078 69.8181C229.078 69.0392 229.648 68.4102 230.367 68.4102C231.056 68.4102 231.656 69.0392 231.656 69.8181Z" fill="#BA91B5"/>
<path d="M234.283 125.972L236.807 128.498C237.438 129.118 237.438 129.118 236.807 129.737L234.157 132.39C234.424 132.53 234.678 132.695 234.914 132.882C235.64 133.581 236.35 134.328 237.075 135.043C237.249 135.218 237.359 135.377 237.075 135.615L230.766 141.969C230.153 141.264 229.495 140.601 228.795 139.983C228.275 139.569 227.869 139.027 227.615 138.41C227.361 137.793 227.267 137.12 227.344 136.457C227.344 129.642 227.344 122.811 227.344 115.98C227.369 115.806 227.33 115.629 227.234 115.483C227.138 115.336 226.992 115.231 226.823 115.186C224.965 114.49 223.356 113.25 222.202 111.627C220.835 109.735 220.135 107.437 220.215 105.098C220.221 103.378 220.658 101.687 221.485 100.182C222.312 98.6774 223.503 97.4068 224.946 96.488C226.97 95.1023 229.408 94.4667 231.845 94.6897C234.281 94.9127 236.566 95.9806 238.308 97.711C240.05 99.4414 241.142 101.727 241.398 104.178C241.653 106.629 241.056 109.094 239.709 111.151C238.533 113.002 236.797 114.422 234.757 115.202C234.597 115.243 234.457 115.341 234.364 115.479C234.271 115.616 234.231 115.783 234.252 115.948C234.252 117.013 234.252 118.077 234.252 119.125C234.271 119.42 234.387 119.7 234.583 119.92C235.372 120.762 236.16 121.588 237.028 122.398C237.343 122.7 237.343 122.922 237.028 123.24C236.113 124.113 235.23 125.019 234.283 125.972ZM230.877 99.6493C230.278 99.6431 229.69 99.8158 229.189 100.146C228.688 100.476 228.295 100.948 228.06 101.503C227.825 102.058 227.758 102.67 227.869 103.263C227.98 103.856 228.263 104.402 228.682 104.833C229.101 105.264 229.637 105.56 230.224 105.684C230.81 105.808 231.419 105.754 231.975 105.529C232.531 105.304 233.007 104.918 233.345 104.42C233.683 103.922 233.867 103.334 233.873 102.731C233.882 102.329 233.81 101.93 233.664 101.557C233.517 101.183 233.297 100.843 233.018 100.556C232.739 100.269 232.406 100.041 232.038 99.885C231.67 99.7293 231.276 99.6492 230.877 99.6493Z" fill="white"/>
<path opacity="0.3" d="M259.172 75.061V85.6055L201.532 145.397V115.142L241.188 75.061H259.172Z" fill="url(#paint1_linear)"/>
<path opacity="0.3" d="M259.172 96.3296V108.971L210.314 158.398L201.532 168.223V154.653L259.172 96.3296Z" fill="url(#paint2_linear)"/>
</g>
<g filter="url(#filter3_d)">
<path d="M84.9774 69.0998V171.758C84.9774 173.945 83.3289 175.742 81.3206 175.742H30.964C29.0156 175.742 27.427 174.065 27.3071 171.998C27.3071 171.908 27.3071 171.848 27.3071 171.758V69.0998C27.3071 66.9131 28.9557 65.1157 30.964 65.1157H81.3206C83.3289 65.1157 84.9774 66.9131 84.9774 69.0998Z" fill="#4B0A70"/>
<path d="M84.9765 165.857V171.789C84.9765 173.975 83.3279 175.773 81.3196 175.773H30.963C28.9547 175.773 27.3062 173.975 27.3062 171.789V165.857H84.9765Z" fill="#E8DAF2"/>
<path d="M84.9774 69.0998V75.0311H27.3071V69.0998C27.3071 66.9131 28.9557 65.1157 30.964 65.1157H81.3206C83.3289 65.1157 84.9774 66.9131 84.9774 69.0998Z" fill="#E8DAF2"/>
<path d="M60.3079 170.919C60.3079 172.087 59.3487 173.046 58.1797 173.046H54.1033C52.9343 173.046 51.9751 172.087 51.9751 170.919V170.709C51.9751 169.541 52.9343 168.583 54.1033 168.583H58.1797C59.3487 168.583 60.3079 169.541 60.3079 170.709V170.919Z" fill="#BA91B5"/>
<path d="M57.4303 69.8181C57.4303 70.5969 56.8608 71.226 56.1414 71.226C55.4221 71.226 54.8525 70.5969 54.8525 69.8181C54.8525 69.0392 55.4221 68.4102 56.1414 68.4102C56.8608 68.4102 57.4303 69.0392 57.4303 69.8181Z" fill="#BA91B5"/>
<path d="M59.4773 125.972L62.0008 128.498C62.6317 129.118 62.6317 129.118 62.0008 129.737L59.3511 132.39C59.6181 132.53 59.8716 132.695 60.1082 132.882C60.8337 133.581 61.5434 134.328 62.2689 135.043C62.4424 135.218 62.5528 135.377 62.2689 135.615L55.9601 141.969C55.347 141.264 54.6884 140.601 53.9885 139.983C53.4686 139.569 53.0624 139.027 52.8085 138.41C52.5545 137.793 52.4613 137.12 52.5375 136.457C52.5375 129.642 52.5375 122.811 52.5375 115.98C52.5627 115.806 52.5235 115.629 52.4276 115.483C52.3316 115.336 52.1854 115.231 52.017 115.186C50.1591 114.49 48.5499 113.25 47.3957 111.627C46.0285 109.735 45.3289 107.437 45.4085 105.098C45.4149 103.378 45.8518 101.687 46.6789 100.182C47.5059 98.6774 48.6964 97.4068 50.1401 96.488C52.1635 95.1023 54.6016 94.4667 57.0384 94.6897C59.4752 94.9127 61.7597 95.9806 63.5019 97.711C65.2442 99.4414 66.3362 101.727 66.5917 104.178C66.8472 106.629 66.2503 109.094 64.9029 111.151C63.7269 113.002 61.9904 114.422 59.9504 115.202C59.7905 115.243 59.651 115.341 59.558 115.479C59.4651 115.616 59.4252 115.783 59.4457 115.948C59.4457 117.013 59.4457 118.077 59.4457 119.125C59.4647 119.42 59.5813 119.7 59.7769 119.92C60.5655 120.762 61.3542 121.588 62.2216 122.398C62.5371 122.7 62.5371 122.922 62.2216 123.24C61.3068 124.113 60.4236 125.019 59.4773 125.972ZM56.0704 99.6493C55.4716 99.6431 54.8843 99.8158 54.3829 100.146C53.8815 100.476 53.4885 100.948 53.2535 101.503C53.0186 102.058 52.9523 102.67 53.063 103.263C53.1738 103.856 53.4565 104.402 53.8756 104.833C54.2947 105.264 54.8312 105.56 55.4174 105.684C56.0035 105.808 56.613 105.754 57.1687 105.529C57.7244 105.304 58.2013 104.918 58.5393 104.42C58.8772 103.922 59.0609 103.334 59.0672 102.731C59.0756 102.329 59.0043 101.93 58.8574 101.557C58.7106 101.183 58.4912 100.843 58.2121 100.556C57.933 100.269 57.5998 100.041 57.232 99.885C56.8643 99.7293 56.4693 99.6492 56.0704 99.6493Z" fill="white"/>
<path opacity="0.3" d="M84.9765 75.0605V85.605L27.3062 145.397V115.141L66.962 75.0605H84.9765Z" fill="url(#paint3_linear)"/>
<path opacity="0.3" d="M84.9763 96.3291V108.97L36.1184 158.397L27.3359 168.223V154.653L84.9763 96.3291Z" fill="url(#paint4_linear)"/>
</g>
<path opacity="0.5" d="M133.329 43.3511V50.3511H132.029V44.4411H130.549V43.3511H133.329ZM139.787 49.2511V50.3511H134.627V49.4811L137.407 46.8411C137.721 46.5411 137.931 46.2811 138.037 46.0611C138.151 45.8344 138.207 45.6111 138.207 45.3911C138.207 45.0644 138.097 44.8144 137.877 44.6411C137.657 44.4677 137.334 44.3811 136.907 44.3811C136.194 44.3811 135.647 44.6244 135.267 45.1111L134.357 44.4111C134.631 44.0444 134.997 43.7611 135.457 43.5611C135.924 43.3544 136.444 43.2511 137.017 43.2511C137.777 43.2511 138.384 43.4311 138.837 43.7911C139.291 44.1511 139.517 44.6411 139.517 45.2611C139.517 45.6411 139.437 45.9977 139.277 46.3311C139.117 46.6644 138.811 47.0444 138.357 47.4711L136.487 49.2511H139.787ZM142.728 46.0611C143.714 46.0611 144.444 46.2544 144.918 46.6411C145.391 47.0211 145.628 47.5411 145.628 48.2011C145.628 48.6211 145.524 49.0011 145.318 49.3411C145.111 49.6811 144.801 49.9511 144.388 50.1511C143.974 50.3511 143.464 50.4511 142.858 50.4511C142.358 50.4511 141.874 50.3811 141.408 50.2411C140.941 50.0944 140.548 49.8944 140.228 49.6411L140.778 48.6311C141.038 48.8444 141.348 49.0144 141.708 49.1411C142.074 49.2611 142.451 49.3211 142.838 49.3211C143.298 49.3211 143.658 49.2277 143.918 49.0411C144.184 48.8477 144.318 48.5844 144.318 48.2511C144.318 47.8911 144.174 47.6211 143.888 47.4411C143.608 47.2544 143.124 47.1611 142.438 47.1611H140.748L141.108 43.3511H145.218V44.4411H142.208L142.058 46.0611H142.728ZM149.297 50.4511C148.737 50.4511 148.237 50.3111 147.797 50.0311C147.357 49.7444 147.011 49.3311 146.757 48.7911C146.504 48.2444 146.377 47.5977 146.377 46.8511C146.377 46.1044 146.504 45.4611 146.757 44.9211C147.011 44.3744 147.357 43.9611 147.797 43.6811C148.237 43.3944 148.737 43.2511 149.297 43.2511C149.857 43.2511 150.357 43.3944 150.797 43.6811C151.244 43.9611 151.594 44.3744 151.847 44.9211C152.101 45.4611 152.227 46.1044 152.227 46.8511C152.227 47.5977 152.101 48.2444 151.847 48.7911C151.594 49.3311 151.244 49.7444 150.797 50.0311C150.357 50.3111 149.857 50.4511 149.297 50.4511ZM149.297 49.3211C149.797 49.3211 150.191 49.1144 150.477 48.7011C150.771 48.2877 150.917 47.6711 150.917 46.8511C150.917 46.0311 150.771 45.4144 150.477 45.0011C150.191 44.5877 149.797 44.3811 149.297 44.3811C148.804 44.3811 148.411 44.5877 148.117 45.0011C147.831 45.4144 147.687 46.0311 147.687 46.8511C147.687 47.6711 147.831 48.2877 148.117 48.7011C148.411 49.1144 148.804 49.3211 149.297 49.3211ZM155.466 43.2511C156.426 43.2511 157.169 43.5511 157.696 44.1511C158.229 44.7511 158.496 45.6111 158.496 46.7311C158.496 47.5177 158.353 48.1911 158.066 48.7511C157.779 49.3044 157.376 49.7277 156.856 50.0211C156.343 50.3077 155.746 50.4511 155.066 50.4511C154.706 50.4511 154.366 50.4144 154.046 50.3411C153.733 50.2611 153.459 50.1477 153.226 50.0011L153.706 49.0211C154.053 49.2477 154.496 49.3611 155.036 49.3611C155.709 49.3611 156.236 49.1544 156.616 48.7411C156.996 48.3277 157.186 47.7311 157.186 46.9511V46.9411C156.979 47.1811 156.716 47.3644 156.396 47.4911C156.076 47.6111 155.716 47.6711 155.316 47.6711C154.856 47.6711 154.443 47.5844 154.076 47.4111C153.709 47.2311 153.423 46.9777 153.216 46.6511C153.009 46.3244 152.906 45.9477 152.906 45.5211C152.906 45.0677 153.019 44.6711 153.246 44.3311C153.473 43.9844 153.779 43.7177 154.166 43.5311C154.553 43.3444 154.986 43.2511 155.466 43.2511ZM155.566 46.6511C155.986 46.6511 156.326 46.5377 156.586 46.3111C156.853 46.0844 156.986 45.7977 156.986 45.4511C156.986 45.1111 156.856 44.8311 156.596 44.6111C156.343 44.3844 155.989 44.2711 155.536 44.2711C155.129 44.2711 154.799 44.3811 154.546 44.6011C154.293 44.8144 154.166 45.1011 154.166 45.4611C154.166 45.8277 154.293 46.1177 154.546 46.3311C154.799 46.5444 155.139 46.6511 155.566 46.6511ZM159.534 47.0511H162.284V48.0911H159.534V47.0511ZM166.241 50.4511C165.681 50.4511 165.181 50.3111 164.741 50.0311C164.301 49.7444 163.954 49.3311 163.701 48.7911C163.447 48.2444 163.321 47.5977 163.321 46.8511C163.321 46.1044 163.447 45.4611 163.701 44.9211C163.954 44.3744 164.301 43.9611 164.741 43.6811C165.181 43.3944 165.681 43.2511 166.241 43.2511C166.801 43.2511 167.301 43.3944 167.741 43.6811C168.187 43.9611 168.537 44.3744 168.791 44.9211C169.044 45.4611 169.171 46.1044 169.171 46.8511C169.171 47.5977 169.044 48.2444 168.791 48.7911C168.537 49.3311 168.187 49.7444 167.741 50.0311C167.301 50.3111 166.801 50.4511 166.241 50.4511ZM166.241 49.3211C166.741 49.3211 167.134 49.1144 167.421 48.7011C167.714 48.2877 167.861 47.6711 167.861 46.8511C167.861 46.0311 167.714 45.4144 167.421 45.0011C167.134 44.5877 166.741 44.3811 166.241 44.3811C165.747 44.3811 165.354 44.5877 165.061 45.0011C164.774 45.4144 164.631 46.0311 164.631 46.8511C164.631 47.6711 164.774 48.2877 165.061 48.7011C165.354 49.1144 165.747 49.3211 166.241 49.3211ZM172.969 50.4511C172.409 50.4511 171.909 50.3111 171.469 50.0311C171.029 49.7444 170.683 49.3311 170.429 48.7911C170.176 48.2444 170.049 47.5977 170.049 46.8511C170.049 46.1044 170.176 45.4611 170.429 44.9211C170.683 44.3744 171.029 43.9611 171.469 43.6811C171.909 43.3944 172.409 43.2511 172.969 43.2511C173.529 43.2511 174.029 43.3944 174.469 43.6811C174.916 43.9611 175.266 44.3744 175.519 44.9211C175.773 45.4611 175.899 46.1044 175.899 46.8511C175.899 47.5977 175.773 48.2444 175.519 48.7911C175.266 49.3311 174.916 49.7444 174.469 50.0311C174.029 50.3111 173.529 50.4511 172.969 50.4511ZM172.969 49.3211C173.469 49.3211 173.863 49.1144 174.149 48.7011C174.443 48.2877 174.589 47.6711 174.589 46.8511C174.589 46.0311 174.443 45.4144 174.149 45.0011C173.863 44.5877 173.469 44.3811 172.969 44.3811C172.476 44.3811 172.083 44.5877 171.789 45.0011C171.503 45.4144 171.359 46.0311 171.359 46.8511C171.359 47.6711 171.503 48.2877 171.789 48.7011C172.083 49.1144 172.476 49.3211 172.969 49.3211ZM179.138 43.2511C180.098 43.2511 180.841 43.5511 181.368 44.1511C181.901 44.7511 182.168 45.6111 182.168 46.7311C182.168 47.5177 182.025 48.1911 181.738 48.7511C181.451 49.3044 181.048 49.7277 180.528 50.0211C180.015 50.3077 179.418 50.4511 178.738 50.4511C178.378 50.4511 178.038 50.4144 177.718 50.3411C177.405 50.2611 177.131 50.1477 176.898 50.0011L177.378 49.0211C177.725 49.2477 178.168 49.3611 178.708 49.3611C179.381 49.3611 179.908 49.1544 180.288 48.7411C180.668 48.3277 180.858 47.7311 180.858 46.9511V46.9411C180.651 47.1811 180.388 47.3644 180.068 47.4911C179.748 47.6111 179.388 47.6711 178.988 47.6711C178.528 47.6711 178.115 47.5844 177.748 47.4111C177.381 47.2311 177.095 46.9777 176.888 46.6511C176.681 46.3244 176.578 45.9477 176.578 45.5211C176.578 45.0677 176.691 44.6711 176.918 44.3311C177.145 43.9844 177.451 43.7177 177.838 43.5311C178.225 43.3444 178.658 43.2511 179.138 43.2511ZM179.238 46.6511C179.658 46.6511 179.998 46.5377 180.258 46.3111C180.525 46.0844 180.658 45.7977 180.658 45.4511C180.658 45.1111 180.528 44.8311 180.268 44.6111C180.015 44.3844 179.661 44.2711 179.208 44.2711C178.801 44.2711 178.471 44.3811 178.218 44.6011C177.965 44.8144 177.838 45.1011 177.838 45.4611C177.838 45.8277 177.965 46.1177 178.218 46.3311C178.471 46.5444 178.811 46.6511 179.238 46.6511ZM188.279 43.3511V44.2211L185.559 50.3511H184.169L186.799 44.4511H184.049V45.6411H182.839V43.3511H188.279ZM191.6 43.3511V50.3511H190.3V44.4411H188.82V43.3511H191.6Z" fill="#2C007B"/>
<path opacity="0.7" d="M134.581 66.6825C135.228 66.7625 135.721 66.9825 136.061 67.3425C136.401 67.7025 136.571 68.1525 136.571 68.6925C136.571 69.0991 136.468 69.4691 136.261 69.8025C136.055 70.1358 135.741 70.4025 135.321 70.6025C134.908 70.7958 134.401 70.8925 133.801 70.8925C133.301 70.8925 132.818 70.8225 132.351 70.6825C131.891 70.5358 131.498 70.3358 131.171 70.0825L131.731 69.0725C131.985 69.2858 132.291 69.4558 132.651 69.5825C133.018 69.7025 133.395 69.7625 133.781 69.7625C134.241 69.7625 134.601 69.6691 134.861 69.4825C135.128 69.2891 135.261 69.0291 135.261 68.7025C135.261 68.3758 135.135 68.1225 134.881 67.9425C134.635 67.7558 134.255 67.6625 133.741 67.6625H133.101V66.7725L134.691 64.8825H131.511V63.7925H136.281V64.6625L134.581 66.6825ZM139.782 63.6925C140.742 63.6925 141.485 63.9925 142.012 64.5925C142.545 65.1925 142.812 66.0525 142.812 67.1725C142.812 67.9591 142.668 68.6325 142.382 69.1925C142.095 69.7458 141.692 70.1691 141.172 70.4625C140.658 70.7491 140.062 70.8925 139.382 70.8925C139.022 70.8925 138.682 70.8558 138.362 70.7825C138.048 70.7025 137.775 70.5891 137.542 70.4425L138.022 69.4625C138.368 69.6891 138.812 69.8025 139.352 69.8025C140.025 69.8025 140.552 69.5958 140.932 69.1825C141.312 68.7691 141.502 68.1725 141.502 67.3925V67.3825C141.295 67.6225 141.032 67.8058 140.712 67.9325C140.392 68.0525 140.032 68.1125 139.632 68.1125C139.172 68.1125 138.758 68.0258 138.392 67.8525C138.025 67.6725 137.738 67.4191 137.532 67.0925C137.325 66.7658 137.222 66.3891 137.222 65.9625C137.222 65.5091 137.335 65.1125 137.562 64.7725C137.788 64.4258 138.095 64.1591 138.482 63.9725C138.868 63.7858 139.302 63.6925 139.782 63.6925ZM139.882 67.0925C140.302 67.0925 140.642 66.9791 140.902 66.7525C141.168 66.5258 141.302 66.2391 141.302 65.8925C141.302 65.5525 141.172 65.2725 140.912 65.0525C140.658 64.8258 140.305 64.7125 139.852 64.7125C139.445 64.7125 139.115 64.8225 138.862 65.0425C138.608 65.2558 138.482 65.5425 138.482 65.9025C138.482 66.2691 138.608 66.5591 138.862 66.7725C139.115 66.9858 139.455 67.0925 139.882 67.0925ZM145.881 66.5025C146.868 66.5025 147.598 66.6958 148.071 67.0825C148.545 67.4625 148.781 67.9825 148.781 68.6425C148.781 69.0625 148.678 69.4425 148.471 69.7825C148.265 70.1225 147.955 70.3925 147.541 70.5925C147.128 70.7925 146.618 70.8925 146.011 70.8925C145.511 70.8925 145.028 70.8225 144.561 70.6825C144.095 70.5358 143.701 70.3358 143.381 70.0825L143.931 69.0725C144.191 69.2858 144.501 69.4558 144.861 69.5825C145.228 69.7025 145.605 69.7625 145.991 69.7625C146.451 69.7625 146.811 69.6691 147.071 69.4825C147.338 69.2891 147.471 69.0258 147.471 68.6925C147.471 68.3325 147.328 68.0625 147.041 67.8825C146.761 67.6958 146.278 67.6025 145.591 67.6025H143.901L144.261 63.7925H148.371V64.8825H145.361L145.211 66.5025H145.881ZM154.684 63.7925V64.6625L151.964 70.7925H150.574L153.204 64.8925H150.454V66.0825H149.244V63.7925H154.684ZM158.006 63.7925V70.7925H156.706V64.8825H155.226V63.7925H158.006ZM159.504 67.4925H162.254V68.5325H159.504V67.4925ZM166.211 70.8925C165.651 70.8925 165.151 70.7525 164.711 70.4725C164.271 70.1858 163.924 69.7725 163.671 69.2325C163.418 68.6858 163.291 68.0391 163.291 67.2925C163.291 66.5458 163.418 65.9025 163.671 65.3625C163.924 64.8158 164.271 64.4025 164.711 64.1225C165.151 63.8358 165.651 63.6925 166.211 63.6925C166.771 63.6925 167.271 63.8358 167.711 64.1225C168.158 64.4025 168.508 64.8158 168.761 65.3625C169.014 65.9025 169.141 66.5458 169.141 67.2925C169.141 68.0391 169.014 68.6858 168.761 69.2325C168.508 69.7725 168.158 70.1858 167.711 70.4725C167.271 70.7525 166.771 70.8925 166.211 70.8925ZM166.211 69.7625C166.711 69.7625 167.104 69.5558 167.391 69.1425C167.684 68.7291 167.831 68.1125 167.831 67.2925C167.831 66.4725 167.684 65.8558 167.391 65.4425C167.104 65.0291 166.711 64.8225 166.211 64.8225C165.718 64.8225 165.324 65.0291 165.031 65.4425C164.744 65.8558 164.601 66.4725 164.601 67.2925C164.601 68.1125 164.744 68.7291 165.031 69.1425C165.324 69.5558 165.718 69.7625 166.211 69.7625ZM172.391 63.7925V70.7925H171.091V64.8825H169.611V63.7925H172.391ZM176.139 63.6925C177.099 63.6925 177.842 63.9925 178.369 64.5925C178.902 65.1925 179.169 66.0525 179.169 67.1725C179.169 67.9591 179.026 68.6325 178.739 69.1925C178.452 69.7458 178.049 70.1691 177.529 70.4625C177.016 70.7491 176.419 70.8925 175.739 70.8925C175.379 70.8925 175.039 70.8558 174.719 70.7825C174.406 70.7025 174.132 70.5891 173.899 70.4425L174.379 69.4625C174.726 69.6891 175.169 69.8025 175.709 69.8025C176.382 69.8025 176.909 69.5958 177.289 69.1825C177.669 68.7691 177.859 68.1725 177.859 67.3925V67.3825C177.652 67.6225 177.389 67.8058 177.069 67.9325C176.749 68.0525 176.389 68.1125 175.989 68.1125C175.529 68.1125 175.116 68.0258 174.749 67.8525C174.382 67.6725 174.096 67.4191 173.889 67.0925C173.682 66.7658 173.579 66.3891 173.579 65.9625C173.579 65.5091 173.692 65.1125 173.919 64.7725C174.146 64.4258 174.452 64.1591 174.839 63.9725C175.226 63.7858 175.659 63.6925 176.139 63.6925ZM176.239 67.0925C176.659 67.0925 176.999 66.9791 177.259 66.7525C177.526 66.5258 177.659 66.2391 177.659 65.8925C177.659 65.5525 177.529 65.2725 177.269 65.0525C177.016 64.8258 176.662 64.7125 176.209 64.7125C175.802 64.7125 175.472 64.8225 175.219 65.0425C174.966 65.2558 174.839 65.5425 174.839 65.9025C174.839 66.2691 174.966 66.5591 175.219 66.7725C175.472 66.9858 175.812 67.0925 176.239 67.0925ZM182.931 66.6825C183.578 66.7625 184.071 66.9825 184.411 67.3425C184.751 67.7025 184.921 68.1525 184.921 68.6925C184.921 69.0991 184.818 69.4691 184.611 69.8025C184.404 70.1358 184.091 70.4025 183.671 70.6025C183.258 70.7958 182.751 70.8925 182.151 70.8925C181.651 70.8925 181.168 70.8225 180.701 70.6825C180.241 70.5358 179.848 70.3358 179.521 70.0825L180.081 69.0725C180.334 69.2858 180.641 69.4558 181.001 69.5825C181.368 69.7025 181.744 69.7625 182.131 69.7625C182.591 69.7625 182.951 69.6691 183.211 69.4825C183.478 69.2891 183.611 69.0291 183.611 68.7025C183.611 68.3758 183.484 68.1225 183.231 67.9425C182.984 67.7558 182.604 67.6625 182.091 67.6625H181.451V66.7725L183.041 64.8825H179.861V63.7925H184.631V64.6625L182.931 66.6825ZM190.311 67.1125C190.678 67.2791 190.958 67.5058 191.151 67.7925C191.351 68.0725 191.451 68.4025 191.451 68.7825C191.451 69.2091 191.331 69.5825 191.091 69.9025C190.858 70.2225 190.525 70.4691 190.091 70.6425C189.658 70.8091 189.155 70.8925 188.581 70.8925C188.008 70.8925 187.505 70.8091 187.071 70.6425C186.645 70.4691 186.315 70.2225 186.081 69.9025C185.848 69.5825 185.731 69.2091 185.731 68.7825C185.731 68.4025 185.828 68.0725 186.021 67.7925C186.215 67.5058 186.491 67.2791 186.851 67.1125C186.571 66.9591 186.355 66.7591 186.201 66.5125C186.055 66.2591 185.981 65.9691 185.981 65.6425C185.981 65.2491 186.088 64.9058 186.301 64.6125C186.521 64.3191 186.828 64.0925 187.221 63.9325C187.615 63.7725 188.068 63.6925 188.581 63.6925C189.101 63.6925 189.558 63.7725 189.951 63.9325C190.345 64.0925 190.651 64.3191 190.871 64.6125C191.091 64.9058 191.201 65.2491 191.201 65.6425C191.201 65.9691 191.125 66.2558 190.971 66.5025C190.818 66.7491 190.598 66.9525 190.311 67.1125ZM188.581 64.7125C188.175 64.7125 187.851 64.7991 187.611 64.9725C187.378 65.1458 187.261 65.3891 187.261 65.7025C187.261 66.0025 187.378 66.2425 187.611 66.4225C187.851 66.5958 188.175 66.6825 188.581 66.6825C188.995 66.6825 189.321 66.5958 189.561 66.4225C189.801 66.2425 189.921 66.0025 189.921 65.7025C189.921 65.3891 189.798 65.1458 189.551 64.9725C189.311 64.7991 188.988 64.7125 188.581 64.7125ZM188.581 69.8725C189.061 69.8725 189.441 69.7725 189.721 69.5725C190.001 69.3725 190.141 69.0958 190.141 68.7425C190.141 68.3958 190.001 68.1225 189.721 67.9225C189.441 67.7225 189.061 67.6225 188.581 67.6225C188.101 67.6225 187.725 67.7225 187.451 67.9225C187.178 68.1225 187.041 68.3958 187.041 68.7425C187.041 69.0958 187.178 69.3725 187.451 69.5725C187.725 69.7725 188.101 69.8725 188.581 69.8725Z" fill="#2C007B"/>
<path d="M138.1 89.6434H136.86V91.2334H135.6V89.6434H131.76V88.7434L135.21 84.2334H136.6L133.35 88.5434H135.64V87.1334H136.86V88.5434H138.1V89.6434ZM143.688 90.1334V91.2334H138.528V90.3634L141.308 87.7234C141.621 87.4234 141.831 87.1634 141.938 86.9434C142.051 86.7167 142.108 86.4934 142.108 86.2734C142.108 85.9467 141.998 85.6967 141.778 85.5234C141.558 85.3501 141.235 85.2634 140.808 85.2634C140.095 85.2634 139.548 85.5067 139.168 85.9934L138.258 85.2934C138.531 84.9267 138.898 84.6434 139.358 84.4434C139.825 84.2367 140.345 84.1334 140.918 84.1334C141.678 84.1334 142.285 84.3134 142.738 84.6734C143.191 85.0334 143.418 85.5234 143.418 86.1434C143.418 86.5234 143.338 86.8801 143.178 87.2134C143.018 87.5467 142.711 87.9267 142.258 88.3534L140.388 90.1334H143.688ZM146.798 84.1334C147.758 84.1334 148.502 84.4334 149.028 85.0334C149.562 85.6334 149.828 86.4934 149.828 87.6134C149.828 88.4001 149.685 89.0734 149.398 89.6334C149.112 90.1867 148.708 90.6101 148.188 90.9034C147.675 91.1901 147.078 91.3334 146.398 91.3334C146.038 91.3334 145.698 91.2967 145.378 91.2234C145.065 91.1434 144.792 91.0301 144.558 90.8834L145.038 89.9034C145.385 90.1301 145.828 90.2434 146.368 90.2434C147.042 90.2434 147.568 90.0367 147.948 89.6234C148.328 89.2101 148.518 88.6134 148.518 87.8334V87.8234C148.312 88.0634 148.048 88.2467 147.728 88.3734C147.408 88.4934 147.048 88.5534 146.648 88.5534C146.188 88.5534 145.775 88.4667 145.408 88.2934C145.042 88.1134 144.755 87.8601 144.548 87.5334C144.342 87.2067 144.238 86.8301 144.238 86.4034C144.238 85.9501 144.352 85.5534 144.578 85.2134C144.805 84.8667 145.112 84.6001 145.498 84.4134C145.885 84.2267 146.318 84.1334 146.798 84.1334ZM146.898 87.5334C147.318 87.5334 147.658 87.4201 147.918 87.1934C148.185 86.9667 148.318 86.6801 148.318 86.3334C148.318 85.9934 148.188 85.7134 147.928 85.4934C147.675 85.2667 147.322 85.1534 146.868 85.1534C146.462 85.1534 146.132 85.2634 145.878 85.4834C145.625 85.6967 145.498 85.9834 145.498 86.3434C145.498 86.7101 145.625 87.0001 145.878 87.2134C146.132 87.4267 146.472 87.5334 146.898 87.5334ZM153.59 87.1234C154.237 87.2034 154.73 87.4234 155.07 87.7834C155.41 88.1434 155.58 88.5934 155.58 89.1334C155.58 89.5401 155.477 89.9101 155.27 90.2434C155.064 90.5767 154.75 90.8434 154.33 91.0434C153.917 91.2367 153.41 91.3334 152.81 91.3334C152.31 91.3334 151.827 91.2634 151.36 91.1234C150.9 90.9767 150.507 90.7767 150.18 90.5234L150.74 89.5134C150.994 89.7267 151.3 89.8967 151.66 90.0234C152.027 90.1434 152.404 90.2034 152.79 90.2034C153.25 90.2034 153.61 90.1101 153.87 89.9234C154.137 89.7301 154.27 89.4701 154.27 89.1434C154.27 88.8167 154.144 88.5634 153.89 88.3834C153.644 88.1967 153.264 88.1034 152.75 88.1034H152.11V87.2134L153.7 85.3234H150.52V84.2334H155.29V85.1034L153.59 87.1234ZM161.452 90.1334V91.2334H156.292V90.3634L159.072 87.7234C159.385 87.4234 159.595 87.1634 159.702 86.9434C159.815 86.7167 159.872 86.4934 159.872 86.2734C159.872 85.9467 159.762 85.6967 159.542 85.5234C159.322 85.3501 158.998 85.2634 158.572 85.2634C157.858 85.2634 157.312 85.5067 156.932 85.9934L156.022 85.2934C156.295 84.9267 156.662 84.6434 157.122 84.4434C157.588 84.2367 158.108 84.1334 158.682 84.1334C159.442 84.1334 160.048 84.3134 160.502 84.6734C160.955 85.0334 161.182 85.5234 161.182 86.1434C161.182 86.5234 161.102 86.8801 160.942 87.2134C160.782 87.5467 160.475 87.9267 160.022 88.3534L158.152 90.1334H161.452ZM162.263 87.9334H165.013V88.9734H162.263V87.9334ZM168.226 84.2334V91.2334H166.926V85.3234H165.446V84.2334H168.226ZM174.684 90.1334V91.2334H169.524V90.3634L172.304 87.7234C172.617 87.4234 172.827 87.1634 172.934 86.9434C173.047 86.7167 173.104 86.4934 173.104 86.2734C173.104 85.9467 172.994 85.6967 172.774 85.5234C172.554 85.3501 172.231 85.2634 171.804 85.2634C171.091 85.2634 170.544 85.5067 170.164 85.9934L169.254 85.2934C169.527 84.9267 169.894 84.6434 170.354 84.4434C170.821 84.2367 171.341 84.1334 171.914 84.1334C172.674 84.1334 173.281 84.3134 173.734 84.6734C174.187 85.0334 174.414 85.5234 174.414 86.1434C174.414 86.5234 174.334 86.8801 174.174 87.2134C174.014 87.5467 173.707 87.9267 173.254 88.3534L171.384 90.1334H174.684ZM179.974 87.5534C180.341 87.7201 180.621 87.9467 180.814 88.2334C181.014 88.5134 181.114 88.8434 181.114 89.2234C181.114 89.6501 180.994 90.0234 180.754 90.3434C180.521 90.6634 180.188 90.9101 179.754 91.0834C179.321 91.2501 178.818 91.3334 178.244 91.3334C177.671 91.3334 177.168 91.2501 176.734 91.0834C176.308 90.9101 175.978 90.6634 175.744 90.3434C175.511 90.0234 175.394 89.6501 175.394 89.2234C175.394 88.8434 175.491 88.5134 175.684 88.2334C175.878 87.9467 176.154 87.7201 176.514 87.5534C176.234 87.4001 176.018 87.2001 175.864 86.9534C175.718 86.7001 175.644 86.4101 175.644 86.0834C175.644 85.6901 175.751 85.3467 175.964 85.0534C176.184 84.7601 176.491 84.5334 176.884 84.3734C177.278 84.2134 177.731 84.1334 178.244 84.1334C178.764 84.1334 179.221 84.2134 179.614 84.3734C180.008 84.5334 180.314 84.7601 180.534 85.0534C180.754 85.3467 180.864 85.6901 180.864 86.0834C180.864 86.4101 180.788 86.6967 180.634 86.9434C180.481 87.1901 180.261 87.3934 179.974 87.5534ZM178.244 85.1534C177.838 85.1534 177.514 85.2401 177.274 85.4134C177.041 85.5867 176.924 85.8301 176.924 86.1434C176.924 86.4434 177.041 86.6834 177.274 86.8634C177.514 87.0367 177.838 87.1234 178.244 87.1234C178.658 87.1234 178.984 87.0367 179.224 86.8634C179.464 86.6834 179.584 86.4434 179.584 86.1434C179.584 85.8301 179.461 85.5867 179.214 85.4134C178.974 85.2401 178.651 85.1534 178.244 85.1534ZM178.244 90.3134C178.724 90.3134 179.104 90.2134 179.384 90.0134C179.664 89.8134 179.804 89.5367 179.804 89.1834C179.804 88.8367 179.664 88.5634 179.384 88.3634C179.104 88.1634 178.724 88.0634 178.244 88.0634C177.764 88.0634 177.388 88.1634 177.114 88.3634C176.841 88.5634 176.704 88.8367 176.704 89.1834C176.704 89.5367 176.841 89.8134 177.114 90.0134C177.388 90.2134 177.764 90.3134 178.244 90.3134ZM184.378 84.2334V91.2334H183.078V85.3234H181.598V84.2334H184.378ZM188.126 84.1334C189.086 84.1334 189.83 84.4334 190.356 85.0334C190.89 85.6334 191.156 86.4934 191.156 87.6134C191.156 88.4001 191.013 89.0734 190.726 89.6334C190.44 90.1867 190.036 90.6101 189.516 90.9034C189.003 91.1901 188.406 91.3334 187.726 91.3334C187.366 91.3334 187.026 91.2967 186.706 91.2234C186.393 91.1434 186.12 91.0301 185.886 90.8834L186.366 89.9034C186.713 90.1301 187.156 90.2434 187.696 90.2434C188.37 90.2434 188.896 90.0367 189.276 89.6234C189.656 89.2101 189.846 88.6134 189.846 87.8334V87.8234C189.64 88.0634 189.376 88.2467 189.056 88.3734C188.736 88.4934 188.376 88.5534 187.976 88.5534C187.516 88.5534 187.103 88.4667 186.736 88.2934C186.37 88.1134 186.083 87.8601 185.876 87.5334C185.67 87.2067 185.566 86.8301 185.566 86.4034C185.566 85.9501 185.68 85.5534 185.906 85.2134C186.133 84.8667 186.44 84.6001 186.826 84.4134C187.213 84.2267 187.646 84.1334 188.126 84.1334ZM188.226 87.5334C188.646 87.5334 188.986 87.4201 189.246 87.1934C189.513 86.9667 189.646 86.6801 189.646 86.3334C189.646 85.9934 189.516 85.7134 189.256 85.4934C189.003 85.2667 188.65 85.1534 188.196 85.1534C187.79 85.1534 187.46 85.2634 187.206 85.4834C186.953 85.6967 186.826 85.9834 186.826 86.3434C186.826 86.7101 186.953 87.0001 187.206 87.2134C187.46 87.4267 187.8 87.5334 188.226 87.5334Z" fill="#2C007B"/>
<path d="M137.162 107.995C137.529 108.161 137.809 108.388 138.002 108.675C138.202 108.955 138.302 109.285 138.302 109.665C138.302 110.091 138.182 110.465 137.942 110.785C137.709 111.105 137.375 111.351 136.942 111.525C136.509 111.691 136.005 111.775 135.432 111.775C134.859 111.775 134.355 111.691 133.922 111.525C133.495 111.351 133.165 111.105 132.932 110.785C132.699 110.465 132.582 110.091 132.582 109.665C132.582 109.285 132.679 108.955 132.872 108.675C133.065 108.388 133.342 108.161 133.702 107.995C133.422 107.841 133.205 107.641 133.052 107.395C132.905 107.141 132.832 106.851 132.832 106.525C132.832 106.131 132.939 105.788 133.152 105.495C133.372 105.201 133.679 104.975 134.072 104.815C134.465 104.655 134.919 104.575 135.432 104.575C135.952 104.575 136.409 104.655 136.802 104.815C137.195 104.975 137.502 105.201 137.722 105.495C137.942 105.788 138.052 106.131 138.052 106.525C138.052 106.851 137.975 107.138 137.822 107.385C137.669 107.631 137.449 107.835 137.162 107.995ZM135.432 105.595C135.025 105.595 134.702 105.681 134.462 105.855C134.229 106.028 134.112 106.271 134.112 106.585C134.112 106.885 134.229 107.125 134.462 107.305C134.702 107.478 135.025 107.565 135.432 107.565C135.845 107.565 136.172 107.478 136.412 107.305C136.652 107.125 136.772 106.885 136.772 106.585C136.772 106.271 136.649 106.028 136.402 105.855C136.162 105.681 135.839 105.595 135.432 105.595ZM135.432 110.755C135.912 110.755 136.292 110.655 136.572 110.455C136.852 110.255 136.992 109.978 136.992 109.625C136.992 109.278 136.852 109.005 136.572 108.805C136.292 108.605 135.912 108.505 135.432 108.505C134.952 108.505 134.575 108.605 134.302 108.805C134.029 109.005 133.892 109.278 133.892 109.625C133.892 109.978 134.029 110.255 134.302 110.455C134.575 110.655 134.952 110.755 135.432 110.755ZM144.425 104.675V105.545L141.705 111.675H140.315L142.945 105.775H140.195V106.965H138.985V104.675H144.425ZM147.747 104.675V111.675H146.447V105.765H144.967V104.675H147.747ZM151.496 104.575C152.456 104.575 153.199 104.875 153.726 105.475C154.259 106.075 154.526 106.935 154.526 108.055C154.526 108.841 154.382 109.515 154.096 110.075C153.809 110.628 153.406 111.051 152.886 111.345C152.372 111.631 151.776 111.775 151.096 111.775C150.736 111.775 150.396 111.738 150.076 111.665C149.762 111.585 149.489 111.471 149.256 111.325L149.736 110.345C150.082 110.571 150.526 110.685 151.066 110.685C151.739 110.685 152.266 110.478 152.646 110.065C153.026 109.651 153.216 109.055 153.216 108.275V108.265C153.009 108.505 152.746 108.688 152.426 108.815C152.106 108.935 151.746 108.995 151.346 108.995C150.886 108.995 150.472 108.908 150.106 108.735C149.739 108.555 149.452 108.301 149.246 107.975C149.039 107.648 148.936 107.271 148.936 106.845C148.936 106.391 149.049 105.995 149.276 105.655C149.502 105.308 149.809 105.041 150.196 104.855C150.582 104.668 151.016 104.575 151.496 104.575ZM151.596 107.975C152.016 107.975 152.356 107.861 152.616 107.635C152.882 107.408 153.016 107.121 153.016 106.775C153.016 106.435 152.886 106.155 152.626 105.935C152.372 105.708 152.019 105.595 151.566 105.595C151.159 105.595 150.829 105.705 150.576 105.925C150.322 106.138 150.196 106.425 150.196 106.785C150.196 107.151 150.322 107.441 150.576 107.655C150.829 107.868 151.169 107.975 151.596 107.975ZM160.426 110.575V111.675H155.266V110.805L158.046 108.165C158.36 107.865 158.57 107.605 158.676 107.385C158.79 107.158 158.846 106.935 158.846 106.715C158.846 106.388 158.736 106.138 158.516 105.965C158.296 105.791 157.973 105.705 157.546 105.705C156.833 105.705 156.286 105.948 155.906 106.435L154.996 105.735C155.27 105.368 155.636 105.085 156.096 104.885C156.563 104.678 157.083 104.575 157.656 104.575C158.416 104.575 159.023 104.755 159.476 105.115C159.93 105.475 160.156 105.965 160.156 106.585C160.156 106.965 160.076 107.321 159.916 107.655C159.756 107.988 159.45 108.368 158.996 108.795L157.126 110.575H160.426ZM161.238 108.375H163.988V109.415H161.238V108.375ZM167.76 107.565C168.407 107.645 168.9 107.865 169.24 108.225C169.58 108.585 169.75 109.035 169.75 109.575C169.75 109.981 169.647 110.351 169.44 110.685C169.233 111.018 168.92 111.285 168.5 111.485C168.087 111.678 167.58 111.775 166.98 111.775C166.48 111.775 165.997 111.705 165.53 111.565C165.07 111.418 164.677 111.218 164.35 110.965L164.91 109.955C165.163 110.168 165.47 110.338 165.83 110.465C166.197 110.585 166.573 110.645 166.96 110.645C167.42 110.645 167.78 110.551 168.04 110.365C168.307 110.171 168.44 109.911 168.44 109.585C168.44 109.258 168.313 109.005 168.06 108.825C167.813 108.638 167.433 108.545 166.92 108.545H166.28V107.655L167.87 105.765H164.69V104.675H169.46V105.545L167.76 107.565ZM173.02 104.675V111.675H171.72V105.765H170.24V104.675H173.02ZM180.649 110.085H179.409V111.675H178.149V110.085H174.309V109.185L177.759 104.675H179.149L175.899 108.985H178.189V107.575H179.409V108.985H180.649V110.085ZM183.362 104.675V111.675H182.062V105.765H180.582V104.675H183.362ZM189.291 107.995C189.657 108.161 189.937 108.388 190.131 108.675C190.331 108.955 190.431 109.285 190.431 109.665C190.431 110.091 190.311 110.465 190.071 110.785C189.837 111.105 189.504 111.351 189.071 111.525C188.637 111.691 188.134 111.775 187.561 111.775C186.987 111.775 186.484 111.691 186.051 111.525C185.624 111.351 185.294 111.105 185.061 110.785C184.827 110.465 184.711 110.091 184.711 109.665C184.711 109.285 184.807 108.955 185.001 108.675C185.194 108.388 185.471 108.161 185.831 107.995C185.551 107.841 185.334 107.641 185.181 107.395C185.034 107.141 184.961 106.851 184.961 106.525C184.961 106.131 185.067 105.788 185.281 105.495C185.501 105.201 185.807 104.975 186.201 104.815C186.594 104.655 187.047 104.575 187.561 104.575C188.081 104.575 188.537 104.655 188.931 104.815C189.324 104.975 189.631 105.201 189.851 105.495C190.071 105.788 190.181 106.131 190.181 106.525C190.181 106.851 190.104 107.138 189.951 107.385C189.797 107.631 189.577 107.835 189.291 107.995ZM187.561 105.595C187.154 105.595 186.831 105.681 186.591 105.855C186.357 106.028 186.241 106.271 186.241 106.585C186.241 106.885 186.357 107.125 186.591 107.305C186.831 107.478 187.154 107.565 187.561 107.565C187.974 107.565 188.301 107.478 188.541 107.305C188.781 107.125 188.901 106.885 188.901 106.585C188.901 106.271 188.777 106.028 188.531 105.855C188.291 105.681 187.967 105.595 187.561 105.595ZM187.561 110.755C188.041 110.755 188.421 110.655 188.701 110.455C188.981 110.255 189.121 109.978 189.121 109.625C189.121 109.278 188.981 109.005 188.701 108.805C188.421 108.605 188.041 108.505 187.561 108.505C187.081 108.505 186.704 108.605 186.431 108.805C186.157 109.005 186.021 109.278 186.021 109.625C186.021 109.978 186.157 110.255 186.431 110.455C186.704 110.655 187.081 110.755 187.561 110.755Z" fill="#2C007B"/>
<path d="M102.401 142.807H101.161V144.397H99.9011V142.807H96.0611V141.907L99.5111 137.397H100.901L97.6511 141.707H99.9411V140.297H101.161V141.707H102.401V142.807ZM107.586 140.717C107.953 140.884 108.233 141.111 108.426 141.397C108.626 141.677 108.726 142.007 108.726 142.387C108.726 142.814 108.606 143.187 108.366 143.507C108.133 143.827 107.799 144.074 107.366 144.247C106.933 144.414 106.429 144.497 105.856 144.497C105.283 144.497 104.779 144.414 104.346 144.247C103.919 144.074 103.589 143.827 103.356 143.507C103.123 143.187 103.006 142.814 103.006 142.387C103.006 142.007 103.103 141.677 103.296 141.397C103.489 141.111 103.766 140.884 104.126 140.717C103.846 140.564 103.629 140.364 103.476 140.117C103.329 139.864 103.256 139.574 103.256 139.247C103.256 138.854 103.363 138.511 103.576 138.217C103.796 137.924 104.103 137.697 104.496 137.537C104.889 137.377 105.343 137.297 105.856 137.297C106.376 137.297 106.833 137.377 107.226 137.537C107.619 137.697 107.926 137.924 108.146 138.217C108.366 138.511 108.476 138.854 108.476 139.247C108.476 139.574 108.399 139.861 108.246 140.107C108.093 140.354 107.873 140.557 107.586 140.717ZM105.856 138.317C105.449 138.317 105.126 138.404 104.886 138.577C104.653 138.751 104.536 138.994 104.536 139.307C104.536 139.607 104.653 139.847 104.886 140.027C105.126 140.201 105.449 140.287 105.856 140.287C106.269 140.287 106.596 140.201 106.836 140.027C107.076 139.847 107.196 139.607 107.196 139.307C107.196 138.994 107.073 138.751 106.826 138.577C106.586 138.404 106.263 138.317 105.856 138.317ZM105.856 143.477C106.336 143.477 106.716 143.377 106.996 143.177C107.276 142.977 107.416 142.701 107.416 142.347C107.416 142.001 107.276 141.727 106.996 141.527C106.716 141.327 106.336 141.227 105.856 141.227C105.376 141.227 104.999 141.327 104.726 141.527C104.453 141.727 104.316 142.001 104.316 142.347C104.316 142.701 104.453 142.977 104.726 143.177C104.999 143.377 105.376 143.477 105.856 143.477ZM111.989 137.397V144.397H110.689V138.487H109.209V137.397H111.989ZM118.658 137.397V138.267L115.938 144.397H114.548L117.178 138.497H114.428V139.687H113.218V137.397H118.658ZM125.048 142.807H123.808V144.397H122.548V142.807H118.708V141.907L122.158 137.397H123.548L120.298 141.707H122.588V140.297H123.808V141.707H125.048V142.807ZM125.802 141.097H128.552V142.137H125.802V141.097ZM132.325 140.287C132.971 140.367 133.465 140.587 133.805 140.947C134.145 141.307 134.315 141.757 134.315 142.297C134.315 142.704 134.211 143.074 134.005 143.407C133.798 143.741 133.485 144.007 133.065 144.207C132.651 144.401 132.145 144.497 131.545 144.497C131.045 144.497 130.561 144.427 130.095 144.287C129.635 144.141 129.241 143.941 128.915 143.687L129.475 142.677C129.728 142.891 130.035 143.061 130.395 143.187C130.761 143.307 131.138 143.367 131.525 143.367C131.985 143.367 132.345 143.274 132.605 143.087C132.871 142.894 133.005 142.634 133.005 142.307C133.005 141.981 132.878 141.727 132.625 141.547C132.378 141.361 131.998 141.267 131.485 141.267H130.845V140.377L132.435 138.487H129.255V137.397H134.025V138.267L132.325 140.287ZM140.186 143.297V144.397H135.026V143.527L137.806 140.887C138.12 140.587 138.33 140.327 138.436 140.107C138.55 139.881 138.606 139.657 138.606 139.437C138.606 139.111 138.496 138.861 138.276 138.687C138.056 138.514 137.733 138.427 137.306 138.427C136.593 138.427 136.046 138.671 135.666 139.157L134.756 138.457C135.03 138.091 135.396 137.807 135.856 137.607C136.323 137.401 136.843 137.297 137.416 137.297C138.176 137.297 138.783 137.477 139.236 137.837C139.69 138.197 139.916 138.687 139.916 139.307C139.916 139.687 139.836 140.044 139.676 140.377C139.516 140.711 139.21 141.091 138.756 141.517L136.886 143.297H140.186ZM143.356 137.397V144.397H142.056V138.487H140.576V137.397H143.356ZM147.105 137.297C148.065 137.297 148.808 137.597 149.335 138.197C149.868 138.797 150.135 139.657 150.135 140.777C150.135 141.564 149.992 142.237 149.705 142.797C149.418 143.351 149.015 143.774 148.495 144.067C147.982 144.354 147.385 144.497 146.705 144.497C146.345 144.497 146.005 144.461 145.685 144.387C145.372 144.307 145.098 144.194 144.865 144.047L145.345 143.067C145.692 143.294 146.135 143.407 146.675 143.407C147.348 143.407 147.875 143.201 148.255 142.787C148.635 142.374 148.825 141.777 148.825 140.997V140.987C148.618 141.227 148.355 141.411 148.035 141.537C147.715 141.657 147.355 141.717 146.955 141.717C146.495 141.717 146.082 141.631 145.715 141.457C145.348 141.277 145.062 141.024 144.855 140.697C144.648 140.371 144.545 139.994 144.545 139.567C144.545 139.114 144.658 138.717 144.885 138.377C145.112 138.031 145.418 137.764 145.805 137.577C146.192 137.391 146.625 137.297 147.105 137.297ZM147.205 140.697C147.625 140.697 147.965 140.584 148.225 140.357C148.492 140.131 148.625 139.844 148.625 139.497C148.625 139.157 148.495 138.877 148.235 138.657C147.982 138.431 147.628 138.317 147.175 138.317C146.768 138.317 146.438 138.427 146.185 138.647C145.932 138.861 145.805 139.147 145.805 139.507C145.805 139.874 145.932 140.164 146.185 140.377C146.438 140.591 146.778 140.697 147.205 140.697ZM153.375 137.297C154.335 137.297 155.078 137.597 155.605 138.197C156.138 138.797 156.405 139.657 156.405 140.777C156.405 141.564 156.261 142.237 155.975 142.797C155.688 143.351 155.285 143.774 154.765 144.067C154.251 144.354 153.655 144.497 152.975 144.497C152.615 144.497 152.275 144.461 151.955 144.387C151.641 144.307 151.368 144.194 151.135 144.047L151.615 143.067C151.961 143.294 152.405 143.407 152.945 143.407C153.618 143.407 154.145 143.201 154.525 142.787C154.905 142.374 155.095 141.777 155.095 140.997V140.987C154.888 141.227 154.625 141.411 154.305 141.537C153.985 141.657 153.625 141.717 153.225 141.717C152.765 141.717 152.351 141.631 151.985 141.457C151.618 141.277 151.331 141.024 151.125 140.697C150.918 140.371 150.815 139.994 150.815 139.567C150.815 139.114 150.928 138.717 151.155 138.377C151.381 138.031 151.688 137.764 152.075 137.577C152.461 137.391 152.895 137.297 153.375 137.297ZM153.475 140.697C153.895 140.697 154.235 140.584 154.495 140.357C154.761 140.131 154.895 139.844 154.895 139.497C154.895 139.157 154.765 138.877 154.505 138.657C154.251 138.431 153.898 138.317 153.445 138.317C153.038 138.317 152.708 138.427 152.455 138.647C152.201 138.861 152.075 139.147 152.075 139.507C152.075 139.874 152.201 140.164 152.455 140.377C152.708 140.591 153.048 140.697 153.475 140.697Z" fill="#2C007B"/>
<path d="M99.9832 161.159C100.35 161.326 100.63 161.552 100.823 161.839C101.023 162.119 101.123 162.449 101.123 162.829C101.123 163.256 101.003 163.629 100.763 163.949C100.53 164.269 100.197 164.516 99.7632 164.689C99.3299 164.856 98.8265 164.939 98.2532 164.939C97.6799 164.939 97.1765 164.856 96.7432 164.689C96.3165 164.516 95.9865 164.269 95.7532 163.949C95.5199 163.629 95.4032 163.256 95.4032 162.829C95.4032 162.449 95.4999 162.119 95.6932 161.839C95.8865 161.552 96.1632 161.326 96.5232 161.159C96.2432 161.006 96.0265 160.806 95.8732 160.559C95.7265 160.306 95.6532 160.016 95.6532 159.689C95.6532 159.296 95.7599 158.952 95.9732 158.659C96.1932 158.366 96.4999 158.139 96.8932 157.979C97.2865 157.819 97.7399 157.739 98.2532 157.739C98.7732 157.739 99.2299 157.819 99.6232 157.979C100.017 158.139 100.323 158.366 100.543 158.659C100.763 158.952 100.873 159.296 100.873 159.689C100.873 160.016 100.797 160.302 100.643 160.549C100.49 160.796 100.27 160.999 99.9832 161.159ZM98.2532 158.759C97.8465 158.759 97.5232 158.846 97.2832 159.019C97.0499 159.192 96.9332 159.436 96.9332 159.749C96.9332 160.049 97.0499 160.289 97.2832 160.469C97.5232 160.642 97.8465 160.729 98.2532 160.729C98.6665 160.729 98.9932 160.642 99.2332 160.469C99.4732 160.289 99.5932 160.049 99.5932 159.749C99.5932 159.436 99.4699 159.192 99.2232 159.019C98.9832 158.846 98.6599 158.759 98.2532 158.759ZM98.2532 163.919C98.7332 163.919 99.1132 163.819 99.3932 163.619C99.6732 163.419 99.8132 163.142 99.8132 162.789C99.8132 162.442 99.6732 162.169 99.3932 161.969C99.1132 161.769 98.7332 161.669 98.2532 161.669C97.7732 161.669 97.3965 161.769 97.1232 161.969C96.8499 162.169 96.7132 162.442 96.7132 162.789C96.7132 163.142 96.8499 163.419 97.1232 163.619C97.3965 163.819 97.7732 163.919 98.2532 163.919ZM104.327 157.739C105.287 157.739 106.03 158.039 106.557 158.639C107.09 159.239 107.357 160.099 107.357 161.219C107.357 162.006 107.213 162.679 106.927 163.239C106.64 163.792 106.237 164.216 105.717 164.509C105.203 164.796 104.607 164.939 103.927 164.939C103.567 164.939 103.227 164.902 102.907 164.829C102.593 164.749 102.32 164.636 102.087 164.489L102.567 163.509C102.913 163.736 103.357 163.849 103.897 163.849C104.57 163.849 105.097 163.642 105.477 163.229C105.857 162.816 106.047 162.219 106.047 161.439V161.429C105.84 161.669 105.577 161.852 105.257 161.979C104.937 162.099 104.577 162.159 104.177 162.159C103.717 162.159 103.303 162.072 102.937 161.899C102.57 161.719 102.283 161.466 102.077 161.139C101.87 160.812 101.767 160.436 101.767 160.009C101.767 159.556 101.88 159.159 102.107 158.819C102.333 158.472 102.64 158.206 103.027 158.019C103.413 157.832 103.847 157.739 104.327 157.739ZM104.427 161.139C104.847 161.139 105.187 161.026 105.447 160.799C105.713 160.572 105.847 160.286 105.847 159.939C105.847 159.599 105.717 159.319 105.457 159.099C105.203 158.872 104.85 158.759 104.397 158.759C103.99 158.759 103.66 158.869 103.407 159.089C103.153 159.302 103.027 159.589 103.027 159.949C103.027 160.316 103.153 160.606 103.407 160.819C103.66 161.032 104 161.139 104.427 161.139ZM110.426 160.549C111.413 160.549 112.143 160.742 112.616 161.129C113.09 161.509 113.326 162.029 113.326 162.689C113.326 163.109 113.223 163.489 113.016 163.829C112.81 164.169 112.5 164.439 112.086 164.639C111.673 164.839 111.163 164.939 110.556 164.939C110.056 164.939 109.573 164.869 109.106 164.729C108.64 164.582 108.246 164.382 107.926 164.129L108.476 163.119C108.736 163.332 109.046 163.502 109.406 163.629C109.773 163.749 110.15 163.809 110.536 163.809C110.996 163.809 111.356 163.716 111.616 163.529C111.883 163.336 112.016 163.072 112.016 162.739C112.016 162.379 111.873 162.109 111.586 161.929C111.306 161.742 110.823 161.649 110.136 161.649H108.446L108.806 157.839H112.916V158.929H109.906L109.756 160.549H110.426ZM116.217 160.549C117.204 160.549 117.934 160.742 118.407 161.129C118.881 161.509 119.117 162.029 119.117 162.689C119.117 163.109 119.014 163.489 118.807 163.829C118.601 164.169 118.291 164.439 117.877 164.639C117.464 164.839 116.954 164.939 116.347 164.939C115.847 164.939 115.364 164.869 114.897 164.729C114.431 164.582 114.037 164.382 113.717 164.129L114.267 163.119C114.527 163.332 114.837 163.502 115.197 163.629C115.564 163.749 115.941 163.809 116.327 163.809C116.787 163.809 117.147 163.716 117.407 163.529C117.674 163.336 117.807 163.072 117.807 162.739C117.807 162.379 117.664 162.109 117.377 161.929C117.097 161.742 116.614 161.649 115.927 161.649H114.237L114.597 157.839H118.707V158.929H115.697L115.547 160.549H116.217ZM125.02 157.839V158.709L122.3 164.839H120.91L123.54 158.939H120.79V160.129H119.58V157.839H125.02ZM125.436 161.539H128.186V162.579H125.436V161.539ZM131.398 157.839V164.839H130.098V158.929H128.618V157.839H131.398ZM137.857 163.739V164.839H132.697V163.969L135.477 161.329C135.79 161.029 136 160.769 136.107 160.549C136.22 160.322 136.277 160.099 136.277 159.879C136.277 159.552 136.167 159.302 135.947 159.129C135.727 158.956 135.404 158.869 134.977 158.869C134.264 158.869 133.717 159.112 133.337 159.599L132.427 158.899C132.7 158.532 133.067 158.249 133.527 158.049C133.994 157.842 134.514 157.739 135.087 157.739C135.847 157.739 136.454 157.919 136.907 158.279C137.36 158.639 137.587 159.129 137.587 159.749C137.587 160.129 137.507 160.486 137.347 160.819C137.187 161.152 136.88 161.532 136.427 161.959L134.557 163.739H137.857ZM141.587 160.729C142.234 160.809 142.727 161.029 143.067 161.389C143.407 161.749 143.577 162.199 143.577 162.739C143.577 163.146 143.474 163.516 143.267 163.849C143.061 164.182 142.747 164.449 142.327 164.649C141.914 164.842 141.407 164.939 140.807 164.939C140.307 164.939 139.824 164.869 139.357 164.729C138.897 164.582 138.504 164.382 138.177 164.129L138.737 163.119C138.991 163.332 139.297 163.502 139.657 163.629C140.024 163.749 140.401 163.809 140.787 163.809C141.247 163.809 141.607 163.716 141.867 163.529C142.134 163.336 142.267 163.076 142.267 162.749C142.267 162.422 142.141 162.169 141.887 161.989C141.641 161.802 141.261 161.709 140.747 161.709H140.107V160.819L141.697 158.929H138.517V157.839H143.287V158.709L141.587 160.729ZM150.668 163.249H149.428V164.839H148.168V163.249H144.328V162.349L147.778 157.839H149.168L145.918 162.149H148.208V160.739H149.428V162.149H150.668V163.249ZM157.455 163.249H156.215V164.839H154.955V163.249H151.115V162.349L154.565 157.839H155.955L152.705 162.149H154.995V160.739H156.215V162.149H157.455V163.249Z" fill="#2C007B"/>
<path opacity="0.7" d="M98.2851 185.38C97.7251 185.38 97.2251 185.24 96.7851 184.96C96.3451 184.673 95.9984 184.26 95.7451 183.72C95.4918 183.173 95.3651 182.526 95.3651 181.78C95.3651 181.033 95.4918 180.39 95.7451 179.85C95.9984 179.303 96.3451 178.89 96.7851 178.61C97.2251 178.323 97.7251 178.18 98.2851 178.18C98.8451 178.18 99.3451 178.323 99.7851 178.61C100.232 178.89 100.582 179.303 100.835 179.85C101.088 180.39 101.215 181.033 101.215 181.78C101.215 182.526 101.088 183.173 100.835 183.72C100.582 184.26 100.232 184.673 99.7851 184.96C99.3451 185.24 98.8451 185.38 98.2851 185.38ZM98.2851 184.25C98.7851 184.25 99.1784 184.043 99.4651 183.63C99.7584 183.216 99.9051 182.6 99.9051 181.78C99.9051 180.96 99.7584 180.343 99.4651 179.93C99.1784 179.516 98.7851 179.31 98.2851 179.31C97.7918 179.31 97.3984 179.516 97.1051 179.93C96.8184 180.343 96.6751 180.96 96.6751 181.78C96.6751 182.6 96.8184 183.216 97.1051 183.63C97.3984 184.043 97.7918 184.25 98.2851 184.25ZM106.634 181.6C107 181.766 107.28 181.993 107.474 182.28C107.674 182.56 107.774 182.89 107.774 183.27C107.774 183.696 107.654 184.07 107.414 184.39C107.18 184.71 106.847 184.956 106.414 185.13C105.98 185.296 105.477 185.38 104.904 185.38C104.33 185.38 103.827 185.296 103.394 185.13C102.967 184.956 102.637 184.71 102.404 184.39C102.17 184.07 102.054 183.696 102.054 183.27C102.054 182.89 102.15 182.56 102.344 182.28C102.537 181.993 102.814 181.766 103.174 181.6C102.894 181.446 102.677 181.246 102.524 181C102.377 180.746 102.304 180.456 102.304 180.13C102.304 179.736 102.41 179.393 102.624 179.1C102.844 178.806 103.15 178.58 103.544 178.42C103.937 178.26 104.39 178.18 104.904 178.18C105.424 178.18 105.88 178.26 106.274 178.42C106.667 178.58 106.974 178.806 107.194 179.1C107.414 179.393 107.524 179.736 107.524 180.13C107.524 180.456 107.447 180.743 107.294 180.99C107.14 181.236 106.92 181.44 106.634 181.6ZM104.904 179.2C104.497 179.2 104.174 179.286 103.934 179.46C103.7 179.633 103.584 179.876 103.584 180.19C103.584 180.49 103.7 180.73 103.934 180.91C104.174 181.083 104.497 181.17 104.904 181.17C105.317 181.17 105.644 181.083 105.884 180.91C106.124 180.73 106.244 180.49 106.244 180.19C106.244 179.876 106.12 179.633 105.874 179.46C105.634 179.286 105.31 179.2 104.904 179.2ZM104.904 184.36C105.384 184.36 105.764 184.26 106.044 184.06C106.324 183.86 106.464 183.583 106.464 183.23C106.464 182.883 106.324 182.61 106.044 182.41C105.764 182.21 105.384 182.11 104.904 182.11C104.424 182.11 104.047 182.21 103.774 182.41C103.5 182.61 103.364 182.883 103.364 183.23C103.364 183.583 103.5 183.86 103.774 184.06C104.047 184.26 104.424 184.36 104.904 184.36ZM110.807 180.99C111.794 180.99 112.524 181.183 112.997 181.57C113.47 181.95 113.707 182.47 113.707 183.13C113.707 183.55 113.604 183.93 113.397 184.27C113.19 184.61 112.88 184.88 112.467 185.08C112.054 185.28 111.544 185.38 110.937 185.38C110.437 185.38 109.954 185.31 109.487 185.17C109.02 185.023 108.627 184.823 108.307 184.57L108.857 183.56C109.117 183.773 109.427 183.943 109.787 184.07C110.154 184.19 110.53 184.25 110.917 184.25C111.377 184.25 111.737 184.156 111.997 183.97C112.264 183.776 112.397 183.513 112.397 183.18C112.397 182.82 112.254 182.55 111.967 182.37C111.687 182.183 111.204 182.09 110.517 182.09H108.827L109.187 178.28H113.297V179.37H110.287L110.137 180.99H110.807ZM116.598 180.99C117.585 180.99 118.315 181.183 118.788 181.57C119.261 181.95 119.498 182.47 119.498 183.13C119.498 183.55 119.395 183.93 119.188 184.27C118.981 184.61 118.671 184.88 118.258 185.08C117.845 185.28 117.335 185.38 116.728 185.38C116.228 185.38 115.745 185.31 115.278 185.17C114.811 185.023 114.418 184.823 114.098 184.57L114.648 183.56C114.908 183.773 115.218 183.943 115.578 184.07C115.945 184.19 116.321 184.25 116.708 184.25C117.168 184.25 117.528 184.156 117.788 183.97C118.055 183.776 118.188 183.513 118.188 183.18C118.188 182.82 118.045 182.55 117.758 182.37C117.478 182.183 116.995 182.09 116.308 182.09H114.618L114.978 178.28H119.088V179.37H116.078L115.928 180.99H116.598ZM125.269 184.18V185.28H120.109V184.41L122.889 181.77C123.202 181.47 123.412 181.21 123.519 180.99C123.632 180.763 123.689 180.54 123.689 180.32C123.689 179.993 123.579 179.743 123.359 179.57C123.139 179.396 122.816 179.31 122.389 179.31C121.676 179.31 121.129 179.553 120.749 180.04L119.839 179.34C120.112 178.973 120.479 178.69 120.939 178.49C121.406 178.283 121.926 178.18 122.499 178.18C123.259 178.18 123.866 178.36 124.319 178.72C124.772 179.08 124.999 179.57 124.999 180.19C124.999 180.57 124.919 180.926 124.759 181.26C124.599 181.593 124.292 181.973 123.839 182.4L121.969 184.18H125.269ZM126.081 181.98H128.831V183.02H126.081V181.98ZM134.358 181.6C134.725 181.766 135.005 181.993 135.198 182.28C135.398 182.56 135.498 182.89 135.498 183.27C135.498 183.696 135.378 184.07 135.138 184.39C134.905 184.71 134.572 184.956 134.138 185.13C133.705 185.296 133.202 185.38 132.628 185.38C132.055 185.38 131.552 185.296 131.118 185.13C130.692 184.956 130.362 184.71 130.128 184.39C129.895 184.07 129.778 183.696 129.778 183.27C129.778 182.89 129.875 182.56 130.068 182.28C130.262 181.993 130.538 181.766 130.898 181.6C130.618 181.446 130.402 181.246 130.248 181C130.102 180.746 130.028 180.456 130.028 180.13C130.028 179.736 130.135 179.393 130.348 179.1C130.568 178.806 130.875 178.58 131.268 178.42C131.662 178.26 132.115 178.18 132.628 178.18C133.148 178.18 133.605 178.26 133.998 178.42C134.392 178.58 134.698 178.806 134.918 179.1C135.138 179.393 135.248 179.736 135.248 180.13C135.248 180.456 135.172 180.743 135.018 180.99C134.865 181.236 134.645 181.44 134.358 181.6ZM132.628 179.2C132.222 179.2 131.898 179.286 131.658 179.46C131.425 179.633 131.308 179.876 131.308 180.19C131.308 180.49 131.425 180.73 131.658 180.91C131.898 181.083 132.222 181.17 132.628 181.17C133.042 181.17 133.368 181.083 133.608 180.91C133.848 180.73 133.968 180.49 133.968 180.19C133.968 179.876 133.845 179.633 133.598 179.46C133.358 179.286 133.035 179.2 132.628 179.2ZM132.628 184.36C133.108 184.36 133.488 184.26 133.768 184.06C134.048 183.86 134.188 183.583 134.188 183.23C134.188 182.883 134.048 182.61 133.768 182.41C133.488 182.21 133.108 182.11 132.628 182.11C132.148 182.11 131.772 182.21 131.498 182.41C131.225 182.61 131.088 182.883 131.088 183.23C131.088 183.583 131.225 183.86 131.498 184.06C131.772 184.26 132.148 184.36 132.628 184.36ZM138.532 180.99C139.518 180.99 140.248 181.183 140.722 181.57C141.195 181.95 141.432 182.47 141.432 183.13C141.432 183.55 141.328 183.93 141.122 184.27C140.915 184.61 140.605 184.88 140.192 185.08C139.778 185.28 139.268 185.38 138.662 185.38C138.162 185.38 137.678 185.31 137.212 185.17C136.745 185.023 136.352 184.823 136.032 184.57L136.582 183.56C136.842 183.773 137.152 183.943 137.512 184.07C137.878 184.19 138.255 184.25 138.642 184.25C139.102 184.25 139.462 184.156 139.722 183.97C139.988 183.776 140.122 183.513 140.122 183.18C140.122 182.82 139.978 182.55 139.692 182.37C139.412 182.183 138.928 182.09 138.242 182.09H136.552L136.912 178.28H141.022V179.37H138.012L137.862 180.99H138.532ZM145.361 180.96C145.821 180.96 146.235 181.05 146.601 181.23C146.968 181.403 147.255 181.653 147.461 181.98C147.668 182.306 147.771 182.683 147.771 183.11C147.771 183.563 147.658 183.963 147.431 184.31C147.205 184.65 146.898 184.913 146.511 185.1C146.125 185.286 145.691 185.38 145.211 185.38C144.251 185.38 143.505 185.08 142.971 184.48C142.445 183.88 142.181 183.02 142.181 181.9C142.181 181.113 142.325 180.443 142.611 179.89C142.898 179.33 143.298 178.906 143.811 178.62C144.331 178.326 144.931 178.18 145.611 178.18C145.971 178.18 146.308 178.22 146.621 178.3C146.941 178.373 147.218 178.483 147.451 178.63L146.971 179.61C146.625 179.383 146.181 179.27 145.641 179.27C144.968 179.27 144.441 179.476 144.061 179.89C143.681 180.303 143.491 180.9 143.491 181.68V181.69C143.698 181.45 143.961 181.27 144.281 181.15C144.601 181.023 144.961 180.96 145.361 180.96ZM145.141 184.36C145.548 184.36 145.878 184.253 146.131 184.04C146.385 183.82 146.511 183.53 146.511 183.17C146.511 182.803 146.385 182.513 146.131 182.3C145.878 182.086 145.538 181.98 145.111 181.98C144.691 181.98 144.348 182.093 144.081 182.32C143.821 182.546 143.691 182.833 143.691 183.18C143.691 183.52 143.818 183.803 144.071 184.03C144.331 184.25 144.688 184.36 145.141 184.36ZM153.521 184.18V185.28H148.361V184.41L151.141 181.77C151.454 181.47 151.664 181.21 151.771 180.99C151.884 180.763 151.941 180.54 151.941 180.32C151.941 179.993 151.831 179.743 151.611 179.57C151.391 179.396 151.068 179.31 150.641 179.31C149.928 179.31 149.381 179.553 149.001 180.04L148.091 179.34C148.364 178.973 148.731 178.69 149.191 178.49C149.658 178.283 150.178 178.18 150.751 178.18C151.511 178.18 152.118 178.36 152.571 178.72C153.024 179.08 153.251 179.57 153.251 180.19C153.251 180.57 153.171 180.926 153.011 181.26C152.851 181.593 152.544 181.973 152.091 182.4L150.221 184.18H153.521ZM156.691 178.28V185.28H155.391V179.37H153.911V178.28H156.691Z" fill="#2C007B"/>
<path opacity="0.5" d="M98.2621 201.611C98.9087 201.691 99.4021 201.911 99.7421 202.271C100.082 202.631 100.252 203.081 100.252 203.621C100.252 204.028 100.149 204.398 99.9421 204.731C99.7354 205.065 99.4221 205.331 99.0021 205.531C98.5887 205.725 98.0821 205.821 97.4821 205.821C96.9821 205.821 96.4987 205.751 96.0321 205.611C95.5721 205.465 95.1787 205.265 94.8521 205.011L95.4121 204.001C95.6654 204.215 95.9721 204.385 96.3321 204.511C96.6987 204.631 97.0754 204.691 97.4621 204.691C97.9221 204.691 98.2821 204.598 98.5421 204.411C98.8087 204.218 98.9421 203.958 98.9421 203.631C98.9421 203.305 98.8154 203.051 98.5621 202.871C98.3154 202.685 97.9354 202.591 97.4221 202.591H96.7821V201.701L98.3721 199.811H95.1921V198.721H99.9621V199.591L98.2621 201.611ZM107.342 204.131H106.102V205.721H104.842V204.131H101.002V203.231L104.452 198.721H105.842L102.592 203.031H104.882V201.621H106.102V203.031H107.342V204.131ZM112.72 198.721V199.591L110 205.721H108.61L111.24 199.821H108.49V201.011H107.28V198.721H112.72ZM118.804 198.721V199.591L116.084 205.721H114.694L117.324 199.821H114.574V201.011H113.364V198.721H118.804ZM122.333 205.821C121.773 205.821 121.273 205.681 120.833 205.401C120.393 205.115 120.046 204.701 119.793 204.161C119.54 203.615 119.413 202.968 119.413 202.221C119.413 201.475 119.54 200.831 119.793 200.291C120.046 199.745 120.393 199.331 120.833 199.051C121.273 198.765 121.773 198.621 122.333 198.621C122.893 198.621 123.393 198.765 123.833 199.051C124.28 199.331 124.63 199.745 124.883 200.291C125.136 200.831 125.263 201.475 125.263 202.221C125.263 202.968 125.136 203.615 124.883 204.161C124.63 204.701 124.28 205.115 123.833 205.401C123.393 205.681 122.893 205.821 122.333 205.821ZM122.333 204.691C122.833 204.691 123.226 204.485 123.513 204.071C123.806 203.658 123.953 203.041 123.953 202.221C123.953 201.401 123.806 200.785 123.513 200.371C123.226 199.958 122.833 199.751 122.333 199.751C121.84 199.751 121.446 199.958 121.153 200.371C120.866 200.785 120.723 201.401 120.723 202.221C120.723 203.041 120.866 203.658 121.153 204.071C121.446 204.485 121.84 204.691 122.333 204.691ZM126.3 202.421H129.05V203.461H126.3V202.421ZM134.961 204.621V205.721H129.801V204.851L132.581 202.211C132.895 201.911 133.105 201.651 133.211 201.431C133.325 201.205 133.381 200.981 133.381 200.761C133.381 200.435 133.271 200.185 133.051 200.011C132.831 199.838 132.508 199.751 132.081 199.751C131.368 199.751 130.821 199.995 130.441 200.481L129.531 199.781C129.805 199.415 130.171 199.131 130.631 198.931C131.098 198.725 131.618 198.621 132.191 198.621C132.951 198.621 133.558 198.801 134.011 199.161C134.465 199.521 134.691 200.011 134.691 200.631C134.691 201.011 134.611 201.368 134.451 201.701C134.291 202.035 133.985 202.415 133.531 202.841L131.661 204.621H134.961ZM137.902 201.431C138.888 201.431 139.618 201.625 140.092 202.011C140.565 202.391 140.802 202.911 140.802 203.571C140.802 203.991 140.698 204.371 140.492 204.711C140.285 205.051 139.975 205.321 139.562 205.521C139.148 205.721 138.638 205.821 138.032 205.821C137.532 205.821 137.048 205.751 136.582 205.611C136.115 205.465 135.722 205.265 135.402 205.011L135.952 204.001C136.212 204.215 136.522 204.385 136.882 204.511C137.248 204.631 137.625 204.691 138.012 204.691C138.472 204.691 138.832 204.598 139.092 204.411C139.358 204.218 139.492 203.955 139.492 203.621C139.492 203.261 139.348 202.991 139.062 202.811C138.782 202.625 138.298 202.531 137.612 202.531H135.922L136.282 198.721H140.392V199.811H137.382L137.232 201.431H137.902ZM147.792 204.131H146.552V205.721H145.292V204.131H141.452V203.231L144.902 198.721H146.292L143.042 203.031H145.332V201.621H146.552V203.031H147.792V204.131ZM150.505 198.721V205.721H149.205V199.811H147.725V198.721H150.505ZM154.253 198.621C155.213 198.621 155.957 198.921 156.483 199.521C157.017 200.121 157.283 200.981 157.283 202.101C157.283 202.888 157.14 203.561 156.853 204.121C156.567 204.675 156.163 205.098 155.643 205.391C155.13 205.678 154.533 205.821 153.853 205.821C153.493 205.821 153.153 205.785 152.833 205.711C152.52 205.631 152.247 205.518 152.013 205.371L152.493 204.391C152.84 204.618 153.283 204.731 153.823 204.731C154.497 204.731 155.023 204.525 155.403 204.111C155.783 203.698 155.973 203.101 155.973 202.321V202.311C155.767 202.551 155.503 202.735 155.183 202.861C154.863 202.981 154.503 203.041 154.103 203.041C153.643 203.041 153.23 202.955 152.863 202.781C152.497 202.601 152.21 202.348 152.003 202.021C151.797 201.695 151.693 201.318 151.693 200.891C151.693 200.438 151.807 200.041 152.033 199.701C152.26 199.355 152.567 199.088 152.953 198.901C153.34 198.715 153.773 198.621 154.253 198.621ZM154.353 202.021C154.773 202.021 155.113 201.908 155.373 201.681C155.64 201.455 155.773 201.168 155.773 200.821C155.773 200.481 155.643 200.201 155.383 199.981C155.13 199.755 154.777 199.641 154.323 199.641C153.917 199.641 153.587 199.751 153.333 199.971C153.08 200.185 152.953 200.471 152.953 200.831C152.953 201.198 153.08 201.488 153.333 201.701C153.587 201.915 153.927 202.021 154.353 202.021Z" fill="#2C007B"/>
<defs>
<filter id="filter0_d" x="17.3062" y="88.2217" width="116.874" height="43.9964" filterUnits="userSpaceOnUse" color-interpolation-filters="sRGB">
<feFlood flood-opacity="0" result="BackgroundImageFix"/>
<feColorMatrix in="SourceAlpha" type="matrix" values="0 0 0 0 0 0 0 0 0 0 0 0 0 0 0 0 0 0 127 0"/>
<feOffset dy="2"/>
<feGaussianBlur stdDeviation="5"/>
<feColorMatrix type="matrix" values="0 0 0 0 0 0 0 0 0 0 0 0 0 0 0 0 0 0 0.25 0"/>
<feBlend mode="normal" in2="BackgroundImageFix" result="effect1_dropShadow"/>
<feBlend mode="normal" in="SourceGraphic" in2="effect1_dropShadow" result="shape"/>
</filter>
<filter id="filter1_d" x="152.397" y="121.995" width="116.874" height="43.9964" filterUnits="userSpaceOnUse" color-interpolation-filters="sRGB">
<feFlood flood-opacity="0" result="BackgroundImageFix"/>
<feColorMatrix in="SourceAlpha" type="matrix" values="0 0 0 0 0 0 0 0 0 0 0 0 0 0 0 0 0 0 127 0"/>
<feOffset dy="2"/>
<feGaussianBlur stdDeviation="5"/>
<feColorMatrix type="matrix" values="0 0 0 0 0 0 0 0 0 0 0 0 0 0 0 0 0 0 0.25 0"/>
<feBlend mode="normal" in2="BackgroundImageFix" result="effect1_dropShadow"/>
<feBlend mode="normal" in="SourceGraphic" in2="effect1_dropShadow" result="shape"/>
</filter>
<filter id="filter2_d" x="191.502" y="57.1157" width="77.6711" height="130.657" filterUnits="userSpaceOnUse" color-interpolation-filters="sRGB">
<feFlood flood-opacity="0" result="BackgroundImageFix"/>
<feColorMatrix in="SourceAlpha" type="matrix" values="0 0 0 0 0 0 0 0 0 0 0 0 0 0 0 0 0 0 127 0"/>
<feOffset dy="2"/>
<feGaussianBlur stdDeviation="5"/>
<feColorMatrix type="matrix" values="0 0 0 0 0 0 0 0 0 0 0 0 0 0 0 0 0 0 0.25 0"/>
<feBlend mode="normal" in2="BackgroundImageFix" result="effect1_dropShadow"/>
<feBlend mode="normal" in="SourceGraphic" in2="effect1_dropShadow" result="shape"/>
</filter>
<filter id="filter3_d" x="17.3062" y="57.1157" width="77.6713" height="130.657" filterUnits="userSpaceOnUse" color-interpolation-filters="sRGB">
<feFlood flood-opacity="0" result="BackgroundImageFix"/>
<feColorMatrix in="SourceAlpha" type="matrix" values="0 0 0 0 0 0 0 0 0 0 0 0 0 0 0 0 0 0 127 0"/>
<feOffset dy="2"/>
<feGaussianBlur stdDeviation="5"/>
<feColorMatrix type="matrix" values="0 0 0 0 0 0 0 0 0 0 0 0 0 0 0 0 0 0 0.25 0"/>
<feBlend mode="normal" in2="BackgroundImageFix" result="effect1_dropShadow"/>
<feBlend mode="normal" in="SourceGraphic" in2="effect1_dropShadow" result="shape"/>
</filter>
<radialGradient id="paint0_radial" cx="0" cy="0" r="1" gradientUnits="userSpaceOnUse" gradientTransform="translate(145.321 127) rotate(48.6127) scale(265.35 1566.47)">
<stop stop-color="#43C4D9"/>
<stop offset="1" stop-color="white" stop-opacity="0.4"/>
</radialGradient>
<linearGradient id="paint1_linear" x1="193.829" y1="137.719" x2="257.818" y2="73.6906" gradientUnits="userSpaceOnUse">
<stop stop-color="white" stop-opacity="0"/>
<stop offset="0.259" stop-color="#FDFDFE" stop-opacity="0.259"/>
<stop offset="0.398" stop-color="#F7F5F9" stop-opacity="0.398"/>
<stop offset="0.5084" stop-color="#EDE7F1" stop-opacity="0.5084"/>
<stop offset="0.604" stop-color="#DFD4E6" stop-opacity="0.604"/>
<stop offset="0.6898" stop-color="#CDBBD7" stop-opacity="0.6898"/>
<stop offset="0.7688" stop-color="#B69CC5" stop-opacity="0.7688"/>
<stop offset="0.8424" stop-color="#9B77B0" stop-opacity="0.8424"/>
<stop offset="0.9119" stop-color="#7C4D97" stop-opacity="0.9119"/>
<stop offset="0.9757" stop-color="#5A1E7C" stop-opacity="0.9757"/>
<stop offset="1" stop-color="#4B0A70"/>
</linearGradient>
<linearGradient id="paint2_linear" x1="197.961" y1="164.622" x2="262.702" y2="99.8416" gradientUnits="userSpaceOnUse">
<stop stop-color="white" stop-opacity="0"/>
<stop offset="0.259" stop-color="#FDFDFE" stop-opacity="0.259"/>
<stop offset="0.398" stop-color="#F7F5F9" stop-opacity="0.398"/>
<stop offset="0.5084" stop-color="#EDE7F1" stop-opacity="0.5084"/>
<stop offset="0.604" stop-color="#DFD4E6" stop-opacity="0.604"/>
<stop offset="0.6898" stop-color="#CDBBD7" stop-opacity="0.6898"/>
<stop offset="0.7688" stop-color="#B69CC5" stop-opacity="0.7688"/>
<stop offset="0.8424" stop-color="#9B77B0" stop-opacity="0.8424"/>
<stop offset="0.9119" stop-color="#7C4D97" stop-opacity="0.9119"/>
<stop offset="0.9757" stop-color="#5A1E7C" stop-opacity="0.9757"/>
<stop offset="1" stop-color="#4B0A70"/>
</linearGradient>
<linearGradient id="paint3_linear" x1="19.6252" y1="137.719" x2="83.6144" y2="73.6902" gradientUnits="userSpaceOnUse">
<stop stop-color="white" stop-opacity="0"/>
<stop offset="0.259" stop-color="#FDFDFE" stop-opacity="0.259"/>
<stop offset="0.398" stop-color="#F7F5F9" stop-opacity="0.398"/>
<stop offset="0.5084" stop-color="#EDE7F1" stop-opacity="0.5084"/>
<stop offset="0.604" stop-color="#DFD4E6" stop-opacity="0.604"/>
<stop offset="0.6898" stop-color="#CDBBD7" stop-opacity="0.6898"/>
<stop offset="0.7688" stop-color="#B69CC5" stop-opacity="0.7688"/>
<stop offset="0.8424" stop-color="#9B77B0" stop-opacity="0.8424"/>
<stop offset="0.9119" stop-color="#7C4D97" stop-opacity="0.9119"/>
<stop offset="0.9757" stop-color="#5A1E7C" stop-opacity="0.9757"/>
<stop offset="1" stop-color="#4B0A70"/>
</linearGradient>
<linearGradient id="paint4_linear" x1="23.7574" y1="164.622" x2="88.4985" y2="99.8411" gradientUnits="userSpaceOnUse">
<stop stop-color="white" stop-opacity="0"/>
<stop offset="0.259" stop-color="#FDFDFE" stop-opacity="0.259"/>
<stop offset="0.398" stop-color="#F7F5F9" stop-opacity="0.398"/>
<stop offset="0.5084" stop-color="#EDE7F1" stop-opacity="0.5084"/>
<stop offset="0.604" stop-color="#DFD4E6" stop-opacity="0.604"/>
<stop offset="0.6898" stop-color="#CDBBD7" stop-opacity="0.6898"/>
<stop offset="0.7688" stop-color="#B69CC5" stop-opacity="0.7688"/>
<stop offset="0.8424" stop-color="#9B77B0" stop-opacity="0.8424"/>
<stop offset="0.9119" stop-color="#7C4D97" stop-opacity="0.9119"/>
<stop offset="0.9757" stop-color="#5A1E7C" stop-opacity="0.9757"/>
<stop offset="1" stop-color="#4B0A70"/>
</linearGradient>
</defs>
</svg>
