<svg width="260" height="270" viewBox="0 0 260 270" fill="none" xmlns="http://www.w3.org/2000/svg">
<path d="M2.70251 269.094H258.85C258.85 269.094 243.102 229.057 192.159 225.845C141.215 222.633 124.892 245.524 105.524 249.104C86.1569 252.683 77.1044 243.167 44.5855 244.382C12.0667 245.596 2.70251 269.094 2.70251 269.094Z" fill="#C4E8F0"/>
<path d="M131.979 109.496L137.572 98.3105C137.572 98.3105 154.622 136.079 144.108 138.604C139.394 139.602 134.52 130.158 132.762 125.644C131.979 121.385 131.979 109.496 131.979 109.496Z" fill="#F1B185"/>
<path d="M100.115 123.391C100.803 120.16 101.071 116.854 100.914 113.555L91.1506 109.272C91.1506 109.272 84.6308 149.006 92.389 149.006C97.183 148.527 97.127 144.052 98.5412 137.205C98.749 135.687 99.5639 125.508 100.075 123.391H100.115Z" fill="#FCC9A1"/>
<path d="M139.745 94.5471C141.615 96.4008 142.502 109.225 142.502 109.225L131.412 114.993L132.307 91.5669C132.307 91.5669 137.476 92.302 139.745 94.5471Z" fill="#EFE6E8"/>
<path d="M94.3625 95.4341C92.1014 97.2878 89.9361 111.27 89.9361 111.27L104.398 114.993L102.28 92.1104C102.28 92.1104 97.111 93.189 94.3625 95.4341Z" fill="#EFE6E8"/>
<path d="M120.306 174.15L120.513 150.78H135.119C135.478 156.692 143.333 208.043 140.256 215.05C136.997 222.465 97.2708 254.88 97.2708 254.88L90.9588 248.992C90.9588 248.992 123.629 210.257 124.285 209.09C124.94 207.923 120.306 174.15 120.306 174.15Z" fill="#F05452"/>
<path d="M122.631 150.78L122.239 174.877L118.772 174.446L117.238 259.53H107.218L101.258 170.091C101.258 169.133 102.129 150.988 102.472 149.813L122.631 150.78Z" fill="#F05452"/>
<path d="M108.481 259.53C108.481 259.53 107.865 262.91 106.883 264.324C105.9 265.739 104.486 268.359 106.435 268.359H117.15C117.15 268.359 119.187 268.247 118.572 266.578C117.957 264.908 116.742 259.522 116.742 259.522L108.481 259.53Z" fill="#322875"/>
<path d="M91.4941 249.463C91.4941 249.463 86.7641 252.523 86.6043 253.178C86.4445 253.833 90.799 263.317 92.1413 264.628C93.4836 265.938 94.1388 268.335 99.1884 268.335C100.043 268.335 100.738 267.896 99.476 266.697C97.9058 265.055 96.8312 263.003 96.376 260.777C95.8486 258.268 96.6396 254.257 96.6396 254.257L91.4941 249.463Z" fill="#322875"/>
<path d="M130.74 168.126C130.74 168.126 120.865 171.769 119.698 171.666C118.532 171.562 106.915 168.917 108.097 169.348C109.28 169.78 118.772 174.446 118.772 174.446L120.37 174.646L123.014 195.028C123.014 195.028 124.524 177.45 124.708 175.477C124.892 173.503 136.725 168.454 130.74 168.126Z" fill="#C2394E"/>
<path d="M118.013 216.768L117.629 237.67L130.988 225.541C129.464 225.607 127.947 225.295 126.571 224.635C125.196 223.974 124.004 222.985 123.102 221.754C119.946 217.503 121.976 211.982 121.976 211.982L118.013 216.768Z" fill="#C2394E"/>
<path d="M104.278 233.171L105.876 247.713L97.5585 254.632C99.0525 251.732 100.28 248.702 101.226 245.58C101.64 244.279 101.787 242.907 101.658 241.548C101.529 240.189 101.127 238.87 100.475 237.67L104.278 233.171Z" fill="#C2394E"/>
<path d="M122.551 58.417C121.911 57.6004 121.102 56.9319 120.179 56.4575C119.256 55.983 118.242 55.7139 117.206 55.6685C113.89 55.6685 110.566 57.1306 110.566 60.6062C110.566 64.0818 106.515 65.504 106.515 69.5469C106.515 73.5898 109.711 77.2411 111.309 77.2411C111.309 78.8871 113.354 81.4279 114.185 81.4279C115.839 76.1865 122.551 58.417 122.551 58.417Z" fill="#F05553"/>
<path d="M124.54 81.1482C124.54 81.1482 121.4 87.3004 124.956 90.8239C128.423 107.938 109.775 105.294 111.717 90.5123C112.603 87.1805 114.497 81.5796 114.497 78.5275C118.828 78.4796 124.54 81.1482 124.54 81.1482Z" fill="#FCC9A1"/>
<path d="M122.607 81.9952C122.607 81.9952 121.864 87.7559 112.787 86.7891C113.612 83.5949 114.205 80.3452 114.561 77.0654L122.607 81.9952Z" fill="#F1B185"/>
<path d="M112.164 71.6722C112.164 78.991 115.28 84.9194 120.729 84.9194C126.178 84.9194 130.421 78.0322 130.421 70.7054C130.421 63.3787 126.186 58.417 120.729 58.417C115.272 58.417 112.164 64.3455 112.164 71.6722Z" fill="#FCC9A1"/>
<path d="M119.355 59.8791C119.355 59.8791 121.752 65.6957 125.283 65.6957C128.815 65.6957 126.498 68.8917 128.415 70.8173C130.333 72.7428 130.285 74.1171 129.774 75.7151C132.107 75.7151 135.271 71.3286 133.96 67.7811C132.65 64.2336 135.662 62.8993 133.96 61.6768C129.854 58.7046 132.658 56.7391 129.334 55.4607C126.011 54.1823 123.038 55.0372 120.306 57.0986C117.573 59.16 119.355 59.8791 119.355 59.8791Z" fill="#F05553"/>
<path d="M124.948 90.8242C127.421 90.709 129.898 90.9593 132.299 91.5673C133.097 91.783 133.617 91.9508 133.617 91.9508L133.169 112.724L139.737 162.589H98.5812C98.5812 162.589 100.706 127.969 100.706 114.65C100.706 104.263 100.499 92.4701 100.499 92.4701C104.189 91.6028 107.923 90.936 111.685 90.4727C112.739 93.7405 112.779 97.6636 118.532 97.6636C125.835 97.6556 124.548 91.9428 124.948 90.8242Z" fill="#EFE6E8"/>
<path d="M141.83 98.5744C141.659 98.945 141.347 99.2322 140.963 99.373C140.58 99.5138 140.156 99.4967 139.785 99.3254L134.12 96.8006C133.935 96.7207 133.767 96.6049 133.626 96.4599C133.486 96.315 133.375 96.1436 133.301 95.9558C133.227 95.768 133.19 95.5674 133.194 95.3655C133.197 95.1636 133.241 94.9643 133.321 94.7792L140.017 80.0299C140.189 79.6593 140.501 79.372 140.884 79.2312C141.268 79.0904 141.691 79.1075 142.062 79.2788L147.727 81.8036C147.913 81.8827 148.082 81.998 148.223 82.1428C148.364 82.2877 148.475 82.4591 148.549 82.6472C148.624 82.8353 148.66 83.0363 148.656 83.2385C148.652 83.4407 148.608 83.6401 148.526 83.8251L141.83 98.5744Z" fill="#322875"/>
<path d="M121.312 58.9045C121.312 58.9045 120.306 67.3737 111.932 69.547C106.108 71.0651 112.188 63.5306 112.188 63.5306C112.188 63.5306 114.153 56.3157 121.312 58.9045Z" fill="#F05553"/>
<path d="M142.885 102.673C142.683 101.094 142.844 99.4898 143.357 97.9829C144.196 95.9454 145.602 92.6935 145.602 91.9025C145.602 91.1115 144.331 91.3033 143.636 90.8319C142.398 90.0329 141.239 88.1393 136.845 89.2978C135.558 89.6734 136.845 90.4244 137.388 90.4244C135.598 91.2234 136.126 92.0224 137.588 92.0224C135.934 92.9492 137.588 93.3727 139.745 93.916C139.745 95.1704 137.923 97.1679 138.387 99.2532C138.85 101.339 139.138 103.296 139.138 103.296L142.885 102.673Z" fill="#FCC9A1"/>
<path d="M144.443 92.0066L145.578 91.7269C145.645 90.872 145.547 90.0122 145.29 89.1941C144.571 87.3405 141.95 85.9263 140.153 85.9263C139.106 85.9263 140.232 87.2526 141.543 87.74C142.853 88.2273 143.604 88.8426 143.604 90.3447C143.604 91.8468 144.443 92.0066 144.443 92.0066Z" fill="#FCC9A1"/>
<path d="M142.805 101.179H138.81C138.81 101.179 134.711 138.619 144.667 138.619C154.622 138.619 142.805 102.889 142.805 101.179Z" fill="#FCCAA7"/>
<path d="M94.5863 143.997L97.4786 142.583C97.4786 142.583 94.826 161.143 94.3306 168.054C93.9551 173.416 94.1628 172.625 94.1628 172.625L89.3689 172.664C89.3689 172.664 85.326 152.106 88.5699 139.107C93.22 137.821 94.5863 143.997 94.5863 143.997Z" fill="#FCC9A1"/>
<path d="M93.0761 168.765L94.1946 172.608C94.1946 172.608 94.5941 177.402 94.1946 179.184C93.1639 183.794 91.4621 184.154 91.4621 185.919C91.4621 187.685 89.5126 190.25 88.6257 190.25C87.7388 190.25 85.6375 180.311 89.4247 172.672C91.2624 168.869 93.0761 168.765 93.0761 168.765Z" fill="#FCC9A1"/>
<path d="M148.59 78.1681L146.728 77.1054C148.022 74.1635 149.63 71.3696 151.522 68.772L153 70.5537C151.274 72.9343 149.796 75.4858 148.59 78.1681Z" fill="#335AA9"/>
<path d="M157.363 65.2566L156.164 63.1312C155.365 63.9942 154.567 64.905 153.768 65.8398L155.102 67.7973C155.829 66.9185 156.588 66.0635 157.363 65.2566ZM162.237 60.8701L161.35 58.4731C160.455 59.1603 159.56 59.9033 158.697 60.6704L159.744 62.9475C160.551 62.2204 161.39 61.5173 162.237 60.9021V60.8701Z" fill="#335AA9"/>
<path d="M164.825 59.0484L164.098 56.5316C166.616 55.0335 169.27 53.7762 172.024 52.7764L171.577 55.6288C169.214 56.5314 166.951 57.6775 164.825 59.0484Z" fill="#335AA9"/>
<path d="M203.393 40.1282V89.7614C203.41 90.2491 203.234 90.724 202.904 91.083C202.573 91.442 202.114 91.6561 201.627 91.6789H177.306C176.837 91.6587 176.394 91.4608 176.066 91.1254C175.738 90.79 175.55 90.3423 175.54 89.8732V40.1282C175.52 39.6391 175.695 39.1622 176.026 38.8015C176.357 38.4407 176.817 38.2255 177.306 38.2026H201.651C202.136 38.2315 202.589 38.4494 202.915 38.8095C203.241 39.1696 203.412 39.6431 203.393 40.1282Z" fill="#322875"/>
<path d="M203.393 40.1282V42.9886H175.54V40.1282C175.52 39.6391 175.695 39.1622 176.026 38.8015C176.357 38.4407 176.817 38.2255 177.306 38.2026H201.651C202.136 38.2315 202.589 38.4494 202.915 38.8095C203.241 39.1696 203.412 39.6431 203.393 40.1282Z" fill="#A680B7"/>
<path d="M203.393 86.8931V89.7614C203.41 90.2491 203.234 90.724 202.904 91.083C202.573 91.442 202.114 91.6562 201.627 91.679H177.306C176.817 91.6582 176.357 91.4447 176.026 91.0852C175.695 90.7258 175.52 90.2497 175.54 89.7614V86.8931H203.393Z" fill="#A680B7"/>
<path d="M189.466 90.3764C190.578 90.3764 191.48 89.8899 191.48 89.2897C191.48 88.6896 190.578 88.2031 189.466 88.2031C188.354 88.2031 187.453 88.6896 187.453 89.2897C187.453 89.8899 188.354 90.3764 189.466 90.3764Z" fill="#322875"/>
<path d="M190.089 40.4874C190.079 40.6097 190.032 40.726 189.956 40.8224C189.88 40.9187 189.778 40.9908 189.662 41.0299C189.545 41.0689 189.42 41.0732 189.301 41.0423C189.183 41.0113 189.076 40.9464 188.993 40.8555C188.911 40.7647 188.857 40.6517 188.837 40.5306C188.818 40.4094 188.835 40.2852 188.885 40.1733C188.935 40.0613 189.017 39.9664 189.12 39.9002C189.223 39.834 189.343 39.7992 189.466 39.8003C189.639 39.8106 189.801 39.8883 189.918 40.0168C190.034 40.1452 190.096 40.3142 190.089 40.4874Z" fill="#322875"/>
<path d="M209.034 29.5495L212.357 24.9473C212.653 24.5399 212.861 24.444 213.332 24.5878C213.596 24.6582 213.843 24.7797 214.059 24.9456C214.276 25.1115 214.458 25.3184 214.595 25.5546C214.683 25.6882 214.726 25.8473 214.716 26.0074C214.706 26.1676 214.643 26.32 214.539 26.4415C212.285 29.5415 210.04 32.6443 207.803 35.7497C207.718 35.8967 207.585 36.0102 207.427 36.0713C207.268 36.1323 207.094 36.1372 206.932 36.0852C206.641 36.0163 206.367 35.8859 206.13 35.7026C205.893 35.5193 205.698 35.2875 205.558 35.0226C205.482 34.8999 205.448 34.7563 205.459 34.6127C205.471 34.469 205.528 34.3328 205.622 34.2236C206.764 32.6895 207.899 31.1155 209.034 29.5495Z" fill="#322875"/>
<path d="M209.497 42.805C209.212 42.5018 209.028 42.117 208.972 41.7044C208.916 41.2918 208.991 40.8721 209.185 40.5039C209.317 40.3652 209.491 40.2751 209.681 40.2482C213.042 39.7529 216.403 39.2681 219.764 38.7941C220.211 38.7222 220.667 38.6822 221.106 38.5943C221.264 38.559 221.429 38.5785 221.574 38.6497C221.72 38.7209 221.836 38.8394 221.905 38.9858C222.051 39.2295 222.146 39.5004 222.185 39.7819C222.223 40.0634 222.204 40.3498 222.129 40.6238C222.099 40.7809 222.017 40.9236 221.897 41.0292C221.777 41.1348 221.625 41.1974 221.466 41.207C219.468 41.4787 217.471 41.7743 215.473 42.0619C213.66 42.3256 211.846 42.5893 210.032 42.8609C209.852 42.857 209.673 42.8383 209.497 42.805Z" fill="#322875"/>
<path d="M196.457 21.5037C196.752 21.2201 197.128 21.0366 197.532 20.9792C197.937 20.9218 198.349 20.9935 198.711 21.1841C198.867 21.326 198.969 21.5183 198.998 21.7274C199.531 25.3602 200.063 28.9929 200.596 32.6256C200.605 32.7684 200.626 32.9101 200.66 33.0491C200.717 33.218 200.708 33.4021 200.636 33.5648C200.563 33.7276 200.432 33.8572 200.269 33.928C200.005 34.1009 199.702 34.2047 199.388 34.2299C199.074 34.255 198.758 34.2006 198.471 34.0718C198.376 34.0184 198.293 33.9463 198.227 33.8597C198.161 33.7732 198.114 33.674 198.087 33.5684C197.496 29.712 196.918 25.8555 196.354 21.9991C196.365 21.8299 196.4 21.6631 196.457 21.5037Z" fill="#322875"/>
<path d="M191.2 68.2684L192.478 69.5388C192.798 69.8504 192.798 69.8504 192.478 70.162L191.136 71.4963C191.271 71.5667 191.4 71.6496 191.52 71.744C191.887 72.0955 192.247 72.4711 192.614 72.8306C192.702 72.9185 192.758 72.9984 192.614 73.1182L189.418 76.3142C189.108 75.9597 188.774 75.6261 188.42 75.3155C188.156 75.1068 187.95 74.8344 187.822 74.524C187.693 74.2136 187.646 73.8755 187.685 73.5417C187.685 70.114 187.685 66.6784 187.685 63.2427C187.697 63.1554 187.677 63.0664 187.629 62.9927C187.58 62.9191 187.506 62.8659 187.421 62.8433C186.48 62.4931 185.664 61.8699 185.08 61.0535C184.387 60.1019 184.033 58.946 184.073 57.7697C184.076 56.9045 184.298 56.0542 184.717 55.2973C185.136 54.5403 185.739 53.9013 186.47 53.4392C187.495 52.7422 188.73 52.4225 189.965 52.5347C191.199 52.6468 192.356 53.1839 193.239 54.0542C194.121 54.9246 194.675 56.0742 194.804 57.307C194.934 58.5397 194.631 59.7792 193.949 60.8138C193.353 61.7448 192.473 62.4592 191.44 62.8512C191.359 62.872 191.288 62.9216 191.241 62.9907C191.194 63.0598 191.174 63.1438 191.184 63.2268C191.184 63.7621 191.184 64.2974 191.184 64.8247C191.194 64.9729 191.253 65.1136 191.352 65.2242C191.751 65.6477 192.151 66.0632 192.59 66.4707C192.75 66.6225 192.75 66.7343 192.59 66.8941C192.127 67.3336 191.679 67.789 191.2 68.2684ZM189.474 55.0291C189.171 55.026 188.873 55.1129 188.619 55.2788C188.365 55.4448 188.166 55.6823 188.047 55.9614C187.928 56.2405 187.895 56.5486 187.951 56.8467C188.007 57.1449 188.15 57.4197 188.362 57.6365C188.575 57.8533 188.846 58.0022 189.143 58.0645C189.44 58.1268 189.749 58.0996 190.031 57.9865C190.312 57.8733 190.554 57.6792 190.725 57.4287C190.896 57.1782 190.989 56.8826 190.992 56.5792C190.997 56.3771 190.96 56.1763 190.886 55.9884C190.812 55.8005 190.701 55.6294 190.559 55.485C190.418 55.3406 190.249 55.226 190.063 55.1477C189.876 55.0694 189.676 55.0291 189.474 55.0291Z" fill="white"/>
<path d="M77.2484 52.6806C77.1924 53.0242 77.4002 53.192 77.7118 53.3278C77.9192 53.4357 78.1497 53.4914 78.3835 53.4901C78.6173 53.4888 78.8472 53.4306 79.0534 53.3204C79.2595 53.2102 79.4358 53.0515 79.5668 52.8578C79.6978 52.6642 79.7796 52.4416 79.8051 52.2092C79.8229 52.1083 79.8103 52.0043 79.7691 51.9105C79.7278 51.8166 79.6598 51.7371 79.5734 51.6819C79.4487 51.5864 79.3489 51.4621 79.2825 51.3197C79.2162 51.1774 79.1852 51.021 79.1923 50.8641C79.1993 50.7072 79.2442 50.5543 79.3231 50.4184C79.402 50.2826 79.5125 50.1678 79.6453 50.0839C79.8391 49.953 80.0729 49.8948 80.3053 49.9197C80.5378 49.9445 80.754 50.0508 80.9157 50.2197C81.0707 50.388 81.1632 50.6044 81.1778 50.8328C81.1923 51.0611 81.128 51.2875 80.9956 51.4741C80.8878 51.592 80.828 51.7459 80.828 51.9056C80.828 52.0653 80.8878 52.2192 80.9956 52.337C81.1019 52.5526 81.2609 52.7378 81.4577 52.8757C81.6546 53.0136 81.883 53.0996 82.1218 53.1259C82.3607 53.1522 82.6024 53.1178 82.8245 53.026C83.0466 52.9342 83.242 52.788 83.3926 52.6007C83.4624 52.5196 83.5095 52.4214 83.5292 52.3161C83.5488 52.2109 83.5403 52.1023 83.5044 52.0015C83.4745 51.8646 83.4742 51.723 83.5035 51.586C83.5328 51.449 83.591 51.3199 83.6743 51.2072C83.7576 51.0946 83.864 51.0011 83.9864 50.9329C84.1088 50.8648 84.2443 50.8236 84.3839 50.8121C84.5235 50.8006 84.664 50.8191 84.7958 50.8663C84.9277 50.9135 85.048 50.9884 85.1485 51.0859C85.2491 51.1834 85.3277 51.3013 85.379 51.4316C85.4303 51.562 85.4531 51.7018 85.446 51.8417C85.4453 52.0332 85.389 52.2204 85.2841 52.3807C85.1792 52.5409 85.03 52.6673 84.8547 52.7445C84.7308 52.773 84.6143 52.8275 84.513 52.9046C84.4118 52.9816 84.3282 53.0793 84.2677 53.1912C84.2072 53.3031 84.1712 53.4266 84.1623 53.5535C84.1533 53.6804 84.1714 53.8077 84.2155 53.927C84.3 54.2992 84.5251 54.6243 84.8438 54.8343C85.1625 55.0443 85.5501 55.1229 85.9254 55.0536C86.0409 55.0292 86.1482 54.9751 86.2364 54.8967C86.3247 54.8182 86.391 54.7181 86.4287 54.6062C86.4972 54.4501 86.6087 54.3169 86.7502 54.222C86.8918 54.1272 87.0574 54.0748 87.2277 54.0708C87.4146 54.053 87.6023 54.0934 87.7654 54.1863C87.9284 54.2793 88.0588 54.4203 88.1386 54.5902C88.2348 54.7573 88.2765 54.9502 88.2579 55.1421C88.2392 55.334 88.1612 55.5153 88.0347 55.6608C87.9178 55.8217 87.751 55.9394 87.5603 55.9957C87.3696 56.0521 87.1656 56.0439 86.9801 55.9724C86.4527 55.7567 86.261 55.9724 86.0053 56.292C85.8587 56.4711 85.7575 56.6828 85.7102 56.9093C85.6629 57.1358 85.671 57.3704 85.7337 57.5931C85.7964 57.8158 85.912 58.0201 86.0706 58.1887C86.2291 58.3572 86.426 58.485 86.6445 58.5612C86.7226 58.5882 86.8059 58.5965 86.8878 58.5854C86.9697 58.5743 87.0478 58.5441 87.1159 58.4972C87.2792 58.3997 87.4661 58.3488 87.6563 58.3502C87.8465 58.3517 88.0327 58.4053 88.1945 58.5052C88.3619 58.6036 88.4938 58.7525 88.5713 58.9305C88.6488 59.1085 88.6679 59.3064 88.626 59.496C88.6019 59.6891 88.5181 59.8699 88.3863 60.0131C88.2545 60.1564 88.0813 60.2549 87.8909 60.295C87.7001 60.3556 87.4944 60.3499 87.3073 60.2788C87.1202 60.2078 86.9626 60.0755 86.8602 59.9035C86.5885 59.48 86.3488 59.472 85.9094 59.5919C85.6806 59.6423 85.4674 59.7473 85.2879 59.8979C85.1084 60.0485 84.9679 60.2402 84.8785 60.4568C84.7891 60.6733 84.7533 60.9083 84.7742 61.1416C84.7951 61.375 84.872 61.5999 84.9986 61.7971C85.1184 62.0128 85.3341 62.0368 85.5578 62.0607C85.7567 62.0904 85.9416 62.1803 86.0878 62.3183C86.2339 62.4563 86.3343 62.6358 86.3752 62.8327C86.4161 63.0295 86.3957 63.2341 86.3167 63.419C86.2377 63.6038 86.1039 63.76 85.9334 63.8664C85.7803 63.9548 85.6067 64.0013 85.43 64.0013C85.2533 64.0013 85.0797 63.9548 84.9266 63.8664C84.7667 63.7884 84.6348 63.6629 84.5489 63.507C84.4631 63.3511 84.4276 63.1724 84.4473 62.9956C84.4952 62.5641 84.2635 62.3803 83.9279 62.1966C83.7254 62.1017 83.5034 62.0559 83.2798 62.0629C83.0563 62.07 82.8376 62.1296 82.6414 62.237C82.4453 62.3444 82.2772 62.4966 82.1509 62.6811C82.0246 62.8657 81.9436 63.0774 81.9145 63.2992C81.8658 63.424 81.8597 63.5614 81.8973 63.6901C81.9349 63.8187 82.014 63.9313 82.1222 64.0103C82.3113 64.1718 82.4333 64.3982 82.4643 64.6449C82.4954 64.8917 82.4332 65.1412 82.29 65.3446C82.1398 65.5406 81.9213 65.6729 81.6779 65.7152C81.4346 65.7574 81.1843 65.7065 80.9768 65.5725C80.7693 65.4386 80.6199 65.2314 80.5582 64.9922C80.4966 64.7531 80.5272 64.4995 80.6441 64.2819C80.9876 63.6987 80.9716 63.4829 80.5642 63.0035C80.4241 62.833 80.2465 62.6972 80.0451 62.6067C79.8438 62.5163 79.6243 62.4736 79.4038 62.4821C79.1833 62.4906 78.9677 62.5501 78.7739 62.6558C78.5802 62.7615 78.4136 62.9106 78.287 63.0914C78.1592 63.2832 78.2391 63.467 78.287 63.6507C78.3174 63.845 78.2878 64.044 78.2021 64.221C78.1164 64.398 77.9788 64.5447 77.8077 64.6415C77.615 64.7439 77.3951 64.7836 77.1788 64.7549C76.9625 64.7263 76.7605 64.6307 76.6012 64.4817C76.4878 64.3678 76.404 64.2279 76.3572 64.0742C76.3104 63.9205 76.3021 63.7577 76.3328 63.6C76.3636 63.4423 76.4325 63.2945 76.5336 63.1696C76.6347 63.0448 76.7649 62.9466 76.9128 62.8837C77.1445 62.7718 77.4401 62.7559 77.512 62.4203C77.5779 62.2089 77.5992 61.986 77.5745 61.766C77.5497 61.5459 77.4795 61.3334 77.3682 61.1419C77.2111 60.8959 76.9844 60.7023 76.7169 60.5856C76.4494 60.4689 76.1532 60.4345 75.8661 60.4867C75.5785 60.4867 75.4666 60.7344 75.3548 60.9741C75.2993 61.0986 75.2182 61.2099 75.1168 61.3008C75.0153 61.3917 74.8958 61.4602 74.7661 61.5016C74.6363 61.5431 74.4992 61.5567 74.3639 61.5416C74.2285 61.5264 74.0978 61.4828 73.9805 61.4136C73.8654 61.344 73.7652 61.2522 73.6859 61.1435C73.6066 61.0349 73.5496 60.9115 73.5184 60.7807C73.4872 60.6498 73.4823 60.5141 73.504 60.3813C73.5257 60.2485 73.5736 60.1214 73.6449 60.0073C73.7539 59.8422 73.9121 59.7155 74.0971 59.6452C74.2821 59.5749 74.4845 59.5647 74.6756 59.6158C75.179 59.8156 75.4746 59.6158 75.7543 59.2243C75.8787 59.0683 75.9684 58.8876 76.0176 58.6942C76.0668 58.5008 76.0742 58.2992 76.0395 58.1027C76.0047 57.9062 75.9285 57.7193 75.816 57.5545C75.7034 57.3898 75.5571 57.2508 75.3867 57.147C75.2722 57.0588 75.1317 57.0111 74.9872 57.0111C74.8427 57.0111 74.7023 57.0588 74.5877 57.147C74.4575 57.2153 74.3135 57.2533 74.1665 57.2581C74.0195 57.2629 73.8733 57.2344 73.7389 57.1747C73.6044 57.1149 73.4853 57.0256 73.3903 56.9132C73.2953 56.8009 73.227 56.6686 73.1905 56.5261C73.1539 56.3836 73.1501 56.2347 73.1793 56.0905C73.2084 55.9464 73.2699 55.8107 73.3589 55.6936C73.448 55.5766 73.5624 55.4812 73.6936 55.4146C73.8247 55.3481 73.9693 55.312 74.1163 55.3093C74.2628 55.3088 74.4071 55.3442 74.5366 55.4124C74.6662 55.4807 74.777 55.5797 74.8594 55.7008C74.9417 55.8434 75.0725 55.9516 75.228 56.0059C75.3834 56.0601 75.5531 56.0568 75.7063 55.9964C75.9249 55.9611 76.1323 55.8753 76.3118 55.7458C76.4914 55.6162 76.6383 55.4465 76.7407 55.2502C76.8431 55.0539 76.8983 54.8364 76.9018 54.615C76.9053 54.3936 76.8571 54.1744 76.761 53.975C76.7224 53.8569 76.6476 53.754 76.5472 53.6809C76.4468 53.6077 76.3259 53.568 76.2017 53.5675C75.9675 53.5607 75.7439 53.4683 75.5731 53.3078C75.4023 53.1474 75.2962 52.9299 75.2749 52.6966C75.2573 52.4698 75.3183 52.2439 75.4476 52.0568C75.577 51.8697 75.7667 51.7328 75.9851 51.6691C76.2034 51.6053 76.4371 51.6187 76.6467 51.7069C76.8564 51.795 77.0293 51.9527 77.1365 52.1533C77.2156 52.3175 77.254 52.4984 77.2484 52.6806Z" fill="#72CDDF"/>
<path d="M95.8647 28.3912C95.7769 28.9186 96.1044 29.1902 96.5758 29.382C96.8955 29.5491 97.2511 29.6358 97.6119 29.6347C97.9726 29.6335 98.3276 29.5445 98.6462 29.3754C98.9649 29.2062 99.2375 28.962 99.4406 28.6639C99.6436 28.3657 99.771 28.0226 99.8118 27.6642C99.837 27.5112 99.8172 27.3543 99.7547 27.2124C99.6923 27.0706 99.59 26.9499 99.4602 26.8652C99.2792 26.7182 99.1351 26.5309 99.0394 26.3183C98.9437 26.1056 98.8992 25.8735 98.9093 25.6406C98.9194 25.4076 98.9838 25.1803 99.0975 24.9767C99.2112 24.7731 99.371 24.599 99.5641 24.4682C99.8539 24.2983 100.192 24.2294 100.525 24.2721C100.858 24.3148 101.168 24.4669 101.405 24.7044C101.643 24.9419 101.795 25.2515 101.838 25.5847C101.88 25.9179 101.811 26.2558 101.641 26.5456C101.47 26.7229 101.371 26.9572 101.362 27.2035C101.353 27.4499 101.435 27.6908 101.593 27.8799C101.762 28.1987 102.006 28.4714 102.304 28.6744C102.602 28.8775 102.945 29.0046 103.303 29.0447C103.662 29.0849 104.025 29.0369 104.36 28.9049C104.696 28.7729 104.994 28.5609 105.229 28.2874C105.336 28.1599 105.409 28.0069 105.44 27.8431C105.471 27.6793 105.458 27.5103 105.405 27.3526C105.367 27.094 105.398 26.8302 105.495 26.5874C105.591 26.3446 105.749 26.1313 105.954 25.9688C106.159 25.8063 106.402 25.7003 106.66 25.6613C106.919 25.6223 107.183 25.6517 107.426 25.7466C107.72 25.8519 107.972 26.0483 108.146 26.307C108.319 26.5658 108.406 26.8733 108.393 27.1848C108.392 27.4809 108.306 27.7705 108.144 28.0186C107.983 28.2667 107.753 28.4627 107.482 28.583C107.29 28.6252 107.11 28.7083 106.953 28.8267C106.796 28.945 106.667 29.0957 106.573 29.2687C106.48 29.4416 106.425 29.6326 106.412 29.8286C106.4 30.0247 106.429 30.2212 106.499 30.4047C106.632 30.9773 106.979 31.4769 107.47 31.7998C107.961 32.1227 108.558 32.244 109.136 32.1385C109.317 32.1033 109.487 32.0215 109.627 31.901C109.767 31.7805 109.873 31.6255 109.935 31.4514C110.062 31.2049 110.254 30.9981 110.491 30.8538C110.728 30.7094 111 30.6331 111.277 30.6331C111.555 30.6331 111.827 30.7094 112.063 30.8538C112.3 30.9981 112.493 31.2049 112.62 31.4514C112.772 31.7078 112.839 32.0059 112.812 32.303C112.785 32.6 112.664 32.8808 112.468 33.1053C112.29 33.3483 112.038 33.5267 111.749 33.6132C111.461 33.6998 111.152 33.6897 110.87 33.5847C110.071 33.2491 109.767 33.5847 109.368 34.08C108.241 35.5422 109.104 36.9564 110.358 37.5796C110.614 37.7075 110.838 37.5796 111.078 37.4757C111.331 37.3186 111.623 37.2353 111.92 37.2353C112.218 37.2353 112.51 37.3186 112.763 37.4757C113.021 37.6274 113.224 37.8567 113.343 38.1309C113.462 38.4051 113.491 38.71 113.427 39.0018C113.365 39.2864 113.219 39.5459 113.008 39.7468C112.798 39.9477 112.531 40.0806 112.244 40.1284C111.948 40.2225 111.629 40.2137 111.339 40.1035C111.049 39.9932 110.805 39.788 110.646 39.5212C110.231 38.866 109.847 38.858 109.176 39.0418C108.83 39.1287 108.51 39.2971 108.242 39.533C107.974 39.7688 107.767 40.0653 107.637 40.3976C107.507 40.7299 107.459 41.0885 107.496 41.4433C107.533 41.7982 107.654 42.139 107.85 42.4375C108.033 42.773 108.369 42.805 108.705 42.8529C109.018 42.8785 109.313 43.0092 109.542 43.224C109.771 43.4387 109.921 43.7247 109.967 44.0354C110.049 44.3394 110.027 44.662 109.903 44.9518C109.78 45.2415 109.563 45.4815 109.288 45.6334C109.053 45.771 108.785 45.8436 108.513 45.8436C108.24 45.8436 107.973 45.771 107.738 45.6334C107.492 45.5124 107.288 45.3189 107.156 45.0789C107.023 44.8389 106.967 44.564 106.995 44.2911C107.075 43.62 106.715 43.3403 106.196 43.1166C105.892 42.9632 105.557 42.8827 105.216 42.8815C104.876 42.8803 104.54 42.9584 104.236 43.1097C103.931 43.2609 103.666 43.4811 103.461 43.7527C103.256 44.0244 103.117 44.34 103.056 44.6746C102.985 44.8693 102.979 45.0815 103.038 45.28C103.097 45.4785 103.218 45.6528 103.383 45.7772C103.667 46.0344 103.848 46.3847 103.895 46.7645C103.942 47.1442 103.851 47.5282 103.639 47.8466C103.41 48.1601 103.069 48.3738 102.687 48.4437C102.305 48.5137 101.911 48.4346 101.585 48.2228C101.26 48.0109 101.028 47.6824 100.937 47.3048C100.847 46.9272 100.904 46.5292 101.098 46.1927C101.633 45.3058 101.609 45.0102 100.986 44.2192C100.769 43.9573 100.494 43.749 100.183 43.6107C99.8718 43.4723 99.5331 43.4076 99.1929 43.4215C98.8528 43.4354 98.5204 43.5276 98.2217 43.6909C97.923 43.8542 97.666 44.0842 97.4707 44.363C97.271 44.6587 97.3988 44.9383 97.4707 45.2339C97.5375 45.5431 97.5029 45.8655 97.3719 46.1534C97.2409 46.4412 97.0206 46.6792 96.7436 46.8319C96.447 46.9895 96.1082 47.0497 95.7755 47.0038C95.4427 46.9579 95.1329 46.8083 94.89 46.5762C94.7282 46.4011 94.6102 46.19 94.5456 45.9605C94.4811 45.7309 94.4718 45.4894 94.5186 45.2555C94.5653 45.0217 94.6668 44.8023 94.8147 44.6152C94.9626 44.4281 95.1527 44.2787 95.3694 44.1793C95.7289 44.0115 96.1684 43.9795 96.2962 43.4682C96.3978 43.1403 96.4303 42.795 96.3918 42.454C96.3533 42.113 96.2446 41.7836 96.0725 41.4867C95.8277 41.1103 95.4772 40.8147 95.0649 40.637C94.6527 40.4593 94.1971 40.4075 93.7554 40.4879C93.308 40.5279 93.1402 40.8714 92.9564 41.231C92.8706 41.4233 92.7452 41.5955 92.5885 41.7362C92.4318 41.877 92.2473 41.9832 92.0468 42.048C91.8464 42.1128 91.6346 42.1347 91.4252 42.1124C91.2157 42.09 91.0133 42.0238 90.8311 41.9181C90.4791 41.6943 90.2285 41.3417 90.133 40.9356C90.0374 40.5295 90.1045 40.1022 90.3198 39.7449C90.4854 39.4856 90.7308 39.287 91.0189 39.1789C91.307 39.0709 91.6224 39.0592 91.9177 39.1456C92.2174 39.2625 92.5498 39.2643 92.8507 39.1507C93.1517 39.0371 93.3999 38.8161 93.5477 38.5304C93.7378 38.2902 93.875 38.0124 93.9502 37.7154C94.0255 37.4184 94.0371 37.1089 93.9843 36.8071C93.9315 36.5053 93.8154 36.2181 93.6438 35.9643C93.4722 35.7105 93.2488 35.4959 92.9884 35.3345C92.8093 35.2015 92.5922 35.1297 92.3692 35.1297C92.1461 35.1297 91.929 35.2015 91.75 35.3345C91.4654 35.5175 91.1264 35.5968 90.7902 35.559C90.4539 35.5211 90.141 35.3685 89.9043 35.1267C89.6845 34.9123 89.5354 34.6359 89.4767 34.3345C89.418 34.0331 89.4526 33.721 89.5759 33.4398C89.6991 33.1586 89.9052 32.9216 90.1666 32.7605C90.4279 32.5994 90.7322 32.5218 91.0389 32.538C91.2641 32.5397 91.4857 32.5958 91.6846 32.7015C91.8835 32.8072 92.054 32.9595 92.1814 33.1452C92.309 33.3655 92.5115 33.5327 92.752 33.6163C92.9925 33.6998 93.255 33.6943 93.4917 33.6007C93.8258 33.5417 94.1416 33.4061 94.4145 33.2047C94.6874 33.0033 94.91 32.7414 95.0647 32.4395C95.2195 32.1377 95.3023 31.8042 95.3067 31.465C95.311 31.1258 95.2367 30.7903 95.0897 30.4846C95.0305 30.3027 94.915 30.1443 94.7599 30.0323C94.6048 29.9203 94.4181 29.8604 94.2268 29.8614C93.8657 29.849 93.5216 29.7049 93.2595 29.4561C92.9975 29.2073 92.8357 28.8711 92.8046 28.5111C92.7688 28.1595 92.8581 27.8065 93.0569 27.5142C93.2556 27.2219 93.5511 27.0091 93.8912 26.9131C94.2348 26.8171 94.6011 26.8444 94.9266 26.9903C95.2521 27.1363 95.5162 27.3917 95.673 27.7121C95.7785 27.9246 95.8436 28.1549 95.8647 28.3912Z" fill="#72CDDF"/>
</svg>
