<svg width="801" height="900" viewBox="0 0 801 900" fill="none" xmlns="http://www.w3.org/2000/svg">
<path opacity="0.4" fill-rule="evenodd" clip-rule="evenodd" d="M0.0102539 450L800.01 0V450H0.0102539Z" fill="url(#paint0_linear)" fill-opacity="0.4"/>
<path opacity="0.4" fill-rule="evenodd" clip-rule="evenodd" d="M0.0102997 449.999L800.01 900V449.999H0.0102997Z" fill="url(#paint1_linear)" fill-opacity="0.4"/>
<path opacity="0.6" d="M701.967 593C701.967 593 696.372 582.206 665.529 579.097C651.775 576.8 645.406 565.669 625.015 563.149C585.183 558.225 546.171 562.7 520.09 571.776C495.383 580.373 488.341 578.273 455.515 583.065C437.44 584.743 426.985 591.183 426.985 593H701.967Z" fill="white"/>
<path d="M544.327 567.674C544.327 567.674 543.069 571.97 541.141 573.892C544.661 577.401 546.709 576.401 546.709 576.401L549.894 569.729L544.327 567.674Z" fill="#AA633F"/>
<path d="M542.185 572.571C540.386 572.943 538.548 573.1 536.712 573.038C533.272 572.824 530.528 571.637 529.605 574.025C537.702 577.868 544.608 581.044 544.608 581.044C544.608 581.044 547.954 579.71 547.539 574.693C542.48 576.054 542.185 572.571 542.185 572.571Z" fill="#322875"/>
<path d="M610.214 565.912C610.214 565.912 613.051 571.396 612.355 574.092C617.28 574.999 618.137 572.891 618.137 572.891L615.46 562.216L610.214 565.912Z" fill="#AA633F"/>
<path d="M614.643 573.878C614.24 573.888 613.839 573.813 613.468 573.656C613.096 573.5 612.762 573.266 612.489 572.971C611.101 574.139 609.791 575.396 608.567 576.734C606.292 579.309 602.237 578.842 603.548 581.044C605.904 581.044 607.389 580.924 609.143 580.871C610.295 580.831 611.429 580.577 612.489 580.123C617.842 577.855 619.502 576.053 619.502 576.053C619.502 576.053 620.96 574.973 617.655 571.303C617.492 571.995 617.112 572.618 616.571 573.081C616.03 573.544 615.354 573.823 614.643 573.878Z" fill="#322875"/>
<path d="M544.139 415.059C543.838 415.334 543.441 415.48 543.032 415.465C542.624 415.45 542.238 415.276 541.958 414.979L532.456 404.837C532.18 404.539 532.034 404.145 532.049 403.74C532.064 403.335 532.239 402.952 532.536 402.675C532.824 402.39 533.214 402.23 533.62 402.23C534.026 402.23 534.416 402.39 534.704 402.675L544.206 412.817C544.484 413.115 544.633 413.511 544.621 413.918C544.608 414.325 544.435 414.711 544.139 414.992V415.059Z" fill="#322875"/>
<path d="M564.951 390.866C564.951 390.866 569.033 394.869 566.369 408.867C570.264 404.984 576.447 398.979 578.762 399.913C575.751 394.803 572.686 390.052 572.686 385.715C566.905 387.517 564.951 390.866 564.951 390.866Z" fill="#AA633F"/>
<path d="M568.524 406.759C574.399 409.254 565.486 437.797 552.571 444.856C551.937 440.645 551.937 436.363 552.571 432.152C552.571 432.152 563.412 404.637 568.524 406.759Z" fill="#AA633F"/>
<path d="M554.686 439.745C554.686 439.745 554.873 434.407 552.571 432.152C550.269 429.897 542.132 419.983 540.526 416.633C539.635 417.571 538.541 418.292 537.327 418.742C537.327 418.742 546.013 444.856 552.558 444.856L554.686 439.745Z" fill="#AA633F"/>
<path d="M540.312 419.809L540.499 416.633C540.499 416.633 542.6 410.815 541.235 408.867C539.87 406.919 540.941 404.01 537.3 407.626C534.744 410.188 534.624 416.099 537.3 418.741C539.977 421.384 540.312 419.809 540.312 419.809Z" fill="#AA633F"/>
<path d="M591.075 434.274L594.783 434.007C594.783 434.007 608.715 466.966 611.498 469.742C614.282 472.518 610.441 474.786 610.441 474.786C610.441 474.786 588.854 446.15 586.779 437.97C588.083 436.597 589.523 435.359 591.075 434.274Z" fill="#AA633F"/>
<path d="M609.638 470.009C609.73 470.297 609.901 470.554 610.132 470.75C610.362 470.946 610.644 471.073 610.943 471.118C611.243 471.162 611.549 471.122 611.827 471.001C612.105 470.881 612.344 470.685 612.516 470.436C614.376 468.581 615.487 465.512 621.322 465.512C627.157 465.512 623.49 465.913 621.322 468.074C619.154 470.236 613.105 477.415 610.441 474.746C610.398 473.137 610.127 471.543 609.638 470.009Z" fill="#AA633F"/>
<path d="M572.74 468.942L609.638 567.687L617.052 565.832L590.085 458.093L586.779 447.244L570.973 453.676C570.973 453.676 568.765 458.293 572.74 468.942Z" fill="#2C58B1"/>
<path d="M564.951 390.866C566.041 392.65 566.765 394.632 567.079 396.697C572.258 393.815 572.231 389.011 572.793 386.956C571.683 381.872 564.951 390.866 564.951 390.866Z" fill="#934624"/>
<path d="M552.571 369.515C552.571 369.515 553.454 393.334 562.127 393.334C570.799 393.334 567.306 389.505 574.025 382.793C569.608 372.024 567.614 362.11 552.571 369.515Z" fill="#AA633F"/>
<path d="M565.66 371.277C565.66 371.277 564.75 372.451 561.926 372.451C559.102 372.451 558.941 371.277 557.175 371.277C555.408 371.277 556.091 373.039 552.825 373.039C549.56 373.039 545.491 371.971 547.472 367.034C549.453 362.096 554.338 354.544 562.649 356.105C572.218 354.344 577.518 363.484 586.739 363.484C595.96 363.484 606.72 356.986 615.045 356.986C623.369 356.986 635.214 357.333 635.214 367.034C635.214 376.735 626.675 376.001 622.473 380.191C618.27 384.381 614.858 394.042 604.418 395.096C593.979 396.15 576.447 396.337 567.788 380.191C565.66 375.334 563.545 376.214 565.66 371.277Z" fill="#4C266E"/>
<path d="M578.763 485.048C578.763 485.048 589.309 475.614 592.976 469.635C595.331 479.07 593.712 472.558 593.712 472.558C593.712 472.558 581.198 491.56 584.624 500.727L578.763 485.048Z" fill="#294D90"/>
<path d="M572.057 449.366L570.371 456.131L542.266 569.261L550.229 572.17C550.229 572.17 581.078 488.797 583.42 483.98C591.356 476.067 598.235 466.46 590.112 451.154C588.653 448.485 587.02 445.349 586.806 444.802L572.057 449.366Z" fill="#2C58B1"/>
<path d="M564.951 408.52C562.917 417.207 559.597 418.902 559.597 424.72C559.597 430.538 562.006 432.246 565.807 436.036C568.109 443.455 571.576 452.048 570.344 456.132C586.793 456.132 590.058 451.208 590.058 451.208C588.033 446.519 586.894 441.497 586.699 436.396C586.699 428.977 582.269 405.518 580.502 402.329C579.606 400.674 577.223 397.245 577.223 397.245C577.223 397.245 566.998 399.82 564.951 408.52Z" fill="#F5E5E6"/>
<path d="M577.919 402.262C585.949 401.061 591.303 422.945 594.782 432.873C591.785 438.998 589.523 440.986 588.265 438.104C586.886 434.915 568.417 403.69 577.919 402.262Z" fill="#AA633F"/>
<path d="M524.786 394.159L526.463 393.2C525.295 390.546 523.847 388.026 522.142 385.682L520.809 387.288C522.365 389.437 523.698 391.739 524.786 394.159Z" fill="#335AA9"/>
<path d="M516.879 382.516L517.986 380.605C518.727 381.385 519.452 382.165 520.146 383.038L518.945 384.809C518.259 384.021 517.573 383.249 516.879 382.516ZM512.48 378.562L513.26 376.394C514.04 377.018 514.874 377.689 515.654 378.383L514.711 380.434C514.001 379.779 513.244 379.147 512.48 378.562Z" fill="#335AA9"/>
<path d="M510.148 376.924L510.803 374.655C508.536 373.3 506.144 372.167 503.66 371.271L504.058 373.836C506.191 374.648 508.233 375.683 510.148 376.924Z" fill="#335AA9"/>
<path d="M494.649 348.538H425.781C424.354 348.538 423.192 350.511 423.192 352.944V402.012C423.192 404.445 424.354 406.418 425.781 406.418H494.649C496.076 406.418 497.238 404.445 497.238 402.012V352.944C497.238 350.511 496.076 348.538 494.649 348.538Z" fill="#C4E8F0"/>
<path d="M453.98 358.567H489.096V364.431H453.98V358.567Z" fill="white"/>
<path d="M470.903 371.972C466.63 372.708 462.535 374.243 458.831 376.495C456.834 377.681 444.739 372.596 441.394 373.08C438.048 373.563 433.595 377.283 432.184 382.711C431.864 383.904 432.706 391.967 441.581 391.765C450.455 391.562 454.253 394.79 460.422 399.376C466.59 403.961 480.565 401.427 481.064 394.868C481.563 388.31 492.762 388.248 483.684 373.657C481.345 369.882 478.225 370.475 476.479 370.74C474.599 371.05 472.738 371.461 470.903 371.972Z" fill="#9CCEDB"/>
<path d="M440.349 383.631C440.349 383.631 425.625 351.915 440.879 351.922C457.24 351.915 440.349 383.631 440.349 383.631ZM444.856 359.393C444.856 356.89 443.14 354.862 441.019 354.862C438.898 354.862 437.229 356.882 437.229 359.385C437.229 361.889 438.945 363.916 441.058 363.916C443.172 363.916 444.895 361.889 444.895 359.385L444.856 359.393Z" fill="#F05553"/>
<line y1="-1.5" x2="86.5684" y2="-1.5" transform="matrix(0.457256 0.889335 0.889335 -0.457256 441.442 336.361)" stroke="#F05452" stroke-width="3"/>
<circle r="42.8358" transform="matrix(-0.975934 -0.218065 -0.218065 0.975934 460.992 375.937)" stroke="#F05553" stroke-width="3"/>
<defs>
<linearGradient id="paint0_linear" x1="400.01" y1="0" x2="71.1939" y2="359.195" gradientUnits="userSpaceOnUse">
<stop offset="0.390625" stop-color="#43C4D9"/>
<stop offset="1" stop-color="white" stop-opacity="0.32"/>
</linearGradient>
<linearGradient id="paint1_linear" x1="400.01" y1="900" x2="71.1939" y2="540.804" gradientUnits="userSpaceOnUse">
<stop offset="0.390625" stop-color="#43C4D9"/>
<stop offset="1" stop-color="white" stop-opacity="0.32"/>
</linearGradient>
</defs>
</svg>
