<svg width="800" height="900" viewBox="0 0 800 900" fill="none" xmlns="http://www.w3.org/2000/svg">
<path opacity="0.4" fill-rule="evenodd" clip-rule="evenodd" d="M0.0107422 450L800.01 0V450H0.0107422Z" fill="url(#paint0_linear)" fill-opacity="0.4"/>
<path opacity="0.4" fill-rule="evenodd" clip-rule="evenodd" d="M0.0115051 450L800.011 900V450H0.0115051Z" fill="url(#paint1_linear)" fill-opacity="0.4"/>
<mask id="mask0" mask-type="alpha" maskUnits="userSpaceOnUse" x="414" y="314" width="289" height="284">
<rect x="414.011" y="314" width="288" height="284" fill="#C4C4C4"/>
</mask>
<g mask="url(#mask0)">
<path opacity="0.6" fill-rule="evenodd" clip-rule="evenodd" d="M560.997 348.599C587.514 347.148 614.695 343.385 638.338 356.932C664.404 371.869 688.76 395.261 697.26 426.68C705.702 457.881 692.963 490.204 682.642 520.685C672.822 549.685 661.327 578.5 639.434 597.453C617.128 616.764 589.172 626.25 560.997 625.995C532.982 625.741 506.365 614.163 483.476 596.04C460.333 577.715 439.008 554.184 431.576 523.519C424.315 493.559 433.725 462.519 444.143 433.754C453.898 406.82 467.218 380.944 488.951 365.106C510.021 349.751 535.901 349.972 560.997 348.599Z" fill="white"/>
</g>
<path d="M418.76 598.438H685.112C685.112 598.438 681.373 570.048 660.624 566.033C639.876 562.018 623.15 567.656 610.788 576.951C598.427 586.247 568.65 564.443 538.865 564.784C509.08 565.125 491.852 580.017 472.036 583.781C452.22 587.545 434.31 581.591 418.76 598.438Z" fill="#C4E8F0"/>
<path d="M619.686 491.758H614.592V541.829H619.686V491.758Z" fill="#C4E8F0"/>
<path d="M635.341 501.621H451.108V517.154H635.341V501.621Z" fill="#C4E8F0"/>
<path d="M635.211 479.477H450.979V495.01H635.211V479.477Z" fill="#C4E8F0"/>
<path d="M643.891 540.539H449.94V549.997H643.891V540.539Z" fill="#C4E8F0"/>
<path d="M639.875 549.421H635.293V598.43H639.875V549.421Z" fill="#C4E8F0"/>
<path d="M470.746 492.618H465.652V542.689H470.746V492.618Z" fill="#C4E8F0"/>
<path d="M580.127 442.295C578.967 441.078 572.462 441.094 570.572 446.691C568.853 451.785 568.139 453.935 565.227 458.347C562.315 462.76 553.571 463.855 548.193 469.435C541.55 476.338 545.208 492.22 554.877 494.848C560.603 496.406 595.336 491.263 608.201 485.926C611.875 484.401 614.957 482.924 614.317 470.952C614 465.031 604.883 460.699 600.941 454.729C597.502 449.514 597.859 444.501 592.781 441.865C587.955 439.334 583.567 438.28 580.127 442.295Z" fill="#4C266E"/>
<path d="M592.611 468.057C591.167 470.102 589.153 471.677 586.819 472.583C582.074 474.473 575.966 472.68 572.633 470.149C572.957 472.364 579.624 476.476 584.426 476.468C589.228 476.46 593.844 474.943 594.971 470.02C594.136 469.425 593.347 468.769 592.611 468.057Z" fill="#AA633F"/>
<path d="M586.819 472.591C589.153 471.684 591.167 470.11 592.611 468.064C591.592 467.18 590.733 466.126 590.072 464.95C588.774 459.767 579.576 463.92 578.408 465.712C577.41 467.261 573.403 469.703 572.633 470.19C575.966 472.68 582.074 474.472 586.819 472.591Z" fill="#934624"/>
<path d="M600.325 475.024C602.336 478.642 603.569 488.31 605.548 499.431C606.424 504.428 606.635 510.965 606.814 513.391C604.315 514.161 599.514 503.852 597.137 496.357C596.066 492.901 592.27 487.434 594.85 480.394C595.766 477.944 598.41 475.024 600.325 475.024Z" fill="#934624"/>
<path d="M566.298 475.073C564.156 478.658 561.009 487.864 558.486 499.107C557.375 504.055 555.931 507.786 555.331 510.138C557.667 511.33 564.391 502.254 567.985 495.286C569.607 492.042 572.632 486.072 571.278 478.699C570.799 476.103 568.179 475.413 566.298 475.073Z" fill="#934624"/>
<path d="M598.646 540.596C599.625 539.717 600.416 538.649 600.974 537.457C600.6 533.515 598.921 529.532 595.742 528.356C588.442 525.687 587.809 528.964 583.761 529.508C581.847 529.759 581.433 527.075 576.502 527.886C569.128 529.005 563.313 535.324 562.242 540.328C562.68 540.693 563.102 541.018 563.499 541.326C572.04 541.359 589.472 541.999 598.646 540.596Z" fill="#D4C1DB"/>
<path d="M584.013 490.265C591.637 489.649 593.836 489.325 598.175 486.258C597.567 484.206 596.845 482.754 597.137 480.897C597.745 477.109 598.637 476.882 600.325 475.04C599.4 473.224 596.472 470.985 594.817 469.93C593.957 472.364 587.963 475.835 584.97 475.835C583.696 475.835 579.47 476.647 573.119 469.874C571.797 470.636 567.263 473.207 566.298 475.073C567.709 475.616 568.552 475.681 569.664 478.18C570.653 480.378 569.996 482.9 569.396 485.877C572.438 488.619 577.021 490.825 584.013 490.265Z" fill="#EFE6E8"/>
<path d="M592.294 509.505C592.386 507.164 592.961 504.866 593.981 502.757C592.479 503.196 591.047 503.849 589.731 504.695C587.176 506.212 580.606 513.196 576.98 513.918C572.04 514.891 568.058 519.596 567.417 521.794C566.776 523.992 568.877 526.661 572.795 528.883C573.985 528.395 575.23 528.049 576.502 527.853C581.433 527.099 581.847 529.759 583.761 529.476C587.817 528.932 588.474 525.655 595.742 528.324C598.921 529.5 600.608 533.483 600.973 537.425C603.569 532.233 600.617 525.12 598.159 520.553C595.604 515.849 592.197 514.064 592.294 509.505Z" fill="#EFE6E8"/>
<path d="M567.417 521.794C568.074 519.612 572.04 514.891 576.98 513.918C580.606 513.196 587.176 506.212 589.731 504.695C591.048 503.848 592.479 503.195 593.982 502.757C594.226 502.272 594.497 501.801 594.793 501.345C598.597 495.181 599.327 491.782 598.71 488.286C598.584 487.601 598.418 486.924 598.216 486.258C593.876 489.324 591.678 489.649 584.053 490.265C577.094 490.825 572.478 488.643 569.453 485.877C569.028 487.789 568.813 489.742 568.812 491.701C568.744 492.544 568.863 493.392 569.16 494.184C569.457 494.977 569.926 495.693 570.532 496.284C572.381 498.433 573.549 505.936 572.259 508.232C570.824 510.771 570.199 510.9 566.046 514.818C561.601 519.012 556.564 526.985 558.308 533.937C558.872 536.45 560.28 538.695 562.299 540.296C563.183 536.167 567.303 531.146 572.843 528.883C568.909 526.645 566.744 524.049 567.417 521.794Z" fill="#D4C1DB"/>
<path d="M592.432 457.39C592.757 464.131 589.35 470.823 584.767 471.033C580.184 471.244 576.161 464.917 575.845 458.185C575.528 451.453 579.032 446.829 583.615 446.643C588.198 446.456 592.075 450.69 592.432 457.39Z" fill="#AA633F"/>
<path d="M579.365 452.929C579.365 452.929 582.285 459.361 586.308 460.318C588.904 460.943 591.792 460.578 592.935 456.757C594.655 458.858 593.162 464.617 593.162 464.617C593.162 464.617 598.078 446.205 588.985 443.633C579.892 441.062 572.689 449.928 572.673 454.746C572.657 459.564 576.12 464.942 576.12 464.942C576.12 464.942 573.947 460.27 576.242 460.61C579.681 461.089 579.454 456.547 579.365 452.929Z" fill="#4C266E"/>
<path d="M459.682 548.277H455.099V598.438H459.682V548.277Z" fill="#C4E8F0"/>
<path d="M643.136 540.783H639.697L646.957 505.872H650.842L643.136 540.783Z" fill="#C4E8F0"/>
<path d="M451.352 540.783H454.791L447.523 505.872H443.638L451.352 540.783Z" fill="#C4E8F0"/>
<path d="M573.022 493.526C568.447 498.839 561.05 501.507 559.151 502.927C557.714 503.92 556.602 505.317 555.957 506.941C555.312 508.564 555.162 510.343 555.526 512.052C555.98 513.61 558.916 513.674 560.685 513.245C566.289 511.995 570.848 502.197 574.644 496.843C575.691 495.375 573.841 494.207 573.022 493.526Z" fill="#AA633F"/>
<path d="M614.82 533.166C623.117 534.123 630.426 527.537 633.135 522.621C632.779 521.428 632.041 520.384 631.034 519.651C630.028 518.918 628.808 518.537 627.562 518.565L607.195 518.93C606.113 518.946 605.058 519.27 604.154 519.865C603.25 520.46 602.535 521.301 602.093 522.289C604.226 527.042 608.72 532.468 614.82 533.166Z" fill="#72CDDF"/>
<path d="M635.95 535.445L633.24 523.059C633.24 522.921 633.176 522.784 633.135 522.654C630.426 527.521 623.117 534.123 614.82 533.199C612.691 532.931 610.663 532.134 608.923 530.879C609.207 534.813 610.131 538.625 610.788 542.389H630.369C631.226 542.396 632.073 542.208 632.848 541.841C633.622 541.474 634.303 540.936 634.84 540.268C635.377 539.6 635.756 538.819 635.948 537.984C636.14 537.149 636.141 536.281 635.95 535.445Z" fill="#43C4D9"/>
<path d="M602.093 522.297C601.883 522.765 601.736 523.258 601.655 523.765L599.789 535.762C599.657 536.58 599.705 537.417 599.93 538.214C600.155 539.012 600.552 539.75 601.093 540.378C601.635 541.006 602.306 541.507 603.062 541.848C603.818 542.188 604.639 542.359 605.467 542.348H610.829C610.172 538.584 609.247 534.772 608.963 530.838C605.965 528.641 603.596 525.696 602.093 522.297Z" fill="#43C4D9"/>
<path d="M608.225 518.979C610.521 512.669 615.663 501.8 624.326 503.406C628.722 504.217 628.868 514.153 628.195 518.817C628.106 519.466 625.965 519.563 626.094 518.768C627.051 513.042 626.094 506.342 623.231 505.677C617.496 504.338 612.686 514.372 610.707 518.963C610.358 519.807 607.998 519.636 608.225 518.979Z" fill="#4C266E"/>
<path d="M576.526 593.32C577.735 595.858 571.521 596.71 570.037 593.822C570.037 592.898 570.142 589.199 569.964 586.214C569.915 585.297 572.592 582.386 573.663 584.592C573.476 585.687 574.863 591.754 576.526 593.32Z" fill="#934624"/>
<path d="M590.567 494.734C594.152 500.753 601.347 504.046 602.969 505.766C606.716 509.546 607.236 512.798 606.651 513.983C605.93 515.443 603.115 515.8 601.436 515.11C596.139 512.912 591.216 503.641 588.393 497.719C587.622 496.113 589.642 495.254 590.567 494.734Z" fill="#AA633F"/>
<path d="M593.827 548.237C596.942 540.831 598.694 531.479 593.13 529.313C589.431 527.893 584.84 533.75 583.396 538.503C578.894 553.687 571.546 577.34 569.842 586.271C570.507 587.122 570.232 584.77 573.598 584.997C574.02 578.987 587.184 564.013 593.827 548.237Z" fill="#934624"/>
<path d="M583.631 544.035C585.619 535.778 584.443 531.422 580.833 530.019C577.223 528.615 573.192 532.906 571.781 537.66C567.279 552.844 567.587 577.754 565.884 586.693C566.549 587.544 567.117 585.881 570.475 586.133C573.208 577.227 579.616 560.728 583.631 544.035Z" fill="#AA633F"/>
<path d="M576.51 598.438H570.532C570.428 598.352 570.338 598.251 570.264 598.138C569.615 597.221 569.899 595.38 569.988 593.814C571.683 595.437 575.415 595.721 576.477 593.312C577.726 594.609 577.954 595.242 577.726 596.905C577.655 597.237 577.508 597.547 577.297 597.813C577.086 598.079 576.816 598.293 576.51 598.438Z" fill="#322875"/>
<path d="M563.824 598.438H569.802C569.901 598.348 569.991 598.247 570.069 598.138C570.71 597.221 570.434 595.38 570.337 593.814C568.642 595.437 564.91 595.721 563.848 593.312C562.599 594.609 562.372 595.242 562.599 596.905C562.671 597.237 562.82 597.549 563.032 597.814C563.245 598.08 563.515 598.294 563.824 598.438Z" fill="#322875"/>
<path d="M563.815 593.312C563.004 595.997 569.242 596.897 570.305 593.823C570.256 593.012 569.721 588.542 570.686 585.395C570.953 584.519 566.857 582.743 566.103 585.063C565.665 587.812 565.219 591.527 563.815 593.312Z" fill="#AA633F"/>
<path d="M584.702 479.939H580.914C580.112 479.939 579.462 480.59 579.462 481.391V491.677C579.462 492.478 580.112 493.128 580.914 493.128H584.702C585.504 493.128 586.154 492.478 586.154 491.677V481.391C586.154 480.59 585.504 479.939 584.702 479.939Z" fill="#322875"/>
<path d="M589.999 488.237C589.683 487.102 586.381 484.538 585.943 484.717C585.375 485.017 588.377 487.41 588.141 487.661C587.906 487.913 584.897 484.027 584.378 484.717C584.199 484.96 587.452 488.253 587.241 488.245C587.241 488.245 584.305 485.001 583.996 485.163C583.396 485.301 586.503 488.651 586.381 488.805C586.26 488.959 584.232 486.177 583.834 486.485C583.648 486.688 584.856 488.107 586.195 490.119C587.241 490.435 589.82 489.519 589.999 488.237Z" fill="#AA633F"/>
<path d="M590.656 494.889C589.885 493.266 590.234 488.975 590.007 488.237C588.936 487.296 586.827 488.886 586.154 490.119C587.776 494.11 585.886 494.564 588.352 497.606C589.265 496.834 590.044 495.916 590.656 494.889Z" fill="#AA633F"/>
<path d="M574.725 487.288C575.463 485.909 578.781 484.352 579.211 484.612C579.698 484.993 576.412 486.785 576.615 487.045C576.818 487.305 580.33 484.101 580.671 484.855C580.801 485.123 577.142 487.734 577.345 487.759C577.345 487.799 580.687 485.179 580.987 485.325C581.547 485.561 578.018 488.245 578.108 488.416C578.197 488.586 580.598 486.258 580.93 486.631C581.076 486.85 579.625 488.002 578.018 489.689C576.948 489.9 574.685 488.554 574.725 487.288Z" fill="#AA633F"/>
<path d="M572.908 493.68C573.938 492.261 574.376 488.002 574.725 487.296C575.942 486.55 577.686 488.278 578.14 489.608C575.853 493.266 577.662 494.191 574.709 496.762C573.942 495.842 573.333 494.801 572.908 493.68Z" fill="#AA633F"/>
<path d="M672.929 597.599L692.396 598.199C692.396 598.199 696.184 594.216 695.268 590.623C694.351 587.03 690.296 591.815 689.03 593.259C687.765 594.703 688.909 586.056 686.11 583.42C683.312 580.784 682.233 587.062 682.257 591.029C682.282 594.995 679.361 588.319 676.579 584.199C673.797 580.078 671.656 582.236 672.402 585.01C673.148 587.784 675.752 592.042 675.079 593.3C674.405 594.557 671.169 590.29 669.401 591.677C667.633 593.064 668.403 595.449 672.929 597.599Z" fill="#71CDDF"/>
<path d="M418.347 597.353L437.814 597.953C437.814 597.953 441.602 593.962 440.685 590.377C439.769 586.792 435.713 591.569 434.448 593.005C433.182 594.441 434.326 585.81 431.528 583.166C428.729 580.521 427.651 586.816 427.675 590.782C427.699 594.749 424.779 588.073 421.997 583.953C419.215 579.832 417.073 581.982 417.82 584.764C418.566 587.546 421.17 591.788 420.496 593.045C419.823 594.303 416.587 590.036 414.818 591.423C413.05 592.81 413.821 595.195 418.347 597.353Z" fill="#71CDDF"/>
<path d="M426.255 568.12H425.777V596.501H426.255V568.12Z" fill="#71CDDF" stroke="#71CDDF" stroke-width="0.5" stroke-miterlimit="10"/>
<path d="M426.02 582.549C426.02 582.549 424.471 576.661 422.394 578.21C420.318 579.759 426.02 582.549 426.02 582.549Z" fill="#71CDDF"/>
<path d="M426.02 582.549C426.02 582.549 427.561 576.661 429.638 578.21C431.714 579.759 426.02 582.549 426.02 582.549Z" fill="#71CDDF"/>
<path d="M426.45 568.549C427.457 568.815 428.491 568.96 429.532 568.979C430.538 568.979 432.355 568.079 432.387 566.343C432.42 564.607 432.209 563.099 433.004 562.393C433.603 561.724 433.967 560.877 434.039 559.982C434.11 559.087 433.886 558.193 433.401 557.437C432.095 555.515 430.538 555.734 429.784 555.231C429.029 554.728 427.902 551.516 425.185 551.516C422.467 551.516 421.891 554.306 421.599 555.141C421.307 555.977 418.014 556.261 417.333 559.197C416.651 562.133 419.32 563.537 419.32 564.064C419.32 564.591 418.128 567.609 420.877 568.931C423.627 570.253 425.095 568.412 426.45 568.549Z" fill="#F05553"/>
<path d="M425.639 563.52C426.898 563.52 427.918 562.5 427.918 561.241C427.918 559.982 426.898 558.962 425.639 558.962C424.38 558.962 423.36 559.982 423.36 561.241C423.36 562.5 424.38 563.52 425.639 563.52Z" fill="white"/>
<path d="M551.876 455.468L553.952 454.292C552.51 451.02 550.727 447.909 548.631 445.012L547.009 446.991C548.913 449.645 550.544 452.485 551.876 455.468Z" fill="#335AA9"/>
<path d="M544.648 443.958L546.141 441.768C545.281 440.73 544.389 439.716 543.472 438.767L542.142 441.135C543.002 442.027 543.845 442.976 544.648 443.958ZM539.506 438.564L540.658 436.041C539.7 435.182 538.711 434.354 537.713 433.608L536.732 436.277C537.673 436.982 538.605 437.753 539.506 438.564Z" fill="#335AA9"/>
<path d="M533.86 434.241L534.671 431.442C531.875 429.78 528.928 428.384 525.871 427.273L526.365 430.436C528.99 431.438 531.502 432.713 533.86 434.241Z" fill="#335AA9"/>
<path d="M514.88 397.156V447.543C514.897 448.038 514.719 448.52 514.383 448.885C514.048 449.249 513.582 449.467 513.087 449.49H488.396C487.92 449.469 487.47 449.268 487.137 448.928C486.804 448.587 486.614 448.133 486.604 447.657V397.156C486.584 396.659 486.761 396.175 487.097 395.809C487.433 395.442 487.9 395.224 488.396 395.201H513.087C513.584 395.224 514.051 395.442 514.386 395.809C514.722 396.175 514.9 396.659 514.88 397.156Z" fill="#322875"/>
<path d="M514.88 397.156V400.059H486.604V397.156C486.584 396.659 486.761 396.175 487.097 395.809C487.433 395.442 487.9 395.224 488.396 395.201H513.087C513.584 395.224 514.051 395.442 514.386 395.809C514.722 396.175 514.9 396.659 514.88 397.156Z" fill="#A680B7"/>
<path d="M514.88 444.631V447.543C514.897 448.038 514.719 448.521 514.383 448.885C514.048 449.249 513.582 449.467 513.087 449.49H488.396C487.901 449.469 487.434 449.252 487.098 448.887C486.761 448.522 486.584 448.039 486.604 447.543V444.631H514.88Z" fill="#A680B7"/>
<path d="M500.742 448.168C501.871 448.168 502.786 447.674 502.786 447.065C502.786 446.455 501.871 445.961 500.742 445.961C499.613 445.961 498.698 446.455 498.698 447.065C498.698 447.674 499.613 448.168 500.742 448.168Z" fill="#322875"/>
<path d="M501.374 397.52C501.363 397.644 501.316 397.763 501.239 397.86C501.162 397.958 501.058 398.031 500.94 398.071C500.822 398.111 500.695 398.115 500.574 398.084C500.454 398.052 500.345 397.986 500.262 397.894C500.178 397.802 500.123 397.687 500.103 397.564C500.084 397.441 500.101 397.315 500.151 397.201C500.202 397.088 500.285 396.991 500.39 396.924C500.495 396.857 500.617 396.822 500.742 396.823C500.918 396.833 501.082 396.912 501.2 397.043C501.319 397.173 501.381 397.344 501.374 397.52Z" fill="#322875"/>
<path d="M520.606 386.416L523.981 381.744C524.281 381.33 524.492 381.233 524.97 381.379C525.238 381.45 525.489 381.574 525.709 381.742C525.929 381.91 526.113 382.121 526.252 382.36C526.342 382.496 526.385 382.657 526.375 382.82C526.365 382.983 526.302 383.137 526.195 383.261C523.908 386.408 521.628 389.558 519.357 392.71C519.271 392.86 519.136 392.975 518.975 393.037C518.814 393.099 518.637 393.104 518.473 393.051C518.177 392.981 517.899 392.849 517.659 392.663C517.418 392.476 517.22 392.241 517.078 391.972C517.001 391.848 516.966 391.702 516.978 391.556C516.99 391.41 517.047 391.272 517.143 391.161C518.303 389.604 519.43 388.006 520.606 386.416Z" fill="#322875"/>
<path d="M521.052 399.873C520.763 399.565 520.577 399.174 520.52 398.755C520.463 398.337 520.539 397.91 520.736 397.537C520.87 397.396 521.047 397.304 521.239 397.277C524.651 396.774 528.063 396.282 531.476 395.801C531.93 395.728 532.392 395.687 532.838 395.598C532.999 395.562 533.166 395.582 533.314 395.654C533.461 395.726 533.58 395.847 533.649 395.995C533.798 396.243 533.894 396.518 533.933 396.804C533.972 397.089 533.953 397.38 533.877 397.658C533.846 397.818 533.763 397.963 533.642 398.07C533.52 398.177 533.365 398.241 533.203 398.25C531.175 398.526 529.148 398.826 527.12 399.118C525.278 399.386 523.437 399.654 521.596 399.929C521.414 399.925 521.232 399.906 521.052 399.873Z" fill="#322875"/>
<path d="M507.839 378.248C508.138 377.96 508.52 377.774 508.93 377.715C509.341 377.657 509.76 377.73 510.127 377.923C510.285 378.067 510.389 378.263 510.419 378.475C510.959 382.163 511.5 385.851 512.041 389.539C512.05 389.684 512.072 389.828 512.106 389.969C512.163 390.14 512.154 390.327 512.081 390.492C512.007 390.657 511.874 390.789 511.708 390.861C511.441 391.037 511.133 391.142 510.814 391.167C510.495 391.193 510.175 391.138 509.883 391.007C509.787 390.953 509.703 390.88 509.636 390.792C509.569 390.704 509.521 390.603 509.494 390.496C508.894 386.581 508.307 382.666 507.734 378.751C507.745 378.579 507.78 378.41 507.839 378.248Z" fill="#322875"/>
<path d="M502.502 425.724L503.8 427.013C504.124 427.33 504.124 427.33 503.8 427.646L502.437 429C502.574 429.072 502.705 429.156 502.826 429.252C503.199 429.609 503.564 429.99 503.938 430.355C504.035 430.444 504.092 430.525 503.938 430.647L500.693 433.892C500.378 433.532 500.039 433.193 499.679 432.878C499.412 432.666 499.203 432.389 499.072 432.074C498.942 431.759 498.894 431.416 498.933 431.077C498.933 427.597 498.933 424.109 498.933 420.621C498.946 420.533 498.926 420.442 498.876 420.368C498.827 420.293 498.752 420.239 498.665 420.216C497.71 419.86 496.882 419.228 496.289 418.399C495.575 417.434 495.207 416.257 495.242 415.057C495.246 414.179 495.47 413.316 495.896 412.547C496.321 411.779 496.933 411.13 497.676 410.661C498.716 409.953 499.97 409.629 501.223 409.743C502.477 409.856 503.651 410.402 504.547 411.285C505.443 412.169 506.005 413.336 506.136 414.587C506.268 415.839 505.961 417.097 505.268 418.148C504.665 419.094 503.771 419.82 502.721 420.216C502.639 420.237 502.567 420.287 502.519 420.358C502.471 420.428 502.451 420.513 502.461 420.597C502.461 421.141 502.461 421.684 502.461 422.219C502.471 422.37 502.531 422.513 502.632 422.625C503.037 423.055 503.443 423.477 503.889 423.89C504.059 424.044 504.051 424.158 503.889 424.32C503.443 424.774 502.989 425.237 502.502 425.724ZM500.774 412.283C500.466 412.28 500.164 412.368 499.906 412.536C499.648 412.705 499.446 412.946 499.325 413.229C499.205 413.513 499.171 413.826 499.228 414.128C499.284 414.431 499.43 414.71 499.645 414.93C499.861 415.15 500.137 415.301 500.438 415.365C500.74 415.428 501.053 415.4 501.339 415.285C501.625 415.17 501.87 414.973 502.044 414.719C502.218 414.465 502.312 414.165 502.315 413.857C502.32 413.652 502.283 413.448 502.207 413.257C502.132 413.066 502.019 412.892 501.876 412.746C501.732 412.599 501.561 412.483 501.372 412.403C501.182 412.324 500.979 412.283 500.774 412.283Z" fill="white"/>
<defs>
<linearGradient id="paint0_linear" x1="400.01" y1="0" x2="71.1945" y2="359.195" gradientUnits="userSpaceOnUse">
<stop offset="0.390625" stop-color="#43C4D9"/>
<stop offset="1" stop-color="white" stop-opacity="0.32"/>
</linearGradient>
<linearGradient id="paint1_linear" x1="400.011" y1="900" x2="71.1952" y2="540.805" gradientUnits="userSpaceOnUse">
<stop offset="0.390625" stop-color="#43C4D9"/>
<stop offset="1" stop-color="white" stop-opacity="0.32"/>
</linearGradient>
</defs>
</svg>
