<svg width="435" height="296" viewBox="0 0 435 296" fill="none" xmlns="http://www.w3.org/2000/svg">
<path d="M1.77151 1H433.185V295H1.77151V1Z" fill="#828282" stroke="#DDDDDD" stroke-width="2"/>
<path d="M3.36954 269.435H431.587V293.402H3.36954V269.435Z" fill="white"/>
<path d="M9.76099 277.424H425.196V287.011H9.76099V277.424Z" fill="#DDDDDD"/>
<path d="M185.522 277.424H425.196V287.011H185.522V277.424Z" fill="#868686"/>
<path fill-rule="evenodd" clip-rule="evenodd" d="M217.478 175.163C196.299 175.163 179.13 157.994 179.13 136.815C179.13 115.636 196.299 98.4674 217.478 98.4674C238.657 98.4674 255.826 115.636 255.826 136.815C255.826 157.994 238.657 175.163 217.478 175.163Z" stroke="white" stroke-width="2"/>
<path fill-rule="evenodd" clip-rule="evenodd" d="M234.897 134.65L214.822 120.083C212.884 118.677 210.056 119.96 210.056 122.246L210.058 151.384C210.058 153.671 212.887 154.954 214.824 153.548L234.899 138.976C236.412 137.878 236.412 135.748 234.897 134.65Z" stroke="white" stroke-width="2"/>
</svg>
