<svg width="382" height="267" viewBox="0 0 382 267" fill="none" xmlns="http://www.w3.org/2000/svg">
<path d="M184.861 29.0732L0.0107422 263.537L184.861 264.322L369.699 263.537L184.861 29.0732Z" fill="#C1E2ED"/>
<path d="M135.096 92.1908C135.096 92.1908 156.687 92.0407 165.113 93.0681C172.912 97.5814 156.189 131.322 154.682 131.033C153.176 130.745 112.485 120.806 112.961 120.206L135.096 92.1908Z" fill="#E7AD83"/>
<path d="M229.573 139.056C229.573 139.056 243.306 170.846 247.2 184.64C251.094 198.434 265.43 233.19 269.15 235.718C272.87 238.246 338.883 256.692 345.084 256.3C344.377 256.3 345.084 265.43 345.084 265.43C345.084 265.43 258.882 262.037 254.687 259.659C250.491 257.281 242.054 249.397 236.271 236.642C218.887 198.388 214.101 178.765 214.101 178.765L229.573 139.056Z" fill="#E7AD83"/>
<path d="M165.113 93.0684L179.982 98.5975L228.147 133.365L232.146 140.949L234.29 145.024C234.29 145.024 222.005 164.532 222.005 167.741C222.005 170.95 219.05 185.506 216.732 191.335C214.414 197.164 207.367 208.234 183.123 209.111C183.424 209.4 169.378 223.968 169.088 228.631C168.798 233.294 186.599 264.311 186.599 264.311L64.9807 263.757C64.9807 263.757 92.7256 218.427 105.01 202.405C114.664 182.597 160.732 115.935 165.113 93.0684Z" fill="#F05452"/>
<path d="M214.101 6.15994C214.101 6.15994 196.949 7.64901 189.531 17.8762C182.114 28.1034 187.214 40.5354 184.896 48.8811C182.578 57.2268 170.038 58.9813 171.985 76.0305C173.932 93.0797 198.896 91.9485 198.896 91.9485L215.862 100.629C215.862 100.629 228.53 109.863 238.288 105.35C248.046 100.837 249.205 98.5512 257.005 98.1703C264.804 97.7893 274.389 104.184 283.521 103.018C292.654 101.853 307.499 90.4017 298.147 72.1405C288.794 53.8793 273.183 49.0542 269.092 40.293C265.001 31.5318 266.948 18.361 251.546 7.67209C236.144 -3.01685 220.73 1.11559 214.101 6.15994Z" fill="#4C266E"/>
<path d="M247.64 53.4522C249.599 76.273 239.412 99.3593 224.531 100.617C209.651 101.876 195.685 80.8441 193.738 58.0233C191.791 35.2025 202.581 19.2153 217.462 17.9571C232.343 16.6989 245.705 30.6199 247.64 53.4522Z" fill="#E7AD83"/>
<path d="M201.237 76.0308C201.237 76.0308 190.122 101.426 188.373 101.853C186.623 102.28 179.982 98.5514 179.982 98.5514C179.982 98.5514 175.891 126.913 178.614 133.319C181.338 139.726 184.664 149.249 201.237 151.188C217.809 153.127 228.147 133.319 228.147 133.319C228.147 133.319 214.321 121.776 214.298 118.752C214.298 116.443 222.689 94.5113 222.689 94.5113L201.237 76.0308Z" fill="#E7AD83"/>
<path d="M199.498 79.9897C199.498 79.9897 202.836 96.4156 220.463 100.421C219.212 103.792 218.146 106.62 218.146 106.62C218.146 106.62 197.459 103.734 194.712 90.3209C194.932 89.9746 199.498 79.9897 199.498 79.9897Z" fill="#CF8D65"/>
<path d="M341.236 255.827C341.236 255.827 356.673 252.225 361.9 252.421C366.628 252.594 376.41 255.884 379.597 259.797C382.784 263.711 379.597 265.43 379.597 265.43C379.597 265.43 377.117 266.793 371.276 266.977C365.435 267.162 342.963 265.43 342.963 265.43L341.236 255.827Z" fill="#E7AD83"/>
<path d="M199.498 79.99C199.498 79.99 195.245 70.7554 196.844 54.4219C198.444 38.0884 205.942 30.1005 207.611 31.6935C209.28 33.2864 213.811 42.3362 223.175 44.0793C232.54 45.8223 244.372 42.0361 249.831 58.4966C259.334 45.5337 243.549 9.7038 214.147 15.2445C184.745 20.7852 184.281 68.4122 199.498 79.99Z" fill="#4C266E"/>
<path d="M148.354 129.521C148.354 129.521 145.017 158.61 171.742 180.311C198.467 202.012 212.154 198.469 212.154 198.469C212.154 198.469 204.702 209.631 183.053 209.054C170.189 204.102 152.643 194.198 133.485 201.62C114.328 209.042 98.2189 243.406 94.4176 263.884C82.5733 263.884 64.9922 263.757 64.9922 263.757C64.9922 263.757 83.5352 233.837 106.911 196.922C130.287 160.007 148.354 129.521 148.354 129.521Z" fill="#C2394E"/>
</svg>
