<svg width="422" height="575" viewBox="0 0 422 575" fill="none" xmlns="http://www.w3.org/2000/svg">
<g opacity="0.7">
<path d="M210.944 420.978C327.169 420.978 421.388 326.739 421.388 210.489C421.388 94.239 327.169 0 210.944 0C94.7194 0 0.500488 94.239 0.500488 210.489C0.500488 326.739 94.7194 420.978 210.944 420.978Z" fill="#D0EDF6"/>
<path d="M186.235 237.637C190.344 237.474 186.235 237.637 186.235 237.637V237.637Z" fill="#43C4D9"/>
<path d="M316.33 373.925C315.951 371.383 315.951 372.411 316.33 371.167C316.74 370.005 316.906 368.772 316.816 367.543C316.816 365.813 315.357 367.219 314.167 367.543C312.977 367.868 313.626 368.949 313.464 370.896C313.302 372.843 311.95 372.411 311.95 372.411C310.977 372.411 308.976 374.79 308.49 375.223C308.003 375.656 304.867 377.386 304.867 377.386L300.109 379.658C298.561 380.324 297.191 381.343 296.107 382.632C294.323 384.363 294.972 384.038 292.755 387.662C290.538 391.285 290.971 393.07 290.971 393.07C290.232 394.308 289.419 395.5 288.537 396.64C286.969 398.695 283.833 398.424 280.589 400.371C279.685 400.745 278.916 401.384 278.385 402.206C277.854 403.027 277.585 403.991 277.615 404.968C277.615 405.942 277.615 404.968 283.022 402.643C285.167 401.56 287.464 400.812 289.835 400.425C294.323 399.127 292.647 400.425 296.486 399.452C300.325 398.478 297.189 396.153 302.325 393.503C307.462 390.853 305.137 391.448 305.137 391.448C305.757 390.995 306.336 390.488 306.867 389.933C307.149 389.584 307.476 389.275 307.841 389.014C308.853 387.943 309.692 386.72 310.328 385.39C311.706 382.473 313.655 379.861 316.059 377.711C319.087 374.844 316.762 376.467 316.33 373.925Z" fill="#43C4D9"/>
<path d="M178.449 102.269C187.37 92.6421 188.722 91.9932 193.967 86.7472C199.212 81.5012 203.375 80.4736 208.025 75.9307C212.675 71.3878 215.271 64.6815 212.135 64.5193C208.632 63.4636 204.941 63.1867 201.321 63.7081C196.381 64.2655 191.379 63.8241 186.613 62.4101C186.725 62.0213 186.725 61.6091 186.613 61.2203C187.695 60.6794 188.452 59.9764 187.911 58.8947C186.013 56.2213 183.857 53.7397 181.477 51.4854C181.477 51.4854 177.8 51.9181 179.909 47.2129C182.017 42.5077 183.964 41.4802 182.882 37.6403C181.801 33.8005 185.153 33.3137 180.666 31.6913C176.178 30.0688 174.556 30.4474 173.961 34.3954C173.366 38.3434 173.961 37.8567 171.528 40.6689C169.094 43.4812 170.446 46.5639 168.283 48.1323C168.283 48.1323 170.014 45.32 166.391 46.8884C162.768 48.4568 166.391 47.5374 160.984 50.2415C155.577 52.9457 154.874 50.7283 155.577 52.9997C156.28 55.2712 157.523 55.6498 160.497 56.5151C163.471 57.3804 165.201 53.811 167.959 57.11C169.526 58.9921 171.345 60.6483 173.366 62.0315C173.366 62.0315 170.608 62.9509 173.366 62.9509C173.327 63.2562 173.327 63.5651 173.366 63.8703C172.555 64.5193 169.419 61.7611 167.959 62.5723C166.499 63.3836 166.445 62.5723 165.796 64.8979C165.147 67.2234 166.932 67.4938 164.12 68.3591C161.308 69.2245 163.309 66.1959 161.308 69.1704C159.308 72.1449 162.822 72.9562 156.874 75.6062C150.927 78.2563 148.926 78.9052 147.79 81.393C147.138 83.2999 146.248 85.1169 145.141 86.8013C144.31 87.5085 143.357 88.0583 142.329 88.4237C142.329 88.4237 141.356 86.4768 137.247 88.0992C133.795 89.3944 130.566 91.219 127.676 93.5075C122.269 96.9688 123.35 95.2922 122.269 98.429L120.106 104.216C118.691 106.319 117.733 108.696 117.294 111.192C117.294 113.788 116.483 117.142 116.483 118.439C116.483 119.737 115.997 124.226 121.89 116.601C127.784 108.975 126.324 109.678 128.487 108.542C132.277 106.887 136.434 106.253 140.545 106.704C143.681 107.515 149.629 108.542 149.629 108.542H160.822C164.051 109.125 167.378 108.853 170.47 107.752C173.562 106.652 176.313 104.761 178.449 102.269Z" fill="#43C4D9"/>
<path d="M168.23 122.063C166.45 121.661 164.642 121.39 162.823 121.252C162.823 121.252 162.444 121.252 162.066 121.252C160.436 120.818 158.721 120.818 157.091 121.252C155.09 122.225 155.415 121.252 152.441 123.037C149.467 124.821 150.603 119.575 149.467 125.038C148.332 130.5 148.656 131.798 150.44 132.609C151.141 133.115 151.983 133.387 152.846 133.387C153.71 133.387 154.552 133.115 155.253 132.609C156.926 131.678 158.761 131.072 160.66 130.824C160.66 130.824 165.742 130.824 166.77 129.797C167.797 128.769 168.23 128.174 168.23 128.174C168.479 126.925 168.479 125.638 168.23 124.389C168.23 122.063 169.744 122.55 168.23 122.063Z" fill="#43C4D9"/>
<path d="M173.853 149.97C175.853 148.131 169.743 149.483 168.986 149.97C168.229 150.456 167.094 151.105 166.067 151.809C164.72 152.745 163.684 154.064 163.093 155.594C162.444 157.433 163.093 156.892 163.093 160.354C163.093 163.815 163.093 164.518 163.093 165.762C163.093 167.006 160.66 169.061 159.037 171.711C157.97 173.452 157.013 175.258 156.172 177.119C155.305 178.894 154.003 180.419 152.387 181.554L153.522 182.581C154.712 183.555 155.036 183.23 157.361 182.581C159.686 181.932 157.848 182.581 161.146 183.393L164.444 184.204C164.444 184.204 169.203 185.718 169.852 181.067C170.277 178.326 170.548 175.564 170.663 172.792C171.082 169.867 170.804 166.883 169.852 164.085C168.775 161.32 168.775 158.251 169.852 155.486C170.392 152.133 172.555 151.16 173.853 149.97Z" fill="#43C4D9"/>
<path d="M146.331 171.278C145.141 172.63 146.331 172.63 146.331 173.442C146.331 174.253 147.034 173.82 149.305 173.766C150.293 173.654 151.291 173.654 152.279 173.766C154.171 173.766 153.414 174.145 155.523 173.766C157.632 173.388 156.55 173.117 157.253 171.603C157.956 170.089 157.253 170.359 158.281 168.574C159.308 166.789 158.821 168.033 159.362 167.276C159.903 166.519 159.632 166.14 159.362 165.221C159.092 164.302 158.767 164.897 158.335 164.41C157.724 163.757 157.074 163.143 156.388 162.571C155.793 162.084 155.469 163.274 155.036 163.707C154.499 164.227 154.076 164.853 153.793 165.546C153.66 165.163 153.478 164.8 153.252 164.464C152.982 164.085 150.873 164.464 150.062 164.464C149.251 164.464 148.872 165.329 148.223 166.411C147.575 167.493 148.223 168.304 147.845 169.223C147.466 170.143 147.466 169.926 146.331 171.278Z" fill="#43C4D9"/>
<path d="M219.326 90.1541C217.92 89.2347 217.488 89.6673 216.406 89.6673C215.389 89.7364 214.367 89.6451 213.378 89.3969C211.486 89.0183 211.162 89.6673 210.945 89.7755C210.729 89.8836 208.242 91.0735 207.106 91.5061C205.971 91.9388 206.728 92.2633 206.403 93.7776C206.079 95.2919 207.485 94.5348 207.809 95.2919C208.08 96.4063 208.537 97.4668 209.161 98.4287C210.513 100.754 209.756 98.8073 211.324 97.7797C212.892 96.7522 212.135 96.8603 213.162 96.3195C214.189 95.7786 214.081 97.5634 214.081 97.5634C214.081 97.5634 217.542 98.4287 218.515 97.5634C219.488 96.6981 218.515 96.8603 218.515 94.9134C218.515 92.9664 218.84 94.3184 219.867 93.7235C220.894 93.1286 219.867 93.7235 220.299 92.4796C220.732 91.2357 220.678 90.9653 219.326 90.1541Z" fill="#43C4D9"/>
<path d="M184.126 219.357C182.828 219.357 182.288 218.654 181.963 220.872C181.639 223.089 183.261 221.629 181.26 223.63C179.26 225.631 176.664 228.714 178.178 230.444C179.692 232.175 179.422 231.364 181.206 231.472C181.784 231.466 182.351 231.32 182.859 231.047C183.368 230.774 183.803 230.382 184.126 229.903C184.452 228.573 184.651 227.215 184.721 225.847C184.681 224.174 184.482 222.507 184.126 220.872C184.126 220.763 185.478 219.466 184.126 219.357Z" fill="#43C4D9"/>
<path d="M419.875 211.677C419.389 205.079 419.875 205.295 419.227 200.157C418.578 195.02 419.227 200.157 420.038 198.697C420.849 197.237 421.173 198.21 421.011 194.911C420.849 191.612 420.362 189.936 419.551 184.095C418.74 178.254 419.875 180.796 419.551 178.687C419.413 177.942 419.12 177.235 418.692 176.611C418.264 175.987 417.709 175.459 417.064 175.063C416.415 174.414 411.657 176.577 411.278 173.765C410.922 170.856 410.922 167.913 411.278 165.004C411.278 160.028 409.98 158.892 409.98 158.892V150.456C409.98 150.456 406.628 131.473 405.493 129.472C404.357 127.471 401.545 122.387 399.545 118.277C397.212 113.92 394.138 110.003 390.461 106.703C387.487 104.053 389.001 101.727 385.054 100.916C381.107 100.105 380.944 101.241 378.782 100.105C377.273 99.4242 375.931 98.4234 374.848 97.172C373.765 95.9206 372.967 94.4485 372.509 92.8578C371.86 89.018 369.698 86.368 373.699 86.9088C375.617 87.1752 377.549 87.3376 379.484 87.3955C379.484 87.3955 380.296 81.9873 376.835 81.122C373.374 80.2566 371.698 80.3107 371.698 80.3107C370.404 80.1868 369.15 79.796 368.015 79.163C366.879 78.5301 365.888 77.6686 365.102 76.6331C362.614 73.1718 360.127 68.4126 358.181 66.4115C356.234 64.4105 360.614 66.0871 354.342 61.436C351.06 58.9305 347.526 56.7736 343.798 55.0001C341.635 53.8644 331.091 45.7521 331.091 45.7521C330.808 44.9799 330.369 44.2742 329.801 43.6788C329.234 43.0834 328.55 42.6109 327.793 42.2908C325.143 41.1551 324.657 39.9652 321.358 40.8306C318.06 41.6959 316.222 37.6938 318.06 41.6418C319.898 45.5898 320.169 45.4276 320.169 46.4551C320.169 47.4827 323.467 51.0521 317.519 46.0766C311.571 41.101 317.033 43.9673 308.652 39.4785C300.271 34.9897 300.379 35.6927 298.54 33.2049C296.702 30.7171 294.107 26.0661 290.43 26.0661C286.753 26.0661 280.156 25.5793 280.156 25.5793C280.156 25.5793 270.91 21.0905 272.911 21.0905C277.42 20.5333 281.996 21.0522 286.266 22.6048C290.715 24.4143 295.31 25.8435 300 26.8773C301.499 27.33 303.098 27.33 304.596 26.8773C304.596 26.8773 310.544 26.5528 302.488 23.2538C294.431 19.9547 291.403 20.4415 285.617 18.2782C279.832 16.1149 280.535 13.8434 274.803 14.0057C271.406 14.0898 268.023 14.4698 264.692 15.1414C264.692 15.1414 266.206 16.818 258.582 15.4659C250.958 14.1138 252.85 12.8159 246.903 13.0863C240.955 13.3567 239.603 13.8434 238.468 13.8434C237.332 13.8434 233.98 12.1669 232.52 12.0046C230.886 12.1101 229.28 12.4752 227.762 13.0863C236.034 20.9823 235.277 16.0608 235.71 19.0353C236.088 20.9658 236.841 22.8033 237.927 24.4436C237.927 24.4436 245.821 24.4436 247.497 26.4446C249.174 28.4457 250.688 28.4457 254.527 31.3121C256.894 33.086 259.168 34.9814 261.34 36.9907C263.758 39.7122 266.5 42.1278 269.504 44.1837C274.208 47.3745 274.371 48.0235 274.371 48.0235C274.214 49.8101 273.68 51.543 272.803 53.1073C271.505 54.9461 270.478 53.9726 269.072 56.7308C267.666 59.489 270.802 61.8145 271.505 63.6533C272.208 65.4921 272.262 65.6544 270.261 65.3299C268.261 65.0054 267.396 61.0033 263.232 63.437C259.069 65.8707 259.069 64.3023 258.798 66.8442C258.528 69.3861 255.716 68.3044 258.798 72.5769C261.88 76.8494 263.07 75.9841 263.394 78.9587C263.719 81.9332 263.394 79.7158 263.394 82.474C263.989 85.4553 263.989 88.5245 263.394 91.5058C262.421 94.264 261.772 93.9395 260.637 95.8324C259.501 97.7253 260.204 99.2396 261.988 102.647C263.773 106.054 264.151 106.595 261.988 108.055C259.826 109.515 262.529 111.895 256.581 108.92C250.634 105.946 249.768 108.92 249.174 104.053C248.579 99.1855 247.443 96.4273 248.309 94.3181C249.174 92.2089 250.688 88.9098 250.688 88.9098C250.287 88.6898 249.838 88.5748 249.381 88.5756C248.924 88.5764 248.475 88.6929 248.075 88.9144C247.676 89.1358 247.339 89.4549 247.096 89.8419C246.853 90.2288 246.712 90.671 246.686 91.1272C245.767 94.8589 245.659 93.1283 245.551 96.5354C245.212 98.753 245.571 101.021 246.578 103.025C247.876 107.19 246.903 105.784 250.093 108.001C251.75 109.008 253.586 109.688 255.5 110.002C256.727 110.845 258.01 111.604 259.339 112.273C259.339 112.273 260.637 111.841 259.339 113.68C258.26 115.794 256.563 117.53 254.473 118.655C251.391 120.44 249.552 118.655 248.741 121.522C247.93 124.388 248.417 125.47 247.443 125.578C246.47 125.686 244.578 121.522 244.578 121.522C244.578 121.522 244.578 121.954 243.929 124.496C243.28 127.038 243.064 126.119 241.712 128.336C240.36 130.553 240.198 130.878 237.981 128.336C235.764 125.794 237.981 125.037 232.141 122.387C226.302 119.737 225.761 116.979 221.327 117.898C216.893 118.817 216.569 117.574 214.568 120.224C212.568 122.874 205.538 127.903 203.754 129.958C202.18 131.358 201.163 133.278 200.888 135.367C199.699 139.531 201.862 137.854 197.482 140.396C194.734 141.558 192.264 143.291 190.236 145.48C186.235 149.212 185.154 149.104 184.829 152.511C184.505 155.918 181.531 155.81 184.829 157.919C186.996 159.247 189.582 159.71 192.075 159.217C192.075 159.217 193.102 155.485 193.859 158.784C194.616 162.083 196.779 166.68 196.779 166.68C196.586 166.986 196.369 167.275 196.13 167.546C194.941 169.06 193.913 169.276 193.913 168.357C193.913 167.437 194.4 165.112 194.4 164.787C194.4 164.463 194.724 162.786 192.399 164.787C190.074 166.789 188.885 164.787 188.668 168.573C188.452 172.359 189.858 171.385 189.534 174.36C189.534 175.063 189.534 175.55 189.534 175.928C189.534 176.956 189.534 176.848 190.074 176.253C190.399 176.577 190.453 176.956 188.56 177.172C185.37 177.551 188.56 175.712 183.153 177.172C177.746 178.633 178.07 176.469 177.746 178.957C177.422 181.445 179.26 181.877 176.34 184.365C173.42 186.853 175.529 185.988 170.933 187.718C166.337 189.449 171.258 191.721 162.768 191.234C154.279 190.747 153.414 187.718 152.711 189.287C152.008 190.855 151.576 190.801 154.658 195.885C157.74 200.969 157.632 200.374 156.821 204.376C156.01 208.378 156.821 207.999 154.874 209.784C152.928 211.569 153.306 207.945 147.574 206.701C141.843 205.457 143.844 201.293 140.113 204.646C136.382 207.999 135.463 208.053 135.463 212.975C135.463 217.896 133.84 216.274 133.3 220.601C132.759 224.927 130.542 222.223 133.3 226.009C136.057 229.795 138.328 231.417 138.328 231.904C138.328 232.39 137.031 231.904 136.814 235.257C136.788 235.454 136.788 235.654 136.814 235.852C135.96 235.69 135.082 235.707 134.235 235.902C133.388 236.098 132.591 236.467 131.894 236.987C130.164 238.989 131.461 238.34 127.947 240.287C125.834 241.275 123.777 242.376 121.783 243.586C120.485 244.721 120.701 243.586 120.485 246.452C120.482 247.43 120.214 248.39 119.71 249.228C119.205 250.066 118.483 250.751 117.619 251.211L107.67 256.187C107.67 256.187 109.238 252.617 105.507 255.267C101.776 257.917 102.858 256.403 100.1 260.351C97.3427 264.299 97.4508 263.001 96.3694 266.949C95.288 270.897 97.2345 266.084 95.2339 270.897C94.2682 273.235 93.6137 275.69 93.2873 278.198C92.3681 281.497 90.2053 282.363 89.0698 285.878C87.9343 289.393 86.2041 288.744 87.3395 292.26C87.7678 294.495 88.3459 296.7 89.0698 298.858C89.8745 302.475 91.4618 305.871 93.7199 308.809C97.8834 315.191 94.8013 311.675 100.1 316.056C103.106 318.245 105.34 321.332 106.481 324.871C108.265 328.17 103.182 327.089 110.86 329.252C118.538 331.415 120.323 330.82 122.756 332.984C124.351 334.57 126.323 335.724 128.487 336.337C131.254 336.883 134.102 336.883 136.868 336.337C138.382 336.337 137.734 333.687 141.897 335.201C146.06 336.715 146.98 335.85 151.63 337.202C156.28 338.554 161.957 338.284 162.444 339.42C162.931 340.555 159.146 340.501 162.444 344.233C165.742 347.965 167.31 347.532 167.31 347.532C167.681 347.107 168.138 346.767 168.651 346.534C169.164 346.301 169.721 346.18 170.284 346.18C170.848 346.18 171.405 346.301 171.918 346.534C172.431 346.767 172.888 347.107 173.258 347.532C176.34 350.615 177.854 349.317 178.07 353.481C178.287 357.645 174.34 356.564 174.988 359.214C175.637 361.864 174.988 362.729 177.638 366.028C180.287 369.327 186.884 375.06 186.884 375.06C186.884 375.06 189.966 380.144 191.047 381.658C192.129 383.172 194.13 384.741 192.616 387.066C191.102 389.392 190.399 389.933 188.452 392.474C186.506 395.016 183.586 392.474 184.667 397.071C186.185 401.506 189.133 405.311 193.048 407.888C196.13 409.835 197.212 408.537 201.862 413.296C206.512 418.055 205.809 416.595 206.458 418.109C207.107 419.624 212.622 418.758 215.271 418.109C217.152 417.532 218.886 416.554 220.354 415.243C221.003 414.81 219.489 411.944 224.085 412.593C227.982 412.771 231.877 412.183 235.548 410.862C238.207 407.384 241.316 404.274 244.794 401.614C248.092 399.83 248.525 400.479 252.256 398.532C256.304 397.203 260.275 395.65 264.151 393.881C265.828 392.561 267.384 391.095 268.801 389.5C271.235 386.85 273.83 384.092 275.398 382.415C276.966 380.739 278.264 381.982 279.129 376.25C279.994 370.517 275.831 375.601 280.21 367.272C284.59 358.943 284.212 359.322 286.645 357.105C288.01 355.606 289.554 354.28 291.241 353.157C294.1 351.018 297.119 349.101 300.271 347.424C305.678 344.125 306.002 345.693 309.517 339.96C313.031 334.228 313.464 333.362 315.248 330.712C317.033 328.062 318.979 327.413 318.114 323.628C317.607 322.487 317.345 321.252 317.345 320.004C317.345 318.756 317.607 317.521 318.114 316.38C319.195 312.649 321.412 310.431 320.277 309.566C319.141 308.701 313.68 312 313.031 312C312.383 312 313.68 310.864 309.517 313.73C305.353 316.597 307.084 315.732 303.569 317.029C300.054 318.327 300.703 318.598 298.162 318.165C295.621 317.733 295.729 319.031 294.431 316.813C293.391 314.829 292.505 312.768 291.782 310.648C291.782 310.648 293.35 309.999 289.565 309.566C287.593 309.337 285.722 308.57 284.158 307.349C283.767 305.885 283.048 304.53 282.055 303.387C281.062 302.243 279.82 301.342 278.426 300.751C273.343 298.317 270.261 296.586 269.829 292.368C269.396 288.149 272.478 290.205 269.396 285.77C267.383 283.191 265.178 280.769 262.8 278.523C261.164 276.833 260.088 274.68 259.717 272.357C259.285 269.275 258.582 265.056 260.15 264.191C260.679 264.028 261.244 264.028 261.772 264.191L270.153 275.007C270.153 275.007 285.131 277.279 284.374 279.929C283.846 281.802 283.502 283.722 283.346 285.662C283.346 285.662 290.646 287.879 292.376 291.719C293.209 293.794 294.358 295.728 295.783 297.452C298.648 301.724 299.676 299.777 300.649 303.725L301.622 307.673C306.151 306.405 310.234 303.895 313.41 300.426C317.357 295.018 316.654 296.586 320.98 291.286C325.305 285.986 326.819 288.42 331.037 281.389C335.255 274.358 339.039 268.139 339.039 268.139C339.039 268.139 344.447 264.083 338.715 261.649C332.984 259.215 331.956 253.212 327.036 256.349C324.686 257.893 322.526 259.708 320.601 261.757C319.714 262.429 318.914 263.211 318.222 264.083C318.222 264.083 318.222 264.407 314.491 264.407C310.76 264.407 312.058 264.732 309.733 261.433C308.599 259.244 306.924 257.382 304.867 256.024C301.028 252.78 298.594 253.807 299.946 251.049C300.472 249.924 301.165 248.884 302.001 247.966C303.136 247.966 304.434 247.966 305.786 247.966C309.733 247.966 307.408 249.102 311.193 250.292C314.978 251.482 316.6 253.104 322.007 250.292C327.414 247.479 325.954 248.453 326.819 249.264C327.685 250.075 327.793 251.428 333.903 251.914C340.013 252.401 337.688 249.102 343.635 244.992C349.583 240.881 347.258 242.017 351.584 240.881C355.91 239.746 353.206 241.53 355.855 243.423C358.505 245.316 358.829 244.667 360.83 243.423C362.831 242.179 361.966 241.044 365.588 235.581C369.211 230.119 366.94 235.257 367.264 236.23C368.134 238.363 369.552 240.229 371.374 241.639C373.854 243.599 375.882 246.071 377.322 248.886C380.296 253.699 383.756 260.135 383.756 260.135C383.756 260.135 386.406 266.895 388.244 270.194C390.082 273.493 390.353 270.843 391.542 267.057C391.945 265.33 392.6 263.671 393.489 262.136C393.489 262.136 394.841 268.085 396.625 266.895C398.409 265.705 398.788 264.245 396.625 261.487C394.462 258.729 394.192 261.487 393.164 258.188C392.137 254.889 392.678 252.076 391.38 245.641C390.082 239.205 391.38 242.179 391.704 240.557C392.029 238.934 394.841 221.52 395.652 217.247C396.619 213.52 397.128 209.687 397.166 205.836C397.49 198.102 398.788 200.103 401.599 197.453C404.411 194.803 402.897 199.562 404.249 202.212C405.122 203.99 406.173 205.675 407.385 207.242C408.521 208.973 408.521 204.7 409.548 199.562C410.575 194.425 412.522 203.24 412.522 203.24C413.087 206.563 413.359 209.929 413.333 213.299C413.333 219.248 417.767 221.736 420.092 220.384C422.417 219.032 420.362 218.329 419.875 211.677ZM198.185 171.656C200.618 170.466 202.781 170.574 204.133 168.195C205.484 165.815 205.755 164.625 207.431 161.867C209.107 159.109 210.513 158.892 210.513 155.702C210.513 152.511 205.755 152.781 210.513 149.049C214.145 146.524 217.372 143.46 220.084 139.964C221.868 137.314 221.381 135.637 222.3 135.096C223.22 134.555 224.571 133.69 225.058 135.096C225.545 136.502 228.032 134.664 224.355 137.963C220.678 141.262 221.868 142.181 219.543 146.886C217.218 151.591 216.136 151.97 215.812 153.917C215.487 155.864 219.002 156.242 220.624 155.485C222.246 154.728 226.031 150.834 227.437 152.403C228.843 153.971 232.844 153.809 228.248 156.891C223.652 159.974 222.841 158.892 221.273 160.569C219.705 162.246 217.001 160.569 216.893 162.3C216.785 164.03 220.192 163.976 220.084 165.815C219.975 167.654 220.84 169.006 217.542 168.087C214.244 167.167 214.46 164.301 214.244 167.167C214.373 168.866 214.037 170.567 213.271 172.089C212.135 174.63 214.244 174.63 210.405 174.414C206.566 174.198 209.432 172.197 204.457 174.414C199.483 176.632 202.132 175.928 197.103 176.199C196.247 176.162 195.395 176.329 194.616 176.686V173.765C195.806 173.549 196.292 172.683 198.347 171.656H198.185ZM247.66 258.62C243.226 258.62 241.712 256.025 239.711 257.322C237.711 258.62 238.197 262.406 232.249 261.703C228.407 261.195 224.719 259.867 221.435 257.809C219.877 257.309 218.258 257.018 216.623 256.944C213.974 256.944 211.973 255.97 211.973 259.378C211.973 262.785 214.839 261.703 211.973 263.921C209.107 266.138 213.108 268.788 207.593 264.57C202.078 260.351 201.862 259.161 201.213 259.161C200.564 259.161 198.347 259.864 197.482 259.161C196.617 258.458 198.996 259.432 195.265 256.673C191.534 253.915 196.13 254.348 190.399 253.266C184.667 252.185 183.586 251.482 182.937 250.616C182.288 249.751 181.369 249.751 183.802 246.398C186.235 243.045 187.533 241.584 187.533 241.584L186.235 237.691H183.153C174.34 238.123 178.719 236.555 171.906 237.691C165.093 238.826 168.392 236.338 163.309 237.15C158.226 237.961 167.959 235.906 155.847 237.15C151.096 237.845 146.269 237.845 141.519 237.15C142.456 234.986 143.128 232.716 143.519 230.389C145.292 229.813 147.097 229.344 148.926 228.983C151.576 228.659 154.982 226.874 155.198 225.901C155.415 224.927 155.198 222.169 156.388 221.033C157.578 219.897 155.739 218.978 159.578 219.411C163.417 219.843 163.471 220.276 165.418 217.951C167.364 215.625 167.959 213.786 169.527 213.137C171.095 212.488 174.015 210.163 177.097 211.298C180.179 212.434 180.828 211.298 181.477 213.353C181.889 214.85 182.567 216.261 183.478 217.518C185.046 220.276 185.803 217.518 187.641 219.086C189.37 220.312 190.871 221.831 192.075 223.575C194.4 226.658 194.941 225.576 195.914 227.199C196.887 228.821 196.887 228.118 198.023 230.173C199.158 232.228 199.645 231.742 198.023 233.148C197.038 234.154 195.699 234.736 194.292 234.77C192.291 235.149 188.344 232.066 189.966 234.77C191.548 237.009 193.619 238.859 196.022 240.178C197.59 241.206 197.482 238.448 199.537 237.258C201.131 236.097 202.474 234.625 203.484 232.931C203.484 232.931 204.079 229.957 204.079 229.524C203.705 228.394 203.253 227.292 202.727 226.225L206.944 229.2C206.944 229.2 209.323 226.766 208.783 226.333C205.823 224.422 202.692 222.793 199.428 221.466C198.347 221.466 198.131 220.925 197.698 219.519C196.622 217.191 195.2 215.039 193.481 213.137C192.075 211.461 190.074 210.271 190.723 209.351C192.196 208.479 193.804 207.858 195.481 207.513C195.481 207.513 196.238 206.972 198.023 210.595C199.807 214.219 196.563 213.029 202.186 216.652C207.809 220.276 208.783 218.167 211 222.061C212.218 224.208 212.886 226.623 212.946 229.091C213.541 231.309 214.19 230.606 215.271 233.688C216.755 236.375 218.417 238.958 220.246 241.422C220.246 242.179 220.57 244.938 222.355 242.612C223.71 240.635 225.288 238.82 227.059 237.204C227.696 237.419 228.298 237.729 228.843 238.123C228.091 235.581 226.981 233.159 225.545 230.93C224.301 230.173 223.977 227.631 223.977 227.631C223.977 227.631 232.249 226.441 233.115 227.631C233.98 228.821 231.817 229.2 232.682 232.715C233.547 236.23 236.089 236.771 239.495 238.123C241.83 239.308 244.394 239.972 247.011 240.07C248.52 240.492 250.108 240.545 251.642 240.225C253.175 239.905 254.61 239.221 255.824 238.231C257.105 237.474 258.489 236.909 259.934 236.555H260.204L261.394 245.695C261.394 245.695 262.097 245.695 261.394 249.21C260.691 252.725 259.447 252.185 259.123 254.186C259.055 255.227 258.818 256.25 258.42 257.214L257.338 256.944C254.148 257.692 250.916 258.252 247.66 258.62ZM278.804 216.49C276.429 217.354 274.257 218.698 272.424 220.438C268.479 219.868 264.473 219.868 260.529 220.438C259.88 220.438 256.69 218.005 253.067 218.654C249.444 219.303 252.742 218.005 246.308 219.248L237.873 220.763C237.873 220.763 231.601 219.897 233.439 216.058C235.277 212.218 236.413 212.488 236.846 210.974C237.587 209.105 238.473 207.297 239.495 205.566L241.171 204.268C241.604 203.835 242.253 201.942 243.496 202.807C244.568 203.405 245.786 203.686 247.011 203.619C247.011 203.619 247.011 203.024 247.335 205.457C247.66 207.891 244.902 207.891 247.984 208.432C251.066 208.973 252.364 208.432 253.391 207.458C254.419 206.485 252.58 205.349 255.23 205.457C257.879 205.566 258.203 202.807 260.637 206.323C263.07 209.838 259.988 209.568 266.044 210.325C272.1 211.082 273.397 208.865 275.398 210.325C277.515 211.414 279.478 212.778 281.238 214.381C281.13 215.03 283.292 214.489 278.804 216.382V216.49ZM305.84 220.546C304.596 221.844 305.299 221.412 305.191 222.764C305.083 224.116 297.675 223.305 297.675 223.305L293.187 221.087C294.166 219.465 294.477 217.526 294.053 215.679C293.417 212.478 291.9 209.519 289.673 207.134C287.138 204.725 284.737 202.18 282.481 199.508C281.616 197.778 280.318 198.21 282.914 194.1C284.437 191.023 286.873 188.492 289.889 186.853C291.836 186.204 294.593 185.068 294.377 188.746C294.161 192.424 294.377 189.828 293.296 193.776C292.214 197.724 289.186 199.184 292.16 200.86C295.134 202.537 297.567 202.05 299.892 205.782C302.217 209.514 301.893 212.272 303.623 214.057C303.964 214.44 304.393 214.735 304.874 214.914C305.355 215.093 305.872 215.152 306.381 215.084C306.902 215.609 307.505 216.048 308.165 216.382C310.76 217.518 307.192 219.14 306.002 220.438L305.84 220.546Z" fill="#43C4D9"/>
<path d="M100.37 89.2893C101.562 85.107 103.926 81.3536 107.183 78.4728C113.347 72.0911 111.401 74.7411 110.914 70.3064C110.427 65.8716 106.751 69.8737 104.317 70.3064C100.044 71.8417 95.9175 73.7604 91.9893 76.0391C91.9893 76.0391 88.0421 76.4718 90.9079 71.388C93.7737 66.3043 92.6923 69.4411 91.9893 62.1399C91.2864 54.8388 91.9893 62.1399 97.9371 55.5419C103.885 48.9438 103.344 50.9449 111.401 45.8611C119.457 40.7774 117.078 43.4274 122.593 46.2938C128.109 49.1602 120.16 49.5928 116.646 54.0817C113.131 58.5705 119.295 55.9745 129.19 57.9756C139.085 59.9766 129.19 65.7094 129.19 65.7094C129.19 65.7094 126.595 67.6564 115.186 76.9044C103.777 86.1525 121.296 81.9882 121.296 81.9882C121.296 81.9882 125.675 78.6892 132.975 71.8748C140.275 65.0604 140.653 68.5217 154.117 63.9247C167.58 59.3277 156.496 60.6256 155.847 59.5981C155.198 58.5705 140.653 55.7582 143.086 50.9449C145.519 46.1315 152.603 48.0785 152.603 48.0785C157.71 47.1292 162.613 45.2992 167.094 42.6703C172.501 38.9386 165.958 34.9906 165.958 34.9906C169.624 29.3724 175.16 25.234 181.585 23.3088C193.913 18.4413 188.452 23.3088 206.133 23.9577C223.814 24.6067 210.891 18.225 215.271 16.278C218.551 15.2836 221.736 13.9986 224.787 12.4382C227.167 10.5994 224.084 9.62589 222.57 7.89525C221.056 6.16462 222.57 7.89526 212.946 5.02889C208.514 3.1442 203.536 2.98981 198.996 4.59622C198.996 4.59622 193.589 7.46259 192.615 7.67892C191.642 7.89525 172.825 10.9239 172.825 10.9239C167.172 11.2982 161.5 11.2982 155.847 10.9239C148.602 10.2749 113.239 17.6842 78.9042 46.3479C59.1458 62.3425 42.4241 81.7606 29.5375 103.675C27.3414 110.453 25.5361 117.35 24.1304 124.335C27.2017 121.373 30.0737 118.211 32.7277 114.87C37.1074 109.462 34.512 112.004 43.0552 108.002C46.4326 106.352 49.8984 104.889 53.4368 103.621C60.466 100.755 56.9514 109.57 63.548 112.869C70.1447 116.168 66.1975 112.22 67.0627 110.436C67.9278 108.651 67.0626 109.57 67.4952 102.053C67.9278 94.5353 67.9278 95.8874 73.443 94.7516C78.9583 93.6159 73.443 98.7537 75.4436 102.54C77.4442 106.325 80.8507 107.948 82.6891 110.436C84.5275 112.923 79.3908 113.086 75.4436 113.086C71.4964 113.086 72.5779 116.601 69.7121 121.198C66.8464 125.795 72.1453 132.88 76.7413 125.416C79.5089 121.148 82.6 117.097 85.9875 113.302C89.087 109.917 91.5752 106.019 93.3411 101.782C96.6394 95.5629 100.37 89.2893 100.37 89.2893Z" fill="#43C4D9"/>
<path d="M42.6768 323.52C42.6768 320.924 41.3791 316.489 42.6768 313.839C43.9745 311.189 46.1914 312.108 45.7588 304.591C45.2073 299.025 43.8787 293.563 41.8116 288.366C37.6208 285.682 33.9558 282.255 30.9975 278.253C27.6991 272.844 26.4015 274.305 25.0497 265.489C23.6979 256.674 23.1031 254.024 21.7514 247.209C20.3996 240.395 21.7514 239.259 19.3723 233.743C16.9931 228.226 15.371 228.93 12.5052 222.548C10.1304 218.295 8.84846 213.519 8.77438 208.649C8.12553 201.402 9.63948 203.24 10.5587 196.102C11.3199 188.712 11.3199 181.263 10.5587 173.874C9.18928 170.168 8.96328 166.136 9.90986 162.3C10.775 155.161 11.8564 150.294 11.8564 150.294C11.8564 150.294 6.44932 154.188 4.0702 171.548C-2.3485 202.594 -1.1612 234.732 7.53073 265.219C21.9677 319.301 51.8148 348.398 51.8148 348.398C50.9148 343.912 49.5183 339.54 47.6513 335.364C45.3021 331.743 43.6175 327.732 42.6768 323.52Z" fill="#43C4D9"/>
</g>
<g clip-path="url(#clip0)">
<path fill-rule="evenodd" clip-rule="evenodd" d="M132.81 402.366C132.81 402.366 140.29 418.546 142.3 421.216C144.31 423.886 171.82 435.496 171.82 435.496L171.07 439.686C171.07 439.686 141.76 434.516 134.54 429.686C127.32 424.856 121.46 412.806 121.46 412.806L132.81 402.366Z" fill="#E7AD83"/>
<path fill-rule="evenodd" clip-rule="evenodd" d="M220.75 487.856C223.376 482.494 225.446 476.878 226.93 471.096C228.292 465.076 229.227 458.967 229.73 452.816H233.24C234.117 461.485 233.993 470.226 232.87 478.866C231.03 493.866 228.74 501.176 228.74 501.176L220.75 487.856Z" fill="#FBC9A5"/>
<path fill-rule="evenodd" clip-rule="evenodd" d="M229.73 452.816C229.73 452.816 229.92 449.966 230.73 448.756C231.54 447.546 235.84 443.196 236.25 444.036C236.66 444.876 234.03 449.156 233.84 450.086C233.65 451.016 233.1 450.966 233.21 452.856L229.73 452.816Z" fill="#FBC9A5"/>
<path fill-rule="evenodd" clip-rule="evenodd" d="M205.28 487.586C201.939 482.634 199.114 477.354 196.85 471.826C194.68 466.049 192.916 460.128 191.57 454.106L188.1 454.626C188.406 463.334 189.714 471.978 192 480.386C195.88 494.956 199.15 501.916 199.15 501.916L205.28 487.586Z" fill="#FBC9A5"/>
<path d="M300.62 518.136C300.62 518.136 303.94 527.576 308.23 537.536C312.52 547.496 323.44 571.926 323.44 571.926L327.51 570.016C327.51 570.016 322.71 546.486 320.45 534.756C318.129 522.984 313.976 511.65 308.14 501.166L300.62 518.166V518.136Z" fill="#FBC9A5"/>
<path d="M297.76 516.826C297.76 516.826 298.57 526.826 298.7 537.646C298.83 548.466 298.23 570.946 298.23 570.946H294C294 570.946 289.11 551.706 286.41 540.076C283.74 528.379 282.927 516.335 284 504.386L297.77 516.826H297.76Z" fill="#FBC9A5"/>
<path d="M201.811 543.806L205.391 570.416H209.531L212.841 543.806H201.811Z" fill="#FBC9A5"/>
<path d="M216.97 543.806L220.56 570.416H224.7L228 543.806H216.97Z" fill="#FBC9A5"/>
<path d="M113.59 355.096L111.89 365.366C111.89 365.366 98.1204 361.736 98.1104 361.306C98.1004 360.876 101.94 351.306 101.94 351.306L113.59 355.066V355.096Z" fill="#CF8D65"/>
<path d="M76.0903 437.756C76.0903 437.756 74.0903 446.756 73.0203 469.176C71.9703 490.606 74.1203 512.176 73.8103 517.556H88.1003L100.17 465.226L102.85 437.606L76.0903 437.756Z" fill="#294D90"/>
<path d="M73.3803 568.876C73.3803 568.876 71.9203 574.266 73.3803 574.336C74.8403 574.406 86.1603 574.336 86.1603 574.336C86.1603 574.336 88.9303 573.276 87.8903 571.906C86.8503 570.536 80.6603 570.046 80.8003 568.906C80.1703 567.826 73.3903 568.906 73.3903 568.906L73.3803 568.876Z" fill="#322875"/>
<path d="M88.1004 517.556L81.0004 568.876H72.7204C72.7204 568.876 70.0004 549.386 71.3804 538.506C72.7604 527.626 73.8104 521.376 73.8104 517.556C73.8104 513.736 88.1004 517.556 88.1004 517.556Z" fill="#294D90"/>
<path d="M114.9 547.146C115 543.796 114.99 540.576 114.9 537.576L119 439.076L109.35 437.946V438.276L89.0004 423.006L84.6304 449.756C87.8004 461.946 98.1104 496.326 100.63 518.006C100.96 520.896 99.9504 531.336 100.55 541.326C101.15 551.316 106.42 570.506 106.42 570.506L113.87 570.956C113.87 570.956 114.58 559.316 114.95 547.186L114.9 547.146Z" fill="#335AA9"/>
<path d="M106.411 569.436C106.411 569.436 104.961 574.266 106.411 574.336C107.861 574.406 119.191 574.336 119.191 574.336C119.191 574.336 121.961 573.276 120.921 571.906C119.881 570.536 113.871 570.496 114.011 569.326C113.371 568.246 106.411 569.436 106.411 569.436Z" fill="#322875"/>
<path d="M101.73 332.596C100.38 343.876 104.84 355.466 112 356.326C119.16 357.186 126.18 347.006 127.54 335.706C128.9 324.406 124 316.356 116.88 315.496C109.76 314.636 103.09 321.326 101.73 332.596Z" fill="#E7AD83"/>
<path fill-rule="evenodd" clip-rule="evenodd" d="M78.3203 390.006L71.8203 391.576C71.8203 391.576 61.3703 412.756 59.6003 433.496C58.3403 448.266 59.2103 454.186 58.2803 457.496H64.6103C65.4903 453.496 68.1203 442.066 71.8603 430.676C76.5103 416.516 85.2403 394.676 85.2403 394.676L78.3203 390.006Z" fill="#E7AD83"/>
<path fill-rule="evenodd" clip-rule="evenodd" d="M78.2003 398.836L70.5703 392.606C70.5703 392.606 83.8703 362.526 93.4603 364.606C103.05 366.686 78.2003 398.836 78.2003 398.836Z" fill="#D3C0DB"/>
<path d="M88.7204 366.246C89.9414 364.329 91.6972 362.81 93.7711 361.879C95.8449 360.948 98.146 360.645 100.39 361.006C107.39 362.136 117.5 364.646 120.24 370.006C124.53 378.386 122.08 391.266 121.24 413.336C120.4 435.406 121.44 460.336 121.44 460.336C121.44 460.336 110.44 462.796 93.4404 461.056C76.4404 459.316 69.4404 455.326 69.4404 455.326C69.4404 455.326 72.6104 414.326 78.5304 391.246C81.6704 379.036 85.6604 371.046 88.7204 366.246Z" fill="#F5E5E6"/>
<path d="M119.11 313.156C120.727 313.037 122.34 313.44 123.71 314.306C125.48 315.686 126.17 319.306 126.93 321.136C127.69 322.966 129.46 322.816 130.38 328.136C131.3 333.456 128.08 335.136 125.71 334.576C123.34 334.016 123 333.396 123 333.396C123.334 335.174 122.976 337.013 122 338.536C120.31 341.216 117.78 341.296 116.71 343.826C115.64 346.356 115 353.186 107.49 354.136C99.9801 355.086 93.8301 348.726 93.2901 343.746C92.7501 338.766 95.7401 339.476 94.4301 334.336C93.1201 329.196 92.7401 328.796 94.3501 324.506C95.9601 320.216 98.3501 319.246 99.9501 317.246C101.55 315.246 101.33 311.626 108.46 309.476C110.393 308.831 112.484 308.842 114.41 309.507C116.336 310.173 117.988 311.455 119.11 313.156Z" fill="#4C266E"/>
<path d="M114.201 400.536L112.471 401.676C112.471 401.676 107.001 390.946 106.541 386.856C107.151 396.256 107.451 461.686 107.451 461.686C107.451 461.686 117.581 461.986 121.451 460.346C121.241 453.906 121.451 412.796 121.451 412.796C121.451 412.796 116.321 405.526 114.191 400.536H114.201Z" fill="#D3C0DB"/>
<path fill-rule="evenodd" clip-rule="evenodd" d="M198.39 503.836C201.39 507.696 203.49 504.486 210.84 506.836C227.12 512.036 238.67 536.946 232.08 546.436C230.6 548.556 222.84 547.896 221.2 549.246C219.31 549.246 217.25 549.166 215 549.056C193.12 547.956 191.1 546.666 191.1 546.666C191.1 546.666 194.41 521.426 198.39 503.846V503.836Z" fill="#F5E5E6"/>
<path fill-rule="evenodd" clip-rule="evenodd" d="M198.39 503.836C200.62 493.906 203.07 486.426 205.25 487.326C205.25 487.326 215.05 491.546 223.94 494.476L224.45 495.126C226.45 507.826 240.74 546.656 240.74 546.656C240.74 546.656 237.63 549.466 221.2 549.236C223.012 547.733 224.61 545.991 225.95 544.056C232.54 534.566 229.74 519.386 213.46 514.186C207.489 512.374 202.225 508.759 198.39 503.836Z" fill="#D3C0DB"/>
<path d="M202.84 557.596H211.84L210.18 573.156C210.143 573.491 209.984 573.801 209.733 574.026C209.482 574.251 209.157 574.376 208.82 574.376H199.62C199.501 574.329 199.394 574.257 199.306 574.164C199.219 574.072 199.152 573.961 199.112 573.839C199.072 573.718 199.059 573.59 199.075 573.463C199.09 573.336 199.133 573.214 199.2 573.106C199.64 572.166 202.9 571.196 203.96 570.716C205.02 570.236 202.88 557.596 202.88 557.596H202.84Z" fill="#F05553"/>
<path d="M218 557.596H227L225.34 573.156C225.303 573.491 225.144 573.801 224.893 574.026C224.642 574.251 224.317 574.376 223.98 574.376H214.78C214.661 574.329 214.554 574.257 214.467 574.164C214.379 574.072 214.313 573.961 214.273 573.839C214.232 573.718 214.22 573.59 214.235 573.463C214.25 573.336 214.293 573.214 214.36 573.106C214.8 572.166 218.06 571.196 219.12 570.716C220.18 570.236 218 557.596 218 557.596Z" fill="#F05553"/>
<path d="M117.44 366.836C117.44 366.836 120.44 368.276 122.7 373.106C124.96 377.936 137.58 407.686 137.58 407.686L121.84 417.266C121.84 417.266 107 396.006 106.67 387.206C106.34 378.406 117.44 366.836 117.44 366.836Z" fill="#F5E5E6"/>
<path d="M213.87 457.006C213.87 457.006 211.48 455.726 208.36 458.386C205.24 461.046 205.05 465.926 205.05 467.766C205.05 469.606 201.74 473.466 201.83 478.156C201.92 482.846 205.6 486.156 204.59 488.996C203.58 491.836 202.02 498.996 205.78 501.996C209.54 504.996 215.25 503.466 217.73 506.316C220.21 509.166 220.58 511.746 225 511.926C229.42 512.106 233.36 508.346 231.06 503.656C228.76 498.966 227.06 494.826 229.41 491.886C231.76 488.946 233.09 483.616 231.25 477.736C229.41 471.856 229.13 471.486 229.25 468.446C229.37 465.406 227.78 453.836 213.9 457.046L213.87 457.006Z" fill="#4C266E"/>
<path fill-rule="evenodd" clip-rule="evenodd" d="M297 574.166C295.29 574.266 288.32 574.236 286.75 574.026C285.18 573.816 285.61 571.836 288.2 570.786C290.79 569.736 292.36 569.716 293.82 570.126C295.28 570.536 297.75 571.036 298.14 569.466C298.53 567.896 299.48 574.026 297 574.166Z" fill="#322875"/>
<path fill-rule="evenodd" clip-rule="evenodd" d="M326.08 574.166C324.36 574.266 317.4 574.236 315.82 574.026C314.24 573.816 314.69 571.836 317.28 570.786C319.87 569.736 321.44 569.716 322.89 570.126C324.34 570.536 326.83 571.036 327.22 569.466C327.61 567.896 328.55 574.026 326.08 574.166Z" fill="#322875"/>
<path fill-rule="evenodd" clip-rule="evenodd" d="M340.181 459.056H345.301C345.091 458.806 344.961 458.676 344.961 458.676C344.961 458.676 330.751 418.516 328.961 410.836C327.171 403.156 320.891 381.756 318.241 378.406C315.591 375.056 312.541 405.236 312.541 405.236C312.541 405.236 321.171 419.896 322.851 425.846C324.531 431.796 336.441 453.986 340.131 458.926L340.181 459.056Z" fill="#FBC9A5"/>
<path fill-rule="evenodd" clip-rule="evenodd" d="M295 331.006C301.41 331.006 306.61 339.516 306.61 350.006C306.61 360.496 301.45 369.006 295 369.006C288.55 369.006 283.39 360.486 283.39 350.006C283.39 339.526 288.59 331.006 295 331.006Z" fill="#FBC9A5"/>
<path fill-rule="evenodd" clip-rule="evenodd" d="M288.81 376.196C293.431 374.311 298.233 372.907 303.14 372.006C308.008 371.108 313.033 371.712 317.55 373.736C319.515 382.303 318.788 391.267 315.47 399.406C309.92 412.826 310.08 420.236 316.55 430.876C322.104 439.793 326.217 449.529 328.74 459.726C331.21 469.286 340.62 471.906 349.87 481.016C359.12 490.126 365.32 502.706 357.03 508.576C348.74 514.446 341.09 513.776 326.76 513.226C322.895 513.187 319.042 513.658 315.3 514.626C299.88 501.486 281.63 517.816 278.3 502.386C274.84 486.386 280.71 457.016 282.91 436.446C284.41 422.446 289.91 391.246 288.81 376.166V376.196Z" fill="#C1E2ED"/>
<path fill-rule="evenodd" clip-rule="evenodd" d="M288.81 376.196C289.87 391.276 291.27 417.086 289.81 431.076C287.61 451.646 283.68 464.836 287.14 480.856C290.47 496.286 299.91 501.516 315.33 514.656C303.13 517.506 289.9 523.576 282.42 522.226C272.47 520.426 261.64 518.926 261.01 507.526C260.38 496.126 266.67 478.976 271.14 468.266C284.85 435.416 281.78 426.046 280.94 421.026C280.1 416.006 287.94 376.556 287.94 376.556L288.8 376.196H288.81Z" fill="#A3CFDC"/>
<path fill-rule="evenodd" clip-rule="evenodd" d="M300.81 378.626C307.53 384.936 321.29 385.116 332.41 378.156C345.41 370.016 344.83 372.336 353.13 373.016C358.13 373.426 360.53 372.646 366.7 368.616C372.87 364.586 384.2 365.396 388.22 361.966C395.59 355.656 388.36 344.676 379.62 348.046C370.88 351.416 366 352.006 358.49 348.946C348.34 344.846 342.11 350.396 335.33 349.596C328.55 348.796 322.33 330.516 307.23 327.356C290.13 323.786 284.12 330.896 284 338.006C283.88 345.116 287.49 343.396 289.37 343.686C291.25 343.976 287.37 365.896 300.82 378.586L300.81 378.626Z" fill="#F05553"/>
<path fill-rule="evenodd" clip-rule="evenodd" d="M191.57 454.106C191.57 454.106 190.99 451.316 189.99 450.236C188.99 449.156 184.17 445.416 183.87 446.306C183.57 447.196 186.78 451.076 187.09 451.966C187.4 452.856 187.95 452.736 188.09 454.626L191.57 454.106Z" fill="#FBC9A5"/>
<path fill-rule="evenodd" clip-rule="evenodd" d="M171.82 435.496C173.105 436.159 174.202 437.136 175.01 438.336C176.16 440.176 182.9 444.336 181.7 444.836C180.5 445.336 173.81 443.186 170.78 439.936C167.75 436.686 171.82 435.496 171.82 435.496Z" fill="#E7AD83"/>
<path fill-rule="evenodd" clip-rule="evenodd" d="M288 376.556C288 376.556 284.17 376.556 281.76 382.756C279.35 388.956 273.88 415.516 269.76 421.756C265.64 427.996 243.34 439.256 243.34 439.256L244.1 442.256C244.1 442.256 268.98 437.106 277.27 428.456C285.56 419.806 290.85 394.886 292.36 386.286C293.87 377.686 290.53 376.596 288 376.556Z" fill="#FBC9A5"/>
<path fill-rule="evenodd" clip-rule="evenodd" d="M243.3 439.256C243.3 439.256 242.42 439.306 241.24 440.836C240.06 442.366 233.74 446.116 234.45 446.506C235.16 446.896 239.57 445.716 241.61 444.586C243.007 443.701 244.194 442.524 245.09 441.136L243.3 439.256Z" fill="#FBC9A5"/>
<path fill-rule="evenodd" clip-rule="evenodd" d="M343.89 458.006C343.89 458.006 348.35 458.006 350.58 459.616C352.81 461.226 354.14 463.316 353.58 463.446C353.02 463.576 350.86 461.926 349.21 461.836C347.56 461.746 342.14 461.036 340.15 459.076C338.16 457.116 342.15 453.756 343.89 458.006Z" fill="#FBC9A5"/>
<path fill-rule="evenodd" clip-rule="evenodd" d="M58.2803 457.546C58.2803 457.546 54.0503 460.926 52.7103 464.226C51.3703 467.526 50.3103 472.786 51.5503 472.786C52.7903 472.786 55.8303 468.416 57.7903 467.076C59.7503 465.736 64.6403 461.196 64.6103 457.546C64.5803 453.896 58.8503 455.406 58.2803 457.546Z" fill="#E7AD83"/>
</g>
<defs>
<clipPath id="clip0">
<rect x="51" y="309" width="340.27" height="265.37" fill="white"/>
</clipPath>
</defs>
</svg>
