<svg width="320" height="48" fill="none" xmlns="http://www.w3.org/2000/svg"><path d="M82.173 36.225c-2.809 0-4.9-.993-6.272-2.978-1.352-1.985-2.028-4.804-2.028-8.457 0-3.654.676-6.473 2.028-8.458 1.372-1.985 3.463-2.978 6.272-2.978 1.077 0 2.006.148 2.787.444.803.274 1.489.665 2.06 1.172a6.366 6.366 0 011.425 1.742c.4.654.728 1.362.982 2.122l-3.2 1.077a12.52 12.52 0 00-.57-1.425 4.069 4.069 0 00-.792-1.14 3.594 3.594 0 00-1.14-.76c-.422-.19-.95-.286-1.584-.286-1.563 0-2.703.602-3.421 1.806-.718 1.182-1.077 2.787-1.077 4.815v3.737c0 2.028.359 3.643 1.077 4.847.718 1.183 1.858 1.774 3.421 1.774.633 0 1.161-.095 1.584-.285.443-.19.823-.444 1.14-.76.317-.317.58-.697.792-1.14.211-.444.401-.92.57-1.426l3.2 1.077c-.254.76-.581 1.478-.982 2.154a7.06 7.06 0 01-1.426 1.742c-.57.486-1.256.876-2.059 1.172-.781.275-1.71.412-2.787.412zM100.533 36.225c-1.394 0-2.608-.254-3.643-.76a6.986 6.986 0 01-2.534-2.25c-.655-.97-1.14-2.164-1.457-3.579-.317-1.415-.475-3.03-.475-4.846 0-1.796.158-3.4.475-4.815.317-1.436.802-2.64 1.457-3.612a6.713 6.713 0 012.534-2.217c1.035-.528 2.25-.792 3.643-.792 1.394 0 2.597.264 3.611.792a6.407 6.407 0 012.534 2.217c.676.972 1.172 2.176 1.489 3.612.317 1.415.475 3.02.475 4.814 0 1.817-.158 3.432-.475 4.847-.317 1.415-.813 2.608-1.489 3.58a6.655 6.655 0 01-2.534 2.249c-1.014.506-2.217.76-3.611.76zm0-2.946c1.584 0 2.703-.591 3.358-1.774.654-1.204.982-2.83.982-4.878V22.92c0-2.028-.328-3.633-.982-4.815-.655-1.204-1.774-1.806-3.358-1.806s-2.703.602-3.358 1.806c-.654 1.182-.982 2.787-.982 4.815v3.737c0 2.028.328 3.643.982 4.847.655 1.183 1.774 1.774 3.358 1.774zM117.056 35.845l-6.24-22.11h3.832l2.915 11.15 1.932 7.507h.19l1.932-7.508 2.946-11.15h3.675l-6.24 22.11h-4.942zM131.552 35.845v-2.693h5.195V16.427h-5.195v-2.693h13.937v2.693h-5.195v16.725h5.195v2.693h-13.937zM150.609 13.734h6.589c2.829 0 4.92.94 6.272 2.82 1.372 1.879 2.059 4.624 2.059 8.236 0 3.61-.687 6.356-2.059 8.236-1.352 1.879-3.443 2.819-6.272 2.819h-6.589v-22.11zm6.367 19.197c1.626 0 2.83-.539 3.611-1.616.802-1.098 1.204-2.66 1.204-4.688v-3.675c0-2.027-.402-3.58-1.204-4.656-.781-1.098-1.985-1.648-3.611-1.648h-2.851v16.283h2.851zM183.836 36.225c-1.859 0-3.442-.338-4.752-1.014a10.608 10.608 0 01-3.326-2.724l2.471-2.312c.781.95 1.637 1.668 2.566 2.154.95.485 2.027.728 3.231.728 1.415 0 2.481-.317 3.199-.95.718-.634 1.077-1.489 1.077-2.566 0-.866-.253-1.552-.76-2.059-.507-.507-1.404-.887-2.692-1.14l-1.964-.349c-2.154-.401-3.77-1.108-4.847-2.122-1.077-1.014-1.616-2.408-1.616-4.181 0-.972.18-1.848.539-2.63a5.595 5.595 0 011.552-1.995c.676-.55 1.489-.972 2.439-1.267.951-.296 2.017-.444 3.2-.444 1.668 0 3.115.296 4.339.887a8.54 8.54 0 013.136 2.503l-2.502 2.217a6.504 6.504 0 00-2.091-1.774c-.823-.443-1.848-.665-3.072-.665-1.267 0-2.249.253-2.946.76-.697.507-1.046 1.246-1.046 2.217 0 .93.285 1.627.856 2.091.57.444 1.457.782 2.66 1.014l1.964.412c2.218.422 3.833 1.14 4.847 2.154 1.035 1.013 1.552 2.407 1.552 4.181 0 1.035-.179 1.975-.538 2.82a6 6 0 01-1.584 2.185c-.676.591-1.51 1.056-2.503 1.394-.992.316-2.122.475-3.389.475zM207.963 35.845c-.908 0-1.605-.254-2.091-.76-.486-.528-.781-1.194-.887-1.996h-.158c-.317 1.035-.898 1.816-1.742 2.344-.845.528-1.869.792-3.073.792-1.711 0-3.031-.444-3.96-1.33-.908-.888-1.362-2.08-1.362-3.58 0-1.647.591-2.883 1.774-3.706 1.204-.824 2.957-1.236 5.258-1.236h2.978V24.98c0-1.014-.274-1.796-.824-2.345-.549-.549-1.404-.823-2.565-.823-.972 0-1.764.211-2.376.633-.613.423-1.13.961-1.552 1.616l-2.059-1.869c.549-.93 1.32-1.69 2.312-2.28.993-.613 2.291-.92 3.896-.92 2.133 0 3.77.497 4.91 1.49 1.141.992 1.711 2.417 1.711 4.276v8.268h1.742v2.819h-1.932zm-6.969-2.25c1.077 0 1.964-.232 2.661-.696.697-.486 1.045-1.13 1.045-1.933v-2.375h-2.914c-2.387 0-3.58.739-3.58 2.217v.57c0 .74.243 1.3.729 1.68.507.358 1.193.538 2.059.538zM214.134 22.192h-2.502v-2.82h2.502v-2.724c0-1.33.349-2.365 1.046-3.104.697-.76 1.742-1.14 3.136-1.14h2.724v2.82h-3.453v4.149h3.453v2.819h-3.453v13.653h-3.453V22.192zM230.383 36.225c-1.183 0-2.239-.2-3.168-.602a6.66 6.66 0 01-2.376-1.71c-.654-.76-1.161-1.669-1.52-2.725-.338-1.077-.507-2.27-.507-3.58 0-1.309.169-2.491.507-3.547.359-1.077.866-1.985 1.52-2.724a6.493 6.493 0 012.376-1.742c.929-.402 1.985-.602 3.168-.602 1.203 0 2.259.21 3.167.633.93.422 1.7 1.014 2.313 1.774a7.284 7.284 0 011.362 2.598c.317.992.475 2.059.475 3.199v1.299h-11.309v.538c0 1.267.37 2.313 1.109 3.136.76.803 1.837 1.204 3.231 1.204 1.014 0 1.869-.222 2.566-.665.697-.444 1.288-1.046 1.774-1.806l2.027 1.996c-.612 1.014-1.499 1.826-2.661 2.439-1.161.591-2.513.887-4.054.887zm0-14.54c-.592 0-1.141.106-1.648.317a3.825 3.825 0 00-1.267.887c-.337.38-.601.834-.792 1.362a5.112 5.112 0 00-.285 1.742v.222h7.666v-.317c0-1.267-.327-2.28-.982-3.04-.654-.782-1.552-1.173-2.692-1.173zM241.776 35.845v-22.11h9.503c2.048 0 3.632.601 4.751 1.805 1.12 1.204 1.679 2.82 1.679 4.846 0 2.028-.559 3.643-1.679 4.847-1.119 1.204-2.703 1.806-4.751 1.806h-5.924v8.806h-3.579zm3.579-11.942h5.702c.908 0 1.616-.233 2.122-.697.507-.486.761-1.172.761-2.06v-1.52c0-.887-.254-1.563-.761-2.027-.506-.486-1.214-.729-2.122-.729h-5.702v7.032zM273.08 35.845c-.908 0-1.605-.254-2.091-.76-.485-.528-.781-1.194-.887-1.996h-.158c-.317 1.035-.898 1.816-1.742 2.344-.845.528-1.869.792-3.073.792-1.71 0-3.03-.444-3.96-1.33-.908-.888-1.362-2.08-1.362-3.58 0-1.647.592-2.883 1.774-3.706 1.204-.824 2.957-1.236 5.259-1.236h2.977V24.98c0-1.014-.274-1.796-.823-2.345-.549-.549-1.405-.823-2.566-.823-.972 0-1.764.211-2.376.633a5.67 5.67 0 00-1.552 1.616l-2.059-1.869c.549-.93 1.32-1.69 2.312-2.28.993-.613 2.292-.92 3.897-.92 2.132 0 3.769.497 4.909 1.49 1.141.992 1.711 2.417 1.711 4.276v8.268h1.742v2.819h-1.932zm-6.969-2.25c1.077 0 1.964-.232 2.661-.696.697-.486 1.045-1.13 1.045-1.933v-2.375h-2.914c-2.386 0-3.58.739-3.58 2.217v.57c0 .74.243 1.3.729 1.68.507.358 1.193.538 2.059.538zM282.865 35.845c-1.204 0-2.112-.306-2.724-.919-.613-.633-.919-1.52-.919-2.66V22.191h-2.566v-2.82h1.394c.57 0 .961-.126 1.172-.38.232-.253.349-.665.349-1.235v-2.882h3.104v4.498h3.453v2.819h-3.453v10.834h3.199v2.819h-3.009zM289.873 12.404h3.453v9.693h.158a5.492 5.492 0 011.616-2.217c.739-.592 1.742-.887 3.009-.887 1.689 0 2.999.56 3.928 1.679.95 1.098 1.425 2.67 1.425 4.72v10.453h-3.452V25.803c0-2.555-1.035-3.833-3.105-3.833a4.82 4.82 0 00-1.33.19 3.484 3.484 0 00-1.141.507 2.767 2.767 0 00-.823.887c-.19.36-.285.77-.285 1.236v11.055h-3.453V12.404zM313.475 36.225c-1.563 0-2.872-.275-3.928-.824a8.612 8.612 0 01-2.756-2.28l2.217-2.028c.613.74 1.289 1.32 2.028 1.742.76.402 1.636.602 2.629.602 1.014 0 1.763-.19 2.249-.57.507-.401.76-.95.76-1.647 0-.528-.179-.971-.538-1.33-.338-.38-.94-.623-1.806-.73l-1.52-.19c-1.69-.21-3.02-.696-3.992-1.456-.95-.782-1.425-1.933-1.425-3.453 0-.803.148-1.51.443-2.122a4.36 4.36 0 011.236-1.584 5.812 5.812 0 011.932-1.014 8.529 8.529 0 012.502-.348c1.479 0 2.682.232 3.612.697a8.264 8.264 0 012.534 1.932l-2.123 2.027c-.422-.507-.982-.94-1.678-1.299-.676-.38-1.458-.57-2.345-.57-.95 0-1.657.19-2.122.57-.443.38-.665.877-.665 1.49 0 .633.201 1.108.602 1.425.401.316 1.045.549 1.932.697l1.521.19c1.816.274 3.136.813 3.959 1.615.845.782 1.267 1.837 1.267 3.168 0 .802-.158 1.53-.475 2.186a4.635 4.635 0 01-1.299 1.647c-.57.464-1.256.823-2.059 1.077-.802.253-1.7.38-2.692.38zM36.468 15.166a17.711 17.711 0 00-2.643-6.723 12 12 0 00-3.358 3.105 13.785 13.785 0 011.567 4.4c.493 2.815-.112 6.59-1.701 10.99-.851 2.3-1.97 4.78-3.337 7.37a74.003 74.003 0 01-1.701 3.038 93.112 93.112 0 01-2.8 4.445 96.224 96.224 0 01-6.806-5.494C9.352 30.557 5.456 25.039 4.695 20.75c-.65-3.641.18-7.327 2.306-10.365 2.128-3.037 5.307-5.07 8.957-5.695a15.025 15.025 0 012.44-.224c2.62 0 5.195.76 7.412 2.167a17.818 17.818 0 013.358-3.127A18.257 18.257 0 0015.174.29C5.188 2.033-1.485 11.548.284 21.532c2.329 13.156 23.331 26.446 23.331 26.446s1.881-2.456 4.232-6.187c.112-.178.224-.38.358-.558.09-.156.202-.313.292-.491.223-.358.447-.738.671-1.14.18-.29.358-.603.538-.915.044-.09.111-.18.156-.268.112-.18.202-.358.314-.536.067-.112.112-.224.179-.336.09-.178.179-.335.269-.513.044-.09.111-.179.156-.29.314-.581.627-1.162.918-1.765.112-.201.202-.402.314-.626.09-.178.179-.38.269-.558.201-.425.425-.871.626-1.318 2.598-5.673 4.501-12.017 3.56-17.31z" fill="#4051db"/><path d="M43.162.29A17.486 17.486 0 0039.938 0a18.49 18.49 0 00-8.732 2.211c-.18.09-.336.179-.493.29-.157.09-.313.18-.448.269-.179.111-.38.245-.56.357l-.402.268c-.023.022-.045.022-.068.045-.156.111-.29.223-.447.335-.135.112-.291.223-.426.335l-.067.067c-.134.112-.246.2-.38.313-.023.022-.046.044-.068.044-.134.112-.246.224-.38.335-.023.023-.045.045-.068.045-.112.112-.246.223-.358.357l-.022.023-.403.402v.022c-.112.112-.202.201-.291.313l-.403.469c-.045.067-.112.112-.157.179-.045.067-.112.134-.157.2-.045.068-.112.135-.157.202-.09.111-.156.2-.246.312-.045.067-.112.134-.157.201-.067.09-.134.18-.201.29-.135.18-.247.358-.38.56a18.05 18.05 0 00-2.62 6.722c-.941 5.294.962 11.638 3.582 17.333 1.008-1.943 1.858-3.82 2.53-5.584-1.612-4.378-2.194-8.152-1.702-10.99.27-1.585.829-3.06 1.568-4.4 1.5-2.68 3.873-4.78 6.695-5.986a14.023 14.023 0 015.396-1.094c.806 0 1.634.067 2.44.223 3.65.648 6.852 2.658 8.979 5.696 2.127 3.038 2.956 6.723 2.306 10.364-.761 4.311-4.68 9.806-11.038 15.524a84.952 84.952 0 01-6.807 5.495c-1.187-1.787-2.687-4.133-4.12-6.79a85.271 85.271 0 01-2.53 4.6c2.91 4.937 5.553 8.377 5.553 8.377s21.047-13.246 23.376-26.402C59.82 11.548 53.149 2.032 43.162.29z" fill="#4051db"/></svg>