<svg width="291" height="268" viewBox="0 0 291 268" fill="none" xmlns="http://www.w3.org/2000/svg">
<path d="M291 268H0C0 268 17.8908 244.101 75.7658 242.184C133.641 240.267 152.185 253.931 174.188 256.067C196.191 258.204 206.475 252.524 243.418 253.249C280.362 253.974 291 268 291 268Z" fill="#F5E5E6"/>
<path d="M186.61 146.952L211.615 110.275L186.61 146.952Z" fill="#F1B185"/>
<path d="M187.012 147.255L186.208 146.648L211.206 109.972L212.017 110.578L187.012 147.255Z" fill="#A5D5F3"/>
<path d="M212.181 100.719L179.693 71.2546L212.181 100.719Z" fill="#F1B185"/>
<path d="M211.853 101.12L179.373 71.6563L180.021 70.8613L212.501 100.325L211.853 101.12Z" fill="#A5D5F3"/>
<path d="M162.071 57.789L120.994 44.8723L162.071 57.789Z" fill="#F1B185"/>
<path d="M161.932 58.2889L120.854 45.3722L121.133 44.3723L162.211 57.289L161.932 58.2889Z" fill="#A5D5F3"/>
<path d="M214.173 57.3709L185.241 15.2688L214.173 57.3709Z" fill="#F1B185"/>
<path d="M213.771 57.6988L184.84 15.5966L185.643 14.9819L214.574 57.0841L213.771 57.6988Z" fill="#A5D5F3"/>
<path d="M173.554 11.7036L119.731 38.5205L173.554 11.7036Z" fill="#F1B185"/>
<path d="M173.759 12.179L119.896 39.0122L119.478 38.0615L173.349 11.2283L173.759 12.179Z" fill="#A5D5F3"/>
<path d="M189.855 188.505L179.93 148.648L189.855 188.505Z" fill="#F1B185"/>
<path d="M189.38 188.669L179.455 148.812L180.406 148.55L190.339 188.407L189.38 188.669Z" fill="#A5D5F3"/>
<path d="M217.197 98.9404L216.902 65.0095L217.197 98.9404Z" fill="#F1B185"/>
<path d="M217.393 64.9992L216.401 65.0081L216.703 98.9376L217.695 98.9287L217.393 64.9992Z" fill="#A5D5F3"/>
<path d="M179.832 60.5755L212.05 60.3706L179.832 60.5755Z" fill="#F1B185"/>
<path d="M212.049 59.8557L179.832 60.0413L179.838 61.0821L212.055 60.8966L212.049 59.8557Z" fill="#A5D5F3"/>
<path d="M112.397 39.3401L86.6943 75.4592L112.397 39.3401Z" fill="#F1B185"/>
<path d="M87.0876 75.7706L86.3008 75.1478L111.995 39.0122L112.79 39.6351L87.0876 75.7706Z" fill="#A5D5F3"/>
<path d="M177.357 148.148L92.0708 81.9587L177.357 148.148Z" fill="#F1B185"/>
<path d="M177.062 148.566L91.7759 82.3931L92.366 81.5571L177.652 147.73L177.062 148.566Z" fill="#A5D5F3"/>
<path d="M183.176 148.575L92.0217 158.352L91.9233 157.401L183.078 147.624L183.176 148.575Z" fill="#A5D5F3"/>
<path d="M186.233 190.144L90.6938 157L186.233 190.144Z" fill="#F1B185"/>
<path d="M186.077 190.668L90.5381 157.5L90.8495 156.508L186.389 189.677L186.077 190.668Z" fill="#A5D5F3"/>
<path d="M172.267 56.4695L92.8086 160.131L172.267 56.4695Z" fill="#F1B185"/>
<path d="M93.1938 160.459L92.4233 159.803L171.882 56.1416L172.653 56.7973L93.1938 160.459Z" fill="#A5D5F3"/>
<path d="M92.1362 161.802L86.6777 79.2783L92.1362 161.802Z" fill="#F1B185"/>
<path d="M91.6445 161.835L86.186 79.3194L87.1695 79.2456L92.628 161.77L91.6445 161.835Z" fill="#A5D5F3"/>
<path d="M181.283 149.452L173.431 67.1487L181.283 149.452Z" fill="#F1B185"/>
<path d="M180.791 149.509L172.939 67.1979L173.931 67.0913L181.775 149.402L180.791 149.509Z" fill="#A5D5F3"/>
<path d="M190.831 187.685L217.058 109.71L190.831 187.685Z" fill="#F1B185"/>
<path d="M191.298 187.841L190.364 187.497L216.582 109.513L217.517 109.866L191.298 187.841Z" fill="#A5D5F3"/>
<path d="M164.031 64.6736L86.5552 78.3525L164.031 64.6736Z" fill="#F1B185"/>
<path d="M86.6371 78.8688L86.4731 77.8443L163.94 64.1572L164.104 65.1817L86.6371 78.8688Z" fill="#A5D5F3"/>
<path d="M186.807 62.7966C186.807 72.0006 179.717 79.467 170.98 79.467C162.244 79.467 155.146 72.0006 155.146 62.7966C155.146 53.5927 162.235 46.1262 170.98 46.1262C179.725 46.1262 186.807 53.5845 186.807 62.7966Z" fill="#335AA9"/>
<path d="M174.644 59.01C174.606 59.7724 174.344 60.5068 173.893 61.1221C173.441 61.7374 172.819 62.2067 172.103 62.4718C171.387 62.7369 170.609 62.7861 169.865 62.6134C169.122 62.4408 168.445 62.0537 167.92 61.5003C167.394 60.9469 167.042 60.2514 166.908 59.4999C166.773 58.7485 166.862 57.9742 167.164 57.2728C167.465 56.5715 167.966 55.974 168.603 55.5544C169.241 55.1348 169.988 54.9115 170.751 54.9121C171.81 54.9422 172.814 55.3901 173.543 56.1579C174.273 56.9258 174.668 57.9512 174.644 59.01Z" fill="white"/>
<path d="M173.496 69.7058H179.029C179.029 65.9111 175.423 62.8376 170.98 62.8376C166.538 62.8376 162.924 65.9111 162.924 69.7058H173.496Z" fill="white"/>
<path d="M125.289 42.3644C125.289 48.9949 120.183 54.3714 113.888 54.3714C107.594 54.3714 102.521 48.9949 102.521 42.3644C102.521 35.734 107.594 30.3247 113.888 30.3247C120.183 30.3247 125.289 35.734 125.289 42.3644Z" fill="#81D0D4"/>
<path d="M116.544 39.6597C116.516 40.2093 116.328 40.7388 116.003 41.1826C115.678 41.6264 115.229 41.9649 114.713 42.1562C114.197 42.3475 113.637 42.3832 113.101 42.2589C112.565 42.1345 112.077 41.8555 111.698 41.4566C111.319 41.0577 111.065 40.5563 110.969 40.0146C110.872 39.4729 110.936 38.9147 111.154 38.4092C111.371 37.9038 111.732 37.4733 112.192 37.1711C112.652 36.8689 113.19 36.7083 113.741 36.7092C114.119 36.7188 114.491 36.8027 114.836 36.9562C115.182 37.1097 115.493 37.3297 115.754 37.6037C116.014 37.8777 116.218 38.2003 116.353 38.5531C116.489 38.9059 116.554 39.2819 116.544 39.6597Z" fill="white"/>
<path d="M115.708 47.3474H119.732C119.732 44.61 117.134 42.4299 113.929 42.4299C110.725 42.4299 108.126 44.6428 108.126 47.3474H115.708Z" fill="white"/>
<path d="M228.811 103.325C228.811 109.956 223.705 115.332 217.41 115.332C211.116 115.332 206.01 109.956 206.01 103.325C206.01 96.6948 211.116 91.3184 217.41 91.3184C223.705 91.3184 228.811 96.7112 228.811 103.325Z" fill="#81D0D4"/>
<path d="M220.066 100.612C220.038 101.162 219.85 101.691 219.525 102.135C219.2 102.579 218.751 102.918 218.235 103.109C217.719 103.3 217.159 103.336 216.623 103.211C216.087 103.087 215.599 102.808 215.22 102.409C214.841 102.01 214.587 101.509 214.491 100.967C214.394 100.426 214.458 99.8673 214.676 99.3619C214.893 98.8564 215.254 98.4259 215.714 98.1237C216.174 97.8215 216.712 97.6609 217.263 97.6619C218.025 97.6833 218.748 98.0058 219.273 98.5587C219.798 99.1116 220.083 99.85 220.066 100.612Z" fill="white"/>
<path d="M219.23 108.3H223.213C223.213 105.571 220.615 103.383 217.41 103.383C214.206 103.383 211.616 105.604 211.616 108.3H219.23Z" fill="white"/>
<path d="M180.569 18.9488C185.535 18.9488 189.56 14.707 189.56 9.47441C189.56 4.24184 185.535 0 180.569 0C175.604 0 171.579 4.24184 171.579 9.47441C171.579 14.707 175.604 18.9488 180.569 18.9488Z" fill="#43C4D9"/>
<path d="M182.659 7.37621C182.659 7.9631 182.426 8.52596 182.011 8.94096C181.596 9.35595 181.033 9.58909 180.446 9.58909C179.859 9.58909 179.297 9.35595 178.882 8.94096C178.467 8.52596 178.233 7.9631 178.233 7.37621C178.233 6.78932 178.467 6.22646 178.882 5.81147C179.297 5.39647 179.859 5.16333 180.446 5.16333C181.033 5.16333 181.596 5.39647 182.011 5.81147C182.426 6.22646 182.659 6.78932 182.659 7.37621Z" fill="white"/>
<path d="M182.02 13.4001H185.159C185.159 11.2446 183.11 9.49072 180.586 9.49072C178.062 9.49072 176.013 11.2446 176.013 13.4001H182.02Z" fill="white"/>
<path d="M188.577 148.706C188.503 150.156 188.005 151.553 187.145 152.723C186.284 153.893 185.099 154.785 183.737 155.287C182.374 155.79 180.894 155.882 179.48 155.551C178.066 155.22 176.78 154.482 175.782 153.427C174.784 152.372 174.117 151.048 173.865 149.617C173.612 148.187 173.786 146.714 174.363 145.382C174.94 144.049 175.895 142.915 177.111 142.12C178.326 141.326 179.748 140.905 181.201 140.911C183.21 140.974 185.113 141.828 186.495 143.288C187.877 144.748 188.625 146.696 188.577 148.706Z" fill="#81D0D4"/>
<path d="M182.84 146.952C182.821 147.307 182.698 147.648 182.487 147.934C182.275 148.22 181.985 148.438 181.651 148.561C181.318 148.684 180.955 148.706 180.609 148.625C180.263 148.544 179.948 148.364 179.703 148.106C179.458 147.848 179.295 147.524 179.232 147.174C179.169 146.824 179.211 146.463 179.351 146.136C179.491 145.81 179.724 145.531 180.021 145.335C180.317 145.139 180.665 145.034 181.02 145.034C181.266 145.04 181.508 145.095 181.732 145.195C181.956 145.295 182.159 145.438 182.328 145.616C182.497 145.794 182.629 146.004 182.717 146.233C182.805 146.462 182.846 146.706 182.84 146.952Z" fill="white"/>
<path d="M182.307 151.943H184.897C184.897 150.164 183.209 148.73 181.127 148.73C179.045 148.73 177.357 150.164 177.357 151.943H182.307Z" fill="white"/>
<path d="M195.953 188.382C195.87 189.82 195.368 191.202 194.508 192.357C193.649 193.513 192.47 194.392 191.117 194.885C189.764 195.379 188.296 195.465 186.894 195.135C185.493 194.804 184.218 194.07 183.229 193.023C182.24 191.976 181.578 190.663 181.326 189.245C181.075 187.827 181.244 186.366 181.812 185.043C182.381 183.72 183.324 182.592 184.527 181.799C185.729 181.006 187.137 180.582 188.577 180.579C190.588 180.639 192.494 181.494 193.877 182.957C195.259 184.419 196.006 186.37 195.953 188.382Z" fill="#43C4D9"/>
<path d="M190.257 186.62C190.239 186.977 190.117 187.322 189.906 187.61C189.694 187.899 189.402 188.119 189.067 188.243C188.731 188.368 188.366 188.391 188.018 188.31C187.669 188.229 187.352 188.047 187.106 187.787C186.859 187.528 186.695 187.202 186.632 186.849C186.57 186.497 186.612 186.134 186.754 185.805C186.895 185.477 187.131 185.197 187.43 185.001C187.729 184.805 188.08 184.701 188.438 184.702C188.933 184.717 189.402 184.927 189.742 185.286C190.083 185.645 190.268 186.125 190.257 186.62Z" fill="white"/>
<path d="M189.716 191.611H192.298C192.298 189.832 190.609 188.398 188.536 188.398C186.462 188.398 184.766 189.832 184.766 191.611H189.716Z" fill="white"/>
<path d="M97.1687 157.623C97.2061 159.17 96.6283 160.669 95.5619 161.79C94.4956 162.912 93.0278 163.565 91.4807 163.606C89.9592 163.508 88.5318 162.835 87.4888 161.723C86.4457 160.611 85.8652 159.143 85.8652 157.619C85.8652 156.094 86.4457 154.627 87.4888 153.514C88.5318 152.402 89.9592 151.729 91.4807 151.632C93.0293 151.672 94.4983 152.326 95.5649 153.45C96.6314 154.573 97.2083 156.074 97.1687 157.623Z" fill="#81D0D4"/>
<path d="M92.8084 156.27C92.7939 156.544 92.6997 156.807 92.5372 157.028C92.3747 157.249 92.1511 157.417 91.8941 157.511C91.637 157.606 91.3579 157.624 91.091 157.562C90.8242 157.5 90.5814 157.361 90.3927 157.162C90.204 156.963 90.0777 156.714 90.0293 156.444C89.981 156.174 90.0127 155.896 90.1206 155.645C90.2285 155.393 90.4079 155.178 90.6365 155.027C90.8651 154.876 91.1329 154.796 91.4069 154.795C91.788 154.806 92.1494 154.967 92.4121 155.244C92.6747 155.52 92.8172 155.889 92.8084 156.27Z" fill="white"/>
<path d="M92.3903 160.106H94.3737C94.311 159.399 93.9724 158.744 93.4311 158.284C92.8897 157.824 92.1891 157.595 91.4805 157.647C90.772 157.595 90.0714 157.824 89.53 158.284C88.9887 158.744 88.6501 159.399 88.5874 160.106H92.3903Z" fill="white"/>
<path d="M99.5456 75.5166C99.5456 81.3029 95.0953 85.991 89.5959 85.991C84.0965 85.991 79.6543 81.3029 79.6543 75.5166C79.6543 69.7304 84.1046 65.0505 89.5959 65.0505C95.0871 65.0505 99.5456 69.7386 99.5456 75.5166Z" fill="#335AA9"/>
<path d="M91.9153 73.1563C91.8929 73.637 91.7298 74.1006 91.4463 74.4896C91.1629 74.8786 90.7715 75.1758 90.3207 75.3444C89.8699 75.5131 89.3795 75.5457 88.9104 75.4382C88.4412 75.3308 88.0139 75.088 87.6815 74.74C87.349 74.392 87.1259 73.9541 87.04 73.4806C86.9541 73.007 87.009 72.5186 87.198 72.076C87.387 71.6334 87.7017 71.2559 88.1032 70.9905C88.5047 70.7251 88.9753 70.5833 89.4566 70.5828C89.787 70.5902 90.1128 70.6627 90.4152 70.7961C90.7176 70.9294 90.9908 71.1211 91.2191 71.3601C91.4475 71.5991 91.6265 71.8807 91.7459 72.1889C91.8654 72.4971 91.9229 72.8258 91.9153 73.1563Z" fill="white"/>
<path d="M91.1859 79.8605H94.6609C94.6609 77.4755 92.3907 75.5413 89.5959 75.5413C86.8011 75.5413 84.5391 77.4755 84.5391 79.8605H91.1859Z" fill="white"/>
<path d="M221.664 60.3462C221.606 61.5107 221.208 62.6327 220.519 63.5731C219.83 64.5136 218.88 65.2312 217.787 65.637C216.694 66.0428 215.506 66.119 214.37 65.8562C213.234 65.5934 212.2 65.0031 211.396 64.1584C210.593 63.3138 210.054 62.2519 209.848 61.1043C209.642 59.9567 209.777 58.7739 210.237 57.7024C210.696 56.6309 211.46 55.7177 212.434 55.0761C213.407 54.4345 214.548 54.0926 215.714 54.0928C217.331 54.1357 218.865 54.818 219.981 55.9901C221.096 57.1623 221.701 58.7287 221.664 60.3462Z" fill="#335AA9"/>
<path d="M217.099 58.9283C217.081 59.2136 216.981 59.4876 216.81 59.7165C216.638 59.9455 216.404 60.1194 216.135 60.217C215.867 60.3146 215.575 60.3316 215.297 60.2659C215.019 60.2001 214.766 60.0546 214.57 59.8471C214.373 59.6396 214.241 59.3791 214.191 59.0978C214.14 58.8165 214.173 58.5265 214.285 58.2635C214.397 58.0005 214.583 57.7759 214.821 57.6174C215.059 57.4588 215.338 57.3732 215.624 57.3711C215.823 57.3753 216.02 57.4191 216.202 57.4999C216.385 57.5806 216.549 57.6968 216.686 57.8416C216.824 57.9865 216.931 58.1571 217.001 58.3436C217.072 58.5302 217.105 58.7289 217.099 58.9283Z" fill="white"/>
<path d="M216.664 62.9442H218.746C218.633 62.2222 218.266 61.5643 217.711 61.0892C217.155 60.6141 216.449 60.353 215.718 60.353C214.987 60.353 214.28 60.6141 213.725 61.0892C213.17 61.5643 212.802 62.2222 212.689 62.9442H216.664Z" fill="white"/>
<path d="M105.963 145.829C105.234 149.271 100.398 156.205 99.9311 164.589C99.259 176.621 100.677 201.233 100.644 204.831C100.611 208.429 99.1853 219.944 98.9558 226.902C98.7263 233.861 99.2426 251.777 99.2426 251.777H103.341C103.341 251.777 106.332 235.737 107.725 227.828C108.887 220.337 109.506 212.772 109.578 205.191C109.578 201.233 117.06 160.631 117.06 160.631L107.094 145.829H105.963Z" fill="#2A4C90"/>
<path d="M133.608 204.675C133.608 201.061 135.05 176.367 134.353 164.294C133.979 157.954 133.122 151.653 131.788 145.444H129.231L116.527 160.294C116.527 160.294 124.313 201.028 124.313 205.003C124.388 212.61 125.029 220.201 126.231 227.714C127.682 235.647 130.796 251.744 130.796 251.744H135.05C135.05 251.744 135.599 233.779 135.361 226.787C135.124 219.796 133.665 208.281 133.608 204.675Z" fill="#2A4C90"/>
<path d="M105.185 243.007L103.586 253.211H98.7837V242.45L105.185 243.007Z" fill="#FCC3A0"/>
<path d="M104.357 252.482C104.357 252.482 105.176 256.735 105.307 257.768C105.438 258.801 104.488 258.94 102.717 258.94H97.1443C96.9476 258.923 96.7576 258.861 96.5888 258.759C96.42 258.656 96.2769 258.516 96.1708 258.35C96.0646 258.184 95.9981 257.995 95.9765 257.799C95.9549 257.603 95.9787 257.404 96.046 257.219C96.6912 255.579 97.4697 253.994 98.3736 252.482C98.6277 251.957 104.258 251.99 104.357 252.482Z" fill="#322875"/>
<path d="M129.207 243.007L130.715 253.211H135.239V242.45L129.207 243.007Z" fill="#FCC3A0"/>
<path d="M129.985 252.482C129.985 252.482 129.166 256.735 129.084 257.768C129.002 258.801 129.903 258.94 131.543 258.94H136.796C136.989 258.918 137.175 258.853 137.338 258.748C137.501 258.643 137.638 258.501 137.738 258.335C137.838 258.168 137.898 257.981 137.914 257.787C137.93 257.594 137.901 257.399 137.829 257.219C137.221 255.586 136.489 254.003 135.64 252.482C135.386 251.957 130.084 251.99 129.985 252.482Z" fill="#322875"/>
<path d="M132.026 145.796L106.529 145.14C104.594 153.623 100.103 165.024 100.103 165.024L115.733 167.368C115.72 165.816 115.863 164.268 116.159 162.745C116.634 160.508 117.175 160.286 117.65 160.975C118.126 161.663 118.552 167.368 118.552 167.368L134.395 165.31C134.395 165.31 134.231 160.622 133.46 153.705C133.171 151.038 132.691 148.395 132.026 145.796Z" fill="#2A4C90"/>
<path d="M77.9329 104.341C75.4742 99.9156 78.1133 101.612 81.703 103.464C85.2928 105.317 112.7 122.315 105.242 125.692C98.0538 128.962 80.3261 108.775 77.9329 104.341Z" fill="#FCC9A1"/>
<path d="M126.658 79.7129H117.068V91.7034H126.658V79.7129Z" fill="#FAB085"/>
<path d="M102.094 111.095L100.455 116.275C100.455 116.275 102.709 125.634 105.241 125.692C108.774 125.766 112.413 112.857 112.413 112.857L102.094 111.095Z" fill="#F6E4E7"/>
<path d="M133.558 72.0499C133.181 77.9263 130.469 82.7045 126.657 82.7045C122.846 82.7045 119.732 77.9345 119.732 72.0499C119.732 66.1653 122.814 61.3953 126.625 61.3953C130.436 61.3953 134.198 62.1493 133.558 72.0499Z" fill="#FCC9A1"/>
<path d="M108.495 94.3508L115.872 89.0563C115.872 89.0563 123.109 87.6466 126.641 88.3514C130.174 89.0563 140.574 93.3345 148.811 93.3345C146.86 101.596 148.336 104.358 148.336 104.358H145.279C139.492 104.358 134.624 104.358 133.558 104.358C137.599 108.587 134.722 115.701 130.559 120.086C130.559 131.412 133.665 147.526 133.665 147.526H102.422C103.106 143.627 104.205 139.814 105.701 136.15C108.315 129.454 109.471 127.069 108.078 120.069C106.447 111.628 108.495 94.3508 108.495 94.3508Z" fill="#F6E4E7"/>
<path d="M155.793 75.1724L156.097 62.1492C156.097 62.1492 157.334 63.6982 157.736 62.8786C158.072 62.1901 159.539 61.9934 159.187 63.4687C159.014 64.2063 160.637 61.9934 160.711 63.9277C160.711 64.6571 162.055 63.6162 162.022 64.7473C161.895 65.8789 161.709 67.0032 161.465 68.1158C160.973 70.8532 159.08 71.935 159.006 74.5167C158.932 77.0984 155.793 75.1724 155.793 75.1724Z" fill="#FCC9A1"/>
<path d="M156.252 63.1983L156.056 62.1492C156.056 62.1492 157.285 60.3052 157.826 59.6905C158.367 59.0758 159.563 58.2152 160.211 57.4858C160.858 56.7564 160.842 57.7808 160.711 58.0923C160.08 59.156 159.311 60.1316 158.424 60.9936C158.086 61.3582 157.85 61.8057 157.741 62.2908C157.632 62.7758 157.652 63.2812 157.801 63.7556C158.17 65.1817 156.252 63.1983 156.252 63.1983Z" fill="#FCC9A1"/>
<path d="M100.439 72.0498C104.823 67.4273 108.323 69.296 110.339 65.2554C111.241 63.4441 114.322 53.1665 120.723 53.1665C127.124 53.1665 136.369 56.0924 134.484 61.3788C132.599 66.6651 124.944 68.6075 124.944 72.0334C124.944 73.607 124.526 87.5399 119.732 91.7034C113.888 96.8095 130.649 102.604 119.732 114.103C114.585 119.52 109.503 111.824 100.406 118.955C97.693 121.077 88.4316 115.209 92.3902 111.037C95.2588 108.021 89.366 104.768 87.8825 101.481C85.7762 96.8422 89.0545 85.6795 95.0129 85.532C99.9304 85.4664 97.7503 74.8691 100.439 72.0498Z" fill="#F05553"/>
<path d="M147.18 97.957C147.18 97.957 154.261 78.2295 155.793 73.017C157.244 68.0995 159.482 69.5993 159.154 73.2219C158.629 79.0163 160.104 97.9406 152.531 102.948C144.958 107.956 147.18 97.957 147.18 97.957Z" fill="#FCC9A1"/>
<path d="M81.7768 103.268C81.7768 103.268 82.5472 99.2272 82.5472 98.301C82.5472 97.3749 81.2195 96.2111 80.5638 95.5063C79.9081 94.8014 79.2197 95.2604 79.5721 96.711C79.9245 98.1617 81.7768 103.268 81.7768 103.268Z" fill="#FCC9A1"/>
<path d="M78.4903 104.022C78.4505 104.183 78.3785 104.334 78.2786 104.467C78.1787 104.6 78.053 104.711 77.909 104.794C77.765 104.876 77.6057 104.929 77.4408 104.948C77.2759 104.968 77.1087 104.954 76.9494 104.907L73.7285 103.628C73.4245 103.473 73.1915 103.208 73.0772 102.886C72.9629 102.564 72.976 102.211 73.1138 101.899L77.4822 89.6052C77.5238 89.4444 77.5973 89.2936 77.6984 89.1618C77.7995 89.03 77.9261 88.9199 78.0706 88.8381C78.2152 88.7563 78.3747 88.7044 78.5397 88.6855C78.7048 88.6666 78.8719 88.6812 79.0312 88.7283L82.2522 89.9986C82.5668 90.1601 82.8056 90.4385 82.9175 90.774C83.0293 91.1095 83.0052 91.4755 82.8505 91.7935L78.4903 104.022Z" fill="#322875"/>
<path d="M82.2603 103.776C82.2603 103.776 81.1129 98.7764 79.8999 97.4979C78.6869 96.2193 76.1462 93.195 75.3758 92.3837C74.6054 91.5723 73.6055 90.9904 73.6055 92.3837C73.6055 93.777 74.9332 95.0719 74.4906 96.916C74.048 98.76 73.7202 99.1862 74.7119 101.538C75.7036 103.891 77.7936 106.194 79.6294 106.841C82.3259 105.054 82.2603 103.776 82.2603 103.776Z" fill="#FCC9A1"/>
</svg>
