<svg width="304" height="262" viewBox="0 0 304 262" fill="none" xmlns="http://www.w3.org/2000/svg">
<path d="M304 262C304 262 297.815 251.843 263.717 248.918C248.512 246.756 241.471 236.282 218.927 233.911C174.892 229.278 131.764 233.488 102.93 242.029C75.616 250.118 67.8307 248.142 31.5402 252.652C11.5577 254.23 0 260.29 0 262H304Z" fill="#F5E5E6"/>
<path d="M97.0193 73.3243C97.0193 79.5853 101.303 85.682 105.281 85.682C109.258 85.682 111.439 79.5618 111.439 73.3243C111.439 64.6214 108.223 59.4404 104.245 59.4404C100.267 59.4404 97.0193 67.0867 97.0193 73.3243Z" fill="#FAC8A5"/>
<path d="M83.3209 116.181L82.0421 113.176C82.0421 113.176 82.0421 100.842 82.4893 95.958C81.4144 93.6102 79.6963 94.1893 79.0372 95.958C78.3782 97.7268 73.2943 123.186 77.0366 124.853C81.4301 122.873 83.3209 116.181 83.3209 116.181Z" fill="#F9AF84"/>
<path d="M78.849 96.6547L82.4894 95.9503C83.0185 94.1597 83.3912 92.3267 83.6035 90.4719C83.6035 88.9067 83.3916 87.8188 81.7284 87.7875C80.0651 87.7562 79.3119 87.6779 78.8569 88.8832C78.4018 90.0884 78.849 93.4459 78.849 96.6547Z" fill="#F9AF84"/>
<path d="M82.0422 88.711L82.4894 82.5047C83.5564 82.0195 83.9487 88.5544 83.5643 89.5484C83.1798 90.5423 82.0422 88.711 82.0422 88.711Z" fill="#F9AF84"/>
<path d="M115.3 96.6547L116.28 93.5242L111.243 92.2094C106.042 90.8554 91.959 90.738 91.959 90.738C91.959 90.738 89.3543 105.89 92.5004 116.4C95.6465 126.911 96.2741 130.989 96.2741 130.989C96.2741 130.989 97.5294 138.987 105.689 138.987C113.848 138.987 114.805 132.562 114.805 132.562C114.805 132.562 117.159 123.773 116.374 116.4C120.023 112.785 124.777 103.62 115.3 96.6547Z" fill="#A3CFDC"/>
<path d="M111.243 97.3201C111.408 105.882 119.607 105.256 145.764 102.979C147.89 97.5627 146.478 94.7374 143.881 94.7374C142.171 94.7374 126.393 93.9548 117.347 93.0548C112.813 92.6165 111.196 94.9957 111.243 97.3201Z" fill="#FBC8A0"/>
<path d="M140.766 96.6548L142.335 94.7374C142.335 94.7374 151.884 78.623 153.539 72.5577C155.893 70.2098 157.077 70.1472 157.077 72.5577C157.077 74.9682 150.989 102.642 145.748 102.978C141.37 98.6114 140.766 96.6548 140.766 96.6548Z" fill="#FBC8A0"/>
<path d="M154.818 75.3124L153.523 72.5575C153.855 70.9434 154.287 69.3516 154.818 67.7913C155.524 65.913 155.053 64.2616 157.062 64.9738C159.07 65.686 160.011 65.913 160.011 67.5565C160.011 69.2 159.298 73.7627 154.818 75.3124Z" fill="#FBC8A0"/>
<path d="M156.63 66.2652C156.63 66.2652 157.689 60.4972 156.63 59.4406C155.571 58.3841 155.908 63.0016 155.328 66.2652C155.085 67.6583 156.63 66.2652 156.63 66.2652Z" fill="#FBC8A0"/>
<path d="M97.5294 95.1206C94.0617 91.3405 87.4165 96.1536 76.8485 120.744C76.2522 122.622 74.942 126.019 80.3476 124.986C84.8667 124.117 101.507 99.4485 97.5294 95.1206Z" fill="#FBC8A0"/>
<path d="M106.575 66.0303C106.575 66.0303 112.475 64.8563 111.408 60.8493C110.341 56.8422 104.214 53.0856 97.0193 55.2065C89.8249 57.3274 83.1954 61.8276 84.6312 69.5599C86.0669 77.2923 88.1774 81.8003 86.9848 87.443C85.7923 93.0858 81.5714 101.327 83.1954 107.22C84.8195 113.113 87.9028 116.4 94.752 116.4C101.601 116.4 107.729 111.219 107.729 105.342C107.729 99.4642 104.19 86.0421 104.19 80.8611C104.19 75.6801 109.407 68.8712 106.575 66.0303Z" fill="#4C266E"/>
<path d="M117.033 219.308C117.033 219.308 110.27 250.058 111.369 252.883C113.613 253.787 115.771 254.89 117.818 256.178H106.967L103.97 220.576L117.033 219.308Z" fill="#FBC8A0"/>
<path d="M114.358 255.411L115.927 255.059C115.927 255.059 119.489 255.059 119.787 256.178V257H106.512C106.48 256.014 106.572 255.028 106.787 254.065C109.086 254.535 112.648 255.92 114.358 255.411Z" fill="#322875"/>
<path d="M97.2154 219.308C97.2154 219.308 89.668 250.058 90.7664 252.883C93.0105 253.787 95.1688 254.89 97.2154 256.178H86.3336C86.3336 256.178 85.8629 246.606 85.8629 242.999C85.8629 239.391 85.3215 220.701 85.3215 220.701L97.2154 219.308Z" fill="#FBC8A0"/>
<path d="M93.5044 255.395L95.3246 255.059C95.3246 255.059 98.8865 255.059 99.1846 256.178V257H85.9099C85.9117 255.97 86.0301 254.943 86.263 253.94C88.5303 254.417 91.8255 255.865 93.5044 255.395Z" fill="#322875"/>
<path d="M117.033 219.308L115.606 226.023C115.606 226.023 105.728 227.745 104.896 231.658C103.9 222.267 103.665 222.001 103.665 222.001L117.033 219.308Z" fill="#F9AF84"/>
<path d="M96.5878 222.76L94.3832 231.369C94.3832 231.369 87.9498 227.119 85.4392 224.615C85.4392 219.285 85.2588 218.651 85.2588 218.651L96.5878 222.76Z" fill="#F9AF84"/>
<path d="M109.172 132.867L114.829 132.554C119.368 140.102 122.188 148.553 123.09 157.308C124.267 171.192 129.226 190.492 130.873 197.316C132.521 204.141 134.647 216.373 122.855 221.085C111.063 225.796 96.533 226.962 87.4165 222.994C78.2999 219.027 77.0838 217.344 69.301 213.814C61.5182 210.285 47.3334 209.345 39.8095 206.52C32.2856 203.695 19.0501 194.288 22.5885 179.926C26.1268 165.565 36.9773 163.225 46.1801 160.635C55.383 158.044 60.4512 157.692 63.8719 154.28C67.2926 150.867 77.5781 139.457 82.8739 136.866C88.1696 134.276 94.3049 132.953 96.2741 130.981C99.8909 134.612 109.172 132.867 109.172 132.867Z" fill="#C1E2ED"/>
<path fill-rule="evenodd" clip-rule="evenodd" d="M114.829 132.554C116.241 140.936 119.371 164.305 120.595 171.568C122.4 182.259 131.885 200.384 130.575 208.868C129.32 217.039 114.648 224.763 104.292 225.303C110.859 224.982 125.891 221.304 127.343 219.042C130.183 214.573 138.122 216.694 138.091 210.691C138.06 204.689 133.517 196.236 131.556 190.476C125.805 173.642 125.75 175.606 125.554 172.961C125.318 169.893 121.992 150.1 121.992 150.1L119.638 142.517L114.829 132.554Z" fill="#A3CFDC"/>
<path opacity="0.3" fill-rule="evenodd" clip-rule="evenodd" d="M96.6664 130.762C89.6054 136.162 71.2154 152.378 65.1272 157.058C56.1754 163.93 36.2869 171.224 31.1873 178.541C26.2681 185.585 31.9718 204.368 41.0335 207.084C34.8904 205.237 25.7189 196.792 24.189 194.562C22.5415 192.128 21.2155 180.787 24.3538 175.309C27.3822 170.011 29.2573 166.951 35.3376 164.485C52.4645 157.512 58.5134 156.573 60.5611 154.695C62.9148 152.519 79.4925 139.778 79.4925 139.778L81.344 138.298C81.6875 138.022 82.0612 137.786 82.4581 137.594L96.6664 130.762Z" fill="#A3CFDC"/>
<path d="M224 3.53749V62.4539C224 63.3853 223.632 64.2792 222.975 64.9415C222.318 65.6038 221.427 65.981 220.493 65.9913H127.17C126.704 65.9913 126.243 65.8998 125.813 65.7221C125.382 65.5443 124.991 65.2837 124.662 64.9552C124.333 64.6268 124.072 64.2368 123.893 63.8076C123.715 63.3784 123.624 62.9184 123.624 62.4539V3.53749C123.624 3.07294 123.715 2.61294 123.893 2.18375C124.072 1.75456 124.333 1.36459 124.662 1.03611C124.991 0.70762 125.382 0.447051 125.813 0.269275C126.243 0.0914998 126.704 0 127.17 0L220.493 0C221.427 0.0103037 222.318 0.387546 222.975 1.04984C223.632 1.71213 224 2.60603 224 3.53749ZM217.449 58.4781V8.04543C217.449 7.24215 217.129 6.47177 216.559 5.90377C215.99 5.33576 215.218 5.01666 214.413 5.01666H134.56C133.755 5.01666 132.983 5.33576 132.413 5.90377C131.844 6.47177 131.524 7.24215 131.524 8.04543V58.4781C131.524 59.2814 131.844 60.0518 132.413 60.6198C132.983 61.1878 133.755 61.5069 134.56 61.5069H214.413C214.811 61.5069 215.206 61.4285 215.574 61.2763C215.943 61.1241 216.278 60.901 216.559 60.6198C216.841 60.3385 217.065 60.0046 217.218 59.6372C217.37 59.2697 217.449 58.8758 217.449 58.4781Z" fill="#A3CFDC"/>
<path d="M214.412 5.0166H134.56C132.883 5.0166 131.524 6.37263 131.524 8.04538V58.478C131.524 60.1508 132.883 61.5068 134.56 61.5068H214.412C216.089 61.5068 217.449 60.1508 217.449 58.478V8.04538C217.449 6.37263 216.089 5.0166 214.412 5.0166Z" fill="white"/>
<path d="M180.48 44.1169L175.506 48.5778L170.524 44.1169V31.2896H180.48V44.1169Z" fill="#FFB184"/>
<path d="M154.182 47.4585C157.124 42.5593 165.488 40.9158 170.525 37.1826C170.525 37.1826 172.494 44.2263 175.695 44.2263C179.72 44.2263 180.481 37.1826 180.481 37.1826C185.918 41.7219 193.779 42.7784 196.062 45.048C201.263 50.2369 201.326 61.4833 201.326 61.4833H150.173C150.271 56.5411 151.652 51.7087 154.182 47.4585Z" fill="#C1E2ED"/>
<path d="M165.652 12.0993C166.139 11.4498 168.006 11.575 169.505 10.1115C171.576 8.04532 177.75 6.40179 182.92 10.4089C185.753 12.6002 187.628 15.8325 186.584 20.1761C186.153 22.0153 187.589 22.5944 183.399 28.785L167.708 28.8868C167.708 28.8868 165.409 27.525 165.189 25.5762C164.601 20.5361 162.436 16.4351 165.652 12.0993Z" fill="#A3CFDC"/>
<path d="M166.876 23.1578C166.594 29.7397 170.399 35.7738 174.989 35.8677C179.578 35.9616 183.831 31.3989 184.121 24.8404C184.411 18.282 180.771 12.6001 176.016 12.1305C171.262 11.6609 167.143 16.5993 166.876 23.1578Z" fill="#FCC8A0"/>
<path d="M184.113 23.3536C185.47 21.9684 186.051 16.6934 183.438 14.0873C180.826 11.4811 179.57 8.18625 174.808 10.4559C171.34 12.0994 168.281 11.3011 167.143 13.6647C165.723 16.6152 165.142 20.8883 166.774 23.9875C169.136 15.6525 179.296 14.6586 184.113 23.3536Z" fill="#C1E2ED"/>
<path d="M153.727 61.4911L152.817 47.5916H148.102L146.47 61.4911H153.727Z" fill="#80CFD4"/>
<path d="M168.971 42.7706C169.148 43.4437 169.549 44.0369 170.109 44.4532C173.333 47.0202 170.823 46.0889 169.002 44.4532C166.194 41.894 169.214 38.4191 169.787 37.6991C170.211 37.2061 170.258 37.2061 170.493 37.2061C170.493 37.2061 168.335 40.3757 168.924 42.794L168.971 42.7706Z" fill="white"/>
<path d="M167.449 42.9976C167.643 43.6479 168.049 44.2152 168.602 44.6098C171.842 47.1298 169.434 46.0811 167.496 44.6098C165.558 43.1384 168.022 38.6148 168.893 38.2705C168.893 38.2705 169.261 38.02 169.952 37.5974C169.952 37.5974 166.813 40.6575 167.449 43.0054V42.9976Z" fill="white"/>
<path d="M183.885 43.9836C183.885 43.9836 181.971 38.5052 180.48 37.1826C180.48 36.9869 180.48 36.893 180.48 36.7834C180.771 37.1826 181.383 37.5661 182.41 38.6148C183.791 39.9844 184.937 44.5237 185.337 46.0498C183.768 47.615 184.325 44.6097 184.325 44.6097L183.885 43.9836Z" fill="white"/>
<path d="M168.94 46.4099C168.831 45.8181 168.943 45.2072 169.253 44.6915C169.564 44.1757 170.052 43.7906 170.626 43.6081C172.776 42.6689 173.341 43.2324 175.028 44.1716C176.715 45.1107 176.526 45.9325 178.59 44.7664C180.653 43.6003 181.022 42.6689 182.434 42.6689C183.846 42.6689 184.96 42.8568 184.96 44.5394C184.96 46.2221 187.126 46.7308 185.541 48.3039C183.956 49.877 183.525 51.317 180.834 51.7866C178.143 52.2562 174.698 54.0014 172.635 51.9275C170.572 49.8535 168.712 48.0143 168.94 46.4099Z" fill="white"/>
<path d="M172.635 47.5915C173.149 48.665 174.051 49.5042 175.161 49.9394C177.036 50.722 178.629 51.4342 179.751 50.315C180.873 49.1959 181.846 49.0863 182.662 48.2802C183.478 47.4741 184.231 46.0106 182.662 46.7619C181.093 47.5132 179.955 49.642 178.833 49.642C177.711 49.642 176.377 50.0254 175.067 48.7185C174.77 48.363 174.398 48.0776 173.978 47.8828C173.557 47.6879 173.099 47.5884 172.635 47.5915Z" fill="#EFE6E8"/>
<path d="M168.21 17.1003C168.21 17.1003 165.786 20.0195 165.786 21.17C165.433 22.297 165.786 22.8292 166.507 21.17C167.041 19.9491 168.21 17.1003 168.21 17.1003Z" fill="#A3CFDC"/>
<path d="M185.188 18.0003C184.409 17.1912 183.528 16.4862 182.567 15.9028C181.618 15.4959 182.128 16.075 182.567 16.5133C183.007 16.9516 183.022 17.0768 184.136 18.462C184.787 19.2183 185.158 20.174 185.188 21.1699C185.507 20.1373 185.507 19.0329 185.188 18.0003Z" fill="#A3CFDC"/>
<path d="M150.173 49.3055L152.817 47.5602C152.817 47.5602 156.308 44.4297 154.676 39.8983C154.438 38.8707 154.301 37.8221 154.268 36.7678C151.836 34.3416 146.69 37.6913 146.384 39.8983C145.834 43.8114 148.102 46.942 148.102 47.5524C148.102 48.1629 150.173 49.3055 150.173 49.3055Z" fill="#80CFD4"/>
<path d="M152.095 36.7835C152.095 36.7835 152.095 30.7886 152.707 28.9572C152.848 28.5268 154.276 26.4998 154.276 27.9946V36.7835C154.268 37.5662 152.095 36.7835 152.095 36.7835Z" fill="#80CFD4"/>
<path d="M153.727 61.4911L153.178 53.1483L147.459 53.1013L146.47 61.4911H153.727Z" fill="#FFB184"/>
<path d="M153.727 53.3204C153.727 53.5865 153.578 53.8057 153.397 53.8057H147.121C146.941 53.8057 146.792 53.5865 146.792 53.3204C146.792 53.0543 146.941 52.843 147.121 52.843H153.397C153.578 52.843 153.727 53.0543 153.727 53.3204Z" fill="#6DC4C6"/>
<path fill-rule="evenodd" clip-rule="evenodd" d="M213.862 53.5925C217.026 52.7553 220.384 52 222.395 52C224.403 52 227.764 52.7553 230.928 53.5925C233.75 54.3502 236.553 55.1744 239.336 56.0647C240.938 56.5743 242.145 57.9544 242.379 59.6561C244.117 72.387 240.086 81.8207 235.199 88.0633C233.116 90.7424 230.644 93.0941 227.864 95.04C226.898 95.717 225.876 96.3116 224.81 96.8175C223.991 97.1936 223.117 97.5 222.395 97.5C221.673 97.5 220.8 97.1936 219.981 96.8175C218.914 96.3121 217.892 95.7174 216.926 95.04C214.147 93.0938 211.676 90.7421 209.594 88.0633C204.702 81.8207 200.673 72.387 202.412 59.6561C202.528 58.8313 202.875 58.0562 203.414 57.4206C203.952 56.785 204.659 56.3149 205.454 56.0647C208.237 55.1745 211.041 54.3502 213.862 53.5925ZM223.957 74.474C224.957 74.108 225.798 73.4028 226.331 72.4812C226.865 71.5596 227.058 70.48 226.878 69.4304C226.698 68.3808 226.155 67.4277 225.344 66.7371C224.533 66.0466 223.506 65.6623 222.441 65.6513C221.376 65.6402 220.341 66.0031 219.516 66.6767C218.691 67.3502 218.129 68.2918 217.927 69.3375C217.724 70.3831 217.895 71.4665 218.41 72.399C218.924 73.3315 219.75 74.054 220.742 74.4406C220.678 74.571 220.633 74.7099 220.609 74.8531L219.598 80.9198C219.562 81.137 219.574 81.3594 219.632 81.5717C219.691 81.7839 219.795 81.9808 219.937 82.1488C220.08 82.3168 220.257 82.4518 220.456 82.5444C220.656 82.6371 220.874 82.6851 221.094 82.6852H223.627C223.848 82.6853 224.066 82.6371 224.267 82.544C224.467 82.4508 224.645 82.3149 224.787 82.1459C224.93 81.9769 225.034 81.7787 225.091 81.5653C225.149 81.352 225.16 81.1285 225.122 80.9107L224.07 74.844C224.048 74.7164 224.01 74.592 223.957 74.474Z" fill="#4B0A70"/>
</svg>
