<svg width="316" height="237" viewBox="0 0 316 237" fill="none" xmlns="http://www.w3.org/2000/svg">
<path d="M0 236.14H315.06C315.06 236.14 302.12 212.35 283.41 210C264.7 207.65 249.41 216.5 241.21 218.76C233.01 221.02 247.93 173.32 206.21 174.63C164.49 175.94 147.64 201.32 123.69 208C99.74 214.68 91.11 192.24 66.69 190.05C42.27 187.86 8.63 199.5 0 236.14Z" fill="#F5E5E6"/>
<path d="M131.63 55.6899C125.93 54.2599 119.68 59.1799 116.28 65.1899C113 70.9999 103.89 66.9999 97.0002 68.2699C89.8102 69.5799 78.8202 59.3699 70.5402 59.1199C61.2302 58.8499 42.1302 77.1199 79.6902 83.6199C92.9202 85.9199 100.59 108.11 122.47 104.52C130.75 103.16 153.08 104.36 160.03 98.6399C165.55 94.0999 164.75 83.3999 164.28 76.1099C163.77 68.2499 153.38 59.7399 147.95 55.8599C141.06 50.9999 137 48.9999 131.63 55.6899Z" fill="#4C266E"/>
<path d="M209.75 228C215.11 190.14 221.35 186.79 217.56 183.05C216.56 181.34 198.75 176.31 195.11 174.51C193.48 170.17 201.25 152.92 207.28 151.09C215.02 155.39 232.56 173.02 233.22 175.8C235.22 184.15 220.81 222.39 217.88 227.8C217.17 229.66 209.48 229.47 209.75 228Z" fill="#2C58B1"/>
<path d="M156.94 175.72C159.2 169.15 147.75 158.52 141.2 157.77C122 174.45 73.24 214 56.69 224.59C54.17 228.44 55.86 231.24 59.18 232.13C61.68 228.84 106.98 212.49 119.83 197.69C122.14 195 150.17 179.81 156.94 175.72Z" fill="#2C58B1"/>
<path d="M144.1 99.4598C136.88 98.7398 119.04 79.2798 114.38 73.2798C106.78 63.4898 96.3801 45.5398 94.1101 42.1198C93.1101 40.6598 89.6201 42.7698 89.9501 43.8098C93.0401 53.4198 102.58 75.6598 108.87 84.7498C122.95 105.11 146.06 117.16 146.32 118.8C148 125.34 150.27 100.07 144.1 99.4598Z" fill="#FFCAA6"/>
<path d="M159.53 88.7099C161.59 86.8399 153 61.3799 149.37 53.7099C147.37 49.5199 130.24 28.8999 123.69 22.4099C124.28 21.8999 126.69 19.5299 127.69 20.1399C145.21 29.1399 161.12 53.8199 166.03 63.7199C173.43 78.7199 171.18 85.2399 178.08 98.5599C177.64 102.81 155.55 93.4699 159.53 88.7099Z" fill="#FFCAA6"/>
<path d="M146.5 99.4299C146.89 99.0599 147.66 98.3299 147.7 97.7199C147.78 96.2999 146.08 93.3999 145.14 92.1899C147.06 92.6899 148.26 91.1899 150.75 90.8799C151.524 90.259 152.259 89.5911 152.95 88.8799C153.62 89.7904 154.338 90.665 155.1 91.4999C155.57 91.9799 157.3 93.0499 157.82 92.2299C159.82 93.2299 164.73 99.4699 160.62 105.73C152.39 110.33 146.73 100.51 146.5 99.4299Z" fill="#FFCAA6"/>
<path d="M150.72 92.5398C150.104 93.0954 149.357 93.4852 148.548 93.6724C147.74 93.8595 146.898 93.838 146.1 93.6098C143.67 89.6698 140.76 87.9598 138.1 85.8998C139.03 84.6698 147.02 77.8998 149.67 80.8998C149.38 81.5998 151.35 86.7098 153.21 89.2098C152.452 90.3719 151.62 91.4841 150.72 92.5398Z" fill="#F2B186"/>
<path d="M147.21 71.2799C151.44 76.8199 153.66 85.2199 149.97 89.3599C145.86 93.9699 135.32 86.8499 130.77 80.9699C125.77 74.5399 128.01 68.1499 132.91 66.1799C137.81 64.2099 142.27 64.8099 147.21 71.2799Z" fill="#FFCAA6"/>
<path d="M149.7 70.6299C149.7 71.2299 146.45 69.4799 142.7 69.9399C140.17 70.2599 135.88 73.2599 131.05 69.4999C129.4 68.2099 133.26 76.2499 131.74 81.2399C130.59 85.0099 125.19 72.1599 125.57 69.7199C126.41 64.2299 129.15 59.8399 131.57 58.8999C136.12 57.0899 146.09 61.3699 149.7 70.6299Z" fill="#4C266E"/>
<path d="M226.1 236.14C226.62 235.35 225.98 233.96 224.38 233.65C224.06 233.59 220.38 232.94 218.75 231.51C218.228 231.001 217.878 230.343 217.747 229.626C217.616 228.909 217.712 228.17 218.02 227.51C216.81 227.95 211.28 227.68 209.83 227.6C209.76 228 208.26 233.68 209.11 236.18L226.1 236.14Z" fill="#322875"/>
<path d="M59.1801 232.13C58.8901 232.51 54.5101 236.42 52.1001 235.95C50.3874 233.578 48.9073 231.046 47.6801 228.39C45.2401 223.3 44.8001 223.11 43.6801 220.49C42.8801 218.64 45.8601 217.94 47.2701 219.9C48.4938 221.804 50.0523 223.471 51.8701 224.82C52.6445 225.156 53.4862 225.309 54.3294 225.265C55.1726 225.222 55.9942 224.984 56.7301 224.57C57.2824 227.168 58.1035 229.702 59.1801 232.13Z" fill="#322875"/>
<path d="M146.65 153.27C144.5 155.1 142.52 156.71 141.09 157.84C147.62 159.73 154.88 170.84 156.62 175.91C158.756 174.655 160.731 173.144 162.5 171.41C159.79 164.32 152.83 157 146.65 153.27Z" fill="#2C58B1"/>
<path d="M208.67 151.89C207.39 150.97 205.31 149.15 202.6 147.34C196.6 152.29 190.19 162.74 189.6 171.14C192.08 172.69 194.26 174.04 195.37 174.59C194.16 171 206.5 153.19 208.67 151.89Z" fill="#2C58B1"/>
<path d="M96.0601 19.5299L91.8301 22.2399C91.5936 22.4037 91.4315 22.6543 91.379 22.9372C91.3266 23.22 91.3881 23.5122 91.5501 23.7499L93.2601 26.4199L77.6301 36.4199L75.9401 33.7799C75.7941 33.5308 75.5552 33.3498 75.2758 33.2766C74.9964 33.2035 74.6995 33.2442 74.4501 33.3899L70.2101 36.0899C69.9767 36.2587 69.818 36.5116 69.7676 36.7952C69.7172 37.0789 69.7791 37.371 69.9401 37.6099L74.3401 44.5099C74.4862 44.759 74.7251 44.94 75.0044 45.0131C75.2838 45.0862 75.5808 45.0455 75.8301 44.8999L80.0701 42.1999C80.1878 42.1179 80.2882 42.0136 80.3655 41.8928C80.4428 41.772 80.4955 41.6371 80.5206 41.4959C80.5457 41.3547 80.5426 41.2099 80.5117 41.0699C80.4807 40.9299 80.4224 40.7973 80.3401 40.6799L79.0001 38.4699L94.6301 28.4699L96.0001 30.6499C96.0716 30.7741 96.1669 30.8829 96.2805 30.9703C96.3941 31.0576 96.5238 31.1217 96.6622 31.1588C96.8006 31.196 96.9449 31.2055 97.087 31.1868C97.2291 31.1681 97.366 31.1216 97.4901 31.0499L101.72 28.3399C101.837 28.2589 101.938 28.1554 102.015 28.0355C102.092 27.9155 102.145 27.7815 102.17 27.6411C102.195 27.5007 102.192 27.3568 102.161 27.2175C102.13 27.0783 102.072 26.9465 101.99 26.8299L97.5901 19.9299C97.5187 19.8003 97.4217 19.6866 97.305 19.5957C97.1882 19.5048 97.0542 19.4386 96.9111 19.4012C96.7679 19.3637 96.6186 19.3559 96.4723 19.378C96.3261 19.4001 96.1858 19.4518 96.0601 19.5299Z" fill="#322875"/>
<path d="M128.29 0.14985L124.05 2.85985C123.933 2.94086 123.833 3.04432 123.755 3.16425C123.678 3.28417 123.626 3.4182 123.601 3.55859C123.575 3.69898 123.578 3.84295 123.609 3.98219C123.64 4.12143 123.698 4.25318 123.78 4.36985L125.48 6.99985L109.85 16.9998L108.17 14.3598C108.022 14.1127 107.783 13.9335 107.505 13.8606C107.226 13.7876 106.93 13.8269 106.68 13.9698L102.44 16.6698C102.322 16.7518 102.222 16.8561 102.145 16.9769C102.067 17.0977 102.015 17.2326 101.99 17.3738C101.965 17.515 101.968 17.6598 101.999 17.7998C102.03 17.9398 102.088 18.0724 102.17 18.1898L106.57 25.0898C106.716 25.339 106.955 25.52 107.234 25.5931C107.514 25.6662 107.811 25.6255 108.06 25.4798L112.3 22.7799C112.536 22.6127 112.696 22.3596 112.747 22.0752C112.797 21.7908 112.734 21.4979 112.57 21.2598L111.18 19.0798L126.81 9.07985L128.18 11.2298C128.252 11.354 128.347 11.4629 128.461 11.5502C128.574 11.6376 128.704 11.7016 128.842 11.7388C128.981 11.7759 129.125 11.7854 129.267 11.7668C129.409 11.7481 129.546 11.7015 129.67 11.6298L133.91 8.99985C134.028 8.91884 134.128 8.81538 134.205 8.69545C134.282 8.57553 134.335 8.4415 134.36 8.30111C134.385 8.16072 134.382 8.01675 134.351 7.87751C134.32 7.73827 134.262 7.60651 134.18 7.48985L129.78 0.58985C129.712 0.462299 129.619 0.349571 129.507 0.25823C129.395 0.166889 129.266 0.0987602 129.127 0.057811C128.989 0.0168619 128.843 0.00391092 128.699 0.0197122C128.556 0.0355135 128.417 0.0797514 128.29 0.14985Z" fill="#322875"/>
<path d="M186.92 136.92C184.3 139.2 171.29 141.51 160.43 139.66C158.43 142.88 152 148.75 146.65 153.27C152.978 157.206 158.139 162.76 161.6 169.36C163.6 166.99 168.98 164.46 168.6 162.27C168.22 160.08 163.8 159.43 162.07 157.91C159.67 155.81 160.75 154.91 162.65 155.37C165.97 156.17 167.22 157.98 172.23 157.84C182.28 157.55 186.89 149.49 189.58 149.78C192.86 150.14 183.19 157.62 181.3 160.45C179.69 162.86 188.4 165.94 189.5 169.52C189.6 169.761 189.646 170.021 189.635 170.281C189.625 170.542 189.558 170.797 189.44 171.03L189.61 171.14C190.19 162.74 196.61 152.29 202.61 147.34C197 143.63 189.64 139.16 186.92 136.92Z" fill="#2C58B1" stroke="#2C58B1" stroke-width="0.1"/>
<path d="M189.5 169.52C188.4 165.94 179.69 162.86 181.3 160.45C183.19 157.62 192.86 150.14 189.58 149.78C186.89 149.49 182.28 157.55 172.23 157.84C167.23 157.98 165.97 156.17 162.65 155.37C160.75 154.91 159.65 155.81 162.07 157.91C163.8 159.43 168.2 159.98 168.6 162.27C169 164.56 163.6 166.99 161.6 169.36C161.93 170.04 162.24 170.73 162.5 171.36C165.79 168.36 169.56 164.8 172.59 164.1C174.418 163.647 176.34 163.748 178.11 164.39C180.11 165.08 185.11 168.3 189.44 170.98C189.551 170.754 189.614 170.508 189.624 170.256C189.634 170.005 189.592 169.754 189.5 169.52Z" fill="#2C58B1" stroke="#2C58B1" stroke-width="0.1"/>
<path d="M83.1201 34.7099C82.3265 33.9218 81.7273 32.9597 81.3701 31.8999C81.8401 30.8999 82.6301 31.6399 82.8101 31.4499C82.9901 31.2599 82.4301 30.1099 82.8101 29.8999C83.1901 29.6899 83.6101 30.0799 83.9701 29.9499C84.3301 29.8199 83.7401 28.8099 84.1001 28.5999C84.4601 28.3899 85.4001 28.8299 85.5701 28.6599C85.9801 28.2899 85.8001 27.2699 86.4901 27.1599C87.9901 26.9199 89.6201 29.3199 90.0001 30.0199C90.8901 31.8299 85.0001 35.5299 83.1201 34.7099Z" fill="#FFCAA6"/>
<path d="M124.7 23.4098C121.88 20.4898 114.8 16.8898 114.1 14.7098C113.32 12.2598 118.63 11.8098 120.87 11.3198C121.96 14.2698 123.5 14.7198 123.87 16.7598C124.22 18.6098 126.58 19.3698 127.74 20.1498C127.62 20.2698 127.94 21.1698 124.7 23.4098Z" fill="#FFCAA6"/>
<path d="M121 11.6099C120.706 10.695 120.303 9.8187 119.8 8.99988C118.8 8.85988 118.86 9.66988 118.63 9.70988C118.4 9.74988 117.63 8.93988 117.35 9.08988C117.07 9.23988 117.08 9.87988 116.82 10.0899C116.56 10.2999 115.82 9.51988 115.46 9.69988C115.1 9.87988 115.04 11.0799 114.83 11.1199C114.36 11.2599 113.38 10.6899 113.08 11.2599C112.51 12.3199 113.85 14.2599 114.17 14.9299C115 16.6099 120.66 13.5299 121 11.6099Z" fill="#FFCAA6"/>
<path d="M94.11 42.1899C92.38 38.5299 91 30.5199 89.23 29.0999C87.23 27.5099 84.23 32.6799 82.97 34.5999C85.35 36.5999 86.41 38.0199 88.18 39.0899C89.78 40.0899 89.4 42.6399 89.99 43.9099C90.15 43.8199 90.88 44.4399 94.11 42.1899Z" fill="#FFCAA6"/>
<path d="M179.64 103.22C179.257 101.57 178.721 99.9602 178.04 98.4098C177.43 99.2198 175.95 99.6598 173.04 98.9998C170.167 98.3849 167.463 97.1499 165.118 95.3811C162.772 93.6124 160.841 91.3526 159.46 88.7598C158.67 89.4698 158.1 92.0798 157.61 92.3898C160.8 97.3898 159.61 104.45 158.42 105.22C156.73 106.29 149.61 103.63 147.06 98.8398C146.57 99.1998 146.16 98.9498 145.68 99.4098C145.106 99.5301 144.514 99.5301 143.94 99.4098C144.78 100.72 147.02 110.92 147.17 113.9C147.17 114.66 147.35 117.9 146.3 118.77C146.333 119.177 146.424 119.578 146.57 119.96C149.264 120.81 152.045 121.357 154.86 121.59C166.92 122.14 175.3 110.8 179.64 103.22Z" fill="#F5E5E6"/>
<path d="M186.93 136.93C186.339 136.386 185.857 135.734 185.51 135.01C184.38 132.33 184.1 126.38 183.62 121.33C183.391 119.073 183.041 116.829 182.57 114.61C178.746 118.725 175.173 123.066 171.87 127.61C167.41 133.87 165.39 138.77 163.51 141.99C170.76 144.33 187.57 141.4 186.93 136.93Z" fill="#F5E5E6"/>
<path d="M182.57 114.61C181.73 110.61 180.57 106.42 179.64 103.22C175.3 110.8 166.92 122.14 154.88 121.62C152.065 121.387 149.284 120.84 146.59 119.99C147.09 121.294 147.763 122.525 148.59 123.65C151.35 126.85 152.36 126.27 155.92 128.59C158.714 130.82 160.534 134.046 161 137.59C161.003 138.316 160.813 139.03 160.45 139.66C160.769 140.24 161.21 140.745 161.741 141.14C162.272 141.535 162.883 141.811 163.53 141.95C165.41 138.73 167.43 133.83 171.89 127.57C175.188 123.04 178.755 118.713 182.57 114.61Z" fill="#D3C0DB"/>
</svg>
