<svg width="316" height="237" viewBox="0 0 316 237" fill="none" xmlns="http://www.w3.org/2000/svg">
<path d="M0 236.127H315.06C315.06 236.127 302.12 212.337 283.41 209.987C264.7 207.637 249.41 216.487 241.21 218.747C233.01 221.007 247.93 173.307 206.21 174.617C164.49 175.927 147.64 201.307 123.69 207.987C99.74 214.667 91.11 192.227 66.69 190.037C42.27 187.847 8.63 199.487 0 236.127Z" fill="#F5E5E6"/>
<path d="M131.63 55.6767C125.93 54.2467 119.68 59.1667 116.28 65.1767C113 70.9867 103.89 66.9867 97.0002 68.2567C89.8102 69.5667 78.8202 59.3567 70.5402 59.1067C61.2302 58.8367 42.1302 77.1067 79.6902 83.6067C92.9202 85.9067 100.59 108.097 122.47 104.507C130.75 103.147 153.08 104.347 160.03 98.6267C165.55 94.0867 164.75 83.3867 164.28 76.0967C163.77 68.2367 153.38 59.7267 147.95 55.8467C141.06 50.9867 137 48.9867 131.63 55.6767Z" fill="#4C266E"/>
<path d="M209.75 227.987C215.11 190.127 221.35 186.777 217.56 183.037C216.56 181.327 198.75 176.297 195.11 174.497C160.92 149.787 178.46 137.897 207.28 151.077C215.02 155.377 232.56 173.007 233.22 175.787C235.22 184.137 220.81 222.377 217.88 227.787C217.17 229.647 209.48 229.457 209.75 227.987Z" fill="#335AA9"/>
<path d="M119.83 197.677C106.98 212.477 61.68 228.827 59.18 232.117C55.86 231.227 54.18 228.427 56.69 224.577C73.24 213.987 122 174.437 141.2 157.757C147.75 158.507 159.2 169.137 156.94 175.707C150.17 179.797 122.14 194.987 119.83 197.677ZM207.28 150.987C212.77 162.927 215.28 171.367 196.54 174.487C196.018 174.617 195.467 174.564 194.98 174.337C193.41 173.397 189.49 171.007 189.44 170.977C188.44 170.307 188.7 170.447 188.1 170.087C186.045 168.678 183.904 167.399 181.69 166.257C178.69 164.607 178.41 164.117 174.93 163.787C172.5 163.557 161.66 172.147 156.93 175.667C145.17 173.867 136.75 167.887 140.77 158.087C146.12 153.557 158.46 142.827 160.42 139.607C171.28 141.457 184.29 139.147 186.91 136.867C189.64 139.147 201.72 147.317 207.28 150.987Z" fill="#335AA9"/>
<path d="M144.1 99.4467C136.88 98.7267 119.04 79.2667 114.38 73.2667C106.78 63.4767 96.3801 45.5267 94.1101 42.1067C93.1101 40.6467 89.6201 42.7567 89.9501 43.7967C93.0401 53.4067 102.58 75.6467 108.87 84.7367C122.95 105.097 146.06 117.147 146.32 118.787C148 125.327 150.27 100.057 144.1 99.4467Z" fill="#FFCAA6"/>
<path d="M159.53 88.6967C161.59 86.8267 153 61.3667 149.37 53.6967C147.37 49.5067 130.24 28.8867 123.69 22.3967C124.28 21.8867 126.69 19.5167 127.69 20.1267C145.21 29.1267 161.12 53.8067 166.03 63.7067C173.43 78.7067 171.18 85.2267 178.08 98.5467C177.64 102.797 155.55 93.4567 159.53 88.6967Z" fill="#FFCAA6"/>
<path d="M146.5 99.4167C146.89 99.0467 147.66 98.3167 147.7 97.7067C147.78 96.2867 146.08 93.3867 145.14 92.1767C147.06 92.6767 148.26 91.1767 150.75 90.8667C151.524 90.2458 152.259 89.5779 152.95 88.8667C153.62 89.7772 154.338 90.6518 155.1 91.4867C155.57 91.9667 157.3 93.0367 157.82 92.2167C159.82 93.2167 164.73 99.4567 160.62 105.717C152.39 110.317 146.73 100.497 146.5 99.4167Z" fill="#FFCAA6"/>
<path d="M150.72 92.5266C150.104 93.0823 149.357 93.472 148.548 93.6592C147.74 93.8464 146.898 93.8248 146.1 93.5966C143.67 89.6566 140.76 87.9466 138.1 85.8866C139.03 84.6566 147.02 77.8866 149.67 80.8866C149.38 81.5866 151.35 86.6966 153.21 89.1966C152.452 90.3587 151.62 91.471 150.72 92.5266Z" fill="#F2B186"/>
<path d="M147.21 71.2667C151.44 76.8067 153.66 85.2067 149.97 89.3467C145.86 93.9567 135.32 86.8367 130.77 80.9567C125.77 74.5267 128.01 68.1367 132.91 66.1667C137.81 64.1967 142.27 64.7967 147.21 71.2667Z" fill="#FFCAA6"/>
<path d="M149.7 70.6167C149.7 71.2167 146.45 69.4667 142.7 69.9267C140.17 70.2467 135.88 73.2467 131.05 69.4867C129.4 68.1967 133.26 76.2367 131.74 81.2267C130.59 84.9967 125.19 72.1467 125.57 69.7067C126.41 64.2167 129.15 59.8267 131.57 58.8867C136.12 57.0767 146.09 61.3567 149.7 70.6167Z" fill="#4C266E"/>
<path d="M226.1 236.127C226.62 235.337 225.98 233.947 224.38 233.637C224.06 233.577 220.38 232.927 218.75 231.497C218.228 230.988 217.878 230.33 217.747 229.613C217.616 228.896 217.712 228.157 218.02 227.497C216.81 227.937 211.28 227.667 209.83 227.587C209.76 227.987 208.26 233.667 209.11 236.167L226.1 236.127Z" fill="#322875"/>
<path d="M59.1801 232.117C58.8901 232.497 54.5101 236.407 52.1001 235.937C50.3874 233.564 48.9073 231.033 47.6801 228.377C45.2401 223.287 44.8001 223.097 43.6801 220.477C42.8801 218.627 45.8601 217.927 47.2701 219.887C48.4938 221.791 50.0523 223.458 51.8701 224.807C52.6445 225.143 53.4862 225.295 54.3294 225.252C55.1726 225.209 55.9942 224.971 56.7301 224.557C57.2824 227.155 58.1035 229.688 59.1801 232.117Z" fill="#322875"/>
<path d="M96.0601 19.5167L91.8301 22.2267C91.5936 22.3905 91.4315 22.6411 91.379 22.924C91.3266 23.2069 91.3881 23.499 91.5501 23.7367L93.2601 26.4067L77.6301 36.4067L75.9401 33.7667C75.7941 33.5176 75.5552 33.3366 75.2758 33.2635C74.9964 33.1903 74.6995 33.2311 74.4501 33.3767L70.2101 36.0767C69.9767 36.2455 69.818 36.4984 69.7676 36.7821C69.7172 37.0657 69.7791 37.3578 69.9401 37.5967L74.3401 44.4967C74.4862 44.7458 74.7251 44.9268 75.0044 44.9999C75.2838 45.073 75.5808 45.0323 75.8301 44.8867L80.0701 42.1867C80.1878 42.1047 80.2882 42.0004 80.3655 41.8796C80.4428 41.7588 80.4955 41.6239 80.5206 41.4827C80.5457 41.3415 80.5426 41.1968 80.5117 41.0567C80.4807 40.9167 80.4224 40.7841 80.3401 40.6667L79.0001 38.4567L94.6301 28.4567L96.0001 30.6367C96.0716 30.7609 96.1669 30.8697 96.2805 30.9571C96.3941 31.0444 96.5238 31.1085 96.6622 31.1456C96.8006 31.1828 96.9449 31.1923 97.087 31.1736C97.2291 31.1549 97.366 31.1084 97.4901 31.0367L101.72 28.3267C101.837 28.2457 101.938 28.1422 102.015 28.0223C102.092 27.9024 102.145 27.7683 102.17 27.6279C102.195 27.4876 102.192 27.3436 102.161 27.2043C102.13 27.0651 102.072 26.9334 101.99 26.8167L97.5901 19.9167C97.5187 19.7871 97.4217 19.6734 97.305 19.5825C97.1882 19.4916 97.0542 19.4254 96.9111 19.388C96.7679 19.3506 96.6186 19.3427 96.4723 19.3648C96.3261 19.3869 96.1858 19.4386 96.0601 19.5167Z" fill="#322875"/>
<path d="M128.29 0.136666L124.05 2.84667C123.933 2.92768 123.833 3.03113 123.755 3.15106C123.678 3.27099 123.626 3.40502 123.601 3.5454C123.575 3.68579 123.578 3.82976 123.609 3.969C123.64 4.10824 123.698 4.24 123.78 4.35667L125.48 6.98667L109.85 16.9867L108.17 14.3467C108.022 14.0996 107.783 13.9203 107.505 13.8474C107.226 13.7745 106.93 13.8137 106.68 13.9567L102.44 16.6567C102.322 16.7386 102.222 16.843 102.145 16.9638C102.067 17.0846 102.015 17.2194 101.99 17.3606C101.965 17.5018 101.968 17.6466 101.999 17.7866C102.03 17.9267 102.088 18.0592 102.17 18.1767L106.57 25.0767C106.716 25.3258 106.955 25.5068 107.234 25.5799C107.514 25.653 107.811 25.6123 108.06 25.4667L112.3 22.7667C112.536 22.5995 112.696 22.3464 112.747 22.062C112.797 21.7776 112.734 21.4847 112.57 21.2467L111.18 19.0667L126.81 9.06667L128.18 11.2167C128.252 11.3409 128.347 11.4497 128.461 11.5371C128.574 11.6244 128.704 11.6885 128.842 11.7256C128.981 11.7628 129.125 11.7723 129.267 11.7536C129.409 11.7349 129.546 11.6884 129.67 11.6167L133.91 8.98667C134.028 8.90565 134.128 8.8022 134.205 8.68227C134.282 8.56234 134.335 8.42832 134.36 8.28793C134.385 8.14754 134.382 8.00357 134.351 7.86433C134.32 7.72509 134.262 7.59333 134.18 7.47667L129.78 0.576666C129.712 0.449116 129.619 0.336388 129.507 0.245047C129.395 0.153705 129.266 0.0855766 129.127 0.0446274C128.989 0.00367833 128.843 -0.00927267 128.699 0.00652864C128.556 0.0223299 128.417 0.0665678 128.29 0.136666Z" fill="#322875"/>
<path d="M83.1201 34.6967C82.3265 33.9086 81.7273 32.9466 81.3701 31.8867C81.8401 30.8867 82.6301 31.6267 82.8101 31.4367C82.9901 31.2467 82.4301 30.0967 82.8101 29.8867C83.1901 29.6767 83.6101 30.0667 83.9701 29.9367C84.3301 29.8067 83.7401 28.7967 84.1001 28.5867C84.4601 28.3767 85.4001 28.8167 85.5701 28.6467C85.9801 28.2767 85.8001 27.2567 86.4901 27.1467C87.9901 26.9067 89.6201 29.3067 90.0001 30.0067C90.8901 31.8167 85.0001 35.5167 83.1201 34.6967Z" fill="#FFCAA6"/>
<path d="M124.7 23.3966C121.88 20.4766 114.8 16.8766 114.1 14.6966C113.32 12.2466 118.63 11.7966 120.87 11.3066C121.96 14.2566 123.5 14.7066 123.87 16.7466C124.22 18.5966 126.58 19.3566 127.74 20.1366C127.62 20.2566 127.94 21.1566 124.7 23.3966Z" fill="#FFCAA6"/>
<path d="M121 11.5967C120.706 10.6818 120.303 9.80551 119.8 8.9867C118.8 8.8467 118.86 9.6567 118.63 9.6967C118.4 9.7367 117.63 8.9267 117.35 9.0767C117.07 9.2267 117.08 9.8667 116.82 10.0767C116.56 10.2867 115.82 9.5067 115.46 9.6867C115.1 9.8667 115.04 11.0667 114.83 11.1067C114.36 11.2467 113.38 10.6767 113.08 11.2467C112.51 12.3067 113.85 14.2467 114.17 14.9167C115 16.5967 120.66 13.5167 121 11.5967Z" fill="#FFCAA6"/>
<path d="M94.11 42.1767C92.38 38.5167 91 30.5067 89.23 29.0867C87.23 27.4967 84.23 32.6667 82.97 34.5867C85.35 36.5867 86.41 38.0067 88.18 39.0767C89.78 40.0767 89.4 42.6267 89.99 43.8967C90.15 43.8067 90.88 44.4267 94.11 42.1767Z" fill="#FFCAA6"/>
<path d="M179.64 103.207C179.257 101.557 178.721 99.947 178.04 98.3966C177.43 99.2066 175.95 99.6466 173.04 98.9866C170.167 98.3717 167.463 97.1367 165.118 95.368C162.772 93.5992 160.841 91.3394 159.46 88.7466C158.67 89.4566 158.1 92.0666 157.61 92.3766C160.8 97.3766 159.61 104.437 158.42 105.207C156.73 106.277 149.61 103.617 147.06 98.8266C146.57 99.1866 146.16 98.9366 145.68 99.3966C145.106 99.5169 144.514 99.5169 143.94 99.3966C144.78 100.707 147.02 110.907 147.17 113.887C147.17 114.647 147.35 117.887 146.3 118.757C146.333 119.164 146.424 119.565 146.57 119.947C149.264 120.797 152.045 121.344 154.86 121.577C166.92 122.127 175.3 110.787 179.64 103.207Z" fill="#F5E5E6"/>
<path d="M186.93 136.917C186.339 136.372 185.857 135.721 185.51 134.997C184.38 132.317 184.1 126.367 183.62 121.317C183.391 119.059 183.041 116.816 182.57 114.597C178.746 118.712 175.173 123.053 171.87 127.597C167.41 133.857 165.39 138.757 163.51 141.977C170.76 144.317 187.57 141.387 186.93 136.917Z" fill="#F5E5E6"/>
<path d="M182.57 114.597C181.73 110.597 180.57 106.407 179.64 103.207C175.3 110.787 166.92 122.127 154.88 121.607C152.065 121.374 149.284 120.827 146.59 119.977C147.09 121.28 147.763 122.511 148.59 123.637C151.35 126.837 152.36 126.257 155.92 128.577C158.714 130.807 160.534 134.032 161 137.577C161.003 138.303 160.813 139.017 160.45 139.647C160.769 140.227 161.21 140.731 161.741 141.127C162.272 141.522 162.883 141.798 163.53 141.937C165.41 138.717 167.43 133.817 171.89 127.557C175.188 123.027 178.755 118.699 182.57 114.597Z" fill="#D3C0DB"/>
</svg>
